<svg width="97" height="79" viewBox="0 0 97 79" fill="none" xmlns="http://www.w3.org/2000/svg">
<path fill-rule="evenodd" clip-rule="evenodd" d="M82.9976 59.1378L79.5889 56.2416C79.1417 55.8616 78.8839 55.3043 78.8839 54.7175V25.9505C78.8839 25.3636 79.1417 24.8064 79.5889 24.4264L83 21.5281C83 14.0369 82.9978 10.2869 81.5377 7.42129C80.2514 4.8968 78.1989 2.84432 75.6744 1.55802C72.8044 0.0957031 69.0474 0.0957031 61.5335 0.0957031H42.472C29.3556 0.0957031 22.7974 0.0957031 17.7875 2.64833C13.3808 4.89368 9.79798 8.47649 7.55263 12.8832C5 17.8931 5 24.4513 5 37.5677V54.6299C5 58.3077 5 60.1466 5.45664 61.8518C5.86125 63.3627 6.52696 64.7913 7.42369 66.0729C8.43572 67.5193 9.8438 68.702 12.6599 71.0674L15.0401 73.0666L15.0402 73.0667C17.2574 74.929 18.366 75.8601 19.6117 76.5231C20.7168 77.1111 21.8987 77.5417 23.1231 77.8021C24.5034 78.0957 25.9511 78.0957 28.8467 78.0957H39.933H47.5882H55.2434H61.5334C69.0474 78.0957 72.8044 78.0957 75.6744 76.6334C78.1989 75.3471 80.2514 73.2946 81.5377 70.7701C82.8274 68.2389 82.9796 65.0178 82.9976 59.1378Z" fill="#5FF4AD"/>
<rect x="91.5195" y="5.71094" width="5" height="5" rx="2" fill="#5FF4AD"/>
<rect x="76.4648" y="38.7266" width="5" height="5" rx="2" fill="white"/>
<path d="M84.6777 44.2734C84.6777 43.1689 85.5732 42.2734 86.6777 42.2734H88.8262C89.9307 42.2734 90.8262 43.1689 90.8262 44.2734V58.5897C90.8262 60.3598 88.6962 61.2573 87.4293 60.0211L85.2809 57.9245C84.8952 57.5482 84.6777 57.0321 84.6777 56.4932V44.2734Z" fill="white"/>
<path d="M1.73438 29.4688V48.4531" stroke="#201E27" stroke-width="2" stroke-linecap="round"/>
<path fill-rule="evenodd" clip-rule="evenodd" d="M40.8747 50.1631C40.8747 49.3503 40.4856 48.5866 39.8281 48.1089L27.4844 39.1407C26.6991 38.5701 26.3705 37.5588 26.6705 36.6356C26.989 35.6554 26.5848 34.5985 25.7838 33.95C24.122 32.6045 22.773 30.888 21.8629 28.9264C20.445 25.8702 23.2949 23.0148 26.664 23.0148H28.05C29.8664 23.0148 31.4762 21.8452 32.0374 20.1178C32.5987 18.3903 34.2085 17.2207 36.0249 17.2207L51.9746 17.2207C53.7909 17.2207 55.4007 18.3903 55.962 20.1178C56.5233 21.8452 58.1331 23.0148 59.9495 23.0148H61.3367C64.7068 23.0148 67.5575 25.8711 66.1388 28.928C65.2283 30.89 63.8785 32.6069 62.2159 33.9523C61.415 34.6003 61.011 35.6568 61.3293 36.6366C61.6291 37.5592 61.3007 38.5699 60.5158 39.1401L48.1714 48.1089C47.5138 48.5866 47.1247 49.3503 47.1247 50.1631V51.1398C47.1247 52.0027 47.8243 52.7023 48.6872 52.7023C49.5502 52.7023 50.2497 53.4018 50.2497 54.2648C50.2497 55.1277 50.9493 55.8273 51.8122 55.8273C52.6752 55.8273 53.3747 56.5268 53.3747 57.3898V58.171C53.3747 59.4654 52.3254 60.5148 51.031 60.5148H36.9685C35.6741 60.5148 34.6247 59.4654 34.6247 58.171V57.3898C34.6247 56.5268 35.3243 55.8273 36.1872 55.8273C37.0502 55.8273 37.7497 55.1277 37.7497 54.2648C37.7497 53.4018 38.4493 52.7023 39.3122 52.7023C40.1752 52.7023 40.8747 52.0027 40.8747 51.1398V50.1631Z" fill="white"/>
<path d="M46.9521 33.1648L50.2189 27.5982L43.9687 29.9638L39.9542 26.487L48.9922 38.2404L46.9521 33.1648Z" fill="#0C0B0F"/>
<path d="M37.4461 30.4429L39.2013 26.6171L48.1626 38.5019L37.4461 30.4429Z" fill="#0C0B0F"/>
<path d="M37.2818 38.9064L43.5313 36.0076L40.9177 34.2483L37.2818 38.9064Z" fill="#0C0B0F"/>
</svg>
