<svg width="79" height="79" viewBox="0 0 79 79" fill="none" xmlns="http://www.w3.org/2000/svg">
<path fill-rule="evenodd" clip-rule="evenodd" d="M78.1968 59.1383L74.7881 56.2421C74.3409 55.8621 74.0831 55.3048 74.0831 54.7179V25.951C74.0831 25.3641 74.3409 24.8069 74.7881 24.4269L78.1992 21.5286C78.1992 14.0374 78.197 10.2874 76.7369 7.42178C75.4506 4.89728 73.3981 2.84481 70.8736 1.55851C68.0037 0.0961914 64.2467 0.0961914 56.7327 0.0961914H37.6712C24.5548 0.0961914 17.9966 0.0961914 12.9868 2.64882C8.58 4.89417 4.9972 8.47698 2.75185 12.8837C0.199219 17.8935 0.199219 24.4518 0.199219 37.5682V54.6304C0.199219 58.3082 0.199219 60.1471 0.65586 61.8523C1.06047 63.3632 1.72618 64.7918 2.6229 66.0734C3.63494 67.5198 5.04302 68.7025 7.85916 71.0679L10.2393 73.0671L10.2394 73.0672C12.4566 74.9295 13.5652 75.8606 14.8109 76.5236C15.916 77.1116 17.0979 77.5421 18.3223 77.8026C19.7026 78.0962 21.1504 78.0962 24.0459 78.0962H35.1323H42.7874H50.4426H56.7327C64.2467 78.0962 68.0037 78.0962 70.8736 76.6339C73.3981 75.3476 75.4506 73.2951 76.7369 70.7706C78.0266 68.2394 78.1788 65.0183 78.1968 59.1383Z" fill="currentColor"/>
</svg>
