<svg width="281" height="210" viewBox="0 0 281 210" fill="none" xmlns="http://www.w3.org/2000/svg">
<g filter="url(#filter0_f_5604_71465)">
<circle cx="38.1917" cy="38.1917" r="38.1917" transform="matrix(0.996073 0.0885398 -0.33501 0.942215 115.024 33.5195)" fill="#7F9BFF" fill-opacity="0.53"/>
</g>
<g filter="url(#filter1_f_5604_71465)">
<circle cx="38.1917" cy="38.1917" r="38.1917" transform="matrix(0.996073 0.0885398 -0.33501 0.942215 115.024 33.5195)" fill="#7F9BFF" fill-opacity="0.53"/>
</g>
<path d="M188.055 44.2791C188.323 43.5269 189.185 42.9743 189.98 43.045L190.7 43.109C191.495 43.1797 191.923 43.8469 191.656 44.5992L191.413 45.2802C191.146 46.0325 190.284 46.5851 189.489 46.5144L188.769 46.4504C187.974 46.3797 187.546 45.7125 187.813 44.9602L188.055 44.2791Z" fill="white"/>
<path d="M110.634 99.825C110.901 99.0727 111.763 98.5202 112.558 98.5909L113.278 98.6549C114.073 98.7256 114.501 99.3928 114.234 100.145L113.991 100.826C113.724 101.578 112.862 102.131 112.067 102.06L111.347 101.996C110.552 101.926 110.124 101.258 110.391 100.506L110.634 99.825Z" fill="white"/>
<rect width="4.44439" height="4.44439" rx="1.4457" transform="matrix(0.996073 0.0885398 -0.33501 0.942215 160.65 101.868)" fill="white"/>
<path d="M142.5 68.9996L143 69.0003L136.756 96.8681L128.913 96.3377L142.5 68.9996Z" fill="#9CB0F8"/>
<rect width="3.61425" height="3.61425" rx="1.4457" transform="matrix(0.996073 0.0885398 -0.33501 0.942215 101.654 36.0996)" fill="white"/>
<rect width="3.61425" height="3.61425" rx="1.4457" transform="matrix(0.996073 0.0885398 -0.33501 0.942215 100.444 41.0557)" fill="#9CB0F8"/>
<path d="M181.045 100.317C183.851 92.4253 184.409 84.4777 182.663 77.2744C180.917 70.0711 176.929 63.8663 171.101 59.285L157.674 72.4532C161.417 75.3957 163.979 79.3809 165.1 84.0074C166.221 88.634 165.863 93.7385 164.061 98.8071L181.045 100.317Z" fill="#FF68F0"/>
<path d="M171.317 59.4533C165.56 54.8529 158.174 52.0123 149.895 51.2148C141.616 50.4172 132.733 51.6905 124.132 54.9076L127.507 69.6407C133.031 67.5744 138.736 66.7565 144.054 67.2688C149.371 67.7811 154.115 69.6056 157.812 72.5602L171.317 59.4533Z" fill="#9CB0F8"/>
<path d="M124.136 54.9063C115.443 58.1573 107.347 63.2784 100.672 69.7484C93.9965 76.2184 88.9803 83.8062 86.1339 91.7395L103.101 93.297C104.929 88.2016 108.151 83.3281 112.439 79.1726C116.726 75.0171 121.926 71.7279 127.509 69.6398L124.136 54.9063Z" fill="#5FF4AD"/>
<g filter="url(#filter2_bi_5604_71465)">
<path d="M79.2332 81.9855L96.1499 83.5576C97.9781 78.4622 101.2 73.5887 105.487 69.4332C109.775 65.2777 114.975 61.9885 120.558 59.9005L117.16 45.1787L120.002 47.6848L123.375 62.4184C117.792 64.5064 112.592 67.7956 108.305 71.9511C104.018 76.1066 100.796 80.9801 98.9676 86.0755L82.0003 84.518L79.2332 81.9855Z" fill="url(#paint0_linear_5604_71465)"/>
</g>
<g filter="url(#filter3_f_5604_71465)">
<path d="M79.2332 81.9855L96.1499 83.5576C97.9781 78.4622 101.2 73.5887 105.487 69.4332C109.775 65.2777 114.975 61.9885 120.558 59.9005L117.16 45.1787L120.002 47.6848L123.375 62.4184C117.792 64.5064 112.592 67.7956 108.305 71.9511C104.018 76.1066 100.796 80.9801 98.9676 86.0755L82.0003 84.518L79.2332 81.9855Z" fill="url(#paint1_linear_5604_71465)"/>
</g>
<g filter="url(#filter4_f_5604_71465)">
<path d="M79.2332 81.9855L96.1499 83.5576C97.9781 78.4622 101.2 73.5887 105.487 69.4332C109.775 65.2777 114.975 61.9885 120.558 59.9005L117.16 45.1787L120.002 47.6848L123.375 62.4184C117.792 64.5064 112.592 67.7956 108.305 71.9511C104.018 76.1066 100.796 80.9801 98.9676 86.0755L82.0003 84.518L79.2332 81.9855Z" fill="url(#paint2_linear_5604_71465)" fill-opacity="0.4"/>
</g>
<g filter="url(#filter5_bi_5604_71465)">
<path d="M117.189 45.168C108.496 48.419 100.4 53.5401 93.7248 60.0101C87.0495 66.4801 82.0333 74.0679 79.1869 82.0012L96.1542 83.5587C97.9824 78.4633 101.204 73.5898 105.492 69.4343C109.779 65.2788 114.979 61.9896 120.562 59.9016L117.189 45.168Z" fill="#9CB0F8" fill-opacity="0.17"/>
</g>
<g filter="url(#filter6_bi_5604_71465)">
<path d="M162.112 65.3164C165.924 68.2896 168.421 72.641 169.445 76.8692C170.567 81.4958 170.208 86.6003 168.406 91.6689L185.37 93.1754C185.37 93.1754 184.594 95.0494 184.258 95.9942L167.274 94.4845C169.076 89.4159 169.434 84.3114 168.313 79.6848C167.192 75.0583 164.631 71.0731 160.887 68.1306L162.112 65.3164Z" fill="url(#paint3_linear_5604_71465)"/>
</g>
<g filter="url(#filter7_f_5604_71465)">
<path d="M162.112 65.3164C165.924 68.2896 168.421 72.641 169.445 76.8692C170.567 81.4958 170.208 86.6003 168.406 91.6689L185.37 93.1754C185.37 93.1754 184.594 95.0494 184.258 95.9942L167.274 94.4845C169.076 89.4159 169.434 84.3114 168.313 79.6848C167.192 75.0583 164.631 71.0731 160.887 68.1306L162.112 65.3164Z" fill="url(#paint4_linear_5604_71465)"/>
</g>
<g filter="url(#filter8_f_5604_71465)">
<path d="M162.112 65.3164C165.924 68.2896 168.421 72.641 169.445 76.8692C170.567 81.4958 170.208 86.6003 168.406 91.6689L185.37 93.1754C185.37 93.1754 184.594 95.0494 184.258 95.9942L167.274 94.4845C169.076 89.4159 169.434 84.3114 168.313 79.6848C167.192 75.0583 164.631 71.0731 160.887 68.1306L162.112 65.3164Z" fill="url(#paint5_linear_5604_71465)" fill-opacity="0.4"/>
</g>
<g filter="url(#filter9_bi_5604_71465)">
<path d="M185.389 93.1762C188.195 85.2847 188.753 77.3371 187.007 70.1338C185.261 62.9305 181.273 56.7257 175.445 52.1443L162.018 65.3126C165.761 68.2551 168.323 72.2403 169.444 76.8668C170.565 81.4933 170.207 86.5979 168.405 91.6664L185.389 93.1762Z" fill="#9CB0F8" fill-opacity="0.17"/>
</g>
<g filter="url(#filter10_bi_5604_71465)">
<path d="M124.296 46.4064L126.758 57.156C132.282 55.0897 137.988 54.2719 143.305 54.7842C148.623 55.2964 153.367 57.1209 157.064 60.0756L170.557 46.9731L171.315 51.0135L157.811 64.1205C154.114 61.1658 149.37 59.3414 144.052 58.8291C138.735 58.3168 133.157 59.0741 127.633 61.1404L124.296 46.4064C124.351 46.3858 124.241 46.4268 124.296 46.4064Z" fill="url(#paint6_linear_5604_71465)"/>
</g>
<g filter="url(#filter11_f_5604_71465)">
<path d="M124.296 46.4064L126.758 57.156C132.282 55.0897 137.988 54.2719 143.305 54.7842C148.623 55.2964 153.367 57.1209 157.064 60.0756L170.557 46.9731L171.315 51.0135L157.811 64.1205C154.114 61.1658 149.37 59.3414 144.052 58.8291C138.735 58.3168 133.157 59.0741 127.633 61.1404L124.296 46.4064C124.351 46.3858 124.241 46.4268 124.296 46.4064Z" fill="url(#paint7_linear_5604_71465)"/>
</g>
<g filter="url(#filter12_f_5604_71465)">
<path d="M124.296 46.4064L126.758 57.156C132.282 55.0897 137.988 54.2719 143.305 54.7842C148.623 55.2964 153.367 57.1209 157.064 60.0756L170.557 46.9731L171.315 51.0135L157.811 64.1205C154.114 61.1658 149.37 59.3414 144.052 58.8291C138.735 58.3168 133.157 59.0741 127.633 61.1404L124.296 46.4064C124.351 46.3858 124.241 46.4268 124.296 46.4064Z" fill="url(#paint8_linear_5604_71465)" fill-opacity="0.4"/>
</g>
<g filter="url(#filter13_bi_5604_71465)">
<path d="M170.566 46.9689C164.81 42.3686 157.424 39.528 149.145 38.7304C140.866 37.9328 131.983 39.2061 123.382 42.4233L126.756 57.1563C132.28 55.09 137.986 54.2722 143.303 54.7844C148.621 55.2967 153.365 57.1212 157.062 60.0759L170.566 46.9689Z" fill="#9CB0F8" fill-opacity="0.17"/>
</g>
<defs>
<filter id="filter0_f_5604_71465" x="27.6801" y="-35.7045" width="225.183" height="217.18" filterUnits="userSpaceOnUse" color-interpolation-filters="sRGB">
<feFlood flood-opacity="0" result="BackgroundImageFix"/>
<feBlend mode="normal" in="SourceGraphic" in2="BackgroundImageFix" result="shape"/>
<feGaussianBlur stdDeviation="36.2223" result="effect1_foregroundBlur_5604_71465"/>
</filter>
<filter id="filter1_f_5604_71465" x="0.124512" y="-63.2598" width="280.293" height="272.291" filterUnits="userSpaceOnUse" color-interpolation-filters="sRGB">
<feFlood flood-opacity="0" result="BackgroundImageFix"/>
<feBlend mode="normal" in="SourceGraphic" in2="BackgroundImageFix" result="shape"/>
<feGaussianBlur stdDeviation="50" result="effect1_foregroundBlur_5604_71465"/>
</filter>
<filter id="filter2_bi_5604_71465" x="66.6841" y="38.5078" width="63.3624" height="54.2384" filterUnits="userSpaceOnUse" color-interpolation-filters="sRGB">
<feFlood flood-opacity="0" result="BackgroundImageFix"/>
<feGaussianBlur in="BackgroundImageFix" stdDeviation="3.33547"/>
<feComposite in2="SourceAlpha" operator="in" result="effect1_backgroundBlur_5604_71465"/>
<feBlend mode="normal" in="SourceGraphic" in2="effect1_backgroundBlur_5604_71465" result="shape"/>
<feColorMatrix in="SourceAlpha" type="matrix" values="0 0 0 0 0 0 0 0 0 0 0 0 0 0 0 0 0 0 127 0" result="hardAlpha"/>
<feOffset dx="-12.5491" dy="-1.56864"/>
<feGaussianBlur stdDeviation="60.3925"/>
<feComposite in2="hardAlpha" operator="arithmetic" k2="-1" k3="1"/>
<feColorMatrix type="matrix" values="0 0 0 0 0.396078 0 0 0 0 0.894118 0 0 0 0 1 0 0 0 0.1 0"/>
<feBlend mode="normal" in2="shape" result="effect2_innerShadow_5604_71465"/>
</filter>
<filter id="filter3_f_5604_71465" x="73.8964" y="39.842" width="54.8158" height="51.57" filterUnits="userSpaceOnUse" color-interpolation-filters="sRGB">
<feFlood flood-opacity="0" result="BackgroundImageFix"/>
<feBlend mode="normal" in="SourceGraphic" in2="BackgroundImageFix" result="shape"/>
<feGaussianBlur stdDeviation="2.66838" result="effect1_foregroundBlur_5604_71465"/>
</filter>
<filter id="filter4_f_5604_71465" x="68.5597" y="34.5052" width="65.4893" height="62.2435" filterUnits="userSpaceOnUse" color-interpolation-filters="sRGB">
<feFlood flood-opacity="0" result="BackgroundImageFix"/>
<feBlend mode="normal" in="SourceGraphic" in2="BackgroundImageFix" result="shape"/>
<feGaussianBlur stdDeviation="5.33675" result="effect1_foregroundBlur_5604_71465"/>
</filter>
<filter id="filter5_bi_5604_71465" x="66.6377" y="38.497" width="60.5953" height="51.7325" filterUnits="userSpaceOnUse" color-interpolation-filters="sRGB">
<feFlood flood-opacity="0" result="BackgroundImageFix"/>
<feGaussianBlur in="BackgroundImageFix" stdDeviation="3.33547"/>
<feComposite in2="SourceAlpha" operator="in" result="effect1_backgroundBlur_5604_71465"/>
<feBlend mode="normal" in="SourceGraphic" in2="effect1_backgroundBlur_5604_71465" result="shape"/>
<feColorMatrix in="SourceAlpha" type="matrix" values="0 0 0 0 0 0 0 0 0 0 0 0 0 0 0 0 0 0 127 0" result="hardAlpha"/>
<feOffset dx="-12.5491" dy="-1.56864"/>
<feGaussianBlur stdDeviation="60.3925"/>
<feComposite in2="hardAlpha" operator="arithmetic" k2="-1" k3="1"/>
<feColorMatrix type="matrix" values="0 0 0 0 0.396078 0 0 0 0 0.894118 0 0 0 0 1 0 0 0 0.1 0"/>
<feBlend mode="normal" in2="shape" result="effect2_innerShadow_5604_71465"/>
</filter>
<filter id="filter6_bi_5604_71465" x="148.338" y="58.6455" width="43.7029" height="44.0196" filterUnits="userSpaceOnUse" color-interpolation-filters="sRGB">
<feFlood flood-opacity="0" result="BackgroundImageFix"/>
<feGaussianBlur in="BackgroundImageFix" stdDeviation="3.33547"/>
<feComposite in2="SourceAlpha" operator="in" result="effect1_backgroundBlur_5604_71465"/>
<feBlend mode="normal" in="SourceGraphic" in2="effect1_backgroundBlur_5604_71465" result="shape"/>
<feColorMatrix in="SourceAlpha" type="matrix" values="0 0 0 0 0 0 0 0 0 0 0 0 0 0 0 0 0 0 127 0" result="hardAlpha"/>
<feOffset dx="-12.5491" dy="-1.56864"/>
<feGaussianBlur stdDeviation="60.3925"/>
<feComposite in2="hardAlpha" operator="arithmetic" k2="-1" k3="1"/>
<feColorMatrix type="matrix" values="0 0 0 0 0.396078 0 0 0 0 0.894118 0 0 0 0 1 0 0 0 0.1 0"/>
<feBlend mode="normal" in2="shape" result="effect2_innerShadow_5604_71465"/>
</filter>
<filter id="filter7_f_5604_71465" x="155.55" y="59.9797" width="35.1564" height="41.3512" filterUnits="userSpaceOnUse" color-interpolation-filters="sRGB">
<feFlood flood-opacity="0" result="BackgroundImageFix"/>
<feBlend mode="normal" in="SourceGraphic" in2="BackgroundImageFix" result="shape"/>
<feGaussianBlur stdDeviation="2.66838" result="effect1_foregroundBlur_5604_71465"/>
</filter>
<filter id="filter8_f_5604_71465" x="150.213" y="54.6429" width="45.8299" height="52.0247" filterUnits="userSpaceOnUse" color-interpolation-filters="sRGB">
<feFlood flood-opacity="0" result="BackgroundImageFix"/>
<feBlend mode="normal" in="SourceGraphic" in2="BackgroundImageFix" result="shape"/>
<feGaussianBlur stdDeviation="5.33675" result="effect1_foregroundBlur_5604_71465"/>
</filter>
<filter id="filter9_bi_5604_71465" x="149.468" y="45.4736" width="45.2049" height="54.3731" filterUnits="userSpaceOnUse" color-interpolation-filters="sRGB">
<feFlood flood-opacity="0" result="BackgroundImageFix"/>
<feGaussianBlur in="BackgroundImageFix" stdDeviation="3.33547"/>
<feComposite in2="SourceAlpha" operator="in" result="effect1_backgroundBlur_5604_71465"/>
<feBlend mode="normal" in="SourceGraphic" in2="effect1_backgroundBlur_5604_71465" result="shape"/>
<feColorMatrix in="SourceAlpha" type="matrix" values="0 0 0 0 0 0 0 0 0 0 0 0 0 0 0 0 0 0 127 0" result="hardAlpha"/>
<feOffset dx="-12.5491" dy="-1.56864"/>
<feGaussianBlur stdDeviation="60.3925"/>
<feComposite in2="hardAlpha" operator="arithmetic" k2="-1" k3="1"/>
<feColorMatrix type="matrix" values="0 0 0 0 0.396078 0 0 0 0 0.894118 0 0 0 0 1 0 0 0 0.1 0"/>
<feBlend mode="normal" in2="shape" result="effect2_innerShadow_5604_71465"/>
</filter>
<filter id="filter10_bi_5604_71465" x="111.731" y="39.7295" width="66.2552" height="31.0616" filterUnits="userSpaceOnUse" color-interpolation-filters="sRGB">
<feFlood flood-opacity="0" result="BackgroundImageFix"/>
<feGaussianBlur in="BackgroundImageFix" stdDeviation="3.33547"/>
<feComposite in2="SourceAlpha" operator="in" result="effect1_backgroundBlur_5604_71465"/>
<feBlend mode="normal" in="SourceGraphic" in2="effect1_backgroundBlur_5604_71465" result="shape"/>
<feColorMatrix in="SourceAlpha" type="matrix" values="0 0 0 0 0 0 0 0 0 0 0 0 0 0 0 0 0 0 127 0" result="hardAlpha"/>
<feOffset dx="-12.5491" dy="-1.56864"/>
<feGaussianBlur stdDeviation="60.3925"/>
<feComposite in2="hardAlpha" operator="arithmetic" k2="-1" k3="1"/>
<feColorMatrix type="matrix" values="0 0 0 0 0.396078 0 0 0 0 0.894118 0 0 0 0 1 0 0 0 0.1 0"/>
<feBlend mode="normal" in2="shape" result="effect2_innerShadow_5604_71465"/>
</filter>
<filter id="filter11_f_5604_71465" x="118.944" y="41.0636" width="57.7087" height="28.3932" filterUnits="userSpaceOnUse" color-interpolation-filters="sRGB">
<feFlood flood-opacity="0" result="BackgroundImageFix"/>
<feBlend mode="normal" in="SourceGraphic" in2="BackgroundImageFix" result="shape"/>
<feGaussianBlur stdDeviation="2.66838" result="effect1_foregroundBlur_5604_71465"/>
</filter>
<filter id="filter12_f_5604_71465" x="113.607" y="35.7269" width="68.3822" height="39.0667" filterUnits="userSpaceOnUse" color-interpolation-filters="sRGB">
<feFlood flood-opacity="0" result="BackgroundImageFix"/>
<feBlend mode="normal" in="SourceGraphic" in2="BackgroundImageFix" result="shape"/>
<feGaussianBlur stdDeviation="5.33675" result="effect1_foregroundBlur_5604_71465"/>
</filter>
<filter id="filter13_bi_5604_71465" x="110.833" y="31.8281" width="66.4046" height="34.919" filterUnits="userSpaceOnUse" color-interpolation-filters="sRGB">
<feFlood flood-opacity="0" result="BackgroundImageFix"/>
<feGaussianBlur in="BackgroundImageFix" stdDeviation="3.33547"/>
<feComposite in2="SourceAlpha" operator="in" result="effect1_backgroundBlur_5604_71465"/>
<feBlend mode="normal" in="SourceGraphic" in2="effect1_backgroundBlur_5604_71465" result="shape"/>
<feColorMatrix in="SourceAlpha" type="matrix" values="0 0 0 0 0 0 0 0 0 0 0 0 0 0 0 0 0 0 127 0" result="hardAlpha"/>
<feOffset dx="-12.5491" dy="-1.56864"/>
<feGaussianBlur stdDeviation="60.3925"/>
<feComposite in2="hardAlpha" operator="arithmetic" k2="-1" k3="1"/>
<feColorMatrix type="matrix" values="0 0 0 0 0.396078 0 0 0 0 0.894118 0 0 0 0 1 0 0 0 0.1 0"/>
<feBlend mode="normal" in2="shape" result="effect2_innerShadow_5604_71465"/>
</filter>
<linearGradient id="paint0_linear_5604_71465" x1="118.645" y1="45.7995" x2="78.3524" y2="109.325" gradientUnits="userSpaceOnUse">
<stop stop-color="#7CFFC1"/>
<stop offset="0.0990174" stop-color="#5FF4AD"/>
<stop offset="0.324651" stop-color="white"/>
<stop offset="0.575236" stop-color="#029479"/>
<stop offset="0.6597" stop-color="#5FE2FF"/>
<stop offset="0.728614" stop-color="#65E3FF"/>
</linearGradient>
<linearGradient id="paint1_linear_5604_71465" x1="118.645" y1="45.7995" x2="78.3524" y2="109.325" gradientUnits="userSpaceOnUse">
<stop stop-color="#7CFFC1"/>
<stop offset="0.0990174" stop-color="#5FF4AD"/>
<stop offset="0.324651" stop-color="white"/>
<stop offset="0.575236" stop-color="#029479"/>
<stop offset="0.6597" stop-color="#5FE2FF"/>
<stop offset="0.728614" stop-color="#65E3FF"/>
</linearGradient>
<linearGradient id="paint2_linear_5604_71465" x1="118.645" y1="45.7995" x2="78.3524" y2="109.325" gradientUnits="userSpaceOnUse">
<stop stop-color="#7CFFC1"/>
<stop offset="0.0990174" stop-color="#5FF4AD"/>
<stop offset="0.324651" stop-color="white"/>
<stop offset="0.575236" stop-color="#029479"/>
<stop offset="0.6597" stop-color="#5FE2FF"/>
<stop offset="0.728614" stop-color="#65E3FF"/>
</linearGradient>
<linearGradient id="paint3_linear_5604_71465" x1="189.12" y1="93.5283" x2="184.069" y2="60.6553" gradientUnits="userSpaceOnUse">
<stop offset="0.0178516" stop-color="#68FFE4"/>
<stop offset="0.0816078" stop-color="#FF68F0"/>
<stop offset="0.290559" stop-color="white"/>
<stop offset="0.621464" stop-color="#65F6FF"/>
<stop offset="0.736587" stop-color="#536DF3"/>
<stop offset="1" stop-color="#C24FEB"/>
</linearGradient>
<linearGradient id="paint4_linear_5604_71465" x1="151.353" y1="55.0002" x2="185.097" y2="58.1891" gradientUnits="userSpaceOnUse">
<stop stop-color="#7CFFC1"/>
<stop offset="0.324359" stop-color="#5FF4AD"/>
<stop offset="0.492308" stop-color="white"/>
<stop offset="0.716667" stop-color="#5FE2FF"/>
<stop offset="0.859528" stop-color="#65E3FF"/>
</linearGradient>
<linearGradient id="paint5_linear_5604_71465" x1="151.353" y1="55.0002" x2="185.097" y2="58.1891" gradientUnits="userSpaceOnUse">
<stop stop-color="#7CFFC1"/>
<stop offset="0.324359" stop-color="#5FF4AD"/>
<stop offset="0.492308" stop-color="white"/>
<stop offset="0.716667" stop-color="#5FE2FF"/>
<stop offset="0.859528" stop-color="#65E3FF"/>
</linearGradient>
<linearGradient id="paint6_linear_5604_71465" x1="173.037" y1="70.3406" x2="134.525" y2="92.921" gradientUnits="userSpaceOnUse">
<stop stop-color="#7CFFC1"/>
<stop offset="0.136786" stop-color="#5FF4AD"/>
<stop offset="0.456317" stop-color="white"/>
<stop offset="0.678478" stop-color="#5FE2FF"/>
<stop offset="0.779699" stop-color="#65E3FF"/>
</linearGradient>
<linearGradient id="paint7_linear_5604_71465" x1="173.037" y1="70.3406" x2="134.525" y2="92.921" gradientUnits="userSpaceOnUse">
<stop stop-color="#7CFFC1"/>
<stop offset="0.136786" stop-color="#5FF4AD"/>
<stop offset="0.456317" stop-color="white"/>
<stop offset="0.678478" stop-color="#5FE2FF"/>
<stop offset="0.779699" stop-color="#65E3FF"/>
</linearGradient>
<linearGradient id="paint8_linear_5604_71465" x1="173.037" y1="70.3406" x2="134.525" y2="92.921" gradientUnits="userSpaceOnUse">
<stop stop-color="#7CFFC1"/>
<stop offset="0.136786" stop-color="#5FF4AD"/>
<stop offset="0.456317" stop-color="white"/>
<stop offset="0.678478" stop-color="#5FE2FF"/>
<stop offset="0.779699" stop-color="#65E3FF"/>
</linearGradient>
</defs>
</svg>
