<svg width="320" height="243" viewBox="0 0 320 243" fill="none" xmlns="http://www.w3.org/2000/svg">
<g filter="url(#filter0_f_10298_87318)">
<path d="M130.111 71.575L150.862 24.8853L213.388 30.3465L192.378 47.9997L203.012 97.7864L106.629 123.452L121.374 83.5888L130.111 71.575Z" fill="#3FF0ED" fill-opacity="0.2"/>
</g>
<g filter="url(#filter1_f_10298_87318)">
<path d="M130.111 71.575L150.862 24.8853L213.388 30.3465L192.378 47.9997L203.012 97.7864L106.629 123.452L121.374 83.5888L130.111 71.575Z" fill="#3FF0ED" fill-opacity="0.2"/>
</g>
<g filter="url(#filter2_bi_10298_87318)">
<path d="M147.392 56.1954L177.561 26.9715L202.212 29.1626L180.525 46.9463L195.418 48.2701L122.999 105.974L168.105 58.0366L147.392 56.1954Z" fill="#3FF0ED"/>
</g>
<g filter="url(#filter3_bi_10298_87318)">
<path d="M161.18 95.3694C163.473 96.6369 166.298 97.4198 169.656 97.7182C173.1 98.0244 176.299 97.6919 179.253 96.7206C182.207 95.7494 184.698 94.3114 186.724 92.4068C188.794 90.5061 190.269 88.3184 191.149 85.8439C191.41 85.1094 191.604 84.4081 191.73 83.7398C192.179 85.3582 192.008 87.281 191.216 89.508C190.336 91.9825 188.861 94.1702 186.791 96.0709C184.764 97.9755 182.274 99.4135 179.32 100.385C176.366 101.356 173.167 101.688 169.722 101.382C166.365 101.084 163.54 100.301 161.247 99.0335C158.954 97.766 157.36 96.0501 156.465 93.8859C155.869 92.3721 155.709 90.6881 155.984 88.834C156.084 89.3115 156.222 89.7741 156.399 90.2218C157.293 92.386 158.887 94.1019 161.18 95.3694Z" fill="url(#paint0_linear_10298_87318)"/>
<path d="M175.48 68.0697C175.941 67.1639 176.595 66.4776 177.441 66.0107C178.519 65.3832 179.733 65.1296 181.085 65.2497C182.655 65.3892 183.794 65.916 184.504 66.83C185.228 67.7027 185.384 68.8441 184.973 70.2541L197.072 71.3296C197.74 69.1081 197.98 64.9302 197.615 63.1659C197.508 63.9077 197.246 66.8642 197.005 67.6654L184.906 66.59C185.318 65.18 185.161 64.0386 184.437 63.1659C183.728 62.2519 182.588 61.7251 181.018 61.5856C179.667 61.4655 178.452 61.7191 177.375 62.3466C176.312 62.9329 175.553 63.8652 175.098 65.1438C174.693 66.282 174.821 67.2573 175.48 68.0697Z" fill="url(#paint1_linear_10298_87318)"/>
<path d="M179.157 85.6075C179.07 85.8512 178.969 86.0836 178.855 86.3046C178.368 85.6231 177.681 85.0298 176.795 84.5247C175.867 83.9741 174.48 83.3191 172.637 82.5595C169.98 81.4299 167.868 80.3487 166.301 79.3159C164.734 78.2832 163.576 76.8613 162.825 75.0502C162.305 73.7956 162.198 72.3225 162.503 70.6308C162.572 70.8908 162.658 71.1426 162.759 71.3861C163.509 73.1972 164.668 74.6191 166.234 75.6518C167.801 76.6846 169.913 77.7658 172.57 78.8954C174.414 79.6549 175.8 80.31 176.729 80.8606C177.701 81.415 178.433 82.0757 178.925 82.8427C179.461 83.6136 179.538 84.5352 179.157 85.6075Z" fill="url(#paint2_linear_10298_87318)"/>
</g>
<g filter="url(#filter4_bi_10298_87318)">
<path d="M169.657 97.7184C166.3 97.42 163.475 96.6371 161.182 95.3696C158.889 94.1021 157.295 92.3863 156.4 90.222C155.549 88.0616 155.586 85.5546 156.511 82.7011L168.414 83.7592C168.016 85.3831 168.165 86.6727 168.86 87.628C169.569 88.5419 170.73 89.0706 172.344 89.214C174 89.3613 175.433 89.127 176.642 88.5111C177.865 87.854 178.704 86.8862 179.158 85.6077C179.539 84.5354 179.462 83.6138 178.927 82.8429C178.435 82.0759 177.703 81.4152 176.731 80.8608C175.802 80.3102 174.416 79.6552 172.572 78.8956C169.915 77.766 167.803 76.6848 166.236 75.6521C164.669 74.6193 163.511 73.1974 162.76 71.3863C162.01 69.5752 162.119 67.3087 163.086 64.5867C164.523 60.5449 167.193 57.5274 171.095 55.5343C175.012 53.4998 179.456 52.7035 184.426 53.1453C189.484 53.5949 193.15 55.1121 195.424 57.6968C197.713 60.2403 198.241 63.5633 197.007 67.6657L184.908 66.5902C185.319 65.1802 185.163 64.0388 184.439 63.1661C183.729 62.2521 182.59 61.7253 181.02 61.5858C179.668 61.4657 178.454 61.7193 177.376 62.3468C176.313 62.9331 175.554 63.8655 175.1 65.144C174.601 66.5462 174.91 67.7012 176.027 68.6088C177.143 69.5164 179.023 70.5557 181.665 71.7265C184.292 72.9386 186.368 74.0591 187.891 75.088C189.458 76.1207 190.624 77.522 191.389 79.2919C192.154 81.0617 192.075 83.2458 191.151 85.8441C190.271 88.3186 188.796 90.5063 186.726 92.407C184.699 94.3116 182.209 95.7496 179.255 96.7208C176.301 97.6921 173.102 98.0246 169.657 97.7184Z" fill="#9CB0F8" fill-opacity="0.17"/>
</g>
<g filter="url(#filter5_f_10298_87318)">
<path d="M161.18 95.3694C163.473 96.6369 166.298 97.4198 169.656 97.7182C173.1 98.0244 176.299 97.6919 179.253 96.7206C182.207 95.7494 184.698 94.3114 186.724 92.4068C188.794 90.5061 190.269 88.3184 191.149 85.8439C191.41 85.1094 191.604 84.4081 191.73 83.7398C192.179 85.3582 192.008 87.281 191.216 89.508C190.336 91.9825 188.861 94.1702 186.791 96.0709C184.764 97.9755 182.274 99.4135 179.32 100.385C176.366 101.356 173.167 101.688 169.722 101.382C166.365 101.084 163.54 100.301 161.247 99.0335C158.954 97.766 157.36 96.0501 156.465 93.8859C155.869 92.3721 155.709 90.6881 155.984 88.834C156.084 89.3115 156.222 89.7741 156.399 90.2218C157.293 92.386 158.887 94.1019 161.18 95.3694Z" fill="url(#paint3_linear_10298_87318)"/>
<path d="M175.48 68.0697C175.941 67.1639 176.595 66.4776 177.441 66.0107C178.519 65.3832 179.733 65.1296 181.085 65.2497C182.655 65.3892 183.794 65.916 184.504 66.83C185.228 67.7027 185.384 68.8441 184.973 70.2541L197.072 71.3296C197.74 69.1081 197.98 64.9302 197.615 63.1659C197.508 63.9077 197.246 66.8642 197.005 67.6654L184.906 66.59C185.318 65.18 185.161 64.0386 184.437 63.1659C183.728 62.2519 182.588 61.7251 181.018 61.5856C179.667 61.4655 178.452 61.7191 177.375 62.3466C176.312 62.9329 175.553 63.8652 175.098 65.1438C174.693 66.282 174.821 67.2573 175.48 68.0697Z" fill="url(#paint4_linear_10298_87318)"/>
<path d="M179.157 85.6075C179.07 85.8512 178.969 86.0836 178.855 86.3046C178.368 85.6231 177.681 85.0298 176.795 84.5247C175.867 83.9741 174.48 83.3191 172.637 82.5595C169.98 81.4299 167.868 80.3487 166.301 79.3159C164.734 78.2832 163.576 76.8613 162.825 75.0502C162.305 73.7956 162.198 72.3225 162.503 70.6308C162.572 70.8908 162.658 71.1426 162.759 71.3861C163.509 73.1972 164.668 74.6191 166.234 75.6518C167.801 76.6846 169.913 77.7658 172.57 78.8954C174.414 79.6549 175.8 80.31 176.729 80.8606C177.701 81.415 178.433 82.0757 178.925 82.8427C179.461 83.6136 179.538 84.5352 179.157 85.6075Z" fill="url(#paint5_linear_10298_87318)"/>
</g>
<g filter="url(#filter6_f_10298_87318)">
<path d="M161.18 95.3694C163.473 96.6369 166.298 97.4198 169.656 97.7182C173.1 98.0244 176.299 97.6919 179.253 96.7206C182.207 95.7494 184.698 94.3114 186.724 92.4068C188.794 90.5061 190.269 88.3184 191.149 85.8439C191.41 85.1094 191.604 84.4081 191.73 83.7398C192.179 85.3582 192.008 87.281 191.216 89.508C190.336 91.9825 188.861 94.1702 186.791 96.0709C184.764 97.9755 182.274 99.4135 179.32 100.385C176.366 101.356 173.167 101.688 169.722 101.382C166.365 101.084 163.54 100.301 161.247 99.0335C158.954 97.766 157.36 96.0501 156.465 93.8859C155.869 92.3721 155.709 90.6881 155.984 88.834C156.084 89.3115 156.222 89.7741 156.399 90.2218C157.293 92.386 158.887 94.1019 161.18 95.3694Z" fill="url(#paint6_linear_10298_87318)" fill-opacity="0.4"/>
<path d="M175.48 68.0697C175.941 67.1639 176.595 66.4776 177.441 66.0107C178.519 65.3832 179.733 65.1296 181.085 65.2497C182.655 65.3892 183.794 65.916 184.504 66.83C185.228 67.7027 185.384 68.8441 184.973 70.2541L197.072 71.3296C197.74 69.1081 197.98 64.9302 197.615 63.1659C197.508 63.9077 197.246 66.8642 197.005 67.6654L184.906 66.59C185.318 65.18 185.161 64.0386 184.437 63.1659C183.728 62.2519 182.588 61.7251 181.018 61.5856C179.667 61.4655 178.452 61.7191 177.375 62.3466C176.312 62.9329 175.553 63.8652 175.098 65.1438C174.693 66.282 174.821 67.2573 175.48 68.0697Z" fill="url(#paint7_linear_10298_87318)" fill-opacity="0.4"/>
<path d="M179.157 85.6075C179.07 85.8512 178.969 86.0836 178.855 86.3046C178.368 85.6231 177.681 85.0298 176.795 84.5247C175.867 83.9741 174.48 83.3191 172.637 82.5595C169.98 81.4299 167.868 80.3487 166.301 79.3159C164.734 78.2832 163.576 76.8613 162.825 75.0502C162.305 73.7956 162.198 72.3225 162.503 70.6308C162.572 70.8908 162.658 71.1426 162.759 71.3861C163.509 73.1972 164.668 74.6191 166.234 75.6518C167.801 76.6846 169.913 77.7658 172.57 78.8954C174.414 79.6549 175.8 80.31 176.729 80.8606C177.701 81.415 178.433 82.0757 178.925 82.8427C179.461 83.6136 179.538 84.5352 179.157 85.6075Z" fill="url(#paint8_linear_10298_87318)" fill-opacity="0.4"/>
</g>
<g filter="url(#filter7_bi_10298_87318)">
<path d="M137.836 65.0258V38.7575L136.358 34.7842L136.134 67.288L137.836 65.0258Z" fill="url(#paint9_linear_10298_87318)"/>
<path d="M169.624 37.7861L139.228 78.026L125.8 76.9342L127.456 79.629L140.881 80.8223L170.907 41.0789L169.624 37.7861Z" fill="url(#paint10_linear_10298_87318)"/>
</g>
<g filter="url(#filter8_bi_10298_87318)">
<path d="M169.63 37.7768L139.199 78.0441L125.775 76.8509L124.966 33.8066L136.383 34.8215L136.116 67.2412L158.276 36.7675L169.63 37.7768Z" fill="#9CB0F8" fill-opacity="0.17"/>
</g>
<g filter="url(#filter9_f_10298_87318)">
<path d="M138.278 64.2667L138.489 38.7063L136.39 34.8496L136.118 67.2379L138.278 64.2667Z" fill="url(#paint11_linear_10298_87318)"/>
<path d="M169.627 37.7805L139.201 78.0408L125.831 76.8202L127.881 80.7357L141.305 81.929L171.736 41.6616L169.627 37.7805Z" fill="url(#paint12_linear_10298_87318)"/>
</g>
<g filter="url(#filter10_f_10298_87318)">
<path d="M138.278 64.2667L138.489 38.7063L136.39 34.8496L136.118 67.2379L138.278 64.2667Z" fill="url(#paint13_linear_10298_87318)" fill-opacity="0.4"/>
<path d="M169.627 37.7805L139.201 78.0408L125.831 76.8202L127.881 80.7357L141.305 81.929L171.736 41.6616L169.627 37.7805Z" fill="url(#paint14_linear_10298_87318)" fill-opacity="0.4"/>
</g>
<path d="M204.429 41.994C204.731 41.1457 205.702 40.5226 206.599 40.6023L207.411 40.6745C208.308 40.7542 208.79 41.5065 208.488 42.3548L208.215 43.1228C207.914 43.9711 206.942 44.5941 206.045 44.5144L205.234 44.4423C204.337 44.3625 203.854 43.6103 204.156 42.762L204.429 41.994Z" fill="white"/>
<rect width="5.01149" height="5.01149" rx="1.63017" transform="matrix(0.996073 0.0885398 -0.33501 0.942215 148.354 105.926)" fill="white"/>
<path d="M104.891 72.6691C105.126 72.0088 105.882 71.5239 106.58 71.586L107.549 71.6721C108.247 71.7341 108.623 72.3197 108.388 72.9799L104.383 84.2446C103.97 85.4062 102.225 85.7454 101.844 84.7381L101.329 83.3749C101.247 83.158 101.251 82.9069 101.34 82.6568L104.891 72.6691Z" fill="white"/>
<path d="M109.629 29.6571C109.931 28.8088 110.902 28.1857 111.799 28.2654L112.611 28.3376C113.508 28.4173 113.99 29.1696 113.689 30.0179L113.416 30.7859C113.114 31.6342 112.142 32.2572 111.246 32.1775L110.434 32.1053C109.537 32.0256 109.054 31.2733 109.356 30.425L109.629 29.6571Z" fill="#43EFEF"/>
<rect width="4.07542" height="4.07542" rx="1.63017" transform="matrix(0.996073 0.0885398 -0.33501 0.942215 204.973 93.1328)" fill="#43EFEF"/>
<rect width="4.07542" height="4.07542" rx="1.63017" transform="matrix(0.996073 0.0885398 -0.33501 0.942215 203.205 98.1064)" fill="white"/>
<defs>
<filter id="filter0_f_10298_87318" x="-13.7249" y="-95.4685" width="347.467" height="339.275" filterUnits="userSpaceOnUse" color-interpolation-filters="sRGB">
<feFlood flood-opacity="0" result="BackgroundImageFix"/>
<feBlend mode="normal" in="SourceGraphic" in2="BackgroundImageFix" result="shape"/>
<feGaussianBlur stdDeviation="60.1771" result="effect1_foregroundBlur_10298_87318"/>
</filter>
<filter id="filter1_f_10298_87318" x="46.4523" y="-35.2914" width="227.113" height="218.921" filterUnits="userSpaceOnUse" color-interpolation-filters="sRGB">
<feFlood flood-opacity="0" result="BackgroundImageFix"/>
<feBlend mode="normal" in="SourceGraphic" in2="BackgroundImageFix" result="shape"/>
<feGaussianBlur stdDeviation="30.0886" result="effect1_foregroundBlur_10298_87318"/>
</filter>
<filter id="filter2_bi_10298_87318" x="109.721" y="19.9137" width="99.5485" height="93.1179" filterUnits="userSpaceOnUse" color-interpolation-filters="sRGB">
<feFlood flood-opacity="0" result="BackgroundImageFix"/>
<feGaussianBlur in="BackgroundImageFix" stdDeviation="3.52898"/>
<feComposite in2="SourceAlpha" operator="in" result="effect1_backgroundBlur_10298_87318"/>
<feBlend mode="normal" in="SourceGraphic" in2="effect1_backgroundBlur_10298_87318" result="shape"/>
<feColorMatrix in="SourceAlpha" type="matrix" values="0 0 0 0 0 0 0 0 0 0 0 0 0 0 0 0 0 0 127 0" result="hardAlpha"/>
<feOffset dx="-13.2771" dy="-1.65964"/>
<feGaussianBlur stdDeviation="63.8962"/>
<feComposite in2="hardAlpha" operator="arithmetic" k2="-1" k3="1"/>
<feColorMatrix type="matrix" values="0 0 0 0 0.396078 0 0 0 0 0.894118 0 0 0 0 1 0 0 0 0.1 0"/>
<feBlend mode="normal" in2="shape" result="effect2_innerShadow_10298_87318"/>
</filter>
<filter id="filter3_bi_10298_87318" x="142.576" y="54.4987" width="62.2667" height="54.0515" filterUnits="userSpaceOnUse" color-interpolation-filters="sRGB">
<feFlood flood-opacity="0" result="BackgroundImageFix"/>
<feGaussianBlur in="BackgroundImageFix" stdDeviation="3.52898"/>
<feComposite in2="SourceAlpha" operator="in" result="effect1_backgroundBlur_10298_87318"/>
<feBlend mode="normal" in="SourceGraphic" in2="effect1_backgroundBlur_10298_87318" result="shape"/>
<feColorMatrix in="SourceAlpha" type="matrix" values="0 0 0 0 0 0 0 0 0 0 0 0 0 0 0 0 0 0 127 0" result="hardAlpha"/>
<feOffset dx="-13.2771" dy="-1.65964"/>
<feGaussianBlur stdDeviation="63.8962"/>
<feComposite in2="hardAlpha" operator="arithmetic" k2="-1" k3="1"/>
<feColorMatrix type="matrix" values="0 0 0 0 0.396078 0 0 0 0 0.894118 0 0 0 0 1 0 0 0 0.1 0"/>
<feBlend mode="normal" in2="shape" result="effect2_innerShadow_10298_87318"/>
</filter>
<filter id="filter4_bi_10298_87318" x="141.638" y="45.5052" width="63.5392" height="59.8451" filterUnits="userSpaceOnUse" color-interpolation-filters="sRGB">
<feFlood flood-opacity="0" result="BackgroundImageFix"/>
<feGaussianBlur in="BackgroundImageFix" stdDeviation="3.76107"/>
<feComposite in2="SourceAlpha" operator="in" result="effect1_backgroundBlur_10298_87318"/>
<feBlend mode="normal" in="SourceGraphic" in2="effect1_backgroundBlur_10298_87318" result="shape"/>
<feColorMatrix in="SourceAlpha" type="matrix" values="0 0 0 0 0 0 0 0 0 0 0 0 0 0 0 0 0 0 127 0" result="hardAlpha"/>
<feOffset dx="-14.1503" dy="-1.76879"/>
<feGaussianBlur stdDeviation="68.0985"/>
<feComposite in2="hardAlpha" operator="arithmetic" k2="-1" k3="1"/>
<feColorMatrix type="matrix" values="0 0 0 0 0.396078 0 0 0 0 0.894118 0 0 0 0 1 0 0 0 0.1 0"/>
<feBlend mode="normal" in2="shape" result="effect2_innerShadow_10298_87318"/>
</filter>
<filter id="filter5_f_10298_87318" x="149.836" y="55.5389" width="53.9671" height="51.971" filterUnits="userSpaceOnUse" color-interpolation-filters="sRGB">
<feFlood flood-opacity="0" result="BackgroundImageFix"/>
<feBlend mode="normal" in="SourceGraphic" in2="BackgroundImageFix" result="shape"/>
<feGaussianBlur stdDeviation="3.00886" result="effect1_foregroundBlur_10298_87318"/>
</filter>
<filter id="filter6_f_10298_87318" x="143.818" y="49.5212" width="66.0025" height="64.0064" filterUnits="userSpaceOnUse" color-interpolation-filters="sRGB">
<feFlood flood-opacity="0" result="BackgroundImageFix"/>
<feBlend mode="normal" in="SourceGraphic" in2="BackgroundImageFix" result="shape"/>
<feGaussianBlur stdDeviation="6.01771" result="effect1_foregroundBlur_10298_87318"/>
</filter>
<filter id="filter7_bi_10298_87318" x="112.523" y="27.7262" width="65.442" height="60.154" filterUnits="userSpaceOnUse" color-interpolation-filters="sRGB">
<feFlood flood-opacity="0" result="BackgroundImageFix"/>
<feGaussianBlur in="BackgroundImageFix" stdDeviation="3.52898"/>
<feComposite in2="SourceAlpha" operator="in" result="effect1_backgroundBlur_10298_87318"/>
<feBlend mode="normal" in="SourceGraphic" in2="effect1_backgroundBlur_10298_87318" result="shape"/>
<feColorMatrix in="SourceAlpha" type="matrix" values="0 0 0 0 0 0 0 0 0 0 0 0 0 0 0 0 0 0 127 0" result="hardAlpha"/>
<feOffset dx="-13.2771" dy="-1.65964"/>
<feGaussianBlur stdDeviation="63.8962"/>
<feComposite in2="hardAlpha" operator="arithmetic" k2="-1" k3="1"/>
<feColorMatrix type="matrix" values="0 0 0 0 0.396078 0 0 0 0 0.894118 0 0 0 0 1 0 0 0 0.1 0"/>
<feBlend mode="normal" in2="shape" result="effect2_innerShadow_10298_87318"/>
</filter>
<filter id="filter8_bi_10298_87318" x="110.815" y="26.2845" width="66.3365" height="59.2816" filterUnits="userSpaceOnUse" color-interpolation-filters="sRGB">
<feFlood flood-opacity="0" result="BackgroundImageFix"/>
<feGaussianBlur in="BackgroundImageFix" stdDeviation="3.76107"/>
<feComposite in2="SourceAlpha" operator="in" result="effect1_backgroundBlur_10298_87318"/>
<feBlend mode="normal" in="SourceGraphic" in2="effect1_backgroundBlur_10298_87318" result="shape"/>
<feColorMatrix in="SourceAlpha" type="matrix" values="0 0 0 0 0 0 0 0 0 0 0 0 0 0 0 0 0 0 127 0" result="hardAlpha"/>
<feOffset dx="-14.1503" dy="-1.76879"/>
<feGaussianBlur stdDeviation="68.0985"/>
<feComposite in2="hardAlpha" operator="arithmetic" k2="-1" k3="1"/>
<feColorMatrix type="matrix" values="0 0 0 0 0.396078 0 0 0 0 0.894118 0 0 0 0 1 0 0 0 0.1 0"/>
<feBlend mode="normal" in2="shape" result="effect2_innerShadow_10298_87318"/>
</filter>
<filter id="filter9_f_10298_87318" x="119.813" y="28.8319" width="57.9402" height="59.1145" filterUnits="userSpaceOnUse" color-interpolation-filters="sRGB">
<feFlood flood-opacity="0" result="BackgroundImageFix"/>
<feBlend mode="normal" in="SourceGraphic" in2="BackgroundImageFix" result="shape"/>
<feGaussianBlur stdDeviation="3.00886" result="effect1_foregroundBlur_10298_87318"/>
</filter>
<filter id="filter10_f_10298_87318" x="113.796" y="22.8142" width="69.9756" height="71.15" filterUnits="userSpaceOnUse" color-interpolation-filters="sRGB">
<feFlood flood-opacity="0" result="BackgroundImageFix"/>
<feBlend mode="normal" in="SourceGraphic" in2="BackgroundImageFix" result="shape"/>
<feGaussianBlur stdDeviation="6.01771" result="effect1_foregroundBlur_10298_87318"/>
</filter>
<linearGradient id="paint0_linear_10298_87318" x1="204.133" y1="98.2823" x2="199.078" y2="55.0699" gradientUnits="userSpaceOnUse">
<stop offset="0.0178516" stop-color="#B468FF"/>
<stop offset="0.0816078" stop-color="#FF68F0"/>
<stop offset="0.290559" stop-color="white"/>
<stop offset="0.621464" stop-color="#65F6FF"/>
<stop offset="0.736587" stop-color="#536DF3"/>
<stop offset="1" stop-color="#C24FEB"/>
</linearGradient>
<linearGradient id="paint1_linear_10298_87318" x1="204.133" y1="98.2823" x2="199.078" y2="55.0699" gradientUnits="userSpaceOnUse">
<stop offset="0.0178516" stop-color="#B468FF"/>
<stop offset="0.0816078" stop-color="#FF68F0"/>
<stop offset="0.290559" stop-color="white"/>
<stop offset="0.621464" stop-color="#65F6FF"/>
<stop offset="0.736587" stop-color="#536DF3"/>
<stop offset="1" stop-color="#C24FEB"/>
</linearGradient>
<linearGradient id="paint2_linear_10298_87318" x1="204.133" y1="98.2823" x2="199.078" y2="55.0699" gradientUnits="userSpaceOnUse">
<stop offset="0.0178516" stop-color="#B468FF"/>
<stop offset="0.0816078" stop-color="#FF68F0"/>
<stop offset="0.290559" stop-color="white"/>
<stop offset="0.621464" stop-color="#65F6FF"/>
<stop offset="0.736587" stop-color="#536DF3"/>
<stop offset="1" stop-color="#C24FEB"/>
</linearGradient>
<linearGradient id="paint3_linear_10298_87318" x1="204.133" y1="98.2823" x2="199.078" y2="55.0699" gradientUnits="userSpaceOnUse">
<stop offset="0.0178516" stop-color="#B468FF"/>
<stop offset="0.0816078" stop-color="#FF68F0"/>
<stop offset="0.290559" stop-color="white"/>
<stop offset="0.621464" stop-color="#65F6FF"/>
<stop offset="0.736587" stop-color="#536DF3"/>
<stop offset="1" stop-color="#C24FEB"/>
</linearGradient>
<linearGradient id="paint4_linear_10298_87318" x1="204.133" y1="98.2823" x2="199.078" y2="55.0699" gradientUnits="userSpaceOnUse">
<stop offset="0.0178516" stop-color="#B468FF"/>
<stop offset="0.0816078" stop-color="#FF68F0"/>
<stop offset="0.290559" stop-color="white"/>
<stop offset="0.621464" stop-color="#65F6FF"/>
<stop offset="0.736587" stop-color="#536DF3"/>
<stop offset="1" stop-color="#C24FEB"/>
</linearGradient>
<linearGradient id="paint5_linear_10298_87318" x1="204.133" y1="98.2823" x2="199.078" y2="55.0699" gradientUnits="userSpaceOnUse">
<stop offset="0.0178516" stop-color="#B468FF"/>
<stop offset="0.0816078" stop-color="#FF68F0"/>
<stop offset="0.290559" stop-color="white"/>
<stop offset="0.621464" stop-color="#65F6FF"/>
<stop offset="0.736587" stop-color="#536DF3"/>
<stop offset="1" stop-color="#C24FEB"/>
</linearGradient>
<linearGradient id="paint6_linear_10298_87318" x1="204.133" y1="98.2823" x2="199.078" y2="55.0699" gradientUnits="userSpaceOnUse">
<stop offset="0.0178516" stop-color="#B468FF"/>
<stop offset="0.0816078" stop-color="#FF68F0"/>
<stop offset="0.290559" stop-color="white"/>
<stop offset="0.621464" stop-color="#65F6FF"/>
<stop offset="0.736587" stop-color="#536DF3"/>
<stop offset="1" stop-color="#C24FEB"/>
</linearGradient>
<linearGradient id="paint7_linear_10298_87318" x1="204.133" y1="98.2823" x2="199.078" y2="55.0699" gradientUnits="userSpaceOnUse">
<stop offset="0.0178516" stop-color="#B468FF"/>
<stop offset="0.0816078" stop-color="#FF68F0"/>
<stop offset="0.290559" stop-color="white"/>
<stop offset="0.621464" stop-color="#65F6FF"/>
<stop offset="0.736587" stop-color="#536DF3"/>
<stop offset="1" stop-color="#C24FEB"/>
</linearGradient>
<linearGradient id="paint8_linear_10298_87318" x1="204.133" y1="98.2823" x2="199.078" y2="55.0699" gradientUnits="userSpaceOnUse">
<stop offset="0.0178516" stop-color="#B468FF"/>
<stop offset="0.0816078" stop-color="#FF68F0"/>
<stop offset="0.290559" stop-color="white"/>
<stop offset="0.621464" stop-color="#65F6FF"/>
<stop offset="0.736587" stop-color="#536DF3"/>
<stop offset="1" stop-color="#C24FEB"/>
</linearGradient>
<linearGradient id="paint9_linear_10298_87318" x1="178.343" y1="77.0383" x2="171.949" y2="26.2032" gradientUnits="userSpaceOnUse">
<stop offset="0.0178516" stop-color="#B468FF"/>
<stop offset="0.0816078" stop-color="#FF68F0"/>
<stop offset="0.290559" stop-color="white"/>
<stop offset="0.621464" stop-color="#65F6FF"/>
<stop offset="0.736587" stop-color="#536DF3"/>
<stop offset="1" stop-color="#C24FEB"/>
</linearGradient>
<linearGradient id="paint10_linear_10298_87318" x1="178.343" y1="77.0383" x2="171.949" y2="26.2032" gradientUnits="userSpaceOnUse">
<stop offset="0.0178516" stop-color="#B468FF"/>
<stop offset="0.0816078" stop-color="#FF68F0"/>
<stop offset="0.290559" stop-color="white"/>
<stop offset="0.621464" stop-color="#65F6FF"/>
<stop offset="0.736587" stop-color="#536DF3"/>
<stop offset="1" stop-color="#C24FEB"/>
</linearGradient>
<linearGradient id="paint11_linear_10298_87318" x1="178.767" y1="78.1447" x2="172.374" y2="27.3095" gradientUnits="userSpaceOnUse">
<stop offset="0.0178516" stop-color="#B468FF"/>
<stop offset="0.0816078" stop-color="#FF68F0"/>
<stop offset="0.290559" stop-color="white"/>
<stop offset="0.621464" stop-color="#65F6FF"/>
<stop offset="0.736587" stop-color="#536DF3"/>
<stop offset="1" stop-color="#C24FEB"/>
</linearGradient>
<linearGradient id="paint12_linear_10298_87318" x1="178.767" y1="78.1447" x2="172.374" y2="27.3095" gradientUnits="userSpaceOnUse">
<stop offset="0.0178516" stop-color="#B468FF"/>
<stop offset="0.0816078" stop-color="#FF68F0"/>
<stop offset="0.290559" stop-color="white"/>
<stop offset="0.621464" stop-color="#65F6FF"/>
<stop offset="0.736587" stop-color="#536DF3"/>
<stop offset="1" stop-color="#C24FEB"/>
</linearGradient>
<linearGradient id="paint13_linear_10298_87318" x1="178.767" y1="78.1447" x2="172.374" y2="27.3095" gradientUnits="userSpaceOnUse">
<stop offset="0.0178516" stop-color="#B468FF"/>
<stop offset="0.0816078" stop-color="#FF68F0"/>
<stop offset="0.290559" stop-color="white"/>
<stop offset="0.621464" stop-color="#65F6FF"/>
<stop offset="0.736587" stop-color="#536DF3"/>
<stop offset="1" stop-color="#C24FEB"/>
</linearGradient>
<linearGradient id="paint14_linear_10298_87318" x1="178.767" y1="78.1447" x2="172.374" y2="27.3095" gradientUnits="userSpaceOnUse">
<stop offset="0.0178516" stop-color="#B468FF"/>
<stop offset="0.0816078" stop-color="#FF68F0"/>
<stop offset="0.290559" stop-color="white"/>
<stop offset="0.621464" stop-color="#65F6FF"/>
<stop offset="0.736587" stop-color="#536DF3"/>
<stop offset="1" stop-color="#C24FEB"/>
</linearGradient>
</defs>
</svg>
