<svg width="332" height="242" viewBox="0 0 332 242" fill="none" xmlns="http://www.w3.org/2000/svg">
<g filter="url(#filter0_f_11701_17544)">
<path d="M141.481 81.575L162.232 34.8853L224.758 40.3465L203.748 57.9997L214.383 107.786L118 133.452L132.744 93.5888L141.481 81.575Z" fill="#3FF0ED" fill-opacity="0.2"/>
</g>
<g filter="url(#filter1_f_11701_17544)">
<path d="M141.481 81.575L162.232 34.8853L224.758 40.3465L203.748 57.9997L214.383 107.786L118 133.452L132.744 93.5888L141.481 81.575Z" fill="#3FF0ED" fill-opacity="0.2"/>
</g>
<g filter="url(#filter2_f_11701_17544)">
<path d="M137.002 80.7086L158.939 31.3512L225.037 37.1243L202.827 55.7862L214.069 108.418L112.179 135.55L127.765 93.4087L137.002 80.7086Z" fill="#3FF0ED" fill-opacity="0.2"/>
</g>
<g filter="url(#filter3_f_11701_17544)">
<path d="M137.002 80.7086L158.939 31.3512L225.037 37.1243L202.827 55.7862L214.069 108.418L112.179 135.55L127.765 93.4087L137.002 80.7086Z" fill="#3FF0ED" fill-opacity="0.2"/>
</g>
<path d="M161.952 124.831C162.269 123.94 163.29 123.285 164.232 123.369L165.085 123.445C166.028 123.529 166.535 124.319 166.218 125.211L165.931 126.018C165.614 126.909 164.593 127.564 163.651 127.48L162.797 127.404C161.855 127.32 161.348 126.53 161.665 125.638L161.952 124.831Z" fill="white"/>
<rect width="5.26612" height="5.26612" rx="1.713" transform="matrix(0.996073 0.0885398 -0.33501 0.942215 120.172 42.5928)" fill="white"/>
<path d="M223.599 99.1795C223.845 98.4857 224.64 97.9762 225.373 98.0414L226.392 98.1319C227.125 98.1971 227.52 98.8123 227.273 99.5061L223.064 111.343C222.63 112.564 220.797 112.92 220.397 111.862L219.856 110.429C219.77 110.201 219.774 109.937 219.867 109.675L223.599 99.1795Z" fill="white"/>
<path d="M218.863 64.7583C219.18 63.8669 220.201 63.2122 221.143 63.296L221.996 63.3718C222.939 63.4556 223.446 64.2461 223.129 65.1375L222.842 65.9445C222.525 66.8359 221.504 67.4906 220.562 67.4068L219.709 67.331C218.766 67.2472 218.259 66.4567 218.576 65.5653L218.863 64.7583Z" fill="#5FF4AD"/>
<rect width="4.28249" height="4.28249" rx="1.713" transform="matrix(0.996073 0.0885398 -0.33501 0.942215 168.848 123.559)" fill="#43EFEF"/>
<rect width="4.28249" height="4.28249" rx="1.713" transform="matrix(0.996073 0.0885398 -0.33501 0.942215 216.275 69.4673)" fill="white"/>
<path d="M134.857 62.6472L159.51 51.3661L165.627 62.4993L221.17 38.6589" stroke="#5FF4AD" stroke-width="9.15961"/>
<path fill-rule="evenodd" clip-rule="evenodd" d="M205.995 92.3105C205.248 94.4097 203.49 96.1688 201.407 97.1477C205.34 98.668 207.188 102.711 205.601 107.175L201.966 117.397L179.315 115.384L179.315 115.383L175.61 115.054L175.61 115.054L157.901 113.48L160.463 106.272C161.784 102.556 165.464 99.6325 169.395 98.852C168.264 97.8605 167.85 96.2558 168.465 94.5251C169.421 91.8357 172.501 89.8603 175.344 90.1131C178.188 90.3658 179.717 92.7509 178.761 95.4403C178.146 97.1714 176.65 98.6067 174.904 99.3423C175.222 99.4844 175.522 99.6464 175.803 99.8267C177.348 98.7902 179.091 98.0451 180.881 97.6897C179.592 96.5599 179.119 94.7311 179.821 92.7586C180.91 89.6939 184.42 87.443 187.66 87.7309C190.9 88.0189 192.643 90.7368 191.553 93.8015C190.852 95.774 189.148 97.4093 187.159 98.2477C187.493 98.3971 187.81 98.5658 188.109 98.7525C189.829 97.5924 191.794 96.7883 193.798 96.4714C192.517 95.1935 192.079 93.2392 192.825 91.1399C194.048 87.7 197.988 85.1734 201.625 85.4966C205.261 85.8199 207.218 88.8706 205.995 92.3105Z" fill="#5FE2FF"/>
<path fill-rule="evenodd" clip-rule="evenodd" d="M120.752 84.7327C120.006 86.8315 120.444 88.7855 121.724 90.0634C116.983 90.8124 112.461 94.2896 110.874 98.7536L107.24 108.976L129.891 110.989L129.891 110.989L133.6 111.319L133.6 111.319L151.309 112.893L153.871 105.686C155.192 101.97 153.754 98.592 150.602 97.1815C152.348 96.4458 153.843 95.0107 154.459 93.2797C155.415 90.5903 153.885 88.2052 151.042 87.9525C148.199 87.6998 145.119 89.6751 144.163 92.3645C143.547 94.0955 143.962 95.7003 145.093 96.6918C144.696 96.7706 144.302 96.8713 143.912 96.9924C143.177 95.753 142.054 94.7529 140.619 94.1107C142.608 93.2722 144.311 91.6371 145.012 89.6649C146.102 86.6002 144.359 83.8823 141.119 83.5943C137.879 83.3064 134.369 85.5573 133.28 88.622C132.579 90.5941 133.05 92.4226 134.339 93.5525C133.923 93.6351 133.509 93.7389 133.1 93.8625C132.285 92.4771 130.996 91.3836 129.333 90.7406C131.417 89.7618 133.175 88.0026 133.922 85.9033C135.145 82.4633 133.188 79.4127 129.552 79.0894C125.915 78.7662 121.975 81.2927 120.752 84.7327Z" fill="#5FE2FF"/>
<g filter="url(#filter4_bi_11701_17544)">
<path fill-rule="evenodd" clip-rule="evenodd" d="M185.071 69.3738C182.525 76.5365 174.322 81.7975 166.749 81.1244C162.702 80.7646 159.654 78.7819 158.082 75.9201C159.099 79.9693 162.59 82.9375 167.634 83.3858C175.207 84.0589 183.41 78.798 185.956 71.6352C187.142 68.3014 186.893 65.1431 185.524 62.6514C186.034 64.681 185.922 66.9822 185.071 69.3738ZM133.213 100.442L132.391 100.387L135.098 104.234L135.097 104.24L135.103 104.241L135.111 104.252L135.116 104.242L188.991 109.031L189.383 107.585C191.545 99.5946 189.519 92.3537 184.525 87.569C187.788 92.2183 188.629 98.4912 186.259 105.157L133.213 100.442Z" fill="url(#paint0_linear_11701_17544)"/>
</g>
<g filter="url(#filter5_bi_11701_17544)">
<circle cx="13.7647" cy="13.7647" r="13.7647" transform="matrix(0.996073 0.0885398 -0.33501 0.942215 162.257 53.9675)" fill="#9CB0F8" fill-opacity="0.17"/>
<path fill-rule="evenodd" clip-rule="evenodd" d="M156.544 79.9548C145.869 82.2629 135.958 90.2532 132.362 100.367L186.257 105.157C189.878 94.9731 186.004 85.7066 177.45 81.7457C173.8 83.6405 169.702 84.6004 165.743 84.2485C161.825 83.9002 158.664 82.3219 156.544 79.9548Z" fill="#9CB0F8" fill-opacity="0.17"/>
</g>
<g filter="url(#filter6_f_11701_17544)">
<path fill-rule="evenodd" clip-rule="evenodd" d="M185.071 69.3738C182.525 76.5365 174.322 81.7975 166.749 81.1244C162.702 80.7646 159.654 78.7819 158.082 75.9201C159.099 79.9693 162.59 82.9375 167.634 83.3858C175.207 84.0589 183.41 78.798 185.956 71.6352C187.142 68.3014 186.893 65.1431 185.524 62.6514C186.034 64.681 185.922 66.9822 185.071 69.3738ZM133.213 100.442L132.391 100.387L135.098 104.234L135.097 104.24L135.103 104.241L135.111 104.252L135.116 104.242L188.991 109.031L189.383 107.585C191.545 99.5946 189.519 92.3537 184.525 87.569C187.788 92.2183 188.629 98.4912 186.259 105.157L133.213 100.442Z" fill="url(#paint1_linear_11701_17544)"/>
</g>
<g filter="url(#filter7_f_11701_17544)">
<path fill-rule="evenodd" clip-rule="evenodd" d="M185.071 69.3738C182.525 76.5365 174.322 81.7975 166.749 81.1244C162.702 80.7646 159.654 78.7819 158.082 75.9201C159.099 79.9693 162.59 82.9375 167.634 83.3858C175.207 84.0589 183.41 78.798 185.956 71.6352C187.142 68.3014 186.893 65.1431 185.524 62.6514C186.034 64.681 185.922 66.9822 185.071 69.3738ZM133.213 100.442L132.391 100.387L135.098 104.234L135.097 104.24L135.103 104.241L135.111 104.252L135.116 104.242L188.991 109.031L189.383 107.585C191.545 99.5946 189.519 92.3537 184.525 87.569C187.788 92.2183 188.629 98.4912 186.259 105.157L133.213 100.442Z" fill="url(#paint2_linear_11701_17544)"/>
</g>
<defs>
<filter id="filter0_f_11701_17544" x="-2.35426" y="-85.469" width="347.467" height="339.275" filterUnits="userSpaceOnUse" color-interpolation-filters="sRGB">
<feFlood flood-opacity="0" result="BackgroundImageFix"/>
<feBlend mode="normal" in="SourceGraphic" in2="BackgroundImageFix" result="shape"/>
<feGaussianBlur stdDeviation="60.1771" result="effect1_foregroundBlur_11701_17544"/>
</filter>
<filter id="filter1_f_11701_17544" x="57.8229" y="-25.2919" width="227.113" height="218.921" filterUnits="userSpaceOnUse" color-interpolation-filters="sRGB">
<feFlood flood-opacity="0" result="BackgroundImageFix"/>
<feBlend mode="normal" in="SourceGraphic" in2="BackgroundImageFix" result="shape"/>
<feGaussianBlur stdDeviation="30.0886" result="effect1_foregroundBlur_11701_17544"/>
</filter>
<filter id="filter2_f_11701_17544" x="-14.2907" y="-95.1181" width="365.797" height="357.137" filterUnits="userSpaceOnUse" color-interpolation-filters="sRGB">
<feFlood flood-opacity="0" result="BackgroundImageFix"/>
<feBlend mode="normal" in="SourceGraphic" in2="BackgroundImageFix" result="shape"/>
<feGaussianBlur stdDeviation="63.2347" result="effect1_foregroundBlur_11701_17544"/>
</filter>
<filter id="filter3_f_11701_17544" x="48.944" y="-31.8834" width="239.328" height="230.668" filterUnits="userSpaceOnUse" color-interpolation-filters="sRGB">
<feFlood flood-opacity="0" result="BackgroundImageFix"/>
<feBlend mode="normal" in="SourceGraphic" in2="BackgroundImageFix" result="shape"/>
<feGaussianBlur stdDeviation="31.6173" result="effect1_foregroundBlur_11701_17544"/>
</filter>
<filter id="filter4_bi_11701_17544" x="118.164" y="54.747" width="79.9827" height="62.1882" filterUnits="userSpaceOnUse" color-interpolation-filters="sRGB">
<feFlood flood-opacity="0" result="BackgroundImageFix"/>
<feGaussianBlur in="BackgroundImageFix" stdDeviation="3.95217"/>
<feComposite in2="SourceAlpha" operator="in" result="effect1_backgroundBlur_11701_17544"/>
<feBlend mode="normal" in="SourceGraphic" in2="effect1_backgroundBlur_11701_17544" result="shape"/>
<feColorMatrix in="SourceAlpha" type="matrix" values="0 0 0 0 0 0 0 0 0 0 0 0 0 0 0 0 0 0 127 0" result="hardAlpha"/>
<feOffset dx="-14.2278" dy="-1.73895"/>
<feGaussianBlur stdDeviation="67.1869"/>
<feComposite in2="hardAlpha" operator="arithmetic" k2="-1" k3="1"/>
<feColorMatrix type="matrix" values="0 0 0 0 0.396078 0 0 0 0 0.894118 0 0 0 0 1 0 0 0 0.1 0"/>
<feBlend mode="normal" in2="shape" result="effect2_innerShadow_11701_17544"/>
</filter>
<filter id="filter5_bi_11701_17544" x="117.344" y="47.2238" width="78.1716" height="65.8377" filterUnits="userSpaceOnUse" color-interpolation-filters="sRGB">
<feFlood flood-opacity="0" result="BackgroundImageFix"/>
<feGaussianBlur in="BackgroundImageFix" stdDeviation="3.95217"/>
<feComposite in2="SourceAlpha" operator="in" result="effect1_backgroundBlur_11701_17544"/>
<feBlend mode="normal" in="SourceGraphic" in2="effect1_backgroundBlur_11701_17544" result="shape"/>
<feColorMatrix in="SourceAlpha" type="matrix" values="0 0 0 0 0 0 0 0 0 0 0 0 0 0 0 0 0 0 127 0" result="hardAlpha"/>
<feOffset dx="-15.0182" dy="-1.58087"/>
<feGaussianBlur stdDeviation="71.139"/>
<feComposite in2="hardAlpha" operator="arithmetic" k2="-1" k3="1"/>
<feColorMatrix type="matrix" values="0 0 0 0 0.396078 0 0 0 0 0.894118 0 0 0 0 1 0 0 0 0.1 0"/>
<feBlend mode="normal" in2="shape" result="effect2_innerShadow_11701_17544"/>
</filter>
<filter id="filter6_f_11701_17544" x="126.068" y="56.3279" width="70.4975" height="59.0265" filterUnits="userSpaceOnUse" color-interpolation-filters="sRGB">
<feFlood flood-opacity="0" result="BackgroundImageFix"/>
<feBlend mode="normal" in="SourceGraphic" in2="BackgroundImageFix" result="shape"/>
<feGaussianBlur stdDeviation="3.16173" result="effect1_foregroundBlur_11701_17544"/>
</filter>
<filter id="filter7_f_11701_17544" x="119.745" y="50.0044" width="83.1445" height="71.6734" filterUnits="userSpaceOnUse" color-interpolation-filters="sRGB">
<feFlood flood-opacity="0" result="BackgroundImageFix"/>
<feBlend mode="normal" in="SourceGraphic" in2="BackgroundImageFix" result="shape"/>
<feGaussianBlur stdDeviation="6.32347" result="effect1_foregroundBlur_11701_17544"/>
</filter>
<linearGradient id="paint0_linear_11701_17544" x1="199.811" y1="106.266" x2="199.572" y2="56.9138" gradientUnits="userSpaceOnUse">
<stop offset="0.0178516" stop-color="#B468FF"/>
<stop offset="0.0816078" stop-color="#FF68F0"/>
<stop offset="0.290559" stop-color="white"/>
<stop offset="0.621464" stop-color="#65F6FF"/>
<stop offset="0.736587" stop-color="#536DF3"/>
<stop offset="1" stop-color="#C24FEB"/>
</linearGradient>
<linearGradient id="paint1_linear_11701_17544" x1="199.811" y1="106.266" x2="199.572" y2="56.9138" gradientUnits="userSpaceOnUse">
<stop offset="0.0178516" stop-color="#B468FF"/>
<stop offset="0.0816078" stop-color="#FF68F0"/>
<stop offset="0.290559" stop-color="white"/>
<stop offset="0.621464" stop-color="#65F6FF"/>
<stop offset="0.736587" stop-color="#536DF3"/>
<stop offset="1" stop-color="#C24FEB"/>
</linearGradient>
<linearGradient id="paint2_linear_11701_17544" x1="199.811" y1="106.266" x2="199.572" y2="56.9138" gradientUnits="userSpaceOnUse">
<stop offset="0.0178516" stop-color="#B468FF"/>
<stop offset="0.0816078" stop-color="#FF68F0"/>
<stop offset="0.290559" stop-color="white"/>
<stop offset="0.621464" stop-color="#65F6FF"/>
<stop offset="0.736587" stop-color="#536DF3"/>
<stop offset="1" stop-color="#C24FEB"/>
</linearGradient>
</defs>
</svg>
