<svg width="52" height="52" viewBox="0 0 52 52" fill="none" xmlns="http://www.w3.org/2000/svg">
<rect x="0.000976562" width="52" height="52" rx="10" fill="#2A2831"/>
<mask id="mask0_422_565539" style="mask-type:alpha" maskUnits="userSpaceOnUse" x="2" y="1" width="49" height="49">
<path d="M2.00098 25.9999V44.4567C2.00098 47.5181 4.48273 49.9999 7.54413 49.9999H34.5569C36.7621 49.9999 38.877 49.1239 40.4363 47.5646L47.5657 40.4352C49.125 38.8759 50.001 36.761 50.001 34.5558V7.54303C50.001 4.48163 47.5192 1.99988 44.4578 1.99988H17.445C15.2398 1.99988 13.125 2.87589 11.5656 4.43521L4.4363 11.5646C2.87699 13.1239 2.00098 15.2387 2.00098 17.444V25.9999Z" fill="#0C0B0F"/>
</mask>
<g mask="url(#mask0_422_565539)">
<path d="M2.00098 25.9999V41.9999C2.00098 46.4182 5.5827 49.9999 10.001 49.9999H34.5569C36.7621 49.9999 38.877 49.1239 40.4363 47.5646L47.5656 40.4352C49.125 38.8759 50.001 36.761 50.001 34.5558V9.99988C50.001 5.5816 46.4193 1.99988 42.001 1.99988H17.445C15.2398 1.99988 13.125 2.87589 11.5656 4.43521L4.4363 11.5646C2.87699 13.1239 2.00098 15.2387 2.00098 17.444V25.9999Z" fill="#484359"/>
</g>
<g clip-path="url(#clip0_422_565539)">
<path d="M22.001 34H15.3343V23.3333H22.001V34ZM30.001 34H23.3343V18H30.001V34ZM38.001 34H31.3343V12.6666H38.001V34ZM39.3343 39.3333H14.001V36.6666H39.3343V39.3333Z" fill="#9990B0"/>
</g>
<defs>
<clipPath id="clip0_422_565539">
<rect width="32" height="32" fill="white" transform="translate(10.001 10)"/>
</clipPath>
</defs>
</svg>
