<svg width="32" height="33" viewBox="0 0 32 33" fill="none" xmlns="http://www.w3.org/2000/svg">
<path d="M21.5841 3.16797H10.4107C5.5574 3.16797 2.66406 6.0613 2.66406 10.9146V22.0746C2.66406 26.9413 5.5574 29.8346 10.4107 29.8346H21.5707C26.4241 29.8346 29.3174 26.9413 29.3174 22.088V10.9146C29.3307 6.0613 26.4374 3.16797 21.5841 3.16797ZM23.3707 10.5413L13.0774 20.8346H17.1041C17.6507 20.8346 18.1041 21.288 18.1041 21.8346C18.1041 22.3813 17.6507 22.8346 17.1041 22.8346H10.6641C10.1174 22.8346 9.66406 22.3813 9.66406 21.8346V15.3946C9.66406 14.848 10.1174 14.3946 10.6641 14.3946C11.2107 14.3946 11.6641 14.848 11.6641 15.3946V19.4213L21.9574 9.12797C22.1574 8.92797 22.4107 8.83464 22.6641 8.83464C22.9174 8.83464 23.1707 8.92797 23.3707 9.12797C23.7574 9.51464 23.7574 10.1546 23.3707 10.5413Z" fill="#5FF4AD"/>
</svg>
