<svg width="52" height="52" viewBox="0 0 52 52" fill="none" xmlns="http://www.w3.org/2000/svg">
<rect width="52" height="52" rx="10" fill="#2A2831"/>
<mask id="mask0_2708_527879" style="mask-type:alpha" maskUnits="userSpaceOnUse" x="2" y="2" width="48" height="48">
<path d="M2 26V44.4569C2 47.5182 4.48175 50 7.54315 50H34.5559C36.7611 50 38.876 49.124 40.4353 47.5647L47.5647 40.4353C49.124 38.876 50 36.7611 50 34.5559V7.54315C50 4.48175 47.5182 2 44.4569 2H17.4441C15.2389 2 13.124 2.87602 11.5647 4.43533L4.43533 11.5647C2.87601 13.124 2 15.2389 2 17.4441V26Z" fill="#0C0B0F"/>
</mask>
<g mask="url(#mask0_2708_527879)">
<path d="M2 26V42C2 46.4183 5.58172 50 10 50H34.5559C36.7611 50 38.876 49.124 40.4353 47.5647L47.5647 40.4353C49.124 38.876 50 36.7611 50 34.5559V10C50 5.58172 46.4183 2 42 2H17.4441C15.2389 2 13.124 2.87601 11.5647 4.43533L4.43533 11.5647C2.87601 13.124 2 15.2389 2 17.4441V26Z" fill="#484359"/>
</g>
<g clip-path="url(#clip0_2708_527879)">
<path d="M14.0013 14H38.0013C38.3549 14 38.6941 14.1405 38.9441 14.3905C39.1942 14.6406 39.3346 14.9797 39.3346 15.3333V36.6667C39.3346 37.0203 39.1942 37.3594 38.9441 37.6095C38.6941 37.8595 38.3549 38 38.0013 38H14.0013C13.6477 38 13.3085 37.8595 13.0585 37.6095C12.8084 37.3594 12.668 37.0203 12.668 36.6667V15.3333C12.668 14.9797 12.8084 14.6406 13.0585 14.3905C13.3085 14.1405 13.6477 14 14.0013 14ZM22.0013 26C22.0013 27.0609 22.4227 28.0783 23.1729 28.8284C23.923 29.5786 24.9404 30 26.0013 30C27.0622 30 28.0796 29.5786 28.8297 28.8284C29.5799 28.0783 30.0013 27.0609 30.0013 26H36.668V16.6667H15.3346V26H22.0013Z" fill="#9990B0"/>
</g>
<defs>
<clipPath id="clip0_2708_527879">
<rect width="32" height="32" fill="white" transform="translate(10 10)"/>
</clipPath>
</defs>
</svg>
