<svg width="52" height="52" viewBox="0 0 52 52" fill="none" xmlns="http://www.w3.org/2000/svg">
<rect width="52" height="52" rx="10" fill="#2A2831"/>
<mask id="mask0_1814_756760" style="mask-type:alpha" maskUnits="userSpaceOnUse" x="2" y="2" width="48" height="48">
<path d="M2 26V44.4569C2 47.5182 4.48175 50 7.54315 50H34.5559C36.7611 50 38.876 49.124 40.4353 47.5647L47.5647 40.4353C49.124 38.876 50 36.7611 50 34.5559V7.54315C50 4.48175 47.5182 2 44.4569 2H17.4441C15.2389 2 13.124 2.87602 11.5647 4.43533L4.43533 11.5647C2.87601 13.124 2 15.2389 2 17.4441V26Z" fill="#0C0B0F"/>
</mask>
<g mask="url(#mask0_1814_756760)">
<path d="M2 26V42C2 46.4183 5.58172 50 10 50H34.5559C36.7611 50 38.876 49.124 40.4353 47.5647L47.5647 40.4353C49.124 38.876 50 36.7611 50 34.5559V10C50 5.58172 46.4183 2 42 2H17.4441C15.2389 2 13.124 2.87601 11.5647 4.43533L4.43533 11.5647C2.87601 13.124 2 15.2389 2 17.4441V26Z" fill="#484359"/>
</g>
<path d="M35.3359 20.667C37.5451 20.667 39.3359 18.8761 39.3359 16.667C39.3359 14.4579 37.5451 12.667 35.3359 12.667C33.1268 12.667 31.3359 14.4579 31.3359 16.667C31.3359 18.8761 33.1268 20.667 35.3359 20.667Z" fill="#9990B0"/>
<path d="M36.3974 22.56C36.3707 22.56 36.3441 22.5733 36.3174 22.5733C36.1841 22.6 36.0507 22.6133 35.9041 22.64C35.3441 22.6933 34.7441 22.6667 34.1307 22.5467C33.9707 22.5067 33.8374 22.48 33.6907 22.4267C33.2507 22.32 32.8374 22.1467 32.4507 21.92C32.2907 21.84 32.1307 21.7333 31.9841 21.64C31.3441 21.2 30.7974 20.6533 30.3574 20.0133C30.2641 19.8667 30.1574 19.7067 30.0774 19.5467C29.8507 19.16 29.6774 18.7467 29.5707 18.3067C29.5174 18.16 29.4907 18.0267 29.4507 17.8667C29.3307 17.2533 29.3041 16.6533 29.3574 16.0933C29.3841 15.9467 29.3974 15.8133 29.4241 15.68C29.4241 15.6533 29.4374 15.6267 29.4374 15.6C29.5974 14.7733 28.9841 14 28.1307 14H20.0241C19.8374 14 19.6507 14.0133 19.4774 14.0267C19.3174 14.04 19.1707 14.0533 19.0107 14.08C18.8507 14.0933 18.6907 14.12 18.5441 14.1467C15.3307 14.6133 13.2774 16.6533 12.8107 19.88C12.7841 20.0267 12.7574 20.1867 12.7441 20.3467C12.7174 20.5067 12.7041 20.6533 12.6907 20.8133C12.6774 20.9867 12.6641 21.1733 12.6641 21.36V31.9733C12.6641 32.16 12.6774 32.3467 12.6907 32.52C12.7041 32.68 12.7174 32.8267 12.7441 32.9867C12.7574 33.1467 12.7841 33.3067 12.8107 33.4533C13.2774 36.68 15.3307 38.72 18.5441 39.1867C18.6907 39.2133 18.8507 39.24 19.0107 39.2533C19.1707 39.28 19.3174 39.2933 19.4774 39.3067C19.6507 39.32 19.8374 39.3333 20.0241 39.3333H30.6374C30.8241 39.3333 31.0107 39.32 31.1841 39.3067C31.3441 39.2933 31.4907 39.28 31.6507 39.2533C31.8107 39.24 31.9707 39.2133 32.1174 39.1867C35.3307 38.72 37.3841 36.68 37.8507 33.4533C37.8774 33.3067 37.9041 33.1467 37.9174 32.9867C37.9441 32.8267 37.9574 32.68 37.9707 32.52C37.9841 32.3467 37.9974 32.16 37.9974 31.9733V23.8667C37.9974 23.0133 37.2241 22.4 36.3974 22.56ZM18.9974 26.6667H25.6641C26.2107 26.6667 26.6641 27.12 26.6641 27.6667C26.6641 28.2133 26.2107 28.6667 25.6641 28.6667H18.9974C18.4507 28.6667 17.9974 28.2133 17.9974 27.6667C17.9974 27.12 18.4507 26.6667 18.9974 26.6667ZM30.9974 34H18.9974C18.4507 34 17.9974 33.5467 17.9974 33C17.9974 32.4533 18.4507 32 18.9974 32H30.9974C31.5441 32 31.9974 32.4533 31.9974 33C31.9974 33.5467 31.5441 34 30.9974 34Z" fill="#9990B0"/>
</svg>
