<svg width="118" height="103" viewBox="0 0 118 103" fill="none" xmlns="http://www.w3.org/2000/svg">
<path fill-rule="evenodd" clip-rule="evenodd" d="M84.646 69.0421L81.2374 66.1459C80.7901 65.7659 80.5323 65.2086 80.5323 64.6217V35.8548C80.5323 35.2679 80.7901 34.7107 81.2374 34.3307L84.6484 31.4324C84.6484 23.9412 84.6462 20.1912 83.1861 17.3256C81.8998 14.8011 79.8473 12.7486 77.3229 11.4623C74.4529 10 70.6959 10 63.1819 10H44.1204C31.004 10 24.4458 10 19.436 12.5526C15.0292 14.798 11.4464 18.3808 9.20107 22.7875C6.64844 27.7974 6.64844 34.3556 6.64844 47.472V64.5342C6.64844 68.212 6.64844 70.0509 7.10508 71.7561C7.50969 73.267 8.1754 74.6956 9.07213 75.9772C10.0842 77.4236 11.4922 78.6063 14.3084 80.9717L16.6886 82.9709L16.6886 82.971C18.9058 84.8333 20.0144 85.7644 21.2601 86.4274C22.3652 87.0154 23.5471 87.446 24.7715 87.7064C26.1518 88 27.5996 88 30.4952 88H41.5815H49.2367H56.8918H63.1819C70.6959 88 74.4529 88 77.3229 86.5377C79.8473 85.2514 81.8998 83.1989 83.1861 80.6744C84.4758 78.1432 84.6281 74.9221 84.646 69.0421Z" fill="#5FF4AD"/>
<path d="M50.1708 41.3135L58.0262 49.1688L50.1708 57.0242H39.121L31.2656 49.1688L39.121 41.3135H50.1708Z" stroke="white" stroke-width="2.47775"/>
<path d="M44.642 44.5645L49.2449 49.1674L44.642 53.7703L40.0391 49.1674L44.642 44.5645Z" stroke="white" stroke-width="2.47775"/>
<path fill-rule="evenodd" clip-rule="evenodd" d="M35.4251 40.0769L26.3214 49.1685L23.1328 49.1685L32.257 40.077L35.4251 40.0769Z" fill="white"/>
<path fill-rule="evenodd" clip-rule="evenodd" d="M66.1516 49.1687L57.048 58.2603L53.8594 58.2603L62.9836 49.1687L66.1516 49.1687Z" fill="white"/>
<rect x="0.164062" y="90.6152" width="5" height="5" rx="2" fill="#5FF4AD"/>
<rect x="112.109" y="0.630859" width="5" height="5" rx="2" fill="white"/>
<rect x="0.164062" y="97.0874" width="5" height="5" rx="2" fill="#5FF4AD"/>
<rect x="97.625" y="90.0449" width="6.14844" height="6.14844" rx="2" fill="#5FF4AD"/>
<path d="M86.3281 56.1777C86.3281 55.0732 87.2236 54.1777 88.3281 54.1777H90.4766C91.5811 54.1777 92.4766 55.0732 92.4766 56.1777V70.494C92.4766 72.2641 90.3465 73.1616 89.0797 71.9254L86.9313 69.8288C86.5456 69.4525 86.3281 68.9364 86.3281 68.3975V56.1777Z" fill="white"/>
<path d="M1.38281 37.373V56.3574" stroke="white" stroke-width="2" stroke-linecap="round"/>
</svg>
