<svg width="118" height="103" viewBox="0 0 118 103" fill="none" xmlns="http://www.w3.org/2000/svg">
<path fill-rule="evenodd" clip-rule="evenodd" d="M84.9976 69.0421L81.5889 66.1459C81.1417 65.7659 80.8839 65.2086 80.8839 64.6217V35.8548C80.8839 35.2679 81.1417 34.7107 81.5889 34.3307L85 31.4324C85 23.9412 84.9978 20.1912 83.5377 17.3256C82.2514 14.8011 80.1989 12.7486 77.6744 11.4623C74.8044 10 71.0474 10 63.5335 10H44.472C31.3556 10 24.7974 10 19.7875 12.5526C15.3808 14.798 11.798 18.3808 9.55263 22.7875C7 27.7974 7 34.3556 7 47.472V64.5342C7 68.212 7 70.0509 7.45664 71.7561C7.86125 73.267 8.52696 74.6956 9.42369 75.9772C10.4357 77.4236 11.8438 78.6063 14.6599 80.9717L17.0401 82.9709L17.0402 82.971C19.2574 84.8333 20.366 85.7644 21.6117 86.4274C22.7168 87.0154 23.8987 87.446 25.1231 87.7064C26.5034 88 27.9511 88 30.8467 88H41.933H49.5882H57.2434H63.5334C71.0474 88 74.8044 88 77.6744 86.5377C80.1989 85.2514 82.2514 83.1989 83.5377 80.6744C84.8274 78.1432 84.9796 74.9221 84.9976 69.0421Z" fill="#3FF0ED"/>
<path d="M39.2706 35.6499L45.0055 49.1709H33.5356L39.2706 35.6499Z" stroke="white" stroke-width="2.5493"/>
<path d="M50.7471 62.6899L56.482 49.1689H45.0122L50.7471 62.6899Z" stroke="white" stroke-width="2.5493"/>
<path fill-rule="evenodd" clip-rule="evenodd" d="M41.286 55.5532H29.4141L30.4931 53.0039L42.3651 53.0039L41.286 55.5532Z" fill="white"/>
<path fill-rule="evenodd" clip-rule="evenodd" d="M59.497 45.3262H47.625L48.7041 42.7769L60.576 42.7769L59.497 45.3262Z" fill="white"/>
<rect x="0.515625" y="90.6152" width="5" height="5" rx="2" fill="#3FF0ED"/>
<rect x="112.461" y="0.630859" width="5" height="5" rx="2" fill="white"/>
<rect x="0.515625" y="97.0874" width="5" height="5" rx="2" fill="#3FF0ED"/>
<rect x="97.9766" y="90.0449" width="6.14844" height="6.14844" rx="2" fill="#3FF0ED"/>
<path d="M86.6797 56.1777C86.6797 55.0732 87.5751 54.1777 88.6797 54.1777H90.8281C91.9327 54.1777 92.8281 55.0732 92.8281 56.1777V70.494C92.8281 72.2641 90.6981 73.1616 89.4313 71.9254L87.2829 69.8288C86.8972 69.4525 86.6797 68.9364 86.6797 68.3975V56.1777Z" fill="white"/>
<path d="M1.73438 37.373V56.3574" stroke="white" stroke-width="2" stroke-linecap="round"/>
</svg>
