<svg width="97" height="79" viewBox="0 0 97 79" fill="none" xmlns="http://www.w3.org/2000/svg">
<path fill-rule="evenodd" clip-rule="evenodd" d="M82.4976 59.1378L79.0889 56.2416C78.6417 55.8616 78.3839 55.3043 78.3839 54.7175V25.9505C78.3839 25.3636 78.6417 24.8064 79.0889 24.4264L82.5 21.5281C82.5 14.0369 82.4978 10.2869 81.0377 7.42129C79.7514 4.8968 77.6989 2.84432 75.1744 1.55802C72.3044 0.0957031 68.5474 0.0957031 61.0335 0.0957031H41.972C28.8556 0.0957031 22.2974 0.0957031 17.2875 2.64833C12.8808 4.89368 9.29798 8.47649 7.05263 12.8832C4.5 17.8931 4.5 24.4513 4.5 37.5677V54.6299C4.5 58.3077 4.5 60.1466 4.95664 61.8518C5.36125 63.3627 6.02696 64.7913 6.92369 66.0729C7.93572 67.5193 9.3438 68.702 12.1599 71.0674L14.5401 73.0666L14.5402 73.0667C16.7574 74.929 17.866 75.8601 19.1117 76.5231C20.2168 77.1111 21.3987 77.5417 22.6231 77.8021C24.0034 78.0957 25.4511 78.0957 28.3467 78.0957H39.433H47.0882H54.7434H61.0334C68.5474 78.0957 72.3044 78.0957 75.1744 76.6334C77.6989 75.3471 79.7514 73.2946 81.0377 70.7701C82.3274 68.2389 82.4796 65.0178 82.4976 59.1378Z" fill="#D55FFF"/>
<rect x="91.0195" y="5.71094" width="5" height="5" rx="2" fill="#D55FFF"/>
<rect x="75.9648" y="38.7266" width="5" height="5" rx="2" fill="white"/>
<path d="M84.1777 44.2734C84.1777 43.1689 85.0732 42.2734 86.1777 42.2734H88.3262C89.4307 42.2734 90.3262 43.1689 90.3262 44.2734V58.5897C90.3262 60.3598 88.1962 61.2573 86.9293 60.0211L84.7809 57.9245C84.3952 57.5482 84.1777 57.0321 84.1777 56.4932V44.2734Z" fill="white"/>
<path d="M1.23438 29.4688V48.4531" stroke="#201E27" stroke-width="2" stroke-linecap="round"/>
<path d="M39.84 36.3221L36.8824 36.6041C35.8554 36.7021 34.8806 36.1331 34.4609 35.1907C34.2568 34.7323 33.6138 34.7118 33.3809 35.1562L32.5868 36.6714C32.3755 37.0747 31.9155 37.281 31.4737 37.1705L27.824 36.2576C26.7958 36.0004 25.9143 35.3404 25.378 34.4262L23.8045 31.744C23.1652 30.6542 23.0864 29.3243 23.5925 28.1667L25.43 23.964C25.6272 23.5129 25.9071 23.1027 26.2553 22.7545L26.708 22.3018L27.1612 21.8486C27.5093 21.5005 27.9195 21.2206 28.3706 21.0233L32.5734 19.1859C33.7309 18.6798 35.0609 18.7586 36.1506 19.3978L38.8329 20.9713C39.747 21.5076 40.407 22.3891 40.6642 23.4173L41.5771 27.0671C41.6876 27.5088 41.4814 27.9688 41.078 28.1802L39.5628 28.9742C39.1184 29.2071 39.1389 29.8501 39.5973 30.0543C40.5397 30.474 41.1087 31.4488 41.0107 32.4758L40.7283 35.4338C40.6834 35.9045 40.3107 36.2772 39.84 36.3221Z" fill="white"/>
<path d="M34.7827 28.4542L36.3627 24.2125C37.0672 24.1883 37.6198 24.811 37.512 25.5076L37.3251 26.7155C37.1874 27.6058 36.4641 28.2897 35.5675 28.3774L34.7827 28.4542Z" fill="#0C0B0F"/>
<path d="M32.6563 30.5815L28.4146 32.1615C28.3904 32.866 29.0132 33.4186 29.7098 33.3108L30.9176 33.124C31.8079 32.9862 32.4918 32.2629 32.5795 31.3663L32.6563 30.5815Z" fill="#0C0B0F"/>
<path d="M46.4706 41.2472L49.4282 40.9652C50.4551 40.8673 51.4299 41.4363 51.8496 42.3787C52.0537 42.8371 52.6968 42.8576 52.9297 42.4131L53.7237 40.898C53.9351 40.4946 54.3951 40.2884 54.8368 40.3989L58.4866 41.3118C59.5148 41.5689 60.3963 42.2289 60.9326 43.1431L62.5061 45.8254C63.1453 46.9151 63.2241 48.245 62.718 49.4026L60.8806 53.6054C60.6833 54.0565 60.4034 54.4667 60.0553 54.8148L59.6026 55.2676L59.1494 55.7207C58.8012 56.0689 58.391 56.3488 57.9399 56.546L53.7372 58.3835C52.5796 58.8896 51.2497 58.8108 50.1599 58.1715L47.4777 56.598C46.5635 56.0617 45.9035 55.1802 45.6463 54.152L44.7334 50.5023C44.6229 50.0605 44.8292 49.6005 45.2325 49.3891L46.7477 48.5951C47.1921 48.3622 47.1716 47.7192 46.7133 47.5151C45.7709 47.0954 45.2019 46.1205 45.2999 45.0936L45.5822 42.1355C45.6271 41.6648 45.9998 41.2921 46.4706 41.2472Z" fill="white"/>
<path d="M51.5259 49.1152L49.9459 53.3568C49.2414 53.381 48.6888 52.7583 48.7966 52.0617L48.9835 50.8538C49.1212 49.9636 49.8445 49.2797 50.7411 49.1919L51.5259 49.1152Z" fill="#0C0B0F"/>
<path d="M53.6542 46.9868L57.8959 45.4068C57.9201 44.7024 57.2974 44.1497 56.6008 44.2575L55.3929 44.4444C54.5026 44.5821 53.8187 45.3055 53.731 46.202L53.6542 46.9868Z" fill="#0C0B0F"/>
<path d="M45.5842 35.4347L45.3021 32.4771C45.2042 31.4501 45.7732 30.4754 46.7156 30.0557C47.174 29.8515 47.1945 29.2085 46.75 28.9756L45.2349 28.1816C44.8315 27.9702 44.6253 27.5102 44.7358 27.0685L45.6487 23.4187C45.9059 22.3905 46.5659 21.509 47.48 20.9727L50.1623 19.3992C51.252 18.7599 52.582 18.6811 53.7395 19.1872L57.9423 21.0247C58.3934 21.2219 58.8036 21.5018 59.1517 21.85L59.6045 22.3027L60.0577 22.7559C60.4058 23.104 60.6857 23.5142 60.8829 23.9654L62.7204 28.1681C63.2265 29.3257 63.1477 30.6556 62.5084 31.7453L60.9349 34.4276C60.3986 35.3418 59.5171 36.0018 58.4889 36.259L54.8392 37.1719C54.3974 37.2823 53.9374 37.0761 53.7261 36.6728L52.932 35.1576C52.6991 34.7131 52.0561 34.7336 51.852 35.192C51.4323 36.1344 50.4575 36.7034 49.4305 36.6054L46.4725 36.3231C46.0017 36.2781 45.6291 35.9055 45.5842 35.4347Z" fill="white"/>
<path d="M53.4511 30.3774L57.6928 31.9574C57.717 32.6619 57.0942 33.2145 56.3976 33.1067L55.1898 32.9199C54.2995 32.7821 53.6156 32.0588 53.5279 31.1622L53.4511 30.3774Z" fill="#0C0B0F"/>
<path d="M51.3228 28.2501L49.7428 24.0084C49.0383 23.9842 48.4857 24.6069 48.5935 25.3035L48.7803 26.5114C48.9181 27.4017 49.6414 28.0856 50.538 28.1733L51.3228 28.2501Z" fill="#0C0B0F"/>
<path d="M40.7264 42.1346L41.0084 45.0922C41.1064 46.1192 40.5374 47.094 39.595 47.5137C39.1366 47.7178 39.1161 48.3608 39.5605 48.5938L41.0757 49.3878C41.479 49.5991 41.6853 50.0591 41.5748 50.5009L40.6619 54.1506C40.4047 55.1788 39.7447 56.0604 38.8305 56.5966L36.1482 58.1701C35.0585 58.8094 33.7286 58.8882 32.571 58.3821L28.3683 56.5446C27.9172 56.3474 27.5069 56.0675 27.1588 55.7194L26.7061 55.2666L26.2529 54.8134C25.9048 54.4653 25.6248 54.0551 25.4276 53.604L23.5902 49.4013C23.0841 48.2437 23.1629 46.9137 23.8021 45.824L25.3756 43.1418C25.9119 42.2276 26.7934 41.5676 27.8216 41.3104L31.4714 40.3975C31.9131 40.287 32.3731 40.4932 32.5845 40.8966L33.3785 42.4118C33.6114 42.8562 34.2544 42.8357 34.4586 42.3773C34.8783 41.4349 35.8531 40.8659 36.8801 40.9639L39.8381 41.2463C40.3088 41.2912 40.6815 41.6639 40.7264 42.1346Z" fill="white"/>
<path d="M32.8594 47.1919L28.6178 45.6119C28.5936 44.9074 29.2163 44.3548 29.9129 44.4626L31.1208 44.6495C32.0111 44.7872 32.695 45.5105 32.7827 46.4071L32.8594 47.1919Z" fill="#0C0B0F"/>
<path d="M34.9878 49.3193L36.5678 53.5609C37.2722 53.5851 37.8249 52.9624 37.7171 52.2658L37.5302 51.0579C37.3925 50.1677 36.6692 49.4838 35.7726 49.396L34.9878 49.3193Z" fill="#0C0B0F"/>
</svg>
