<svg width="61" height="60" viewBox="0 0 61 60" fill="none" xmlns="http://www.w3.org/2000/svg">
<rect x="0.5" width="60" height="60" rx="11.1146" fill="#4A3059"/>
<mask id="mask0_2038_726383" style="mask-type:alpha" maskUnits="userSpaceOnUse" x="1" y="1" width="59" height="58">
<path d="M1.5 30V52.5015C1.5 56.0905 4.40946 59 7.99847 59H40.9624C43.5476 59 46.027 57.973 47.855 56.145L56.645 47.355C58.473 45.527 59.5 43.0476 59.5 40.4624V7.49847C59.5 3.90946 56.5905 1 53.0015 1H20.0376C17.4524 1 14.973 2.02699 13.145 3.85504L4.35504 12.645C2.52699 14.473 1.5 16.9524 1.5 19.5376V30Z" fill="#0C0B0F"/>
</mask>
<g mask="url(#mask0_2038_726383)">
<path d="M2.5 30V48.6213C2.5 53.801 6.699 58 11.8787 58H40.4624C43.0476 58 45.527 56.973 47.355 55.145L55.645 46.855C57.473 45.027 58.5 42.5476 58.5 39.9624V11.3787C58.5 6.199 54.301 2 49.1213 2H20.5376C17.9524 2 15.473 3.02698 13.645 4.85503L5.35504 13.145C3.52699 14.973 2.5 17.4524 2.5 20.0376V30Z" fill="#FF68F0"/>
</g>
<path d="M36.088 16.668H24.9146C20.0613 16.668 17.168 19.5613 17.168 24.4146V35.5746C17.168 40.4413 20.0613 43.3346 24.9146 43.3346H36.0746C40.928 43.3346 43.8213 40.4413 43.8213 35.588V24.4146C43.8346 19.5613 40.9413 16.668 36.088 16.668ZM34.9813 33.068C35.368 33.4546 35.368 34.0946 34.9813 34.4813C34.7813 34.6813 34.528 34.7746 34.2746 34.7746C34.0213 34.7746 33.768 34.6813 33.568 34.4813L30.5013 31.4146L27.4346 34.4813C27.2346 34.6813 26.9813 34.7746 26.728 34.7746C26.4746 34.7746 26.2213 34.6813 26.0213 34.4813C25.6346 34.0946 25.6346 33.4546 26.0213 33.068L29.088 30.0013L26.0213 26.9346C25.6346 26.548 25.6346 25.908 26.0213 25.5213C26.408 25.1346 27.048 25.1346 27.4346 25.5213L30.5013 28.588L33.568 25.5213C33.9546 25.1346 34.5946 25.1346 34.9813 25.5213C35.368 25.908 35.368 26.548 34.9813 26.9346L31.9146 30.0013L34.9813 33.068Z" fill="white"/>
</svg>
