<svg width="61" height="60" viewBox="0 0 61 60" fill="none"
  xmlns="http://www.w3.org/2000/svg">
  <rect x="0.5" width="60" height="60" rx="11.1146" fill="#2A5943" />
  <mask id="mask0_2038_726402" style="mask-type:alpha"
    maskUnits="userSpaceOnUse" x="1" y="1" width="59" height="58">
    <path
      d="M1.5 30V52.5015C1.5 56.0905 4.40946 59 7.99847 59H40.9624C43.5476 59 46.027 57.973 47.855 56.145L56.645 47.355C58.473 45.527 59.5 43.0476 59.5 40.4624V7.49847C59.5 3.90946 56.5905 1 53.0015 1H20.0376C17.4524 1 14.973 2.02699 13.145 3.85504L4.35504 12.645C2.52699 14.473 1.5 16.9524 1.5 19.5376V30Z"
      fill="#0C0B0F" />
  </mask>
  <g mask="url(#mask0_2038_726402)">
    <path
      d="M2.5 30V48.6213C2.5 53.801 6.699 58 11.8787 58H40.4624C43.0476 58 45.527 56.973 47.355 55.145L55.645 46.855C57.473 45.027 58.5 42.5476 58.5 39.9624V11.3787C58.5 6.199 54.301 2 49.1213 2H20.5376C17.9524 2 15.473 3.02698 13.645 4.85503L5.35504 13.145C3.52699 14.973 2.5 17.4524 2.5 20.0376V30Z"
      fill="#5FF4AD" />
  </g>
  <path
    d="M36.088 16.668H24.9146C20.0613 16.668 17.168 19.5613 17.168 24.4146V35.5746C17.168 40.4413 20.0613 43.3346 24.9146 43.3346H36.0746C40.928 43.3346 43.8213 40.4413 43.8213 35.588V24.4146C43.8346 19.5613 40.9413 16.668 36.088 16.668ZM36.8746 26.9346L29.3146 34.4946C29.128 34.6813 28.8746 34.788 28.608 34.788C28.3413 34.788 28.088 34.6813 27.9013 34.4946L24.128 30.7213C23.7413 30.3346 23.7413 29.6946 24.128 29.308C24.5146 28.9213 25.1546 28.9213 25.5413 29.308L28.608 32.3746L35.4613 25.5213C35.848 25.1346 36.488 25.1346 36.8746 25.5213C37.2613 25.908 37.2613 26.5346 36.8746 26.9346Z"
    fill="white" />
</svg>