<svg width="34" height="34" viewBox="0 0 34 34" fill="none" xmlns="http://www.w3.org/2000/svg">
<path d="M19.3293 31.327C18.0341 31.7636 16.6315 31.7636 15.3363 31.3269L8.03126 28.8643C6.77793 28.4418 5.79965 27.4493 5.39522 26.19L3.28044 19.6052C2.88129 18.3624 2.8813 17.0258 3.28044 15.783L5.43953 9.06015C5.81882 7.87916 6.70456 6.92856 7.85585 6.4669L15.0067 3.59941C16.4997 3.00075 18.166 3.00072 19.6589 3.59934L26.8107 6.46692C27.9621 6.92857 28.8479 7.87919 29.2272 9.06022L31.3862 15.783C31.7854 17.0258 31.7854 18.3624 31.3862 19.6052L29.2715 26.1899C28.867 27.4493 27.8887 28.4417 26.6353 28.8642L19.3293 31.327Z" fill="#0C0B0F"/>
<circle cx="19.998" cy="13.999" r="2" fill="#3FF0ED"/>
<path d="M20.8408 9.60352C22.3842 9.60352 23.6353 10.8546 23.6353 12.398C23.6353 13.1063 23.3718 13.7531 22.9374 14.2456C22.8518 14.3427 22.6995 14.2563 22.7112 14.1274C22.7184 14.0473 22.7221 13.9662 22.7221 13.8842C22.7221 12.4114 21.5282 11.2175 20.0555 11.2175C19.41 11.2175 18.8181 11.4469 18.3568 11.8285C18.2571 11.9109 18.1002 11.8342 18.132 11.7089C18.4389 10.4988 19.5353 9.60352 20.8408 9.60352Z" fill="#3FF0ED"/>
<circle cx="2" cy="2" r="2" transform="matrix(1 0 0 -1 17.998 21.999)" fill="#3FF0ED"/>
<path d="M20.8408 24.3945C22.3842 24.3945 23.6353 23.1434 23.6353 21.6001C23.6353 20.8917 23.3718 20.2449 22.9374 19.7524C22.8518 19.6553 22.6995 19.7418 22.7112 19.8707C22.7184 19.9508 22.7221 20.0319 22.7221 20.1138C22.7221 21.5866 21.5282 22.7805 20.0555 22.7805C19.41 22.7805 18.8181 22.5512 18.3568 22.1696C18.2571 22.0871 18.1002 22.1638 18.132 22.2892C18.4389 23.4993 19.5353 24.3945 20.8408 24.3945Z" fill="#3FF0ED"/>
<circle cx="2" cy="2" r="2" transform="matrix(-1 0 0 1 15.998 11.999)" fill="#3FF0ED"/>
<path d="M13.1553 9.60352C11.6119 9.60352 10.3608 10.8546 10.3608 12.398C10.3608 13.1063 10.6243 13.7531 11.0587 14.2456C11.1443 14.3427 11.2965 14.2563 11.2849 14.1274C11.2777 14.0473 11.274 13.9662 11.274 13.8842C11.274 12.4114 12.4679 11.2175 13.9406 11.2175C14.5861 11.2175 15.178 11.4469 15.6393 11.8285C15.739 11.9109 15.8959 11.8342 15.8641 11.7089C15.5572 10.4988 14.4608 9.60352 13.1553 9.60352Z" fill="#3FF0ED"/>
<circle cx="13.998" cy="19.999" r="2" transform="rotate(180 13.998 19.999)" fill="#3FF0ED"/>
<path d="M13.1553 24.3945C11.6119 24.3945 10.3608 23.1434 10.3608 21.6001C10.3608 20.8917 10.6243 20.2449 11.0587 19.7524C11.1443 19.6553 11.2965 19.7418 11.2849 19.8707C11.2777 19.9508 11.274 20.0319 11.274 20.1138C11.274 21.5866 12.4679 22.7805 13.9406 22.7805C14.5861 22.7805 15.178 22.5512 15.6393 22.1696C15.739 22.0871 15.8959 22.1638 15.8641 22.2892C15.5572 23.4993 14.4608 24.3945 13.1553 24.3945Z" fill="#3FF0ED"/>
</svg>
