<svg width="260" height="192" viewBox="0 0 260 192" fill="none" xmlns="http://www.w3.org/2000/svg">
<g filter="url(#filter0_f_10298_87426)">
<circle cx="33.6435" cy="33.6435" r="33.6435" transform="matrix(0.996073 0.0885398 -0.33501 0.942215 107.606 31.5215)" fill="#F994F5" fill-opacity="0.22"/>
</g>
<g filter="url(#filter1_f_10298_87426)">
<circle cx="40.9423" cy="40.9423" r="40.9423" transform="matrix(0.996073 0.0885398 -0.33501 0.942215 102.783 24)" fill="#F194F9" fill-opacity="0.22"/>
</g>
<g filter="url(#filter2_f_10298_87426)">
<circle cx="40.9423" cy="40.9423" r="40.9423" transform="matrix(0.996073 0.0885398 -0.33501 0.942215 102.783 24)" fill="#F194F9" fill-opacity="0.22"/>
</g>
<path fill-rule="evenodd" clip-rule="evenodd" d="M107.324 89.5927C107.736 88.4358 107.537 87.2968 106.789 86.5288L92.7545 72.1135C91.862 71.1968 91.8794 69.7142 92.7974 68.441C93.7722 67.0892 93.699 65.5317 92.8224 64.5021C91.0028 62.365 89.8418 59.7416 89.4652 56.828C88.8785 52.2893 94.6107 48.6071 99.6791 49.0576L101.763 49.2428C104.496 49.4858 107.511 48.0363 109.23 45.6524C110.948 43.2685 113.963 41.819 116.696 42.062L140.689 44.1947C143.422 44.4377 145.253 46.3179 145.223 48.8521C145.194 51.3862 147.024 53.2665 149.758 53.5095L151.843 53.6948C156.913 54.1455 159.756 58.5911 156.075 62.7514C153.712 65.422 150.813 67.6849 147.631 69.3774C146.099 70.1922 144.957 71.641 144.94 73.0773C144.924 74.4298 143.919 75.8238 142.45 76.53L119.344 87.641C118.112 88.2334 117.139 89.2689 116.728 90.4265L116.232 91.8196C115.796 93.0474 116.495 94.1363 117.793 94.2517C119.09 94.367 119.789 95.4557 119.352 96.6832C118.916 97.9108 119.614 98.9995 120.912 99.1149C122.21 99.2302 122.909 100.319 122.473 101.547L122.077 102.659C121.422 104.501 119.313 105.854 117.365 105.681L96.2091 103.801C94.2617 103.628 93.214 101.994 93.8689 100.152L94.2642 99.0401C94.7009 97.812 96.1079 96.91 97.4062 97.0254C98.7039 97.1408 100.11 96.2392 100.547 95.0116C100.983 93.7841 102.39 92.8825 103.687 92.9979C104.986 93.1133 106.393 92.2112 106.83 90.9829L107.324 89.5927Z" fill="#F87DEF"/>
<g filter="url(#filter3_bi_10298_87426)">
<path d="M94.514 90.0251C94.514 90.0251 94.514 90.0251 94.514 90.0251V90.0251Z" fill="url(#paint0_linear_10298_87426)"/>
<path d="M87.8682 96.316C88.1529 97.3194 89.0387 98.0495 90.305 98.162L111.461 100.043C113.409 100.216 115.518 98.8627 116.173 97.0206C116.828 95.1786 115.78 93.5449 113.833 93.3718L113.45 93.3377C113.603 93.8774 113.582 94.4962 113.353 95.1405C112.698 96.9826 110.588 98.3355 108.641 98.1624L87.8682 96.316Z" fill="url(#paint1_linear_10298_87426)"/>
<path d="M112.701 92.1637C113.035 91.8473 113.299 91.4646 113.448 91.0437C113.885 89.8156 113.187 88.7265 111.888 88.6111C111.414 88.569 111.02 88.3971 110.732 88.136C110.787 88.4522 110.757 88.8018 110.628 89.1635C110.192 90.3916 108.785 91.2935 107.487 91.1781L105.136 90.9692L111.013 91.4917C111.699 91.5527 112.273 91.7949 112.701 92.1637Z" fill="url(#paint2_linear_10298_87426)"/>
<path d="M110.224 87.2061C110.17 86.8899 110.2 86.5403 110.328 86.1786L110.822 84.7887C111.234 83.632 112.206 82.5972 113.437 82.0052L136.546 70.8928C138.015 70.1862 139.021 68.7917 139.037 67.4385C139.053 66.0016 140.196 64.5521 141.729 63.7369C144.911 62.0446 147.81 59.7819 150.172 57.1115C153.328 53.545 151.689 49.7687 147.962 48.4795C149.425 50.2523 149.511 52.7909 147.352 55.2314C144.989 57.9017 142.09 60.1644 138.908 61.8568C137.376 62.672 136.233 64.1214 136.216 65.5584C136.201 66.9115 135.195 68.3061 133.726 69.0126L110.616 80.1251C109.385 80.717 108.413 81.7518 108.002 82.9085L107.508 84.2984C107.071 85.5265 107.77 86.6156 109.068 86.731C109.542 86.7731 109.936 86.945 110.224 87.2061Z" fill="url(#paint3_linear_10298_87426)"/>
<path d="M140.085 45.8313C139.583 45.0984 139.309 44.206 139.32 43.2132C139.346 40.9855 137.935 39.2633 135.736 38.7148C136.238 39.4477 136.512 40.3402 136.5 41.333C136.474 43.5606 137.886 45.2829 140.085 45.8313Z" fill="url(#paint4_linear_10298_87426)"/>
</g>
<g filter="url(#filter4_f_10298_87426)">
<path d="M94.514 90.0251C94.514 90.0251 94.514 90.0251 94.514 90.0251V90.0251Z" fill="url(#paint5_linear_10298_87426)"/>
<path d="M87.8682 96.316C88.1529 97.3194 89.0387 98.0495 90.305 98.162L111.461 100.043C113.409 100.216 115.518 98.8627 116.173 97.0206C116.828 95.1786 115.78 93.5449 113.833 93.3718L113.45 93.3377C113.603 93.8774 113.582 94.4962 113.353 95.1405C112.698 96.9826 110.588 98.3355 108.641 98.1624L87.8682 96.316Z" fill="url(#paint6_linear_10298_87426)"/>
<path d="M112.701 92.1637C113.035 91.8473 113.299 91.4646 113.448 91.0437C113.885 89.8156 113.187 88.7265 111.888 88.6111C111.414 88.569 111.02 88.3971 110.732 88.136C110.787 88.4522 110.757 88.8018 110.628 89.1635C110.192 90.3916 108.785 91.2935 107.487 91.1781L105.136 90.9692L111.013 91.4917C111.699 91.5527 112.273 91.7949 112.701 92.1637Z" fill="url(#paint7_linear_10298_87426)"/>
<path d="M110.224 87.2061C110.17 86.8899 110.2 86.5403 110.328 86.1786L110.822 84.7887C111.234 83.632 112.206 82.5972 113.437 82.0052L136.546 70.8928C138.015 70.1862 139.021 68.7917 139.037 67.4385C139.053 66.0016 140.196 64.5521 141.729 63.7369C144.911 62.0446 147.81 59.7819 150.172 57.1115C153.328 53.545 151.689 49.7687 147.962 48.4795C149.425 50.2523 149.511 52.7909 147.352 55.2314C144.989 57.9017 142.09 60.1644 138.908 61.8568C137.376 62.672 136.233 64.1214 136.216 65.5584C136.201 66.9115 135.195 68.3061 133.726 69.0126L110.616 80.1251C109.385 80.717 108.413 81.7518 108.002 82.9085L107.508 84.2984C107.071 85.5265 107.77 86.6156 109.068 86.731C109.542 86.7731 109.936 86.945 110.224 87.2061Z" fill="url(#paint8_linear_10298_87426)"/>
<path d="M140.085 45.8313C139.583 45.0984 139.309 44.206 139.32 43.2132C139.346 40.9855 137.935 39.2633 135.736 38.7148C136.238 39.4477 136.512 40.3402 136.5 41.333C136.474 43.5606 137.886 45.2829 140.085 45.8313Z" fill="url(#paint9_linear_10298_87426)"/>
</g>
<g filter="url(#filter5_f_10298_87426)">
<path d="M94.514 90.0251C94.514 90.0251 94.514 90.0251 94.514 90.0251V90.0251Z" fill="url(#paint10_linear_10298_87426)" fill-opacity="0.4"/>
<path d="M87.8682 96.316C88.1529 97.3194 89.0387 98.0495 90.305 98.162L111.461 100.043C113.409 100.216 115.518 98.8627 116.173 97.0206C116.828 95.1786 115.78 93.5449 113.833 93.3718L113.45 93.3377C113.603 93.8774 113.582 94.4962 113.353 95.1405C112.698 96.9826 110.588 98.3355 108.641 98.1624L87.8682 96.316Z" fill="url(#paint11_linear_10298_87426)" fill-opacity="0.4"/>
<path d="M112.701 92.1637C113.035 91.8473 113.299 91.4646 113.448 91.0437C113.885 89.8156 113.187 88.7265 111.888 88.6111C111.414 88.569 111.02 88.3971 110.732 88.136C110.787 88.4522 110.757 88.8018 110.628 89.1635C110.192 90.3916 108.785 91.2935 107.487 91.1781L105.136 90.9692L111.013 91.4917C111.699 91.5527 112.273 91.7949 112.701 92.1637Z" fill="url(#paint12_linear_10298_87426)" fill-opacity="0.4"/>
<path d="M110.224 87.2061C110.17 86.8899 110.2 86.5403 110.328 86.1786L110.822 84.7887C111.234 83.632 112.206 82.5972 113.437 82.0052L136.546 70.8928C138.015 70.1862 139.021 68.7917 139.037 67.4385C139.053 66.0016 140.196 64.5521 141.729 63.7369C144.911 62.0446 147.81 59.7819 150.172 57.1115C153.328 53.545 151.689 49.7687 147.962 48.4795C149.425 50.2523 149.511 52.7909 147.352 55.2314C144.989 57.9017 142.09 60.1644 138.908 61.8568C137.376 62.672 136.233 64.1214 136.216 65.5584C136.201 66.9115 135.195 68.3061 133.726 69.0126L110.616 80.1251C109.385 80.717 108.413 81.7518 108.002 82.9085L107.508 84.2984C107.071 85.5265 107.77 86.6156 109.068 86.731C109.542 86.7731 109.936 86.945 110.224 87.2061Z" fill="url(#paint13_linear_10298_87426)" fill-opacity="0.4"/>
<path d="M140.085 45.8313C139.583 45.0984 139.309 44.206 139.32 43.2132C139.346 40.9855 137.935 39.2633 135.736 38.7148C136.238 39.4477 136.512 40.3402 136.5 41.333C136.474 43.5606 137.886 45.2829 140.085 45.8313Z" fill="url(#paint14_linear_10298_87426)" fill-opacity="0.4"/>
</g>
<g filter="url(#filter6_bi_10298_87426)">
<path fill-rule="evenodd" clip-rule="evenodd" d="M98.6011 82.0736C98.7699 81.599 98.8543 81.3617 98.8931 81.1358C98.986 80.596 98.8961 80.0814 98.6353 79.6603C98.5262 79.4841 98.3729 79.3266 98.0661 79.0115L84.0318 64.5963C83.7936 64.3517 83.6745 64.2294 83.5865 64.1037C83.1066 63.4185 83.1177 62.4715 83.6159 61.5937C83.7073 61.4326 83.8298 61.2628 84.0748 60.923C84.3692 60.5146 84.5165 60.3104 84.6049 60.1562C85.138 59.2271 85.1685 58.4846 84.7049 57.7289C84.628 57.6035 84.4518 57.3967 84.0996 56.983C81.4163 53.8316 80.165 49.6224 80.7495 44.9851C80.8967 43.8171 80.9704 43.2331 81.4601 42.5647C81.8377 42.0493 82.5931 41.4724 83.2052 41.2318C83.9991 40.9198 84.7573 40.9871 86.2735 41.1219L94.3595 41.8407C95.5331 41.945 96.1199 41.9972 96.6845 41.8548C97.1831 41.7292 97.6669 41.4965 98.0911 41.1785C98.5716 40.8182 98.9406 40.3064 99.6787 39.2828L101.335 36.9851C102.074 35.9615 102.443 35.4497 102.923 35.0895C103.347 34.7714 103.831 34.5388 104.33 34.4131C104.894 34.2708 105.481 34.323 106.655 34.4273L133.284 36.7944C134.458 36.8987 135.045 36.9509 135.477 37.1818C135.858 37.3856 136.152 37.6874 136.331 38.0591C136.534 38.48 136.527 39.0241 136.515 40.1122L136.486 42.5529C136.473 43.641 136.467 44.1851 136.67 44.606C136.849 44.9777 137.142 45.2795 137.524 45.4833C137.956 45.7142 138.542 45.7664 139.716 45.8707L147.806 46.5898C149.322 46.7246 150.08 46.792 150.611 47.2217C151.019 47.553 151.331 48.2248 151.33 48.7737C151.329 49.4855 150.996 50.0464 150.329 51.1682C147.68 55.6233 143.602 59.3598 138.91 61.8557C138.294 62.1831 137.986 62.3467 137.828 62.4511C136.871 63.0806 136.388 63.7832 136.248 64.7477C136.224 64.9075 136.222 65.1244 136.217 65.5583C136.212 65.919 136.21 66.0994 136.185 66.2662C136.048 67.1763 135.405 68.0675 134.482 68.628C134.313 68.7307 134.117 68.8249 133.725 69.0133L110.618 80.1246C110.113 80.3679 109.86 80.4895 109.635 80.6364C109.101 80.9865 108.662 81.4537 108.377 81.976C108.258 82.195 108.173 82.4326 108.004 82.908L107.51 84.2985C107.074 85.5262 107.772 86.6149 109.07 86.7303C110.367 86.8456 111.065 87.9351 110.629 89.1627C110.192 90.3904 108.786 91.2928 107.488 91.1774L105.139 90.9686C105.139 90.9686 105.138 90.9686 105.138 90.9687C105.138 90.9688 105.138 90.9688 105.138 90.9689L111.012 91.491C111.678 91.5502 112.011 91.5798 112.269 91.6576C113.299 91.9682 113.872 92.8621 113.725 93.9276C113.688 94.1945 113.576 94.5096 113.352 95.1398C113.128 95.77 113.016 96.0851 112.867 96.3419C112.27 97.3675 111.116 98.1078 109.935 98.222C109.64 98.2505 109.306 98.2209 108.64 98.1617L87.484 96.2812C86.8178 96.2219 86.4847 96.1923 86.2268 96.1145C85.1971 95.8039 84.6238 94.91 84.771 93.8445C84.8078 93.5777 84.9199 93.2626 85.1439 92.6324C85.368 92.0022 85.48 91.6871 85.6294 91.4302C86.2257 90.4046 87.38 89.6643 88.5608 89.5502C88.8565 89.5216 89.1897 89.5512 89.8559 89.6104L95.7354 90.133C95.7355 90.133 95.7356 90.133 95.7356 90.1329C95.7356 90.1328 95.7356 90.1328 95.7355 90.1327L93.3834 89.9237C92.0852 89.8083 91.3867 88.7192 91.8233 87.4911C92.26 86.2631 93.6668 85.3611 94.965 85.4765C96.2637 85.592 97.671 84.6897 98.1078 83.4613L98.6011 82.0736Z" fill="#9CB0F8" fill-opacity="0.17"/>
</g>
<path d="M91.0171 64.28C91.3272 63.719 91.3671 62.8784 91.105 62.4307L89.2854 59.3219C88.7162 58.3495 88.6851 57.3693 89.199 56.5749C89.7242 55.7815 90.7074 55.2982 91.9718 55.2042L95.6895 54.939C96.2276 54.8949 97 54.4875 97.3925 54.0311L100.643 50.1855C101.582 49.0827 102.558 48.5142 103.393 48.5956C104.228 48.6769 104.787 49.3948 104.975 50.6075L105.607 54.8311C105.655 55.1495 105.865 55.4715 106.127 55.7022L89.888 67.1137C89.6769 67.262 89.4555 67.0836 89.5765 66.8541L91.0171 64.28Z" fill="white"/>
<path d="M106.225 63.9033C105.683 64.2848 105.195 65.0697 105.144 65.6559L104.781 69.2518C104.634 70.7455 104.074 71.825 103.203 72.2831C102.853 72.4661 102.48 72.5384 102.085 72.5C101.51 72.4439 100.905 72.1558 100.308 71.6272L97.6627 69.2703C97.2461 68.904 96.3886 68.8205 95.7671 69.0857L91.8008 70.7986C90.3017 71.4367 89.188 71.461 88.6705 70.8677C88.4755 70.6436 88.371 70.356 88.3607 69.993L106.696 57.1088C107.389 56.6214 108.203 56.4472 108.872 56.6451L109.947 56.9549C111.074 57.2819 111.693 57.9212 111.687 58.7651C111.67 59.6079 111.024 60.5222 109.878 61.3275L106.225 63.9033Z" fill="white"/>
<rect width="4.07617" height="4.42068" rx="1.62919" transform="matrix(0.995291 0.0969359 -0.308659 0.951173 75.7876 91.4238)" fill="#62EFC2"/>
<path d="M159.844 50.6082C160.122 49.7524 161.073 49.1293 161.969 49.2165L162.783 49.2958C163.678 49.383 164.179 50.1475 163.901 51.0034L163.543 52.1089C163.265 52.9648 162.314 53.5878 161.418 53.5006L160.604 53.4214C159.709 53.3341 159.208 52.5696 159.486 51.7138L159.844 50.6082Z" fill="white"/>
<rect width="4.07617" height="4.42068" rx="1.62919" transform="matrix(0.995291 0.0969359 -0.308659 0.951173 74.0225 96.8652)" fill="#F074F1"/>
<rect width="5.01242" height="5.43606" rx="1.62919" transform="matrix(0.995291 0.0969359 -0.308659 0.951173 139.202 116.52)" fill="#F074F1"/>
<path d="M76.6285 37.2176C76.9062 36.3618 77.8573 35.7387 78.7529 35.8259L79.5668 35.9052C80.4623 35.9924 80.9632 36.7569 80.6855 37.6127L80.3267 38.7183C80.049 39.5741 79.0979 40.1972 78.2023 40.11L77.3884 40.0307C76.4928 39.9435 75.992 39.179 76.2697 38.3232L76.6285 37.2176Z" fill="white"/>
<path d="M162.427 89.4424C162.643 88.7763 163.383 88.2914 164.08 88.3592L165.051 88.4538C165.748 88.5216 166.138 89.1167 165.921 89.7827L161.865 102.282C161.477 103.477 159.702 103.786 159.335 102.722L158.819 101.226C158.747 101.016 158.749 100.777 158.826 100.54L162.427 89.4424Z" fill="white"/>
<defs>
<filter id="filter0_f_10298_87426" x="55.6504" y="-4.47265" width="148.393" height="141.345" filterUnits="userSpaceOnUse" color-interpolation-filters="sRGB">
<feFlood flood-opacity="0" result="BackgroundImageFix"/>
<feBlend mode="normal" in="SourceGraphic" in2="BackgroundImageFix" result="shape"/>
<feGaussianBlur stdDeviation="19.4155" result="effect1_foregroundBlur_10298_87426"/>
</filter>
<filter id="filter1_f_10298_87426" x="9.14796" y="-50.21" width="241.4" height="232.822" filterUnits="userSpaceOnUse" color-interpolation-filters="sRGB">
<feFlood flood-opacity="0" result="BackgroundImageFix"/>
<feBlend mode="normal" in="SourceGraphic" in2="BackgroundImageFix" result="shape"/>
<feGaussianBlur stdDeviation="38.8311" result="effect1_foregroundBlur_10298_87426"/>
</filter>
<filter id="filter2_f_10298_87426" x="0.684731" y="-58.6732" width="258.327" height="249.749" filterUnits="userSpaceOnUse" color-interpolation-filters="sRGB">
<feFlood flood-opacity="0" result="BackgroundImageFix"/>
<feBlend mode="normal" in="SourceGraphic" in2="BackgroundImageFix" result="shape"/>
<feGaussianBlur stdDeviation="43.0627" result="effect1_foregroundBlur_10298_87426"/>
</filter>
<filter id="filter3_bi_10298_87426" x="76.071" y="32.4436" width="82.043" height="73.8852" filterUnits="userSpaceOnUse" color-interpolation-filters="sRGB">
<feFlood flood-opacity="0" result="BackgroundImageFix"/>
<feGaussianBlur in="BackgroundImageFix" stdDeviation="3.13561"/>
<feComposite in2="SourceAlpha" operator="in" result="effect1_backgroundBlur_10298_87426"/>
<feBlend mode="normal" in="SourceGraphic" in2="effect1_backgroundBlur_10298_87426" result="shape"/>
<feColorMatrix in="SourceAlpha" type="matrix" values="0 0 0 0 0 0 0 0 0 0 0 0 0 0 0 0 0 0 127 0" result="hardAlpha"/>
<feOffset dx="-11.7972" dy="-1.47464"/>
<feGaussianBlur stdDeviation="56.7738"/>
<feComposite in2="hardAlpha" operator="arithmetic" k2="-1" k3="1"/>
<feColorMatrix type="matrix" values="0 0 0 0 0.396078 0 0 0 0 0.894118 0 0 0 0 1 0 0 0 0.1 0"/>
<feBlend mode="normal" in2="shape" result="effect2_innerShadow_10298_87426"/>
</filter>
<filter id="filter4_f_10298_87426" x="83.1678" y="34.0144" width="73.3754" height="70.7436" filterUnits="userSpaceOnUse" color-interpolation-filters="sRGB">
<feFlood flood-opacity="0" result="BackgroundImageFix"/>
<feBlend mode="normal" in="SourceGraphic" in2="BackgroundImageFix" result="shape"/>
<feGaussianBlur stdDeviation="2.3502" result="effect1_foregroundBlur_10298_87426"/>
</filter>
<filter id="filter5_f_10298_87426" x="78.4674" y="29.314" width="82.7762" height="80.1444" filterUnits="userSpaceOnUse" color-interpolation-filters="sRGB">
<feFlood flood-opacity="0" result="BackgroundImageFix"/>
<feBlend mode="normal" in="SourceGraphic" in2="BackgroundImageFix" result="shape"/>
<feGaussianBlur stdDeviation="4.7004" result="effect1_foregroundBlur_10298_87426"/>
</filter>
<filter id="filter6_bi_10298_87426" x="68.8112" y="28.0549" width="88.7901" height="76.4497" filterUnits="userSpaceOnUse" color-interpolation-filters="sRGB">
<feFlood flood-opacity="0" result="BackgroundImageFix"/>
<feGaussianBlur in="BackgroundImageFix" stdDeviation="3.13561"/>
<feComposite in2="SourceAlpha" operator="in" result="effect1_backgroundBlur_10298_87426"/>
<feBlend mode="normal" in="SourceGraphic" in2="effect1_backgroundBlur_10298_87426" result="shape"/>
<feColorMatrix in="SourceAlpha" type="matrix" values="0 0 0 0 0 0 0 0 0 0 0 0 0 0 0 0 0 0 127 0" result="hardAlpha"/>
<feOffset dx="-11.7972" dy="-1.47464"/>
<feGaussianBlur stdDeviation="56.7738"/>
<feComposite in2="hardAlpha" operator="arithmetic" k2="-1" k3="1"/>
<feColorMatrix type="matrix" values="0 0 0 0 0.396078 0 0 0 0 0.894118 0 0 0 0 1 0 0 0 0.1 0"/>
<feBlend mode="normal" in2="shape" result="effect2_innerShadow_10298_87426"/>
</filter>
<linearGradient id="paint0_linear_10298_87426" x1="148.805" y1="108.747" x2="95.7537" y2="110.541" gradientUnits="userSpaceOnUse">
<stop stop-color="#7CFFC1"/>
<stop offset="0.136786" stop-color="#5FF4AD"/>
<stop offset="0.456317" stop-color="white"/>
<stop offset="0.678478" stop-color="#5FE2FF"/>
<stop offset="0.779699" stop-color="#65E3FF"/>
</linearGradient>
<linearGradient id="paint1_linear_10298_87426" x1="148.805" y1="108.747" x2="95.7537" y2="110.541" gradientUnits="userSpaceOnUse">
<stop stop-color="#7CFFC1"/>
<stop offset="0.136786" stop-color="#5FF4AD"/>
<stop offset="0.456317" stop-color="white"/>
<stop offset="0.678478" stop-color="#5FE2FF"/>
<stop offset="0.779699" stop-color="#65E3FF"/>
</linearGradient>
<linearGradient id="paint2_linear_10298_87426" x1="148.805" y1="108.747" x2="95.7537" y2="110.541" gradientUnits="userSpaceOnUse">
<stop stop-color="#7CFFC1"/>
<stop offset="0.136786" stop-color="#5FF4AD"/>
<stop offset="0.456317" stop-color="white"/>
<stop offset="0.678478" stop-color="#5FE2FF"/>
<stop offset="0.779699" stop-color="#65E3FF"/>
</linearGradient>
<linearGradient id="paint3_linear_10298_87426" x1="148.805" y1="108.747" x2="95.7537" y2="110.541" gradientUnits="userSpaceOnUse">
<stop stop-color="#7CFFC1"/>
<stop offset="0.136786" stop-color="#5FF4AD"/>
<stop offset="0.456317" stop-color="white"/>
<stop offset="0.678478" stop-color="#5FE2FF"/>
<stop offset="0.779699" stop-color="#65E3FF"/>
</linearGradient>
<linearGradient id="paint4_linear_10298_87426" x1="148.805" y1="108.747" x2="95.7537" y2="110.541" gradientUnits="userSpaceOnUse">
<stop stop-color="#7CFFC1"/>
<stop offset="0.136786" stop-color="#5FF4AD"/>
<stop offset="0.456317" stop-color="white"/>
<stop offset="0.678478" stop-color="#5FE2FF"/>
<stop offset="0.779699" stop-color="#65E3FF"/>
</linearGradient>
<linearGradient id="paint5_linear_10298_87426" x1="148.805" y1="108.747" x2="95.7537" y2="110.541" gradientUnits="userSpaceOnUse">
<stop stop-color="#7CFFC1"/>
<stop offset="0.136786" stop-color="#5FF4AD"/>
<stop offset="0.456317" stop-color="white"/>
<stop offset="0.678478" stop-color="#5FE2FF"/>
<stop offset="0.779699" stop-color="#65E3FF"/>
</linearGradient>
<linearGradient id="paint6_linear_10298_87426" x1="148.805" y1="108.747" x2="95.7537" y2="110.541" gradientUnits="userSpaceOnUse">
<stop stop-color="#7CFFC1"/>
<stop offset="0.136786" stop-color="#5FF4AD"/>
<stop offset="0.456317" stop-color="white"/>
<stop offset="0.678478" stop-color="#5FE2FF"/>
<stop offset="0.779699" stop-color="#65E3FF"/>
</linearGradient>
<linearGradient id="paint7_linear_10298_87426" x1="148.805" y1="108.747" x2="95.7537" y2="110.541" gradientUnits="userSpaceOnUse">
<stop stop-color="#7CFFC1"/>
<stop offset="0.136786" stop-color="#5FF4AD"/>
<stop offset="0.456317" stop-color="white"/>
<stop offset="0.678478" stop-color="#5FE2FF"/>
<stop offset="0.779699" stop-color="#65E3FF"/>
</linearGradient>
<linearGradient id="paint8_linear_10298_87426" x1="148.805" y1="108.747" x2="95.7537" y2="110.541" gradientUnits="userSpaceOnUse">
<stop stop-color="#7CFFC1"/>
<stop offset="0.136786" stop-color="#5FF4AD"/>
<stop offset="0.456317" stop-color="white"/>
<stop offset="0.678478" stop-color="#5FE2FF"/>
<stop offset="0.779699" stop-color="#65E3FF"/>
</linearGradient>
<linearGradient id="paint9_linear_10298_87426" x1="148.805" y1="108.747" x2="95.7537" y2="110.541" gradientUnits="userSpaceOnUse">
<stop stop-color="#7CFFC1"/>
<stop offset="0.136786" stop-color="#5FF4AD"/>
<stop offset="0.456317" stop-color="white"/>
<stop offset="0.678478" stop-color="#5FE2FF"/>
<stop offset="0.779699" stop-color="#65E3FF"/>
</linearGradient>
<linearGradient id="paint10_linear_10298_87426" x1="148.805" y1="108.747" x2="95.7537" y2="110.541" gradientUnits="userSpaceOnUse">
<stop stop-color="#7CFFC1"/>
<stop offset="0.136786" stop-color="#5FF4AD"/>
<stop offset="0.456317" stop-color="white"/>
<stop offset="0.678478" stop-color="#5FE2FF"/>
<stop offset="0.779699" stop-color="#65E3FF"/>
</linearGradient>
<linearGradient id="paint11_linear_10298_87426" x1="148.805" y1="108.747" x2="95.7537" y2="110.541" gradientUnits="userSpaceOnUse">
<stop stop-color="#7CFFC1"/>
<stop offset="0.136786" stop-color="#5FF4AD"/>
<stop offset="0.456317" stop-color="white"/>
<stop offset="0.678478" stop-color="#5FE2FF"/>
<stop offset="0.779699" stop-color="#65E3FF"/>
</linearGradient>
<linearGradient id="paint12_linear_10298_87426" x1="148.805" y1="108.747" x2="95.7537" y2="110.541" gradientUnits="userSpaceOnUse">
<stop stop-color="#7CFFC1"/>
<stop offset="0.136786" stop-color="#5FF4AD"/>
<stop offset="0.456317" stop-color="white"/>
<stop offset="0.678478" stop-color="#5FE2FF"/>
<stop offset="0.779699" stop-color="#65E3FF"/>
</linearGradient>
<linearGradient id="paint13_linear_10298_87426" x1="148.805" y1="108.747" x2="95.7537" y2="110.541" gradientUnits="userSpaceOnUse">
<stop stop-color="#7CFFC1"/>
<stop offset="0.136786" stop-color="#5FF4AD"/>
<stop offset="0.456317" stop-color="white"/>
<stop offset="0.678478" stop-color="#5FE2FF"/>
<stop offset="0.779699" stop-color="#65E3FF"/>
</linearGradient>
<linearGradient id="paint14_linear_10298_87426" x1="148.805" y1="108.747" x2="95.7537" y2="110.541" gradientUnits="userSpaceOnUse">
<stop stop-color="#7CFFC1"/>
<stop offset="0.136786" stop-color="#5FF4AD"/>
<stop offset="0.456317" stop-color="white"/>
<stop offset="0.678478" stop-color="#5FE2FF"/>
<stop offset="0.779699" stop-color="#65E3FF"/>
</linearGradient>
</defs>
</svg>
