<svg width="34" height="34" viewBox="0 0 34 34" fill="none" xmlns="http://www.w3.org/2000/svg">
<path d="M12.584 4.44543C15.0248 2.00467 18.9821 2.00468 21.4229 4.44545L31.0277 14.0503C32.6548 15.6774 32.6548 18.3156 31.0277 19.9428L19.9497 31.0208C18.3225 32.648 15.6843 32.648 14.0571 31.0208L2.97911 19.9428C1.35192 18.3156 1.35192 15.6774 2.97912 14.0503L12.584 4.44543Z" fill="#0C0B0F"/>
<path d="M19.4894 21.8327C19.6086 21.7126 19.8027 21.7126 19.9219 21.8327L21.1984 23.1188C21.3158 23.2371 21.5065 23.2391 21.6263 23.1232L23.1094 21.6897C23.2315 21.5717 23.2335 21.3766 23.1139 21.256L21.7963 19.9285C21.6783 19.8097 21.6784 19.6179 21.7964 19.4991L22.77 18.5194C22.961 18.3272 22.8249 18 22.5539 18H18.3046C18.1364 18 18 18.1364 18 18.3046V22.5939C18 22.8659 18.3293 23.0016 18.5209 22.8085L19.4894 21.8327Z" fill="#CCF994"/>
<path d="M19.4894 12.8333C19.6086 12.9534 19.8027 12.9534 19.9219 12.8333L21.1984 11.5472C21.3158 11.4289 21.5065 11.4269 21.6263 11.5428L23.1094 12.9763C23.2315 13.0943 23.2335 13.2894 23.1139 13.41L21.7963 14.7375C21.6783 14.8564 21.6784 15.0481 21.7964 15.1669L22.77 16.1466C22.961 16.3388 22.8249 16.666 22.5539 16.666H18.3046C18.1364 16.666 18 16.5296 18 16.3614V12.0721C18 11.8001 18.3293 11.6645 18.5209 11.8575L19.4894 12.8333Z" fill="#CCF994"/>
<path d="M15.1786 21.8327C15.0594 21.7126 14.8653 21.7126 14.7461 21.8327L13.4696 23.1188C13.3522 23.2371 13.1615 23.2391 13.0416 23.1232L11.5586 21.6897C11.4365 21.5717 11.4345 21.3766 11.5541 21.256L12.8717 19.9285C12.9897 19.8097 12.9896 19.6179 12.8716 19.4991L11.8979 18.5194C11.7069 18.3272 11.8431 18 12.114 18H16.3633C16.5316 18 16.668 18.1364 16.668 18.3046V22.5939C16.668 22.8659 16.3387 23.0016 16.1471 22.8085L15.1786 21.8327Z" fill="#CCF994"/>
<path d="M15.1786 12.8333C15.0594 12.9534 14.8653 12.9534 14.7461 12.8333L13.4696 11.5472C13.3522 11.4289 13.1615 11.4269 13.0416 11.5428L11.5586 12.9763C11.4365 13.0943 11.4345 13.2894 11.5541 13.41L12.8717 14.7375C12.9897 14.8564 12.9896 15.0481 12.8716 15.1669L11.8979 16.1466C11.7069 16.3388 11.8431 16.666 12.114 16.666H16.3633C16.5316 16.666 16.668 16.5296 16.668 16.3614V12.0721C16.668 11.8001 16.3387 11.6645 16.1471 11.8575L15.1786 12.8333Z" fill="#CCF994"/>
</svg>
