<svg width="97" height="79" viewBox="0 0 97 79" fill="none" xmlns="http://www.w3.org/2000/svg">
<path fill-rule="evenodd" clip-rule="evenodd" d="M82.7476 59.1378L79.3389 56.2416C78.8917 55.8616 78.6339 55.3043 78.6339 54.7175V25.9505C78.6339 25.3636 78.8917 24.8064 79.3389 24.4264L82.75 21.5281C82.75 14.0369 82.7478 10.2869 81.2877 7.42129C80.0014 4.8968 77.9489 2.84432 75.4244 1.55802C72.5544 0.0957031 68.7974 0.0957031 61.2835 0.0957031H42.222C29.1056 0.0957031 22.5474 0.0957031 17.5375 2.64833C13.1308 4.89368 9.54798 8.47649 7.30263 12.8832C4.75 17.8931 4.75 24.4513 4.75 37.5677V54.6299C4.75 58.3077 4.75 60.1466 5.20664 61.8518C5.61125 63.3627 6.27696 64.7913 7.17369 66.0729C8.18572 67.5193 9.5938 68.702 12.4099 71.0674L14.7901 73.0666L14.7902 73.0667C17.0074 74.929 18.116 75.8601 19.3617 76.5231C20.4668 77.1111 21.6487 77.5417 22.8731 77.8021C24.2534 78.0957 25.7011 78.0957 28.5967 78.0957H39.683H47.3382H54.9934H61.2834C68.7974 78.0957 72.5544 78.0957 75.4244 76.6334C77.9489 75.3471 80.0014 73.2946 81.2877 70.7701C82.5774 68.2389 82.7296 65.0178 82.7476 59.1378Z" fill="#7997F3"/>
<rect x="91.2695" y="5.71094" width="5" height="5" rx="2" fill="#7997F3"/>
<rect x="76.2148" y="38.7266" width="5" height="5" rx="2" fill="white"/>
<path d="M84.4277 44.2734C84.4277 43.1689 85.3232 42.2734 86.4277 42.2734H88.5762C89.6807 42.2734 90.5762 43.1689 90.5762 44.2734V58.5897C90.5762 60.3598 88.4462 61.2573 87.1793 60.0211L85.0309 57.9245C84.6452 57.5482 84.4277 57.0321 84.4277 56.4932V44.2734Z" fill="white"/>
<path d="M1.48438 29.4688V48.4531" stroke="#201E27" stroke-width="2" stroke-linecap="round"/>
<path d="M44.9331 56.133C44.147 56.233 43.3514 56.233 42.5654 56.133L30.4607 54.592C27.3393 54.1946 25 51.5386 25 48.392V28.8934C25 26.1087 26.8423 23.6599 29.518 22.8882L41.1513 19.5329C42.8487 19.0434 44.6498 19.0434 46.3472 19.5329L57.9819 22.8883C60.6576 23.6599 62.5 26.1087 62.5 28.8935V48.392C62.5 51.5386 60.1607 54.1946 57.0392 54.5919L44.9331 56.133Z" fill="white"/>
<rect x="36.1113" y="32.7959" width="1.98009" height="19.8009" rx="0.990044" transform="rotate(-45 36.1113 32.7959)" fill="black"/>
<rect x="36.1113" y="32.7959" width="1.98009" height="19.8009" rx="0.990044" transform="rotate(-45 36.1113 32.7959)" fill="black"/>
<rect x="36.1113" y="32.7959" width="1.98009" height="19.8009" rx="0.990044" transform="rotate(-45 36.1113 32.7959)" fill="black"/>
<rect x="50.1113" y="31.3945" width="1.98009" height="19.8009" rx="0.990044" transform="rotate(45 50.1113 31.3945)" fill="black"/>
<rect x="50.1113" y="31.3945" width="1.98009" height="19.8009" rx="0.990044" transform="rotate(45 50.1113 31.3945)" fill="black"/>
<rect x="50.1113" y="31.3945" width="1.98009" height="19.8009" rx="0.990044" transform="rotate(45 50.1113 31.3945)" fill="black"/>
<circle cx="43.8107" cy="39.0957" r="5.83656" transform="rotate(-45 43.8107 39.0957)" stroke="black" stroke-width="2.1875"/>
<circle cx="43.8105" cy="39.0957" r="1.09375" transform="rotate(-45 43.8105 39.0957)" stroke="black" stroke-width="2.01363"/>
</svg>
