<svg width="61" height="53" viewBox="0 0 61 53" fill="none" xmlns="http://www.w3.org/2000/svg">
<path fill-rule="evenodd" clip-rule="evenodd" d="M43.8015 35.2535L42.0564 33.7708C41.8276 33.5764 41.6957 33.2913 41.6957 32.991V18.274C41.6957 17.9738 41.8276 17.6887 42.0564 17.4943L43.8027 16.0105C43.8027 12.1787 43.8015 10.2605 43.0546 8.7946C42.3966 7.50308 41.3465 6.45305 40.055 5.79499C38.5868 5.04688 36.6647 5.04688 32.8206 5.04688H23.0689C16.3586 5.04688 13.0034 5.04688 10.4405 6.35278C8.18599 7.50149 6.35305 9.33443 5.20435 11.5889C3.89844 14.1519 3.89844 17.507 3.89844 24.2173V32.9462C3.89844 34.8278 3.89844 35.7685 4.13205 36.6409C4.33905 37.4139 4.67962 38.1447 5.13838 38.8004C5.65613 39.5403 6.37649 40.1454 7.81721 41.3555L9.0349 42.3783L9.03493 42.3783C10.1692 43.3311 10.7364 43.8075 11.3737 44.1466C11.939 44.4475 12.5437 44.6677 13.1701 44.801C13.8762 44.9512 14.6169 44.9512 16.0983 44.9512H21.77H25.6863H29.6026H32.8206C36.6647 44.9512 38.5868 44.9512 40.055 44.2031C41.3465 43.545 42.3966 42.495 43.0546 41.2034C43.7143 39.9087 43.7923 38.261 43.8015 35.2535Z" fill="#5FF4AD"/>
<path d="M23.6129 17.7109L28.4289 22.527L23.6129 27.343L18.7969 22.527L23.6129 17.7109Z" stroke="#0C0B0F" stroke-width="1.24709"/>
<path d="M23.6129 27.3438L27.7837 31.9878H19.4421L23.6129 27.3438Z" stroke="#0C0B0F" stroke-width="1.24529"/>
<path fill-rule="evenodd" clip-rule="evenodd" d="M32.0873 22.5267L27.3967 27.3427L25.7919 27.3427L30.4928 22.5267L32.0873 22.5267Z" fill="#0C0B0F"/>
<path fill-rule="evenodd" clip-rule="evenodd" d="M22.8023 16.4449L16.9642 22.293L15.3594 22.293L21.2077 16.4449L22.8023 16.4449Z" fill="#0C0B0F"/>
<rect x="0.585938" y="46.2891" width="2.55797" height="2.55797" rx="1.02319" fill="#5FF4AD"/>
<rect x="57.8516" y="0.253906" width="2.55797" height="2.55797" rx="1.02319" fill="#5FF4AD"/>
<rect x="0.585938" y="49.6016" width="2.55797" height="2.55797" rx="1.02319" fill="#5FF4AD"/>
<rect x="50.4453" y="45.9961" width="3.1455" height="3.1455" rx="1.02319" fill="#5FF4AD"/>
<path d="M44.6641 28.6716C44.6641 28.1065 45.1222 27.6484 45.6872 27.6484H46.7864C47.3515 27.6484 47.8096 28.1065 47.8096 28.6716V35.9957C47.8096 36.9013 46.7199 37.3605 46.0718 36.728L44.9726 35.6554C44.7753 35.4629 44.6641 35.1989 44.6641 34.9232V28.6716Z" fill="#5FF4AD"/>
<path d="M1.20312 19.0508V28.7631" stroke="#201E27" stroke-width="1.02319" stroke-linecap="round"/>
</svg>
