<svg width="32" height="33" viewBox="0 0 32 33" fill="none" xmlns="http://www.w3.org/2000/svg">
<path d="M21.5841 3.16797H10.4107C5.5574 3.16797 2.66406 6.0613 2.66406 10.9146V22.0746C2.66406 26.9413 5.5574 29.8346 10.4107 29.8346H21.5707C26.4241 29.8346 29.3174 26.9413 29.3174 22.088V10.9146C29.3307 6.0613 26.4374 3.16797 21.5841 3.16797ZM22.9974 16.9413C22.9974 17.488 22.5441 17.9413 21.9974 17.9413C21.4507 17.9413 20.9974 17.488 20.9974 16.9413V12.9146L10.7041 23.208C10.5041 23.408 10.2507 23.5013 9.9974 23.5013C9.74406 23.5013 9.49073 23.408 9.29073 23.208C8.90406 22.8213 8.90406 22.1813 9.29073 21.7946L19.5841 11.5013H15.5574C15.0107 11.5013 14.5574 11.048 14.5574 10.5013C14.5574 9.95464 15.0107 9.5013 15.5574 9.5013H21.9974C22.5441 9.5013 22.9974 9.95464 22.9974 10.5013V16.9413Z" fill="#9CB0F8"/>
</svg>
