<svg width="21" height="21" viewBox="0 0 21 21" fill="none" xmlns="http://www.w3.org/2000/svg">
<path d="M10.7773 0.212891C16.2065 0.212891 20.6252 4.53956 20.7735 9.93299L20.7773 10.2129L20.777 11.7383C20.7637 13.9356 18.978 15.7129 16.7773 15.7129C15.3317 15.7129 14.0653 14.9461 13.3625 13.797C12.5625 14.6313 11.4806 15.1462 10.2773 15.1462C7.76226 15.1462 5.77734 12.8967 5.77734 10.1796C5.77734 7.46247 7.76226 5.21289 10.2773 5.21289C11.2139 5.21289 12.077 5.52486 12.7914 6.05676C12.8643 5.5787 13.2781 5.21289 13.7773 5.21289C14.2901 5.21289 14.7128 5.59893 14.7706 6.09627L14.7773 6.21289V11.7129C14.7773 12.8175 15.6727 13.7129 16.7773 13.7129C17.8317 13.7129 18.6955 12.897 18.7718 11.8622L18.7776 11.6877L18.7773 10.2129C18.7773 5.79461 15.1956 2.21289 10.7773 2.21289C6.35906 2.21289 2.77734 5.79461 2.77734 10.2129C2.77734 14.6312 6.35906 18.2129 10.7773 18.2129C11.6988 18.2129 12.5976 18.0575 13.4468 17.757C13.9674 17.5727 14.5389 17.8455 14.7231 18.3661C14.9073 18.8868 14.6346 19.4582 14.114 19.6424C13.0512 20.0185 11.9268 20.2129 10.7773 20.2129C5.25449 20.2129 0.777344 15.7357 0.777344 10.2129C0.777344 4.69004 5.25449 0.212891 10.7773 0.212891ZM10.4265 7.2182L10.2773 7.21289C8.92644 7.21289 7.77734 8.51519 7.77734 10.1796C7.77734 11.8439 8.92644 13.1462 10.2773 13.1462C11.5782 13.1462 12.6919 11.9386 12.7726 10.363L12.7771 10.1422C12.7607 8.55719 11.7018 7.30914 10.4265 7.2182Z" fill="currentColor"/>
</svg>
