<svg width="24" height="25" viewBox="0 0 24 25" fill="none"
  xmlns="http://www.w3.org/2000/svg">
  <path
    d="M3.06452 10.0246V15.5052C3.06452 15.99 3.11839 16.4478 3.23958 16.8653C3.73781 18.8447 5.38064 20.0836 7.64288 20.0836H11.3056L15.3722 23.3672C15.9782 23.7846 16.7861 23.3403 16.7861 22.6131V20.0836C18.1596 20.0836 19.3042 19.6257 20.0987 18.8313C20.9067 18.0233 21.3645 16.8787 21.3645 15.5052V10.0246C21.3645 7.46615 19.7755 5.70214 17.3248 5.47322C17.1497 5.45976 16.9747 5.44629 16.7861 5.44629H7.64288C4.89587 5.44629 3.06452 7.27763 3.06452 10.0246Z"
    fill="currentColor" />
  <circle cx="9.84844" cy="12.96" r="1.22247" fill="#1A1C2B" />
  <circle cx="14.5818" cy="12.96" r="1.22247" fill="#1A1C2B" />
</svg>