<svg width="16" height="17" viewBox="0 0 16 17" fill="none"
  xmlns="http://www.w3.org/2000/svg">
  <path
    d="M12.3337 8.56763V11.0343C12.3337 13.1143 10.3937 14.801 8.00033 14.801C5.60699 14.801 3.66699 13.1143 3.66699 11.0343V8.56763C3.66699 10.6476 5.60699 12.1343 8.00033 12.1343C10.3937 12.1343 12.3337 10.6476 12.3337 8.56763Z"
    stroke="currentColor" stroke-width="1.5" stroke-linecap="round"
    stroke-linejoin="round" />
  <path
    d="M12.3337 5.2342C12.3337 5.84086 12.167 6.40086 11.8737 6.88086C11.1603 8.0542 9.69366 8.80086 8.00033 8.80086C6.30699 8.80086 4.84033 8.0542 4.12699 6.88086C3.83366 6.40086 3.66699 5.84086 3.66699 5.2342C3.66699 4.1942 4.15365 3.2542 4.93365 2.5742C5.72032 1.88753 6.80033 1.46753 8.00033 1.46753C9.20033 1.46753 10.2803 1.88753 11.067 2.56753C11.847 3.2542 12.3337 4.1942 12.3337 5.2342Z"
    stroke="currentColor" stroke-width="1.5" stroke-linecap="round"
    stroke-linejoin="round" />
  <path
    d="M12.3337 5.2342V8.56753C12.3337 10.6475 10.3937 12.1342 8.00033 12.1342C5.60699 12.1342 3.66699 10.6475 3.66699 8.56753V5.2342C3.66699 3.1542 5.60699 1.46753 8.00033 1.46753C9.20033 1.46753 10.2803 1.88753 11.067 2.56753C11.847 3.2542 12.3337 4.1942 12.3337 5.2342Z"
    stroke="currentColor" stroke-width="1.5" stroke-linecap="round"
    stroke-linejoin="round" />
</svg>