<svg width="34" height="34" viewBox="0 0 34 34" fill="none" xmlns="http://www.w3.org/2000/svg">
    <path
        d="M15.9583 25.6806H12.8333C11.3056 25.6806 10.0556 26.9306 10.0556 28.4583V28.8056H8.66667C8.09722 28.8056 7.625 29.2778 7.625 29.8472C7.625 30.4167 8.09722 30.8889 8.66667 30.8889H25.3333C25.9028 30.8889 26.375 30.4167 26.375 29.8472C26.375 29.2778 25.9028 28.8056 25.3333 28.8056H23.9444V28.4583C23.9444 26.9306 22.6944 25.6806 21.1667 25.6806H18.0417V22.5C17.6944 22.5417 17.3472 22.5556 17 22.5556C16.6528 22.5556 16.3056 22.5417 15.9583 22.5V25.6806Z"
        fill="currentColor" />
    <path
        d="M26 16.5002C26.9167 16.153 27.7222 15.5836 28.3611 14.9447C29.6528 13.5141 30.5 11.8058 30.5 9.80577C30.5 7.80577 28.9306 6.23633 26.9306 6.23633H26.1528C25.25 4.38911 23.3611 3.11133 21.1667 3.11133H12.8333C10.6389 3.11133 8.75 4.38911 7.84722 6.23633H7.06944C5.06944 6.23633 3.5 7.80577 3.5 9.80577C3.5 11.8058 4.34722 13.5141 5.63889 14.9447C6.27778 15.5836 7.08333 16.153 8 16.5002C9.44444 20.0558 12.9167 22.5558 17 22.5558C21.0833 22.5558 24.5556 20.0558 26 16.5002ZM20.9444 12.0697L20.0833 13.1252C19.9444 13.278 19.8472 13.5836 19.8611 13.7919L19.9444 15.153C20 15.9863 19.4028 16.4169 18.625 16.1113L17.3611 15.6113C17.1667 15.5419 16.8333 15.5419 16.6389 15.6113L15.375 16.1113C14.5972 16.4169 14 15.9863 14.0556 15.153L14.1389 13.7919C14.1528 13.5836 14.0556 13.278 13.9167 13.1252L13.0556 12.0697C12.5139 11.4308 12.75 10.7224 13.5556 10.5141L14.875 10.1808C15.0833 10.1252 15.3333 9.93077 15.4444 9.75022L16.1806 8.61133C16.6389 7.903 17.3611 7.903 17.8194 8.61133L18.5556 9.75022C18.6667 9.93077 18.9167 10.1252 19.125 10.1808L20.4444 10.5141C21.25 10.7224 21.4861 11.4308 20.9444 12.0697Z"
        fill="currentColor" />
</svg>