<svg xmlns="http://www.w3.org/2000/svg" width="16" height="16" viewBox="0 0 16 16" fill="none">
<path fill-rule="evenodd" clip-rule="evenodd" d="M2.79696 8.20395C2.72982 8.13321 2.69624 8.09783 2.68209 8.05698C2.66961 8.02097 2.66769 7.98215 2.67653 7.94509C2.68657 7.90303 2.71647 7.86451 2.77628 7.78745L4.9394 5.00055C4.97534 4.95425 4.99331 4.93109 5.01587 4.91455C5.03586 4.89989 5.05839 4.88908 5.08232 4.88266C5.10935 4.87541 5.13865 4.87587 5.19726 4.8768L11.4827 4.97645C11.5367 4.97731 11.5638 4.97774 11.5888 4.98478C11.611 4.99101 11.6319 5.00103 11.6506 5.01439C11.6718 5.02947 11.6891 5.05026 11.7237 5.09185L13.8757 7.68072C13.9402 7.75832 13.9725 7.79711 13.9837 7.84005C13.9937 7.87787 13.9923 7.91778 13.9798 7.95483C13.9656 7.99688 13.9307 8.03336 13.861 8.10633L8.49665 13.7216C8.41579 13.8062 8.37536 13.8486 8.32834 13.8643C8.28701 13.8781 8.2423 13.878 8.20102 13.8641C8.15405 13.8482 8.11376 13.8057 8.03317 13.7208L2.79696 8.20395ZM5.60287 5.65425C5.54547 5.65449 5.51677 5.65461 5.49036 5.66212C5.46697 5.66877 5.44499 5.67963 5.4255 5.69417C5.40349 5.71058 5.38596 5.7333 5.35089 5.77875L3.82026 7.76229C3.76127 7.83873 3.73178 7.87695 3.72181 7.91866C3.71301 7.95543 3.71482 7.99394 3.72702 8.02972C3.74087 8.07032 3.77381 8.1056 3.8397 8.17617L6.37956 10.8963C6.6968 11.2361 6.85541 11.406 6.94304 11.4054C7.01836 11.405 7.08703 11.3622 7.1207 11.2949C7.15987 11.2165 7.07747 10.9992 6.91267 10.5645L6.14839 8.54884C6.12353 8.48327 6.1111 8.45049 6.09025 8.42512C6.07181 8.40268 6.0487 8.38452 6.02253 8.37192C5.99294 8.35767 5.95814 8.35335 5.88856 8.34472L5.0208 8.23713C4.9915 8.23349 4.97684 8.23168 4.96458 8.22855C4.87958 8.20687 4.81862 8.13233 4.81426 8.04471C4.81363 8.03208 4.81475 8.01735 4.81701 7.98791C4.81906 7.96125 4.82008 7.94792 4.82234 7.93639C4.83796 7.85686 4.90003 7.79461 4.97952 7.77878C4.99104 7.77648 5.00436 7.77542 5.03102 7.7733L5.84626 7.70849C5.92545 7.7022 5.96504 7.69905 5.99811 7.68344C6.02733 7.66965 6.05276 7.64899 6.07225 7.62323C6.09431 7.59406 6.10551 7.55595 6.12791 7.47974L6.54469 6.06181C6.58575 5.92213 6.60627 5.85229 6.59085 5.79708C6.57734 5.74872 6.54615 5.70722 6.50345 5.6808C6.4547 5.65064 6.38191 5.65095 6.23632 5.65157L5.60287 5.65425ZM9.70405 5.8836C9.68302 5.79547 9.6725 5.75141 9.64827 5.71862C9.62689 5.6897 9.59811 5.66708 9.56496 5.65313C9.52738 5.63733 9.48208 5.63751 9.39148 5.63788L7.66978 5.6449C7.58411 5.64525 7.54127 5.64543 7.50523 5.66019C7.47342 5.67322 7.4455 5.69424 7.42417 5.7212C7.40001 5.75175 7.38799 5.79287 7.36394 5.87509L6.96371 7.24381C6.92306 7.38283 6.90273 7.45233 6.91809 7.50737C6.93154 7.55558 6.96258 7.59699 7.00507 7.62343C7.05359 7.65362 7.12601 7.65362 7.27084 7.65362H9.7211C9.85945 7.65362 9.92862 7.65362 9.97619 7.62501C10.0179 7.59992 10.049 7.5605 10.0637 7.51411C10.0805 7.46119 10.0645 7.39391 10.0324 7.25934L9.70405 5.8836ZM9.87825 8.87024C9.94133 8.72158 9.97288 8.64725 9.96135 8.5874C9.95127 8.53508 9.92073 8.48895 9.8765 8.45923C9.82591 8.42523 9.74516 8.42523 9.58367 8.42523H7.34386C7.19266 8.42523 7.11706 8.42523 7.0677 8.45691C7.02449 8.48464 6.9936 8.52792 6.98143 8.5778C6.96751 8.63478 6.99209 8.70627 7.04124 8.84926L8.0436 11.7652C8.12779 12.0101 8.16989 12.1326 8.2356 12.17C8.29256 12.2023 8.36176 12.2048 8.42085 12.1765C8.48903 12.1438 8.53962 12.0246 8.64079 11.7862L9.87825 8.87024ZM5.77166 3.66395C5.7089 3.65315 5.67752 3.64776 5.65236 3.63568C5.59807 3.60961 5.55841 3.56046 5.54441 3.50188C5.53793 3.47474 5.53928 3.44292 5.542 3.3793L5.60923 1.80412C5.61452 1.68017 5.61716 1.6182 5.64406 1.57412C5.66768 1.53541 5.70376 1.50588 5.74637 1.49037C5.79489 1.47271 5.85617 1.48236 5.97872 1.50167L6.29216 1.55103C6.41792 1.57084 6.48081 1.58074 6.52199 1.61339C6.55815 1.64204 6.58329 1.68231 6.59315 1.72738C6.60439 1.77872 6.58567 1.83956 6.54822 1.96124L6.08322 3.47252C6.06449 3.53337 6.05513 3.56379 6.03995 3.58719C6.00717 3.6377 5.95337 3.67075 5.89351 3.67717C5.86577 3.68014 5.8344 3.67475 5.77166 3.66395ZM3.38922 1.50513C3.33945 1.38972 3.31457 1.33201 3.3199 1.28019C3.32459 1.23468 3.34472 1.19216 3.37696 1.15971C3.41367 1.12275 3.47409 1.10544 3.59491 1.07081L3.98281 0.959647C4.09734 0.926825 4.15461 0.910414 4.20367 0.92101C4.24679 0.930321 4.28561 0.953625 4.31411 0.987295C4.34654 1.02561 4.35899 1.08386 4.3839 1.20037L4.86468 3.44953C4.87968 3.51971 4.88718 3.5548 4.8837 3.5868C4.87858 3.63373 4.85703 3.67734 4.82286 3.70991C4.79956 3.73211 4.76713 3.74747 4.70227 3.77819C4.61943 3.81741 4.57801 3.83703 4.53933 3.83933C4.48256 3.84272 4.42704 3.82177 4.38664 3.78174C4.35912 3.75446 4.34098 3.71238 4.30468 3.62821L3.38922 1.50513ZM3.8256 4.30153C3.79609 4.35604 3.78133 4.3833 3.76311 4.40249C3.71506 4.45312 3.64409 4.47503 3.57586 4.4603C3.54999 4.45472 3.52244 4.44052 3.46733 4.41213L2.32935 3.82587C2.21579 3.76737 2.15902 3.73812 2.13015 3.69407C2.10481 3.65539 2.09365 3.60914 2.09857 3.56316C2.10418 3.51079 2.14137 3.45887 2.21577 3.35504L2.39158 3.10964C2.46767 3.00343 2.50572 2.95032 2.55441 2.9282C2.59713 2.90878 2.64532 2.90501 2.69054 2.91753C2.74208 2.9318 2.78793 2.97834 2.87964 3.0714L3.78084 3.98594C3.81451 4.02012 3.83135 4.0372 3.84291 4.05558C3.87325 4.10378 3.8816 4.16263 3.86587 4.21737C3.85987 4.23824 3.84844 4.25934 3.8256 4.30153Z" fill="currentColor"/>
</svg>