<svg width="16" height="17" viewBox="0 0 16 17" fill="none" xmlns="http://www.w3.org/2000/svg">
<path d="M11.2 1.8335H9.46667C7.33333 1.8335 6 3.16683 6 5.30016V8.00016H10.1667C10.44 8.00016 10.6667 8.22683 10.6667 8.50016C10.6667 8.7735 10.44 9.00016 10.1667 9.00016H6V11.7002C6 13.8335 7.33333 15.1668 9.46667 15.1668H11.1933C13.3267 15.1668 14.66 13.8335 14.66 11.7002V5.30016C14.6667 3.16683 13.3333 1.8335 11.2 1.8335Z" fill="currentColor"/>
<path d="M3.04094 8.00022L4.42094 6.62022C4.52094 6.52022 4.5676 6.39355 4.5676 6.26689C4.5676 6.14022 4.52094 6.00689 4.42094 5.91355C4.2276 5.72022 3.9076 5.72022 3.71427 5.91355L1.48094 8.14689C1.2876 8.34022 1.2876 8.66022 1.48094 8.85355L3.71427 11.0869C3.9076 11.2802 4.2276 11.2802 4.42094 11.0869C4.61427 10.8936 4.61427 10.5736 4.42094 10.3802L3.04094 9.00022H6.00094V8.00022H3.04094Z" fill="currentColor"/>
</svg>
