<svg width="16" height="17" viewBox="0 0 16 17" fill="none"
  xmlns="http://www.w3.org/2000/svg">
  <path fill-rule="evenodd" clip-rule="evenodd"
    d="M1.91628 6.63761C1.40831 5.79683 2.3088 4.72754 3.24519 5.02438C4.74604 5.50015 6.55245 5.95188 8.001 5.95188C9.44955 5.95188 11.256 5.50015 12.7568 5.02438C13.6932 4.72754 14.5937 5.79683 14.0857 6.63761L9.16401 14.7838C8.63545 15.6587 7.36655 15.6587 6.83799 14.7838L1.91628 6.63761ZM5.43088 1.57309C4.59794 1.43893 3.99388 2.33813 4.64743 2.87167C5.61013 3.65758 6.76254 4.20973 8.00102 4.20973C9.23947 4.20973 10.3919 3.65759 11.3545 2.87169C12.0081 2.33815 11.404 1.43894 10.5711 1.5731C9.7343 1.70788 8.87584 1.77793 8.00102 1.77793C7.12618 1.77793 6.2677 1.70788 5.43088 1.57309Z"
    fill="currentColor" />
</svg>