<svg width="25" height="24" viewBox="0 0 25 24" fill="none" xmlns="http://www.w3.org/2000/svg">
<path d="M16.44 2H8.06C4.42 2 2.25 4.17 2.25 7.81V16.18C2.25 19.83 4.42 22 8.06 22H16.43C20.07 22 22.24 19.83 22.24 16.19V7.81C22.25 4.17 20.08 2 16.44 2ZM8.75 6.38C9.78 6.38 10.63 7.22 10.63 8.26C10.63 9.3 9.79 10.14 8.75 10.14C7.71 10.14 6.87 9.28 6.87 8.25C6.87 7.22 7.72 6.38 8.75 6.38ZM12.25 19.08C9.56 19.08 7.37 16.89 7.37 14.2C7.37 13.5 7.94 12.92 8.64 12.92H15.84C16.54 12.92 17.11 13.49 17.11 14.2C17.13 16.89 14.94 19.08 12.25 19.08ZM15.75 10.12C14.72 10.12 13.87 9.28 13.87 8.24C13.87 7.2 14.71 6.36 15.75 6.36C16.79 6.36 17.63 7.2 17.63 8.24C17.63 9.28 16.78 10.12 15.75 10.12Z" fill="currentColor"/>
</svg>
