<svg width="15" height="15" viewBox="0 0 15 15" fill="none"
  xmlns="http://www.w3.org/2000/svg">
  <path fill-rule="evenodd" clip-rule="evenodd"
    d="M5.11461 8.10138C5.26743 7.96621 5.51519 7.96621 5.66801 8.10138L8.00001 10.1643L10.332 8.10138C10.4848 7.96621 10.7325 7.96621 10.8854 8.10138C11.0382 8.23657 11.0382 8.45574 10.8854 8.59092L8.2767 10.8986C8.20331 10.9635 8.10379 11 8.00001 11C7.89623 11 7.7967 10.9635 7.72331 10.8986L5.11461 8.59092C4.9618 8.45574 4.9618 8.23657 5.11461 8.10138Z"
    fill="currentColor" />
  <path fill-rule="evenodd" clip-rule="evenodd"
    d="M10.8854 5.89862C10.7326 6.03379 10.4848 6.03379 10.332 5.89862L7.99999 3.83569L5.66798 5.89862C5.5152 6.03379 5.26746 6.03379 5.11459 5.89862C4.9618 5.76343 4.9618 5.54426 5.11459 5.40908L7.7233 3.10138C7.79669 3.03647 7.89621 3 7.99999 3C8.10377 3 8.2033 3.03647 8.27669 3.10138L10.8854 5.40908C11.0382 5.54426 11.0382 5.76343 10.8854 5.89862Z"
    fill="currentColor" />
</svg>