<svg width="24" height="25" viewBox="0 0 24 25" fill="none"
  xmlns="http://www.w3.org/2000/svg">
  <path
    d="M15.5799 12.2685C15.5799 14.2485 13.9799 15.8485 11.9999 15.8485C10.0199 15.8485 8.41992 14.2485 8.41992 12.2685C8.41992 10.2885 10.0199 8.68848 11.9999 8.68848C13.9799 8.68848 15.5799 10.2885 15.5799 12.2685Z"
    stroke="currentColor" stroke-width="1.5" stroke-linecap="round"
    stroke-linejoin="round" />
  <path
    d="M11.9998 20.5385C15.5298 20.5385 18.8198 18.4585 21.1098 14.8585C22.0098 13.4485 22.0098 11.0785 21.1098 9.66852C18.8198 6.06852 15.5298 3.98853 11.9998 3.98853C8.46984 3.98853 5.17984 6.06852 2.88984 9.66852C1.98984 11.0785 1.98984 13.4485 2.88984 14.8585C5.17984 18.4585 8.46984 20.5385 11.9998 20.5385Z"
    stroke="currentColor" stroke-width="1.5" stroke-linecap="round"
    stroke-linejoin="round" />
</svg>