<svg width="24" height="25" viewBox="0 0 24 25" fill="none"
  xmlns="http://www.w3.org/2000/svg">
  <path
    d="M12 22.2686C17.5228 22.2686 22 17.7914 22 12.2686C22 6.74571 17.5228 2.26855 12 2.26855C6.47715 2.26855 2 6.74571 2 12.2686C2 17.7914 6.47715 22.2686 12 22.2686Z"
    stroke="currentColor" stroke-width="1.5" stroke-linecap="round"
    stroke-linejoin="round" />
  <path
    d="M8.67987 12.1786L10.3299 12.5886L9.37988 16.4287C9.15988 17.3287 9.59986 17.6286 10.3599 17.0986L15.5399 13.5086C16.1699 13.0686 16.0799 12.5586 15.3299 12.3686L13.6799 11.9586L14.6299 8.11861C14.8499 7.21861 14.4099 6.91863 13.6499 7.44863L8.46988 11.0387C7.83988 11.4787 7.92987 11.9886 8.67987 12.1786Z"
    stroke="currentColor" stroke-width="1.5" stroke-miterlimit="10"
    stroke-linecap="round" stroke-linejoin="round" />
</svg>