<svg width="70" height="70" viewBox="0 0 70 70" fill="none"
  xmlns="http://www.w3.org/2000/svg">
  <path
    d="M26.3483 63.5423H43.4733C57.7441 63.5423 63.4525 57.834 63.4525 43.5632V26.4382C63.4525 12.1673 57.7441 6.45898 43.4733 6.45898H26.3483C12.0775 6.45898 6.36914 12.1673 6.36914 26.4382V43.5632C6.36914 57.834 12.0775 63.5423 26.3483 63.5423Z"
    stroke="currentColor" stroke-width="3" stroke-linecap="round"
    stroke-linejoin="round" />
  <path
    d="M6.36914 36.9971L23.4941 36.94C25.6348 36.94 28.0323 38.5669 28.8314 40.5648L32.0852 48.7848C32.8273 50.64 33.9975 50.64 34.7396 48.7848L41.2756 32.2021C41.9035 30.6038 43.0737 30.5467 43.8729 32.0594L46.8412 37.6821C47.726 39.366 50.0093 40.736 51.8931 40.736H63.481"
    stroke="currentColor" stroke-width="3" stroke-linecap="round"
    stroke-linejoin="round" />
</svg>