<svg width="16" height="17" viewBox="0 0 16 17" fill="none" xmlns="http://www.w3.org/2000/svg">
<g id="24 icon/hot" clip-path="url(#clip0_7750_1325)">
<g id="Group">
<path id="Vector" d="M8.00006 15.7708C6.99816 15.7707 6.0194 15.4697 5.19067 14.9066C4.36194 14.3436 3.72146 13.5446 3.35229 12.6132C2.98312 11.6818 2.90228 10.661 3.12025 9.68305C3.33822 8.70515 3.84495 7.81529 4.57473 7.12883C5.4694 6.28683 7.66673 4.77083 7.3334 1.4375C11.3334 4.10417 13.3334 6.77083 9.3334 10.7708C10.0001 10.7708 11.0001 10.7708 12.6667 9.12417C12.8467 9.6395 13.0001 10.1935 13.0001 10.7708C13.0001 12.0969 12.4733 13.3687 11.5356 14.3064C10.5979 15.244 9.32615 15.7708 8.00006 15.7708Z" fill="currentColor"/>
</g>
</g>
<defs>
<clipPath id="clip0_7750_1325">
<rect width="16" height="16" fill="white" transform="translate(0 0.4375)"/>
</clipPath>
</defs>
</svg>
