<svg width="32" height="33" viewBox="0 0 32 33" fill="none"
  xmlns="http://www.w3.org/2000/svg">
  <g clip-path="url(#clip0_200_49534)">
    <path
      d="M3.99984 4.26855H27.9998C28.3535 4.26855 28.6926 4.40903 28.9426 4.65908C29.1927 4.90913 29.3332 5.24827 29.3332 5.60189V26.9352C29.3332 27.2888 29.1927 27.628 28.9426 27.878C28.6926 28.1281 28.3535 28.2686 27.9998 28.2686H3.99984C3.64622 28.2686 3.30708 28.1281 3.05703 27.878C2.80698 27.628 2.6665 27.2888 2.6665 26.9352V5.60189C2.6665 5.24827 2.80698 4.90913 3.05703 4.65908C3.30708 4.40903 3.64622 4.26855 3.99984 4.26855ZM11.9998 16.2686C11.9998 17.3294 12.4213 18.3468 13.1714 19.097C13.9216 19.8471 14.939 20.2686 15.9998 20.2686C17.0607 20.2686 18.0781 19.8471 18.8283 19.097C19.5784 18.3468 19.9998 17.3294 19.9998 16.2686H26.6665V6.93522H5.33317V16.2686H11.9998Z"
      fill="currentColor" />
  </g>
  <defs>
    <clipPath id="clip0_200_49534">
      <rect width="32" height="32" fill="current"
        transform="translate(0 0.268555)" />
    </clipPath>
  </defs>
</svg>