<svg width="5" height="11" viewBox="0 0 5 11" fill="none" xmlns="http://www.w3.org/2000/svg">
<path opacity="0.45" d="M4.29902 9.01611L4.15937 9.5874C3.74043 9.75244 3.40612 9.87728 3.15644 9.96191C2.90677 10.0508 2.61689 10.0952 2.28681 10.0952C1.779 10.0952 1.38333 9.97249 1.0998 9.72705C0.820503 9.47738 0.680855 9.16211 0.680855 8.78125C0.680855 8.63314 0.691434 8.48291 0.712593 8.33057C0.733752 8.17399 0.767606 7.99837 0.814156 7.80371L1.33466 5.9502C1.38121 5.77246 1.4193 5.60531 1.44892 5.44873C1.48278 5.28792 1.4997 5.14193 1.4997 5.01074C1.4997 4.77376 1.45104 4.60872 1.35371 4.51562C1.25638 4.42253 1.07018 4.37598 0.795113 4.37598C0.659696 4.37598 0.520048 4.39714 0.376167 4.43945C0.236519 4.48177 0.115913 4.52197 0.0143509 4.56006L0.153999 3.98877C0.496773 3.84912 0.824735 3.73063 1.13789 3.6333C1.45104 3.53174 1.74726 3.48096 2.02656 3.48096C2.53014 3.48096 2.91735 3.60368 3.18818 3.84912C3.46324 4.09033 3.60078 4.4056 3.60078 4.79492C3.60078 4.87533 3.5902 5.01709 3.56904 5.22021C3.55211 5.42334 3.51826 5.60954 3.46748 5.77881L2.94697 7.62598C2.90465 7.77409 2.86656 7.94336 2.83271 8.13379C2.79886 8.32422 2.78193 8.4681 2.78193 8.56543C2.78193 8.81087 2.83694 8.97803 2.94697 9.06689C3.05699 9.15576 3.24742 9.2002 3.51826 9.2002C3.64521 9.2002 3.78909 9.17904 3.9499 9.13672C4.11071 9.09017 4.22708 9.04997 4.29902 9.01611ZM4.43232 1.26562C4.43232 1.58724 4.3096 1.8623 4.06416 2.09082C3.82294 2.3151 3.53095 2.42725 3.18818 2.42725C2.84541 2.42725 2.5513 2.3151 2.30585 2.09082C2.06041 1.8623 1.93769 1.58724 1.93769 1.26562C1.93769 0.94401 2.06041 0.668945 2.30585 0.44043C2.5513 0.211914 2.84541 0.0976562 3.18818 0.0976562C3.53095 0.0976562 3.82294 0.211914 4.06416 0.44043C4.3096 0.668945 4.43232 0.94401 4.43232 1.26562Z" fill="white"/>
</svg>
