<svg width="24" height="24" viewBox="0 0 24 24" fill="none"
  xmlns="http://www.w3.org/2000/svg">
  <circle cx="12" cy="12" r="10" stroke="currentColor" stroke-width="2"/>
  <path opacity="1"
    d="M13.5208 16.4873L13.3704 17.1025C12.9192 17.2803 12.5592 17.4147 12.2903 17.5059C12.0214 17.6016 11.7092 17.6494 11.3538 17.6494C10.8069 17.6494 10.3808 17.5173 10.0755 17.2529C9.77468 16.984 9.62429 16.6445 9.62429 16.2344C9.62429 16.0749 9.63568 15.9131 9.65847 15.749C9.68125 15.5804 9.71771 15.3913 9.76784 15.1816L10.3284 13.1855C10.3785 12.9941 10.4195 12.8141 10.4514 12.6455C10.4879 12.4723 10.5061 12.3151 10.5061 12.1738C10.5061 11.9186 10.4537 11.7409 10.3489 11.6406C10.2441 11.5404 10.0436 11.4902 9.74733 11.4902C9.6015 11.4902 9.45111 11.513 9.29616 11.5586C9.14577 11.6042 9.01589 11.6475 8.90651 11.6885L9.0569 11.0732C9.42604 10.9229 9.77924 10.7952 10.1165 10.6904C10.4537 10.5811 10.7727 10.5264 11.0735 10.5264C11.6158 10.5264 12.0328 10.6585 12.3245 10.9229C12.6207 11.1826 12.7688 11.5221 12.7688 11.9414C12.7688 12.028 12.7574 12.1807 12.7346 12.3994C12.7164 12.6182 12.68 12.8187 12.6253 13.001L12.0647 14.9902C12.0191 15.1497 11.9781 15.332 11.9417 15.5371C11.9052 15.7422 11.887 15.8971 11.887 16.002C11.887 16.2663 11.9462 16.4463 12.0647 16.542C12.1832 16.6377 12.3883 16.6855 12.68 16.6855C12.8167 16.6855 12.9716 16.6628 13.1448 16.6172C13.318 16.5671 13.4433 16.5238 13.5208 16.4873ZM13.6643 8.14062C13.6643 8.48698 13.5322 8.7832 13.2678 9.0293C13.0081 9.27083 12.6936 9.3916 12.3245 9.3916C11.9553 9.3916 11.6386 9.27083 11.3743 9.0293C11.11 8.7832 10.9778 8.48698 10.9778 8.14062C10.9778 7.79427 11.11 7.49805 11.3743 7.25195C11.6386 7.00586 11.9553 6.88281 12.3245 6.88281C12.6936 6.88281 13.0081 7.00586 13.2678 7.25195C13.5322 7.49805 13.6643 7.79427 13.6643 8.14062Z"
    fill="currentColor" />
</svg>