<svg xmlns="http://www.w3.org/2000/svg"
  viewBox="0 0 38 44">
  <path
    d="M16.5951 29.346C16.5951 27.9078 17.761 26.7419 19.1992 26.7419C20.6375 26.7419 21.8034 27.9078 21.8034 29.346C21.8034 30.7843 20.6375 31.9502 19.1992 31.9502C17.761 31.9502 16.5951 30.7843 16.5951 29.346Z"
    fill="currentColor" />
  <path fill-rule="evenodd" clip-rule="evenodd"
    d="M19.1992 0.700195C12.5833 0.700195 7.22005 6.06345 7.22005 12.6794V14.9996C7.22005 15.1388 7.23825 15.2737 7.27239 15.4021C4.28053 16.5015 1.94852 18.9152 0.959047 21.9604C0.449219 23.5295 0.449219 25.4684 0.449219 29.346C0.449219 33.2237 0.449219 35.1625 0.959047 36.7316C1.98944 39.9028 4.47573 42.3891 7.64696 43.4195C9.21604 43.9294 11.1549 43.9294 15.0325 43.9294H23.3659C27.2435 43.9294 29.1824 43.9294 30.7515 43.4195C33.9227 42.3891 36.409 39.9028 37.4394 36.7316C37.9492 35.1625 37.9492 33.2237 37.9492 29.346C37.9492 25.4684 37.9492 23.5295 37.4394 21.9604C36.4499 18.9152 34.1179 16.5015 31.126 15.4021C31.1602 15.2737 31.1784 15.1388 31.1784 14.9996V12.6794C31.1784 6.06345 25.8151 0.700195 19.1992 0.700195ZM23.3659 14.7627C25.3769 14.7627 26.8664 14.7627 28.0534 14.8338V12.6794C28.0534 7.78934 24.0892 3.8252 19.1992 3.8252C14.3092 3.8252 10.3451 7.78934 10.3451 12.6794V14.8338C11.532 14.7627 13.0215 14.7627 15.0326 14.7627H23.3659ZM13.4701 29.346C13.4701 26.1819 16.0351 23.6169 19.1992 23.6169C22.3633 23.6169 24.9284 26.1819 24.9284 29.346C24.9284 32.5102 22.3633 35.0752 19.1992 35.0752C16.0351 35.0752 13.4701 32.5102 13.4701 29.346Z"
    fill="currentColor" />
</svg>