<svg width="24" height="25" viewBox="0 0 24 25" fill="none" xmlns="http://www.w3.org/2000/svg">
<path fill-rule="evenodd" clip-rule="evenodd" d="M21 8.36572V17.8657C21 20.8657 19.5 22.8657 16 22.8657H8C4.5 22.8657 3 20.8657 3 17.8657V8.36572C3 5.36572 4.5 3.36572 8 3.36572H16C19.5 3.36572 21 5.36572 21 8.36572ZM7 9.86572C7 9.31344 7.44772 8.86572 8 8.86572H16C16.5523 8.86572 17 9.31344 17 9.86572C17 10.418 16.5523 10.8657 16 10.8657H8C7.44772 10.8657 7 10.418 7 9.86572ZM8 13.8657C7.44772 13.8657 7 14.3134 7 14.8657C7 15.418 7.44772 15.8657 8 15.8657H12C12.5523 15.8657 13 15.418 13 14.8657C13 14.3134 12.5523 13.8657 12 13.8657H8Z" fill="#484359"/>
</svg>
