<svg width="17" height="19" viewBox="0 0 17 19" fill="none" xmlns="http://www.w3.org/2000/svg">
  <path fill-rule="evenodd" clip-rule="evenodd"
    d="M14.9689 6.47691C14.9689 7.64058 15.2764 8.32647 15.9533 9.11687C16.4662 9.69917 16.6301 10.4466 16.6301 11.2576C16.6301 12.0676 16.364 12.8365 15.8308 13.4608C15.1328 14.2092 14.1484 14.687 13.1437 14.77C11.6879 14.8942 10.2311 14.9987 8.75496 14.9987C7.27791 14.9987 5.82204 14.9362 4.36617 14.77C3.3606 14.687 2.37621 14.2092 1.67913 13.4608C1.14595 12.8365 0.878906 12.0676 0.878906 11.2576C0.878906 10.4466 1.04374 9.69917 1.55573 9.11687C2.25374 8.32647 2.54105 7.64058 2.54105 6.47691V6.08218C2.54105 4.52377 2.92964 3.50475 3.72987 2.50718C4.91961 1.05236 6.82669 0.17984 8.71352 0.17984H8.7964C10.7237 0.17984 12.6925 1.09435 13.862 2.6117C14.6208 3.58873 14.9689 4.56483 14.9689 6.08218V6.47691ZM6.04296 16.9141C6.04296 16.4475 6.47115 16.2338 6.86712 16.1423C7.33031 16.0443 10.1527 16.0443 10.6159 16.1423C11.0119 16.2338 11.4401 16.4475 11.4401 16.9141C11.4171 17.3582 11.1565 17.752 10.7964 18.0021C10.3295 18.3661 9.78162 18.5966 9.20885 18.6796C8.89207 18.7207 8.58083 18.7216 8.2751 18.6796C7.70141 18.5966 7.15351 18.3661 6.68755 18.0012C6.32658 17.752 6.06598 17.3582 6.04296 16.9141Z"
    fill="currentColor" />
</svg>