<svg width="25" height="24" viewBox="0 0 25 24" fill="none"
  xmlns="http://www.w3.org/2000/svg">
  <path
    d="M9.0625 19.4651C9.0625 20.3529 9.41519 21.2044 10.043 21.8322C10.6708 22.46 11.5222 22.8126 12.4101 22.8126C13.2979 22.8126 14.1493 22.46 14.7771 21.8322C15.4049 21.2044 15.7576 20.3529 15.7576 19.4651"
    fill="currentColor" />
  <path
    d="M6.99871 4.93288C5.58619 6.3454 4.79264 8.26119 4.79264 10.2588C4.79264 12.4875 4.36344 14.9006 3.87056 16.7409C3.53713 17.9859 4.50262 19.4646 5.7915 19.4646H19.0249C20.3143 19.4646 21.2566 17.9953 20.8919 16.7586C20.3485 14.9163 19.8566 12.4951 19.8566 10.2588C19.8566 8.26119 19.0631 6.3454 17.6506 4.93288C16.238 3.52035 14.3222 2.72681 12.3246 2.72681C10.327 2.72681 8.41124 3.52035 6.99871 4.93288Z"
    fill="currentColor" />
</svg>