<svg width="24" height="25" viewBox="0 0 24 25" fill="none"
  xmlns="http://www.w3.org/2000/svg">
  <path
    d="M12.1601 11.1386C12.0601 11.1286 11.9401 11.1286 11.8301 11.1386C9.45006 11.0586 7.56006 9.10855 7.56006 6.70855C7.56006 4.25855 9.54006 2.26855 12.0001 2.26855C14.4501 2.26855 16.4401 4.25855 16.4401 6.70855C16.4301 9.10855 14.5401 11.0586 12.1601 11.1386Z"
    stroke="currentColor" stroke-width="1.5" stroke-linecap="round"
    stroke-linejoin="round" />
  <path
    d="M7.16021 14.8286C4.74021 16.4486 4.74021 19.0886 7.16021 20.6986C9.91021 22.5386 14.4202 22.5386 17.1702 20.6986C19.5902 19.0786 19.5902 16.4386 17.1702 14.8286C14.4302 12.9986 9.92021 12.9986 7.16021 14.8286Z"
    stroke="currentColor" stroke-width="1.5" stroke-linecap="round"
    stroke-linejoin="round" />
</svg>