<svg width="32" height="31" viewBox="0 0 32 31" fill="none"
  xmlns="http://www.w3.org/2000/svg">
  <rect x="0.921875" y="0.0961914" width="30.4615" height="30.4615" rx="8"
    fill="currentColor" />
  <path
    d="M15.439 26.0501L12.8508 23.9125C11.9513 23.1696 11.6268 21.9352 12.0448 20.846C12.2481 20.3163 11.7503 19.7857 11.2087 19.9548L9.36488 20.5306C8.87177 20.6846 8.33733 20.4811 8.07159 20.0381L5.88766 16.3972C5.26916 15.3661 5.09148 14.1295 5.39462 12.966L6.27787 9.57584C6.63922 8.18888 7.64286 7.05882 8.97744 6.53621L13.798 4.64852C14.3181 4.44486 14.8717 4.34033 15.4303 4.34033H16.1516H16.8737C17.4322 4.34033 17.9858 4.44486 18.5059 4.64852L23.3265 6.53621C24.661 7.05882 25.6647 8.18888 26.026 9.57584L26.9093 12.966C27.2124 14.1295 27.0347 15.3661 26.4162 16.3972L24.2323 20.0381C23.9666 20.4811 23.4321 20.6846 22.939 20.5306L21.0952 19.9548C20.5536 19.7857 20.0558 20.3162 20.2591 20.846C20.6771 21.9352 20.3526 23.1696 19.453 23.9125L16.8642 26.0501C16.4505 26.3917 15.8527 26.3917 15.439 26.0501Z"
    fill="white" />
  <path
    d="M17.6913 15.7201L22.3465 13.5918C22.9291 14.1358 22.8731 15.0756 22.2299 15.5464L21.1191 16.3596C20.2944 16.9632 19.1656 16.9316 18.376 16.2828L17.6913 15.7201Z"
    fill="currentColor" />
  <path
    d="M14.2852 15.7201L9.63009 13.5918C9.04743 14.1358 9.1035 15.0756 9.74669 15.5464L10.8575 16.3596C11.6822 16.9632 12.811 16.9316 13.6006 16.2828L14.2852 15.7201Z"
    fill="currentColor" />
</svg>