<svg xmlns="http://www.w3.org/2000/svg" width="12" height="13" viewBox="0 0 12 13" fill="none">
<path d="M5.63541 12.1402L4.26631 11.0095C3.79384 10.6193 3.62341 9.97088 3.84296 9.39879C3.94974 9.12052 3.68828 8.84184 3.40378 8.93069L2.42398 9.23667C2.17163 9.31548 1.89813 9.21131 1.76214 8.9846L0.595855 7.04027C0.279338 6.5126 0.188406 5.87978 0.343539 5.28434L0.821635 3.44928C1.00656 2.73951 1.52017 2.1612 2.20314 1.89375L4.77448 0.886842C5.04063 0.782619 5.32394 0.729126 5.60977 0.729126H6.00007H6.39074C6.67657 0.729126 6.95988 0.782619 7.22604 0.886842L9.79737 1.89375C10.4803 2.1612 10.994 2.73951 11.1789 3.44928L11.657 5.28434C11.8121 5.87978 11.7212 6.5126 11.4047 7.04027L10.2384 8.9846C10.1024 9.21131 9.82888 9.31548 9.57653 9.23667L8.5967 8.93068C8.31222 8.84183 8.05077 9.12051 8.15754 9.39875C8.37709 9.97086 8.20664 10.6193 7.73413 11.0094L6.36475 12.1402C6.15305 12.315 5.84709 12.315 5.63541 12.1402Z" fill="currentColor"/>
<path d="M6.80719 6.70495L9.25232 5.58704C9.55836 5.87275 9.52891 6.36641 9.19107 6.61371L8.58869 7.05467C8.16667 7.36359 7.58899 7.34742 7.18492 7.01536L6.80719 6.70495Z" fill="#0C0B0F"/>
<path d="M5.02093 6.70495L2.57581 5.58704C2.26977 5.87275 2.29921 6.36641 2.63705 6.61371L3.23943 7.05467C3.66145 7.36359 4.23914 7.34742 4.64321 7.01536L5.02093 6.70495Z" fill="#0C0B0F"/>
</svg>