<svg width="25" height="24" viewBox="0 0 25 24" fill="none" xmlns="http://www.w3.org/2000/svg">
<path d="M18.3173 8.51062L9.75733 4.23062C4.00733 1.35062 1.64733 3.71062 4.52733 9.46062L5.39733 11.2006C5.64733 11.7106 5.64733 12.3006 5.39733 12.8106L4.52733 14.5406C1.64733 20.2906 3.99733 22.6506 9.75733 19.7706L18.3173 15.4906C22.1573 13.5706 22.1573 10.4306 18.3173 8.51062ZM15.0873 12.7506H9.68733C9.27733 12.7506 8.93733 12.4106 8.93733 12.0006C8.93733 11.5906 9.27733 11.2506 9.68733 11.2506H15.0873C15.4973 11.2506 15.8373 11.5906 15.8373 12.0006C15.8373 12.4106 15.4973 12.7506 15.0873 12.7506Z" fill="currentColor"/>
</svg>
