<svg width="16" height="17" viewBox="0 0 16 17" fill="none" xmlns="http://www.w3.org/2000/svg">
<path d="M12.6228 4.11329L9.17615 2.11996C8.51615 1.73996 7.48281 1.73996 6.82281 2.11996L3.34281 4.12663C1.96281 5.05996 1.88281 5.19996 1.88281 6.68663V10.3066C1.88281 11.7933 1.96281 11.94 3.36948 12.8866L6.81615 14.88C7.14948 15.0733 7.57615 15.1666 7.99615 15.1666C8.41615 15.1666 8.84281 15.0733 9.16948 14.88L12.6495 12.8733C14.0295 11.94 14.1095 11.8 14.1095 10.3133V6.68663C14.1095 5.19996 14.0295 5.05996 12.6228 4.11329ZM7.99615 10.6666C6.80281 10.6666 5.82948 9.69329 5.82948 8.49996C5.82948 7.30663 6.80281 6.33329 7.99615 6.33329C9.18948 6.33329 10.1628 7.30663 10.1628 8.49996C10.1628 9.69329 9.18948 10.6666 7.99615 10.6666Z" fill="currentColor"/>
</svg>
