<svg width="15" height="15" viewBox="0 0 15 15" fill="none"
  xmlns="http://www.w3.org/2000/svg">
  <path fill-rule="evenodd" clip-rule="evenodd"
    d="M10.8854 10.8986C10.7326 11.0338 10.4848 11.0338 10.332 10.8986L7.99999 8.83569L5.66798 10.8986C5.5152 11.0338 5.26746 11.0338 5.11459 10.8986C4.9618 10.7634 4.9618 10.5443 5.11459 10.4091L7.72329 8.10139C7.79669 8.03647 7.89621 8 7.99999 8C8.10377 8 8.2033 8.03647 8.27669 8.10139L10.8854 10.4091C11.0382 10.5443 11.0382 10.7634 10.8854 10.8986Z"
    fill="currentColor" />
  <path fill-rule="evenodd" clip-rule="evenodd"
    d="M5.11461 3.10138C5.26743 2.96621 5.51519 2.96621 5.66801 3.10138L8.00001 5.16432L10.332 3.10138C10.4848 2.96621 10.7325 2.96621 10.8854 3.10138C11.0382 3.23657 11.0382 3.45574 10.8854 3.59092L8.2767 5.89862C8.20331 5.96353 8.10379 6 8.00001 6C7.89623 6 7.79669 5.96353 7.72331 5.89862L5.11461 3.59092C4.9618 3.45574 4.9618 3.23657 5.11461 3.10138Z"
    fill="currentColor" />
</svg>