<svg width="25" height="25" viewBox="0 0 25 25" fill="none" xmlns="http://www.w3.org/2000/svg">
<g clip-path="url(#clip0_9798_31901)">
<path d="M11.9507 13.7529C11.9507 13.4575 12.0089 13.1649 12.122 12.8919C12.235 12.6189 12.4008 12.3709 12.6097 12.1619C12.8186 11.953 13.0667 11.7873 13.3396 11.6742C13.6126 11.5611 13.9052 11.5029 14.2007 11.5029C14.4962 11.5029 14.7887 11.5611 15.0617 11.6742C15.3347 11.7873 15.5827 11.953 15.7917 12.1619C16.0006 12.3709 16.1663 12.6189 16.2794 12.8919C16.3925 13.1649 16.4507 13.4575 16.4507 13.7529C16.4507 14.3497 16.2136 14.922 15.7917 15.3439C15.3697 15.7659 14.7974 16.0029 14.2007 16.0029C13.6039 16.0029 13.0317 15.7659 12.6097 15.3439C12.1877 14.922 11.9507 14.3497 11.9507 13.7529Z" fill="#625C77"/>
<path fill-rule="evenodd" clip-rule="evenodd" d="M3.66468 5.21693C2.20068 6.68293 2.20068 9.03893 2.20068 13.7529C2.20068 18.4669 2.20068 20.8239 3.66468 22.2879C5.13068 23.7529 7.48668 23.7529 12.2007 23.7529C16.9147 23.7529 19.2717 23.7529 20.7357 22.2879C22.2007 20.8249 22.2007 18.4669 22.2007 13.7529C22.2007 9.03893 22.2007 6.68193 20.7357 5.21693C19.2727 3.75293 16.9147 3.75293 12.2007 3.75293C7.48668 3.75293 5.12968 3.75293 3.66468 5.21693ZM6.95068 8.75293C6.95068 8.55402 6.87167 8.36325 6.73101 8.2226C6.59036 8.08195 6.3996 8.00293 6.20068 8.00293C6.00177 8.00293 5.81101 8.08195 5.67035 8.2226C5.5297 8.36325 5.45068 8.55402 5.45068 8.75293V18.7529C5.45068 18.9518 5.5297 19.1426 5.67035 19.2833C5.81101 19.4239 6.00177 19.5029 6.20068 19.5029C6.3996 19.5029 6.59036 19.4239 6.73101 19.2833C6.87167 19.1426 6.95068 18.9518 6.95068 18.7529V8.75293ZM10.7307 9.22293C10.662 9.14924 10.5792 9.09014 10.4872 9.04915C10.3952 9.00816 10.2959 8.98611 10.1952 8.98434C10.0945 8.98256 9.99447 9.00109 9.90109 9.03881C9.8077 9.07653 9.72286 9.13267 9.65165 9.20389C9.58043 9.27511 9.52428 9.35994 9.48656 9.45333C9.44884 9.54672 9.43032 9.64675 9.43209 9.74745C9.43387 9.84816 9.45591 9.94747 9.4969 10.0395C9.53789 10.1315 9.597 10.2143 9.67068 10.2829L11.0717 11.6849C10.6655 12.298 10.4495 13.0175 10.4507 13.7529C10.4507 14.5169 10.6797 15.2279 11.0717 15.8209L9.67068 17.2229C9.597 17.2916 9.53789 17.3744 9.4969 17.4664C9.45591 17.5584 9.43387 17.6577 9.43209 17.7584C9.43032 17.8591 9.44884 17.9591 9.48656 18.0525C9.52428 18.1459 9.58043 18.2307 9.65165 18.302C9.72286 18.3732 9.8077 18.4293 9.90109 18.4671C9.99447 18.5048 10.0945 18.5233 10.1952 18.5215C10.2959 18.5197 10.3952 18.4977 10.4872 18.4567C10.5792 18.4157 10.662 18.3566 10.7307 18.2829L12.1327 16.8819C12.7458 17.2881 13.4652 17.5042 14.2007 17.5029C14.9647 17.5029 15.6757 17.2739 16.2687 16.8819L17.6707 18.2829C17.7393 18.3566 17.8221 18.4157 17.9141 18.4567C18.0061 18.4977 18.1055 18.5197 18.2062 18.5215C18.3069 18.5233 18.4069 18.5048 18.5003 18.4671C18.5937 18.4293 18.6785 18.3732 18.7497 18.302C18.8209 18.2307 18.8771 18.1459 18.9148 18.0525C18.9525 17.9591 18.9711 17.8591 18.9693 17.7584C18.9675 17.6577 18.9455 17.5584 18.9045 17.4664C18.8635 17.3744 18.8044 17.2916 18.7307 17.2229L17.3297 15.8209C17.7359 15.2078 17.9519 14.4884 17.9507 13.7529C17.9507 12.9889 17.7217 12.2779 17.3297 11.6849L18.7307 10.2829C18.8632 10.1408 18.9353 9.95271 18.9319 9.75841C18.9284 9.56411 18.8497 9.37872 18.7123 9.24131C18.5749 9.10389 18.3895 9.02518 18.1952 9.02175C18.0009 9.01833 17.8129 9.09045 17.6707 9.22293L16.2687 10.6229C15.6555 10.217 14.936 10.0013 14.2007 10.0029C13.4367 10.0029 12.7257 10.2319 12.1327 10.6239L10.7307 9.22293Z" fill="#625C77"/>
</g>
<defs>
<clipPath id="clip0_9798_31901">
<rect width="24" height="24" fill="white" transform="translate(0.200684 0.75293)"/>
</clipPath>
</defs>
</svg>
