<svg width="16" height="17" viewBox="0 0 16 17" fill="none"
  xmlns="http://www.w3.org/2000/svg">
  <circle cx="7.999" cy="8.50046" r="1.81345" fill="currentColor" />
  <path
    d="M14.348 3.20003C14.5674 3.41948 14.5295 3.78508 14.2698 3.955L11.2412 5.93672C10.7978 6.22686 10.2741 5.70312 10.5642 5.2597L12.5459 2.23107C12.7158 1.97139 13.0814 1.93349 13.3009 2.15294C13.4718 2.32389 13.6656 2.51768 13.8244 2.67649C13.9832 2.83529 14.177 3.02908 14.348 3.20003Z"
    fill="currentColor" />
  <path
    d="M2.69955 14.8475C2.91899 15.0669 3.28459 15.029 3.45451 14.7694L5.43623 11.7407C5.72637 11.2973 5.20263 10.7736 4.75921 11.0637L1.73058 13.0454C1.4709 13.2153 1.43301 13.581 1.65245 13.8004C1.8234 13.9714 2.01719 14.1651 2.176 14.3239C2.33481 14.4828 2.52859 14.6765 2.69955 14.8475Z"
    fill="currentColor" />
  <path
    d="M1.65202 3.20003C1.43257 3.41948 1.47047 3.78508 1.73015 3.955L4.75878 5.93672C5.2022 6.22686 5.72594 5.70312 5.4358 5.2597L3.45408 2.23107C3.28416 1.97139 2.91856 1.93349 2.69911 2.15294C2.52816 2.32389 2.33437 2.51768 2.17557 2.67649C2.01676 2.83529 1.82297 3.02908 1.65202 3.20003Z"
    fill="currentColor" />
  <path
    d="M13.3005 14.8475C13.081 15.0669 12.7154 15.029 12.5455 14.7694L10.5638 11.7407C10.2736 11.2973 10.7974 10.7736 11.2408 11.0637L14.2694 13.0454C14.5291 13.2153 14.567 13.581 14.3476 13.8004C14.1766 13.9714 13.9828 14.1651 13.824 14.3239C13.6652 14.4828 13.4714 14.6765 13.3005 14.8475Z"
    fill="currentColor" />
</svg>