<svg width="15" height="18" viewBox="0 0 15 18" fill="none" xmlns="http://www.w3.org/2000/svg">
    <g id="Lock">
        <path id="Lock_2" fill-rule="evenodd" clip-rule="evenodd"
            d="M12.1114 5.16366V6.44145C13.5467 6.88946 14.5924 8.18877 14.5924 9.74066V13.8547C14.5924 15.776 12.9997 17.3337 11.036 17.3337H3.98311C2.01858 17.3337 0.425781 15.776 0.425781 13.8547V9.74066C0.425781 8.18877 1.4724 6.88946 2.90685 6.44145V5.16366C2.91532 2.67931 4.973 0.666992 7.49641 0.666992C10.0537 0.666992 12.1114 2.67931 12.1114 5.16366ZM7.51395 2.11621C9.23292 2.11621 10.6301 3.4826 10.6301 5.16368V6.26176H4.38932V5.14712C4.39779 3.47432 5.79498 2.11621 7.51395 2.11621ZM8.2501 12.7129C8.2501 13.1186 7.91985 13.4416 7.50493 13.4416C7.09847 13.4416 6.76823 13.1186 6.76823 12.7129V10.8744C6.76823 10.4769 7.09847 10.154 7.50493 10.154C7.91985 10.154 8.2501 10.4769 8.2501 10.8744V12.7129Z"
            fill="currentColor" />
    </g>
</svg>