<svg width="16" height="17" viewBox="0 0 16 17" fill="none" xmlns="http://www.w3.org/2000/svg">
<g clip-path="url(#clip0_2235_608040)">
<path d="M11.745 4.57567L12.7137 3.60701L13.6564 4.54967L12.6877 5.51834C13.6449 6.71645 14.107 8.23559 13.9791 9.76376C13.8512 11.2919 13.143 12.7131 12 13.7355C10.857 14.7578 9.36596 15.3037 7.83304 15.2611C6.30012 15.2184 4.84172 14.5904 3.75736 13.506C2.673 12.4217 2.045 10.9633 2.00233 9.43035C1.95965 7.89743 2.50555 6.40635 3.5279 5.26335C4.55025 4.12034 5.97145 3.41217 7.49963 3.28428C9.0278 3.1564 10.5469 3.61849 11.745 4.57567ZM7.33305 5.93034V9.93034H8.66638V5.93034H7.33305ZM5.33305 1.26367H10.6664V2.59701H5.33305V1.26367Z" fill="currentColor"/>
</g>
<defs>
<clipPath id="clip0_2235_608040">
<rect width="16" height="16" fill="white" transform="translate(0 0.59668)"/>
</clipPath>
</defs>
</svg>
