<svg width="16" height="17" viewBox="0 0 16 17" fill="none" xmlns="http://www.w3.org/2000/svg">
<path d="M10.7959 1.8335H5.20927C2.7826 1.8335 1.33594 3.28016 1.33594 5.70683V11.2868C1.33594 13.7202 2.7826 15.1668 5.20927 15.1668H10.7893C13.2159 15.1668 14.6626 13.7202 14.6626 11.2935V5.70683C14.6693 3.28016 13.2226 1.8335 10.7959 1.8335ZM11.9026 9.90016C11.8759 9.96016 11.8426 10.0135 11.7959 10.0602L9.76927 12.0868C9.66927 12.1868 9.5426 12.2335 9.41594 12.2335C9.28927 12.2335 9.1626 12.1868 9.0626 12.0868C8.86927 11.8935 8.86927 11.5735 9.0626 11.3802L10.2359 10.2068H4.56927C4.29594 10.2068 4.06927 9.98016 4.06927 9.70683C4.06927 9.4335 4.29594 9.20683 4.56927 9.20683H11.4426C11.5093 9.20683 11.5693 9.22016 11.6359 9.24683C11.7559 9.30016 11.8559 9.3935 11.9093 9.52016C11.9493 9.64016 11.9493 9.78016 11.9026 9.90016ZM11.4359 7.78683H4.56927C4.5026 7.78683 4.4426 7.7735 4.37594 7.74683C4.25594 7.6935 4.15594 7.60016 4.1026 7.4735C4.04927 7.3535 4.04927 7.2135 4.1026 7.0935C4.12927 7.0335 4.1626 6.98016 4.20927 6.9335L6.23594 4.90683C6.42927 4.7135 6.74927 4.7135 6.9426 4.90683C7.13594 5.10016 7.13594 5.42016 6.9426 5.6135L5.77594 6.78683H11.4426C11.7159 6.78683 11.9426 7.0135 11.9426 7.28683C11.9426 7.56016 11.7159 7.78683 11.4359 7.78683Z" fill="currentColor"/>
</svg>
