<svg width="16" height="17" viewBox="0 0 16 17" fill="none"
  xmlns="http://www.w3.org/2000/svg">
  <path fill-rule="evenodd" clip-rule="evenodd"
    d="M2.66003 10.1344C2.21426 10.8722 3.00449 11.8106 3.82622 11.5501C5.14329 11.1326 6.72851 10.7362 7.99969 10.7362C9.27087 10.7362 10.8561 11.1326 12.1732 11.5501C12.9949 11.8106 13.7851 10.8722 13.3393 10.1344L9.02029 2.9857C8.55645 2.21798 7.44292 2.21798 6.97909 2.98571L2.66003 10.1344ZM5.74425 14.5789C5.0133 14.6966 4.48321 13.9075 5.05674 13.4393C5.90155 12.7497 6.91286 12.2651 7.99968 12.2651C9.08649 12.2651 10.0978 12.7497 10.9426 13.4393C11.5161 13.9075 10.986 14.6966 10.2551 14.5789C9.52073 14.4606 8.76738 14.3992 7.99968 14.3992C7.23196 14.3992 6.4786 14.4606 5.74425 14.5789Z"
    fill="currentColor" />
</svg>