<svg width="16" height="16" viewBox="0 0 16 16" fill="none"
  xmlns="http://www.w3.org/2000/svg">
  <path
    d="M8.0026 1.8335C6.25594 1.8335 4.83594 3.2535 4.83594 5.00016C4.83594 6.7135 6.17594 8.10016 7.9226 8.16016C7.97594 8.1535 8.02927 8.1535 8.06927 8.16016C8.0826 8.16016 8.08927 8.16016 8.1026 8.16016C8.10927 8.16016 8.10927 8.16016 8.11594 8.16016C9.8226 8.10016 11.1626 6.7135 11.1693 5.00016C11.1693 3.2535 9.74927 1.8335 8.0026 1.8335Z"
    fill="currentColor" />
  <path
    d="M11.3847 9.93342C9.52469 8.69342 6.49135 8.69342 4.61802 9.93342C3.77135 10.5001 3.30469 11.2668 3.30469 12.0868C3.30469 12.9068 3.77135 13.6668 4.61135 14.2268C5.54469 14.8534 6.77135 15.1668 7.99802 15.1668C9.22469 15.1668 10.4514 14.8534 11.3847 14.2268C12.2247 13.6601 12.6914 12.9001 12.6914 12.0734C12.6847 11.2534 12.2247 10.4934 11.3847 9.93342Z"
    fill="currentColor" />
</svg>