<svg width="24" height="25" viewBox="0 0 24 25" fill="none"
  xmlns="http://www.w3.org/2000/svg">
  <path
    d="M10.7516 17.1289V19.1589C10.7516 20.8789 9.15158 22.2689 7.18158 22.2689C5.21158 22.2689 3.60156 20.8789 3.60156 19.1589V17.1289C3.60156 18.8489 5.20158 20.0689 7.18158 20.0689C9.15158 20.0689 10.7516 18.8389 10.7516 17.1289Z"
    stroke="currentColor" stroke-width="1.5" stroke-linecap="round"
    stroke-linejoin="round" />
  <path
    d="M10.7498 14.3785C10.7498 14.8785 10.6098 15.3385 10.3698 15.7385C9.77981 16.7085 8.5698 17.3185 7.1698 17.3185C5.7698 17.3185 4.55979 16.6985 3.96979 15.7385C3.72979 15.3385 3.58984 14.8785 3.58984 14.3785C3.58984 13.5185 3.98982 12.7485 4.62982 12.1885C5.27982 11.6185 6.16979 11.2786 7.15979 11.2786C8.14979 11.2786 9.03982 11.6285 9.68982 12.1885C10.3498 12.7385 10.7498 13.5185 10.7498 14.3785Z"
    stroke="currentColor" stroke-width="1.5" stroke-linecap="round"
    stroke-linejoin="round" />
  <path
    d="M10.7516 14.3785V17.1285C10.7516 18.8485 9.15158 20.0685 7.18158 20.0685C5.21158 20.0685 3.60156 18.8385 3.60156 17.1285V14.3785C3.60156 12.6585 5.20158 11.2686 7.18158 11.2686C8.17158 11.2686 9.06161 11.6185 9.71161 12.1785C10.3516 12.7385 10.7516 13.5185 10.7516 14.3785Z"
    stroke="currentColor" stroke-width="1.5" stroke-linecap="round"
    stroke-linejoin="round" />
  <path
    d="M22.0002 11.2385V13.2985C22.0002 13.8485 21.5602 14.2985 21.0002 14.3185H19.0402C17.9602 14.3185 16.9702 13.5285 16.8802 12.4485C16.8202 11.8185 17.0602 11.2285 17.4802 10.8185C17.8502 10.4385 18.3602 10.2185 18.9202 10.2185H21.0002C21.5602 10.2385 22.0002 10.6885 22.0002 11.2385Z"
    stroke="currentColor" stroke-width="1.5" stroke-linecap="round"
    stroke-linejoin="round" />
  <path
    d="M2 10.7686V8.76855C2 6.04855 3.64 4.14855 6.19 3.82855C6.45 3.78855 6.72 3.76855 7 3.76855H16C16.26 3.76855 16.51 3.77854 16.75 3.81854C19.33 4.11854 21 6.02855 21 8.76855V10.2186H18.92C18.36 10.2186 17.85 10.4385 17.48 10.8185C17.06 11.2285 16.82 11.8185 16.88 12.4485C16.97 13.5285 17.96 14.3185 19.04 14.3185H21V15.7686C21 18.7686 19 20.7686 16 20.7686H13.5"
    stroke="currentColor" stroke-width="1.5" stroke-linecap="round"
    stroke-linejoin="round" />
</svg>