<svg xmlns="http://www.w3.org/2000/svg" fill="none" viewBox="0 0 1303 1481">
  <g clip-path="url(#a)">
    <path fill="currentColor" fill-rule="evenodd" d="M733.1 108.2a84.6 84.6 0 1 0-162.9-.1L149 338A84.6 84.6 0 1 0 66 475.9v498.8a84.6 84.6 0 1 0 75.5 145.3L571 1371a84.5 84.5 0 1 0 161.5 0l429.4-251a84.6 84.6 0 1 0 75.5-145.3V475.9a84.6 84.6 0 1 0-82.9-137.8l-421.3-230Zm-143 1230.2c11.2-12 26-20.7 42.6-24.5V1110c-125.7-6-235.8-71-303-168l-162.2 96a84.9 84.9 0 0 1-4 50.9L590 1338.4ZM322.2 513l-157-92.9a84.5 84.5 0 0 0 1.4-48.6l421.7-230.3a84.5 84.5 0 0 0 44.3 26.4V334a390.6 390.6 0 0 0-310.4 179Zm658.5.1A390.6 390.6 0 0 0 670.5 334V167.7c17.5-4 33-13.4 44.5-26.4l421.7 230.2a84.7 84.7 0 0 0 1.4 48.6l-157.3 93ZM993.3 910a385.4 385.4 0 0 0 48.7-188c0-63.3-15.3-123.1-42.3-176l158-93.5a84.5 84.5 0 0 0 41.8 23.5v498.8a84.6 84.6 0 0 0-47 29.4l-159.2-94.2Zm-322.8 200.2a390.5 390.5 0 0 0 302.9-168l162.5 96a85.3 85.3 0 0 0 4 50.9l-426.6 249.3a84.4 84.4 0 0 0-42.8-24.5v-203.7Zm-367-564.4A385.4 385.4 0 0 0 261 722c0 68.2 17.7 132.4 48.8 188l-158.9 94a84.6 84.6 0 0 0-47-29.3V475.9a84.5 84.5 0 0 0 41.8-23.5l157.7 93.3Zm418.9 192.7a55.5 55.5 0 0 1 55.5-55.5h66.5v111H778a55.5 55.5 0 0 1-55.5-55.5ZM437 604.4c0-43 34.8-77.9 77.8-77.9h273.9c43 0 77.7 34.9 77.7 77.8V662h-90.6a76.5 76.5 0 0 0 0 153h90.6v61.8c0 43-34.8 77.8-77.7 77.8h-274c-42.9 0-77.7-34.9-77.7-77.8V604.3Z" clip-rule="evenodd"/>
  </g>
  <defs>
    <clipPath id="a">
      <path fill="#fff" d="M0 0h1303v1481H0z"/>
    </clipPath>
  </defs>
</svg>