<svg xmlns="http://www.w3.org/currentColor/svg" fill="none" viewBox="0 0 25 25">
  <path fill="currentColor" fill-rule="evenodd"
    d="M8.675 5.824 5.4 12.948c-.312.678-.468 1.017-.414 1.275a.8.8 0 0 0 .387.532c.229.13.6.086 1.34-.001l.607-.072-.437 2.852a.5.5 0 0 1-.494.424H3.034a.5.5 0 0 1-.495-.575L4.364 5.477h-.085L1.557 7.152a.5.5 0 0 1-.756-.501l.251-1.633a.5.5 0 0 1 .23-.348l3.743-2.326h4.183l-.533 3.48Z"
    clip-rule="evenodd" />
  <path fill="currentColor" fill-rule="evenodd"
    d="M12.595.45 6.826 12.335c-.193.398-.29.598-.263.756a.5.5 0 0 0 .221.335c.135.087.356.077.798.057l3.519-.16c.165-.007.248-.011.3.021a.2.2 0 0 1 .09.127c.014.06-.017.138-.079.291L8.35 21.37c-.585 1.454-.877 2.18-.772 2.384a.5.5 0 0 0 .469.27c.228-.01.71-.628 1.676-1.863l8.293-10.61.397-2.692h-3.67c-.186 0-.28 0-.332-.039a.2.2 0 0 1-.08-.143c-.007-.065.042-.145.138-.304l.805-1.325a.496.496 0 0 1-.018-.26l.39-2.014a1 1 0 0 1 .45-.657l1.546-.97 1.174-1.932c.24-.397.361-.596.347-.76a.5.5 0 0 0-.202-.358C18.83 0 18.597 0 18.131 0h-4.816c-.182 0-.272 0-.352.028a.5.5 0 0 0-.188.118c-.06.06-.1.141-.18.305Z"
    clip-rule="evenodd" />
  <path fill="currentColor"
    d="M24.194 2.344a.5.5 0 0 1 .494.575l-2.237 14.615a.5.5 0 0 1-.495.424h-3.354a.5.5 0 0 1-.494-.575l1.824-11.906h-.084l-2.723 1.675a.5.5 0 0 1-.756-.501l.216-1.405a1 1 0 0 1 .46-.698l3.548-2.204h3.601Z" />
</svg>