<svg width="32" height="32" viewBox="0 0 32 32" fill="none"
  xmlns="http://www.w3.org/2000/svg">
  <path
    d="M13.9842 3.36629C13.8793 2.86443 14.2621 2.39307 14.7748 2.39307H17.2213C17.734 2.39307 18.1168 2.86443 18.0119 3.36629L17.4367 6.11947C17.4364 6.11943 17.4369 6.1195 17.4367 6.11947L16.9263 8.56551C16.926 8.56548 16.9265 8.56554 16.9263 8.56551L16.7889 9.2193C16.6099 10.0763 15.3862 10.0763 15.2072 9.2193L13.9842 3.36629Z"
    fill="currentColor" />
  <path
    d="M13.8796 18.1179C15.0496 19.2879 16.9465 19.2879 18.1165 18.1179C19.2865 16.9479 19.2865 15.051 18.1165 13.881C16.9465 12.711 15.0496 12.711 13.8796 13.881C12.7096 15.051 12.7096 16.9479 13.8796 18.1179Z"
    fill="currentColor" />
  <path
    d="M28.6342 18.015C29.1361 18.1199 29.6074 17.737 29.6074 17.2243V14.7779C29.6074 14.2652 29.1361 13.8824 28.6342 13.9872L22.7812 15.2102C21.9242 15.3893 21.9242 16.6129 22.7812 16.792L28.6342 18.015Z"
    fill="currentColor" />
  <path
    d="M2.39258 17.2232C2.39258 17.7359 2.86394 18.1187 3.3658 18.0139L6.1205 17.4383C6.1205 17.4383 6.1205 17.4383 6.1205 17.4383L8.56641 16.9272C8.56641 16.9272 8.56641 16.9272 8.56641 16.9272L9.21881 16.7909C10.0758 16.6118 10.0758 15.3882 9.21881 15.2091L3.3658 13.9861C2.86394 13.8813 2.39258 14.2641 2.39258 14.7768V17.2232Z"
    fill="currentColor" />
  <path
    d="M14.7768 29.607C14.2641 29.607 13.8813 29.1357 13.9861 28.6338L15.2091 22.7808C15.3882 21.9238 16.6118 21.9238 16.7909 22.7808L16.9272 23.4333C16.927 23.4333 16.9275 23.4332 16.9272 23.4333L17.439 25.8791C17.4388 25.8791 17.4392 25.879 17.439 25.8791L18.0139 28.6338C18.1187 29.1357 17.7359 29.607 17.2232 29.607H14.7768Z"
    fill="currentColor" />
  <path
    d="M12.6183 6.60429L13.1348 9.07638C11.3015 9.83599 9.83534 11.3026 9.07625 13.1361L6.60426 12.6196C7.60932 9.82596 9.82491 7.60994 12.6183 6.60429Z"
    fill="currentColor" />
  <path
    d="M9.07668 18.8638L6.60464 19.3803C7.61013 22.1742 9.82635 24.3902 12.6203 25.3953L13.1369 22.9233C11.303 22.1641 9.83618 20.6975 9.07668 18.8638Z"
    fill="currentColor" />
  <path
    d="M25.3953 19.3814C24.3897 22.1744 22.1741 24.3897 19.381 25.3949L18.8645 22.9229C20.6975 22.1637 22.1637 20.6978 22.9231 18.8649L25.3953 19.3814Z"
    fill="currentColor" />
  <path
    d="M18.8629 9.07534C20.6977 9.83478 22.1651 11.3023 22.9244 13.1371L25.3964 12.6206C24.3912 9.82564 22.1744 7.60871 19.3794 6.60337L18.8629 9.07534Z"
    fill="currentColor" />
</svg>