<svg width="345" height="292" viewBox="0 0 345 292" fill="none" xmlns="http://www.w3.org/2000/svg">
<path fill-rule="evenodd" clip-rule="evenodd" d="M115.611 256.782L5.33897 148.521L0.712037 182.957L110.954 291.442L115.611 256.782ZM51.9748 147.97L41.021 159.01L52.0611 169.964L142.102 259.302L153.142 270.255L164.096 259.215L243.052 179.637L318.839 247.167L344.874 270.365L344.737 235.494L344.128 80.1476L343.991 45.277L318.139 68.6787L242.885 136.8L163.306 57.8426L152.266 46.8888L141.313 57.9288L51.9748 147.97ZM219.792 157.704L152.439 90.8765L85.0087 158.838L152.97 226.268L219.796 158.915L219.119 158.312L219.792 157.704ZM313.161 115.14L313.497 200.746L265.67 158.13L313.161 115.14ZM153.367 0.746979L244.145 87.7453L244.262 117.633L153.484 30.4419L153.367 0.746979Z" fill="url(#paint0_radial_11703_40530)"/>
<defs>
<radialGradient id="paint0_radial_11703_40530" cx="0" cy="0" r="1" gradientUnits="userSpaceOnUse" gradientTransform="translate(190.18 157.241) rotate(100.557) scale(173.864 209.44)">
<stop stop-color="#6CD3FF" stop-opacity="0.11"/>
<stop offset="1" stop-color="#23212B" stop-opacity="0.05"/>
</radialGradient>
</defs>
</svg>
