<svg width="434" height="270" viewBox="0 0 434 270" fill="none" xmlns="http://www.w3.org/2000/svg">
  <path fill-rule="evenodd" clip-rule="evenodd"
    d="M371.702 10.5336L361.256 0.000246048L350.81 10.5336L298.946 62.8293L288.672 73.1893L298.946 83.5492L350.81 135.845L361.256 146.378L371.702 135.845L423.566 83.5492L433.84 73.1893L423.566 62.8293L371.702 10.5336ZM361.256 104.592L330.113 73.1893L361.256 41.7869L392.399 73.1893L361.256 104.592ZM312.024 233.044L414.463 129.613L414.463 165.607L312.024 269.271V233.044ZM235.006 51.9589L337.414 155.42L329.427 199.7L227.07 95.9537L235.006 51.9589ZM62.1379 10.5336L72.5842 0.000247955L83.0305 10.5336L134.894 62.8293L145.168 73.1893L134.894 83.5492L83.0305 135.845L72.5842 146.378L62.1379 135.845L10.2744 83.5492L5.34058e-05 73.1893L10.2744 62.8293L62.1379 10.5336ZM72.5842 104.592L103.727 73.1893L72.5842 41.7869L41.4413 73.1893L72.5842 104.592ZM19.377 129.613L121.815 233.044L121.815 269.271L19.377 165.607L19.377 129.613ZM96.4253 155.414L198.837 51.9566L205.82 94.991L103.454 198.728L96.4253 155.414Z"
    fill="url(#paint0_radial_10298_87372)" />
  <defs>
    <radialGradient id="paint0_radial_10298_87372" cx="0" cy="0" r="1" gradientUnits="userSpaceOnUse"
      gradientTransform="translate(216.92 134.635) rotate(157.142) scale(189.566 120.515)">
      <stop stop-color="#6CD3FF" stop-opacity="0.11" />
      <stop offset="1" stop-color="#23212B" stop-opacity="0.05" />
    </radialGradient>
  </defs>
</svg>