<svg width="32" height="32" viewBox="0 0 32 32" fill="none"
  xmlns="http://www.w3.org/2000/svg">
  <path fill-rule="evenodd" clip-rule="evenodd"
    d="M12.3744 17.4441C12.096 17.2824 11.7534 17.2512 11.473 17.4094C8.76682 18.9357 6.93945 21.8373 6.93945 25.1657C6.93945 25.7725 7.45907 26.227 8.06586 26.227H23.6104C24.2171 26.227 24.7368 25.7725 24.7368 25.1657C24.7368 21.9479 23.0289 19.1291 20.4702 17.5661C20.1954 17.3983 19.852 17.4176 19.568 17.5694C18.5297 18.1248 17.3435 18.4397 16.0836 18.4397C14.7319 18.4397 13.4648 18.0772 12.3744 17.4441Z"
    fill="currentColor" />
  <path
    d="M21.4917 10.3494C21.4917 13.3038 19.0967 15.6988 16.1423 15.6988C13.188 15.6988 10.793 13.3038 10.793 10.3494C10.793 7.395 13.188 5 16.1423 5C19.0967 5 21.4917 7.395 21.4917 10.3494Z"
    fill="currentColor" />
  <path fill-rule="evenodd" clip-rule="evenodd"
    d="M24.4241 18.803C23.6345 17.739 22.6521 16.8272 21.5295 16.1195C21.496 15.9316 21.4785 15.7381 21.4785 15.5405C21.4785 15.3728 21.4911 15.208 21.5154 15.047C22.0643 14.4197 22.5051 13.6953 22.8087 12.9031C23.3536 12.4997 24.0278 12.2612 24.7578 12.2612C26.5689 12.2612 28.0371 13.7294 28.0371 15.5405C28.0371 17.3516 26.5689 18.8198 24.7578 18.8198C24.6452 18.8198 24.5338 18.8141 24.4241 18.803ZM26.4187 25.9445C26.487 25.7018 26.5241 25.4415 26.5241 25.1657C26.5241 23.5716 26.1749 22.0593 25.5494 20.701C26.266 20.5917 26.9354 20.3367 27.5254 19.9669C27.5504 19.9513 27.5722 19.9451 27.5855 19.9435C27.591 19.9428 27.5942 19.943 27.5956 19.9431C29.9772 20.969 31.6913 23.2459 31.9128 25.9445H26.4187Z"
    fill="currentColor" />
  <path fill-rule="evenodd" clip-rule="evenodd"
    d="M7.05165 25.6319H7.05081C6.97915 25.4928 6.93861 25.3351 6.93861 25.1657C6.93861 23.4322 7.43427 21.8145 8.29159 20.4466C8.29187 20.4466 8.29216 20.4466 8.29244 20.4465C7.43512 21.8145 6.93945 23.4322 6.93945 25.1657C6.93945 25.3352 6.97999 25.4928 7.05165 25.6319ZM6.4009 20.1453C5.60307 21.6416 5.15039 23.3505 5.15039 25.1657C5.15039 25.3265 5.16302 25.482 5.1871 25.6319H1.03209C1.01687 25.6319 1.00719 25.6266 1.00248 25.6225C1.22692 22.9288 2.93996 20.6555 5.31876 19.6308C5.32021 19.6306 5.32341 19.6304 5.32889 19.6311C5.34219 19.6327 5.36396 19.6389 5.38891 19.6546C5.70511 19.8527 6.04408 20.0178 6.4009 20.1453ZM9.22741 12.1285C9.57257 13.4738 10.3001 14.6659 11.2872 15.5821C11.0547 15.6354 10.8217 15.7232 10.5937 15.8518C9.41451 16.5169 8.37359 17.4002 7.52615 18.4473C6.01554 18.1543 4.875 16.8244 4.875 15.2281C4.875 13.417 6.34318 11.9489 8.15428 11.9489C8.53011 11.9489 8.89117 12.0121 9.22741 12.1285ZM5.31876 19.6308L5.32001 19.6302C5.31863 19.6308 5.31784 19.631 5.31783 19.6309C5.31783 19.6309 5.31812 19.6308 5.31876 19.6308ZM1.00248 25.6225L1.00212 25.6269C1.00211 25.627 1.0021 25.6271 1.00209 25.627L1.00207 25.6269L1.00207 25.6268C1.00201 25.6262 1.00181 25.6243 1.00095 25.6219C1.00044 25.6206 1.00002 25.6199 1 25.6199C0.999988 25.6199 1.00028 25.6203 1.00108 25.6212L1.00248 25.6225Z"
    fill="currentColor" />
</svg>