<svg width="32" height="32" viewBox="0 0 32 32" fill="none"
  xmlns="http://www.w3.org/2000/svg">
  <path
    d="M11.2649 2.99546C11.7196 2.20787 11.9469 1.81407 12.2438 1.68191C12.5027 1.56664 12.7983 1.56664 13.0572 1.68191C13.3541 1.81407 13.5814 2.20787 14.0361 2.99546L19.7181 12.837C20.3847 13.9914 20.7179 14.5687 20.6399 14.9424C20.5723 15.2661 20.3491 15.5355 20.0435 15.662C19.6908 15.808 19.0617 15.5877 17.8036 15.147L13.1794 13.5273C12.9833 13.4587 12.8853 13.4244 12.7848 13.4107C12.6956 13.3986 12.6053 13.3986 12.5161 13.4107C12.4156 13.4244 12.3176 13.4587 12.1215 13.5274L7.49743 15.147C6.23931 15.5877 5.61025 15.808 5.25751 15.662C4.95194 15.5355 4.72867 15.2661 4.66109 14.9424C4.58308 14.5687 4.91634 13.9914 5.58288 12.837L11.2649 2.99546Z"
    fill="currentColor" />
  <path
    d="M17.9621 29.0045C18.4168 29.7921 18.6442 30.1859 18.941 30.3181C19.1999 30.4334 19.4956 30.4334 19.7545 30.3181C20.0513 30.1859 20.2787 29.7921 20.7334 29.0045L26.4154 19.163C27.0819 18.0086 27.4152 17.4313 27.3372 17.0576C27.2696 16.7339 27.0463 16.4645 26.7408 16.338C26.388 16.192 25.759 16.4123 24.5009 16.853L19.8766 18.4727C19.6806 18.5413 19.5826 18.5756 19.4821 18.5893C19.3929 18.6014 19.3025 18.6014 19.2134 18.5893C19.1129 18.5756 19.0148 18.5413 18.8188 18.4726L14.1947 16.853C12.9366 16.4123 12.3075 16.192 11.9548 16.338C11.6492 16.4645 11.4259 16.7339 11.3584 17.0576C11.2803 17.4313 11.6136 18.0086 12.2801 19.163L17.9621 29.0045Z"
    fill="currentColor" />
</svg>