<svg width="32" height="32" viewBox="0 0 32 32" fill="none"
  xmlns="http://www.w3.org/2000/svg">
  <path fill-rule="evenodd" clip-rule="evenodd"
    d="M16 9.5C14.1268 9.5 12.3682 9.99052 10.8455 10.8501C10.3516 11.129 10.1046 11.2684 9.90869 11.2929C9.71796 11.3167 9.57687 11.2974 9.39951 11.2233C9.21735 11.1473 9.0444 10.9743 8.69849 10.6284L7.36665 9.29656C6.94204 8.87194 6.72973 8.65963 6.6616 8.39508C6.60572 8.17811 6.63427 7.90341 6.73355 7.70256C6.85461 7.45766 7.08248 7.3089 7.53823 7.01139C9.97117 5.42315 12.8778 4.5 16 4.5C18.9903 4.5 21.7829 5.34681 24.1509 6.81371C24.6219 7.10546 24.8574 7.25134 24.9843 7.4976C25.0882 7.69935 25.1205 7.97786 25.0655 8.19805C24.9983 8.4668 24.7821 8.68299 24.3497 9.11538L23.0019 10.4632C22.6661 10.799 22.4982 10.9669 22.3206 11.0428C22.1478 11.1166 22.0099 11.1374 21.823 11.1178C21.631 11.0976 21.3876 10.9689 20.901 10.7116C19.4379 9.93802 17.7701 9.5 16 9.5ZM25.2381 12.4696C24.8842 12.8235 24.7073 13.0005 24.6311 13.1862C24.5569 13.3671 24.5389 13.5106 24.566 13.7043C24.5938 13.9031 24.7418 14.1528 25.0379 14.6521C25.9668 16.2184 26.5 18.0469 26.5 20C26.5 21.3807 27.6193 22.5 29 22.5C30.3807 22.5 31.5 21.3807 31.5 20C31.5 16.7753 30.5152 13.7806 28.8301 11.3002C28.5284 10.8562 28.3776 10.6342 28.1338 10.5176C27.9338 10.4219 27.662 10.3962 27.4476 10.4527C27.1863 10.5215 26.9769 10.7308 26.5583 11.1495L25.2381 12.4696ZM2.96726 11.6062C3.26355 11.1471 3.4117 10.9176 3.6569 10.7952C3.85796 10.6949 4.1335 10.6656 4.35118 10.7213C4.61666 10.7892 4.82981 11.0024 5.25613 11.4287L6.5914 12.7639C6.93506 13.1076 7.10689 13.2794 7.18293 13.4606C7.25695 13.6369 7.27656 13.7774 7.25368 13.9672C7.23018 14.1623 7.09315 14.4085 6.81909 14.9009C5.97872 16.4107 5.5 18.1495 5.5 20C5.5 21.3807 4.38071 22.5 3 22.5C1.61929 22.5 0.5 21.3807 0.5 20C0.5 16.9068 1.40606 14.0252 2.96726 11.6062Z"
    fill="currentColor" />
  <path
    d="M13.6283 25.0649C14.5391 25.5129 14.9945 25.7369 15.4014 25.7067C15.7722 25.6792 16.1195 25.515 16.3761 25.2459C16.6576 24.9505 16.7735 24.4564 17.0052 23.4683L18.5748 16.7748C18.8051 15.7926 18.9203 15.3015 18.8041 15.1227C18.7041 14.9686 18.5277 14.8819 18.3446 14.8966C18.132 14.9138 17.8133 15.3048 17.1759 16.0867L12.8319 21.4155C12.1906 22.2022 11.87 22.5956 11.8079 22.9989C11.7513 23.3663 11.8332 23.7417 12.0377 24.0522C12.2622 24.3929 12.7176 24.6169 13.6283 25.0649Z"
    fill="currentColor" />
</svg>