<svg width="100%" height="100%" viewBox="0 0 606 495" fill="none"
  xmlns="http://www.w3.org/2000/svg">
  <path
    d="M1 337.787C5.11332 295.954 11.3112 191.976 12.4643 172.381C12.5221 171.399 13.8135 171.102 14.3202 171.945L18.5879 179.047C19.0382 179.797 20.1659 179.648 20.4064 178.807L25.7547 160.116C26.0435 159.107 27.4936 159.167 27.6971 160.197L36.3377 203.929C36.566 205.084 38.2562 204.963 38.3173 203.787L42.1677 129.695C42.2246 128.601 43.7468 128.382 44.1099 129.416L47.194 138.198C47.519 139.124 48.8437 139.077 49.1022 138.13L52.1782 126.868C52.4092 126.022 53.539 125.862 53.9961 126.61L59.9093 136.285L66.0982 147.614C66.5722 148.482 67.8835 148.209 67.9718 147.224L74.1193 78.6783C74.2237 77.5135 75.9003 77.4442 76.1005 78.5964L83.3175 120.119C83.485 121.083 84.7936 121.258 85.2084 120.372L90.5762 108.908C90.9581 108.092 92.1391 108.157 92.4287 109.01L104.545 144.687C104.566 144.749 104.581 144.813 104.59 144.878L116.769 237.633C116.915 238.746 118.503 238.81 118.738 237.711L123.653 214.689C123.81 213.953 124.692 213.648 125.271 214.129L130.41 218.406C130.811 218.739 131.4 218.709 131.765 218.336L134.11 215.937C134.269 215.774 134.368 215.561 134.39 215.334L137.94 178.511C138.031 177.567 139.288 177.31 139.742 178.142V178.142C140.15 178.887 141.252 178.778 141.506 177.967L142.621 174.394C142.897 173.511 144.121 173.444 144.492 174.292L146.939 179.891C147.359 180.853 148.788 180.6 148.853 179.552L152.942 113.251C153.002 112.287 154.257 111.959 154.78 112.77L160.633 121.836C161.045 122.473 161.987 122.439 162.351 121.773L167.519 112.312C167.945 111.533 169.099 111.654 169.354 112.504L181.497 152.922C181.811 153.965 183.329 153.827 183.449 152.745L190.518 89.1207C190.595 88.4295 191.336 88.0258 191.958 88.3365L197.275 90.991C197.598 91.152 197.809 91.4739 197.827 91.8337L201.614 164.504C201.679 165.743 203.493 165.78 203.608 164.546L206.213 136.736L210.097 120.145L212.605 97.8996C212.653 97.4687 212.974 97.1181 213.399 97.0317L217.579 96.1814C218.102 96.0751 218.616 96.3976 218.748 96.9143L221.69 108.456C221.964 109.534 223.529 109.425 223.652 108.32L228.851 61.7921C228.864 61.681 228.895 61.5727 228.943 61.4719L232.82 53.3612C233.109 52.7553 233.902 52.6014 234.397 53.0548L237.191 55.6127C237.783 56.1539 238.739 55.8143 238.856 55.0214L246.255 5.00518C246.416 3.92137 247.951 3.84723 248.215 4.91054L249.827 11.4038C250.01 12.1398 250.914 12.4125 251.473 11.9005L252.669 10.8064C253.271 10.2546 254.246 10.6197 254.337 11.4317L257.78 41.897C257.872 42.709 258.846 43.0741 259.449 42.5223L263.005 39.2678C263.612 38.7124 264.592 39.0863 264.675 39.9048L267.704 69.8432C267.709 69.8942 267.718 69.9447 267.731 69.9943L274.185 94.8065L280.011 142.661L282.588 163.889C282.596 163.958 282.612 164.026 282.634 164.092L285.786 173.322C285.82 173.422 285.838 173.527 285.839 173.633L286.359 216.432C286.373 217.643 288.126 217.79 288.342 216.599L290.559 204.424C290.722 203.529 291.898 203.299 292.386 204.066L294.301 207.07C294.773 207.81 295.9 207.628 296.114 206.777L303.28 178.354C303.304 178.261 303.341 178.172 303.389 178.089L311.069 165.112C311.404 164.546 312.183 164.452 312.643 164.92L316.845 169.193C317.236 169.591 317.879 169.591 318.271 169.193L322.028 165.372C322.597 164.793 323.582 165.097 323.725 165.896L337.099 240.457C337.268 241.401 338.541 241.588 338.975 240.733L344.639 229.566C345.078 228.7 346.369 228.905 346.519 229.864L355.076 284.69C355.095 284.81 355.135 284.925 355.195 285.03L372.143 314.871C372.567 315.618 373.673 315.518 373.956 314.707L382.672 289.777C382.981 288.893 384.227 288.881 384.553 289.759L394.021 315.246C394.281 315.948 395.193 316.125 395.697 315.571L402.766 307.808C403.352 307.163 404.425 307.526 404.501 308.394L407.321 340.668"
    stroke="#9990B0" stroke-width="2" stroke-linecap="round"
    stroke-linejoin="round" />
  <path
    d="M1 334.532C5.1085 292.748 11.2967 191.618 12.4602 172.364C12.5195 171.383 13.8093 171.095 14.3155 171.937L18.5879 179.047C19.0382 179.797 20.1659 179.648 20.4064 178.807L25.7547 160.116C26.0435 159.107 27.4936 159.167 27.6971 160.197L36.3377 203.929C36.566 205.084 38.2562 204.963 38.3173 203.787L42.1677 129.695C42.2246 128.601 43.7468 128.382 44.1099 129.416L47.194 138.198C47.519 139.124 48.8437 139.077 49.1022 138.13L52.1782 126.868C52.4092 126.022 53.539 125.862 53.9961 126.61L59.9093 136.285L66.0982 147.614C66.5722 148.482 67.8835 148.209 67.9718 147.224L74.1193 78.6783C74.2237 77.5135 75.9003 77.4442 76.1005 78.5964L83.3175 120.119C83.485 121.083 84.7936 121.258 85.2084 120.372L90.5762 108.908C90.9581 108.092 92.1391 108.157 92.4287 109.01L104.545 144.687C104.566 144.749 104.581 144.813 104.59 144.878L116.769 237.633C116.915 238.746 118.503 238.81 118.738 237.711L123.653 214.689C123.81 213.953 124.692 213.648 125.271 214.129L130.41 218.406C130.811 218.739 131.4 218.709 131.765 218.336L134.11 215.937C134.269 215.774 134.368 215.561 134.39 215.334L137.94 178.511C138.031 177.567 139.288 177.31 139.742 178.142C140.15 178.887 141.253 178.778 141.506 177.967L142.621 174.394C142.897 173.511 144.121 173.444 144.492 174.292L146.939 179.891C147.359 180.853 148.788 180.6 148.853 179.552L152.942 113.251C153.002 112.287 154.257 111.959 154.78 112.77L160.633 121.836C161.045 122.473 161.987 122.439 162.351 121.773L167.519 112.312C167.945 111.533 169.099 111.654 169.354 112.504L181.497 152.922C181.811 153.965 183.329 153.827 183.449 152.745L190.518 89.1207C190.595 88.4295 191.336 88.0258 191.958 88.3365L197.275 90.9911C197.598 91.152 197.809 91.4739 197.827 91.8337L201.614 164.504C201.679 165.743 203.493 165.78 203.608 164.546L206.213 136.736L210.097 120.145L212.605 97.8996C212.653 97.4687 212.974 97.1181 213.399 97.0317L217.579 96.1814C218.102 96.0751 218.616 96.3976 218.748 96.9143L221.69 108.456C221.964 109.534 223.529 109.425 223.652 108.32L228.851 61.7921C228.864 61.681 228.895 61.5728 228.943 61.4719L232.82 53.3612C233.109 52.7553 233.902 52.6014 234.397 53.0548L237.191 55.6127C237.783 56.1539 238.739 55.8143 238.856 55.0214L246.255 5.00517C246.416 3.92137 247.951 3.84722 248.215 4.91053L249.827 11.4038C250.01 12.1398 250.914 12.4125 251.473 11.9005L252.669 10.8064C253.271 10.2546 254.246 10.6197 254.337 11.4317L257.78 41.897C257.872 42.709 258.846 43.0741 259.449 42.5223L263.005 39.2678C263.612 38.7124 264.592 39.0863 264.675 39.9048L267.704 69.8432C267.709 69.8942 267.718 69.9447 267.731 69.9943L274.185 94.8065L280.011 142.661L282.588 163.889C282.596 163.958 282.612 164.026 282.634 164.092L285.786 173.322C285.82 173.422 285.838 173.527 285.839 173.633L286.359 216.432C286.373 217.643 288.126 217.79 288.342 216.599L290.559 204.424C290.722 203.529 291.898 203.299 292.386 204.066L294.301 207.07C294.773 207.81 295.9 207.628 296.114 206.777L303.28 178.354C303.304 178.261 303.341 178.172 303.39 178.089L311.069 165.112C311.404 164.547 312.183 164.452 312.643 164.92L316.845 169.193C317.236 169.591 317.879 169.591 318.271 169.193L322.028 165.372C322.597 164.793 323.582 165.097 323.725 165.896L337.099 240.457C337.268 241.401 338.541 241.588 338.975 240.733L344.639 229.566C345.078 228.7 346.369 228.905 346.519 229.864L355.076 284.69C355.095 284.81 355.135 284.925 355.195 285.03L372.143 314.871C372.567 315.618 373.673 315.518 373.956 314.707L382.672 289.777C382.981 288.893 384.227 288.881 384.553 289.759L394.021 315.246C394.281 315.948 395.193 316.125 395.697 315.571L402.778 307.794C403.363 307.152 404.432 307.509 404.513 308.374L407.142 336.523H2C1.44772 336.523 1 336.075 1 335.523V334.532Z"
    fill="url(#paint0_linear_422_567732)" />
  <path
    d="M605 459.424L597.227 470.113L593.889 474.478C593.392 475.128 592.369 474.939 592.136 474.156L588.171 460.808C587.929 459.992 586.843 459.833 586.376 460.544L582.855 465.909C582.4 466.601 581.349 466.472 581.075 465.69L577.138 454.444C576.801 453.484 575.413 453.581 575.213 454.578L570.913 476.08C570.793 476.681 570.165 477.034 569.589 476.823L568.379 476.38C567.863 476.191 567.292 476.453 567.099 476.967L561.771 491.153C561.403 492.134 559.966 491.96 559.842 490.92L553.891 440.805C553.866 440.598 553.778 440.403 553.637 440.249L550.809 437.143C550.683 437.005 550.598 436.833 550.565 436.649L546.846 416.227C546.776 415.844 546.491 415.537 546.115 415.438L538.107 413.344C537.828 413.271 537.595 413.082 537.466 412.824L531.957 401.822C531.52 400.95 530.221 401.155 530.074 402.12L520.9 462.375C520.737 463.443 519.231 463.53 518.946 462.488L515.925 451.425C515.66 450.457 514.294 450.438 514.003 451.398L512.717 455.635C512.431 456.578 511.099 456.583 510.806 455.643L509.96 452.933C509.687 452.058 508.479 451.981 508.097 452.813L499.788 470.875C499.422 471.669 498.285 471.645 497.954 470.836L494.088 461.401C493.729 460.524 492.465 460.592 492.202 461.502L488.475 474.391C488.175 475.427 486.673 475.32 486.524 474.252L480.963 434.554C480.852 433.757 479.892 433.412 479.298 433.955L478.165 434.992C477.582 435.526 476.639 435.204 476.504 434.425L473.393 416.389C473.235 415.472 472.021 415.249 471.547 416.05L465.933 425.536C465.456 426.343 464.23 426.108 464.085 425.181L456.81 378.689C456.769 378.431 456.63 378.199 456.421 378.043L447.173 371.13C446.737 370.804 446.121 370.887 445.786 371.316L440.897 377.581C440.443 378.163 439.537 378.069 439.211 377.407L435.364 369.582C434.945 368.73 433.686 368.886 433.488 369.815L429.805 387.151C429.676 387.76 429.027 388.104 428.45 387.87L424.524 386.272C424.067 386.086 423.544 386.261 423.29 386.683L414.934 400.577C414.437 401.403 413.174 401.117 413.082 400.158L407.083 337.994"
    stroke="#9990B0" stroke-width="2" stroke-linecap="round"
    stroke-linejoin="round" />
  <path
    d="M413.373 403.173L407.083 337.994H605V459.424L597.227 470.113L592.695 476.039L587.558 458.744L581.744 467.601L575.93 450.994L570.685 477.224L567.448 476.039L560.327 495L553.853 440.486L550.616 436.931L546.732 415.6L537.669 413.229L530.547 399.008L520.189 467.04L515.01 448.078L511.774 458.744L509.184 450.449L498.826 472.965L493 458.744L487.173 478.89L480.7 432.672L476.815 436.228L472.931 413.711L464.515 427.932L456.747 378.287L446.389 370.544L439.915 378.839L434.089 366.988L429.557 388.32L423.731 385.95L413.373 403.173Z"
    fill="url(#paint1_linear_422_567732)" />
  <defs>
    <linearGradient id="paint0_linear_422_567732" x1="302.993" y1="8.63744e-08"
      x2="304.181" y2="347.503" gradientUnits="userSpaceOnUse">
      <stop stop-color="#5B566D" stop-opacity="0.9" />
      <stop offset="1" stop-color="#201E27" stop-opacity="0" />
    </linearGradient>
    <linearGradient id="paint1_linear_422_567732" x1="506.036" y1="513.291"
      x2="506.137" y2="338.383" gradientUnits="userSpaceOnUse">
      <stop stop-color="#5B566D" stop-opacity="0.9" />
      <stop offset="1" stop-color="#201E27" stop-opacity="0" />
    </linearGradient>
  </defs>
</svg>