<svg width="948" height="433" viewBox="0 0 948 433" fill="none" xmlns="http://www.w3.org/2000/svg">
<path d="M1 295.479C7.56302 258.2 17.5144 164.505 19.0487 149.906C19.1349 149.085 20.1143 148.783 20.7185 149.345L29.4351 157.447C29.9208 157.898 30.7035 157.761 31.0059 157.17L40.4977 138.643C40.8977 137.862 42.0378 137.939 42.3304 138.766L57.2755 181.011C57.6331 182.022 59.1147 181.838 59.214 180.771L65.6168 111.959C65.7053 111.007 66.9503 110.71 67.459 111.519L74.0591 122.016C74.4762 122.679 75.4597 122.627 75.804 121.923L81.5255 110.223C81.8187 109.624 82.6058 109.474 83.0984 109.924L93.2653 119.215L104.045 130.236C104.619 130.823 105.617 130.506 105.747 129.695L115.909 66.4072C116.077 65.3639 117.538 65.2596 117.852 66.2686L130.235 106.062C130.471 106.818 131.448 107.014 131.957 106.408L142.051 94.3673C142.49 93.8426 143.316 93.9052 143.671 94.4902L163.142 126.51C163.197 126.6 163.237 126.699 163.261 126.801L182.759 209.738C182.985 210.697 184.315 210.787 184.667 209.866L193.26 187.385C193.467 186.843 194.09 186.591 194.616 186.835L204.328 191.348C204.622 191.485 204.964 191.471 205.245 191.31L209.457 188.904C209.716 188.756 209.895 188.5 209.946 188.206L215.617 155.351C215.755 154.548 216.747 154.239 217.317 154.822L219.07 156.614C219.537 157.092 220.332 156.986 220.658 156.403L223.327 151.627C223.675 151.003 224.547 150.936 224.987 151.498L230.66 158.748C231.212 159.454 232.343 159.132 232.441 158.241L239.06 98.3001C239.149 97.4994 240.099 97.1265 240.708 97.6536L251.739 107.196C252.138 107.542 252.738 107.517 253.108 107.139L262.652 97.3809C263.123 96.8985 263.928 97.0122 264.247 97.6064L284.59 135.423C285.035 136.249 286.269 136.064 286.452 135.145L297.865 77.7699C297.979 77.1991 298.554 76.8454 299.115 77.0018L308.565 79.6371C308.965 79.7484 309.254 80.0947 309.292 80.5074L315.613 148.251C315.722 149.417 317.401 149.478 317.595 148.323L322.39 119.724C322.403 119.648 322.424 119.573 322.454 119.502L328.454 105.188C328.48 105.127 328.499 105.064 328.512 104.999L332.404 85.7186C332.49 85.2933 332.84 84.9719 333.272 84.9229L340.952 84.0504C341.382 84.0015 341.795 84.2349 341.975 84.6288L347.487 96.7055C347.89 97.588 349.187 97.4377 349.377 96.4864L357.845 54.1615C357.878 53.9937 357.954 53.8374 358.066 53.7074L364.481 46.2116C364.781 45.8603 365.284 45.7609 365.695 45.9714L372 49.1946C372.568 49.4848 373.259 49.1766 373.422 48.5602L385.558 2.74459C385.8 1.83205 387.055 1.73181 387.439 2.59441L390.926 10.4384C391.159 10.9625 391.784 11.1836 392.295 10.9226L396.264 8.89327C396.854 8.59187 397.568 8.93634 397.7 9.58533L403.26 37.0638C403.391 37.7128 404.106 38.0573 404.695 37.7559L412.462 33.7857C413.059 33.4805 413.781 33.838 413.901 34.4979L418.707 61.0352C418.722 61.1195 418.749 61.2015 418.785 61.2792L428.822 82.8311C428.854 82.898 428.877 82.9682 428.893 83.0403L437.994 124.793L442.014 143.287C442.038 143.396 442.08 143.501 442.138 143.596L446.979 151.515C447.071 151.666 447.122 151.838 447.125 152.015L448.006 192.515C448.03 193.641 449.607 193.874 449.956 192.804L454.761 178.066C454.983 177.384 455.831 177.151 456.371 177.624L461.313 181.955C461.818 182.398 462.607 182.227 462.883 181.614L474.414 156.072C474.467 155.953 474.544 155.846 474.639 155.756L487.138 143.96C487.458 143.658 487.937 143.6 488.318 143.817L496.307 148.355C496.613 148.529 496.988 148.529 497.295 148.355L504.856 144.06C505.408 143.746 506.108 144.019 506.302 144.624L527.703 211.26C527.938 211.993 528.878 212.196 529.395 211.627L540.196 199.734C540.725 199.152 541.688 199.38 541.9 200.137L555.536 248.933C555.583 249.102 555.673 249.255 555.797 249.377L583.108 276.234C583.564 276.682 584.318 276.593 584.657 276.051L599.397 252.504C599.782 251.889 600.675 251.876 601.077 252.481L616.921 276.304C617.219 276.752 617.818 276.884 618.276 276.603L631.384 268.562C631.992 268.189 632.785 268.555 632.895 269.26L637.391 297.998" stroke="#9990B0" stroke-width="2" stroke-linecap="round" stroke-linejoin="round"/>
<path d="M1.01447 292.549C7.57064 255.258 17.4943 164.256 19.0438 149.901C19.1321 149.082 20.1101 148.78 20.7134 149.34L29.4351 157.447C29.9208 157.898 30.7035 157.761 31.0059 157.17L40.4977 138.643C40.8977 137.862 42.0378 137.939 42.3304 138.766L57.2755 181.011C57.6331 182.022 59.1147 181.838 59.214 180.771L65.6168 111.959C65.7053 111.007 66.9503 110.71 67.459 111.519L74.0591 122.016C74.4762 122.679 75.4597 122.627 75.804 121.923L81.5255 110.223C81.8187 109.624 82.6058 109.474 83.0984 109.924L93.2653 119.215L104.045 130.236C104.619 130.823 105.617 130.506 105.747 129.695L115.909 66.4072C116.077 65.3639 117.538 65.2596 117.852 66.2686L130.235 106.062C130.471 106.818 131.448 107.014 131.957 106.408L142.051 94.3673C142.49 93.8426 143.316 93.9052 143.671 94.4902L163.142 126.51C163.197 126.6 163.237 126.699 163.261 126.801L182.759 209.738C182.985 210.697 184.315 210.787 184.667 209.866L193.26 187.385C193.468 186.843 194.09 186.591 194.616 186.835L204.328 191.348C204.622 191.485 204.964 191.471 205.245 191.31L209.457 188.904C209.716 188.756 209.895 188.5 209.946 188.206L215.617 155.351C215.755 154.548 216.747 154.239 217.317 154.822L219.07 156.614C219.537 157.092 220.332 156.986 220.658 156.403L223.327 151.627C223.675 151.003 224.547 150.936 224.987 151.498L230.66 158.748C231.212 159.454 232.343 159.132 232.441 158.241L239.06 98.3001C239.149 97.4994 240.099 97.1265 240.708 97.6536L251.738 107.196C252.138 107.542 252.738 107.517 253.108 107.139L262.652 97.3809C263.123 96.8985 263.928 97.0122 264.247 97.6063L284.59 135.423C285.035 136.249 286.269 136.064 286.452 135.145L297.865 77.7699C297.979 77.1991 298.554 76.8454 299.115 77.0018L308.565 79.6371C308.965 79.7484 309.254 80.0947 309.293 80.5074L315.613 148.251C315.722 149.417 317.401 149.478 317.595 148.323L322.39 119.724C322.403 119.648 322.424 119.573 322.454 119.502L328.454 105.188C328.48 105.127 328.499 105.064 328.512 104.999L332.404 85.7186C332.49 85.2933 332.841 84.9719 333.272 84.9229L340.952 84.0504C341.382 84.0015 341.795 84.2349 341.975 84.6288L347.487 96.7055C347.89 97.588 349.187 97.4377 349.377 96.4864L357.845 54.1615C357.878 53.9937 357.954 53.8374 358.066 53.7074L364.481 46.2116C364.781 45.8603 365.284 45.7609 365.695 45.9714L372 49.1946C372.568 49.4848 373.259 49.1766 373.422 48.5602L385.558 2.74458C385.8 1.83205 387.055 1.7318 387.439 2.5944L390.926 10.4384C391.159 10.9625 391.784 11.1836 392.295 10.9226L396.264 8.89327C396.854 8.59187 397.568 8.93634 397.7 9.58533L403.26 37.0638C403.392 37.7128 404.106 38.0573 404.696 37.7559L412.462 33.7857C413.059 33.4805 413.781 33.838 413.901 34.4979L418.707 61.0352C418.723 61.1195 418.749 61.2015 418.785 61.2792L428.822 82.8311C428.854 82.898 428.877 82.9682 428.893 83.0403L437.994 124.793L442.014 143.287C442.038 143.396 442.08 143.501 442.138 143.596L446.979 151.515C447.071 151.666 447.122 151.838 447.125 152.015L448.006 192.515C448.03 193.641 449.607 193.874 449.956 192.804L454.761 178.066C454.983 177.384 455.831 177.151 456.371 177.624L461.313 181.955C461.818 182.398 462.607 182.227 462.884 181.614L474.414 156.072C474.467 155.953 474.544 155.846 474.639 155.756L487.138 143.96C487.458 143.658 487.937 143.6 488.319 143.817L496.307 148.355C496.613 148.529 496.989 148.529 497.295 148.355L504.856 144.06C505.408 143.746 506.108 144.019 506.302 144.624L527.703 211.26C527.938 211.993 528.878 212.196 529.395 211.627L540.196 199.734C540.725 199.152 541.688 199.38 541.9 200.137L555.536 248.933C555.583 249.102 555.673 249.255 555.797 249.377L583.108 276.234C583.564 276.682 584.318 276.593 584.657 276.051L599.397 252.504C599.782 251.889 600.675 251.876 601.077 252.481L616.921 276.304C617.219 276.752 617.818 276.884 618.276 276.603L631.398 268.553C632.003 268.182 632.791 268.541 632.908 269.241L637.11 294.373H2C1.44772 294.373 1 293.925 1 293.373V292.719C1 292.661 1.00441 292.606 1.01447 292.549Z" fill="url(#paint0_linear_3389_29919)"/>
<path d="M946.998 401.88L934.824 411.23L928.658 415.733C928.166 416.092 927.471 415.932 927.185 415.395L920.264 402.382C919.964 401.819 919.219 401.676 918.733 402.09L911.455 408.283C910.99 408.678 910.283 408.569 909.96 408.052L902.562 396.251C902.119 395.544 901.055 395.659 900.773 396.445L893.545 416.633C893.377 417.102 892.891 417.376 892.403 417.276L888.839 416.547C888.442 416.466 888.035 416.633 887.809 416.969L878.347 431.041C877.854 431.774 876.723 431.555 876.539 430.691L866.98 385.734C866.923 385.466 866.758 385.233 866.525 385.089L862.135 382.396C861.932 382.272 861.78 382.08 861.707 381.854L855.93 364.134C855.812 363.773 855.499 363.509 855.123 363.454L841.9 361.523C841.669 361.489 841.457 361.375 841.3 361.201L831.615 350.399C831.086 349.809 830.114 350.039 829.906 350.803L814.864 405.982C814.621 406.872 813.406 406.987 813.001 406.158L806.906 393.696C806.549 392.966 805.517 392.944 805.129 393.658L801.851 399.69C801.475 400.382 800.484 400.388 800.1 399.701L797.643 395.306C797.3 394.692 796.446 394.615 795.998 395.158L781.524 412.732C781.109 413.235 780.331 413.213 779.946 412.688L772.534 402.584C772.095 401.986 771.181 402.057 770.84 402.716L763.67 416.561C763.247 417.379 762.036 417.238 761.812 416.344L752.622 379.698C752.465 379.074 751.769 378.758 751.197 379.051L747.292 381.047C746.739 381.329 746.064 381.045 745.881 380.451L740.623 363.426C740.404 362.719 739.519 362.486 738.981 362.994L728.171 373.196C727.624 373.713 726.724 373.463 726.521 372.739L714.931 331.371C714.849 331.077 714.636 330.836 714.354 330.718L699.092 324.346C698.772 324.213 698.406 324.254 698.124 324.456L689.173 330.862C688.756 331.161 688.18 331.095 687.841 330.709L680.408 322.266C679.911 321.701 678.991 321.868 678.723 322.572L672.524 338.869C672.347 339.335 671.854 339.599 671.368 339.489L663.605 337.725C663.283 337.652 662.945 337.742 662.703 337.967L648.219 351.419C647.637 351.959 646.688 351.639 646.553 350.856L637.016 295.659" stroke="#9990B0" stroke-width="2" stroke-linecap="round" stroke-linejoin="round"/>
<path d="M646.867 352.674L637.016 295.659H946.998V401.88L934.824 411.23L927.727 416.413L919.68 401.285L910.574 409.032L901.468 394.506L893.253 417.45L888.183 416.413L877.03 433L866.891 385.314L861.821 382.204L855.737 363.544L841.542 361.471L830.389 349.031L814.166 408.541L806.055 391.955L800.985 401.285L796.929 394.028L780.706 413.724L771.581 401.285L762.455 418.908L752.316 378.478L746.232 381.588L740.149 361.892L726.968 374.332L714.801 330.905L698.577 324.132L688.438 331.388L679.313 321.022L672.215 339.681L663.09 337.608L646.867 352.674Z" fill="url(#paint1_linear_3389_29919)"/>
<defs>
<linearGradient id="paint0_linear_3389_29919" x1="473.99" y1="7.55558e-08" x2="474.57" y2="303.98" gradientUnits="userSpaceOnUse">
<stop stop-color="#5B566D" stop-opacity="0.9"/>
<stop offset="1" stop-color="#201E27" stop-opacity="0"/>
</linearGradient>
<linearGradient id="paint1_linear_3389_29919" x1="791.998" y1="449" x2="792.047" y2="296" gradientUnits="userSpaceOnUse">
<stop stop-color="#5B566D" stop-opacity="0.9"/>
<stop offset="1" stop-color="#201E27" stop-opacity="0"/>
</linearGradient>
</defs>
</svg>
