<svg width="32" height="32" viewBox="0 0 32 32" fill="none" xmlns="http://www.w3.org/2000/svg">
<path fill-rule="evenodd" clip-rule="evenodd" d="M16.0001 0L7.40408 4.90146L10.5644 6.71222L16.0001 3.62147L21.4357 6.71222L24.596 4.90146L16.0001 0ZM21.4357 9.27223L24.596 11.0829V14.7044L19.1602 17.7951V23.9767L16.0001 25.7874L12.8398 23.9767V17.7951L7.40408 14.7044V11.0829L10.5644 9.27223L16.0001 12.3629L21.4357 9.27223ZM24.596 17.2644V20.8859L21.4357 22.6967V19.0751L24.596 17.2644ZM21.4041 25.2566L26.8398 22.1658V15.9844L30 14.1737V23.9767L21.4041 28.878V25.2566ZM26.8398 9.80294L23.6795 7.99223L26.8398 6.18147L30 7.99223V11.6137L26.8398 13.4245V9.80294ZM12.8398 30.1893V26.5679L16.0001 28.3785L19.1602 26.5679V30.1893L16.0001 32L12.8398 30.1893ZM10.5644 22.6967L7.40408 20.8859V17.2644L10.5644 19.0751V22.6967ZM16.0001 9.80294L12.8398 7.99223L16.0001 6.18147L19.1602 7.99223L16.0001 9.80294ZM8.32056 7.99223L5.16027 9.80294V13.4245L2 11.6137V7.99223L5.16027 6.18147L8.32056 7.99223ZM2 14.1737L5.16027 15.9844V22.1658L10.5959 25.2566V28.878L2 23.9767V14.1737Z" fill="#F0B90B"/>
</svg>
