<svg width="44" height="45" viewBox="0 0 44 45" fill="none" xmlns="http://www.w3.org/2000/svg">
<path d="M0 17.6732V34.3239C0 37.7638 0 39.4838 0.669457 40.7977C1.25833 41.9534 2.19796 42.893 3.35369 43.4819C4.66757 44.1513 6.38754 44.1513 9.82748 44.1513H26.4173C28.8632 44.1513 30.0861 44.1513 31.237 43.875C32.2574 43.6301 33.2328 43.226 34.1275 42.6777C35.1367 42.0593 36.0015 41.1946 37.731 39.4651L38.8069 38.3892C40.5364 36.6596 41.4011 35.7949 42.0196 34.7857C42.5679 33.891 42.9719 32.9156 43.2169 31.8952C43.4932 30.7443 43.4932 29.5214 43.4932 27.0755V10.9792V10.3582C43.4932 6.9183 43.4932 5.19833 42.8237 3.88445C42.2348 2.72872 41.2952 1.78909 40.1395 1.20022C38.8256 0.530762 37.1056 0.530762 33.6657 0.530762H33.0447H17.1587C14.7366 0.530762 13.5255 0.530762 12.3846 0.802121C11.3729 1.04272 10.405 1.43963 9.51572 1.97854C8.51271 2.58636 7.65031 3.43662 5.92551 5.13714L5.9255 5.13715L4.76676 6.27958C3.00807 8.01351 2.12872 8.88048 1.49963 9.89573C0.941899 10.7958 0.530663 11.7788 0.281287 12.8078C0 13.9686 0 15.2035 0 17.6732Z" fill="#2398EE"/>
<path d="M31.9807 15.0849C32.1599 14.0493 31.059 13.2319 30.0295 13.6362L9.52443 21.6884C8.78614 21.9783 8.84014 22.9785 9.60586 23.1966L13.8345 24.4011C14.6416 24.6309 15.5155 24.5121 16.2203 24.0766L25.754 18.1854C26.0415 18.0077 26.3549 18.3734 26.1093 18.5999L19.2467 24.9282C18.581 25.542 18.7131 26.5823 19.5138 27.0314L27.1973 31.3409C28.059 31.8242 29.1677 31.3386 29.3289 30.4072L31.9807 15.0849Z" fill="white"/>
</svg>
