<svg width="26" height="18" viewBox="0 0 26 18" fill="none"
  xmlns="http://www.w3.org/2000/svg">
  <path
    d="M22.4773 2.9781C20.7434 1.63408 18.6627 0.962106 16.4664 0.850098L16.1195 1.18612C18.0847 1.63408 19.8187 2.53007 21.437 3.76208C19.4718 2.75408 17.2755 2.08211 14.9636 1.85809C14.27 1.74609 13.692 1.74609 12.9984 1.74609C12.3049 1.74609 11.7269 1.74609 11.0333 1.85809C8.72137 2.08211 6.52503 2.75408 4.5599 3.76208C6.17821 2.53007 7.91221 1.63408 9.87734 1.18612L9.53052 0.850098C7.33419 0.962106 5.25345 1.63408 3.51954 2.9781C1.5544 6.56213 0.514035 10.5941 0.398438 14.738C2.13235 16.5301 4.5599 17.6501 7.10305 17.6501C7.10305 17.6501 7.91221 16.7541 8.49016 15.9701C6.98745 15.6341 5.60027 14.85 4.67551 13.6181C5.48466 14.0661 6.29382 14.5141 7.10305 14.85C8.14342 15.2981 9.18379 15.5221 10.2242 15.7461C11.1489 15.858 12.0737 15.9701 12.9984 15.9701C13.9232 15.9701 14.848 15.858 15.7727 15.7461C16.8131 15.5221 17.8535 15.2981 18.8938 14.85C19.7031 14.5141 20.5122 14.0661 21.3214 13.6181C20.3966 14.85 19.0094 15.6341 17.5067 15.9701C18.0847 16.7541 18.8938 17.6501 18.8938 17.6501C21.437 17.6501 23.8645 16.5301 25.5984 14.738C25.4828 10.5941 24.4425 6.56213 22.4773 2.9781ZM9.18379 12.722C8.02782 12.722 6.98745 11.714 6.98745 10.4821C6.98745 9.2501 8.02782 8.2421 9.18379 8.2421C10.3398 8.2421 11.3801 9.2501 11.3801 10.4821C11.3801 11.714 10.3398 12.722 9.18379 12.722ZM16.8131 12.722C15.6571 12.722 14.6167 11.714 14.6167 10.4821C14.6167 9.2501 15.6571 8.2421 16.8131 8.2421C17.9691 8.2421 19.0094 9.2501 19.0094 10.4821C19.0094 11.714 17.9691 12.722 16.8131 12.722Z"
    fill="currentColor" />
</svg>