<svg width="44" height="45" viewBox="0 0 44 45" fill="none"
  xmlns="http://www.w3.org/2000/svg">
  <path
    d="M0 17.6732V34.3239C0 37.7638 0 39.4838 0.669457 40.7977C1.25833 41.9534 2.19796 42.893 3.35369 43.4819C4.66757 44.1513 6.38754 44.1513 9.82748 44.1513H26.4173C28.8632 44.1513 30.0861 44.1513 31.237 43.875C32.2574 43.6301 33.2328 43.226 34.1275 42.6777C35.1367 42.0593 36.0015 41.1946 37.731 39.4651L38.8069 38.3892C40.5364 36.6596 41.4011 35.7949 42.0196 34.7857C42.5679 33.891 42.9719 32.9156 43.2169 31.8952C43.4932 30.7443 43.4932 29.5214 43.4932 27.0755V10.9792V10.3582C43.4932 6.9183 43.4932 5.19833 42.8237 3.88445C42.2348 2.72872 41.2952 1.78909 40.1395 1.20022C38.8256 0.530762 37.1056 0.530762 33.6657 0.530762H33.0447H17.1587C14.7366 0.530762 13.5255 0.530762 12.3846 0.802121C11.3729 1.04272 10.405 1.43963 9.51572 1.97854C8.51271 2.58636 7.65031 3.43662 5.92551 5.13714L5.9255 5.13715L4.76676 6.27958C3.00807 8.01351 2.12872 8.88048 1.49963 9.89573C0.941899 10.7958 0.530663 11.7788 0.281287 12.8078C0 13.9686 0 15.2035 0 17.6732Z"
    fill="url(#paint0_linear_5702_685515)" />
  <g>
    <path
      d="M29.7 16.4808C29.7 17.392 28.9613 18.1308 28.05 18.1308C27.1387 18.1308 26.4 17.392 26.4 16.4808C26.4 15.5695 27.1387 14.8308 28.05 14.8308C28.9613 14.8308 29.7 15.5695 29.7 16.4808Z"
      fill="white" />
    <path fill-rule="evenodd" clip-rule="evenodd"
      d="M22 28.0308C25.0376 28.0308 27.5 25.5683 27.5 22.5308C27.5 19.4932 25.0376 17.0308 22 17.0308C18.9624 17.0308 16.5 19.4932 16.5 22.5308C16.5 25.5683 18.9624 28.0308 22 28.0308ZM22 25.8308C23.8225 25.8308 25.3 24.3533 25.3 22.5308C25.3 20.7082 23.8225 19.2308 22 19.2308C20.1775 19.2308 18.7 20.7082 18.7 22.5308C18.7 24.3533 20.1775 25.8308 22 25.8308Z"
      fill="white" />
    <path fill-rule="evenodd" clip-rule="evenodd"
      d="M11 22.0908C11 18.3944 11 16.5462 11.7194 15.1344C12.3521 13.8926 13.3618 12.8829 14.6037 12.2501C16.0155 11.5308 17.8637 11.5308 21.56 11.5308H22.44C26.1363 11.5308 27.9845 11.5308 29.3963 12.2501C30.6382 12.8829 31.6479 13.8926 32.2806 15.1344C33 16.5462 33 18.3944 33 22.0908V22.9708C33 26.6671 33 28.5153 32.2806 29.9271C31.6479 31.169 30.6382 32.1786 29.3963 32.8114C27.9845 33.5308 26.1363 33.5308 22.44 33.5308H21.56C17.8637 33.5308 16.0155 33.5308 14.6037 32.8114C13.3618 32.1786 12.3521 31.169 11.7194 29.9271C11 28.5153 11 26.6671 11 22.9708V22.0908ZM21.56 13.7308H22.44C24.3245 13.7308 25.6055 13.7325 26.5957 13.8134C27.5602 13.8922 28.0535 14.035 28.3976 14.2103C29.2255 14.6322 29.8986 15.3053 30.3204 16.1332C30.4957 16.4773 30.6386 16.9705 30.7174 17.935C30.7983 18.9252 30.8 20.2063 30.8 22.0908V22.9708C30.8 24.8552 30.7983 26.1363 30.7174 27.1265C30.6386 28.091 30.4957 28.5842 30.3204 28.9283C29.8986 29.7562 29.2255 30.4293 28.3976 30.8512C28.0535 31.0265 27.5602 31.1693 26.5957 31.2481C25.6055 31.3291 24.3245 31.3308 22.44 31.3308H21.56C19.6755 31.3308 18.3945 31.3291 17.4043 31.2481C16.4398 31.1693 15.9465 31.0265 15.6024 30.8512C14.7745 30.4293 14.1014 29.7562 13.6796 28.9283C13.5043 28.5842 13.3614 28.091 13.2826 27.1265C13.2017 26.1363 13.2 24.8552 13.2 22.9708V22.0908C13.2 20.2063 13.2017 18.9252 13.2826 17.935C13.3614 16.9705 13.5043 16.4773 13.6796 16.1332C14.1014 15.3053 14.7745 14.6322 15.6024 14.2103C15.9465 14.035 16.4398 13.8922 17.4043 13.8134C18.3945 13.7325 19.6755 13.7308 21.56 13.7308Z"
      fill="white" />
  </g>

  
  <defs>
    <linearGradient id="paint0_linear_5702_685515" x1="21.7466" y1="0.530762"
      x2="21.7466" y2="44.1513" gradientUnits="userSpaceOnUse">
      <stop stop-color="#FF8B37" />
      <stop offset="1" stop-color="#FF3A69" />
    </linearGradient>
  </defs>
</svg>