<svg width="44" height="45" viewBox="0 0 44 45" fill="none" xmlns="http://www.w3.org/2000/svg">
<path d="M0 17.6732V34.3239C0 37.7638 0 39.4838 0.669457 40.7977C1.25833 41.9534 2.19796 42.893 3.35369 43.4819C4.66757 44.1513 6.38754 44.1513 9.82748 44.1513H26.4173C28.8632 44.1513 30.0861 44.1513 31.237 43.875C32.2574 43.6301 33.2328 43.226 34.1275 42.6777C35.1367 42.0593 36.0015 41.1946 37.731 39.4651L38.8069 38.3892C40.5364 36.6596 41.4011 35.7949 42.0196 34.7857C42.5679 33.891 42.9719 32.9156 43.2169 31.8952C43.4932 30.7443 43.4932 29.5214 43.4932 27.0755V10.9792V10.3582C43.4932 6.9183 43.4932 5.19833 42.8237 3.88445C42.2348 2.72872 41.2952 1.78909 40.1395 1.20022C38.8256 0.530762 37.1056 0.530762 33.6657 0.530762H33.0447H17.1587C14.7366 0.530762 13.5255 0.530762 12.3846 0.802121C11.3729 1.04272 10.405 1.43963 9.51572 1.97854C8.51271 2.58636 7.65031 3.43662 5.92551 5.13714L5.9255 5.13715L4.76676 6.27958C3.00807 8.01351 2.12872 8.88048 1.49963 9.89573C0.941899 10.7958 0.530663 11.7788 0.281287 12.8078C0 13.9686 0 15.2035 0 17.6732Z" fill="#5F3AF3"/>
<path d="M30.3303 15.0382C28.7767 14.334 27.1155 13.8222 25.3789 13.5308C25.1656 13.9044 24.9164 14.4069 24.7447 14.8066C22.8985 14.5376 21.0693 14.5376 19.2571 14.8066C19.0854 14.4069 18.8305 13.9044 18.6154 13.5308C16.8768 13.8222 15.2138 14.3359 13.6602 15.042C10.5266 19.6298 9.67719 24.1037 10.1019 28.514C12.1803 30.0177 14.1944 30.9311 16.1746 31.5289C16.6635 30.877 17.0995 30.184 17.4752 29.4536C16.7598 29.1902 16.0745 28.8652 15.4271 28.4878C15.5988 28.3646 15.7668 28.2356 15.9292 28.103C19.8782 29.8925 24.1689 29.8925 28.0708 28.103C28.2349 28.2356 28.403 28.3646 28.5729 28.4878C27.9235 28.867 27.2364 29.192 26.5209 29.4554C26.8966 30.184 27.3308 30.8789 27.8215 31.5308C29.8036 30.933 31.8196 30.0196 33.898 28.514C34.3964 23.4013 33.0466 18.9685 30.3303 15.0382ZM18.0132 25.8017C16.8277 25.8017 15.8556 24.7294 15.8556 23.4237C15.8556 22.118 16.807 21.0439 18.0132 21.0439C19.2194 21.0439 20.1915 22.1161 20.1708 23.4237C20.1727 24.7294 19.2194 25.8017 18.0132 25.8017ZM25.9868 25.8017C24.8013 25.8017 23.8291 24.7294 23.8291 23.4237C23.8291 22.118 24.7805 21.0439 25.9868 21.0439C27.1929 21.0439 28.1651 22.1161 28.1444 23.4237C28.1444 24.7294 27.1929 25.8017 25.9868 25.8017Z" fill="white"/>
</svg>
