<svg width="96" height="82" viewBox="0 0 96 82" fill="none" xmlns="http://www.w3.org/2000/svg">
<path d="M94.9002 46.9C98.6002 38.6 80.2002 15.3 62.6002 5.70001C51.5002 -1.79999 40.0002 -0.799988 37.6002 2.50001C32.5002 9.70001 54.6002 15.9 69.4002 23C66.2002 24.4 63.2002 26.9 61.5002 30C56.0002 24 43.9002 18.8 29.7002 23C20.1002 25.8 12.2002 32.5 9.10019 42.5C8.40019 42.2 7.5002 42 6.7002 42C3.4002 42 0.700195 44.7 0.700195 48C0.700195 51.3 3.4002 54 6.7002 54C7.3002 54 9.2002 53.6 9.2002 53.6L40.0002 53.8C27.7002 73.4 17.9002 76.2 17.9002 79.6C17.9002 83 27.2002 82.1 30.7002 80.8C47.5002 74.8 65.5002 55.9 68.6002 50.5C81.6002 52.2 92.5002 52.3 94.9002 46.9Z" fill="url(#paint0_linear_10701_36715)"/>
<path fill-rule="evenodd" clip-rule="evenodd" d="M69.5004 23C70.2004 22.7 70.1004 21.7 69.9004 20.9C69.5004 19.1 62.0004 11.7 55.0004 8.40001C45.4004 3.90001 38.4004 4.1 37.4004 6.2C39.3004 10.2 48.4004 13.9 57.8004 17.9C61.7004 19.5 65.8004 21.2 69.5004 23Z" fill="url(#paint1_linear_10701_36715)"/>
<path fill-rule="evenodd" clip-rule="evenodd" d="M57.2996 63.2C55.3996 62.5 53.1996 61.8 50.6996 61.2C53.2996 56.5 53.8996 49.4 51.3996 45C47.8996 38.8 43.4996 35.5 33.1996 35.5C27.5996 35.5 12.3996 37.4 12.0996 50.1C12.0996 51.4 12.0996 52.6 12.1996 53.8H39.9996C36.2996 59.7 32.7996 64.1 29.6996 67.4C33.3996 68.3 36.3996 69.1 39.1996 69.9C41.7996 70.6 44.2996 71.2 46.7996 71.9C50.5996 69.1 54.1996 66.1 57.2996 63.2Z" fill="url(#paint2_linear_10701_36715)"/>
<path d="M8.69963 52.3C9.79963 61.9 15.2996 65.7 26.4996 66.8C37.6996 67.9 44.0996 67.2 52.5996 67.9C59.6996 68.5 66.0996 72.2 68.3996 70.9C70.4996 69.8 69.2996 65.7 66.4996 63.1C62.7996 59.7 57.6996 57.4 48.7996 56.5C50.5996 51.6 50.0996 44.7 47.2996 41C43.2996 35.6 35.8996 33.2 26.4996 34.2C16.6996 35.4 7.29963 40.3 8.69963 52.3Z" fill="url(#paint3_linear_10701_36715)"/>
<defs>
<linearGradient id="paint0_linear_10701_36715" x1="28.6829" y1="39.1559" x2="94.2292" y2="57.7436" gradientUnits="userSpaceOnUse">
<stop stop-color="#8797FF"/>
<stop offset="1" stop-color="#AAA8FF"/>
</linearGradient>
<linearGradient id="paint1_linear_10701_36715" x1="80.7585" y1="40.6235" x2="33.4639" y2="-6.7869" gradientUnits="userSpaceOnUse">
<stop stop-color="#3B22A0"/>
<stop offset="1" stop-color="#5156D8" stop-opacity="0"/>
</linearGradient>
<linearGradient id="paint2_linear_10701_36715" x1="58.6046" y1="64.9135" x2="13.1729" y2="38.7935" gradientUnits="userSpaceOnUse">
<stop stop-color="#3B1E8F"/>
<stop offset="1" stop-color="#6A6FFB" stop-opacity="0"/>
</linearGradient>
<linearGradient id="paint3_linear_10701_36715" x1="25.516" y1="44.5466" x2="56.2245" y2="83.565" gradientUnits="userSpaceOnUse">
<stop stop-color="#8898FF"/>
<stop offset="0.9839" stop-color="#5F47F1"/>
</linearGradient>
</defs>
</svg>
