<svg width="32" height="33" viewBox="0 0 32 33" fill="none" xmlns="http://www.w3.org/2000/svg">
<path d="M28.0039 4.76855L17.5986 12.4967L19.5228 7.93719L28.0039 4.76855Z" fill="#E2761B"/>
<path d="M3.98438 4.76855L14.306 12.5699L12.4759 7.93719L3.98438 4.76855Z" fill="#E4761B"/>
<path d="M24.2605 22.6826L21.4893 26.9284L27.4187 28.5597L29.1233 22.7767L24.2605 22.6826Z" fill="#E4761B"/>
<path d="M2.88525 22.7767L4.57937 28.5597L10.5088 26.9284L7.73755 22.6826L2.88525 22.7767Z" fill="#E4761B"/>
<path d="M10.1728 15.5077L8.52051 18.007L14.4081 18.2685L14.1989 11.9417L10.1728 15.5077Z" fill="#E4761B"/>
<path d="M21.813 15.5093L17.7346 11.8701L17.5986 18.2701L23.4758 18.0087L21.813 15.5093Z" fill="#E4761B"/>
<path d="M10.5103 26.9279L14.0449 25.2024L10.9913 22.8181L10.5103 26.9279Z" fill="#E4761B"/>
<path d="M17.9424 25.2024L21.4875 26.9279L20.996 22.8181L17.9424 25.2024Z" fill="#E4761B"/>
<path d="M21.4929 26.9276L17.9478 25.2021L18.2301 27.5133L18.1987 28.4858L21.4929 26.9276Z" fill="#D7C1B3"/>
<path d="M10.5103 26.9276L13.8044 28.4858L13.7835 27.5133L14.0449 25.2021L10.5103 26.9276Z" fill="#D7C1B3"/>
<path d="M13.8553 21.2925L10.9062 20.4245L12.9873 19.4729L13.8553 21.2925Z" fill="#233447"/>
<path d="M18.1328 21.2925L19.0008 19.4729L21.0923 20.4245L18.1328 21.2925Z" fill="#233447"/>
<path d="M10.5105 26.9311L11.0125 22.6853L7.73926 22.7794L10.5105 26.9311Z" fill="#CD6116"/>
<path d="M20.9893 22.6853L21.4912 26.9311L24.2625 22.7794L20.9893 22.6853Z" fill="#CD6116"/>
<path d="M23.4782 18.0095L17.6011 18.271L18.1449 21.2932L19.0128 19.4736L21.1043 20.4252L23.4782 18.0095Z" fill="#CD6116"/>
<path d="M10.9073 20.4252L12.9988 19.4736L13.8563 21.2932L14.4105 18.271L8.52295 18.0095L10.9073 20.4252Z" fill="#CD6116"/>
<path d="M8.52344 18.0095L10.9914 22.82L10.9078 20.4252L8.52344 18.0095Z" fill="#E4751F"/>
<path d="M21.1046 20.4252L21 22.82L23.4784 18.0095L21.1046 20.4252Z" fill="#E4751F"/>
<path d="M14.4112 18.2712L13.8569 21.2935L14.5471 24.8595L14.704 20.1641L14.4112 18.2712Z" fill="#E4751F"/>
<path d="M17.6002 18.2712L17.3179 20.1536L17.4434 24.8595L18.144 21.2935L17.6002 18.2712Z" fill="#E4751F"/>
<path d="M18.143 21.2916L17.4424 24.8576L17.9443 25.2027L20.9979 22.8184L21.1025 20.4236L18.143 21.2916Z" fill="#F6851B"/>
<path d="M10.9062 20.4236L10.9899 22.8184L14.0435 25.2027L14.5455 24.8576L13.8553 21.2916L10.9062 20.4236Z" fill="#F6851B"/>
<path d="M18.1965 28.4869L18.2279 27.5143L17.9665 27.2843H14.024L13.7835 27.5143L13.8044 28.4869L10.5103 26.9287L11.6606 27.8699L13.9926 29.4908H17.9978L20.3403 27.8699L21.4907 26.9287L18.1965 28.4869Z" fill="#C0AD9E"/>
<path d="M17.9433 25.2023L17.4414 24.8572H14.5446L14.0427 25.2023L13.7812 27.5134L14.0218 27.2833H17.9643L18.2257 27.5134L17.9433 25.2023Z" fill="#161616"/>
<path d="M28.4447 12.9986L29.3336 8.73196L28.0055 4.76855L17.9453 12.2352L21.8146 15.5084L27.2839 17.1084L28.497 15.6967L27.9741 15.3202L28.8107 14.5568L28.1623 14.0548L28.9989 13.4169L28.4447 12.9986Z" fill="#763D16"/>
<path d="M2.6665 8.73196L3.55539 12.9986L2.99069 13.4169L3.82729 14.0548L3.18938 14.5568L4.02598 15.3202L3.50311 15.6967L4.70572 17.1084L10.175 15.5084L14.0443 12.2352L3.98415 4.76855L2.6665 8.73196Z" fill="#763D16"/>
<path d="M27.285 17.1081L21.8157 15.5081L23.4784 18.0074L21 22.8179L24.2627 22.776H29.1255L27.285 17.1081Z" fill="#F6851B"/>
<path d="M10.1742 15.5081L4.70486 17.1081L2.88525 22.776H7.73755L10.9898 22.8179L8.52186 18.0074L10.1742 15.5081Z" fill="#F6851B"/>
<path d="M17.6008 18.2698L17.9459 12.2358L19.5354 7.93774H12.4766L14.0452 12.2358L14.4112 18.2698L14.5367 20.1731L14.5472 24.858H17.4439L17.4648 20.1731L17.6008 18.2698Z" fill="#F6851B"/>
</svg>
