<svg width="32" height="32" viewBox="0 0 32 32" fill="none" xmlns="http://www.w3.org/2000/svg">
<path d="M7.84072 10.9346C12.2938 6.7132 19.5147 6.7132 23.9678 10.9346L24.504 11.4425C24.5568 11.4921 24.5989 11.5515 24.6276 11.6171C24.6563 11.6828 24.6711 11.7533 24.6711 11.8246C24.6711 11.8959 24.6563 11.9665 24.6276 12.0321C24.5989 12.0978 24.5568 12.1572 24.504 12.2068L22.6705 13.9446C22.6165 13.9954 22.5441 14.0238 22.4688 14.0238C22.3935 14.0238 22.3212 13.9954 22.2671 13.9446L21.5296 13.2453C18.4232 10.3011 13.386 10.3011 10.2789 13.2453L9.48905 13.9939C9.43498 14.0447 9.36264 14.073 9.28734 14.073C9.21204 14.073 9.1397 14.0447 9.08563 13.9939L7.25218 12.2561C7.19933 12.2064 7.1573 12.1471 7.1286 12.0814C7.0999 12.0158 7.08511 11.9452 7.08511 11.8739C7.08511 11.8026 7.0999 11.7321 7.1286 11.6664C7.1573 11.6008 7.19933 11.5414 7.25218 11.4918L7.84072 10.9346ZM27.7601 14.5282L29.3915 16.0753C29.4443 16.125 29.4863 16.1843 29.515 16.25C29.5437 16.3156 29.5585 16.3862 29.5585 16.4575C29.5585 16.5288 29.5437 16.5993 29.515 16.665C29.4863 16.7306 29.4443 16.79 29.3915 16.8396L22.0341 23.8139C21.926 23.9156 21.7813 23.9725 21.6307 23.9725C21.48 23.9725 21.3353 23.9156 21.2272 23.8139L16.0057 18.8639C15.9787 18.8383 15.9424 18.824 15.9046 18.824C15.8669 18.824 15.8306 18.8383 15.8036 18.8639L10.582 23.8139C10.474 23.9156 10.3293 23.9725 10.1786 23.9725C10.028 23.9725 9.88325 23.9156 9.7752 23.8139L2.41708 16.8396C2.36422 16.79 2.32219 16.7306 2.29349 16.665C2.26479 16.5993 2.25 16.5288 2.25 16.4575C2.25 16.3862 2.26479 16.3156 2.29349 16.25C2.32219 16.1843 2.36422 16.125 2.41708 16.0753L4.04918 14.5282C4.1572 14.4267 4.30176 14.37 4.45223 14.37C4.6027 14.37 4.74726 14.4267 4.85528 14.5282L10.0768 19.4782C10.1039 19.5038 10.1401 19.5181 10.1779 19.5181C10.2156 19.5181 10.2519 19.5038 10.2789 19.4782L15.5005 14.5282C15.6085 14.4265 15.7533 14.3697 15.9039 14.3697C16.0545 14.3697 16.1993 14.4265 16.3073 14.5282L21.5296 19.4782C21.5566 19.5038 21.5929 19.5181 21.6307 19.5181C21.6684 19.5181 21.7047 19.5038 21.7317 19.4782L26.9533 14.5282C27.0613 14.4265 27.206 14.3697 27.3567 14.3697C27.5073 14.3697 27.652 14.4265 27.7601 14.5282Z" fill="#5696F7"/>
</svg>
