<svg width="32" height="33" viewBox="0 0 32 33" fill="none" xmlns="http://www.w3.org/2000/svg">
<g clip-path="url(#clip0_157_64467)">
<path d="M16 0.768555C7.17603 0.768555 0 7.9379 0 16.7536C0 23.0899 3.70949 28.5801 9.07345 31.1644V31.1775H9.09972C11.1875 32.1811 13.5314 32.7452 16 32.7452C24.8239 32.7452 32 25.5759 32 16.7602C32 7.9379 24.8239 0.768555 16 0.768555ZM16 2.08042C24.0952 2.08042 30.6869 8.66599 30.6869 16.7536C30.6869 19.0756 30.142 21.2796 29.1768 23.2342C27.0627 22.211 24.9158 21.4502 22.7493 20.9319V8.69223C22.7493 8.26587 22.4145 7.92478 21.9942 7.92478H19.3024H12.5203H9.82848C9.41486 7.92478 9.07345 8.26587 9.07345 8.69223V20.991C6.97251 21.5091 4.88469 22.2569 2.82971 23.2408C1.85803 21.2796 1.31309 19.0822 1.31309 16.7536C1.31309 8.66599 7.90481 2.08042 16 2.08042ZM3.67665 24.7166C5.4165 23.8575 7.22199 23.1949 9.08002 22.7358V29.6886C6.88059 28.5145 5.02257 26.796 3.67665 24.7166ZM12.5203 31.007V14.6284C12.5203 12.7328 14.0763 11.1651 15.9343 11.1651C17.7923 11.1651 19.3024 12.7 19.3024 14.5891C19.3024 14.6022 19.2958 14.6153 19.2958 14.6284H19.3024V20.3285C17.7201 20.1449 16.1314 20.0857 14.5425 20.1711L13.2359 22.0667C15.2712 21.8962 17.2539 21.9093 19.2105 22.1324C19.2302 22.1324 19.2433 22.1324 19.2631 22.1389C19.2762 22.1389 19.2893 22.1389 19.309 22.1455C19.6504 22.1848 20.8913 22.3422 22.0271 22.6243L19.309 23.5491V31.0596C18.2453 31.3022 17.1424 31.4399 16.0131 31.4399C14.7985 31.4268 13.6364 31.276 12.5203 31.007ZM22.7427 29.7805V22.7686C24.5941 23.2342 26.4259 23.9164 28.2642 24.8085C26.8855 26.901 24.9815 28.6195 22.7427 29.7805Z" fill="url(#paint0_linear_157_64467)"/>
</g>
<defs>
<linearGradient id="paint0_linear_157_64467" x1="0.5" y1="16.757" x2="32.5009" y2="16.7135" gradientUnits="userSpaceOnUse">
<stop offset="0.0858" stop-color="#8D29C1"/>
<stop offset="0.2383" stop-color="#942BBB"/>
<stop offset="0.4667" stop-color="#A92FAC"/>
<stop offset="0.7413" stop-color="#CA3793"/>
<stop offset="1" stop-color="#F03F77"/>
</linearGradient>
<clipPath id="clip0_157_64467">
<rect width="32" height="32" fill="white" transform="translate(0 0.768555)"/>
</clipPath>
</defs>
</svg>
