<svg width="44" height="45" viewBox="0 0 44 45" fill="none" xmlns="http://www.w3.org/2000/svg">
<path d="M0 17.6732V34.3239C0 37.7638 0 39.4838 0.669457 40.7977C1.25833 41.9534 2.19796 42.893 3.35369 43.4819C4.66757 44.1513 6.38754 44.1513 9.82748 44.1513H26.4173C28.8632 44.1513 30.0861 44.1513 31.237 43.875C32.2574 43.6301 33.2328 43.226 34.1275 42.6777C35.1367 42.0593 36.0015 41.1946 37.731 39.4651L38.8069 38.3892C40.5364 36.6596 41.4011 35.7949 42.0196 34.7857C42.5679 33.891 42.9719 32.9156 43.2169 31.8952C43.4932 30.7443 43.4932 29.5214 43.4932 27.0755V10.9792V10.3582C43.4932 6.9183 43.4932 5.19833 42.8237 3.88445C42.2348 2.72872 41.2952 1.78909 40.1395 1.20022C38.8256 0.530762 37.1056 0.530762 33.6657 0.530762H33.0447H17.1587C14.7366 0.530762 13.5255 0.530762 12.3846 0.802121C11.3729 1.04272 10.405 1.43963 9.51572 1.97854C8.51271 2.58636 7.65031 3.43662 5.92551 5.13714L5.9255 5.13715L4.76676 6.27958C3.00807 8.01351 2.12872 8.88048 1.49963 9.89573C0.941899 10.7958 0.530663 11.7788 0.281287 12.8078C0 13.9686 0 15.2035 0 17.6732Z" fill="#E7E3FF"/>
<path d="M23.3076 20.576L30.3808 12.5308H28.7046L22.563 19.5163L17.6577 12.5308H12L19.4178 23.0941L12 31.5308H13.6762L20.1619 24.1538L25.3423 31.5308H31L23.3076 20.576ZM21.0118 23.1872L20.2602 22.1353L14.2802 13.7655H16.8547L21.6807 20.5202L22.4323 21.5721L28.7054 30.3522H26.1309L21.0118 23.1872Z" fill="black" stroke="black" stroke-width="0.8"/>
</svg>
