<svg width="33" height="33" viewBox="0 0 33 33" fill="none" xmlns="http://www.w3.org/2000/svg">
<path d="M16.5 0.768555C7.65676 0.768555 0.5 7.92531 0.5 16.7686C0.5 25.6118 7.65676 32.7686 16.5 32.7686C25.3432 32.7686 32.5 25.6118 32.5 16.7686C32.5 7.92531 25.3432 0.768555 16.5 0.768555ZM16.5 26.1307C11.3324 26.1307 7.13784 21.9361 7.13784 16.7686C7.13784 11.601 11.3324 7.40639 16.5 7.40639C21.6676 7.40639 25.8622 11.601 25.8622 16.7686C25.8622 21.9361 21.6676 26.1307 16.5 26.1307Z" fill="url(#paint0_linear_157_64473)"/>
<path d="M18.7702 19.7739H14.2296C13.8404 19.7739 13.5161 19.4495 13.5161 19.0603V14.4982C13.5161 14.109 13.8404 13.7847 14.2296 13.7847H18.7918C19.181 13.7847 19.5053 14.109 19.5053 14.4982V19.0603C19.5053 19.4495 19.181 19.7739 18.7702 19.7739Z" fill="#2059EB"/>
<defs>
<linearGradient id="paint0_linear_157_64473" x1="16.5" y1="32.7686" x2="16.5" y2="0.768555" gradientUnits="userSpaceOnUse">
<stop stop-color="#1447EA"/>
<stop offset="1" stop-color="#2B65FB"/>
</linearGradient>
</defs>
</svg>
