<svg width="317" height="245" viewBox="0 0 317 245" fill="none" xmlns="http://www.w3.org/2000/svg">
<path fill-rule="evenodd" clip-rule="evenodd" d="M186.424 -16.5229L196.183 -26.7759L205.941 -16.5229L254.253 34.2371L263.093 43.5248L254.253 52.8126L205.941 103.573L196.183 113.826L186.424 103.573L138.113 52.8126L129.273 43.5248L138.113 34.2371L186.424 -16.5229ZM196.183 74.7441L225.896 43.5248L196.183 12.3055L166.469 43.5248L196.183 74.7441ZM-28.8695 -23.95L213.433 231.86L263.814 231.86L23.4977 -23.9493L-28.8695 -23.95ZM204.4 148.951L283.094 231.86L316.561 231.86L237.651 148.951L204.4 148.951ZM-0.741676 58.959L-79.4355 -23.95L-46.1843 -23.9499L32.7252 58.959L-0.741676 58.959ZM40.0616 101.447L30.3032 111.7L-18.0086 162.46L-26.8483 171.748L-18.0086 181.036L30.3032 231.796L40.0616 242.049L49.82 231.796L98.1318 181.036L106.972 171.748L98.1318 162.46L49.8201 111.7L40.0616 101.447ZM69.7752 171.748L40.0616 202.967L10.3481 171.748L40.0616 140.529L69.7752 171.748Z" fill="url(#paint0_radial_6701_749549)"/>
<g filter="url(#filter0_f_6701_749549)">
<circle cx="47.8444" cy="47.8444" r="47.8444" transform="matrix(0.996073 0.0885398 -0.33501 0.942215 94.3047 59.2324)" fill="#7F9BFF" fill-opacity="0.53"/>
</g>
<path d="M185.798 72.7121C186.133 71.7696 187.212 71.0774 188.208 71.166L189.11 71.2461C190.107 71.3347 190.643 72.1705 190.308 73.1129L190.004 73.9662C189.669 74.9086 188.59 75.6008 187.593 75.5122L186.691 75.4321C185.695 75.3435 185.159 74.5077 185.494 73.5653L185.798 72.7121Z" fill="white"/>
<path d="M88.8054 142.297C89.1405 141.354 90.2198 140.662 91.2161 140.751L92.1181 140.831C93.1144 140.92 93.6504 141.755 93.3153 142.698L93.012 143.551C92.6769 144.493 91.5976 145.186 90.6012 145.097L89.6993 145.017C88.7029 144.928 88.1669 144.093 88.502 143.15L88.8054 142.297Z" fill="white"/>
<rect width="5.56769" height="5.56769" rx="1.81109" transform="matrix(0.996073 0.0885398 -0.33501 0.942215 151.463 144.856)" fill="white"/>
<path d="M121.53 119.185L124.311 119.411L121.53 138.591L111.706 137.927L121.53 119.185Z" fill="#9CB0F8"/>
<rect width="4.52773" height="4.52773" rx="1.81109" transform="matrix(0.996073 0.0885398 -0.33501 0.942215 77.5557 62.4634)" fill="white"/>
<rect width="4.52773" height="4.52773" rx="1.81109" transform="matrix(0.996073 0.0885398 -0.33501 0.942215 76.0391 68.6722)" fill="#9CB0F8"/>
<path d="M177.013 142.911C180.528 133.025 181.227 123.069 179.04 114.045C176.853 105.021 171.857 97.2481 164.555 91.5088L147.735 108.005C152.424 111.691 155.633 116.684 157.038 122.48C158.442 128.276 157.993 134.67 155.736 141.02L177.013 142.911Z" fill="#FF68F0"/>
<path d="M164.826 91.7233C157.615 85.9603 148.362 82.4017 137.99 81.4026C127.619 80.4034 116.491 81.9985 105.716 86.0288L109.943 104.486C116.864 101.897 124.011 100.872 130.672 101.514C137.334 102.156 143.277 104.442 147.908 108.143L164.826 91.7233Z" fill="#9CB0F8"/>
<path d="M105.72 86.0271C94.8306 90.0998 84.6883 96.5152 76.3259 104.62C67.9635 112.726 61.6795 122.231 58.1136 132.17L79.3693 134.121C81.6596 127.738 85.6957 121.632 91.0667 116.427C96.4377 111.221 102.952 107.1 109.946 104.484L105.72 86.0271Z" fill="#5FF4AD"/>
<g filter="url(#filter1_bi_6701_749549)">
<path d="M49.4727 119.949L70.665 121.919C72.9553 115.536 76.9913 109.43 82.3623 104.225C87.7333 99.0188 94.2475 94.8983 101.242 92.2826L96.985 73.84L100.546 76.9795L104.772 95.4368C97.7774 98.0526 91.2632 102.173 85.8922 107.379C80.5212 112.585 76.4851 118.69 74.1948 125.073L52.9391 123.122L49.4727 119.949Z" fill="url(#paint1_linear_6701_749549)"/>
</g>
<g filter="url(#filter2_f_6701_749549)">
<path d="M49.4727 119.949L70.665 121.919C72.9553 115.536 76.9913 109.43 82.3623 104.225C87.7333 99.0188 94.2475 94.8983 101.242 92.2826L96.985 73.84L100.546 76.9795L104.772 95.4368C97.7774 98.0526 91.2632 102.173 85.8922 107.379C80.5212 112.585 76.4851 118.69 74.1948 125.073L52.9391 123.122L49.4727 119.949Z" fill="url(#paint2_linear_6701_749549)"/>
</g>
<g filter="url(#filter3_f_6701_749549)">
<path d="M49.4727 119.949L70.6649 121.919C72.9553 115.536 76.9913 109.43 82.3623 104.225C87.7333 99.0188 94.2475 94.8983 101.242 92.2826L96.985 73.84L100.546 76.9795L104.772 95.4368C97.7774 98.0526 91.2632 102.173 85.8922 107.379C80.5212 112.585 76.4851 118.69 74.1948 125.073L52.9391 123.122L49.4727 119.949Z" fill="url(#paint3_linear_6701_749549)" fill-opacity="0.4"/>
</g>
<g filter="url(#filter4_bi_6701_749549)">
<path d="M97.0172 73.8255C86.1275 77.8981 75.9852 84.3136 67.6228 92.4188C59.2604 100.524 52.9764 110.03 49.4105 119.968L70.6662 121.919C72.9565 115.536 76.9925 109.431 82.3635 104.225C87.7346 99.0191 94.2487 94.8986 101.243 92.2828L97.0172 73.8255Z" fill="#9CB0F8" fill-opacity="0.17"/>
</g>
<g filter="url(#filter5_bi_6701_749549)">
<path d="M153.296 99.0659C158.072 102.791 161.199 108.242 162.483 113.539C163.888 119.335 163.439 125.729 161.181 132.079L182.433 133.966C182.433 133.966 181.461 136.314 181.04 137.497L159.763 135.606C162.02 129.256 162.47 122.862 161.065 117.066C159.66 111.27 156.452 106.278 151.762 102.591L153.296 99.0659Z" fill="url(#paint4_linear_6701_749549)"/>
</g>
<g filter="url(#filter6_f_6701_749549)">
<path d="M153.296 99.0659C158.072 102.791 161.199 108.242 162.483 113.539C163.888 119.335 163.439 125.729 161.181 132.079L182.433 133.966C182.433 133.966 181.461 136.314 181.04 137.497L159.763 135.606C162.02 129.256 162.47 122.862 161.065 117.066C159.66 111.27 156.452 106.278 151.762 102.591L153.296 99.0659Z" fill="url(#paint5_linear_6701_749549)"/>
</g>
<g filter="url(#filter7_f_6701_749549)">
<path d="M153.296 99.0659C158.072 102.791 161.199 108.242 162.483 113.539C163.888 119.335 163.439 125.729 161.181 132.079L182.433 133.966C182.433 133.966 181.461 136.314 181.04 137.497L159.763 135.606C162.02 129.256 162.47 122.862 161.065 117.066C159.66 111.27 156.452 106.278 151.762 102.591L153.296 99.0659Z" fill="url(#paint6_linear_6701_749549)" fill-opacity="0.4"/>
</g>
<g filter="url(#filter8_bi_6701_749549)">
<path d="M182.458 133.969C185.973 124.083 186.672 114.127 184.485 105.103C182.298 96.0789 177.303 88.3059 170.001 82.5666L153.18 99.0631C157.87 102.749 161.079 107.742 162.483 113.538C163.888 119.333 163.439 125.728 161.181 132.078L182.458 133.969Z" fill="#9CB0F8" fill-opacity="0.17"/>
</g>
<g filter="url(#filter9_bi_6701_749549)">
<path d="M105.923 75.3784L109.008 88.845C115.928 86.2565 123.075 85.232 129.737 85.8737C136.398 86.5155 142.341 88.801 146.973 92.5025L163.876 76.0885L164.826 81.15L147.909 97.5697C143.277 93.8683 137.334 91.5827 130.673 90.9409C124.011 90.2992 117.024 91.2478 110.104 93.8364L105.923 75.3784C105.992 75.3526 105.854 75.404 105.923 75.3784Z" fill="url(#paint7_linear_6701_749549)"/>
</g>
<g filter="url(#filter10_f_6701_749549)">
<path d="M105.923 75.3784L109.008 88.845C115.928 86.2565 123.075 85.232 129.737 85.8737C136.398 86.5155 142.341 88.801 146.973 92.5025L163.876 76.0885L164.826 81.15L147.909 97.5697C143.277 93.8683 137.334 91.5827 130.673 90.9409C124.011 90.2992 117.024 91.2478 110.104 93.8364L105.923 75.3784C105.992 75.3526 105.854 75.404 105.923 75.3784Z" fill="url(#paint8_linear_6701_749549)"/>
</g>
<g filter="url(#filter11_f_6701_749549)">
<path d="M105.923 75.3784L109.008 88.845C115.928 86.2565 123.075 85.232 129.737 85.8737C136.398 86.5155 142.341 88.801 146.973 92.5025L163.876 76.0885L164.826 81.15L147.909 97.5697C143.277 93.8683 137.334 91.5827 130.673 90.9409C124.011 90.2992 117.024 91.2478 110.104 93.8364L105.923 75.3784C105.992 75.3526 105.854 75.404 105.923 75.3784Z" fill="url(#paint9_linear_6701_749549)" fill-opacity="0.4"/>
</g>
<g filter="url(#filter12_bi_6701_749549)">
<path d="M163.891 76.0817C156.679 70.3187 147.426 66.7601 137.055 65.761C126.683 64.7618 115.555 66.3569 104.78 70.3872L109.008 88.8439C115.928 86.2553 123.075 85.2308 129.737 85.8726C136.398 86.5143 142.341 88.7999 146.973 92.5014L163.891 76.0817Z" fill="#9CB0F8" fill-opacity="0.17"/>
</g>
<defs>
<filter id="filter0_f_6701_749549" x="-15.115" y="-27.4878" width="282.096" height="272.072" filterUnits="userSpaceOnUse" color-interpolation-filters="sRGB">
<feFlood flood-opacity="0" result="BackgroundImageFix"/>
<feBlend mode="normal" in="SourceGraphic" in2="BackgroundImageFix" result="shape"/>
<feGaussianBlur stdDeviation="45.3773" result="effect1_foregroundBlur_6701_749549"/>
</filter>
<filter id="filter1_bi_6701_749549" x="33.7519" y="65.483" width="79.3766" height="67.9472" filterUnits="userSpaceOnUse" color-interpolation-filters="sRGB">
<feFlood flood-opacity="0" result="BackgroundImageFix"/>
<feGaussianBlur in="BackgroundImageFix" stdDeviation="4.17849"/>
<feComposite in2="SourceAlpha" operator="in" result="effect1_backgroundBlur_6701_749549"/>
<feBlend mode="normal" in="SourceGraphic" in2="effect1_backgroundBlur_6701_749549" result="shape"/>
<feColorMatrix in="SourceAlpha" type="matrix" values="0 0 0 0 0 0 0 0 0 0 0 0 0 0 0 0 0 0 127 0" result="hardAlpha"/>
<feOffset dx="-15.7208" dy="-1.9651"/>
<feGaussianBlur stdDeviation="75.6563"/>
<feComposite in2="hardAlpha" operator="arithmetic" k2="-1" k3="1"/>
<feColorMatrix type="matrix" values="0 0 0 0 0.396078 0 0 0 0 0.894118 0 0 0 0 1 0 0 0 0.1 0"/>
<feBlend mode="normal" in2="shape" result="effect2_innerShadow_6701_749549"/>
</filter>
<filter id="filter2_f_6701_749549" x="42.7871" y="67.1544" width="68.67" height="64.6044" filterUnits="userSpaceOnUse" color-interpolation-filters="sRGB">
<feFlood flood-opacity="0" result="BackgroundImageFix"/>
<feBlend mode="normal" in="SourceGraphic" in2="BackgroundImageFix" result="shape"/>
<feGaussianBlur stdDeviation="3.34279" result="effect1_foregroundBlur_6701_749549"/>
</filter>
<filter id="filter3_f_6701_749549" x="36.1015" y="60.4688" width="82.0412" height="77.9756" filterUnits="userSpaceOnUse" color-interpolation-filters="sRGB">
<feFlood flood-opacity="0" result="BackgroundImageFix"/>
<feBlend mode="normal" in="SourceGraphic" in2="BackgroundImageFix" result="shape"/>
<feGaussianBlur stdDeviation="6.68558" result="effect1_foregroundBlur_6701_749549"/>
</filter>
<filter id="filter4_bi_6701_749549" x="33.6894" y="65.4685" width="75.9108" height="64.8077" filterUnits="userSpaceOnUse" color-interpolation-filters="sRGB">
<feFlood flood-opacity="0" result="BackgroundImageFix"/>
<feGaussianBlur in="BackgroundImageFix" stdDeviation="4.17849"/>
<feComposite in2="SourceAlpha" operator="in" result="effect1_backgroundBlur_6701_749549"/>
<feBlend mode="normal" in="SourceGraphic" in2="effect1_backgroundBlur_6701_749549" result="shape"/>
<feColorMatrix in="SourceAlpha" type="matrix" values="0 0 0 0 0 0 0 0 0 0 0 0 0 0 0 0 0 0 127 0" result="hardAlpha"/>
<feOffset dx="-15.7208" dy="-1.9651"/>
<feGaussianBlur stdDeviation="75.6563"/>
<feComposite in2="hardAlpha" operator="arithmetic" k2="-1" k3="1"/>
<feColorMatrix type="matrix" values="0 0 0 0 0.396078 0 0 0 0 0.894118 0 0 0 0 1 0 0 0 0.1 0"/>
<feBlend mode="normal" in2="shape" result="effect2_innerShadow_6701_749549"/>
</filter>
<filter id="filter5_bi_6701_749549" x="136.041" y="90.7089" width="54.7487" height="55.1454" filterUnits="userSpaceOnUse" color-interpolation-filters="sRGB">
<feFlood flood-opacity="0" result="BackgroundImageFix"/>
<feGaussianBlur in="BackgroundImageFix" stdDeviation="4.17849"/>
<feComposite in2="SourceAlpha" operator="in" result="effect1_backgroundBlur_6701_749549"/>
<feBlend mode="normal" in="SourceGraphic" in2="effect1_backgroundBlur_6701_749549" result="shape"/>
<feColorMatrix in="SourceAlpha" type="matrix" values="0 0 0 0 0 0 0 0 0 0 0 0 0 0 0 0 0 0 127 0" result="hardAlpha"/>
<feOffset dx="-15.7208" dy="-1.9651"/>
<feGaussianBlur stdDeviation="75.6563"/>
<feComposite in2="hardAlpha" operator="arithmetic" k2="-1" k3="1"/>
<feColorMatrix type="matrix" values="0 0 0 0 0.396078 0 0 0 0 0.894118 0 0 0 0 1 0 0 0 0.1 0"/>
<feBlend mode="normal" in2="shape" result="effect2_innerShadow_6701_749549"/>
</filter>
<filter id="filter6_f_6701_749549" x="145.076" y="92.3803" width="44.0421" height="51.8026" filterUnits="userSpaceOnUse" color-interpolation-filters="sRGB">
<feFlood flood-opacity="0" result="BackgroundImageFix"/>
<feBlend mode="normal" in="SourceGraphic" in2="BackgroundImageFix" result="shape"/>
<feGaussianBlur stdDeviation="3.34279" result="effect1_foregroundBlur_6701_749549"/>
</filter>
<filter id="filter7_f_6701_749549" x="138.391" y="85.6948" width="57.4132" height="65.1737" filterUnits="userSpaceOnUse" color-interpolation-filters="sRGB">
<feFlood flood-opacity="0" result="BackgroundImageFix"/>
<feBlend mode="normal" in="SourceGraphic" in2="BackgroundImageFix" result="shape"/>
<feGaussianBlur stdDeviation="6.68558" result="effect1_foregroundBlur_6701_749549"/>
</filter>
<filter id="filter8_bi_6701_749549" x="137.459" y="74.2097" width="56.6305" height="68.1163" filterUnits="userSpaceOnUse" color-interpolation-filters="sRGB">
<feFlood flood-opacity="0" result="BackgroundImageFix"/>
<feGaussianBlur in="BackgroundImageFix" stdDeviation="4.17849"/>
<feComposite in2="SourceAlpha" operator="in" result="effect1_backgroundBlur_6701_749549"/>
<feBlend mode="normal" in="SourceGraphic" in2="effect1_backgroundBlur_6701_749549" result="shape"/>
<feColorMatrix in="SourceAlpha" type="matrix" values="0 0 0 0 0 0 0 0 0 0 0 0 0 0 0 0 0 0 127 0" result="hardAlpha"/>
<feOffset dx="-15.7208" dy="-1.9651"/>
<feGaussianBlur stdDeviation="75.6563"/>
<feComposite in2="hardAlpha" operator="arithmetic" k2="-1" k3="1"/>
<feColorMatrix type="matrix" values="0 0 0 0 0.396078 0 0 0 0 0.894118 0 0 0 0 1 0 0 0 0.1 0"/>
<feBlend mode="normal" in2="shape" result="effect2_innerShadow_6701_749549"/>
</filter>
<filter id="filter9_bi_6701_749549" x="90.1825" y="67.014" width="83.0006" height="38.9127" filterUnits="userSpaceOnUse" color-interpolation-filters="sRGB">
<feFlood flood-opacity="0" result="BackgroundImageFix"/>
<feGaussianBlur in="BackgroundImageFix" stdDeviation="4.17849"/>
<feComposite in2="SourceAlpha" operator="in" result="effect1_backgroundBlur_6701_749549"/>
<feBlend mode="normal" in="SourceGraphic" in2="effect1_backgroundBlur_6701_749549" result="shape"/>
<feColorMatrix in="SourceAlpha" type="matrix" values="0 0 0 0 0 0 0 0 0 0 0 0 0 0 0 0 0 0 127 0" result="hardAlpha"/>
<feOffset dx="-15.7208" dy="-1.9651"/>
<feGaussianBlur stdDeviation="75.6563"/>
<feComposite in2="hardAlpha" operator="arithmetic" k2="-1" k3="1"/>
<feColorMatrix type="matrix" values="0 0 0 0 0.396078 0 0 0 0 0.894118 0 0 0 0 1 0 0 0 0.1 0"/>
<feBlend mode="normal" in2="shape" result="effect2_innerShadow_6701_749549"/>
</filter>
<filter id="filter10_f_6701_749549" x="99.2177" y="68.6854" width="72.294" height="35.5699" filterUnits="userSpaceOnUse" color-interpolation-filters="sRGB">
<feFlood flood-opacity="0" result="BackgroundImageFix"/>
<feBlend mode="normal" in="SourceGraphic" in2="BackgroundImageFix" result="shape"/>
<feGaussianBlur stdDeviation="3.34279" result="effect1_foregroundBlur_6701_749549"/>
</filter>
<filter id="filter11_f_6701_749549" x="92.5322" y="61.9998" width="85.6652" height="48.9411" filterUnits="userSpaceOnUse" color-interpolation-filters="sRGB">
<feFlood flood-opacity="0" result="BackgroundImageFix"/>
<feBlend mode="normal" in="SourceGraphic" in2="BackgroundImageFix" result="shape"/>
<feGaussianBlur stdDeviation="6.68558" result="effect1_foregroundBlur_6701_749549"/>
</filter>
<filter id="filter12_bi_6701_749549" x="89.0595" y="57.1142" width="83.1881" height="43.7441" filterUnits="userSpaceOnUse" color-interpolation-filters="sRGB">
<feFlood flood-opacity="0" result="BackgroundImageFix"/>
<feGaussianBlur in="BackgroundImageFix" stdDeviation="4.17849"/>
<feComposite in2="SourceAlpha" operator="in" result="effect1_backgroundBlur_6701_749549"/>
<feBlend mode="normal" in="SourceGraphic" in2="effect1_backgroundBlur_6701_749549" result="shape"/>
<feColorMatrix in="SourceAlpha" type="matrix" values="0 0 0 0 0 0 0 0 0 0 0 0 0 0 0 0 0 0 127 0" result="hardAlpha"/>
<feOffset dx="-15.7208" dy="-1.9651"/>
<feGaussianBlur stdDeviation="75.6563"/>
<feComposite in2="hardAlpha" operator="arithmetic" k2="-1" k3="1"/>
<feColorMatrix type="matrix" values="0 0 0 0 0.396078 0 0 0 0 0.894118 0 0 0 0 1 0 0 0 0.1 0"/>
<feBlend mode="normal" in2="shape" result="effect2_innerShadow_6701_749549"/>
</filter>
<radialGradient id="paint0_radial_6701_749549" cx="0" cy="0" r="1" gradientUnits="userSpaceOnUse" gradientTransform="translate(119.643 97.4838) rotate(117.955) scale(202.714 121.728)">
<stop stop-color="#6CD3FF" stop-opacity="0.11"/>
<stop offset="1" stop-color="#23212B" stop-opacity="0.05"/>
</radialGradient>
<linearGradient id="paint1_linear_6701_749549" x1="98.8454" y1="74.6177" x2="48.3692" y2="154.199" gradientUnits="userSpaceOnUse">
<stop stop-color="#7CFFC1"/>
<stop offset="0.0990174" stop-color="#5FF4AD"/>
<stop offset="0.324651" stop-color="white"/>
<stop offset="0.575236" stop-color="#029479"/>
<stop offset="0.6597" stop-color="#5FE2FF"/>
<stop offset="0.728614" stop-color="#65E3FF"/>
</linearGradient>
<linearGradient id="paint2_linear_6701_749549" x1="98.8454" y1="74.6177" x2="48.3692" y2="154.199" gradientUnits="userSpaceOnUse">
<stop stop-color="#7CFFC1"/>
<stop offset="0.0990174" stop-color="#5FF4AD"/>
<stop offset="0.324651" stop-color="white"/>
<stop offset="0.575236" stop-color="#029479"/>
<stop offset="0.6597" stop-color="#5FE2FF"/>
<stop offset="0.728614" stop-color="#65E3FF"/>
</linearGradient>
<linearGradient id="paint3_linear_6701_749549" x1="98.8454" y1="74.6177" x2="48.3692" y2="154.199" gradientUnits="userSpaceOnUse">
<stop stop-color="#7CFFC1"/>
<stop offset="0.0990174" stop-color="#5FF4AD"/>
<stop offset="0.324651" stop-color="white"/>
<stop offset="0.575236" stop-color="#029479"/>
<stop offset="0.6597" stop-color="#5FE2FF"/>
<stop offset="0.728614" stop-color="#65E3FF"/>
</linearGradient>
<linearGradient id="paint4_linear_6701_749549" x1="187.13" y1="134.408" x2="180.803" y2="93.2268" gradientUnits="userSpaceOnUse">
<stop offset="0.0178516" stop-color="#68FFE4"/>
<stop offset="0.0816078" stop-color="#FF68F0"/>
<stop offset="0.290559" stop-color="white"/>
<stop offset="0.621464" stop-color="#65F6FF"/>
<stop offset="0.736587" stop-color="#536DF3"/>
<stop offset="1" stop-color="#C24FEB"/>
</linearGradient>
<linearGradient id="paint5_linear_6701_749549" x1="139.818" y1="86.1423" x2="182.091" y2="90.1373" gradientUnits="userSpaceOnUse">
<stop stop-color="#7CFFC1"/>
<stop offset="0.324359" stop-color="#5FF4AD"/>
<stop offset="0.492308" stop-color="white"/>
<stop offset="0.716667" stop-color="#5FE2FF"/>
<stop offset="0.859528" stop-color="#65E3FF"/>
</linearGradient>
<linearGradient id="paint6_linear_6701_749549" x1="139.818" y1="86.1423" x2="182.091" y2="90.1373" gradientUnits="userSpaceOnUse">
<stop stop-color="#7CFFC1"/>
<stop offset="0.324359" stop-color="#5FF4AD"/>
<stop offset="0.492308" stop-color="white"/>
<stop offset="0.716667" stop-color="#5FE2FF"/>
<stop offset="0.859528" stop-color="#65E3FF"/>
</linearGradient>
<linearGradient id="paint7_linear_6701_749549" x1="166.984" y1="105.362" x2="118.738" y2="133.649" gradientUnits="userSpaceOnUse">
<stop stop-color="#7CFFC1"/>
<stop offset="0.136786" stop-color="#5FF4AD"/>
<stop offset="0.456317" stop-color="white"/>
<stop offset="0.678478" stop-color="#5FE2FF"/>
<stop offset="0.779699" stop-color="#65E3FF"/>
</linearGradient>
<linearGradient id="paint8_linear_6701_749549" x1="166.984" y1="105.362" x2="118.738" y2="133.649" gradientUnits="userSpaceOnUse">
<stop stop-color="#7CFFC1"/>
<stop offset="0.136786" stop-color="#5FF4AD"/>
<stop offset="0.456317" stop-color="white"/>
<stop offset="0.678478" stop-color="#5FE2FF"/>
<stop offset="0.779699" stop-color="#65E3FF"/>
</linearGradient>
<linearGradient id="paint9_linear_6701_749549" x1="166.984" y1="105.362" x2="118.738" y2="133.649" gradientUnits="userSpaceOnUse">
<stop stop-color="#7CFFC1"/>
<stop offset="0.136786" stop-color="#5FF4AD"/>
<stop offset="0.456317" stop-color="white"/>
<stop offset="0.678478" stop-color="#5FE2FF"/>
<stop offset="0.779699" stop-color="#65E3FF"/>
</linearGradient>
</defs>
</svg>
