<svg width="357" height="349" viewBox="0 0 357 349" fill="none" xmlns="http://www.w3.org/2000/svg">
    <path fill-rule="evenodd" clip-rule="evenodd"
        d="M136.744 314.465L16.7384 196.583L16.8652 228.908L136.871 346.999L136.744 314.465ZM29.9688 168.075L18.045 180.093L30.0627 192.017L128.078 289.266L140.095 301.19L152.019 289.172L237.967 202.548L320.464 276.056L348.804 301.308L348.655 263.35L347.992 94.246L347.843 56.2874L319.702 81.7615L237.784 155.914L151.16 69.9666L139.142 58.0428L127.218 70.0605L29.9688 168.075ZM212.646 178.669L139.33 105.926L65.9281 179.905L139.908 253.307L212.651 179.991L211.913 179.333L212.646 178.669ZM262.585 179.134L314.282 132.337L314.648 225.524L262.585 179.134ZM140.339 7.81313L239.155 102.516L239.283 135.05L140.465 40.1377L140.339 7.81313Z"
        fill="url(#paint0_radial_1589_284720)" />
    <g filter="url(#filter0_f_1589_284720)">
        <path
            d="M148.09 171.942L169.401 123.99L233.617 129.599L212.039 147.729L222.961 198.862L123.974 225.221L139.116 184.28L148.09 171.942Z"
            fill="#3FF0ED" fill-opacity="0.2" />
    </g>
    <g filter="url(#filter1_f_1589_284720)">
        <path
            d="M148.09 171.942L169.401 123.99L233.617 129.599L212.039 147.729L222.961 198.862L123.974 225.221L139.116 184.28L148.09 171.942Z"
            fill="#3FF0ED" fill-opacity="0.2" />
    </g>
    <g filter="url(#filter2_f_1589_284720)">
        <path
            d="M136.192 175.027L155.358 134.636L227.741 140.987L205.37 155.928L222.572 199.818L114.409 219.893L127.357 185.334L136.192 175.027Z"
            fill="#3FF0ED" fill-opacity="0.2" />
    </g>
    <path
        d="M169.115 216.368C169.441 215.452 170.489 214.78 171.457 214.866L172.333 214.944C173.301 215.03 173.822 215.842 173.496 216.757L173.202 217.586C172.876 218.501 171.828 219.174 170.86 219.088L169.984 219.01C169.016 218.924 168.495 218.112 168.821 217.196L169.115 216.368Z"
        fill="white" />
    <path
        d="M232.429 190.023C232.682 189.31 233.498 188.787 234.252 188.854L235.297 188.947C236.051 189.014 236.456 189.645 236.203 190.358L231.88 202.515C231.434 203.769 229.551 204.135 229.141 203.048L228.585 201.576C228.496 201.342 228.501 201.071 228.597 200.801L232.429 190.023Z"
        fill="white" />
    <path
        d="M227.564 154.671C227.889 153.756 228.938 153.083 229.905 153.169L230.782 153.247C231.749 153.333 232.27 154.145 231.945 155.061L231.65 155.89C231.324 156.805 230.276 157.477 229.308 157.391L228.432 157.314C227.464 157.227 226.944 156.416 227.269 155.5L227.564 154.671Z"
        fill="#5FF4AD" />
    <rect width="4.39823" height="4.39823" rx="1.75929"
        transform="matrix(0.996073 0.0885398 -0.33501 0.942215 176.198 215.062)" fill="#43EFEF" />
    <rect width="4.39823" height="4.39823" rx="1.75929"
        transform="matrix(0.996073 0.0885398 -0.33501 0.942215 224.907 159.508)" fill="white" />
    <path d="M141.288 152.503L166.607 140.917L172.889 152.351L229.933 127.866" stroke="#5FF4AD"
        stroke-width="9.40717" />
    <path fill-rule="evenodd" clip-rule="evenodd"
        d="M214.347 182.968C213.581 185.124 211.775 186.931 209.636 187.936C213.676 189.497 215.573 193.65 213.943 198.234L210.21 208.733L186.947 206.665L186.947 206.664L183.142 206.326L183.142 206.326L164.954 204.709L167.586 197.308C168.943 193.491 172.721 190.488 176.759 189.687C175.597 188.668 175.172 187.02 175.804 185.243C176.786 182.481 179.949 180.452 182.869 180.711C185.789 180.971 187.36 183.421 186.378 186.183C185.746 187.96 184.21 189.434 182.417 190.19C182.743 190.336 183.051 190.502 183.341 190.687C184.927 189.623 186.718 188.858 188.555 188.493C187.231 187.332 186.746 185.454 187.467 183.428C188.586 180.281 192.19 177.969 195.518 178.265C198.845 178.561 200.635 181.352 199.516 184.499C198.796 186.525 197.046 188.205 195.003 189.066C195.346 189.219 195.672 189.393 195.979 189.584C197.746 188.393 199.763 187.567 201.821 187.242C200.505 185.929 200.055 183.922 200.822 181.766C202.078 178.233 206.124 175.638 209.859 175.97C213.594 176.302 215.603 179.435 214.347 182.968Z"
        fill="#5FE2FF" />
    <path fill-rule="evenodd" clip-rule="evenodd"
        d="M126.8 175.185C126.034 177.34 126.483 179.347 127.798 180.66C122.93 181.429 118.286 185 116.656 189.585L112.923 200.083L127.303 201.362L139.995 202.49L139.995 202.49L158.183 204.106L160.814 196.705C162.171 192.888 160.695 189.419 157.458 187.97C159.251 187.215 160.787 185.741 161.419 183.963C162.401 181.201 160.83 178.751 157.91 178.492C154.99 178.232 151.827 180.261 150.845 183.023C150.213 184.8 150.638 186.449 151.8 187.467C151.392 187.548 150.986 187.651 150.585 187.776C149.83 186.503 148.677 185.476 147.203 184.816C149.245 183.955 150.995 182.276 151.715 180.25C152.834 177.103 151.044 174.311 147.716 174.016C144.389 173.72 140.784 176.032 139.665 179.179C138.945 181.205 139.43 183.082 140.753 184.243C140.326 184.328 139.902 184.434 139.482 184.561C138.645 183.138 137.321 182.015 135.614 181.355C137.754 180.35 139.559 178.543 140.326 176.387C141.582 172.854 139.572 169.721 135.838 169.389C132.103 169.057 128.057 171.652 126.8 175.185Z"
        fill="#5FE2FF" />
    <g filter="url(#filter3_bi_1589_284720)">
        <path fill-rule="evenodd" clip-rule="evenodd"
            d="M192.855 159.411C190.24 166.767 181.815 172.171 174.038 171.479C169.878 171.11 166.747 169.071 165.133 166.129C166.176 170.29 169.763 173.341 174.945 173.802C182.722 174.493 191.147 169.09 193.762 161.734C194.979 158.312 194.724 155.07 193.322 152.512C193.844 154.595 193.728 156.957 192.855 159.411ZM139.577 191.318L138.752 191.263L141.53 195.211L141.528 195.22L141.537 195.221L141.545 195.232L141.549 195.222L196.879 200.14L197.281 198.655C199.501 190.45 197.422 183.015 192.295 178.101C195.645 182.876 196.507 189.317 194.074 196.162L139.577 191.318Z"
            fill="url(#paint1_linear_1589_284720)" />
    </g>
    <g filter="url(#filter4_bi_1589_284720)">
        <circle cx="14.1368" cy="14.1368" r="14.1368"
            transform="matrix(0.996073 0.0885398 -0.33501 0.942215 169.427 143.589)" fill="#9CB0F8"
            fill-opacity="0.17" />
        <path fill-rule="evenodd" clip-rule="evenodd"
            d="M163.56 170.279C152.596 172.649 142.418 180.856 138.725 191.242L194.076 196.162C197.795 185.703 193.816 176.186 185.031 172.118C181.282 174.064 177.073 175.05 173.008 174.689C168.983 174.331 165.737 172.71 163.56 170.279Z"
            fill="#9CB0F8" fill-opacity="0.17" />
    </g>
    <g filter="url(#filter5_f_1589_284720)">
        <path fill-rule="evenodd" clip-rule="evenodd"
            d="M192.855 159.411C190.24 166.767 181.815 172.171 174.038 171.479C169.878 171.11 166.747 169.071 165.133 166.129C166.176 170.29 169.763 173.341 174.945 173.802C182.722 174.493 191.147 169.09 193.762 161.734C194.979 158.312 194.724 155.07 193.322 152.512C193.844 154.595 193.728 156.957 192.855 159.411ZM139.577 191.318L138.752 191.263L141.53 195.211L141.528 195.22L141.537 195.221L141.545 195.232L141.549 195.222L196.879 200.14L197.281 198.655C199.501 190.45 197.422 183.015 192.295 178.101C195.645 182.876 196.507 189.317 194.074 196.162L139.577 191.318Z"
            fill="url(#paint2_linear_1589_284720)" />
    </g>
    <g filter="url(#filter6_f_1589_284720)">
        <path fill-rule="evenodd" clip-rule="evenodd"
            d="M192.855 159.411C190.24 166.767 181.815 172.171 174.038 171.479C169.878 171.11 166.747 169.071 165.133 166.129C166.176 170.29 169.763 173.341 174.945 173.802C182.722 174.493 191.147 169.09 193.762 161.734C194.979 158.312 194.724 155.07 193.322 152.512C193.844 154.595 193.728 156.957 192.855 159.411ZM139.577 191.318L138.752 191.263L141.53 195.211L141.528 195.22L141.537 195.221L141.545 195.232L141.549 195.222L196.879 200.14L197.281 198.655C199.501 190.45 197.422 183.015 192.295 178.101C195.645 182.876 196.507 189.317 194.074 196.162L139.577 191.318Z"
            fill="url(#paint3_linear_1589_284720)" />
    </g>
    <rect width="5.40845" height="5.40845" rx="1.75929"
        transform="matrix(0.996073 0.0885398 -0.33501 0.942215 123.459 135.088)" fill="white" />
    <defs>
        <filter id="filter0_f_1589_284720" x="0.366577" y="0.383179" width="356.858" height="348.445"
            filterUnits="userSpaceOnUse" color-interpolation-filters="sRGB">
            <feFlood flood-opacity="0" result="BackgroundImageFix" />
            <feBlend mode="normal" in="SourceGraphic" in2="BackgroundImageFix" result="shape" />
            <feGaussianBlur stdDeviation="61.8035" result="effect1_foregroundBlur_1589_284720" />
        </filter>
        <filter id="filter1_f_1589_284720" x="62.1701" y="62.1867" width="233.251" height="224.838"
            filterUnits="userSpaceOnUse" color-interpolation-filters="sRGB">
            <feFlood flood-opacity="0" result="BackgroundImageFix" />
            <feBlend mode="normal" in="SourceGraphic" in2="BackgroundImageFix" result="shape" />
            <feGaussianBlur stdDeviation="30.9018" result="effect1_foregroundBlur_1589_284720" />
        </filter>
        <filter id="filter2_f_1589_284720" x="49.465" y="69.693" width="243.219" height="215.144"
            filterUnits="userSpaceOnUse" color-interpolation-filters="sRGB">
            <feFlood flood-opacity="0" result="BackgroundImageFix" />
            <feBlend mode="normal" in="SourceGraphic" in2="BackgroundImageFix" result="shape" />
            <feGaussianBlur stdDeviation="32.4719" result="effect1_foregroundBlur_1589_284720" />
        </filter>
        <filter id="filter3_bi_1589_284720" x="124.139" y="144.394" width="82.1424" height="63.8639"
            filterUnits="userSpaceOnUse" color-interpolation-filters="sRGB">
            <feFlood flood-opacity="0" result="BackgroundImageFix" />
            <feGaussianBlur in="BackgroundImageFix" stdDeviation="4.05898" />
            <feComposite in2="SourceAlpha" operator="in" result="effect1_backgroundBlur_1589_284720" />
            <feBlend mode="normal" in="SourceGraphic" in2="effect1_backgroundBlur_1589_284720" result="shape" />
            <feColorMatrix in="SourceAlpha" type="matrix" values="0 0 0 0 0 0 0 0 0 0 0 0 0 0 0 0 0 0 127 0"
                result="hardAlpha" />
            <feOffset dx="-14.6123" dy="-1.78595" />
            <feGaussianBlur stdDeviation="69.0027" />
            <feComposite in2="hardAlpha" operator="arithmetic" k2="-1" k3="1" />
            <feColorMatrix type="matrix" values="0 0 0 0 0.396078 0 0 0 0 0.894118 0 0 0 0 1 0 0 0 0.1 0" />
            <feBlend mode="normal" in2="shape" result="effect2_innerShadow_1589_284720" />
        </filter>
        <filter id="filter4_bi_1589_284720" x="123.301" y="136.663" width="80.2845" height="67.6168"
            filterUnits="userSpaceOnUse" color-interpolation-filters="sRGB">
            <feFlood flood-opacity="0" result="BackgroundImageFix" />
            <feGaussianBlur in="BackgroundImageFix" stdDeviation="4.05898" />
            <feComposite in2="SourceAlpha" operator="in" result="effect1_backgroundBlur_1589_284720" />
            <feBlend mode="normal" in="SourceGraphic" in2="effect1_backgroundBlur_1589_284720" result="shape" />
            <feColorMatrix in="SourceAlpha" type="matrix" values="0 0 0 0 0 0 0 0 0 0 0 0 0 0 0 0 0 0 127 0"
                result="hardAlpha" />
            <feOffset dx="-15.4241" dy="-1.62359" />
            <feGaussianBlur stdDeviation="73.0617" />
            <feComposite in2="hardAlpha" operator="arithmetic" k2="-1" k3="1" />
            <feColorMatrix type="matrix" values="0 0 0 0 0.396078 0 0 0 0 0.894118 0 0 0 0 1 0 0 0 0.1 0" />
            <feBlend mode="normal" in2="shape" result="effect2_innerShadow_1589_284720" />
        </filter>
        <filter id="filter5_f_1589_284720" x="132.257" y="146.017" width="72.4009" height="60.6167"
            filterUnits="userSpaceOnUse" color-interpolation-filters="sRGB">
            <feFlood flood-opacity="0" result="BackgroundImageFix" />
            <feBlend mode="normal" in="SourceGraphic" in2="BackgroundImageFix" result="shape" />
            <feGaussianBlur stdDeviation="3.24719" result="effect1_foregroundBlur_1589_284720" />
        </filter>
        <filter id="filter6_f_1589_284720" x="125.763" y="139.523" width="85.3896" height="73.6054"
            filterUnits="userSpaceOnUse" color-interpolation-filters="sRGB">
            <feFlood flood-opacity="0" result="BackgroundImageFix" />
            <feBlend mode="normal" in="SourceGraphic" in2="BackgroundImageFix" result="shape" />
            <feGaussianBlur stdDeviation="6.49437" result="effect1_foregroundBlur_1589_284720" />
        </filter>
        <radialGradient id="paint0_radial_1589_284720" cx="0" cy="0" r="1" gradientUnits="userSpaceOnUse"
            gradientTransform="translate(180.408 178.168) rotate(100.557) scale(189.262 227.988)">
            <stop stop-color="#6CD3FF" stop-opacity="0.11" />
            <stop offset="1" stop-color="#23212B" stop-opacity="0.05" />
        </radialGradient>
        <linearGradient id="paint1_linear_1589_284720" x1="207.99" y1="197.3" x2="207.745" y2="146.62"
            gradientUnits="userSpaceOnUse">
            <stop offset="0.0178516" stop-color="#B468FF" />
            <stop offset="0.0816078" stop-color="#FF68F0" />
            <stop offset="0.290559" stop-color="white" />
            <stop offset="0.621464" stop-color="#65F6FF" />
            <stop offset="0.736587" stop-color="#536DF3" />
            <stop offset="1" stop-color="#C24FEB" />
        </linearGradient>
        <linearGradient id="paint2_linear_1589_284720" x1="207.99" y1="197.3" x2="207.745" y2="146.62"
            gradientUnits="userSpaceOnUse">
            <stop offset="0.0178516" stop-color="#B468FF" />
            <stop offset="0.0816078" stop-color="#FF68F0" />
            <stop offset="0.290559" stop-color="white" />
            <stop offset="0.621464" stop-color="#65F6FF" />
            <stop offset="0.736587" stop-color="#536DF3" />
            <stop offset="1" stop-color="#C24FEB" />
        </linearGradient>
        <linearGradient id="paint3_linear_1589_284720" x1="207.99" y1="197.3" x2="207.745" y2="146.62"
            gradientUnits="userSpaceOnUse">
            <stop offset="0.0178516" stop-color="#B468FF" />
            <stop offset="0.0816078" stop-color="#FF68F0" />
            <stop offset="0.290559" stop-color="white" />
            <stop offset="0.621464" stop-color="#65F6FF" />
            <stop offset="0.736587" stop-color="#536DF3" />
            <stop offset="1" stop-color="#C24FEB" />
        </linearGradient>
    </defs>
</svg>