<svg width="375" height="330" viewBox="0 0 375 330" fill="none" xmlns="http://www.w3.org/2000/svg">
    <path fill-rule="evenodd" clip-rule="evenodd"
        d="M336.736 50.8649L326.369 40.4121L316.003 50.8649L264.536 102.761L254.34 113.041L264.536 123.322L316.003 175.218L326.369 185.671L336.736 175.218L388.203 123.322L398.398 113.041L388.203 102.761L336.736 50.8649ZM326.369 144.204L295.465 113.041L326.369 81.8791L357.274 113.041L326.369 144.204ZM277.515 271.665L379.169 169.025L379.169 204.743L277.515 307.614V271.665ZM201.085 91.9691L302.709 194.639L294.783 238.58L193.21 135.627L201.085 91.9691ZM29.5395 50.8649L39.9059 40.4121L50.2723 50.8649L101.739 102.761L111.935 113.041L101.739 123.322L50.2723 175.218L39.9059 185.671L29.5395 175.218L-21.9273 123.322L-32.123 113.041L-21.9273 102.761L29.5395 50.8649ZM39.9059 144.204L70.8106 113.041L39.9059 81.8791L9.00124 113.041L39.9059 144.204ZM-12.8941 169.025L88.7608 271.665L88.7608 307.614L-12.894 204.743L-12.8941 169.025ZM63.5625 194.635L165.191 91.9691L172.12 134.674L70.5371 237.617L63.5625 194.635Z"
        fill="url(#paint0_radial_1586_185657)" />
    <g filter="url(#filter0_f_1586_185657)">
        <path
            d="M162.884 162.738L183.022 117.428L243.701 122.728L223.312 139.859L233.632 188.175L140.096 213.083L154.405 174.397L162.884 162.738Z"
            fill="#3FF0ED" fill-opacity="0.2" />
    </g>
    <g filter="url(#filter1_f_1586_185657)">
        <path
            d="M162.884 162.738L183.022 117.428L243.701 122.727L223.312 139.859L233.632 188.175L140.096 213.083L154.405 174.397L162.884 162.738Z"
            fill="#3FF0ED" fill-opacity="0.2" />
    </g>
    <g filter="url(#filter2_bi_1586_185657)">
        <path
            d="M179.654 147.813L208.932 119.452L232.854 121.579L211.808 138.837L226.261 140.121L154.001 197.102L199.756 149.599L179.654 147.813Z"
            fill="#3FF0ED" />
    </g>
    <g filter="url(#filter3_bi_1586_185657)">
        <path
            d="M193.034 185.832C195.259 187.062 198.001 187.822 201.259 188.111C204.601 188.408 207.706 188.086 210.573 187.143C213.44 186.201 215.856 184.805 217.823 182.957C219.832 181.112 221.264 178.989 222.117 176.588C222.371 175.875 222.559 175.194 222.681 174.546C223.117 176.117 222.95 177.982 222.182 180.144C221.328 182.545 219.897 184.668 217.888 186.513C215.921 188.361 213.504 189.756 210.638 190.699C207.771 191.642 204.666 191.964 201.323 191.667C198.065 191.378 195.324 190.618 193.099 189.388C190.873 188.158 189.327 186.493 188.458 184.392C187.88 182.923 187.724 181.289 187.991 179.49C188.088 179.953 188.223 180.402 188.394 180.836C189.262 182.937 190.809 184.602 193.034 185.832Z"
            fill="url(#paint1_linear_1586_185657)" />
        <path
            d="M206.912 159.339C207.359 158.46 207.993 157.794 208.814 157.341C209.86 156.732 211.039 156.485 212.351 156.602C213.874 156.737 214.98 157.249 215.668 158.136C216.371 158.983 216.523 160.09 216.124 161.459L227.865 162.502C228.514 160.346 228.746 156.292 228.392 154.58C228.289 155.3 228.034 158.169 227.801 158.946L216.059 157.903C216.458 156.534 216.306 155.427 215.604 154.58C214.915 153.693 213.809 153.182 212.286 153.046C210.974 152.93 209.796 153.176 208.75 153.785C207.718 154.354 206.982 155.258 206.541 156.499C206.148 157.604 206.271 158.55 206.912 159.339Z"
            fill="url(#paint2_linear_1586_185657)" />
        <path
            d="M210.479 176.358C210.395 176.595 210.297 176.82 210.186 177.035C209.714 176.374 209.047 175.798 208.188 175.308C207.287 174.773 205.941 174.138 204.152 173.4C201.573 172.304 199.524 171.255 198.003 170.253C196.483 169.25 195.358 167.871 194.63 166.113C194.126 164.895 194.021 163.466 194.317 161.824C194.385 162.076 194.468 162.321 194.566 162.557C195.294 164.315 196.418 165.695 197.939 166.697C199.459 167.699 201.509 168.748 204.087 169.845C205.877 170.582 207.222 171.217 208.123 171.752C209.067 172.29 209.777 172.931 210.255 173.675C210.774 174.423 210.849 175.318 210.479 176.358Z"
            fill="url(#paint3_linear_1586_185657)" />
    </g>
    <g filter="url(#filter4_bi_1586_185657)">
        <path
            d="M201.259 188.111C198.001 187.822 195.259 187.062 193.034 185.832C190.809 184.602 189.262 182.937 188.394 180.836C187.568 178.74 187.603 176.307 188.501 173.538L200.052 174.564C199.666 176.14 199.81 177.392 200.485 178.319C201.173 179.206 202.3 179.719 203.866 179.858C205.474 180.001 206.864 179.774 208.037 179.176C209.224 178.538 210.038 177.599 210.479 176.358C210.849 175.318 210.774 174.423 210.255 173.675C209.777 172.931 209.067 172.29 208.123 171.752C207.222 171.217 205.877 170.582 204.087 169.845C201.509 168.748 199.459 167.699 197.939 166.697C196.418 165.695 195.294 164.315 194.566 162.557C193.837 160.8 193.943 158.6 194.882 155.958C196.277 152.036 198.867 149.108 202.654 147.173C206.455 145.199 210.768 144.426 215.591 144.855C220.499 145.291 224.057 146.764 226.264 149.272C228.486 151.74 228.998 154.965 227.801 158.946L216.059 157.903C216.458 156.534 216.307 155.427 215.604 154.58C214.915 153.693 213.809 153.182 212.286 153.046C210.974 152.93 209.796 153.176 208.75 153.785C207.718 154.354 206.982 155.258 206.541 156.499C206.057 157.86 206.357 158.981 207.44 159.862C208.524 160.742 210.348 161.751 212.912 162.887C215.462 164.064 217.476 165.151 218.954 166.149C220.475 167.152 221.606 168.512 222.349 170.229C223.091 171.947 223.014 174.066 222.117 176.588C221.264 178.989 219.832 181.112 217.823 182.957C215.856 184.805 213.44 186.201 210.573 187.143C207.706 188.086 204.601 188.408 201.259 188.111Z"
            fill="#9CB0F8" fill-opacity="0.17" />
    </g>
    <g filter="url(#filter5_f_1586_185657)">
        <path
            d="M193.034 185.832C195.259 187.062 198.001 187.821 201.259 188.111C204.601 188.408 207.706 188.085 210.573 187.143C213.44 186.2 215.856 184.805 217.823 182.956C219.832 181.112 221.264 178.989 222.117 176.587C222.371 175.875 222.559 175.194 222.681 174.546C223.117 176.116 222.95 177.982 222.182 180.143C221.328 182.545 219.897 184.668 217.888 186.512C215.921 188.361 213.504 189.756 210.638 190.699C207.771 191.641 204.666 191.964 201.323 191.667C198.065 191.377 195.324 190.617 193.099 189.387C190.873 188.157 189.327 186.492 188.458 184.392C187.88 182.923 187.724 181.289 187.991 179.489C188.088 179.953 188.223 180.402 188.394 180.836C189.262 182.936 190.809 184.602 193.034 185.832Z"
            fill="url(#paint4_linear_1586_185657)" />
        <path
            d="M206.912 159.338C207.359 158.459 207.993 157.793 208.814 157.34C209.86 156.731 211.039 156.485 212.351 156.602C213.874 156.737 214.98 157.248 215.668 158.135C216.371 158.982 216.523 160.09 216.124 161.458L227.865 162.502C228.514 160.346 228.746 156.292 228.392 154.579C228.289 155.299 228.034 158.168 227.801 158.946L216.059 157.902C216.458 156.534 216.306 155.426 215.604 154.579C214.915 153.692 213.809 153.181 212.286 153.046C210.974 152.929 209.796 153.175 208.75 153.784C207.718 154.353 206.982 155.258 206.541 156.499C206.148 157.603 206.271 158.55 206.912 159.338Z"
            fill="url(#paint5_linear_1586_185657)" />
        <path
            d="M210.479 176.358C210.395 176.595 210.297 176.82 210.186 177.035C209.714 176.373 209.047 175.797 208.188 175.307C207.287 174.773 205.941 174.137 204.152 173.4C201.573 172.304 199.524 171.255 198.003 170.252C196.483 169.25 195.358 167.87 194.63 166.113C194.126 164.895 194.021 163.466 194.317 161.824C194.385 162.076 194.468 162.32 194.566 162.557C195.294 164.314 196.418 165.694 197.939 166.696C199.459 167.699 201.509 168.748 204.087 169.844C205.877 170.581 207.222 171.217 208.123 171.751C209.067 172.289 209.777 172.931 210.255 173.675C210.774 174.423 210.849 175.317 210.479 176.358Z"
            fill="url(#paint6_linear_1586_185657)" />
    </g>
    <g filter="url(#filter6_f_1586_185657)">
        <path
            d="M193.034 185.832C195.259 187.062 198.001 187.821 201.259 188.111C204.601 188.408 207.706 188.085 210.573 187.143C213.44 186.2 215.856 184.805 217.823 182.956C219.832 181.112 221.264 178.989 222.117 176.587C222.371 175.875 222.559 175.194 222.681 174.546C223.117 176.116 222.95 177.982 222.182 180.143C221.328 182.545 219.897 184.668 217.888 186.512C215.921 188.361 213.504 189.756 210.638 190.699C207.771 191.641 204.666 191.964 201.323 191.667C198.065 191.377 195.324 190.617 193.099 189.387C190.873 188.157 189.327 186.492 188.458 184.392C187.88 182.923 187.724 181.289 187.991 179.489C188.088 179.953 188.223 180.402 188.394 180.836C189.262 182.936 190.809 184.602 193.034 185.832Z"
            fill="url(#paint7_linear_1586_185657)" fill-opacity="0.4" />
        <path
            d="M206.912 159.338C207.359 158.459 207.993 157.793 208.814 157.34C209.86 156.731 211.039 156.485 212.351 156.602C213.874 156.737 214.98 157.248 215.668 158.135C216.371 158.982 216.523 160.09 216.124 161.458L227.865 162.502C228.514 160.346 228.746 156.292 228.392 154.579C228.289 155.299 228.034 158.168 227.801 158.946L216.059 157.902C216.458 156.534 216.306 155.426 215.604 154.579C214.915 153.692 213.809 153.181 212.286 153.046C210.974 152.929 209.796 153.175 208.75 153.784C207.718 154.353 206.982 155.258 206.541 156.499C206.148 157.603 206.271 158.55 206.912 159.338Z"
            fill="url(#paint8_linear_1586_185657)" fill-opacity="0.4" />
        <path
            d="M210.479 176.358C210.395 176.595 210.297 176.82 210.186 177.035C209.714 176.373 209.047 175.797 208.188 175.307C207.287 174.773 205.941 174.137 204.152 173.4C201.573 172.304 199.524 171.255 198.003 170.252C196.483 169.25 195.358 167.87 194.63 166.113C194.126 164.895 194.021 163.466 194.317 161.824C194.385 162.076 194.468 162.32 194.566 162.557C195.294 164.314 196.418 165.694 197.939 166.696C199.459 167.699 201.509 168.748 204.087 169.844C205.877 170.581 207.222 171.217 208.123 171.751C209.067 172.289 209.777 172.931 210.255 173.675C210.774 174.423 210.849 175.317 210.479 176.358Z"
            fill="url(#paint9_linear_1586_185657)" fill-opacity="0.4" />
    </g>
    <g filter="url(#filter7_bi_1586_185657)">
        <path d="M170.381 156.383V130.891L168.947 127.035L168.729 158.579L170.381 156.383Z"
            fill="url(#paint10_linear_1586_185657)" />
        <path
            d="M201.23 129.948L171.731 168.999L158.7 167.94L160.307 170.555L173.335 171.713L202.475 133.144L201.23 129.948Z"
            fill="url(#paint11_linear_1586_185657)" />
    </g>
    <g filter="url(#filter8_bi_1586_185657)">
        <path
            d="M201.239 129.938L171.707 169.016L158.679 167.858L157.894 126.086L168.974 127.07L168.715 158.532L190.22 128.959L201.239 129.938Z"
            fill="#9CB0F8" fill-opacity="0.17" />
    </g>
    <g filter="url(#filter9_f_1586_185657)">
        <path d="M170.812 155.649L171.016 130.843L168.98 127.101L168.715 158.532L170.812 155.649Z"
            fill="url(#paint12_linear_1586_185657)" />
        <path
            d="M201.235 129.945L171.707 169.016L158.732 167.831L160.721 171.631L173.749 172.789L203.281 133.711L201.235 129.945Z"
            fill="url(#paint13_linear_1586_185657)" />
    </g>
    <g filter="url(#filter10_f_1586_185657)">
        <path d="M170.812 155.649L171.016 130.843L168.98 127.101L168.715 158.532L170.812 155.649Z"
            fill="url(#paint14_linear_1586_185657)" fill-opacity="0.4" />
        <path
            d="M201.235 129.945L171.707 169.016L158.732 167.831L160.721 171.631L173.749 172.789L203.281 133.711L201.235 129.945Z"
            fill="url(#paint15_linear_1586_185657)" fill-opacity="0.4" />
    </g>
    <path
        d="M235.005 134.027C235.298 133.204 236.241 132.599 237.111 132.676L237.899 132.746C238.769 132.824 239.237 133.554 238.945 134.377L238.68 135.122C238.387 135.946 237.444 136.55 236.574 136.473L235.786 136.403C234.916 136.326 234.447 135.595 234.74 134.772L235.005 134.027Z"
        fill="white" />
    <rect width="4.86344" height="4.86344" rx="1.58201"
        transform="matrix(0.996073 0.0885398 -0.33501 0.942215 180.585 196.074)" fill="white" />
    <path
        d="M138.406 163.799C138.634 163.158 139.368 162.688 140.045 162.748L140.986 162.832C141.663 162.892 142.027 163.46 141.8 164.101L137.913 175.033C137.512 176.16 135.819 176.489 135.449 175.512L134.95 174.189C134.87 173.978 134.874 173.735 134.96 173.492L138.406 163.799Z"
        fill="white" />
    <path
        d="M143.007 122.056C143.3 121.233 144.242 120.628 145.113 120.705L145.901 120.775C146.771 120.853 147.239 121.583 146.946 122.406L146.681 123.151C146.389 123.975 145.446 124.579 144.576 124.502L143.788 124.432C142.917 124.354 142.449 123.624 142.742 122.801L143.007 122.056Z"
        fill="#43EFEF" />
    <rect width="3.95502" height="3.95502" rx="1.58201"
        transform="matrix(0.996073 0.0885398 -0.33501 0.942215 235.535 183.661)" fill="#43EFEF" />
    <rect width="3.95502" height="3.95502" rx="1.58201"
        transform="matrix(0.996073 0.0885398 -0.33501 0.942215 233.819 188.484)" fill="white" />
    <defs>
        <filter id="filter0_f_1586_185657" x="23.2978" y="0.629173" width="337.202" height="329.252"
            filterUnits="userSpaceOnUse" color-interpolation-filters="sRGB">
            <feFlood flood-opacity="0" result="BackgroundImageFix" />
            <feBlend mode="normal" in="SourceGraphic" in2="BackgroundImageFix" result="shape" />
            <feGaussianBlur stdDeviation="58.3993" result="effect1_foregroundBlur_1586_185657" />
        </filter>
        <filter id="filter1_f_1586_185657" x="81.6971" y="59.0283" width="220.403" height="212.454"
            filterUnits="userSpaceOnUse" color-interpolation-filters="sRGB">
            <feFlood flood-opacity="0" result="BackgroundImageFix" />
            <feBlend mode="normal" in="SourceGraphic" in2="BackgroundImageFix" result="shape" />
            <feGaussianBlur stdDeviation="29.1997" result="effect1_foregroundBlur_1586_185657" />
        </filter>
        <filter id="filter2_bi_1586_185657" x="141.117" y="112.603" width="98.5874" height="91.3492"
            filterUnits="userSpaceOnUse" color-interpolation-filters="sRGB">
            <feFlood flood-opacity="0" result="BackgroundImageFix" />
            <feGaussianBlur in="BackgroundImageFix" stdDeviation="3.42472" />
            <feComposite in2="SourceAlpha" operator="in" result="effect1_backgroundBlur_1586_185657" />
            <feBlend mode="normal" in="SourceGraphic" in2="effect1_backgroundBlur_1586_185657" result="shape" />
            <feColorMatrix in="SourceAlpha" type="matrix" values="0 0 0 0 0 0 0 0 0 0 0 0 0 0 0 0 0 0 127 0"
                result="hardAlpha" />
            <feOffset dx="-12.8849" dy="-1.61061" />
            <feGaussianBlur stdDeviation="62.0085" />
            <feComposite in2="hardAlpha" operator="arithmetic" k2="-1" k3="1" />
            <feColorMatrix type="matrix" values="0 0 0 0 0.396078 0 0 0 0 0.894118 0 0 0 0 1 0 0 0 0.1 0" />
            <feBlend mode="normal" in2="shape" result="effect2_innerShadow_1586_185657" />
        </filter>
        <filter id="filter3_bi_1586_185657" x="174.98" y="146.169" width="60.4272" height="52.4549"
            filterUnits="userSpaceOnUse" color-interpolation-filters="sRGB">
            <feFlood flood-opacity="0" result="BackgroundImageFix" />
            <feGaussianBlur in="BackgroundImageFix" stdDeviation="3.42472" />
            <feComposite in2="SourceAlpha" operator="in" result="effect1_backgroundBlur_1586_185657" />
            <feBlend mode="normal" in="SourceGraphic" in2="effect1_backgroundBlur_1586_185657" result="shape" />
            <feColorMatrix in="SourceAlpha" type="matrix" values="0 0 0 0 0 0 0 0 0 0 0 0 0 0 0 0 0 0 127 0"
                result="hardAlpha" />
            <feOffset dx="-12.8849" dy="-1.61061" />
            <feGaussianBlur stdDeviation="62.0085" />
            <feComposite in2="hardAlpha" operator="arithmetic" k2="-1" k3="1" />
            <feColorMatrix type="matrix" values="0 0 0 0 0.396078 0 0 0 0 0.894118 0 0 0 0 1 0 0 0 0.1 0" />
            <feBlend mode="normal" in2="shape" result="effect2_innerShadow_1586_185657" />
        </filter>
        <filter id="filter4_bi_1586_185657" x="174.068" y="137.44" width="61.6621" height="58.0776"
            filterUnits="userSpaceOnUse" color-interpolation-filters="sRGB">
            <feFlood flood-opacity="0" result="BackgroundImageFix" />
            <feGaussianBlur in="BackgroundImageFix" stdDeviation="3.64996" />
            <feComposite in2="SourceAlpha" operator="in" result="effect1_backgroundBlur_1586_185657" />
            <feBlend mode="normal" in="SourceGraphic" in2="effect1_backgroundBlur_1586_185657" result="shape" />
            <feColorMatrix in="SourceAlpha" type="matrix" values="0 0 0 0 0 0 0 0 0 0 0 0 0 0 0 0 0 0 127 0"
                result="hardAlpha" />
            <feOffset dx="-13.7323" dy="-1.71654" />
            <feGaussianBlur stdDeviation="66.0867" />
            <feComposite in2="hardAlpha" operator="arithmetic" k2="-1" k3="1" />
            <feColorMatrix type="matrix" values="0 0 0 0 0.396078 0 0 0 0 0.894118 0 0 0 0 1 0 0 0 0.1 0" />
            <feBlend mode="normal" in2="shape" result="effect2_innerShadow_1586_185657" />
        </filter>
        <filter id="filter5_f_1586_185657" x="182.025" y="147.178" width="52.3727" height="50.4359"
            filterUnits="userSpaceOnUse" color-interpolation-filters="sRGB">
            <feFlood flood-opacity="0" result="BackgroundImageFix" />
            <feBlend mode="normal" in="SourceGraphic" in2="BackgroundImageFix" result="shape" />
            <feGaussianBlur stdDeviation="2.91997" result="effect1_foregroundBlur_1586_185657" />
        </filter>
        <filter id="filter6_f_1586_185657" x="176.185" y="141.338" width="64.0526" height="62.1157"
            filterUnits="userSpaceOnUse" color-interpolation-filters="sRGB">
            <feFlood flood-opacity="0" result="BackgroundImageFix" />
            <feBlend mode="normal" in="SourceGraphic" in2="BackgroundImageFix" result="shape" />
            <feGaussianBlur stdDeviation="5.83993" result="effect1_foregroundBlur_1586_185657" />
        </filter>
        <filter id="filter7_bi_1586_185657" x="145.816" y="120.185" width="63.5087" height="58.377"
            filterUnits="userSpaceOnUse" color-interpolation-filters="sRGB">
            <feFlood flood-opacity="0" result="BackgroundImageFix" />
            <feGaussianBlur in="BackgroundImageFix" stdDeviation="3.42472" />
            <feComposite in2="SourceAlpha" operator="in" result="effect1_backgroundBlur_1586_185657" />
            <feBlend mode="normal" in="SourceGraphic" in2="effect1_backgroundBlur_1586_185657" result="shape" />
            <feColorMatrix in="SourceAlpha" type="matrix" values="0 0 0 0 0 0 0 0 0 0 0 0 0 0 0 0 0 0 127 0"
                result="hardAlpha" />
            <feOffset dx="-12.8849" dy="-1.61061" />
            <feGaussianBlur stdDeviation="62.0085" />
            <feComposite in2="hardAlpha" operator="arithmetic" k2="-1" k3="1" />
            <feColorMatrix type="matrix" values="0 0 0 0 0.396078 0 0 0 0 0.894118 0 0 0 0 1 0 0 0 0.1 0" />
            <feBlend mode="normal" in2="shape" result="effect2_innerShadow_1586_185657" />
        </filter>
        <filter id="filter8_bi_1586_185657" x="144.162" y="118.786" width="64.3769" height="57.5305"
            filterUnits="userSpaceOnUse" color-interpolation-filters="sRGB">
            <feFlood flood-opacity="0" result="BackgroundImageFix" />
            <feGaussianBlur in="BackgroundImageFix" stdDeviation="3.64996" />
            <feComposite in2="SourceAlpha" operator="in" result="effect1_backgroundBlur_1586_185657" />
            <feBlend mode="normal" in="SourceGraphic" in2="effect1_backgroundBlur_1586_185657" result="shape" />
            <feColorMatrix in="SourceAlpha" type="matrix" values="0 0 0 0 0 0 0 0 0 0 0 0 0 0 0 0 0 0 127 0"
                result="hardAlpha" />
            <feOffset dx="-13.7323" dy="-1.71654" />
            <feGaussianBlur stdDeviation="66.0867" />
            <feComposite in2="hardAlpha" operator="arithmetic" k2="-1" k3="1" />
            <feColorMatrix type="matrix" values="0 0 0 0 0.396078 0 0 0 0 0.894118 0 0 0 0 1 0 0 0 0.1 0" />
            <feBlend mode="normal" in2="shape" result="effect2_innerShadow_1586_185657" />
        </filter>
        <filter id="filter9_f_1586_185657" x="152.892" y="121.261" width="56.2285" height="57.3683"
            filterUnits="userSpaceOnUse" color-interpolation-filters="sRGB">
            <feFlood flood-opacity="0" result="BackgroundImageFix" />
            <feBlend mode="normal" in="SourceGraphic" in2="BackgroundImageFix" result="shape" />
            <feGaussianBlur stdDeviation="2.91997" result="effect1_foregroundBlur_1586_185657" />
        </filter>
        <filter id="filter10_f_1586_185657" x="147.053" y="115.421" width="67.9083" height="69.0482"
            filterUnits="userSpaceOnUse" color-interpolation-filters="sRGB">
            <feFlood flood-opacity="0" result="BackgroundImageFix" />
            <feBlend mode="normal" in="SourceGraphic" in2="BackgroundImageFix" result="shape" />
            <feGaussianBlur stdDeviation="5.83993" result="effect1_foregroundBlur_1586_185657" />
        </filter>
        <radialGradient id="paint0_radial_1586_185657" cx="0" cy="0" r="1" gradientUnits="userSpaceOnUse"
            gradientTransform="translate(183.138 174.013) rotate(157.143) scale(188.115 119.59)">
            <stop stop-color="#6CD3FF" stop-opacity="0.11" />
            <stop offset="1" stop-color="#23212B" stop-opacity="0.05" />
        </radialGradient>
        <linearGradient id="paint1_linear_1586_185657" x1="234.717" y1="188.659" x2="229.812" y2="146.723"
            gradientUnits="userSpaceOnUse">
            <stop offset="0.0178516" stop-color="#B468FF" />
            <stop offset="0.0816078" stop-color="#FF68F0" />
            <stop offset="0.290559" stop-color="white" />
            <stop offset="0.621464" stop-color="#65F6FF" />
            <stop offset="0.736587" stop-color="#536DF3" />
            <stop offset="1" stop-color="#C24FEB" />
        </linearGradient>
        <linearGradient id="paint2_linear_1586_185657" x1="234.717" y1="188.659" x2="229.812" y2="146.723"
            gradientUnits="userSpaceOnUse">
            <stop offset="0.0178516" stop-color="#B468FF" />
            <stop offset="0.0816078" stop-color="#FF68F0" />
            <stop offset="0.290559" stop-color="white" />
            <stop offset="0.621464" stop-color="#65F6FF" />
            <stop offset="0.736587" stop-color="#536DF3" />
            <stop offset="1" stop-color="#C24FEB" />
        </linearGradient>
        <linearGradient id="paint3_linear_1586_185657" x1="234.717" y1="188.659" x2="229.812" y2="146.723"
            gradientUnits="userSpaceOnUse">
            <stop offset="0.0178516" stop-color="#B468FF" />
            <stop offset="0.0816078" stop-color="#FF68F0" />
            <stop offset="0.290559" stop-color="white" />
            <stop offset="0.621464" stop-color="#65F6FF" />
            <stop offset="0.736587" stop-color="#536DF3" />
            <stop offset="1" stop-color="#C24FEB" />
        </linearGradient>
        <linearGradient id="paint4_linear_1586_185657" x1="234.717" y1="188.658" x2="229.812" y2="146.723"
            gradientUnits="userSpaceOnUse">
            <stop offset="0.0178516" stop-color="#B468FF" />
            <stop offset="0.0816078" stop-color="#FF68F0" />
            <stop offset="0.290559" stop-color="white" />
            <stop offset="0.621464" stop-color="#65F6FF" />
            <stop offset="0.736587" stop-color="#536DF3" />
            <stop offset="1" stop-color="#C24FEB" />
        </linearGradient>
        <linearGradient id="paint5_linear_1586_185657" x1="234.717" y1="188.658" x2="229.812" y2="146.723"
            gradientUnits="userSpaceOnUse">
            <stop offset="0.0178516" stop-color="#B468FF" />
            <stop offset="0.0816078" stop-color="#FF68F0" />
            <stop offset="0.290559" stop-color="white" />
            <stop offset="0.621464" stop-color="#65F6FF" />
            <stop offset="0.736587" stop-color="#536DF3" />
            <stop offset="1" stop-color="#C24FEB" />
        </linearGradient>
        <linearGradient id="paint6_linear_1586_185657" x1="234.717" y1="188.658" x2="229.812" y2="146.723"
            gradientUnits="userSpaceOnUse">
            <stop offset="0.0178516" stop-color="#B468FF" />
            <stop offset="0.0816078" stop-color="#FF68F0" />
            <stop offset="0.290559" stop-color="white" />
            <stop offset="0.621464" stop-color="#65F6FF" />
            <stop offset="0.736587" stop-color="#536DF3" />
            <stop offset="1" stop-color="#C24FEB" />
        </linearGradient>
        <linearGradient id="paint7_linear_1586_185657" x1="234.717" y1="188.658" x2="229.812" y2="146.723"
            gradientUnits="userSpaceOnUse">
            <stop offset="0.0178516" stop-color="#B468FF" />
            <stop offset="0.0816078" stop-color="#FF68F0" />
            <stop offset="0.290559" stop-color="white" />
            <stop offset="0.621464" stop-color="#65F6FF" />
            <stop offset="0.736587" stop-color="#536DF3" />
            <stop offset="1" stop-color="#C24FEB" />
        </linearGradient>
        <linearGradient id="paint8_linear_1586_185657" x1="234.717" y1="188.658" x2="229.812" y2="146.723"
            gradientUnits="userSpaceOnUse">
            <stop offset="0.0178516" stop-color="#B468FF" />
            <stop offset="0.0816078" stop-color="#FF68F0" />
            <stop offset="0.290559" stop-color="white" />
            <stop offset="0.621464" stop-color="#65F6FF" />
            <stop offset="0.736587" stop-color="#536DF3" />
            <stop offset="1" stop-color="#C24FEB" />
        </linearGradient>
        <linearGradient id="paint9_linear_1586_185657" x1="234.717" y1="188.658" x2="229.812" y2="146.723"
            gradientUnits="userSpaceOnUse">
            <stop offset="0.0178516" stop-color="#B468FF" />
            <stop offset="0.0816078" stop-color="#FF68F0" />
            <stop offset="0.290559" stop-color="white" />
            <stop offset="0.621464" stop-color="#65F6FF" />
            <stop offset="0.736587" stop-color="#536DF3" />
            <stop offset="1" stop-color="#C24FEB" />
        </linearGradient>
        <linearGradient id="paint10_linear_1586_185657" x1="209.69" y1="168.041" x2="203.486" y2="118.707"
            gradientUnits="userSpaceOnUse">
            <stop offset="0.0178516" stop-color="#B468FF" />
            <stop offset="0.0816078" stop-color="#FF68F0" />
            <stop offset="0.290559" stop-color="white" />
            <stop offset="0.621464" stop-color="#65F6FF" />
            <stop offset="0.736587" stop-color="#536DF3" />
            <stop offset="1" stop-color="#C24FEB" />
        </linearGradient>
        <linearGradient id="paint11_linear_1586_185657" x1="209.69" y1="168.041" x2="203.486" y2="118.707"
            gradientUnits="userSpaceOnUse">
            <stop offset="0.0178516" stop-color="#B468FF" />
            <stop offset="0.0816078" stop-color="#FF68F0" />
            <stop offset="0.290559" stop-color="white" />
            <stop offset="0.621464" stop-color="#65F6FF" />
            <stop offset="0.736587" stop-color="#536DF3" />
            <stop offset="1" stop-color="#C24FEB" />
        </linearGradient>
        <linearGradient id="paint12_linear_1586_185657" x1="210.104" y1="169.117" x2="203.9" y2="119.783"
            gradientUnits="userSpaceOnUse">
            <stop offset="0.0178516" stop-color="#B468FF" />
            <stop offset="0.0816078" stop-color="#FF68F0" />
            <stop offset="0.290559" stop-color="white" />
            <stop offset="0.621464" stop-color="#65F6FF" />
            <stop offset="0.736587" stop-color="#536DF3" />
            <stop offset="1" stop-color="#C24FEB" />
        </linearGradient>
        <linearGradient id="paint13_linear_1586_185657" x1="210.104" y1="169.117" x2="203.9" y2="119.783"
            gradientUnits="userSpaceOnUse">
            <stop offset="0.0178516" stop-color="#B468FF" />
            <stop offset="0.0816078" stop-color="#FF68F0" />
            <stop offset="0.290559" stop-color="white" />
            <stop offset="0.621464" stop-color="#65F6FF" />
            <stop offset="0.736587" stop-color="#536DF3" />
            <stop offset="1" stop-color="#C24FEB" />
        </linearGradient>
        <linearGradient id="paint14_linear_1586_185657" x1="210.104" y1="169.117" x2="203.9" y2="119.783"
            gradientUnits="userSpaceOnUse">
            <stop offset="0.0178516" stop-color="#B468FF" />
            <stop offset="0.0816078" stop-color="#FF68F0" />
            <stop offset="0.290559" stop-color="white" />
            <stop offset="0.621464" stop-color="#65F6FF" />
            <stop offset="0.736587" stop-color="#536DF3" />
            <stop offset="1" stop-color="#C24FEB" />
        </linearGradient>
        <linearGradient id="paint15_linear_1586_185657" x1="210.104" y1="169.117" x2="203.9" y2="119.783"
            gradientUnits="userSpaceOnUse">
            <stop offset="0.0178516" stop-color="#B468FF" />
            <stop offset="0.0816078" stop-color="#FF68F0" />
            <stop offset="0.290559" stop-color="white" />
            <stop offset="0.621464" stop-color="#65F6FF" />
            <stop offset="0.736587" stop-color="#536DF3" />
            <stop offset="1" stop-color="#C24FEB" />
        </linearGradient>
    </defs>
</svg>