<svg width="394" height="356" viewBox="0 0 394 356" fill="none" xmlns="http://www.w3.org/2000/svg">
<path fill-rule="evenodd" clip-rule="evenodd" d="M215.422 436.506L60.9591 284.778L61.1223 326.384L215.586 478.382L215.422 436.506ZM77.9867 248.084L62.6392 263.552L78.1076 278.9L204.266 404.072L219.734 419.42L235.082 403.951L345.709 292.453L451.894 387.068L488.372 419.572L488.181 370.714L487.327 153.055L487.136 104.198L450.914 136.986L345.473 232.432L233.975 121.805L218.507 106.457L203.159 121.926L77.9867 248.084ZM313.117 261.721L218.748 168.089L124.271 263.31L219.492 357.788L313.124 263.419L312.176 262.573L313.117 261.721ZM377.398 262.318L443.939 202.084L444.409 322.027L377.398 262.318ZM220.049 41.8057L347.238 163.7L347.403 205.576L220.212 83.4117L220.049 41.8057Z" fill="url(#paint0_radial_8701_24684)"/>
<g filter="url(#filter0_f_8701_24684)">
<path d="M232.566 239.13L266.162 163.538L367.394 172.38L333.378 200.961L350.596 281.568L194.548 323.121L218.42 258.581L232.566 239.13Z" fill="#3FF0ED" fill-opacity="0.2"/>
</g>
<g filter="url(#filter1_f_8701_24684)">
<path d="M232.566 239.13L266.162 163.538L367.394 172.38L333.378 200.961L350.596 281.568L194.548 323.121L218.42 258.581L232.566 239.13Z" fill="#3FF0ED" fill-opacity="0.2"/>
</g>
<path d="M270.777 306.705C271.263 305.34 272.826 304.337 274.269 304.466L275.576 304.582C277.019 304.71 277.796 305.921 277.31 307.286L276.871 308.522C276.386 309.887 274.822 310.89 273.379 310.762L272.072 310.645C270.629 310.517 269.852 309.306 270.338 307.941L270.777 306.705Z" fill="white"/>
<rect width="8.06523" height="8.06523" rx="2.62351" transform="matrix(0.996073 0.0885398 -0.33501 0.942215 206.791 180.755)" fill="white"/>
<path d="M365.191 267.419C365.569 266.356 366.786 265.576 367.909 265.676L369.468 265.815C370.592 265.914 371.196 266.857 370.818 267.919L364.372 286.048C363.708 287.917 360.9 288.463 360.287 286.842L359.459 284.648C359.327 284.299 359.333 283.895 359.476 283.493L365.191 267.419Z" fill="white"/>
<path d="M357.939 214.702C358.425 213.337 359.988 212.334 361.432 212.463L362.738 212.579C364.181 212.707 364.958 213.918 364.472 215.283L364.033 216.519C363.548 217.884 361.984 218.887 360.541 218.759L359.234 218.643C357.791 218.514 357.015 217.304 357.5 215.938L357.939 214.702Z" fill="#CCF994"/>
<rect width="6.55876" height="6.55876" rx="2.62351" transform="matrix(0.996073 0.0885398 -0.33501 0.942215 281.344 304.757)" fill="#43EFEF"/>
<rect width="6.55876" height="6.55876" rx="2.62351" transform="matrix(0.996073 0.0885398 -0.33501 0.942215 353.979 221.914)" fill="white"/>
<path d="M229.273 211.47L267.03 194.193L276.397 211.244L361.463 174.731" stroke="#5FF4AD" stroke-width="14.0282"/>
<path fill-rule="evenodd" clip-rule="evenodd" d="M338.226 256.9C337.083 260.115 334.39 262.809 331.199 264.308C337.223 266.637 340.052 272.829 337.621 279.665L332.055 295.321L297.364 292.237L297.364 292.237L279.7 290.667L279.7 290.666L264.564 289.32L268.489 278.283C270.512 272.592 276.145 268.115 282.165 266.919C280.433 265.4 279.799 262.943 280.741 260.292C282.206 256.173 286.923 253.148 291.277 253.535C295.632 253.922 297.974 257.575 296.51 261.694C295.567 264.344 293.278 266.542 290.606 267.669C291.092 267.887 291.552 268.135 291.983 268.411C294.349 266.824 297.019 265.683 299.759 265.139C297.785 263.408 297.062 260.608 298.136 257.587C299.805 252.893 305.18 249.446 310.142 249.887C315.104 250.328 317.774 254.491 316.105 259.184C315.031 262.205 312.421 264.71 309.375 265.994C309.886 266.223 310.372 266.481 310.83 266.767C313.466 264.99 316.476 263.758 319.546 263.272C317.584 261.315 316.914 258.322 318.057 255.107C319.93 249.839 325.963 245.969 331.533 246.464C337.103 246.959 340.099 251.632 338.226 256.9Z" fill="#5FE2FF"/>
<path fill-rule="evenodd" clip-rule="evenodd" d="M207.67 245.297C206.527 248.512 207.198 251.504 209.159 253.462C201.899 254.609 194.975 259.935 192.545 266.77L186.978 282.426L221.669 285.51L221.67 285.509L227.349 286.013L227.348 286.015L254.47 288.425L258.395 277.388C260.418 271.696 258.216 266.522 253.388 264.362C256.061 263.235 258.352 261.037 259.294 258.386C260.759 254.267 258.416 250.615 254.062 250.227C249.707 249.84 244.99 252.866 243.526 256.985C242.583 259.636 243.218 262.094 244.951 263.612C244.344 263.733 243.741 263.887 243.145 264.072C242.019 262.174 240.299 260.642 238.102 259.659C241.147 258.374 243.755 255.87 244.829 252.851C246.498 248.157 243.828 243.994 238.866 243.553C233.904 243.112 228.529 246.56 226.86 251.253C225.786 254.273 226.509 257.074 228.482 258.804C227.845 258.931 227.211 259.09 226.584 259.279C225.336 257.157 223.36 255.482 220.814 254.498C224.004 252.998 226.696 250.304 227.84 247.09C229.713 241.821 226.716 237.149 221.147 236.654C215.577 236.159 209.544 240.028 207.67 245.297Z" fill="#5FE2FF"/>
<g filter="url(#filter2_bi_8701_24684)">
<path fill-rule="evenodd" clip-rule="evenodd" d="M306.178 221.772C302.278 232.742 289.715 240.799 278.117 239.768C271.919 239.217 267.251 236.181 264.844 231.799C266.401 238 271.749 242.545 279.473 243.232C291.07 244.263 303.633 236.206 307.534 225.236C309.35 220.129 308.968 215.292 306.872 211.475C307.652 214.584 307.481 218.109 306.178 221.772ZM226.694 269.35L225.498 269.27L229.645 275.164L229.644 275.171L229.65 275.171L229.663 275.189L229.67 275.173L312.185 282.508L312.784 280.293C316.098 268.049 312.99 256.955 305.333 249.627C310.337 256.748 311.629 266.361 307.997 276.576L226.694 269.35Z" fill="url(#paint1_linear_8701_24684)"/>
</g>
<g filter="url(#filter3_bi_8701_24684)">
<circle cx="21.0811" cy="21.0811" r="21.0811" transform="matrix(0.996073 0.0885398 -0.33501 0.942215 271.244 198.178)" fill="#9CB0F8" fill-opacity="0.17"/>
<path fill-rule="evenodd" clip-rule="evenodd" d="M262.49 237.98C246.141 241.515 230.963 253.753 225.455 269.242L307.997 276.579C313.542 260.981 307.609 246.789 294.508 240.723C288.918 243.625 282.641 245.095 276.579 244.556C270.578 244.022 265.737 241.605 262.49 237.98Z" fill="#9CB0F8" fill-opacity="0.17"/>
</g>
<g filter="url(#filter4_f_8701_24684)">
<path fill-rule="evenodd" clip-rule="evenodd" d="M306.178 221.772C302.278 232.742 289.715 240.799 278.117 239.768C271.919 239.217 267.251 236.181 264.844 231.799C266.401 238 271.749 242.545 279.473 243.232C291.07 244.263 303.633 236.206 307.534 225.236C309.35 220.129 308.968 215.292 306.872 211.475C307.652 214.584 307.481 218.109 306.178 221.772ZM226.694 269.35L225.498 269.27L229.645 275.164L229.644 275.171L229.65 275.171L229.663 275.189L229.67 275.173L312.185 282.508L312.784 280.293C316.098 268.049 312.99 256.955 305.333 249.627C310.337 256.748 311.629 266.361 307.997 276.576L226.694 269.35Z" fill="url(#paint2_linear_8701_24684)"/>
</g>
<g filter="url(#filter5_f_8701_24684)">
<path fill-rule="evenodd" clip-rule="evenodd" d="M306.178 221.772C302.278 232.742 289.715 240.799 278.117 239.768C271.919 239.217 267.251 236.181 264.844 231.799C266.401 238 271.749 242.545 279.473 243.232C291.07 244.263 303.633 236.206 307.534 225.236C309.35 220.129 308.968 215.292 306.872 211.475C307.652 214.584 307.481 218.109 306.178 221.772ZM226.694 269.35L225.498 269.27L229.645 275.164L229.644 275.171L229.65 275.171L229.663 275.189L229.67 275.173L312.185 282.508L312.784 280.293C316.098 268.049 312.99 256.955 305.333 249.627C310.337 256.748 311.629 266.361 307.997 276.576L226.694 269.35Z" fill="url(#paint3_linear_8701_24684)"/>
</g>
<rect x="206" y="25" width="4" height="4" rx="1" fill="white"/>
<rect x="295" y="100" width="4" height="4" rx="1" fill="#C759EE"/>
<rect x="326" y="253" width="4" height="4" rx="1" fill="#C759EE"/>
<rect x="102" y="57" width="4" height="4" rx="1" fill="#C759EE"/>
<rect x="230" y="309" width="4" height="4" rx="1" fill="#C759EE"/>
<rect x="337" y="45" width="4" height="4" rx="1" fill="#C759EE"/>
<defs>
<filter id="filter0_f_8701_24684" x="0.856995" y="-30.1537" width="560.229" height="546.967" filterUnits="userSpaceOnUse" color-interpolation-filters="sRGB">
<feFlood flood-opacity="0" result="BackgroundImageFix"/>
<feBlend mode="normal" in="SourceGraphic" in2="BackgroundImageFix" result="shape"/>
<feGaussianBlur stdDeviation="96.8459" result="effect1_foregroundBlur_8701_24684"/>
</filter>
<filter id="filter1_f_8701_24684" x="97.7029" y="66.6922" width="366.538" height="353.275" filterUnits="userSpaceOnUse" color-interpolation-filters="sRGB">
<feFlood flood-opacity="0" result="BackgroundImageFix"/>
<feBlend mode="normal" in="SourceGraphic" in2="BackgroundImageFix" result="shape"/>
<feGaussianBlur stdDeviation="48.423" result="effect1_foregroundBlur_8701_24684"/>
</filter>
<filter id="filter2_bi_8701_24684" x="203.708" y="199.37" width="122.5" height="95.2437" filterUnits="userSpaceOnUse" color-interpolation-filters="sRGB">
<feFlood flood-opacity="0" result="BackgroundImageFix"/>
<feGaussianBlur in="BackgroundImageFix" stdDeviation="6.05287"/>
<feComposite in2="SourceAlpha" operator="in" result="effect1_backgroundBlur_8701_24684"/>
<feBlend mode="normal" in="SourceGraphic" in2="effect1_backgroundBlur_8701_24684" result="shape"/>
<feColorMatrix in="SourceAlpha" type="matrix" values="0 0 0 0 0 0 0 0 0 0 0 0 0 0 0 0 0 0 127 0" result="hardAlpha"/>
<feOffset dx="-21.7903" dy="-2.66326"/>
<feGaussianBlur stdDeviation="102.899"/>
<feComposite in2="hardAlpha" operator="arithmetic" k2="-1" k3="1"/>
<feColorMatrix type="matrix" values="0 0 0 0 0.396078 0 0 0 0 0.894118 0 0 0 0 1 0 0 0 0.1 0"/>
<feBlend mode="normal" in2="shape" result="effect2_innerShadow_8701_24684"/>
</filter>
<filter id="filter3_bi_8701_24684" x="202.454" y="187.849" width="119.724" height="100.835" filterUnits="userSpaceOnUse" color-interpolation-filters="sRGB">
<feFlood flood-opacity="0" result="BackgroundImageFix"/>
<feGaussianBlur in="BackgroundImageFix" stdDeviation="6.05287"/>
<feComposite in2="SourceAlpha" operator="in" result="effect1_backgroundBlur_8701_24684"/>
<feBlend mode="normal" in="SourceGraphic" in2="effect1_backgroundBlur_8701_24684" result="shape"/>
<feColorMatrix in="SourceAlpha" type="matrix" values="0 0 0 0 0 0 0 0 0 0 0 0 0 0 0 0 0 0 127 0" result="hardAlpha"/>
<feOffset dx="-23.0009" dy="-2.42115"/>
<feGaussianBlur stdDeviation="108.952"/>
<feComposite in2="hardAlpha" operator="arithmetic" k2="-1" k3="1"/>
<feColorMatrix type="matrix" values="0 0 0 0 0.396078 0 0 0 0 0.894118 0 0 0 0 1 0 0 0 0.1 0"/>
<feBlend mode="normal" in2="shape" result="effect2_innerShadow_8701_24684"/>
</filter>
<filter id="filter4_f_8701_24684" x="215.813" y="201.791" width="107.973" height="90.4014" filterUnits="userSpaceOnUse" color-interpolation-filters="sRGB">
<feFlood flood-opacity="0" result="BackgroundImageFix"/>
<feBlend mode="normal" in="SourceGraphic" in2="BackgroundImageFix" result="shape"/>
<feGaussianBlur stdDeviation="4.8423" result="effect1_foregroundBlur_8701_24684"/>
</filter>
<filter id="filter5_f_8701_24684" x="206.129" y="192.106" width="127.342" height="109.771" filterUnits="userSpaceOnUse" color-interpolation-filters="sRGB">
<feFlood flood-opacity="0" result="BackgroundImageFix"/>
<feBlend mode="normal" in="SourceGraphic" in2="BackgroundImageFix" result="shape"/>
<feGaussianBlur stdDeviation="9.68459" result="effect1_foregroundBlur_8701_24684"/>
</filter>
<radialGradient id="paint0_radial_8701_24684" cx="0" cy="0" r="1" gradientUnits="userSpaceOnUse" gradientTransform="translate(271.625 261.074) rotate(100.557) scale(243.605 293.452)">
<stop stop-color="#6CD3FF" stop-opacity="0.11"/>
<stop offset="1" stop-color="#23212B" stop-opacity="0.05"/>
</radialGradient>
<linearGradient id="paint1_linear_8701_24684" x1="328.755" y1="278.274" x2="328.389" y2="202.688" gradientUnits="userSpaceOnUse">
<stop offset="0.0178516" stop-color="#B468FF"/>
<stop offset="0.0816078" stop-color="#FF68F0"/>
<stop offset="0.290559" stop-color="white"/>
<stop offset="0.621464" stop-color="#65F6FF"/>
<stop offset="0.736587" stop-color="#536DF3"/>
<stop offset="1" stop-color="#C24FEB"/>
</linearGradient>
<linearGradient id="paint2_linear_8701_24684" x1="328.755" y1="278.274" x2="328.389" y2="202.688" gradientUnits="userSpaceOnUse">
<stop offset="0.0178516" stop-color="#B468FF"/>
<stop offset="0.0816078" stop-color="#FF68F0"/>
<stop offset="0.290559" stop-color="white"/>
<stop offset="0.621464" stop-color="#65F6FF"/>
<stop offset="0.736587" stop-color="#536DF3"/>
<stop offset="1" stop-color="#C24FEB"/>
</linearGradient>
<linearGradient id="paint3_linear_8701_24684" x1="328.755" y1="278.274" x2="328.389" y2="202.688" gradientUnits="userSpaceOnUse">
<stop offset="0.0178516" stop-color="#B468FF"/>
<stop offset="0.0816078" stop-color="#FF68F0"/>
<stop offset="0.290559" stop-color="white"/>
<stop offset="0.621464" stop-color="#65F6FF"/>
<stop offset="0.736587" stop-color="#536DF3"/>
<stop offset="1" stop-color="#C24FEB"/>
</linearGradient>
</defs>
</svg>
