<svg width="360" height="335" viewBox="0 0 360 335" fill="none" xmlns="http://www.w3.org/2000/svg">
<path d="M341 232.362C341 234.188 339.52 235.668 337.694 235.668L332.757 235.668C330.931 235.668 329.451 234.188 329.451 232.362L329.451 193.583C329.451 191.806 331.594 190.911 332.857 192.16L340.018 199.24C340.647 199.861 341 200.708 341 201.591L341 232.362Z" fill="#5FF4AD"/>
<path d="M53.5 330.918C53.5 332.923 55.1255 334.549 57.1305 334.549L63.7094 334.549C65.7145 334.549 67.3399 332.923 67.3399 330.918L67.3399 307.901C67.3399 306.131 65.2105 305.234 63.9435 306.469L54.5957 315.586C53.8951 316.27 53.5 317.207 53.5 318.185L53.5 330.918Z" fill="white"/>
<rect x="10.5195" y="96.1562" width="10" height="10" rx="4" transform="rotate(90 10.5195 96.1562)" fill="#5FF4AD"/>
<path d="M71.3398 207.156L71.3398 158.156" stroke="#0C0B0F" stroke-width="3.71795" stroke-linecap="round"/>
<path d="M156.455 0.44922C157.794 0.44922 158.879 1.53433 158.879 2.87289L158.879 7.25956C158.879 8.59812 157.794 9.68323 156.455 9.68323L135.771 9.68324C133.999 9.68324 133.1 7.55031 134.338 6.28177L139.317 1.18016C139.773 0.712769 140.398 0.44922 141.051 0.44922L156.455 0.44922Z" fill="#5FF4AD"/>
<path d="M351.709 172.935C351.709 171.953 352.505 171.156 353.488 171.156L357.491 171.156C358.473 171.156 359.27 171.953 359.27 172.935L359.27 199.449C359.27 200.337 358.198 200.784 357.567 200.16L352.237 194.891C351.899 194.557 351.709 194.101 351.709 193.626L351.709 172.935Z" fill="white"/>
<rect x="255.941" y="122.389" width="3.94131" height="3.94131" rx="1.28205" fill="white"/>
<path d="M246.941 56.3437C246.941 55.3524 246.138 54.5488 245.147 54.5488L238.236 54.5488C237.245 54.5488 236.442 55.3524 236.442 56.3437L236.442 69.6505C236.442 71.1669 238.206 72 239.377 71.0366L246.287 65.3522C246.701 65.0113 246.941 64.5027 246.941 63.9661L246.941 56.3437Z" fill="#5FF4AD"/>
<path d="M259 181.124C259 180.416 259.574 179.842 260.282 179.842H263.601C264.309 179.842 264.883 180.416 264.883 181.124V196.952C264.883 198.087 263.517 198.662 262.705 197.869L259.387 194.631C259.139 194.39 259 194.059 259 193.713V181.124Z" fill="white"/>
<rect x="262" y="126" width="3.94131" height="3.94131" rx="1.28205" fill="#5FF4AD"/>
<rect x="129" y="208" width="5.94131" height="5.94131" rx="1.93262" fill="white"/>
<path d="M157.323 90.1797C158.556 90.1797 159.555 89.1806 159.555 87.9483L159.555 85.5512C159.555 84.3189 158.556 83.3198 157.323 83.3198L141.35 83.3198C139.376 83.3198 138.374 85.6963 139.753 87.1097L142.093 89.5067C142.513 89.937 143.088 90.1797 143.69 90.1797L157.323 90.1797Z" fill="#5FF4AD"/>
<path d="M153.221 76.2051L153.221 70" stroke="white" stroke-width="1.28205" stroke-linecap="round"/>
<path d="M274.965 176L263.965 176" stroke="#5FF4AD" stroke-width="1.28205" stroke-linecap="round"/>
</svg>
