<svg width="360" height="335" viewBox="0 0 360 335" fill="none" xmlns="http://www.w3.org/2000/svg">
<path d="M341 232.362C341 234.188 339.52 235.668 337.694 235.668L332.757 235.668C330.931 235.668 329.451 234.188 329.451 232.362L329.451 193.583C329.451 191.806 331.594 190.911 332.857 192.16L340.018 199.24C340.647 199.861 341 200.708 341 201.591L341 232.362Z" fill="#5FF4AD"/>
<path d="M53.5 330.918C53.5 332.923 55.1255 334.549 57.1305 334.549L63.7094 334.549C65.7145 334.549 67.3399 332.923 67.3399 330.918L67.3399 307.901C67.3399 306.131 65.2105 305.234 63.9435 306.469L54.5957 315.586C53.8951 316.27 53.5 317.207 53.5 318.185L53.5 330.918Z" fill="white"/>
<rect x="10.5195" y="96.1562" width="10" height="10" rx="4" transform="rotate(90 10.5195 96.1562)" fill="#5FF4AD"/>
<path d="M71.3398 207.156L71.3398 158.156" stroke="#0C0B0F" stroke-width="3.71795" stroke-linecap="round"/>
<path d="M156.455 0.44922C157.794 0.44922 158.879 1.53433 158.879 2.87289L158.879 7.25956C158.879 8.59812 157.794 9.68323 156.455 9.68323L135.771 9.68324C133.999 9.68324 133.1 7.55031 134.338 6.28177L139.317 1.18016C139.773 0.712769 140.398 0.44922 141.051 0.44922L156.455 0.44922Z" fill="#5FF4AD"/>
<path d="M351.709 172.935C351.709 171.953 352.505 171.156 353.488 171.156L357.491 171.156C358.473 171.156 359.27 171.953 359.27 172.935L359.27 199.449C359.27 200.337 358.198 200.784 357.567 200.16L352.237 194.891C351.899 194.557 351.709 194.101 351.709 193.626L351.709 172.935Z" fill="white"/>
<rect width="3.94131" height="3.94131" rx="1.28205" transform="matrix(-1 0 0 1 126.055 118.389)" fill="white"/>
<path d="M234.268 65.6563C234.268 66.6476 235.071 67.4512 236.062 67.4512L242.973 67.4512C243.964 67.4512 244.767 66.6476 244.767 65.6563L244.767 52.3495C244.767 50.8331 243.003 50 241.832 50.9634L234.922 56.6478C234.508 56.9887 234.268 57.4973 234.268 58.0339L234.268 65.6563Z" fill="white"/>
<path d="M146.996 181.124C146.996 180.416 146.422 179.842 145.714 179.842H142.395C141.687 179.842 141.113 180.416 141.113 181.124V196.952C141.113 198.087 142.479 198.662 143.291 197.869L146.609 194.631C146.857 194.39 146.996 194.059 146.996 193.713V181.124Z" fill="white"/>
<rect width="3.94131" height="3.94131" rx="1.28205" transform="matrix(-1 0 0 1 119.996 122)" fill="#5FF4AD"/>
<rect width="5.94131" height="5.94131" rx="1.93262" transform="matrix(-1 0 0 1 260.996 202)" fill="white"/>
<path d="M273.421 138.18C272.316 138.18 271.421 137.284 271.421 136.18L271.421 133.32C271.421 132.215 272.316 131.32 273.421 131.32L290.174 131.32C291.944 131.32 292.842 133.45 291.606 134.717L288.815 137.577C288.439 137.962 287.922 138.18 287.384 138.18L273.421 138.18Z" fill="#5FF4AD"/>
<path d="M277.755 124.205L277.755 118" stroke="white" stroke-width="1.28205" stroke-linecap="round"/>
<path d="M131.031 176L142.031 176" stroke="#5FF4AD" stroke-width="1.28205" stroke-linecap="round"/>
</svg>
