<svg width="343" height="236" viewBox="0 0 343 236" fill="none"
  xmlns="http://www.w3.org/2000/svg">
  <path
    d="M338.539 3.63055C338.539 1.62545 336.914 1.42102e-07 334.909 3.17393e-07L328.337 8.91851e-07C326.332 1.06714e-06 324.707 1.62545 324.707 3.63055L324.707 40.265C324.707 42.92 327.902 44.2664 329.802 42.412L337.444 34.9546C338.144 34.2713 338.539 33.3345 338.539 32.3562L338.539 3.63055Z"
    fill="white" />
  <rect x="231.172" y="218.398" width="9.36897" height="9.36897" rx="2.36257"
    transform="rotate(-90 231.172 218.398)" fill="white" />
  <rect x="243.859" y="218.398" width="9.36897" height="9.36897" rx="2.36257"
    transform="rotate(-90 243.859 218.398)" fill="white" />
  <rect x="35.5156" y="198.66" width="10" height="10" rx="4"
    transform="rotate(-90 35.5156 198.66)" fill="#0C0B0F" />
  <rect x="10.5" y="117.688" width="16" height="8" rx="3" fill="white" />
  <path d="M340.539 93.6875L340.539 142.687" stroke="#0C0B0F"
    stroke-width="3.71795" stroke-linecap="round" />
  <path
    d="M324.318 235.977C326.576 235.977 328.406 234.146 328.406 231.888L328.406 224.488C328.406 222.229 326.576 220.399 324.318 220.399L289.424 220.399C286.434 220.399 284.918 223.997 287.006 226.137L295.405 234.743C296.174 235.532 297.229 235.977 298.331 235.977L324.318 235.977Z"
    fill="#5FF4AD" />
  <path
    d="M-4.50667e-07 76.4991C-2.0177e-07 78.26 1.4275 79.6875 3.18841 79.6875L10.3623 79.6875C12.1232 79.6875 13.5507 78.26 13.5507 76.4991L13.5507 32.3233C13.5507 29.4915 10.1345 28.065 8.12068 30.0559L0.946756 37.1485C0.340928 37.7474 -5.81264e-06 38.5639 -5.69223e-06 39.4158L-4.50667e-07 76.4991Z"
    fill="#5FF4AD" />
  <rect x="6.6875" y="235.688" width="16" height="16" rx="5"
    transform="rotate(-90 6.6875 235.688)" fill="white" />
  <rect x="26.6875" y="235.688" width="16" height="16" rx="5"
    transform="rotate(-90 26.6875 235.688)" fill="#5FF4AD" />
</svg>