<svg width="491" height="358" fill="none" xmlns="http://www.w3.org/2000/svg">
    <rect x="1" y="1" width="489" height="355.5" rx="35.1" fill="#201E27" />
    <rect x="1" y="1" width="489" height="355.5" rx="35.1" stroke="#5FF4AD" stroke-width="2" />
    <path fill-rule="evenodd" clip-rule="evenodd"
        d="m63.2 58.5-1.4-1.3a.9.9 0 0 1-.4-.6V44c0-.2.2-.5.4-.6l1.4-1.3c0-3.3 0-4.9-.6-6.1-.6-1.1-1.5-2-2.6-2.6-1.2-.6-2.8-.6-6.1-.6h-8.3c-5.7 0-8.6 0-10.8 1-1.9 1-3.5 2.6-4.4 4.5-1.1 2.2-1.1 5-1.1 10.8v7.4c0 1.6 0 2.4.2 3.2.1.6.4 1.3.8 1.8.5.6 1 1.2 2.3 2.2l1 .9 2 1.5 1.6.5 2.4.1H54c3.3 0 4.9 0 6.1-.6 1.1-.6 2-1.4 2.6-2.5.6-1.1.6-2.6.6-5.1Z"
        fill="#5FF4AD" />
    <path d="m48.4 46.4 3.3 3.4-3.3 3.3h-4.7l-3.4-3.3 3.4-3.4h4.7Z" stroke="#0C0B0F" stroke-width="1.1" />
    <path d="m46 47.8 2 2-2 2-2-2 2-2Z" stroke="#0C0B0F" stroke-width="1.1" />
    <path fill-rule="evenodd" clip-rule="evenodd" d="m42 45.9-3.8 3.9H37l3.8-4h1.4ZM55.2 49.8l-3.9 3.8H50l4-3.8h1.3Z"
        fill="#0C0B0F" />
    <rect x="26.4" y="67.9" width="2.2" height="2.2" rx=".9" fill="#5FF4AD" />
    <rect x="75.2" y="28.7" width="2.2" height="2.2" rx=".9" fill="#5FF4AD" />
    <rect x="26.4" y="70.7" width="2.2" height="2.2" rx=".9" fill="#5FF4AD" />
    <rect x="68.9" y="67.6" width="2.7" height="2.7" rx=".9" fill="#5FF4AD" />
    <path d="M64 52.9c0-.5.4-.9.8-.9h1c.5 0 .9.4.9.9V59c0 .8-1 1.2-1.5.6l-1-.9a.9.9 0 0 1-.2-.6V53Z" fill="#5FF4AD" />
    <path d="M27 44.7V53" stroke="#201E27" stroke-width=".9" stroke-linecap="round" />
    <path
        d="M88.6 42.1c.7.2 1.2.5 1.6 1 .5.6.7 1.2.7 1.9a3 3 0 0 1-1 2.4c-.8.6-1.7.9-3 .9h-5.6v-12h5.4c1.2 0 2.2.3 2.9.8.7.6 1 1.3 1 2.3a2.7 2.7 0 0 1-2 2.7Zm-4.4-1h2c.4 0 .8 0 1-.3.3-.2.4-.5.4-1 0-.3-.1-.6-.4-.8-.2-.3-.6-.4-1-.4h-2v2.5Zm2.2 4.8c.5 0 .9-.1 1.1-.3.3-.2.4-.6.4-1s-.1-.7-.4-1c-.3-.2-.7-.3-1.1-.3h-2.2v2.6h2.2Zm15.5-7.2v9.6H99V47c-.3.4-.7.7-1.2 1-.5.2-1 .4-1.6.4-.8 0-1.4-.2-2-.5-.5-.3-1-.8-1.3-1.4-.3-.6-.4-1.4-.4-2.2v-5.6h2.9V44c0 .6.1 1.1.5 1.5.3.3.7.5 1.3.5.6 0 1-.2 1.3-.5.4-.4.5-.9.5-1.5v-5.2h3Zm5-3v12.6H104V35.6h3Zm5 0v12.6h-2.8V35.6h2.9Zm2.9.6h3l-2 4.6h-2l1-4.6Zm8.5 12c-.8 0-1.6 0-2.2-.3-.7-.3-1.2-.7-1.5-1.2-.4-.5-.6-1-.7-1.7h3c0 .4.1.6.4.8.2.2.6.3 1 .3.3 0 .6 0 .8-.2.2-.1.3-.3.3-.5 0-.3-.1-.5-.4-.6a8 8 0 0 0-1.4-.5 14 14 0 0 1-1.7-.5 3 3 0 0 1-1.2-.8 2.6 2.6 0 0 1 0-3A3 3 0 0 1 121 39c.6-.3 1.3-.4 2.1-.4 1.2 0 2.1.3 2.8.9.7.6 1.1 1.4 1.2 2.3h-2.7c0-.3-.2-.5-.4-.7-.3-.2-.6-.3-1-.3-.3 0-.6 0-.8.2l-.2.5c0 .3.1.5.4.6.3.2.7.3 1.4.4l1.7.6c.4.1.8.4 1.1.8.4.4.5 1 .6 1.6 0 .6-.2 1-.5 1.5a3 3 0 0 1-1.4 1 5 5 0 0 1-2 .4Zm12.2-9.7V41h3.9v2.3h-4v2.6h4.5v2.4h-7.3v-12h7.3v2.3h-4.4Zm16 .1-6 14h-3.1l2.2-4.8-4-9.2h3.3l2.2 6 2.2-6h3.2Zm10 4.6v.9h-6.7c0 .6.3 1 .6 1.4.3.3.8.4 1.3.4.7 0 1.2-.3 1.5-.9h3c0 .6-.4 1.2-.8 1.7s-1 .9-1.6 1.2a5 5 0 0 1-2 .4c-1 0-1.8-.2-2.5-.6-.8-.4-1.3-1-1.7-1.7-.4-.7-.7-1.6-.7-2.6s.2-1.8.6-2.6c.5-.7 1-1.3 1.8-1.7.7-.4 1.5-.6 2.5-.6.9 0 1.7.2 2.4.6.7.4 1.3 1 1.7 1.6.4.8.6 1.6.6 2.5Zm-3-.7c0-.5-.2-1-.5-1.2-.3-.3-.8-.5-1.3-.5s-.9.2-1.2.5a2 2 0 0 0-.6 1.2h3.6Zm11-2.3c.4-.5.8-.9 1.3-1.2.5-.3 1.1-.5 1.7-.5v3.1h-.8c-.7 0-1.2.2-1.6.5-.4.3-.6.9-.6 1.6v4.5h-2.9v-9.6h3v1.6Zm13.4 3v.9h-6.7c0 .6.3 1 .6 1.4.3.3.8.4 1.2.4.8 0 1.3-.3 1.6-.9h3c-.1.6-.4 1.2-.8 1.7s-1 .9-1.6 1.2a5 5 0 0 1-2 .4 5 5 0 0 1-2.5-.6c-.8-.4-1.3-1-1.7-1.7-.5-.7-.7-1.6-.7-2.6s.2-1.8.6-2.6c.4-.7 1-1.3 1.7-1.7.8-.4 1.6-.6 2.5-.6 1 0 1.8.2 2.5.6.7.4 1.3 1 1.7 1.6.4.8.6 1.6.6 2.5Zm-3-.7c0-.5-.2-1-.5-1.2-.4-.3-.8-.5-1.3-.5s-.9.2-1.2.5a2 2 0 0 0-.6 1.2h3.6Zm8.4 5.8c-.8 0-1.6-.2-2.2-.4-.7-.3-1.2-.7-1.6-1.2-.3-.5-.5-1-.6-1.7h2.9c0 .4.2.6.4.8.3.2.7.3 1 .3.4 0 .7 0 .9-.2.2-.1.3-.3.3-.5 0-.3-.1-.5-.4-.6a8 8 0 0 0-1.4-.5 14 14 0 0 1-1.7-.5 3 3 0 0 1-1.2-.8 2.6 2.6 0 0 1 0-3A3 3 0 0 1 186 39c.6-.3 1.3-.4 2-.4 1.3 0 2.2.3 2.9.9.7.6 1 1.4 1.2 2.3h-2.7c0-.3-.2-.5-.5-.7-.2-.2-.5-.3-.9-.3-.3 0-.6 0-.8.2-.2.1-.3.3-.3.5 0 .3.2.5.5.6.3.2.7.3 1.3.4l1.7.6c.5.1.9.4 1.2.8.3.4.5 1 .5 1.6 0 .6-.1 1-.4 1.5a3 3 0 0 1-1.4 1 5 5 0 0 1-2 .4Zm15-9.7v9.6h-3V47c-.2.4-.6.7-1.1 1-.5.2-1 .4-1.7.4s-1.4-.2-2-.5c-.5-.3-.9-.8-1.2-1.4-.3-.6-.5-1.4-.5-2.2v-5.6h3V44c0 .6 0 1.1.4 1.5.4.3.8.5 1.4.5.5 0 1-.2 1.3-.5.3-.4.5-.9.5-1.5v-5.2h2.9Zm5-3v12.6h-3V35.6h3Zm7.4 10v2.6h-1.5c-1 0-1.8-.3-2.4-.8-.6-.5-1-1.4-1-2.6v-3.7h-1v-2.5h1v-2.3h3v2.3h1.9v2.5h-2V45c0 .3.2.5.3.6l.7.2h1Zm5.5 2.7c-.8 0-1.6-.2-2.2-.4-.7-.3-1.2-.7-1.5-1.2-.4-.5-.6-1-.7-1.7h3c0 .4 0 .6.4.8.2.2.6.3 1 .3.3 0 .6 0 .8-.2.2-.1.3-.3.3-.5 0-.3-.1-.5-.4-.6l-1.4-.5a14 14 0 0 1-1.7-.5 3 3 0 0 1-1.2-.8 2.6 2.6 0 0 1 0-3 3 3 0 0 1 1.3-1.1c.6-.3 1.3-.4 2.1-.4 1.2 0 2.1.3 2.8.9.7.6 1.1 1.4 1.2 2.3h-2.7c0-.3-.2-.5-.4-.7-.3-.2-.6-.3-1-.3-.3 0-.6 0-.8.2l-.2.5c0 .3.1.5.4.6.3.2.7.3 1.3.4l1.8.6c.4.1.8.4 1.1.8.4.4.5 1 .6 1.6 0 .6-.2 1-.5 1.5a3 3 0 0 1-1.4 1 5 5 0 0 1-2 .4Z"
        fill="#fff" />
    <path
        d="M87 59 84.7 64v2.4h-1.8v-2.4L80.3 59h2l1.4 3 1.4-3h2Zm3.4 7.3c-.6 0-1.1 0-1.6-.3l-1-1a3 3 0 0 1-.4-1.6c0-.6.1-1.1.4-1.5.3-.5.6-.8 1-1 .5-.3 1-.4 1.6-.4a2.6 2.6 0 0 1 2.6 1.4c.2.4.3 1 .3 1.5A3 3 0 0 1 93 65c-.2.4-.6.7-1 1l-1.5.3Zm0-1.5c.3 0 .6-.1.8-.3.2-.3.4-.6.4-1.1 0-.5-.1-.8-.4-1a1 1 0 0 0-.8-.4c-.4 0-.6.1-.9.4-.2.2-.3.5-.3 1s.1.8.3 1c.2.3.5.4.9.4Zm9.5-4.2v5.7h-1.7v-.8a2 2 0 0 1-.8.6l-1 .2c-.4 0-.8 0-1.1-.3a2 2 0 0 1-.8-.8c-.2-.4-.3-.8-.3-1.3v-3.3H96v3c0 .4 0 .7.3 1 .2.1.4.3.8.3.3 0 .6-.2.8-.4.2-.2.3-.5.3-.9v-3h1.7Zm2.5-2.5-.2 2.2h-1.1l-.2-2.2h1.5Zm3.6 6.5 1.2-4h1.9l-2 5.7h-2.2l-2-5.7h1.8l1.3 4Zm9.2-1.3v.5h-4c0 .4.1.6.3.8.2.2.5.3.8.3.4 0 .7-.2.9-.5h1.9c-.1.3-.3.7-.6 1-.2.3-.5.5-.9.7a3 3 0 0 1-1.3.2 3 3 0 0 1-1.4-.3c-.5-.3-.8-.6-1-1-.3-.5-.4-1-.4-1.6 0-.6 0-1.1.3-1.6l1-1a3 3 0 0 1 1.5-.3c.6 0 1 0 1.5.3.5.2.8.6 1 1 .3.4.4 1 .4 1.5Zm-1.8-.4c0-.3-.1-.6-.3-.8l-.8-.2c-.3 0-.5 0-.7.2l-.4.8h2.2Zm12.2-2.4c.7 0 1.2.2 1.6.6.5.5.7 1 .7 1.8v3.4H126v-3.1c0-.4 0-.7-.3-.9a1 1 0 0 0-.8-.3 1 1 0 0 0-.8.3c-.2.2-.2.5-.2.9v3h-1.8v-3c0-.4 0-.7-.3-.9a1 1 0 0 0-.8-.3 1 1 0 0 0-.8.3c-.2.2-.3.5-.3.9v3h-1.7v-5.6h1.7v.7c.2-.3.4-.5.7-.6l1-.2c.4 0 .8 0 1.1.3.4.2.6.4.8.8a2.3 2.3 0 0 1 2-1.1Zm3.2 2.9c0-.6 0-1.1.3-1.6.2-.4.5-.7.9-1 .4-.2.8-.3 1.3-.3.4 0 .7 0 1 .2.3.2.6.4.7.7v-.8h1.8v5.7H133v-.9c-.1.3-.4.5-.7.7-.3.2-.6.2-1 .2-.5 0-1 0-1.3-.3l-1-1c-.1-.5-.3-1-.3-1.6Zm4.2 0c0-.4-.1-.8-.3-1-.3-.3-.6-.4-1-.4-.3 0-.6.1-.8.4-.3.2-.4.6-.4 1s.1.8.4 1c.2.3.5.4.9.4.3 0 .6-.1.9-.4.2-.2.3-.6.3-1Zm2.7 0c0-.6.1-1.1.3-1.6.2-.4.5-.7 1-1 .3-.2.7-.3 1.2-.3.4 0 .7 0 1 .2l.8.6v-2.6h1.7v7.6H140v-.9l-.7.7c-.3.2-.7.2-1.1.2A2.4 2.4 0 0 1 136 65c-.2-.4-.3-1-.3-1.5Zm4.3 0c0-.4-.2-.8-.4-1-.2-.3-.5-.4-.9-.4-.3 0-.6.1-.9.4-.2.2-.3.6-.3 1s0 .8.3 1c.3.3.6.4 1 .4.3 0 .6-.1.8-.4.2-.2.4-.6.4-1Zm8.3 0v.4h-4c0 .4.2.6.4.8.2.2.5.3.7.3.5 0 .8-.2 1-.5h1.8c0 .3-.3.7-.5 1l-1 .7a3 3 0 0 1-1.2.2 3 3 0 0 1-1.5-.3c-.4-.3-.8-.6-1-1-.3-.5-.4-1-.4-1.6 0-.6.1-1.1.4-1.6.2-.4.6-.7 1-1a3 3 0 0 1 1.5-.3c.6 0 1 0 1.5.3.4.2.7.6 1 1 .2.4.3 1 .3 1.5Zm-1.7-.5c0-.3-.1-.6-.3-.8l-.8-.2c-.3 0-.6 0-.8.2-.2.2-.3.4-.3.8h2.2Zm4.5.5c0-.6.1-1.1.3-1.6.2-.4.5-.7 1-1 .3-.2.7-.3 1.2-.3.4 0 .8 0 1 .2.4.2.6.4.8.7v-.8h1.7v5.7h-1.7v-.9c-.2.3-.4.5-.8.7-.3.2-.6.2-1 .2a2.3 2.3 0 0 1-2.2-1.4c-.2-.4-.3-1-.3-1.5Zm4.3 0c0-.4-.2-.8-.4-1-.2-.3-.5-.4-.9-.4-.3 0-.6.1-.9.4-.2.2-.3.6-.3 1s0 .8.3 1c.3.3.6.4 1 .4.3 0 .6-.1.8-.4.2-.2.4-.6.4-1Zm6.4-3a2 2 0 0 1 1.6.7c.4.5.6 1 .6 1.8v3.4h-1.7v-3.1c0-.4 0-.7-.3-1a1 1 0 0 0-.8-.2 1 1 0 0 0-.8.3c-.2.2-.3.5-.3.9v3h-1.7v-5.6h1.7v.7l.7-.6 1-.2Zm11 3v.4h-4c0 .4.2.6.4.8.2.2.4.3.7.3.4 0 .7-.2 1-.5h1.8c-.1.3-.3.7-.6 1-.2.3-.5.5-.9.7a3 3 0 0 1-1.2.2 3 3 0 0 1-1.5-.3c-.5-.3-.8-.6-1-1-.3-.5-.4-1-.4-1.6 0-.6.1-1.1.3-1.6l1-1a3 3 0 0 1 1.6-.3c.5 0 1 0 1.4.3.5.2.8.6 1 1 .3.4.4 1 .4 1.5Zm-1.8-.5c0-.3 0-.6-.3-.8l-.8-.2c-.3 0-.5 0-.7.2l-.4.8h2.2Zm6 3.4-1-1.6-1 1.6h-1.8l1.9-3-2-2.7h2l1.1 1.5 1-1.5h1.8l-2 2.8 2 2.9h-2Zm2.4-3c0-.5 0-1 .3-1.5.2-.4.5-.7 1-1 .3-.2.7-.3 1.2-.3.4 0 .8 0 1 .2.4.2.6.4.8.7v-.8h1.7v5.7h-1.7v-.9l-.8.7c-.3.2-.6.2-1 .2a2.3 2.3 0 0 1-2.2-1.4c-.2-.4-.3-1-.3-1.5Zm4.3.1c0-.4-.2-.8-.4-1-.3-.3-.5-.4-.9-.4-.3 0-.6.1-.9.4-.2.2-.3.6-.3 1s0 .8.3 1c.3.3.6.4 1 .4.3 0 .5-.1.8-.4.2-.2.4-.6.4-1Zm2.6 0c0-.6.1-1.1.4-1.6.2-.4.6-.7 1-1a3 3 0 0 1 1.5-.3c.7 0 1.3.2 1.8.5.5.4.8 1 1 1.6h-2c-.1-.4-.4-.6-.8-.6a1 1 0 0 0-.8.3c-.2.3-.3.6-.3 1.1 0 .5 0 .8.3 1 .2.3.4.4.8.4s.7-.2.9-.6h1.8c-.1.7-.4 1.2-1 1.6-.4.3-1 .5-1.7.5a3 3 0 0 1-1.5-.3c-.4-.3-.8-.6-1-1-.3-.5-.4-1-.4-1.6Zm9.7 1.4v1.5h-.9c-.6 0-1-.2-1.4-.5-.4-.3-.6-.8-.6-1.5V62h-.7v-1.4h.7v-1.4h1.8v1.4h1.1V62H195v2.3l.1.4h1Zm5.3-4.3c.4 0 .8 0 1 .2.4.2.6.4.8.7v-.8h1.7v5.6c0 .6 0 1-.3 1.5-.2.4-.5.7-1 1a3 3 0 0 1-1.5.4c-.8 0-1.5-.2-2-.6-.6-.4-.9-1-1-1.7h1.8c0 .3.2.4.4.6l.7.2c.4 0 .7-.2.9-.4.2-.2.3-.5.3-1v-.8a2 2 0 0 1-1.8 1 2.4 2.4 0 0 1-2.1-1.5c-.3-.4-.4-1-.4-1.5 0-.6.1-1.1.4-1.6.2-.4.5-.7.9-1 .3-.2.8-.3 1.2-.3Zm1.8 2.9c0-.4-.1-.8-.4-1-.2-.3-.5-.4-.8-.4-.4 0-.7.1-1 .4-.2.2-.3.6-.3 1s.1.8.4 1c.2.3.5.4.9.4.3 0 .6-.1.8-.4.3-.2.4-.6.4-1Zm2.7 0c0-.6 0-1.1.3-1.6.2-.4.5-.7.9-1 .4-.2.8-.3 1.3-.3.4 0 .7 0 1 .2.3.2.6.4.7.7v-.8h1.8v5.7H210v-.9c-.1.3-.4.5-.7.7-.3.2-.6.2-1 .2-.5 0-1 0-1.3-.3l-1-1-.2-1.6Zm4.2 0c0-.4 0-.8-.3-1-.3-.3-.6-.4-1-.4-.3 0-.6.1-.8.4-.2.2-.4.6-.4 1s.2.8.4 1c.2.3.5.4.9.4.3 0 .6-.1.9-.4.2-.2.3-.6.3-1Zm10.3-3c.7 0 1.3.3 1.7.7.4.5.6 1 .6 1.8v3.4H221v-3.1c0-.4 0-.7-.3-.9a1 1 0 0 0-.8-.3 1 1 0 0 0-.8.3c-.2.2-.3.5-.3.9v3H217v-3c0-.4-.1-.7-.3-.9a1 1 0 0 0-.8-.3 1 1 0 0 0-.8.3c-.2.2-.3.5-.3.9v3H213v-5.6h1.8v.7c.2-.3.4-.5.7-.6l1-.2c.4 0 .8 0 1.1.3.3.2.6.4.8.8a2.3 2.3 0 0 1 2-1.1Zm9 3v.4h-4c0 .4.1.6.3.8.2.2.4.3.7.3.5 0 .8-.2 1-.5h1.8c0 .3-.3.7-.5 1l-1 .7a3 3 0 0 1-1.2.2 3 3 0 0 1-1.5-.3c-.4-.3-.8-.6-1-1-.3-.5-.4-1-.4-1.6 0-.6.1-1.1.4-1.6.2-.4.6-.7 1-1a3 3 0 0 1 1.5-.3c.6 0 1 0 1.5.3.4.2.7.6 1 1 .2.4.3 1 .3 1.5Zm-1.8-.5c0-.3-.1-.6-.4-.8l-.7-.2c-.3 0-.6 0-.8.2-.2.2-.3.4-.3.8h2.2Zm5-4-.2 4.8h-1.5l-.2-4.9h1.9Zm-1 7.4a1 1 0 0 1-.7-.2.9.9 0 0 1-.3-.7c0-.3.1-.5.3-.7.2-.2.4-.3.7-.3.3 0 .6.1.8.3.2.2.3.4.3.7 0 .3-.1.5-.3.7a1 1 0 0 1-.8.2ZM306.7 35.2v.8h-1.6v5.5h-1V36h-1.7v-.8h4.3Zm1.6.6-.5-.1a.6.6 0 0 1-.2-.5c0-.2 0-.4.2-.5l.5-.2c.2 0 .3 0 .4.2.2.1.2.3.2.5s0 .3-.2.5l-.4.1Zm.5.7v5h-1v-5h1Zm7.3 0c.4 0 .8 0 1 .2.4.1.6.4.8.7.2.3.3.7.3 1.1v3h-1v-2.8c0-.5-.2-.8-.4-1-.2-.3-.5-.4-.9-.4s-.7.1-.9.4c-.2.2-.3.5-.3 1v2.8h-1v-2.8c0-.5-.2-.8-.4-1-.2-.3-.5-.4-.9-.4s-.7.1-1 .4l-.2 1v2.8h-1v-5h1v.6c.1-.2.3-.4.6-.5l.8-.2c.4 0 .8.1 1 .3.4.1.6.4.8.7l.7-.7a2 2 0 0 1 1-.3Zm8 2.4-.1.5h-3.8c0 .4.2.7.4 1 .3.2.6.3 1 .3.6 0 1-.3 1.2-.7h1a2.2 2.2 0 0 1-2.2 1.5c-.5 0-.9 0-1.3-.3-.3-.2-.6-.5-.8-.9-.3-.4-.4-.8-.4-1.3s.1-1 .3-1.4c.3-.4.5-.7 1-.9.3-.2.7-.3 1.2-.3s.9.1 1.3.3a2.6 2.6 0 0 1 1.2 2.1Zm-1.1-.4c0-.3-.2-.6-.5-.9-.2-.2-.5-.3-1-.3-.3 0-.6.1-.8.3-.3.2-.4.5-.5 1h2.8Zm8.9-2v5h-1v-.6l-.7.5a2.3 2.3 0 0 1-1.9 0l-.7-.8c-.2-.4-.3-.7-.3-1.2v-2.9h1v2.8c0 .4.2.7.4 1 .2.2.5.3.9.3s.7 0 .9-.3c.2-.3.3-.6.3-1v-2.8h1Zm3.8 0c.4 0 .8 0 1 .2.4.1.6.4.8.7.2.3.3.7.3 1.1v3h-1v-2.8c0-.5-.2-.8-.4-1-.2-.3-.5-.4-1-.4-.3 0-.6.1-.8.4-.2.2-.4.5-.4 1v2.8h-1v-5h1v.6l.7-.5.8-.2Zm4.6.8V40.5l.5.1h.7v.9h-.8c-.5 0-.9-.1-1.1-.4-.3-.2-.4-.5-.4-1v-2.8h-.6v-.8h.6v-1.2h1v1.2h1.3v.8h-1.2Zm2.6-1.5-.4-.1a.6.6 0 0 1-.2-.5c0-.2 0-.4.2-.5l.4-.2c.2 0 .4 0 .5.2l.2.5c0 .2 0 .3-.2.5l-.5.1Zm.5.7v5h-1v-5h1Zm2.4-1.7v6.7h-1v-6.7h1Zm-42.1 16.4.7-.5c.3-.2.7-.3 1-.3a2.2 2.2 0 0 1 2 1.2c.3.4.4.9.4 1.4 0 .5-.1.9-.3 1.3l-.9 1-1.2.2a2.2 2.2 0 0 1-1.7-.8v3.1h-1v-7.3h1v.7Zm3 1.8c0-.4 0-.7-.2-1-.1-.2-.3-.4-.6-.5a1.4 1.4 0 0 0-1.4 0c-.3.1-.4.3-.6.6l-.2.9c0 .3 0 .6.2.9l.6.6a1.5 1.5 0 0 0 1.4 0l.6-.6.2-1Zm4.2 2.5c-.4 0-.9 0-1.2-.3-.4-.2-.7-.5-1-.9-.1-.4-.3-.8-.3-1.3s.2-1 .4-1.4c.2-.4.5-.7.9-.9.4-.2.8-.3 1.3-.3.4 0 .9.1 1.3.3.3.2.6.5.9 1 .2.3.3.8.3 1.3s-.1 1-.3 1.3l-1 1-1.3.2Zm0-.9a1.5 1.5 0 0 0 1.3-.7c.2-.3.2-.6.2-1 0-.3 0-.6-.2-.8-.1-.3-.3-.5-.5-.6l-.7-.2c-.3 0-.6 0-.8.2-.2.1-.4.3-.5.6l-.2.9c0 .5.1 1 .4 1.2.3.3.6.4 1 .4Zm5.8 1c-.5 0-1-.2-1.3-.4-.4-.2-.7-.5-.9-.9-.2-.4-.3-.8-.3-1.3s0-1 .3-1.4c.2-.4.5-.7 1-.9.3-.2.7-.3 1.2-.3s1 .1 1.3.3c.4.2.7.5 1 1l.2 1.3c0 .5 0 1-.3 1.3-.2.4-.5.7-1 1l-1.2.2Zm0-1a1.5 1.5 0 0 0 1.3-.7l.2-1c0-.3 0-.6-.2-.8-.2-.3-.3-.5-.6-.6l-.7-.2c-.3 0-.5 0-.7.2-.3.1-.4.3-.6.6l-.2.9c0 .5.2 1 .4 1.2.3.3.7.4 1 .4Zm4.6-5.8v6.7h-1v-6.7h1Zm3.1 6.7c-.4 0-.7 0-1-.2l-.8-.5-.2-.9h1l.3.6.7.2c.3 0 .5 0 .7-.2l.2-.4c0-.2 0-.3-.3-.4l-.8-.3-.9-.3-.6-.5c-.2-.2-.3-.4-.3-.8 0-.2.1-.5.3-.7.1-.2.3-.4.6-.5l1-.2c.6 0 1 .2 1.4.5.4.2.5.6.6 1.1h-1c0-.2-.2-.4-.3-.5a1 1 0 0 0-.7-.2 1 1 0 0 0-.6.1c-.2.1-.2.3-.2.4l.1.4.4.2.6.2.9.3c.2 0 .4.2.6.4l.2.8c0 .3 0 .5-.2.7l-.7.6-1 .1Zm6.4-4.3.6-.6.9-.2v1h-.3c-.4 0-.7.2-.9.4-.2.2-.3.5-.3 1v2.7h-1v-5h1v.7Zm7 1.7v.5h-3.9c0 .4.2.7.5 1 .3.2.6.3 1 .3.5 0 .9-.3 1.1-.7h1.1a2.2 2.2 0 0 1-2.2 1.5c-.5 0-1 0-1.3-.3-.4-.2-.7-.5-.9-.9-.2-.4-.3-.8-.3-1.3s0-1 .3-1.4c.2-.4.5-.7.9-.9.3-.2.8-.3 1.3-.3l1.2.3c.4.2.7.5.9.9.2.4.3.8.3 1.3Zm-1.1-.4c0-.3-.1-.6-.4-.9-.3-.2-.6-.3-1-.3l-.9.3c-.2.2-.4.5-.4 1h2.7Zm4.2-1.2h-1v4.2h-1v-4.2h-.6v-.8h.6v-.4c0-.5.2-1 .5-1.2.3-.3.7-.4 1.4-.4v.9l-.7.1-.2.6v.4h1v.8Zm1.9 0c.1-.3.3-.5.6-.7l.9-.2v1h-.3c-.4 0-.7.2-.9.4-.2.2-.3.5-.3 1v2.7h-1v-5h1v.7Zm7 1.6v.5h-3.9c0 .4.2.7.5 1 .2.2.6.3 1 .3.5 0 .9-.3 1.1-.7h1.1a2.2 2.2 0 0 1-2.2 1.5c-.5 0-1 0-1.3-.3-.4-.2-.7-.5-.9-.9-.2-.4-.3-.8-.3-1.3s0-1 .3-1.4c.2-.4.5-.7.9-.9.3-.2.8-.3 1.3-.3l1.2.3c.4.2.7.5.9.9.2.4.3.8.3 1.3Zm-1.1-.4c0-.3-.1-.6-.4-.9-.3-.2-.6-.3-1-.3l-.9.3c-.3.2-.4.5-.4 1h2.7Zm3.9 3c-.4 0-.8 0-1-.2-.4-.1-.6-.3-.8-.5l-.3-.9h1c0 .2.2.4.4.6l.7.2c.2 0 .5 0 .6-.2.2-.1.3-.2.3-.4s-.1-.3-.3-.4l-.8-.3-1-.3-.6-.5-.2-.8c0-.2 0-.5.2-.7l.7-.5 1-.2c.6 0 1 .2 1.4.5.3.2.5.6.5 1.1h-1c0-.2-.1-.4-.3-.5a1 1 0 0 0-.6-.2 1 1 0 0 0-.7.1l-.2.4c0 .2 0 .3.2.4l.3.2.6.2c.4 0 .7.2 1 .3l.5.4c.2.2.3.5.3.8 0 .3-.1.5-.3.7-.1.3-.3.4-.6.6l-1 .1Zm5.5-5c.4 0 .8 0 1 .2.4.1.6.4.8.7l.2 1.1v3h-1v-2.8c0-.5-.1-.8-.3-1-.3-.3-.6-.4-1-.4-.3 0-.6.1-.9.4-.2.2-.3.5-.3 1v2.8h-1v-6.7h1v2.3l.7-.5.8-.2Zm3.7 5c-.1 0-.3 0-.4-.2a.6.6 0 0 1-.2-.4c0-.2 0-.4.2-.5l.4-.2c.2 0 .4 0 .5.2l.2.5c0 .2 0 .3-.2.4-.1.2-.3.2-.5.2Zm0-3.8-.4-.1a.6.6 0 0 1-.2-.5c0-.2 0-.4.2-.5l.4-.2c.2 0 .4 0 .5.2l.2.5c0 .2 0 .3-.2.5l-.5.1Z"
        fill="#9990B0" />
    <path
        d="M385 46.3v9c0 4.5 3.6 8 8 8h50c1.3 0 2.6-.3 3.7-.9l10.8-5.4a8.2 8.2 0 0 0 4.6-7.3V37c0-4.3-3.5-7.9-8-7.9h-50c-1.3 0-2.5.3-3.7.9l-10.8 5.4a8.2 8.2 0 0 0-4.5 7.3v3.5Z"
        fill="#2A2831" />
    <circle cx="402.6" cy="46.7" r="10.2" fill="#0C0B0F" />
    <path
        d="M402.4 38.8a7.7 7.7 0 1 0 4.9 1.7l-4.9 6v-7.7ZM419 46c0-2 .4-3.5 1-4.6.6-1 1.7-1.6 3.2-1.6 1.6 0 2.7.5 3.3 1.6.6 1 .9 2.6.9 4.6 0 2-.3 3.5-1 4.6-.5 1-1.6 1.6-3.2 1.6-1.5 0-2.6-.5-3.2-1.6-.6-1.1-1-2.6-1-4.6Zm7.2 0c0-1 0-2-.2-2.7-.2-.7-.5-1.3-.9-1.8-.4-.4-1-.6-1.9-.6-.8 0-1.4.2-1.8.6-.5.5-.8 1-1 1.8l-.1 2.7c0 1 0 2 .2 2.7.1.7.4 1.3.9 1.8.4.4 1 .6 1.8.6s1.5-.2 1.9-.6c.4-.5.7-1 .9-1.8l.2-2.7Zm3.8 6.3-.6-.3a.9.9 0 0 1-.2-.6c0-.3 0-.5.2-.6l.6-.3c.3 0 .5.1.6.3.2.1.3.3.3.6 0 .2 0 .4-.3.6-.1.2-.3.3-.6.3Zm0-7.4-.6-.3a.9.9 0 0 1-.2-.6c0-.3 0-.5.2-.6l.6-.3c.3 0 .5 0 .6.3.2.1.3.3.3.6 0 .2 0 .4-.3.6-.1.2-.3.3-.6.3Zm2.7 1c0-1.9.3-3.4 1-4.5.5-1 1.6-1.6 3.2-1.6 1.5 0 2.6.5 3.2 1.6.6 1 1 2.6 1 4.6 0 2-.4 3.5-1 4.6-.6 1-1.7 1.6-3.2 1.6-1.6 0-2.7-.5-3.3-1.6-.6-1.1-.9-2.6-.9-4.6Zm7.1 0c0-1 0-1.9-.2-2.6-.1-.7-.4-1.3-.9-1.8-.4-.4-1-.6-1.8-.6s-1.5.2-2 .6c-.3.5-.6 1-.8 1.8L434 46c0 1 0 2 .2 2.7.2.7.5 1.3.9 1.8.4.4 1 .6 1.9.6.8 0 1.4-.2 1.8-.6.5-.5.8-1 1-1.8l.1-2.7Zm11.1-5h-6.2v4.4a3 3 0 0 1 1.2-1 4 4 0 0 1 1.8-.3c1 0 1.7.2 2.3.6.6.3 1 .8 1.3 1.4.2.6.4 1.3.4 2a5 5 0 0 1-.5 2.2c-.3.6-.8 1-1.4 1.5-.6.3-1.4.5-2.3.5-1.2 0-2.1-.3-2.8-.9a3.9 3.9 0 0 1-1.4-2.4h1.2c.2.7.5 1.3 1 1.7.6.4 1.2.6 2 .6 1 0 1.8-.3 2.3-.9.5-.5.7-1.3.7-2.3a3 3 0 0 0-.8-2.2c-.5-.5-1.2-.8-2.1-.8-.7 0-1.3.2-1.8.5s-.9.7-1 1.2h-1.2V40h7.3v1Z"
        fill="#D2FFFE" />
    <g opacity=".8" fill="#fff">
        <rect x="29.3" y="108.1" width="5.2" height="5.2" rx="1.7" />
        <path
            d="M43 112.3H41l-.3 1h-1.8l2.2-6h2l2.1 6h-1.8l-.3-1Zm-.4-1.3-.6-2-.7 2h1.3Zm10-3.8v6H51V110l-1.1 3.3h-1.4l-1.2-3.3v3.3h-1.6v-6h2l1.5 4 1.5-4h2Zm3.9 6c-.6 0-1 0-1.6-.3a3 3 0 0 1-1-1.1c-.4-.5-.5-1-.5-1.6a3 3 0 0 1 1.5-2.7c.5-.2 1-.4 1.6-.4.6 0 1 .2 1.5.4.5.3.9.7 1.2 1.1.2.5.4 1 .4 1.6 0 .6-.2 1.1-.4 1.6a3 3 0 0 1-1.2 1.1c-.4.3-1 .4-1.5.4Zm0-1.5c.4 0 .8-.1 1-.4.2-.3.4-.6.4-1 0-.6-.2-1-.4-1.2-.2-.3-.6-.4-1-.4s-.8.1-1 .4c-.3.3-.4.6-.4 1.1 0 .5.1.9.4 1.1.2.3.6.4 1 .4Zm5.5-4.5v3.5c0 .3 0 .6.2.8l.7.2c.3 0 .5 0 .7-.2l.2-.8v-3.5h1.7v3.5c0 .6-.2 1-.4 1.4-.2.4-.5.7-1 .9a3 3 0 0 1-1.3.3c-.5 0-.9-.1-1.3-.3-.4-.2-.7-.5-.9-.9-.2-.4-.3-.8-.3-1.4v-3.5H62Zm10 6h-1.7L68 110v3.3h-1.7v-6H68l2.2 3.4v-3.4h1.6v6Zm5.4-6v1.4h-1.6v4.6h-1.7v-4.6h-1.5v-1.4h4.8Zm1.4 6.1a1 1 0 0 1-.7-.2.8.8 0 0 1-.2-.7c0-.2 0-.4.2-.6l.7-.2c.3 0 .6 0 .7.2l.3.6c0 .3 0 .5-.3.7a1 1 0 0 1-.7.2Zm0-3.4a1 1 0 0 1-.7-.3.8.8 0 0 1-.2-.6c0-.2 0-.4.2-.6.2-.2.5-.3.7-.3.3 0 .6.1.7.3l.3.6c0 .3 0 .5-.3.6a1 1 0 0 1-.7.3Z" />
    </g>
    <path
        d="m210.4 111 2.8-4.8-5.4 2-3.5-3 7.8 10.2-1.7-4.4ZM202 108.6l1.6-3.3 7.8 10.4-9.3-7ZM202 116l5.4-2.5-2.3-1.5-3.2 4Z"
        fill="#CCF994" />
    <path
        d="M224 107.8h-3.7v1.7l.7-.5 1-.1c.5 0 1 0 1.4.4.4.2.7.6.9 1 .2.4.3.9.3 1.4a3 3 0 0 1-.8 2.2 3 3 0 0 1-2.2.8 4 4 0 0 1-1.7-.3c-.5-.2-.8-.5-1-1-.3-.3-.5-.7-.5-1.3h2c0 .3.1.5.3.7l.8.2c.4 0 .6-.1.8-.4.2-.2.3-.5.3-1 0-.3-.1-.6-.3-.8-.2-.2-.5-.3-.8-.3a1 1 0 0 0-.7.2c-.2.1-.3.3-.3.5h-2V106h5.6v1.8Z"
        fill="#9990B0" />
    <path stroke="#9990B0" stroke-opacity=".1" stroke-width=".9" d="M29.3 136.3h195.8" />
    <g opacity=".8" fill="#fff">
        <rect x="29.3" y="160.2" width="5.2" height="5.2" rx="1.7" />
        <path
            d="M41.5 165.4c-.7 0-1.3-.2-1.7-.5-.5-.4-.7-.8-.8-1.5h1.8l.2.5.4.1h.4l.2-.4c0-.2-.1-.3-.3-.4l-.8-.3a8 8 0 0 1-1-.4 2 2 0 0 1-.6-.5l-.2-1a1.7 1.7 0 0 1 1-1.6 3 3 0 0 1 1.2-.2c.7 0 1.3.2 1.7.5.4.3.6.8.7 1.4h-1.9l-.1-.4a.6.6 0 0 0-.4-.2l-.3.1-.2.3c0 .2 0 .3.2.3l.3.3.6.2 1 .4.6.5.2.9a1.7 1.7 0 0 1-1 1.6c-.4.2-.7.3-1.2.3Zm7.5-6.1v1.3h-1.6v4.7h-1.6v-4.7h-1.6v-1.3H49Zm4.4 5h-2l-.4 1h-1.8l2.2-6h2l2.1 6h-1.7l-.4-1ZM53 163l-.6-1.9-.7 2H53Zm6.1 2.3-1.2-2.2h-.2v2.2h-1.6v-6h2.6c.5 0 .9 0 1.2.3.4.1.6.3.8.6.2.3.2.7.2 1 0 .4 0 .8-.3 1.1-.2.3-.5.5-1 .7l1.4 2.3H59Zm-1.4-3.4h.9l.5-.1.2-.5-.2-.4-.5-.2h-.9v1.2Zm8.5-2.6v1.3h-1.6v4.7H63v-4.7h-1.6v-1.3h4.8Zm2.3 0v6h-1.7v-6h1.7Zm6.5 6h-1.6l-2.3-3.4v3.4h-1.6v-6H71l2.3 3.4v-3.4H75v6Zm4.8-4a1 1 0 0 0-.4-.4l-.6-.1c-.4 0-.7.1-1 .4-.2.3-.3.6-.3 1 0 .6.1 1 .4 1.3.2.2.6.4 1 .4.7 0 1-.3 1.3-.8h-1.6v-1.2h3v1.6a3 3 0 0 1-2.8 1.8c-.6 0-1.1 0-1.6-.3-.4-.3-.8-.7-1-1.1-.3-.5-.4-1-.4-1.6 0-.6.1-1.1.4-1.6.2-.5.6-.8 1-1 .5-.3 1-.5 1.6-.5a3 3 0 0 1 1.9.6c.5.3.8.8 1 1.5h-1.9Zm9 0c0 .4 0 .7-.3 1-.1.3-.4.5-.7.7-.3.2-.8.3-1.2.3h-.9v2h-1.6v-6h2.5c.4 0 .8 0 1.2.3.3.1.6.4.7.7.2.3.3.6.3 1Zm-2.4.6c.5 0 .7-.2.7-.6 0-.4-.2-.7-.7-.7h-.7v1.3h.7Zm6.1 3.4-1.2-2.2h-.2v2.2h-1.6v-6H92c.5 0 .9 0 1.2.3.4.1.6.3.8.6.2.3.2.7.2 1 0 .4 0 .8-.3 1.1-.2.3-.5.5-1 .7l1.4 2.3h-1.9Zm-1.4-3.4h.9l.5-.1.1-.5-.1-.4-.5-.2H91v1.2Zm5.7-2.6v6H95v-6h1.7Zm.7 3c0-.6.1-1.1.4-1.6.2-.5.6-.8 1-1a3 3 0 0 1 1.6-.5 3 3 0 0 1 1.9.6c.5.4.8 1 1 1.7h-1.8a1.2 1.2 0 0 0-1.1-.7c-.4 0-.7.1-1 .4-.2.3-.3.6-.3 1 0 .6.1 1 .4 1.2.2.3.5.4.9.4a1.2 1.2 0 0 0 1-.7h1.9a2.7 2.7 0 0 1-2.9 2.2c-.6 0-1.1 0-1.6-.3-.4-.3-.8-.7-1-1.1-.3-.5-.4-1-.4-1.6Zm8.3-1.7v1h2v1.3h-2v1h2.2v1.4h-3.8v-6h3.8v1.3h-2.2Zm3.9 4.8a1 1 0 0 1-.8-.3.8.8 0 0 1-.2-.6c0-.2 0-.4.2-.6.2-.2.5-.3.8-.3.2 0 .5.1.7.3l.2.6c0 .3 0 .5-.2.6a1 1 0 0 1-.7.3Zm0-3.5a1 1 0 0 1-.8-.2.8.8 0 0 1-.2-.6c0-.3 0-.5.2-.6.2-.2.5-.3.8-.3.2 0 .5.1.7.3l.2.6c0 .2 0 .4-.2.6a1 1 0 0 1-.7.2Z" />
    </g>
    <path
        d="m174.2 164.4-.3 1.2c-.3.4-.6.7-1 .9l-1.6.4v1h-.8v-1c-.8-.1-1.5-.4-2-.8s-.8-1-.8-1.8h2.2c0 .5.2.8.6 1v-2c-.6 0-1-.2-1.4-.4-.4-.1-.7-.4-1-.7a2 2 0 0 1-.4-1.4c0-.7.2-1.3.8-1.7.5-.5 1.2-.7 2-.8v-1h.8v1c.8 0 1.5.3 2 .8.5.4.7 1 .8 1.7h-2.2c0-.4-.2-.7-.6-.8v1.8l1.5.5c.4.1.7.4 1 .7.3.3.4.8.4 1.4Zm-4.4-3.7c0 .2 0 .4.2.5l.5.4v-1.7a1 1 0 0 0-.5.3l-.2.5Zm1.5 4.6.6-.3.2-.6c0-.2 0-.3-.2-.5l-.6-.3v1.7Zm4-5.3V158h3.3v8.7h-2.1V160h-1.2Zm7.1 5-1.3 3.3h-1.3l.7-3.4h2Zm2.5-2.9a2 2 0 0 1-1.2-1.8 2.1 2.1 0 0 1 1.4-2c.5-.3 1-.4 1.7-.4.6 0 1.2.1 1.6.3.5.2.8.5 1 .9.3.3.4.7.4 1.2 0 .4-.1.8-.3 1-.2.4-.5.6-.8.8.4.2.7.5 1 .9.2.3.3.8.3 1.3a2.5 2.5 0 0 1-1.6 2.3 4 4 0 0 1-1.6.4 4 4 0 0 1-1.7-.4 2.5 2.5 0 0 1-1.6-2.4c0-.4.2-.9.4-1.2.2-.4.5-.7 1-.9Zm2.9-1.5c0-.4-.1-.6-.3-.8a1 1 0 0 0-.7-.3 1 1 0 0 0-.8.3 1 1 0 0 0-.3.8c0 .3.1.5.3.7.2.2.5.3.8.3.3 0 .5-.1.7-.3.2-.2.3-.4.3-.7Zm-1 2.4c-.4 0-.7.1-1 .3a1 1 0 0 0-.3.9c0 .3.1.6.3.8.3.2.6.3 1 .3l.9-.3c.2-.2.3-.5.3-.8a1 1 0 0 0-.4-.9c-.2-.2-.5-.3-.8-.3Zm4.4-2.4c0-.9.4-1.6.9-2 .5-.5 1.2-.7 2.1-.7.6 0 1.1.1 1.5.3a2.2 2.2 0 0 1 1.3 2c0 .6 0 1-.4 1.3a2 2 0 0 1-.9.7c.5.2.8.5 1.1.8.3.4.4.8.4 1.4 0 .4-.1.9-.4 1.3-.2.3-.5.6-1 .9-.4.2-.9.3-1.5.3-1 0-1.7-.3-2.3-.7-.5-.5-.8-1.2-.9-2.2h2c0 .4.1.7.3.9.2.2.5.3.8.3.4 0 .6-.1.8-.3l.2-.7c0-.4-.1-.7-.3-.8-.3-.2-.7-.3-1.2-.3h-.4v-1.6h.4l1-.2c.2-.2.4-.4.4-.8 0-.3-.1-.5-.3-.7a.9.9 0 0 0-.6-.2c-.3 0-.6 0-.7.3-.2.2-.2.4-.3.7h-2Zm7.2 1.7c0-1.3.3-2.4.8-3.2.5-.8 1.4-1.2 2.5-1.2 1.2 0 2 .4 2.6 1.2.5.8.8 1.9.8 3.2 0 1.4-.3 2.5-.8 3.3-.5.8-1.4 1.2-2.6 1.2-1.1 0-2-.4-2.5-1.2-.5-.8-.8-1.9-.8-3.3Zm4.7 0a5 5 0 0 0-.3-1.8c-.1-.5-.5-.7-1-.7-.6 0-1 .2-1.1.7-.2.4-.3 1-.3 1.8v1.4l.5.8c.2.3.5.4.8.4.4 0 .7-.1.9-.4l.4-.8v-1.4Zm4.2 4.6-.9-.3a1 1 0 0 1-.3-.8c0-.3.1-.6.3-.8.3-.2.6-.3 1-.3.3 0 .6 0 .8.3.2.2.3.5.3.8 0 .3 0 .6-.3.8-.2.2-.5.3-.9.3Zm2.3-1.6v-1.7l3.8-5.4h2.2v5.3h1v1.8h-1v1.5h-2v-1.5h-4Zm4.1-4.8-2 3h2v-3Zm10-.6H220v1.6l.7-.4 1-.2c.5 0 1 .2 1.4.4.4.3.7.6.9 1l.2 1.5a3 3 0 0 1-.8 2.2 3 3 0 0 1-2.2.8 4 4 0 0 1-1.6-.3c-.5-.2-.9-.5-1.1-1-.3-.3-.4-.8-.4-1.3h2c0 .3.1.5.3.6.2.2.4.3.8.3.3 0 .6-.1.8-.4.2-.2.3-.5.3-1 0-.3-.1-.6-.3-.8-.2-.2-.5-.3-.9-.3a1 1 0 0 0-.6.2c-.2 0-.3.3-.4.5h-2V158h5.6v1.8Z"
        fill="#9990B0" />
    <g opacity=".8" fill="#fff">
        <rect x="29.3" y="195.2" width="5.2" height="5.2" rx="1.7" />
        <path
            d="M43.3 194.3v1.4h-2.4v1h1.8v1.3h-1.8v2.3h-1.7v-6h4.1Zm2.4 0v6H44v-6h1.7Zm6.5 6h-1.7l-2.2-3.3v3.3h-1.7v-6h1.7l2.2 3.4v-3.4h1.7v6Zm2.6-6v6h-1.7v-6h1.7Zm3.2 6.1c-.7 0-1.3-.2-1.7-.5-.4-.3-.7-.8-.7-1.4h1.8l.1.4.5.2.3-.1.2-.4c0-.1 0-.3-.3-.4l-.8-.3-1-.4a2 2 0 0 1-.5-.5c-.2-.2-.3-.6-.3-1a1.7 1.7 0 0 1 1-1.5 3 3 0 0 1 1.2-.3c.7 0 1.3.2 1.7.5.4.4.7.8.7 1.4h-1.8c0-.2 0-.3-.2-.4a.6.6 0 0 0-.4-.1h-.3l-.1.4.1.3.3.2.6.2 1 .4.6.5c.2.3.3.6.3 1a1.7 1.7 0 0 1-1 1.5c-.4.2-.8.3-1.3.3Zm8.4-6v6h-1.7v-2.5h-2v2.4H61v-6h1.7v2.3h2v-2.3h1.7Zm2.6 0v6h-1.6v-6H69Zm6.5 6H74l-2.2-3.4v3.3H70v-6h1.7l2.2 3.4v-3.4h1.6v6Zm4.8-4a1 1 0 0 0-.4-.5h-.6c-.4 0-.7 0-1 .3-.2.3-.3.7-.3 1.1 0 .5.1 1 .4 1.2.2.3.6.4 1.1.4.6 0 1-.3 1.3-.8H79V197h3.1v1.6a3 3 0 0 1-2.9 1.9c-.6 0-1-.1-1.6-.4-.4-.3-.8-.6-1-1-.3-.6-.4-1-.4-1.7 0-.6.1-1 .4-1.6.2-.4.6-.8 1-1 .5-.3 1-.4 1.6-.4a3 3 0 0 1 2 .5c.4.4.7.9.8 1.5h-1.8Zm9 0c0 .3 0 .6-.2 1a2.6 2.6 0 0 1-2 1h-.9v2h-1.6v-6H87c.5 0 .9 0 1.2.2l.8.7.2 1Zm-2.4.6c.5 0 .7-.2.7-.7 0-.4-.2-.6-.7-.6h-.7v1.3h.7Zm6.1 3.3-1.2-2.2h-.1v2.2H90v-6h2.6c.5 0 1 .1 1.2.3.4.2.6.4.8.7.2.3.3.6.3 1s-.2.7-.4 1c-.2.3-.5.6-1 .7l1.4 2.3H93Zm-1.3-3.3h.8c.2 0 .4 0 .5-.2.1 0 .2-.2.2-.5 0-.1 0-.3-.2-.4l-.5-.2h-.8v1.3Zm5.6-2.7v6h-1.7v-6h1.7Zm.7 3c0-.6.2-1 .4-1.6.3-.4.6-.8 1-1a3 3 0 0 1 1.6-.4 3 3 0 0 1 2 .6c.4.4.8 1 .9 1.6h-1.8a1.2 1.2 0 0 0-1.1-.7c-.4 0-.7.1-1 .4-.2.3-.3.7-.3 1.1 0 .5.1.9.4 1.1.2.3.5.4.9.4l.7-.1.4-.6h1.8a2.7 2.7 0 0 1-2.9 2.3c-.6 0-1-.1-1.5-.4-.5-.3-.8-.6-1.1-1-.2-.6-.4-1-.4-1.7Zm8.4-1.6v1h1.9v1.2h-2v1.1h2.2v1.3h-3.8v-6h3.8v1.4h-2.1Zm3.8 4.7a1 1 0 0 1-.7-.2.8.8 0 0 1-.3-.7c0-.2 0-.4.3-.6l.7-.2c.3 0 .5 0 .7.2l.2.6c0 .3 0 .5-.2.7a1 1 0 0 1-.7.2Zm0-3.4a1 1 0 0 1-.7-.3.8.8 0 0 1-.3-.6c0-.2 0-.4.3-.6.1-.2.4-.2.7-.2.3 0 .5 0 .7.2l.2.6c0 .3 0 .5-.2.6a1 1 0 0 1-.7.3Z" />
    </g>
    <path
        d="m175.2 199.4-.3 1.2-1 1c-.5.2-1 .3-1.6.3v1h-.8v-1c-.8 0-1.5-.3-2-.8-.5-.4-.8-1-.8-1.7h2.2c0 .4.2.8.6.9v-1.9l-1.4-.5c-.4-.1-.7-.4-1-.7a2 2 0 0 1-.4-1.4c0-.7.2-1.3.8-1.7.5-.4 1.2-.7 2-.7v-1h.8v1c.8 0 1.5.3 2 .7.5.4.7 1 .8 1.7h-2.2c0-.4-.2-.7-.6-.8v1.9l1.5.4c.4.2.7.4 1 .8.3.3.4.7.4 1.3Zm-4.4-3.7c0 .2 0 .4.2.5l.5.4v-1.7a1 1 0 0 0-.5.3l-.2.5Zm1.5 4.6.6-.3.2-.5c0-.2 0-.4-.2-.5-.1-.2-.3-.3-.6-.4v1.7Zm4-5.3v-1.9h3.3v8.7h-2.1V195h-1.2Zm7.1 5-1.3 3.4h-1.3l.7-3.4h2Zm2.5-2.8a2 2 0 0 1-1.2-2 2.1 2.1 0 0 1 1.4-2l1.7-.2c.6 0 1.2 0 1.6.3.5.2.8.5 1 .8.3.4.4.8.4 1.2 0 .4-.1.8-.3 1.1l-.8.8 1 .8c.2.4.3.8.3 1.3a2.5 2.5 0 0 1-1.6 2.4 4 4 0 0 1-1.6.3 4 4 0 0 1-1.7-.3c-.5-.2-.8-.5-1.1-1-.3-.4-.5-.9-.5-1.4 0-.5.2-1 .4-1.3.2-.4.5-.6 1-.8Zm2.9-1.6c0-.3-.1-.6-.3-.8a1 1 0 0 0-.7-.2 1 1 0 0 0-.8.2 1 1 0 0 0-.3.8c0 .3.1.6.3.8l.8.2c.3 0 .5 0 .7-.3.2-.1.3-.4.3-.7Zm-1 2.4c-.4 0-.7.1-1 .4a1 1 0 0 0-.3.8c0 .3.1.6.3.8.3.2.6.3 1 .3.3 0 .6 0 .9-.3.2-.2.3-.5.3-.8a1 1 0 0 0-.4-.8c-.2-.3-.5-.4-.8-.4Zm10.5-3h-3.7v1.6l.6-.5 1-.1c.6 0 1 0 1.5.4.4.2.6.6.8 1 .2.4.3 1 .3 1.4a3 3 0 0 1-.8 2.2 3 3 0 0 1-2.2.8 4 4 0 0 1-1.7-.3c-.4-.2-.8-.5-1-.9-.3-.4-.4-.8-.5-1.4h2c0 .3.2.5.4.7l.7.2c.4 0 .7-.1.9-.4l.2-1c0-.3 0-.6-.3-.8-.1-.2-.4-.3-.8-.3a1 1 0 0 0-.7.2l-.3.5h-2v-5.2h5.6v1.8Zm1.6 2.4c0-1.4.3-2.5.8-3.3.5-.8 1.4-1.1 2.6-1.1 1.2 0 2 .3 2.5 1.1.6.8.8 1.9.8 3.3 0 1.3-.2 2.4-.8 3.2-.5.8-1.3 1.2-2.5 1.2s-2-.4-2.6-1.2c-.5-.8-.8-1.9-.8-3.2Zm4.7 0a5 5 0 0 0-.2-1.9c-.2-.4-.6-.6-1.1-.6-.6 0-1 .2-1.1.6-.2.4-.3 1-.3 1.9l.1 1.3c0 .4.2.6.4.9.2.2.5.3.9.3s.6-.1.8-.3c.2-.3.4-.5.4-.9l.1-1.3Zm4.3 4.5c-.4 0-.7 0-1-.3a1 1 0 0 1-.3-.8 1.2 1.2 0 0 1 1.2-1.1c.4 0 .7.1 1 .3.2.3.3.5.3.8 0 .3-.1.6-.4.8-.2.2-.5.3-.8.3Zm2.1-1.7.4-.3a43.8 43.8 0 0 0 3-2.9c.3-.4.4-.9.4-1.3 0-.3 0-.6-.2-.8-.2-.2-.4-.2-.7-.2-.3 0-.5 0-.7.3-.2.2-.3.5-.3 1h-2c0-.7.2-1.3.5-1.7.3-.5.6-.8 1-1 .5-.3 1-.4 1.6-.4 1 0 1.6.3 2.1.8s.8 1 .8 1.9c0 .8-.3 1.6-1 2.3a13 13 0 0 1-2.1 2.2h3.2v1.6h-6v-1.5Zm6.9-2.8c0-1.4.2-2.5.8-3.3.5-.8 1.4-1.1 2.5-1.1 1.2 0 2 .3 2.6 1.1.5.8.8 1.9.8 3.3 0 1.3-.3 2.4-.8 3.2-.5.8-1.4 1.2-2.6 1.2-1.1 0-2-.4-2.5-1.2-.6-.8-.8-1.9-.8-3.2Zm4.7 0c0-.8-.1-1.5-.3-1.9-.2-.4-.5-.6-1-.6-.6 0-1 .2-1.2.6l-.2 1.9v1.3c.1.4.3.6.5.9.2.2.5.3.8.3.4 0 .7-.1.9-.3l.4-.9v-1.3Z"
        fill="#9990B0" />
    <g opacity=".8" fill="#fff">
        <rect x="29.3" y="230.3" width="5.2" height="5.2" rx="1.7" />
        <path
            d="m44.7 229.4-2.1 4v2h-1.7v-2l-2.1-4h1.9l1 2.3 1.1-2.3h1.9Zm3.4 6c-.6 0-1.1-.1-1.6-.4a3 3 0 0 1-1.5-2.7 3 3 0 0 1 1.5-2.7c.5-.2 1-.3 1.6-.3.5 0 1 .1 1.5.4.5.2.9.6 1.1 1 .3.5.5 1 .5 1.6 0 .6-.2 1.2-.5 1.6a3 3 0 0 1-1 1.1c-.5.3-1 .4-1.6.4Zm0-1.5c.4 0 .7-.2 1-.4.2-.3.4-.7.4-1.2 0-.4-.2-.8-.4-1-.3-.4-.6-.5-1-.5-.5 0-.8.1-1 .4-.3.3-.4.7-.4 1.1 0 .5.1.9.4 1.2.2.2.5.4 1 .4Zm5.4-4.5v3.4c0 .4.1.6.3.8.1.2.3.3.6.3.4 0 .6-.1.7-.3.2-.2.3-.4.3-.8v-3.4H57v3.4c0 .6 0 1-.3 1.5-.2.3-.6.6-1 .8a3 3 0 0 1-1.3.3c-.5 0-1 0-1.3-.3-.4-.2-.7-.5-.9-.8-.2-.4-.3-.9-.3-1.5v-3.4h1.6Zm8.4 6c-.7 0-1.3-.1-1.8-.5-.4-.3-.6-.8-.7-1.4h1.8c0 .2 0 .4.2.5l.4.1.4-.1.1-.3c0-.2 0-.3-.2-.4l-.8-.4c-.4 0-.7-.2-1-.3a2 2 0 0 1-.6-.6c-.2-.2-.3-.5-.3-.9a1.7 1.7 0 0 1 1.1-1.6 3 3 0 0 1 1.2-.2c.7 0 1.2.1 1.7.5.4.3.6.7.6 1.3h-1.8c0-.1 0-.3-.2-.4a.6.6 0 0 0-.4-.1l-.3.1v.6l.4.2.6.3.9.3c.2.2.5.3.6.6.2.2.3.5.3.8a1.7 1.7 0 0 1-1 1.7l-1.2.2Zm6.8-1h-2.2l-.3 1h-1.7l2.2-6h1.9l2.2 6H69l-.3-1Zm-.4-1.3-.7-2-.6 2h1.3Zm8.5-3.7-2.1 4v2H73v-2l-2.1-4h1.9l1 2.3 1-2.3h2Zm1.3 6a1 1 0 0 1-.7-.2.8.8 0 0 1-.3-.6c0-.3.1-.5.3-.6.2-.2.4-.3.7-.3.3 0 .5 0 .7.3.2.1.3.3.3.6l-.3.6a1 1 0 0 1-.7.2Zm0-3.4a1 1 0 0 1-.7-.2.8.8 0 0 1-.3-.6c0-.3.1-.5.3-.7l.7-.2c.3 0 .5 0 .7.2.2.2.3.4.3.7l-.3.6a1 1 0 0 1-.7.2Z" />
    </g>
    <path
        d="M192.2 234.4c0 .5-.1.9-.3 1.3l-1 .9c-.5.2-1 .3-1.6.3v1h-.8v-1c-.8 0-1.5-.3-2-.7-.5-.5-.8-1-.8-1.8h2.2c0 .5.2.8.6 1v-2l-1.4-.4c-.4-.2-.7-.4-1-.8a2 2 0 0 1-.4-1.3c0-.8.2-1.3.8-1.8.5-.4 1.2-.7 2-.7v-1h.8v1c.8 0 1.5.3 2 .7.5.4.7 1 .8 1.8h-2.2c0-.5-.2-.7-.6-.9v1.9l1.5.5c.4.1.7.4 1 .7.3.3.4.8.4 1.3Zm-4.4-3.6c0 .2 0 .3.2.5l.5.3V230a1 1 0 0 0-.5.2l-.2.6Zm1.5 4.6.6-.3.2-.6c0-.2 0-.4-.2-.5l-.6-.3v1.7Zm4-5.3v-2h3.3v8.8h-2.1V230h-1.2Zm7.1 4.9-1.3 3.4h-1.3l.7-3.4h2Zm2.5-2.8a2 2 0 0 1-1.2-1.9 2.1 2.1 0 0 1 1.4-2c.5-.2 1-.3 1.7-.3.6 0 1.2 0 1.6.3.5.2.8.5 1 .9.3.3.4.7.4 1.1 0 .5-.1.8-.3 1.1-.2.4-.5.6-.8.8.4.2.7.5 1 .9.2.3.3.7.3 1.2a2.5 2.5 0 0 1-1.6 2.4 4 4 0 0 1-1.6.3 4 4 0 0 1-1.7-.3c-.5-.2-.8-.5-1.1-1-.3-.3-.5-.8-.5-1.4 0-.5.2-.9.4-1.3.2-.3.5-.6 1-.8Zm2.9-1.6c0-.3-.1-.5-.3-.7a1 1 0 0 0-.7-.3 1 1 0 0 0-.8.3 1 1 0 0 0-.3.7c0 .4.1.6.3.8.2.2.5.2.8.2.3 0 .5 0 .7-.2.2-.2.3-.5.3-.8Zm-1 2.5c-.4 0-.7 0-1 .3a1 1 0 0 0-.3.8c0 .4.1.6.3.8.3.3.6.4 1 .4.3 0 .6-.1.9-.4.2-.2.3-.4.3-.8a1 1 0 0 0-.4-.8c-.2-.2-.5-.3-.8-.3Zm10.5-3.2h-3.7v1.7c.1-.2.4-.3.6-.4.3-.2.6-.2 1-.2a2.4 2.4 0 0 1 2.3 1.5c.2.4.3.8.3 1.3a3 3 0 0 1-.8 2.3 3 3 0 0 1-2.2.8 4 4 0 0 1-1.7-.4c-.4-.2-.8-.5-1-.9-.3-.4-.4-.8-.5-1.3h2c0 .2.2.4.4.6.2.2.4.2.7.2.4 0 .7 0 .9-.3l.2-1c0-.4 0-.7-.3-.9-.1-.2-.4-.3-.8-.3a1 1 0 0 0-.7.2l-.3.5h-2v-5.1h5.6v1.7Zm1.6 2.5c0-1.4.3-2.4.8-3.2.5-.8 1.4-1.2 2.6-1.2 1.2 0 2 .4 2.5 1.2.6.8.8 1.8.8 3.2 0 1.4-.2 2.5-.8 3.3-.5.7-1.3 1.1-2.5 1.1s-2-.4-2.6-1.1c-.5-.8-.8-2-.8-3.3Zm4.7 0a5 5 0 0 0-.2-1.8c-.2-.5-.6-.7-1.1-.7-.6 0-1 .2-1.1.7-.2.4-.3 1-.3 1.8l.1 1.3c0 .4.2.7.4 1l.9.2c.4 0 .6 0 .8-.3.2-.2.4-.5.4-.9l.1-1.3Z"
        fill="#9990B0" />
    <path stroke="#9990B0" stroke-opacity=".1" stroke-width=".9" d="M29.3 258.5h195.8" />
    <g opacity=".8" fill="#fff">
        <rect x="29.3" y="282.3" width="5.2" height="5.2" rx="1.7" />
        <path
            d="M44 283.4c0 .4-.1.7-.3 1-.1.3-.4.6-.7.7-.4.2-.8.3-1.3.3H41v2h-1.7v-6h2.5c.5 0 1 .1 1.2.3.4.2.6.4.8.7.2.3.3.6.3 1Zm-2.4.7c.4 0 .7-.2.7-.7 0-.4-.3-.6-.7-.6h-.7v1.3h.7Zm6.8 2.4h-2l-.4 1h-1.8l2.2-6h2l2.1 6h-1.7l-.4-1Zm-.4-1.3-.6-2-.7 2H48Zm6.1 2.2-1.2-2.2h-.2v2.2h-1.6v-6h2.6c.5 0 .9.1 1.2.3.4.2.6.4.8.7.2.3.2.6.2 1s0 .7-.3 1c-.2.3-.5.6-1 .7l1.4 2.3H54Zm-1.4-3.3h.9c.2 0 .4 0 .5-.2l.1-.4-.1-.5-.5-.2h-.9v1.3Zm8.5-2.7v1.4h-1.6v4.6H58v-4.6h-1.6v-1.4h4.8Zm2.3 0v6h-1.7v-6h1.7Zm.8 3c0-.6 0-1 .3-1.6.3-.4.6-.8 1-1a3 3 0 0 1 1.6-.4 3 3 0 0 1 2 .6c.4.4.8 1 1 1.6h-1.9a1.2 1.2 0 0 0-1-.7c-.5 0-.8.1-1 .4-.2.3-.3.7-.3 1.1 0 .5 0 .9.3 1.1.2.3.5.4 1 .4l.6-.1.4-.6h1.8a2.7 2.7 0 0 1-2.9 2.3c-.5 0-1-.1-1.5-.4-.5-.3-.8-.6-1-1-.3-.5-.4-1-.4-1.7Zm8.3-3v6h-1.7v-6h1.7Zm5.7 2c0 .4-.1.7-.3 1-.1.3-.4.6-.7.7-.4.2-.8.3-1.3.3h-.8v2h-1.7v-6H76c.5 0 1 .1 1.3.3.3.2.6.4.7.7.2.3.3.6.3 1Zm-2.4.7c.4 0 .7-.2.7-.7 0-.4-.3-.6-.7-.6h-.7v1.3h.7Zm6.8 2.4h-2l-.4 1h-1.8l2.2-6h2l2.1 6h-1.7l-.4-1Zm-.4-1.3-.6-2-.7 2h1.3Zm8.6 2.2h-1.6l-2.3-3.3v3.3h-1.6v-6H87l2.3 3.4v-3.4h1.6v6Zm5.5-6v1.4h-1.6v4.6h-1.7v-4.6h-1.5v-1.4h4.8Zm2.9 6.1c-.7 0-1.3-.2-1.7-.5-.5-.3-.7-.8-.7-1.4h1.7l.2.4.4.2.4-.1.2-.4-.3-.4-.8-.3-1-.4a2 2 0 0 1-.6-.5l-.2-1a1.7 1.7 0 0 1 1-1.5 3 3 0 0 1 1.2-.3c.7 0 1.3.2 1.7.5.4.4.6.8.7 1.4h-1.9l-.1-.4a.6.6 0 0 0-.4-.1h-.3l-.1.4v.3l.4.2.6.2 1 .4.6.5.2 1c0 .3 0 .6-.2.9l-.8.7-1.2.2Zm3.8 0a1 1 0 0 1-.7-.2.8.8 0 0 1-.3-.7l.3-.6.7-.2c.3 0 .5 0 .7.2l.3.6c0 .3-.1.5-.3.7a1 1 0 0 1-.7.2Zm0-3.4a1 1 0 0 1-.7-.3.8.8 0 0 1-.3-.6l.3-.6c.2-.2.4-.2.7-.2.3 0 .5 0 .7.2l.3.6c0 .3-.1.5-.3.6a1 1 0 0 1-.7.3Z" />
    </g>
    <path
        d="M207 282.6c0-.3-.2-.5-.3-.7l-.7-.2a1 1 0 0 0-1 .6c-.2.4-.3 1-.3 1.9l.7-.7c.4-.2.7-.2 1.1-.2.8 0 1.4.2 2 .7.4.5.6 1.2.6 2 0 .6-.1 1.2-.3 1.6-.3.4-.6.8-1 1-.5.3-1 .4-1.6.4-1.3 0-2.1-.4-2.6-1.2-.5-.7-.7-1.8-.7-3.3a6 6 0 0 1 .7-3.3c.5-.8 1.4-1.1 2.5-1.1a3 3 0 0 1 1.5.3c.4.2.7.5.9 1l.4 1.2h-2Zm-1 2.3c-.3 0-.6 0-.8.3-.2.2-.3.5-.3.8 0 .4 0 .7.3 1 .2.1.5.3.9.3.3 0 .6-.1.8-.4.2-.2.3-.5.3-.8 0-.4-.1-.7-.3-1l-.9-.2Zm4.3 2.5v-1.7l3.8-5.3h2.3v5.2h1v1.8h-1v1.5h-2v-1.5h-4Zm4.2-4.8-2 3h2v-3Zm4 0c0-.8.2-1.4.8-1.9a3.4 3.4 0 0 1 3.7-.4 2.2 2.2 0 0 1 1.2 2c0 .6-.1 1-.4 1.4a2 2 0 0 1-.9.6c.5.2.8.5 1 .8.3.4.5.8.5 1.4 0 .5-.1 1-.4 1.3-.2.4-.5.7-1 .9-.4.2-1 .3-1.5.3-1 0-1.7-.2-2.3-.7-.6-.5-.9-1.2-.9-2.1h2c0 .3.1.6.3.8.2.2.5.3.8.3.3 0 .6 0 .7-.2.2-.2.3-.5.3-.8 0-.3-.1-.6-.4-.8-.2-.2-.6-.2-1.1-.2h-.4v-1.7h.4c.4 0 .7 0 1-.2.2-.1.3-.4.3-.8 0-.2 0-.5-.2-.6a.9.9 0 0 0-.7-.3c-.3 0-.5.1-.6.3-.2.2-.3.4-.3.7h-2Z"
        fill="#9990B0" />
    <g opacity=".8" fill="#fff">
        <rect x="29.3" y="317.4" width="5.2" height="5.2" rx="1.7" />
        <path
            d="M44 318.5c0 .3-.1.7-.3 1-.1.3-.4.5-.7.7-.4.2-.8.2-1.3.2H41v2h-1.7v-6h2.5c.5 0 1 .2 1.2.3.4.2.6.4.8.7.2.3.3.7.3 1Zm-2.4.6c.4 0 .7-.2.7-.6 0-.5-.3-.7-.7-.7h-.7v1.3h.7Zm6 3.4c-.6 0-1.2-.1-1.6-.4a3 3 0 0 1-1.6-2.7c0-.5.2-1 .4-1.5a3 3 0 0 1 1.2-1.1c.4-.3 1-.4 1.5-.4.6 0 1.1.1 1.6.4.4.2.8.6 1 1 .4.5.5 1 .5 1.6 0 .6-.1 1.2-.4 1.6a3 3 0 0 1-1.1 1.1c-.5.3-1 .4-1.6.4Zm0-1.5c.3 0 .7-.2 1-.4.2-.3.3-.7.3-1.2 0-.4-.1-.8-.4-1-.2-.4-.6-.5-1-.5s-.7.1-1 .4c-.2.3-.4.7-.4 1.1 0 .5.2.9.4 1.2.3.2.6.4 1 .4Zm6.6 1.5c-.5 0-1-.1-1.5-.4a3 3 0 0 1-1.6-2.7c0-.5.2-1 .4-1.5a3 3 0 0 1 1.2-1.1c.4-.3 1-.4 1.5-.4.6 0 1.1.1 1.6.4.4.2.8.6 1 1 .4.5.5 1 .5 1.6 0 .6-.1 1.2-.4 1.6a3 3 0 0 1-1.1 1.1c-.5.3-1 .4-1.6.4Zm0-1.5c.5 0 .8-.2 1-.4.3-.3.4-.7.4-1.2 0-.4-.1-.8-.4-1-.2-.4-.5-.5-1-.5-.4 0-.7.1-1 .4-.2.3-.4.7-.4 1.1 0 .5.2.9.4 1.2.3.2.6.4 1 .4Zm5.5.2h1.9v1.3H58v-6h1.7v4.7Zm6.4 1.3c-.7 0-1.2-.1-1.7-.5-.4-.3-.7-.8-.7-1.4h1.8c0 .2 0 .4.2.5l.4.1.3-.1.2-.3c0-.2 0-.3-.2-.4l-.9-.4a8 8 0 0 1-.9-.3 2 2 0 0 1-.6-.6c-.2-.2-.3-.5-.3-.9a1.7 1.7 0 0 1 1-1.6 3 3 0 0 1 1.3-.2c.6 0 1.2.1 1.6.5.4.3.7.7.7 1.3h-1.8c0-.1 0-.3-.2-.4a.6.6 0 0 0-.4-.1l-.3.1-.1.3.1.3.3.2.6.3c.4 0 .7.2 1 .3l.6.6c.2.2.3.5.3.8 0 .4-.1.7-.3 1-.2.3-.4.5-.8.7l-1.2.2Zm4.7-6v6h-1.7v-6h1.7Zm2.8 4.6H76v1.4h-4.4v-1.3l2.5-3.4h-2.5v-1.3h4.4v1.2l-2.5 3.4Zm5-3.3v1h2v1.3h-2v1h2.2v1.4H77v-6h3.8v1.3h-2.1Zm3.9 4.7a1 1 0 0 1-.8-.2.8.8 0 0 1-.2-.6c0-.3 0-.5.2-.6.2-.2.5-.3.8-.3.3 0 .5 0 .7.3l.2.6c0 .2 0 .4-.2.6a1 1 0 0 1-.7.2Zm0-3.4a1 1 0 0 1-.8-.2.8.8 0 0 1-.2-.6c0-.3 0-.5.2-.7l.8-.2c.3 0 .5 0 .7.2l.2.7c0 .2 0 .4-.2.6a1 1 0 0 1-.7.2Z" />
    </g>
    <path
        d="m176.4 320.3 2.8-4.9-5.4 2-3.5-3 7.8 10.3-1.7-4.4ZM168 317.9l1.6-3.4 7.8 10.4-9.3-7ZM168 325.3l5.4-2.6-2.3-1.5-3.2 4Z"
        fill="#CCF994" />
    <path
        d="m184.3 322.3.3-.3a44.4 44.4 0 0 0 3-2.8c.3-.5.5-1 .5-1.4l-.2-.7c-.2-.2-.4-.3-.7-.3-.3 0-.6.1-.7.3-.2.3-.3.6-.3 1h-2c0-.7.2-1.2.5-1.7.2-.5.6-.8 1-1 .5-.2 1-.3 1.6-.3.9 0 1.6.2 2 .7.6.5.8 1.1.8 1.9 0 .9-.3 1.6-.9 2.4a13 13 0 0 1-2.2 2.1h3.2v1.7h-6v-1.6Zm6.8-2.8c0-1.4.3-2.4.8-3.2.6-.8 1.4-1.2 2.6-1.2 1.2 0 2 .4 2.5 1.2.6.8.8 1.8.8 3.2 0 1.4-.2 2.5-.8 3.3-.5.7-1.3 1.1-2.5 1.1s-2-.4-2.6-1.1c-.5-.8-.8-2-.8-3.3Zm4.7 0a5 5 0 0 0-.2-1.8c-.2-.5-.6-.7-1.1-.7-.6 0-1 .2-1 .7a7.9 7.9 0 0 0-.2 3.2c0 .3.1.6.3.8.2.2.5.3.9.3s.7 0 .9-.3c.2-.2.3-.5.3-.9l.1-1.3Zm5.5 2.6-1.3 3.4h-1.3l.7-3.4h2Zm1-2.6c0-1.4.3-2.4.8-3.2.6-.8 1.4-1.2 2.6-1.2 1.2 0 2 .4 2.6 1.2.5.8.8 1.8.8 3.2 0 1.4-.3 2.5-.8 3.3-.6.7-1.4 1.1-2.6 1.1-1.2 0-2-.4-2.6-1.1-.5-.8-.8-2-.8-3.3Zm4.7 0a5 5 0 0 0-.2-1.8c-.2-.5-.6-.7-1.1-.7-.5 0-1 .2-1 .7a7.9 7.9 0 0 0-.2 3.2c0 .3.1.6.3.8.2.2.5.3.9.3s.7 0 .9-.3c.2-.2.3-.5.4-.9v-1.3Zm3.1 0c0-1.4.3-2.4.8-3.2.5-.8 1.4-1.2 2.6-1.2 1.2 0 2 .4 2.5 1.2.6.8.8 1.8.8 3.2 0 1.4-.2 2.5-.8 3.3-.5.7-1.3 1.1-2.5 1.1s-2-.4-2.6-1.1c-.5-.8-.8-2-.8-3.3Zm4.7 0a5 5 0 0 0-.2-1.8c-.2-.5-.6-.7-1.1-.7-.6 0-1 .2-1.1.7a8 8 0 0 0-.2 3.2c0 .3.2.6.4.8.2.2.5.3.9.3s.6 0 .8-.3c.2-.2.4-.5.4-.9l.1-1.3Zm3.1 0c0-1.4.3-2.4.8-3.2.5-.8 1.4-1.2 2.6-1.2 1.1 0 2 .4 2.5 1.2.5.8.8 1.8.8 3.2 0 1.4-.3 2.5-.8 3.3-.5.7-1.4 1.1-2.5 1.1-1.2 0-2-.4-2.6-1.1-.5-.8-.8-2-.8-3.3Zm4.7 0a5 5 0 0 0-.3-1.8c-.1-.5-.5-.7-1-.7-.6 0-1 .2-1.1.7a7.9 7.9 0 0 0-.2 3.2c0 .3.2.6.4.8.2.2.5.3.9.3.3 0 .6 0 .8-.3.2-.2.3-.5.4-.9l.1-1.3Z"
        fill="#9990B0" />
    <g clip-path="url(#a)">
        <rect x="259.2" y="102.5" width="202.5" height="225.7" rx="17" fill="#0C0B0F" />
        <g style="mix-blend-mode:soft-light">
            <path d="m413.6 184.2 50.4 50.3-50.4 50.3h-70.8l-50.3-50.3 50.3-50.3h70.8Z" stroke="#fff"
                stroke-width="15.9" />
            <path d="m378.2 205 29.5 29.5-29.5 29.5-29.5-29.5 29.5-29.5Z" stroke="#fff" stroke-width="15.9" />
            <path fill-rule="evenodd" clip-rule="evenodd"
                d="m319.1 176.2-58.3 58.3h-20.5l58.5-58.3h20.3ZM516 234.5l-58.3 58.3h-20.4l58.5-58.3H516Z"
                fill="#fff" />
        </g>
        <path
            d="M329.2 164.8v5.5h6.6v2.5h-6.6v5.9h7.4v2.5H326v-19h10.5v2.6h-7.4Zm17.6 8.8 4.9 7.6h-3.5l-3.3-5.1-3 5h-3.3l4.9-7.3-4.9-7.6h3.6l3.2 5 3-5h3.3l-4.9 7.4Zm6.2 0c0-1.5.3-2.8.9-4a7 7 0 0 1 6.2-3.7c1.1 0 2.2.3 3 .7 1 .5 1.6 1 2.2 1.8v-2.2h3.1v15h-3.1V179c-.6.7-1.3 1.3-2.2 1.7-.9.5-2 .7-3.1.7-1.3 0-2.5-.3-3.5-1-1.1-.6-2-1.5-2.6-2.7-.6-1.2-1-2.6-1-4Zm12.3 0c0-1-.3-1.9-.7-2.6a4.4 4.4 0 0 0-6.1-1.8c-.7.4-1.3 1-1.7 1.7-.4.8-.6 1.7-.6 2.7 0 1 .2 2 .6 2.7.4.8 1 1.4 1.7 1.8a4.5 4.5 0 0 0 4.4 0c.7-.4 1.3-1 1.7-1.7.4-.8.7-1.7.7-2.7Zm6.1 0c0-1.5.4-2.8 1-4 .6-1.2 1.5-2 2.6-2.7 1.1-.7 2.4-1 3.8-1 1.8 0 3.3.5 4.5 1.3 1.2.9 2 2.1 2.4 3.7h-3.3c-.3-.7-.7-1.3-1.3-1.7-.6-.4-1.4-.7-2.3-.7-1.3 0-2.3.5-3 1.4-.8.9-1.2 2.1-1.2 3.8 0 1.6.4 2.8 1.1 3.8.8.9 1.8 1.3 3.1 1.3 1.8 0 3-.8 3.6-2.4h3.3a6.8 6.8 0 0 1-2.4 3.7 7.3 7.3 0 0 1-4.5 1.3c-1.4 0-2.7-.3-3.8-1a7 7 0 0 1-2.6-2.6c-.6-1.2-1-2.6-1-4.1Zm21-4.9v8.3c0 .6.2 1 .4 1.2.3.3.8.4 1.4.4h1.9v2.6h-2.5c-1.4 0-2.4-.3-3.2-1-.7-.6-1-1.7-1-3.2v-8.3h-1.9v-2.5h1.8v-3.8h3.1v3.8h3.7v2.5h-3.7ZM341.9 197.7l-2.5 4.8v2.4h-1.8v-2.4l-2.5-4.8h2l1.4 3 1.4-3h2Zm4 7.3c-.6 0-1.2-.2-1.8-.5a3.6 3.6 0 0 1-1.8-3.2 3.6 3.6 0 0 1 1.8-3.2c.6-.3 1.2-.5 1.9-.5.6 0 1.2.2 1.8.5.6.3 1 .7 1.3 1.3.4.6.5 1.2.5 1.9s-.1 1.3-.5 1.9c-.3.5-.7 1-1.3 1.3-.6.3-1.2.5-1.8.5Zm0-1.6c.6 0 1-.2 1.4-.6.4-.4.5-.9.5-1.5 0-.7-.1-1.2-.5-1.5-.3-.4-.8-.6-1.3-.6-.6 0-1 .2-1.4.6-.4.3-.5.8-.5 1.5 0 .6.1 1.1.5 1.5.3.4.8.6 1.4.6Zm6.4-5.7v4.3c0 .4.1.8.3 1 .2.2.5.3 1 .3.4 0 .7 0 .9-.3.2-.2.3-.6.3-1v-4.3h1.8v4.3a3 3 0 0 1-.4 1.6c-.3.5-.7.8-1.1 1-.5.3-1 .4-1.6.4-.5 0-1-.1-1.5-.4-.4-.2-.8-.5-1-1-.3-.4-.4-1-.4-1.6v-4.3h1.7Zm17.5 0L368 205h-2.1l-1.2-4.7-1.2 4.7h-2l-2-7.2h2l1 5.2 1.3-5.2h1.9l1.2 5.2 1-5.2h2Zm4.3 7.3c-.7 0-1.3-.2-1.9-.5a3.6 3.6 0 0 1-1.8-3.2c0-.7.2-1.3.5-2 .3-.5.8-.9 1.4-1.2a3.7 3.7 0 0 1 3.7 0 3.7 3.7 0 0 1 1.8 3.2c0 .7-.2 1.3-.5 1.9-.3.5-.8 1-1.3 1.3-.6.3-1.2.5-1.9.5Zm0-1.6c.6 0 1-.2 1.4-.6.3-.4.5-.9.5-1.5 0-.7-.2-1.2-.5-1.5-.4-.4-.8-.6-1.4-.6-.6 0-1 .2-1.4.6-.3.3-.5.8-.5 1.5 0 .6.2 1.1.5 1.5.4.4.8.6 1.4.6Zm11 1.5h-1.7l-2.9-4.4v4.4h-1.7v-7.2h1.7l3 4.5v-4.5h1.7v7.2Z"
            fill="#5FF4AD" />
        <path
            d="m340.4 234.3 2.8-4.9-5.4 2.1-3.5-3 7.8 10.2-1.7-4.4ZM332 232l1.6-3.4 7.8 10.4-9.3-7ZM332 239.3l5.4-2.5-2.3-1.6-3.2 4.1Z"
            fill="#CCF994" />
        <path
            d="M359.5 227.4h-8.4v5.9a5.5 5.5 0 0 1 4-1.8c1.3 0 2.4.2 3.2.7.7.5 1.3 1.2 1.7 2 .3.9.5 1.7.5 2.7 0 1-.2 2-.6 2.9-.4.8-1 1.5-1.9 2-.8.5-1.8.8-3 .8-1.7 0-3-.4-4-1.2-.9-.9-1.5-2-1.7-3.4h1.6c.2 1 .6 1.8 1.3 2.4.8.5 1.7.8 2.7.8 1.4 0 2.4-.4 3-1.2.7-.8 1-1.8 1-3.1a4 4 0 0 0-1-3c-.7-.7-1.6-1-3-1-.8 0-1.6.1-2.3.6-.7.4-1.2 1-1.5 1.6h-1.5v-9h10v1.3Zm3.8 6.7c0-2.6.4-4.7 1.2-6.1.8-1.5 2.3-2.2 4.4-2.2 2.1 0 3.6.7 4.4 2.2.8 1.4 1.2 3.5 1.2 6.1a13 13 0 0 1-1.2 6.3c-.8 1.4-2.3 2.2-4.4 2.2-2.1 0-3.6-.8-4.4-2.2-.8-1.5-1.2-3.6-1.2-6.3Zm9.6 0c0-1.4 0-2.6-.3-3.6-.2-1-.6-1.8-1.2-2.4-.5-.6-1.4-.9-2.5-.9s-2 .3-2.5 1c-.6.5-1 1.3-1.2 2.3-.2 1-.3 2.2-.3 3.6 0 1.5.1 2.7.3 3.7.2 1 .6 1.8 1.2 2.4.6.6 1.4.9 2.5.9s2-.3 2.5-1c.6-.5 1-1.3 1.2-2.3.2-1 .3-2.2.3-3.7Zm4.6 0c0-2.6.4-4.7 1.2-6.1.8-1.5 2.3-2.2 4.4-2.2 2 0 3.5.7 4.3 2.2.9 1.4 1.3 3.5 1.3 6.1a13 13 0 0 1-1.3 6.3c-.8 1.4-2.2 2.2-4.3 2.2-2.1 0-3.6-.8-4.4-2.2-.8-1.5-1.2-3.6-1.2-6.3Zm9.6 0c0-1.4-.1-2.6-.3-3.6-.2-1-.6-1.8-1.2-2.4-.6-.6-1.4-.9-2.5-.9s-2 .3-2.6 1c-.5.5-1 1.3-1.1 2.3a19.3 19.3 0 0 0 0 7.3c.2 1 .6 1.8 1.1 2.4.6.6 1.5.9 2.6.9 1 0 2-.3 2.5-1 .6-.5 1-1.3 1.2-2.3.2-1 .3-2.2.3-3.7Z"
            fill="#fff" />
        <rect x="325.6" y="289.9" width="2.7" height="2.7" rx="1.1" fill="#fff" fill-opacity=".2" />
        <rect x="325.6" y="293.4" width="2.7" height="2.7" rx="1.1" fill="#fff" fill-opacity=".2" />
        <rect x="292.4" y="303.5" width="2.7" height="2.7" rx="1.1" fill="#fff" fill-opacity=".2" />
        <rect x="417.6" y="297.5" width="3.4" height="3.4" rx="1.1" fill="#fff" fill-opacity=".2" />
        <path d="M402.3 279c0-.6.5-1 1.1-1h1.2c.6 0 1 .4 1 1v7.9a1 1 0 0 1-1.8.7l-1.2-1.1a1 1 0 0 1-.3-.8V279Z"
            fill="#fff" fill-opacity=".2" />
        <rect x="413.4" y="146.8" width="2.7" height="2.7" rx="1.1" fill="#fff" fill-opacity=".2" />
        <rect x="335" y="130.6" width="2.7" height="2.7" rx="1.1" fill="#fff" fill-opacity=".2" />
        <rect x="286.5" y="132.3" width="3.4" height="3.4" rx="1.1" fill="#fff" fill-opacity=".2" />
        <path d="M307 146.1c0 .6.4 1.1 1 1.1h1.2c.6 0 1-.5 1-1v-7.9a1 1 0 0 0-1.8-.8l-1.2 1.2c-.2.2-.3.5-.3.8v6.6Z"
            fill="#fff" fill-opacity=".2" />
        <path d="M433.8 137.4v-9.3" stroke="#fff" stroke-opacity=".2" stroke-width="1.1" stroke-linecap="round" />
    </g>
    <defs>
        <clipPath id="a">
            <rect x="259.2" y="102.5" width="202.5" height="225.7" rx="17" fill="#fff" />
        </clipPath>
    </defs>
</svg>