<svg width="699" height="412" fill="none" xmlns="http://www.w3.org/2000/svg">
  <g clip-path="url(#a)">
    <rect x="8.3" y="119.2" width="420.3" height="196.1" rx="29" transform="rotate(-8.8 8.3 119.2)" fill="#201E27" />
    <path d="M45.1 158.4a13.8 13.8 0 1 0-4.2-27.3 13.8 13.8 0 0 0 4.2 27.3Z" fill="#627EEB" />
    <path d="m41.5 135.7-.1.4 1.8 11.9h.2l5.2-4-7.1-8.3Z" fill="#BFCDFA" />
    <path d="m41.5 135.7-4.3 10 6.2 2.4-2-12.4Z" fill="#fff" />
    <path d="m43.5 149.1.6 4.3.1.2 4.5-8.6-5.2 4.1Z" fill="#BFCDFA" />
    <path d="m44.2 153.6-.7-4.5-6.2-2.4 7 6.9Z" fill="#fff" />
    <path d="m43.4 148 5.2-4-6.1-1.7.9 5.8Z" fill="#8199EF" />
    <path d="m37.2 145.7 6.2 2.4-1-5.8" fill="#C5CAF4" />
    <path
      d="m67.7 136.7.6 3.7 4.4-.7.3 1.8-4.5.6.7 4 5-.8.2 1.7-7 1.1-2-12.8 7-1.1.3 1.7-5 .8Zm15.6-4.2.2 1.7-3.4.6 1.7 11-2 .4L78 135l-3.4.5-.3-1.7 9-1.4Zm12.3-1.9 2 12.8-2.1.3-.9-5.6-6 1 .9 5.6-2.1.3-2-12.8 2-.3 1 5.5 6-1-.9-5.5 2.1-.3Zm69.6-6.9c.1.7 0 1.3-.2 2-.2.6-.6 1.1-1.2 1.6-.6.4-1.5.8-2.5 1l-2.3.3.8 5.2-2.1.3-2-12.8 4.4-.7c1-.1 1.8-.1 2.6.1.7.3 1.3.6 1.7 1.2.4.5.7 1.1.8 1.8Zm-4.2 2.8c.8-.1 1.4-.4 1.7-.8.4-.4.5-1 .4-1.7-.3-1.3-1.2-2-2.7-1.7l-2.4.4.7 4.2 2.3-.4Zm12 5.4c-1 .1-1.8 0-2.7-.3-.8-.3-1.5-.8-2-1.5-.6-.8-1-1.6-1.2-2.7-.1-1 0-2 .3-2.8.3-.9.9-1.6 1.6-2.2.7-.5 1.5-.9 2.5-1 1-.2 1.9 0 2.7.2.9.3 1.6.8 2.2 1.6.6.7 1 1.6 1.1 2.6.2 1 0 2-.3 2.9a5 5 0 0 1-1.6 2.1c-.7.6-1.6 1-2.6 1Zm-.2-1.8a3.1 3.1 0 0 0 2.4-2c.2-.6.3-1.2.1-2 0-.7-.3-1.3-.7-1.8-.3-.4-.8-.8-1.3-1-.5-.1-1-.2-1.5 0-.6 0-1 .2-1.5.5-.4.4-.7.8-.9 1.4a4 4 0 0 0-.1 1.9c.2 1 .6 1.9 1.2 2.4.7.5 1.4.7 2.3.6Zm12 0c-1 .1-1.9 0-2.7-.3-.8-.3-1.6-.8-2.1-1.5-.6-.8-1-1.7-1.1-2.7-.2-1 0-2 .2-2.9.4-.8.9-1.5 1.6-2 .7-.6 1.6-1 2.6-1.1 1-.2 1.8-.1 2.7.2.8.3 1.6.8 2.1 1.5.6.8 1 1.7 1.1 2.7.2 1 .1 2-.2 2.8a5 5 0 0 1-1.7 2.2c-.7.6-1.5 1-2.5 1Zm-.3-1.9a3.1 3.1 0 0 0 2.4-2c.3-.5.3-1.1.2-1.9-.1-.7-.4-1.3-.7-1.8-.4-.4-.8-.8-1.3-1-.5-.1-1-.2-1.6-.1a2.8 2.8 0 0 0-2.4 2 4 4 0 0 0 0 1.9c.1 1 .5 1.9 1.2 2.4.6.5 1.4.7 2.2.5Zm7.6-13.4 2.1 13.6-2 .4L190 115l2.1-.3Zm8.6 12.8c-.8.1-1.6 0-2.2-.1a4 4 0 0 1-1.7-1 3 3 0 0 1-.9-1.5l2.2-.4c.1.5.4.8.8 1 .4.2.9.3 1.5.2.6 0 1-.2 1.3-.5.3-.3.4-.6.3-1 0-.4-.3-.6-.6-.7-.4-.2-1-.3-1.9-.4-.7 0-1.4-.2-2-.3-.4-.1-.9-.4-1.3-.7-.4-.4-.7-.9-.8-1.5 0-.6 0-1 .3-1.6.2-.5.6-1 1.2-1.3.5-.3 1.2-.5 2-.7 1.1-.1 2.1 0 2.9.5.8.5 1.3 1.2 1.5 2.2l-2 .3c-.2-.4-.4-.8-.8-1a2 2 0 0 0-1.4-.2c-.6.1-1 .3-1.2.5a1 1 0 0 0-.3 1l.3.6.8.3 1.4.2c.7 0 1.3.2 1.8.3.6.1 1 .4 1.4.7.4.3.7.8.8 1.5 0 .6 0 1.1-.2 1.6-.3.5-.7 1-1.2 1.3a5 5 0 0 1-2 .7Z"
      fill="#fff" />
    <path
      d="m111.7 129.3-6.1 1 .5 3.6a3 3 0 0 1 1-1 4 4 0 0 1 1.6-.6c1-.2 2 0 2.6.3.7.3 1.3.8 1.7 1.4.4.7.6 1.3.7 2.1.2 1 .1 1.7-.1 2.5-.3.8-.7 1.4-1.3 2a5 5 0 0 1-2.5 1 5 5 0 0 1-3.4-.6 4 4 0 0 1-1.8-2.4l2-.3c.2.6.6 1 1.1 1.2a3 3 0 0 0 1.9.3c.8-.2 1.4-.5 1.8-1.1.3-.6.5-1.4.3-2.2-.1-1-.4-1.6-1-2-.5-.4-1.2-.5-2-.4-.6.1-1.1.4-1.5.7-.3.4-.6.8-.7 1.4l-2 .3-1.2-7.8 8.1-1.2.3 1.8Zm15.9-1.1c.8-.1 1.5 0 2.2.2.7.2 1.3.6 1.7 1.2.5.6.8 1.4 1 2.3l.9 6-2.1.3-.9-5.7c-.1-.9-.5-1.6-1-2-.5-.4-1.2-.5-2-.4-.7.1-1.3.4-1.7 1-.4.6-.5 1.3-.4 2.2l.9 5.7-2 .3-1-5.7c-.1-.9-.4-1.5-1-2-.5-.4-1.2-.5-2-.4-.7.1-1.3.5-1.7 1-.4.6-.5 1.3-.4 2.2l1 5.7-2.2.3-1.6-10.1 2.1-.4.2 1.2a4.2 4.2 0 0 1 2.8-1.8c.8-.1 1.6 0 2.3.2.7.2 1.2.7 1.7 1.2.2-.6.6-1.2 1.2-1.6.6-.5 1.3-.8 2-1Zm7.7-2.4c-.3 0-.7 0-1-.3-.3-.2-.5-.5-.5-.9 0-.3 0-.7.2-1 .2-.3.5-.4 1-.5.3 0 .6 0 1 .2l.5 1c0 .3 0 .7-.3 1-.2.2-.5.4-.9.5Zm1.3 1.2 1.6 10.1-2.1.3-1.6-10.1 2-.3Zm7.8-1.4c.8-.1 1.6 0 2.2.1.7.3 1.3.7 1.8 1.3.4.6.7 1.3.9 2.3l.9 6-2 .3-1-5.7c-.1-1-.4-1.6-1-2-.5-.4-1.2-.5-2-.4-.7.1-1.3.4-1.7 1-.4.6-.5 1.3-.4 2.2l1 5.7-2.2.3-1.6-10.2 2.1-.3.2 1.2c.3-.5.7-.9 1.2-1.2.5-.3 1-.5 1.6-.6Z"
      fill="#8199EF" />
    <path
      d="M287.4 98v.8l-1.4.2.7 5-.9.1-.8-5-1.5.3-.1-.8 4-.6Zm1.5.4-.5-.1a.6.6 0 0 1-.2-.4v-.5l.5-.2.4.1c.2.1.2.2.3.4l-.1.5-.4.2Zm.5.5.7 4.5-1 .2-.6-4.5 1-.2Zm6.7-1h1c.3 0 .5.3.7.5.3.3.4.6.5 1l.4 2.7-1 .1-.3-2.5c-.1-.4-.3-.7-.5-.9a1 1 0 0 0-.9-.1c-.3 0-.6.2-.8.4-.1.3-.2.6-.1 1l.4 2.5-1 .1-.3-2.5c-.1-.4-.3-.7-.5-.9a1 1 0 0 0-.9-.2l-.8.5c-.1.2-.2.6-.1 1l.4 2.5-1 .1-.7-4.5 1-.1v.5l.6-.5c.2-.2.4-.3.7-.3h1l.8.6c0-.2.2-.5.5-.7l.9-.4Zm7.5 1v.5l-3.4.5c.1.4.3.6.6.8.2.2.5.3.9.2.5 0 .8-.3 1-.8l1-.1a2 2 0 0 1-1.9 1.7l-1.2-.1-1-.7-.4-1.2v-1.3c.2-.3.4-.7.8-.9l1-.5 1.3.1.9.7c.2.3.4.7.4 1.1Zm-1-.1a1 1 0 0 0-.5-.8c-.3-.2-.6-.2-1-.2-.3 0-.5.2-.7.5-.2.2-.3.5-.3.9l2.5-.4Zm7.8-3.1.7 4.5-1 .1v-.5l-.5.5c-.2.2-.5.3-.7.3a2 2 0 0 1-1 0l-.8-.6-.4-1-.4-2.7 1-.1.3 2.5c0 .4.2.7.5.9l.8.2c.4-.1.6-.3.8-.5.2-.2.2-.6.2-1l-.4-2.5 1-.1Zm3.5-.7 1 .1c.3.1.6.3.8.6.2.2.3.6.4 1l.4 2.6-1 .2-.3-2.5-.5-1a1 1 0 0 0-.9-.1c-.3 0-.6.2-.7.4-.2.3-.3.6-.2 1l.4 2.5-1 .2-.6-4.5.9-.2v.5l.6-.5.7-.3Zm4.3.2.4 2.5.1.4h1l.2.7-.8.1c-.4.1-.7 0-1-.1-.2-.2-.4-.5-.5-1l-.4-2.4h-.5l-.1-.7h.5l-.2-1.2 1-.1.2 1h1l.2.7-1.1.1Zm2.2-1.7-.5-.1a.6.6 0 0 1-.2-.4l.1-.5.4-.2.5.1.2.4-.1.5-.4.2Zm.5.5.7 4.5-.9.2-.7-4.5 1-.2Zm2-1.9 1 6.1-1 .2-1-6.1 1-.2Zm-36.2 20 .6-.6.9-.3 1.1.1c.4.1.7.4 1 .7l.4 1.2-.1 1.2c-.1.4-.4.7-.6 1a2 2 0 0 1-1 .4 2 2 0 0 1-1.8-.4l.5 2.8h-1l-1-6.6 1-.1v.7Zm3 1.2c0-.3-.1-.6-.3-.8l-.6-.4a1.3 1.3 0 0 0-1.3.2c-.2.2-.4.4-.4.6-.1.3-.2.5-.1.8 0 .4.1.6.3.8l.6.5a1.4 1.4 0 0 0 1.3-.2l.5-.6v-.9Zm4.2 1.8-1.2-.1-1-.7-.4-1.2.1-1.3.7-1 1.1-.4 1.3.1 1 .7.4 1.2-.1 1.2-.7 1-1.2.5Zm-.1-.8a1.4 1.4 0 0 0 1-1c.2-.2.2-.5.1-.8 0-.3-.1-.6-.3-.8a1.3 1.3 0 0 0-1.2-.5c-.3 0-.5.1-.7.3-.2.1-.3.3-.4.6 0 .2-.1.5 0 .8 0 .5.2.9.5 1.1.3.2.6.3 1 .3Zm5.3 0c-.4 0-.8 0-1.2-.2l-.9-.6-.5-1.2.1-1.3.7-1 1.2-.4h1.2l1 .8c.2.3.4.7.4 1.2.1.4 0 .8-.1 1.2-.1.4-.4.7-.7 1l-1.2.5Zm0-.9a1.4 1.4 0 0 0 1-.8v-.9c0-.3 0-.6-.3-.8-.1-.2-.3-.4-.5-.4l-.7-.1c-.3 0-.5.1-.7.3-.2.1-.3.3-.4.6v.8c0 .5.2.9.5 1 .3.3.6.4 1 .3Zm3.3-6 1 6.1-1 .2-1-6 1-.2Zm3.8 5.8h-1l-.7-.5c-.2-.2-.4-.4-.4-.7l1-.2c0 .2.1.4.3.5h.7c.2 0 .4 0 .5-.2.2-.1.2-.2.2-.4s-.1-.3-.3-.3l-.8-.2-.9-.1-.6-.3a1 1 0 0 1-.3-.7v-.7l.6-.6 1-.3c.4 0 .9 0 1.2.2.4.2.6.5.7 1l-1 .1c0-.2-.1-.3-.3-.4a1 1 0 0 0-.6-.1 1 1 0 0 0-.5.2c-.2.1-.2.3-.2.4 0 .1 0 .2.2.3l.3.2h.6l.9.2.6.3c.2.1.3.4.3.7v.7l-.6.5-.9.4Zm5.2-4.9c0-.2.2-.4.5-.6.2-.2.4-.3.7-.3l.2 1h-.3c-.3 0-.6.2-.8.4v1l.3 2.4-1 .1-.6-4.5.9-.1v.6Zm6.6.5v.5l-3.4.5c0 .4.2.7.5.8.3.2.6.3 1 .2.4 0 .8-.3.9-.8l1-.1a2 2 0 0 1-1.9 1.7H315l-.9-.8-.5-1.2.1-1.2.7-1c.3-.2.7-.4 1.1-.4h1.2l1 .7.4 1.1Zm-1-.1a1 1 0 0 0-.6-.8c-.2-.2-.5-.2-.9-.2-.3.1-.6.2-.8.5-.2.2-.3.5-.3.9l2.5-.4Zm3.6-1.7-.9.1.6 3.8-1 .1-.5-3.7h-.5l-.2-.7h.6v-.4c-.2-.5 0-1 .2-1.2.2-.3.6-.5 1.2-.5l.1.7c-.3 0-.5.2-.6.3V106.4l.8-.1.2.7Zm1.7-.4.5-.6c.2-.1.4-.3.7-.3l.2 1h-.2c-.4 0-.7.2-.8.4-.2.2-.2.6-.2 1l.4 2.4-1 .1-.6-4.5.9-.1.1.6Zm6.6.5v.5l-3.4.5a1.3 1.3 0 0 0 1.4 1c.5 0 .9-.3 1-.8l1-.1a2 2 0 0 1-1.8 1.7h-1.2l-1-.8c-.2-.3-.4-.7-.4-1.2v-1.2l.7-1c.3-.2.7-.4 1.1-.4h1.2l1 .7.4 1.1Zm-1-.1a1 1 0 0 0-.5-.8c-.3-.1-.6-.2-1-.1-.3 0-.6.2-.8.4-.2.2-.2.5-.2.9l2.5-.4Zm4 2.2h-1c-.4-.1-.6-.3-.8-.5l-.4-.7 1-.1c0 .2.1.3.3.4l.7.1.6-.2.1-.5c0-.1-.1-.3-.3-.3l-.8-.2-.9-.1-.6-.3a1 1 0 0 1-.3-.7l.1-.7.5-.5 1-.4c.4 0 .9 0 1.2.2.4.2.6.6.7 1l-1 .2c0-.2-.1-.4-.3-.5a1 1 0 0 0-.6 0 1 1 0 0 0-.5.2c-.2 0-.2.2-.2.4l.2.2.4.2h.5l.9.2.6.3c.2.2.3.4.3.7v.7l-.6.6-.9.3Zm4.3-5.5 1 .1.7.6c.2.2.3.6.4 1l.4 2.6-1 .2-.4-2.5c0-.4-.2-.7-.4-1a1 1 0 0 0-.9-.1c-.3 0-.6.2-.8.4-.1.3-.2.6-.1 1l.4 2.5-1 .2-.9-6 1-.2.3 2c0-.2.3-.3.5-.5l.8-.3Zm4 4.2-.4-.1a.6.6 0 0 1-.3-.4c0-.2 0-.4.2-.5l.4-.2h.4l.2.5v.4l-.5.3Zm-.5-3.5h-.4a.6.6 0 0 1-.3-.5l.1-.4c.1-.2.3-.2.4-.3l.5.1.2.4-.1.5-.4.2Z"
      fill="#9990B0" />
    <path
      d="m350.6 97.3 1.2 7.3a6.4 6.4 0 0 0 7.3 5.3l39.8-6.1c1-.2 2-.6 2.8-1.2l7.9-5.6c2-1.5 3.1-4 2.7-6.5l-1.5-10a6.4 6.4 0 0 0-7.4-5.4l-39.7 6.2c-1 .1-2 .5-2.9 1.1l-7.9 5.7c-2 1.4-3 4-2.7 6.4l.4 2.8Z"
      fill="#2A2831" />
    <circle cx="364.9" cy="95.4" r="8.3" transform="rotate(-8.8 365 95.4)" fill="#0C0B0F" />
    <path
      d="M364 89.3a6.2 6.2 0 1 0 4 .7l-3 5.4-1-6.1ZM378 92.8c-.2-1.5-.2-2.8.2-3.7.3-1 1.1-1.5 2.4-1.7 1.2-.2 2.1 0 2.8.9.6.8 1 2 1.3 3.5.2 1.6.1 2.9-.2 3.8-.3 1-1.1 1.5-2.4 1.7-1.2.2-2.2 0-2.8-.9a8 8 0 0 1-1.3-3.6Zm5.7-.9a11 11 0 0 0-.5-2c-.2-.6-.5-1-1-1.4-.3-.3-.8-.4-1.5-.3-.7.1-1.1.4-1.4.8-.3.4-.5 1-.5 1.5 0 .6 0 1.3.2 2.2.1.9.3 1.6.5 2.2.2.5.5 1 .9 1.3.4.3 1 .4 1.6.3.6-.1 1.1-.4 1.4-.8.3-.4.4-1 .5-1.5 0-.6 0-1.4-.2-2.3Zm3.9 4.6-.6-.1a.7.7 0 0 1-.2-.5v-.5l.6-.3.5.1.3.5c0 .2 0 .4-.2.5 0 .2-.2.3-.4.3Zm-1-6h-.5a.7.7 0 0 1-.2-.5v-.5c.2-.2.3-.3.5-.3l.5.1c.2.1.3.3.3.5l-.1.5c-.1.2-.3.3-.4.3Zm7.9-4.3-5 .8.5 3.5c.2-.4.5-.7 1-1l1.3-.5c.7-.1 1.4 0 1.9.2s1 .5 1.2 1l.6 1.5a4 4 0 0 1-.1 1.8c-.2.5-.5 1-1 1.4-.4.4-1 .6-1.7.7-1 .2-1.8 0-2.4-.3-.7-.4-1.1-1-1.4-1.9l1-.1c.2.6.5 1 1 1.3.5.2 1 .3 1.6.2.8-.1 1.4-.4 1.7-1 .4-.5.5-1.2.3-2 0-.7-.4-1.2-.8-1.6-.5-.4-1.1-.5-2-.4-.4.1-.9.3-1.2.6-.4.3-.6.7-.8 1.2h-.9l-.8-5.3 5.9-1 .1.9ZM399 92c.2.6.5 1 .9 1.3.4.2 1 .3 1.5.2.9-.1 1.5-.5 1.8-1.3.3-.7.3-1.8 0-3.4 0 .5-.3 1-.8 1.4-.4.3-1 .5-1.6.6-1 .2-1.7 0-2.4-.5s-1-1.2-1.2-2.2v-1.7c.2-.6.5-1 1-1.4.4-.3 1-.5 1.7-.7 1.2-.2 2.2.1 2.9.9.6.8 1 2 1.3 3.5.2 1.7.2 3-.2 4-.4.9-1.2 1.4-2.4 1.6a3 3 0 0 1-2.2-.4c-.6-.4-1-1-1.2-1.8h.9Zm1.8-2c.5 0 .8-.2 1.2-.5a2.2 2.2 0 0 0 .9-2.2c-.2-.7-.5-1.3-1-1.7-.5-.4-1.1-.6-1.9-.5-.7.2-1.2.5-1.6 1-.3.5-.5 1-.3 1.8 0 .8.4 1.3.9 1.7.5.4 1 .5 1.8.4Z"
      fill="#D2FFFE" />
    <g clip-path="url(#b)">
      <rect x="24.4" y="187" width="135" height="122.6" rx="23.5" transform="rotate(-8.8 24.4 187)" fill="#9CB0F8" />
      <g style="mix-blend-mode:soft-light" opacity=".5">
        <path d="m134.5 148.7-.2 1.7 7.3 47.3.6.4 20.7-16.5-28.4-32.9Z" fill="#BFCDFA" />
        <path d="m134.5 148.7-17 40 24.7 9.4-7.7-49.4Z" fill="#fff" />
        <path d="m142.8 202.2-.2.4 2.6 16.9.4.7 18-34.4-20.8 16.4Z" fill="#BFCDFA" />
        <path d="m145.6 220.2-2.8-18-24.7-9.4 27.5 27.4Z" fill="#fff" />
        <path d="m142.2 198.1 20.7-16.5-24.3-6.4 3.6 22.9Z" fill="#8199EF" />
        <path d="m117.4 188.7 24.8 9.4-3.6-23" fill="#C5CAF4" />
      </g>
      <path fill-rule="evenodd" clip-rule="evenodd"
        d="m96.5 228.2-2.6-1.6c-.4-.2-.6-.5-.7-1l-3-19.6c0-.4 0-.8.3-1l2-2.4c-.8-5.1-1.2-7.7-2.5-9.5a9.3 9.3 0 0 0-4.6-3.4c-2.1-.7-4.7-.3-9.8.5l-13 2c-9 1.4-13.4 2.1-16.6 4.4-2.7 2-4.8 4.8-5.9 8-1.2 3.8-.5 8.2.9 17.2l1.8 11.6c.4 2.5.6 3.8 1 4.9.5 1 1.1 1.9 1.9 2.7.8.9 1.9 1.5 4 2.8l2 1.1c1.6 1 2.5 1.6 3.4 2 .8.2 1.7.4 2.5.4 1 0 2 0 4-.4l7.5-1.2 5.2-.8 5.3-.8 4.3-.7c5-.7 7.6-1.1 9.5-2.4a9.3 9.3 0 0 0 3.3-4.7c.6-1.8.4-4-.2-8Z"
        fill="#0C0B0F" />
      <rect x="96.7" y="190.9" width="3.5" height="3.5" rx="1.4" transform="rotate(-8.8 96.7 190.9)" fill="#0C0B0F" />
      <rect x="89.9" y="215" width="3.5" height="3.5" rx="1.4" transform="rotate(-8.8 89.9 215)" fill="#fff" />
      <path
        d="M96 218c0-.8.5-1.5 1.2-1.7l1.5-.2c.7 0 1.4.4 1.6 1.2l1.5 9.7c.2 1.2-1.2 2-2.2 1.4l-1.7-1.2c-.3-.2-.5-.6-.5-1L96 218Z"
        fill="#fff" />
      <path d="m38 216.6 2 13" stroke="#201E27" stroke-width="1.4" stroke-linecap="round" />
      <path
        d="m50 212.6-1.6.2-.2.9-1.4.2 1-5 1.6-.3 2.5 4.5-1.5.2-.3-.7Zm-.4-1-.8-1.5-.3 1.7 1-.2Zm7.6-4.2.7 4.8-1.3.2-.4-2.7-.5 2.8-1.2.2-1.3-2.5.4 2.6-1.3.2-.7-4.8 1.6-.2 1.7 3 .7-3.4 1.6-.2Zm3.8 4.3h-1.3a2.4 2.4 0 0 1-1.6-2c0-.5 0-1 .2-1.4.1-.4.4-.7.7-1 .4-.3.8-.4 1.2-.5l1.3.1c.4.2.8.4 1 .8.3.3.5.7.6 1.2 0 .5 0 1-.2 1.3a2.4 2.4 0 0 1-2 1.5Zm-.2-1.2c.3 0 .6-.2.7-.5.2-.2.3-.5.2-.9 0-.4-.2-.7-.4-.9a1 1 0 0 0-.9-.2 1 1 0 0 0-.7.5c-.2.2-.3.6-.2 1 0 .3.2.6.4.8.3.2.5.3.9.2Zm3.8-4.3.4 2.8c0 .3.2.4.3.6h.6c.2 0 .4 0 .5-.2.1-.2.2-.4.1-.6l-.4-2.8 1.3-.2.5 2.8c0 .4 0 .8-.2 1.1 0 .4-.3.6-.6.9l-1 .4-1.1-.1c-.4-.1-.6-.3-.9-.6l-.4-1.1-.4-2.8 1.3-.2Zm8.8 3.6-1.4.2-2.2-2.4.4 2.7-1.3.2-.7-4.8 1.3-.3 2.2 2.5-.4-2.7 1.3-.2.8 4.8Zm3.6-5.5.2 1-1.3.2.6 3.8-1.4.2-.6-3.7-1.2.2-.2-1.1 3.9-.6Z"
        fill="#fff" />
      <path
        d="M56.2 225.4 58 221l-4 2.4-3.3-2 7.6 7.2-2-3.3ZM49.3 224.5l.8-2.9 7.6 7.4-8.4-4.5ZM50.1 230.4l4-2.7-2-1-2 3.7Z"
        fill="#CCF994" />
      <path
        d="m69.3 218.6-5.4.8.5 3.9c.2-.4.6-.8 1-1 .5-.4 1-.5 1.5-.6.8-.2 1.5 0 2.1.2.6.2 1 .6 1.3 1.1.3.5.6 1 .6 1.7.2.7.1 1.3 0 2a3 3 0 0 1-1 1.4c-.6.5-1.2.7-2 .9-1 .1-2 0-2.6-.4a3.5 3.5 0 0 1-1.6-2l1-.2c.3.6.7 1.1 1.2 1.4.5.3 1.2.4 1.8.3 1-.2 1.5-.5 1.9-1.1a3 3 0 0 0 .3-2.2c0-.8-.4-1.4-1-1.8-.5-.4-1.1-.5-2-.4-.6 0-1 .3-1.4.6-.4.4-.7.8-.9 1.3l-1 .1-.9-6 6.5-1 .1 1Z"
        fill="#fff" />
      <path
        d="M126.6 223.6a2.2 2.2 0 0 0 .7 4.3 2.2 2.2 0 0 0-.7-4.3ZM129.8 228.7a4.6 4.6 0 0 0-4.6.7c-.5.5-.8 1-.7 1.6.1.6.5 1 1.1 1.4.7.3 1.6.4 2.5.3.8-.2 1.6-.5 2.2-1 .5-.5.7-1 .6-1.7 0-.5-.5-1-1-1.3ZM139.4 223.5l-.6-.7h-.9c-.6 0-1 .3-1.2.8-.2.5-.2 1.2-.1 2.2.1-.3.4-.6.7-.8.4-.3.7-.4 1.2-.5l1.3.1c.4.2.7.4 1 .8.2.4.4.8.5 1.4v1.4c-.2.4-.5.8-.8 1-.4.3-.8.5-1.4.6-.7.1-1.4 0-1.8-.2-.5-.3-.9-.7-1.1-1.3-.3-.5-.5-1.3-.6-2.2-.5-2.7.3-4.1 2.1-4.4.8-.1 1.4 0 1.9.3.4.3.8.8 1 1.3l-1.2.2Zm-1 2.1c-.5 0-.9.3-1.1.6-.3.3-.4.7-.3 1.2 0 .5.3.9.6 1.1.3.3.8.4 1.3.3.4 0 .8-.3 1-.6.2-.3.3-.7.2-1.2 0-.5-.2-.9-.5-1.1-.4-.3-.8-.4-1.3-.3Zm4.2 2-.1-1 2.8-5.8 1.5-.2.8 5h1l.2 1-1 .2.3 1.6-1.3.2-.2-1.6-4 .6Zm3.3-5.6-2 4.3 2.6-.4-.6-3.9Zm3.3.1c-.1-.7 0-1.2.5-1.7a3 3 0 0 1 1.7-.8h1.4l1 .6.4 1a1.9 1.9 0 0 1-1 2v.1c.5 0 .9.3 1.2.6.3.3.5.7.5 1.2v1.2a2 2 0 0 1-.8 1c-.4.2-.8.4-1.4.5a3 3 0 0 1-2-.3c-.6-.4-1-1-1-1.7l1.1-.2c.1.4.3.7.6 1 .3.1.7.2 1.2.1.4 0 .7-.2 1-.5l.2-1c-.1-.5-.3-.9-.7-1-.4-.2-.9-.2-1.5-.1h-.3l-.2-1h.3c.6-.1 1-.3 1.3-.5.3-.3.4-.6.3-1a1 1 0 0 0-.4-.8c-.3-.2-.6-.2-1-.2l-1 .5-.2.8-1.2.2Z"
        fill="#0C0B0F" />
      <path
        d="M47 260.3c-.5-3 1.6-5.8 4.6-6.3l88.4-13.7a18 18 0 0 1 20.5 15l.8 5.2a18 18 0 0 1-15 20.5l-76.1 11.8a18 18 0 0 1-20.5-15L47 260.3Z"
        fill="#fff" fill-opacity=".2" />
      <rect x="56.1" y="260.3" width="4.2" height="4.2" rx="1.4" transform="rotate(-8.8 56 260.3)" fill="#0C0B0F" />
      <path opacity=".4"
        d="M68 259.9c.1.3 0 .5 0 .8l-.5.7c-.3.1-.6.3-1 .3l-.7.1.3 1.7-1.3.2-.8-4.8 2-.4h1c.3.2.6.3.7.6l.4.8Zm-1.8.8c.4 0 .6-.3.5-.6 0-.4-.3-.5-.7-.5l-.5.1.2 1h.5Zm5.3 2c-.5 0-.9 0-1.3-.2a2.5 2.5 0 0 1-1.6-2c0-.4 0-.8.2-1.2.1-.4.4-.8.7-1l1.2-.6c.5 0 .9 0 1.3.2.4.1.8.4 1 .7.3.3.5.7.6 1.2 0 .5 0 1-.2 1.3-.1.4-.4.8-.7 1l-1.2.6Zm-.2-1.3c.3 0 .6-.2.7-.4.2-.3.3-.6.2-1 0-.4-.2-.6-.4-.8a1 1 0 0 0-.9-.2 1 1 0 0 0-.8.4c-.1.3-.2.6-.1 1 0 .3.2.6.4.8.3.2.5.3.9.2Zm5.6.4-1.3-.1a2.5 2.5 0 0 1-1.5-2v-1.3l.9-1c.3-.3.7-.4 1.2-.5l1.2.1c.5.2.8.4 1 .8.3.3.5.7.6 1.2l-.1 1.3c-.2.4-.4.7-.8 1-.3.3-.7.5-1.2.5Zm-.2-1.2c.4 0 .6-.2.8-.5.1-.2.2-.5.1-1 0-.3-.2-.6-.4-.8a1 1 0 0 0-.9-.2 1 1 0 0 0-.7.5c-.2.2-.2.5-.2 1 0 .3.2.6.5.8.2.2.5.2.8.2Zm4.5-.5 1.5-.3.2 1-2.9.5-.7-4.8 1.3-.2.6 3.8Zm5.5.2c-.6.1-1 0-1.5-.2-.4-.2-.6-.5-.7-1l1.4-.2c0 .1 0 .2.2.3h.6l.1-.3c0-.2 0-.3-.2-.3l-.7-.2-.8-.2-.6-.3c-.2-.2-.3-.4-.3-.8a1.4 1.4 0 0 1 .6-1.4l1-.3c.5 0 1 0 1.3.2.4.2.7.5.8 1l-1.5.2c0-.1 0-.2-.2-.3h-.6v.4l.1.2.3.1.5.1.8.2c.2 0 .4.2.6.4.2.1.3.3.3.6a1.4 1.4 0 0 1-.6 1.5c-.3.1-.6.3-1 .3Zm3-5.4.8 4.8-1.4.2-.7-4.8 1.3-.2Zm2.9 3.3 2-.3.2 1.1-3.5.6-.2-1 1.6-3-2 .2-.2-1 3.5-.6.2 1-1.6 3Zm3.7-3.3.1.8 1.6-.2.1 1-1.5.2.1 1 1.8-.4.1 1.1-3 .5-.8-4.8 3-.5.3 1-1.8.3Z"
        fill="#0C0B0F" />
      <path
        d="m67 277.3 1.9-4.6-4.5 2.5L61 273l8.2 7.9-2.1-3.6ZM59.5 276.3l.9-3 8.2 7.9-9-4.9ZM60.4 282.8l4.4-3-2.2-1-2.2 4Z"
        fill="#CCF994" />
      <path
        d="M74.8 278.2a54 54 0 0 0 2.8-3.9 3 3 0 0 0 .3-1.6c-.1-.6-.3-1-.6-1.3-.3-.2-.8-.3-1.3-.2-.6 0-1 .3-1.2.7-.2.4-.3.8-.2 1.4l-1.6.3c0-1 .1-2 .6-2.6.5-.6 1.2-1 2.2-1.2 1-.1 1.8 0 2.4.5a3 3 0 0 1 1.2 2 4 4 0 0 1-.2 2c-.3.7-.6 1.3-1 1.8l-1.4 2-.6.6 4.3-.7.3 1.3-6.7 1-.2-1 .9-1Zm6.5-4c-.2-1.6-.1-2.9.3-3.9s1.2-1.5 2.5-1.7c1.3-.2 2.3 0 3 .9.6.8 1.1 2 1.3 3.6.3 1.5.2 2.8-.2 3.8s-1.2 1.6-2.5 1.8c-1.3.2-2.3-.1-3-1-.6-.8-1.1-2-1.4-3.6Zm5.6-1a10 10 0 0 0-.4-1.8c-.2-.5-.5-.8-.8-1.1-.3-.3-.8-.4-1.4-.3-.5 0-1 .3-1.2.7-.2.4-.4.8-.4 1.3s0 1.2.2 2c0 .7.2 1.3.4 1.8s.4 1 .8 1.2c.3.3.8.3 1.4.3.5-.1 1-.4 1.2-.7.2-.4.4-.8.4-1.4 0-.5 0-1.1-.2-2Zm5.6 2.5-1 4-1 .2.3-4 1.7-.2Zm.7-3.4c-.3-1.6-.2-2.8.2-3.8s1.2-1.6 2.5-1.8c1.3-.2 2.3.2 3 1 .6.8 1.1 2 1.3 3.5.3 1.6.2 2.9-.2 3.9s-1.2 1.5-2.5 1.7c-1.3.2-2.3 0-3-.9-.6-.8-1.1-2-1.3-3.6Zm5.5-.8a10 10 0 0 0-.4-1.9c-.2-.5-.4-.9-.8-1.1-.3-.3-.8-.4-1.4-.3-.5 0-1 .3-1.2.7-.2.3-.4.8-.4 1.3s0 1.1.2 1.9l.4 1.9c.2.5.4.9.8 1.2.3.2.8.3 1.4.2.5 0 1-.3 1.2-.7.2-.3.4-.8.4-1.3s0-1.2-.2-2Zm3.2-.5c-.2-1.6-.2-2.9.2-3.8.4-1 1.3-1.6 2.6-1.8 1.3-.2 2.2 0 3 .9.6.8 1 2 1.3 3.6.2 1.6.2 2.8-.2 3.8s-1.3 1.6-2.6 1.8c-1.3.2-2.3-.1-3-1-.6-.7-1-2-1.3-3.5Zm5.6-.9a10 10 0 0 0-.5-1.8c-.1-.5-.4-1-.7-1.2-.4-.3-.8-.4-1.4-.3-.6.1-1 .3-1.2.7-.3.4-.4.8-.4 1.3l.1 2 .5 1.8c.1.5.4 1 .7 1.2.4.3.8.4 1.4.3.6-.1 1-.3 1.2-.7.3-.4.4-.8.4-1.4l-.1-1.9Zm3.1-.5c-.2-1.6-.1-2.8.3-3.8s1.2-1.6 2.5-1.8c1.3-.2 2.3.1 3 1 .6.7 1 2 1.3 3.5.3 1.6.2 2.9-.2 3.9s-1.2 1.5-2.5 1.7c-1.3.2-2.3 0-3-.9-.7-.8-1.1-2-1.4-3.6Zm5.6-.9a10 10 0 0 0-.4-1.8c-.2-.5-.5-.9-.8-1.2-.3-.2-.8-.3-1.4-.2-.5 0-1 .3-1.2.6-.2.4-.4.9-.4 1.4 0 .5 0 1.1.2 1.9 0 .7.2 1.4.4 1.9s.4.9.8 1.1c.3.3.8.4 1.4.3.5 0 1-.3 1.2-.7.2-.3.4-.8.4-1.3s0-1.2-.2-2Z"
        fill="#0C0B0F" />
    </g>
    <path
      d="m139.7 169.5.8.6-.8-.6-2.8 3.8c-.7 1-1 2.3-.8 3.6l.6 3.9 1.1 7.3a4.7 4.7 0 0 0 5.4 3.9l11.2-1.8c1.2-.2 2.4-.8 3.1-1.9l2.8-3.7c.7-1 1-2.4.9-3.6l-1.8-11.2a4.7 4.7 0 0 0-5.3-4l-11.2 1.8c-1.3.2-2.5.9-3.2 1.9Z"
      fill="#D55FFF" stroke="#201E27" stroke-width="2.1" />
    <g opacity=".4" filter="url(#c)">
      <path
        d="M152.8 171c1 .1 1.5.2 2 .5l1 1 .5 2 .9 6c.1.9.2 1.4.1 1.8 0 .4-.3 1-.5 1.3a16.4 16.4 0 0 1-7 3.6c-1.7.2-4.2-.3-6-.8-.8-.2-1.2-.3-1.6-.6-.4-.2-.7-.6-1-1-.2-.4-.2-.9-.4-1.8l-.9-5.9c-.2-1-.2-1.6-.1-2.1 0-.5.3-1 .6-1.3a19.2 19.2 0 0 1 6.9-3c1.6-.3 3.8 0 5.5.3Z"
        fill="#D304CB" />
    </g>
    <path d="m145.7 182.9-1.2-1.2-.6 1.4-1.5.3 1.2-2.7-2-2.1 1.6-.3 1 1.2.7-1.4 1.5-.3-1.2 2.7 2 2.1-1.5.3Z" fill="#fff"
      fill-opacity=".4" />
    <path
      d="m147.6 181.1-.2-1.5 2.7-5.5 2-.3.8 4.8 1-.1.2 1.6-1 .1.3 1.5-1.9.3-.2-1.5-3.7.6Zm3.2-5-1.4 3 1.8-.2-.4-2.8Z"
      fill="#fff" />
    <g clip-path="url(#d)">
      <rect x="159.9" y="166" width="135" height="122.6" rx="23.5" transform="rotate(-8.8 160 166)" fill="#7997F3" />
      <g style="mix-blend-mode:soft-light" opacity=".5">
        <path d="m270 127.7-.3 1.7 7.4 47.3.6.4 20.7-16.5-28.4-32.9Z" fill="#BFCDFA" />
        <path d="m270 127.7-17.1 40 24.8 9.4-7.7-49.4Z" fill="#fff" />
        <path d="m278.3 181.2-.2.4 2.6 16.8.4.8 18-34.5-20.8 16.5Z" fill="#BFCDFA" />
        <path d="m281 199.2-2.7-18-24.8-9.4 27.6 27.4Z" fill="#fff" />
        <path d="m277.6 177 20.8-16.4L274 154l3.5 23Z" fill="#8199EF" />
        <path d="m253 167.6 24.6 9.5-3.5-23" fill="#C5CAF4" />
      </g>
      <path fill-rule="evenodd" clip-rule="evenodd"
        d="m232 207.2-2.6-1.6c-.4-.2-.6-.5-.7-1l-3-19.6c0-.4 0-.8.3-1l2-2.4c-.8-5.1-1.2-7.7-2.5-9.5a9.3 9.3 0 0 0-4.6-3.4c-2.1-.7-4.7-.3-9.8.5l-13 2c-9 1.4-13.4 2.1-16.6 4.4-2.7 2-4.8 4.8-5.9 8-1.2 3.7-.5 8.2.9 17.2l1.8 11.6c.4 2.5.6 3.8 1 4.9.5 1 1.1 1.9 1.9 2.7.8.8 1.9 1.5 4 2.8l1.9 1.1c1.7 1 2.6 1.6 3.5 1.9.8.3 1.7.5 2.5.5l4-.4 7.5-1.2 5.2-.8 5.3-.8 4.3-.7c5-.8 7.6-1.2 9.4-2.5a9.3 9.3 0 0 0 3.4-4.6c.6-1.8.4-4-.2-8Z"
        fill="#0C0B0F" />
      <path
        d="m185.6 191.6-1.7.2-.2.9-1.4.2 1-5.1 1.6-.2 2.5 4.5-1.5.2-.3-.7Zm-.5-1-.8-1.5-.3 1.7 1-.2Zm7.6-4.3.7 4.9-1.3.2-.4-2.7-.5 2.8-1.2.2-1.3-2.6.4 2.7-1.3.2-.8-4.8 1.7-.2 1.7 2.9.7-3.3 1.6-.3Zm3.8 4.4h-1.3c-.4-.2-.8-.5-1-.8-.3-.4-.5-.8-.6-1.3 0-.4 0-.9.2-1.3.1-.4.4-.7.7-1 .4-.3.8-.4 1.2-.5l1.3.1c.4.2.8.4 1 .8.3.3.5.7.6 1.2 0 .4 0 .9-.2 1.3a2.4 2.4 0 0 1-2 1.5Zm-.2-1.2c.3 0 .6-.2.7-.5.2-.2.3-.5.2-1 0-.3-.2-.6-.4-.8a1 1 0 0 0-.9-.2 1 1 0 0 0-.8.5c-.1.2-.2.5-.1 1 0 .3.2.6.4.8.3.2.5.2.9.2Zm3.8-4.3.4 2.8.3.6h.6c.2 0 .4 0 .5-.2l.1-.6-.4-2.8 1.3-.2.4 2.7v1.2c-.2.4-.4.6-.7.8-.3.2-.7.4-1 .4h-1.1c-.4-.1-.6-.3-.9-.6l-.4-1.1-.4-2.8 1.3-.2Zm8.8 3.6-1.4.2-2.2-2.4.4 2.6-1.3.3-.8-4.9 1.4-.2 2.2 2.5-.4-2.7 1.3-.3.8 4.9Zm3.6-5.5.2 1-1.3.2.6 3.8-1.4.2-.6-3.8-1.2.2-.2-1 3.9-.6Z"
        fill="#fff" />
      <path
        d="m191.7 204.4 1.7-4.3-4 2.3-3.3-2 7.6 7.3-2-3.3ZM184.8 203.5l.8-2.9 7.6 7.4-8.4-4.5ZM185.6 209.4l4-2.7-2-1-2 3.7Z"
        fill="#CCF994" />
      <path
        d="m197.1 198.8-.1-1 2.5-.3 1.7 10.7-1 .2-1.6-9.8-1.5.2Zm5.6 3.6c-.3-1.7-.2-3.1.2-4.1.4-1 1.2-1.7 2.6-2 1.4-.1 2.4.2 3 1 .8 1 1.2 2.2 1.5 4 .3 1.7.2 3.1-.2 4.1-.3 1-1.2 1.7-2.6 2-1.4.1-2.4-.2-3-1a8.8 8.8 0 0 1-1.5-4Zm6.3-1-.6-2.3a3 3 0 0 0-1-1.4c-.4-.4-1-.5-1.7-.4-.8.1-1.3.4-1.6.9a3 3 0 0 0-.5 1.6l.1 2.4.6 2.4a3 3 0 0 0 1 1.4c.5.4 1 .5 1.8.4.7-.1 1.2-.4 1.5-.9.3-.4.5-1 .5-1.6l-.1-2.5Z"
        fill="#fff" />
      <rect x="232.2" y="169.9" width="3.5" height="3.5" rx="1.4" transform="rotate(-8.8 232.2 169.9)" fill="#0C0B0F" />
      <rect x="232.9" y="174.7" width="3.5" height="3.5" rx="1.4" transform="rotate(-8.8 232.9 174.7)" fill="#0C0B0F" />
      <rect x="225.4" y="194" width="3.5" height="3.5" rx="1.4" transform="rotate(-8.8 225.4 194)" fill="#fff" />
      <path
        d="M231.6 197c-.2-.8.4-1.5 1.1-1.7l1.5-.2c.7-.1 1.4.4 1.6 1.2l1.5 9.7c.2 1.2-1.2 2-2.2 1.4l-1.7-1.2c-.3-.3-.5-.6-.5-1l-1.3-8.3Z"
        fill="#fff" />
      <path d="m173.4 195.6 2 13" stroke="#201E27" stroke-width="1.4" stroke-linecap="round" />
      <path
        d="M262.1 202.5a2.2 2.2 0 0 0 .7 4.4 2.2 2.2 0 0 0-.7-4.4ZM265.3 207.7a4.6 4.6 0 0 0-4.6.7c-.5.5-.8 1-.7 1.6.1.6.5 1 1.1 1.4.7.3 1.6.4 2.4.2.9 0 1.7-.4 2.3-1 .5-.4.7-1 .6-1.6 0-.5-.5-1-1.1-1.3ZM274.9 202.5l-.6-.7c-.2-.1-.5-.2-1 0-.5 0-.9.3-1 .8-.3.5-.3 1.2-.2 2.2.1-.3.4-.6.7-.8.3-.3.7-.4 1.2-.5l1.3.1c.4.2.7.4 1 .8l.5 1.3v1.5c-.2.4-.5.8-.8 1-.4.3-.8.5-1.4.6-.7.1-1.4 0-1.8-.2-.5-.3-.9-.7-1.2-1.3l-.6-2.2c-.4-2.7.4-4.1 2.2-4.4.8-.1 1.4 0 1.8.3.5.3.9.8 1 1.3l-1.1.2Zm-1 2.1c-.5 0-.9.3-1.1.6-.3.3-.4.7-.3 1.2 0 .5.3.9.6 1.1.3.3.8.4 1.3.3.4 0 .8-.3 1-.6.2-.3.3-.7.2-1.2 0-.5-.2-.9-.6-1.1-.3-.3-.7-.4-1.2-.3Zm4.2 2-.1-1 2.8-5.8 1.5-.2.8 5h1l.2 1-1 .2.3 1.6-1.3.2-.2-1.7-4 .7Zm3.3-5.6-2 4.3 2.6-.4-.6-3.9Zm3.3.1c-.1-.7 0-1.2.5-1.7a3 3 0 0 1 1.7-.8h1.4c.4.1.7.4 1 .6l.4 1a1.9 1.9 0 0 1-1 2c.5.1.9.3 1.2.7.3.3.5.7.5 1.2v1.2l-.8 1c-.4.2-.8.4-1.4.4-.8.2-1.4 0-2-.3-.6-.3-1-.8-1-1.6l1.1-.2c.1.4.3.7.6 1 .3.1.7.2 1.2.1.4 0 .7-.2 1-.5.1-.3.2-.6.1-1 0-.5-.3-.9-.6-1-.4-.2-.9-.2-1.5-.1h-.3l-.2-1h.3c.6-.2 1-.3 1.3-.6.3-.2.4-.5.3-1a1 1 0 0 0-.4-.7c-.3-.2-.6-.2-1-.2-.5 0-.8.3-1 .5l-.2.8-1.2.2Z"
        fill="#0C0B0F" />
      <path
        d="M182.5 239.3c-.5-3 1.6-5.8 4.6-6.3l88.4-13.7a18 18 0 0 1 20.5 15l.8 5.2a18 18 0 0 1-15 20.4l-76.1 11.9a18 18 0 0 1-20.5-15l-2.7-17.5Z"
        fill="#fff" fill-opacity=".2" />
      <rect x="191.6" y="239.3" width="4.2" height="4.2" rx="1.4" transform="rotate(-8.8 191.6 239.3)" fill="#0C0B0F" />
      <path opacity=".4"
        d="m203.6 238.9-.1.8-.5.6c-.3.2-.6.4-1 .4l-.7.1.3 1.6-1.3.2-.8-4.8 2-.3h1l.7.6.4.8Zm-1.9.8c.4 0 .5-.3.5-.6 0-.4-.3-.5-.7-.5l-.5.1.2 1h.5Zm5.3 2c-.5 0-1 0-1.3-.2a2.5 2.5 0 0 1-1.6-2c0-.4 0-.8.2-1.3.1-.4.4-.7.7-1l1.2-.5 1.3.1c.4.2.8.4 1 .8.3.3.5.7.6 1.2 0 .5 0 1-.2 1.3-.1.4-.4.8-.7 1l-1.2.6Zm-.2-1.3c.3 0 .6-.2.7-.4.2-.3.3-.6.2-1 0-.4-.2-.7-.4-.8a1 1 0 0 0-.9-.3 1 1 0 0 0-.8.5c-.1.3-.2.6-.1 1 0 .3.2.6.4.8.2.2.5.3.9.2Zm5.6.4-1.3-.1a2.4 2.4 0 0 1-1.5-2v-1.3l.9-1c.3-.3.7-.5 1.1-.5l1.3.1c.4.2.8.4 1 .7.3.4.5.8.6 1.3l-.1 1.3a2.4 2.4 0 0 1-2 1.5Zm-.2-1.2c.4 0 .6-.2.8-.5.1-.2.2-.6.1-1 0-.3-.2-.6-.4-.8a1 1 0 0 0-.9-.2 1 1 0 0 0-.7.5c-.2.2-.2.5-.2 1 0 .3.2.6.5.8.2.2.5.2.8.2Zm4.5-.6 1.5-.2.2 1-2.9.5-.7-4.8 1.3-.2.6 3.7Zm5.5.3c-.6 0-1 0-1.5-.2-.4-.2-.6-.5-.7-1l1.4-.3c0 .2 0 .3.2.4h.6l.1-.4c0-.1 0-.2-.2-.3l-.7-.1-.8-.2c-.2 0-.4-.2-.6-.4-.2-.1-.3-.4-.3-.7v-.8l.6-.6c.3-.2.6-.3 1-.3.5-.1 1 0 1.3.2.4.2.7.5.8 1l-1.5.2c0-.1 0-.2-.2-.3h-.6v.3l.1.3.3.1.5.1.8.2c.2 0 .4.2.6.4.2.1.3.3.3.6a1.4 1.4 0 0 1-.6 1.5l-1 .3Zm3-5.5.8 4.9-1.4.2-.7-4.8 1.3-.3Zm2.9 3.4 2-.3.2 1-3.5.6-.2-1 1.6-3-2 .3-.2-1 3.5-.6.2 1-1.6 3Zm3.7-3.3.1.8 1.6-.2.1 1-1.5.2.1.9 1.8-.3.1 1-3 .6-.8-4.8 3-.5.2 1-1.7.3Z"
        fill="#0C0B0F" />
      <path
        d="m202.6 256.3 1.8-4.6-4.5 2.5-3.4-2.2 8.2 7.9-2.1-3.6ZM195 255.3l.9-3 8.2 7.9-9-4.9ZM195.9 261.8l4.4-3-2.2-1-2.2 4Z"
        fill="#CCF994" />
      <path
        d="M210.3 257.2a55.3 55.3 0 0 0 2.8-3.9 3 3 0 0 0 .3-1.6c-.1-.6-.3-1-.6-1.3-.3-.2-.8-.3-1.3-.2-.6 0-1 .3-1.2.7-.2.3-.3.8-.3 1.4l-1.5.2c0-1 .1-1.8.6-2.5.5-.6 1.2-1 2.2-1.2 1-.1 1.8 0 2.4.5a3 3 0 0 1 1.2 2 4 4 0 0 1-.2 2c-.3.7-.6 1.3-1 1.8-.3.6-.8 1.2-1.5 2l-.5.6 4.3-.7.2 1.3-6.6 1-.2-1 .9-1Zm6.5-4c-.2-1.6-.1-3 .3-3.9.4-1 1.2-1.5 2.5-1.7 1.3-.2 2.3 0 3 .9.6.8 1 2 1.3 3.5.3 1.6.2 3-.2 3.9-.4 1-1.2 1.6-2.5 1.8-1.3.2-2.3-.1-3-1-.7-.8-1.1-2-1.4-3.6Zm5.6-1a10 10 0 0 0-.4-1.8c-.2-.5-.5-.9-.8-1.1-.3-.3-.8-.4-1.4-.3-.5 0-1 .3-1.2.7-.2.3-.4.8-.4 1.3s0 1.2.2 1.9c0 .8.2 1.4.4 1.9s.4.9.8 1.2c.3.2.8.3 1.4.2.5 0 1-.3 1.2-.6.2-.4.4-.8.4-1.4 0-.5 0-1.2-.2-2Zm5.6 2.5-1 4-1 .2.3-4 1.7-.2Zm.6-3.4c-.2-1.6-.1-2.8.3-3.8s1.2-1.6 2.5-1.8c1.3-.2 2.3.1 3 1 .6.7 1.1 2 1.3 3.5.3 1.6.2 2.9-.2 3.9s-1.2 1.5-2.5 1.7c-1.3.2-2.3 0-3-.9-.6-.8-1.1-2-1.4-3.6Zm5.6-.9a10 10 0 0 0-.4-1.8c-.2-.5-.4-.9-.8-1.2-.3-.2-.8-.3-1.4-.2-.5 0-1 .3-1.2.6-.2.4-.4.9-.4 1.4 0 .5 0 1.1.2 1.9 0 .7.2 1.4.4 1.9s.4.9.8 1.1c.3.3.8.4 1.4.3.5 0 1-.3 1.2-.7.2-.3.4-.8.4-1.3s0-1.2-.2-2Zm3.2-.5c-.3-1.5-.2-2.8.2-3.8s1.3-1.5 2.6-1.7c1.3-.2 2.2 0 3 .9.6.8 1 2 1.3 3.5.2 1.6.2 3-.2 4-.4.9-1.3 1.5-2.6 1.7-1.3.2-2.3-.1-3-1-.6-.8-1-2-1.3-3.6Zm5.6-.8a10 10 0 0 0-.5-1.9l-.7-1.1c-.4-.3-.8-.4-1.4-.3-.6 0-1 .3-1.2.7-.3.4-.4.8-.4 1.3l.1 2 .5 1.8c.1.5.4 1 .7 1.2.4.3.8.3 1.4.3.6-.1 1-.4 1.2-.7.3-.4.4-.8.4-1.4l-.1-2Zm3.1-.5c-.2-1.6-.1-2.8.3-3.8.3-1 1.2-1.6 2.5-1.8 1.3-.2 2.3.1 3 1 .6.7 1 2 1.3 3.5.3 1.6.2 2.9-.2 3.9s-1.2 1.5-2.5 1.7c-1.3.2-2.3 0-3-.9-.7-.8-1.1-2-1.4-3.6Zm5.6-.9a10 10 0 0 0-.4-1.8c-.2-.5-.5-.9-.8-1.2-.3-.3-.8-.3-1.4-.3-.6.1-1 .4-1.2.7-.2.4-.4.8-.4 1.4 0 .5 0 1.1.2 1.9 0 .7.2 1.4.4 1.9s.4.9.8 1.1c.3.3.8.4 1.3.3.6 0 1-.3 1.3-.7.2-.3.3-.8.4-1.3 0-.6 0-1.2-.2-2Z"
        fill="#0C0B0F" />
    </g>
    <g clip-path="url(#e)">
      <rect x="295.4" y="145" width="135" height="122.6" rx="23.5" transform="rotate(-8.8 295.4 145)" fill="#7199FC" />
      <g style="mix-blend-mode:soft-light" opacity=".5">
        <path d="m405.5 106.7-.3 1.7 7.4 47.3.5.4 20.8-16.5-28.4-32.9Z" fill="#BFCDFA" />
        <path d="m405.5 106.7-17.1 40 24.7 9.4-7.6-49.4Z" fill="#fff" />
        <path d="m413.8 160.2-.2.4 2.6 16.8.4.8 18-34.5-20.8 16.5Z" fill="#BFCDFA" />
        <path d="m416.6 178.2-2.8-18-24.8-9.4 27.6 27.4Z" fill="#fff" />
        <path d="m413.1 156 20.8-16.4-24.3-6.5 3.5 23Z" fill="#8199EF" />
        <path d="m388.4 146.6 24.7 9.5-3.5-23" fill="#C5CAF4" />
      </g>
      <path fill-rule="evenodd" clip-rule="evenodd"
        d="m367.5 186.2-2.6-1.6c-.4-.2-.6-.6-.7-1l-3-19.6c0-.4 0-.8.3-1.1l2-2.3c-.8-5.2-1.2-7.7-2.5-9.5a9.3 9.3 0 0 0-4.6-3.4c-2.1-.7-4.7-.3-9.8.5l-13 2c-9 1.4-13.4 2.1-16.6 4.4-2.7 2-4.8 4.8-5.9 8-1.2 3.7-.5 8.2.9 17.2l1.8 11.6c.4 2.5.6 3.8 1 4.9.5 1 1.1 1.9 1.9 2.6.8 1 1.9 1.6 4 2.9l1.9 1.1c1.7 1 2.6 1.6 3.5 1.9.8.3 1.6.4 2.5.5l4-.4 7.5-1.2 5.2-.8 5.3-.8 4.2-.7c5.2-.8 7.7-1.2 9.5-2.5a9.3 9.3 0 0 0 3.4-4.6c.6-1.9.4-4-.2-8Z"
        fill="#0C0B0F" />
      <rect x="317" y="167.3" width="4.2" height="4.2" rx="1.4" transform="rotate(-8.8 317 167.3)" fill="#fff" />
      <path
        d="M328.4 167.7c.3 0 .6.1.8.3.2.2.3.4.3.7.1.4 0 .8-.2 1-.3.3-.7.5-1.2.6l-2.4.3-.7-4.8 2.3-.3c.5-.1.9 0 1.2.1.3.2.5.5.6.9l-.1.7c-.2.2-.3.4-.6.5Zm-1.8-.2h.7c.3-.1.5-.3.4-.6 0-.3-.2-.4-.5-.3h-.7l.1 1Zm1 1.7c.4 0 .6-.2.5-.5 0-.1 0-.2-.2-.3h-1.1l.1 1 .8-.2Zm3.5-3.2.1.8 1.5-.3.2 1-1.5.3v.8l1.8-.2.2 1-3 .5-.8-4.8 3-.5.2 1.1-1.7.3Zm5.8-2 .2 1-1.3.2.6 3.8-1.3.2-.6-3.8-1.3.2-.2-1 4-.6Z"
        fill="#fff" />
      <path
        d="m327.2 183.3 1.7-4.2-4 2.3-3.3-2 7.6 7.3-2-3.4ZM320.3 182.5l.8-2.9 7.6 7.3-8.4-4.4ZM321.1 188.4l4-2.7-2-1-2 3.7Z"
        fill="#CCF994" />
      <path
        d="M335 186.6c1.7-1.6 2.9-3 3.7-4.3.9-1.3 1.2-2.4 1-3.5 0-.7-.3-1.2-.7-1.6-.4-.3-1-.5-1.8-.3-.8 0-1.3.4-1.7 1-.3.5-.4 1.2-.4 2l-1 .1c-.1-1.1.1-2 .6-2.7.6-.7 1.3-1.2 2.4-1.3 1-.2 1.7 0 2.4.4.7.5 1.1 1.2 1.3 2.2.2 1.2-.1 2.5-1 3.8-.8 1.2-1.9 2.5-3.2 3.8l5.6-.8.1.9-7.1 1-.2-.7Zm14.2-11.4-5.5.8.6 3.9c.2-.4.5-.8 1-1 .4-.4 1-.6 1.5-.6.8-.2 1.5-.1 2 .2.7.2 1.1.6 1.4 1 .3.6.5 1.1.6 1.7v2a3 3 0 0 1-1 1.5c-.6.5-1.2.7-2 .9-1 .1-2 0-2.7-.5a3.5 3.5 0 0 1-1.5-2l1-.1c.3.6.7 1 1.2 1.4.5.3 1.1.4 1.8.2.9 0 1.5-.4 1.9-1a3 3 0 0 0 .3-2.2c-.1-.8-.4-1.4-1-1.8-.5-.4-1.2-.5-2-.4-.6 0-1 .3-1.5.6-.4.4-.6.8-.8 1.3l-1 .1-.9-6 6.5-1 .1 1Z"
        fill="#fff" />
      <rect x="367.6" y="148.9" width="3.5" height="3.5" rx="1.4" transform="rotate(-8.8 367.6 148.9)" fill="#0C0B0F" />
      <rect x="368.4" y="153.6" width="3.5" height="3.5" rx="1.4" transform="rotate(-8.8 368.4 153.6)" fill="#0C0B0F" />
      <rect x="375.3" y="157.5" width="3.5" height="3.5" rx="1.4" transform="rotate(-8.8 375.3 157.5)" fill="#0C0B0F" />
      <rect x="360.9" y="173" width="3.5" height="3.5" rx="1.4" transform="rotate(-8.8 360.9 173)" fill="#fff" />
      <path
        d="M367 175.9c0-.8.5-1.5 1.2-1.6l1.5-.2c.7-.1 1.4.4 1.6 1.1l1.5 9.8c.2 1.2-1.2 2-2.2 1.3l-1.7-1.2c-.3-.2-.5-.5-.5-.9L367 176Z"
        fill="#fff" />
      <path d="m309 174.6 2 13" stroke="#201E27" stroke-width="1.4" stroke-linecap="round" />
      <path
        d="M397.6 181.5a2.2 2.2 0 0 0 .6 4.4h.1a2.2 2.2 0 0 0-.7-4.4ZM400.8 186.7a4.6 4.6 0 0 0-4.6.7c-.5.5-.8 1-.7 1.6.1.6.5 1 1.1 1.3.7.4 1.6.5 2.4.3.9-.1 1.7-.4 2.3-1 .5-.5.7-1 .6-1.6 0-.5-.5-1-1.1-1.3ZM410.4 181.5l-.6-.7c-.2-.1-.5-.2-1-.1-.5 0-.9.4-1.1.9-.2.4-.3 1.2-.1 2.2.1-.3.4-.6.7-.9a2.7 2.7 0 0 1 2.5-.3c.4.2.7.4 1 .8l.5 1.3-.1 1.4c-.1.5-.4.8-.7 1.1-.4.3-.8.5-1.4.6-.8.1-1.4 0-1.8-.2-.5-.3-.9-.7-1.2-1.3l-.6-2.2c-.4-2.7.4-4.2 2.2-4.4.8-.2 1.4 0 1.8.3.5.3.8.8 1 1.3l-1.1.2Zm-1 2c-.5.2-.9.3-1.1.7-.3.3-.4.7-.3 1.2 0 .5.3.9.6 1.1.3.3.8.3 1.3.3.4-.1.8-.3 1-.6.2-.4.3-.8.2-1.2 0-.5-.3-.9-.6-1.1-.3-.3-.7-.4-1.2-.3Zm4.2 2-.1-.9 2.8-5.8 1.5-.3.8 5.2 1-.2.2 1-1 .2.3 1.7-1.3.2-.2-1.7-4 .6Zm3.3-5.5-2 4.2 2.6-.4-.6-3.8Zm3.3.1c-.1-.7 0-1.3.5-1.7a3 3 0 0 1 1.7-.9l1.4.1c.4.1.7.3 1 .6l.4 1a1.9 1.9 0 0 1-1 2c.5.1.9.3 1.2.6.3.3.5.8.5 1.3v1.2l-.8 1-1.4.4a3 3 0 0 1-2-.3c-.6-.3-1-.8-1-1.6l1.1-.2c.1.4.3.7.6.9.3.2.7.3 1.2.2.4 0 .7-.3 1-.5.1-.3.2-.7.1-1 0-.5-.3-.9-.6-1-.4-.2-.9-.2-1.6-.1h-.2l-.2-1h.3c.6-.2 1-.3 1.3-.6.3-.2.4-.5.3-1a1 1 0 0 0-.4-.7c-.3-.2-.6-.2-1-.2-.5 0-.8.2-1 .5l-.2.8-1.2.2Z"
        fill="#0C0B0F" />
      <path
        d="M318 218.3c-.5-3 1.6-5.8 4.6-6.3l88.4-13.7a18 18 0 0 1 20.5 15l.8 5.1a18 18 0 0 1-15 20.5l-76.1 11.8a18 18 0 0 1-20.5-15l-2.7-17.4Z"
        fill="#fff" fill-opacity=".2" />
      <rect x="327.1" y="218.3" width="4.2" height="4.2" rx="1.4" transform="rotate(-8.8 327 218.3)" fill="#0C0B0F" />
      <path opacity=".4"
        d="M339 217.8v.9l-.5.6-1 .4-.7.1.3 1.6-1.4.2-.7-4.8 2-.3h1l.7.5.4.8Zm-1.8.9c.4-.1.5-.3.5-.6 0-.4-.3-.5-.7-.5h-.5l.2 1.1h.5Zm5.3 2c-.5 0-1 0-1.3-.2a2.5 2.5 0 0 1-1.6-2l.1-1.3.8-1c.4-.3.8-.4 1.2-.5l1.3.1c.4.2.7.4 1 .8.3.3.5.7.5 1.2v1.3c-.2.4-.5.8-.8 1-.4.3-.8.5-1.2.5Zm-.2-1.3c.3 0 .6-.2.7-.5.2-.2.2-.5.2-.9s-.2-.7-.4-.9a1 1 0 0 0-1-.2 1 1 0 0 0-.7.5c-.1.2-.2.6-.1 1 0 .3.2.6.4.8.2.2.5.3.9.2Zm5.6.4-1.3-.1c-.4-.2-.7-.4-1-.8-.3-.3-.5-.7-.5-1.2v-1.3c.2-.4.5-.8.8-1 .4-.3.8-.5 1.2-.5h1.3c.4.2.8.5 1 .8l.6 1.2-.1 1.4a2.4 2.4 0 0 1-2 1.5Zm-.2-1.2c.4-.1.6-.3.8-.5.1-.3.2-.6.1-1 0-.3-.2-.6-.4-.8a1 1 0 0 0-.9-.2 1 1 0 0 0-.7.5c-.2.2-.2.5-.2.9s.2.7.5.9l.8.2Zm4.5-.6 1.5-.2.2 1-2.9.5-.7-4.8 1.3-.3.6 3.8Zm5.4.3c-.5 0-1 0-1.4-.2-.4-.2-.6-.6-.8-1l1.5-.3c0 .2 0 .3.2.4h.3l.3-.1.1-.3-.2-.3-.7-.1-.8-.2c-.2 0-.4-.2-.6-.4-.2-.1-.3-.4-.3-.7a1.3 1.3 0 0 1 .6-1.4c.3-.2.6-.3 1-.3.5-.1 1 0 1.3.2.4.2.7.5.7 1l-1.4.2-.2-.3h-.6v.3l.1.3h.3l.5.2.8.2.6.3c.2.2.3.4.3.7a1.4 1.4 0 0 1-.6 1.4l-1 .4Zm3.1-5.5.8 4.8-1.4.3-.7-4.9 1.3-.2Zm2.9 3.4 2-.3.1 1-3.4.6-.2-1 1.5-3-2 .3-.1-1 3.5-.6.2 1-1.6 3Zm3.7-3.3.1.8 1.6-.2.1 1-1.5.2.1.9 1.8-.3.1 1-3 .6-.8-4.9 3-.4.2 1-1.7.3Z"
        fill="#0C0B0F" />
      <path
        d="m338 235.3 1.9-4.7-4.5 2.6-3.4-2.2 8.2 7.9-2.2-3.6ZM330.5 234.3l.9-3.1 8.2 8-9-4.9ZM331.4 240.8l4.4-3-2.2-1-2.2 4Z"
        fill="#CCF994" />
      <path
        d="M345.8 236.2a54.5 54.5 0 0 0 2.8-3.9 3 3 0 0 0 .2-1.7c0-.5-.2-1-.5-1.2-.3-.3-.8-.3-1.3-.3-.6.1-1 .4-1.2.8-.2.3-.3.8-.3 1.4l-1.5.2c0-1 0-1.9.6-2.5.5-.6 1.2-1 2.1-1.2 1-.1 1.9 0 2.5.5a3 3 0 0 1 1.2 2 4 4 0 0 1-.2 2c-.3.7-.6 1.3-1 1.8-.3.6-.8 1.2-1.5 2l-.5.6 4.3-.7.2 1.3-6.6 1-.2-1.1.9-1Zm6.5-4c-.2-1.7-.1-3 .3-3.9.4-1 1.2-1.5 2.5-1.7 1.3-.3 2.3 0 3 .9.6.8 1 2 1.3 3.5.3 1.6.2 2.9-.2 3.9s-1.2 1.5-2.5 1.7c-1.3.3-2.3 0-3-.9-.7-.8-1.1-2-1.4-3.6Zm5.6-1a10 10 0 0 0-.4-1.8c-.2-.5-.5-.9-.8-1.1-.3-.3-.8-.4-1.4-.3-.5 0-1 .3-1.2.7-.2.3-.4.8-.4 1.3s0 1.1.2 1.9c0 .8.2 1.4.4 1.9s.4.9.8 1.2c.3.2.8.3 1.4.2.5 0 1-.3 1.2-.6.2-.4.4-.9.4-1.4 0-.5 0-1.2-.2-2Zm5.6 2.5-1 4-1 .2.3-4 1.7-.2Zm.6-3.4c-.2-1.6-.1-2.9.3-3.8.4-1 1.2-1.6 2.5-1.8 1.3-.2 2.3.1 3 1 .6.7 1.1 2 1.3 3.5.3 1.6.2 2.9-.2 3.9s-1.2 1.5-2.5 1.7c-1.3.2-2.3 0-3-.9-.7-.8-1.1-2-1.4-3.6Zm5.6-.9a10 10 0 0 0-.4-1.8c-.2-.5-.5-.9-.8-1.2-.3-.3-.8-.3-1.4-.3-.5.1-1 .4-1.2.7-.2.4-.4.8-.4 1.4 0 .5 0 1.1.2 1.9 0 .7.2 1.4.4 1.9s.4.9.8 1.1c.3.3.8.4 1.4.3.5 0 1-.3 1.2-.7.2-.3.4-.8.4-1.3 0-.6 0-1.2-.2-2Zm3.2-.5c-.3-1.5-.2-2.8.2-3.8s1.3-1.5 2.6-1.7c1.3-.2 2.2 0 2.9.9.7.8 1.1 2 1.4 3.5.2 1.6.2 3-.2 3.9-.4 1-1.3 1.6-2.6 1.8-1.3.2-2.3-.1-3-1-.6-.8-1-2-1.3-3.6Zm5.6-.8a10 10 0 0 0-.5-1.9c-.2-.5-.4-.9-.8-1.1-.3-.3-.8-.4-1.3-.3-.6 0-1 .3-1.2.7-.3.3-.4.8-.4 1.3l.1 1.9.4 1.9c.2.5.5.9.8 1.2.4.2.8.3 1.4.2.6 0 1-.3 1.2-.6.3-.4.4-.8.4-1.4l-.1-2Zm3.1-.5c-.2-1.6-.1-2.9.2-3.8.4-1 1.3-1.6 2.6-1.8 1.3-.2 2.3.1 3 1 .6.7 1 2 1.3 3.5.3 1.6.2 2.9-.2 3.8-.4 1-1.2 1.6-2.5 1.8-1.3.2-2.3 0-3-.9-.7-.8-1.1-2-1.4-3.6Zm5.6-.9a10 10 0 0 0-.4-1.8c-.2-.5-.5-1-.8-1.2-.4-.3-.8-.4-1.4-.3-.6.1-1 .3-1.2.7-.2.4-.4.8-.4 1.4 0 .5 0 1.1.2 1.8 0 .8.2 1.4.4 2 .2.5.4.8.8 1.1.3.3.8.4 1.3.3.6-.1 1-.3 1.3-.7l.4-1.3c0-.6 0-1.2-.2-2Z"
        fill="#0C0B0F" />
    </g>
  </g>
  <rect x="7.2" y="118.4" width="422.3" height="198" rx="30" transform="rotate(-8.8 7.2 118.4)" stroke="#5FF4AD"
    stroke-width="2" />
  <g clip-path="url(#f)">
    <rect x="245" y="163.8" width="420.3" height="196.1" rx="29" transform="rotate(-8.8 245 163.8)" fill="#201E27" />
    <circle cx="279.7" cy="189.3" r="13.8" transform="rotate(-8.8 279.7 189.3)" fill="#F7931A" />
    <path fill-rule="evenodd" clip-rule="evenodd"
      d="M285.6 186.6c0-2-1.6-2.8-3.7-3.2l.3-2.7-1.7-.1-.2 2.6H279l.2-2.7-1.6-.2-.2 2.7h-1l-2.3-.3-.2 1.8h1.2c.7.1.9.5.9.9l-.3 3h.2-.2l-.4 4.3c0 .3-.2.6-.6.5h-1.2l-.5 1.8 2.1.2.7.1h.5l-.3 2.8 1.7.1.2-2.7 1.3.2-.2 2.6 1.6.2.2-2.7c2.8 0 4.8-.4 5.2-3 .4-2-.5-3-2-3.6 1-.4 1.6-1.2 1.6-2.6Zm-2.8 5.6c-.1 1.8-3 1.5-4.4 1.4h-.3l.3-3.6h.4c1.4 0 4.2.3 4 2.2Zm-4-3.9c1.2.2 3.6.4 3.7-1.3.2-1.7-2.1-1.9-3.3-2h-.3l-.3 3.3h.3Z"
      fill="#fff" />
    <path
      d="M309.8 185c.7 0 1.4.3 2 .8.5.5.8 1.2 1 2 0 .6 0 1.2-.3 1.8-.2.6-.7 1-1.2 1.5-.6.4-1.4.6-2.2.7l-5.1.8-2-12.8 4.9-.7c.8-.2 1.6-.1 2.3 0 .7.3 1.2.6 1.6 1 .4.5.6 1 .7 1.6.1.8 0 1.4-.3 2-.3.5-.8 1-1.4 1.3Zm-4.9-.1 2.6-.4c.7-.1 1.2-.4 1.6-.7.3-.4.4-.9.3-1.5 0-.6-.3-1-.8-1.2-.4-.3-1-.4-1.7-.3l-2.5.4.5 3.7Zm3.7 5.3c.8-.1 1.3-.4 1.6-.8.4-.4.5-1 .4-1.5 0-.7-.4-1.1-.9-1.4-.4-.3-1-.4-1.8-.3l-2.7.4.6 4 2.8-.4Zm13.3-13.4.2 1.7-3.4.5 1.7 11-2 .4-1.8-11-3.4.5-.3-1.8 9-1.3Zm2.4 6.1c-.2-1.2-.1-2.4.3-3.5.5-1 1.1-2 2-2.7 1-.7 2-1.2 3.2-1.3 1.4-.3 2.6-.1 3.8.4 1.2.5 2 1.3 2.7 2.5l-2.5.4c-.4-.7-1-1-1.6-1.3-.6-.3-1.3-.3-2.1-.2-.9.1-1.6.4-2.2 1a4 4 0 0 0-1.3 1.8c-.3.8-.3 1.6-.2 2.6.2 1 .5 1.7 1 2.4.5.6 1 1.1 1.8 1.4.7.3 1.5.3 2.3.2.8-.1 1.5-.4 2-.8.6-.4 1-1 1.2-1.7l2.5-.4c-.3 1.3-1 2.3-1.9 3.2-1 .8-2.1 1.3-3.5 1.5a6.5 6.5 0 0 1-7.6-5.5Zm80.8-15.1a3.6 3.6 0 0 1-1.4 3.6c-.7.4-1.5.7-2.6.9l-2.3.3.8 5.2-2 .3-2-12.8 4.4-.7c1-.1 1.8 0 2.5.2.8.2 1.3.6 1.8 1.1.4.5.7 1.1.8 1.9Zm-4.2 2.7c.8 0 1.3-.4 1.7-.8.3-.4.4-1 .3-1.6-.2-1.4-1.1-2-2.7-1.7l-2.3.3.6 4.2 2.4-.4Zm12 5.4c-1 .2-1.9 0-2.7-.2-.8-.3-1.5-.9-2.1-1.6-.6-.7-1-1.6-1.1-2.6-.2-1 0-2 .3-2.9.3-.9.8-1.6 1.5-2.1.8-.6 1.6-1 2.6-1 1-.2 1.8-.2 2.7.2.9.3 1.6.8 2.1 1.5.6.7 1 1.6 1.2 2.7.1 1 0 2-.3 2.8a5 5 0 0 1-1.6 2.2c-.8.5-1.6.9-2.6 1Zm-.3-1.8a3.1 3.1 0 0 0 2.4-2c.3-.5.3-1.2.2-2-.1-.7-.4-1.3-.7-1.7-.4-.5-.8-.8-1.3-1-.5-.2-1-.2-1.6-.1-.5 0-1 .2-1.4.6-.5.3-.8.7-1 1.3a4 4 0 0 0 0 2c.1 1 .5 1.8 1.2 2.3.6.5 1.4.7 2.2.6Zm12 0c-1 .1-1.8 0-2.7-.2-.8-.4-1.5-.9-2-1.6-.6-.7-1-1.6-1.2-2.7-.1-1 0-2 .3-2.8.3-.9.9-1.6 1.6-2.1.7-.6 1.5-1 2.5-1.1 1-.2 1.9 0 2.7.2.9.3 1.6.9 2.2 1.6.6.7 1 1.6 1.1 2.6.2 1 0 2-.3 2.9a5 5 0 0 1-1.6 2.1c-.7.6-1.6 1-2.6 1Zm-.2-1.8a3.1 3.1 0 0 0 2.4-2c.2-.6.3-1.2.1-2 0-.7-.3-1.3-.7-1.7-.3-.5-.8-.8-1.3-1-.5-.2-1-.3-1.5-.2-.6.1-1 .3-1.5.7-.4.3-.7.7-.9 1.3a4 4 0 0 0-.1 1.9c.2 1.1.6 1.9 1.2 2.4.7.5 1.4.7 2.3.6Zm7.6-13.5 2 13.7-2 .3-2.1-13.6 2-.4Zm8.5 12.8c-.8.2-1.5.1-2.2 0a4 4 0 0 1-1.7-1 3 3 0 0 1-.8-1.6l2.2-.3c0 .4.3.7.7 1 .5.2 1 .3 1.5.2.6-.1 1-.3 1.3-.6.3-.3.4-.6.4-1 0-.3-.3-.6-.7-.7l-1.8-.3a17 17 0 0 1-2-.4c-.5 0-1-.3-1.3-.7-.5-.3-.7-.8-.8-1.5 0-.5 0-1 .2-1.5.3-.5.7-1 1.2-1.3.6-.4 1.3-.6 2-.7 1.2-.2 2.2 0 3 .4.8.5 1.3 1.2 1.5 2.2l-2.1.4c-.1-.5-.4-.8-.8-1a2 2 0 0 0-1.4-.2c-.5 0-1 .2-1.2.5a1 1 0 0 0-.3.9c0 .2.2.4.4.6.2.2.5.3.8.3l1.3.2 2 .4c.4 0 .9.3 1.3.6.4.4.6.9.8 1.5 0 .6 0 1.1-.3 1.6-.2.6-.6 1-1.2 1.3a5 5 0 0 1-2 .7Z"
      fill="#fff" />
    <path
      d="m351.6 173.4-6.2 1 .6 3.6a3 3 0 0 1 1-1 4 4 0 0 1 1.6-.7c1-.1 1.9 0 2.6.3.7.3 1.3.8 1.6 1.5a5.4 5.4 0 0 1 .6 4.6c-.2.7-.6 1.3-1.3 1.9a5 5 0 0 1-2.4 1 5 5 0 0 1-3.4-.5 4 4 0 0 1-1.9-2.4l2-.4c.3.6.7 1 1.2 1.3a3 3 0 0 0 1.8.2c.9-.1 1.5-.5 1.8-1 .4-.7.5-1.4.4-2.3-.2-.9-.5-1.5-1-2-.5-.3-1.2-.5-2-.3-.7 0-1.1.3-1.5.7-.4.3-.6.8-.7 1.3l-2 .3-1.2-7.7 8.1-1.3.3 1.9Zm15.9-1.2c.8 0 1.5 0 2.2.2.7.2 1.2.6 1.7 1.2s.8 1.4 1 2.3l.8 6-2 .3-1-5.7c0-.9-.4-1.5-1-2-.5-.3-1.1-.5-1.9-.4-.8.1-1.4.5-1.8 1-.3.6-.5 1.3-.3 2.2l.9 5.7-2.1.3-1-5.6c0-1-.4-1.6-1-2-.4-.4-1.1-.6-1.9-.5-.8.2-1.4.5-1.8 1-.3.6-.4 1.3-.3 2.3l.9 5.6-2.1.4-1.6-10.2 2.1-.3.2 1.1c.3-.4.6-.8 1.1-1.1.5-.4 1-.6 1.7-.7.8 0 1.5 0 2.2.2.7.3 1.3.7 1.7 1.3.2-.7.6-1.2 1.2-1.7s1.3-.8 2-.9Zm7.7-2.4c-.4 0-.7 0-1-.2-.3-.2-.5-.5-.6-1 0-.3 0-.6.3-1 .2-.2.5-.4.9-.5.3 0 .7 0 1 .3.3.2.5.5.5.9s0 .7-.2 1c-.2.3-.5.5-.9.5Zm1.2 1.2 1.6 10.2-2 .3-1.7-10.2 2.1-.3Zm7.9-1.4c.8-.1 1.5 0 2.2.2.7.2 1.3.6 1.7 1.2.5.6.8 1.4 1 2.3l.9 6-2.1.3-1-5.7c0-.9-.4-1.5-1-2-.4-.4-1.1-.5-1.9-.4-.8.1-1.4.5-1.8 1-.3.6-.5 1.3-.3 2.2l.9 5.7-2.1.3-1.6-10.1 2-.3.3 1.1c.3-.5.6-.8 1.1-1.2.5-.3 1-.5 1.7-.6Z"
      fill="#FFAE63" />
    <path
      d="m524 142.6.1.7-1.5.3.8 4.9-1 .1-.7-4.9-1.5.2-.2-.7 4-.6Zm1.5.3h-.4a.6.6 0 0 1-.3-.5l.1-.4c.1-.2.3-.2.4-.3l.5.1.2.4v.5l-.5.2Zm.6.6.7 4.5-1 .1-.7-4.5 1-.1Zm6.7-1.2 1 .1.7.6c.2.2.3.6.4 1l.4 2.6-.9.2-.4-2.5c0-.4-.2-.7-.4-1a1 1 0 0 0-1-.1c-.3 0-.5.2-.7.4-.2.3-.2.6-.2 1l.4 2.5-.9.2-.4-2.5c0-.4-.2-.7-.4-1a1 1 0 0 0-1-.1c-.3 0-.5.2-.7.4-.2.3-.2.6-.2 1l.4 2.5-.9.2-.7-4.5 1-.2v.5l.5-.5.8-.3 1 .1c.3.1.5.3.7.6.1-.3.3-.6.6-.8.2-.2.5-.3.9-.4Zm7.5 1.1v.5l-3.4.5c0 .4.2.7.5.9.3.1.6.2 1 .1.4 0 .8-.3.9-.8l1-.1a2 2 0 0 1-1.8 1.7h-1.2l-1-.8-.5-1.2.1-1.2.7-1c.3-.2.7-.4 1.1-.4h1.2l1 .7.4 1.1Zm-1 0a1 1 0 0 0-.5-.9c-.3-.1-.6-.2-1-.1-.3 0-.6.2-.8.4-.2.2-.3.5-.2.9l2.5-.4Zm7.8-3.2.7 4.5-1 .2v-.6l-.6.6-.7.2a2 2 0 0 1-1 0c-.3-.1-.5-.3-.7-.6-.2-.3-.4-.6-.4-1l-.5-2.7 1-.1.4 2.5c0 .4.2.7.4.9.2.2.5.2.9.2.3 0 .6-.2.8-.5.1-.2.2-.5.1-1l-.4-2.5 1-.1Zm3.5-.6h1l.7.6c.2.3.4.6.4 1l.4 2.7-.9.1-.4-2.5c0-.4-.2-.7-.4-.9a1 1 0 0 0-1-.2c-.3 0-.5.2-.7.5-.2.2-.2.5-.2 1l.4 2.5-.9.1-.7-4.5 1-.1v.5l.5-.5c.3-.2.5-.3.8-.3Zm4.2.2.4 2.5.2.3s.2.1.4 0h.6l.1.8h-1.7c-.3-.2-.5-.5-.5-1l-.4-2.5-.5.1-.2-.8h.6l-.2-1.2 1-.1.1 1.1 1.1-.2.1.8-1 .2Zm2.3-1.8h-.5a.6.6 0 0 1-.2-.5v-.4l.5-.3c.1 0 .3 0 .4.2l.2.4v.4l-.5.2Zm.5.6.7 4.5-1 .1-.6-4.5.9-.1Zm2-2 .9 6.1-1 .2-1-6 1-.2Zm-36.2 20 .6-.5a2 2 0 0 1 2-.2c.3 0 .6.3.9.6.2.4.4.7.4 1.2v1.3l-.7 1a2 2 0 0 1-1 .4 2 2 0 0 1-1.7-.5l.4 2.8-1 .1-1-6.6 1-.2.1.7Zm3 1.2c0-.3-.2-.5-.3-.7l-.6-.5a1.3 1.3 0 0 0-1.4.2l-.4.6v.9c0 .3.1.6.3.8l.5.4a1.4 1.4 0 0 0 1.4-.2l.4-.6v-.9Zm4.2 1.8-1.2-.1-1-.7c-.2-.3-.4-.7-.4-1.2v-1.3l.8-.9 1.1-.5 1.2.1 1 .7.5 1.2c0 .5 0 .9-.2 1.3-.1.4-.4.7-.7 1l-1.1.4Zm-.1-.8.6-.3c.2-.1.3-.3.4-.6l.1-.9c0-.3-.2-.5-.3-.7-.2-.3-.4-.4-.6-.5a1.4 1.4 0 0 0-1.3.2c-.2.2-.4.4-.4.6v.9c0 .5.2.8.5 1 .2.3.6.3 1 .3Zm5.3 0-1.2-.1-1-.7c-.2-.3-.4-.7-.4-1.2v-1.3l.8-1 1.1-.4 1.2.1 1 .7.5 1.2-.1 1.3c-.2.3-.4.7-.8 1l-1.1.4Zm-.1-.8a1.4 1.4 0 0 0 1-.9c.1-.2.2-.5.1-.9 0-.3-.1-.6-.3-.8l-.6-.4h-.7c-.2 0-.4 0-.6.2l-.4.6v.9c0 .4.2.8.5 1 .3.3.6.3 1 .3Zm3.3-6 1 6-1 .2-.9-6 1-.2Zm3.9 5.7h-1l-.8-.5-.4-.7 1-.1c0 .2.2.3.4.4l.6.1.6-.2.2-.5-.3-.3-.8-.2h-1l-.5-.4a1 1 0 0 1-.4-.7l.1-.7c.2-.2.3-.4.6-.5.2-.2.5-.3.9-.4.5 0 1 0 1.3.2.3.3.5.6.6 1l-.9.2c0-.2-.2-.4-.3-.5a1 1 0 0 0-.6 0 1 1 0 0 0-.6.2c-.1 0-.2.2-.1.4l.1.2.4.2h.6l.8.2c.3 0 .5.2.6.3l.4.7-.1.7-.6.6-.8.3Zm5.1-4.8.5-.7.8-.3.1 1h-.2c-.4 0-.6.2-.8.4-.2.3-.2.6-.1 1l.3 2.4-.9.2-.7-4.5 1-.2v.7Zm6.6.5v.4l-3.4.6c0 .3.3.6.5.8.3.2.6.2 1 .2.5-.1.8-.4 1-.8l1-.2a2 2 0 0 1-1.9 1.7h-1.2c-.4-.2-.7-.4-1-.8l-.4-1.1v-1.3l.7-1 1.2-.4h1.2l.9.8c.2.3.4.6.4 1Zm-1-.2a1 1 0 0 0-.5-.7c-.3-.2-.6-.3-1-.2-.3 0-.5.2-.7.4-.2.3-.3.6-.3 1l2.5-.5Zm3.6-1.6h-.8l.6 3.8-1 .2-.6-3.8-.5.1-.1-.8h.5v-.4c-.1-.5 0-.9.2-1.1.2-.3.7-.5 1.3-.6v.8l-.5.2V151l.8-.1.1.8Zm1.8-.4c0-.3.2-.5.4-.6l.8-.4.1 1h-.2c-.4 0-.6.2-.8.4-.1.3-.2.6-.1 1l.4 2.4-1 .2-.7-4.5 1-.2v.7Zm6.5.5v.4l-3.4.6c.1.3.3.6.6.8.2.2.5.2.9.2.5-.1.8-.4 1-.8l1-.2a2 2 0 0 1-1.9 1.8c-.4 0-.8 0-1.2-.2-.4 0-.7-.3-1-.6l-.4-1.2v-1.3l.8-1 1.1-.4 1.2.1c.3.1.6.4.9.7.2.3.4.6.4 1Zm-1-.2a1 1 0 0 0-.5-.7c-.3-.2-.6-.3-1-.2l-.7.4c-.2.3-.3.6-.3 1l2.5-.5Zm4 2.2h-1l-.8-.4c-.2-.2-.3-.5-.3-.7l1-.2c0 .2 0 .3.3.4.2.1.4.2.6.1.3 0 .5 0 .6-.2l.2-.4c0-.2-.2-.3-.3-.4l-.8-.1-.9-.2-.6-.3a1 1 0 0 1-.4-.7l.1-.6c.2-.3.3-.5.6-.6.2-.2.5-.3.9-.3.5-.1 1 0 1.3.2.3.2.5.5.6 1l-.9.1c0-.2-.1-.4-.3-.4a1 1 0 0 0-.6-.1 1 1 0 0 0-.6.2l-.1.4c0 .1 0 .2.2.3l.3.1.6.1c.3 0 .6 0 .8.2.3 0 .5.1.6.3.2.1.3.3.4.6l-.1.7c-.1.3-.3.5-.6.6-.2.2-.5.3-.8.3Zm4.3-5.4h1l.7.6.4 1 .4 2.7-1 .1-.3-2.5c0-.4-.2-.7-.4-.9a1 1 0 0 0-1-.2c-.3 0-.5.2-.7.5-.2.2-.2.6-.2 1l.4 2.5-1 .1-.8-6 .9-.2.3 2 .5-.4c.3-.2.5-.3.8-.3Zm4 4.1-.4-.1a.6.6 0 0 1-.2-.4l.1-.5.4-.2.5.1.2.4-.1.5-.4.2Zm-.4-3.4-.5-.1a.6.6 0 0 1-.2-.4v-.5l.5-.2h.4l.3.5-.1.4c-.1.2-.3.2-.4.3Z"
      fill="#9990B0" />
    <path
      d="m587.3 141.8 1.1 7.3a6.4 6.4 0 0 0 7.3 5.4l39.8-6.2c1-.2 2-.5 2.8-1.1l8-5.7c2-1.4 3-4 2.7-6.4l-1.6-10.1a6.4 6.4 0 0 0-7.3-5.4l-39.8 6.2c-1 .2-2 .6-2.8 1.2l-8 5.6c-2 1.5-3 4-2.7 6.4l.5 2.8Z"
      fill="#2A2831" />
    <circle cx="601.6" cy="139.9" r="8.3" transform="rotate(-8.8 601.6 140)" fill="#0C0B0F" />
    <path
      d="M600.6 133.8a6.2 6.2 0 1 0 4.1.8l-3.1 5.3-1-6.1ZM614.7 137.4c-.3-1.6-.2-2.8.1-3.8.4-1 1.2-1.5 2.4-1.7 1.3-.2 2.2.1 2.8 1 .6.7 1 1.9 1.3 3.4.3 1.6.2 2.9-.1 3.8-.4 1-1.2 1.6-2.4 1.8-1.3.2-2.2-.1-2.8-1a8 8 0 0 1-1.3-3.5Zm5.7-1-.5-2c-.3-.6-.6-1-1-1.3-.4-.3-.9-.4-1.5-.3-.7 0-1.2.3-1.5.7-.3.4-.4 1-.4 1.6l.1 2.1c.1.9.3 1.6.5 2.2.2.6.5 1 1 1.3.3.3.9.4 1.5.3.7-.1 1.2-.4 1.4-.8.3-.4.5-.9.5-1.5l-.1-2.2Zm3.8 4.7c-.2 0-.3 0-.5-.2a.7.7 0 0 1-.3-.4l.1-.6.5-.3c.2 0 .4 0 .5.2.2 0 .3.2.3.4l-.1.6-.5.3Zm-.9-6-.5-.1a.7.7 0 0 1-.3-.5l.1-.5c.1-.2.3-.3.5-.3l.5.1c.2.2.3.3.3.5l-.1.5c-.1.2-.3.3-.5.3Zm7.8-4.4-5 .8.6 3.5c.2-.4.5-.7.9-1l1.3-.5c.8 0 1.4 0 2 .2.5.2.9.6 1.1 1 .3.5.5 1 .6 1.6a4 4 0 0 1-.1 1.7c-.2.6-.5 1-1 1.4-.4.4-1 .6-1.7.8-1 .1-1.7 0-2.4-.4-.6-.4-1-1-1.3-1.8l.9-.2c.2.6.6 1 1 1.3.5.3 1 .3 1.7.2.8 0 1.3-.4 1.7-1 .3-.5.4-1.1.3-1.9-.1-.8-.4-1.3-.9-1.7-.5-.3-1-.4-1.9-.3-.5 0-1 .2-1.3.6-.4.3-.6.6-.7 1l-1 .2-.8-5.4 6-.9v.8Zm4.6 5.8c.1.6.4 1 .9 1.3.4.3.9.4 1.5.3.8-.2 1.4-.6 1.7-1.3.3-.8.4-2 0-3.5 0 .6-.3 1-.7 1.4-.5.3-1 .6-1.6.7-1 .1-1.8 0-2.5-.5-.6-.5-1-1.3-1.2-2.3l.1-1.7c.2-.5.5-1 .9-1.3.4-.4 1-.6 1.7-.7 1.3-.2 2.3 0 3 .8.5.8 1 2 1.2 3.5.3 1.7.2 3-.1 4-.4 1-1.2 1.5-2.4 1.7a3 3 0 0 1-2.2-.4c-.6-.4-1-1-1.2-1.8l.9-.2Zm1.8-2c.4 0 .8-.2 1.1-.4a2.2 2.2 0 0 0 1-2.2c-.2-.8-.5-1.4-1-1.8-.5-.4-1.1-.5-2-.4-.6 0-1.2.4-1.5.9-.4.5-.5 1.1-.4 1.8.1.8.4 1.4 1 1.7.4.4 1 .5 1.8.4Z"
      fill="#D2FFFE" />
    <g clip-path="url(#g)">
      <rect x="261.1" y="231.5" width="135" height="122.6" rx="23.5" transform="rotate(-8.8 261 231.5)"
        fill="#FFC26C" />
      <path fill-rule="evenodd" clip-rule="evenodd"
        d="M395.6 221.5c0-8.3-6.9-11.7-15.7-13.3l1-11.4-6.9-.7-1 11.2-5.5-.5 1-11.2-7-.6-1 11.4-4.3-.3-9.6-1-.6 7.5 5 .4c2.8.3 3.6 2 3.7 3.4l-1.2 13 .8.2h-.8l-1.6 18.2c-.2.8-.8 2.2-2.8 2l-5-.4-2.1 8.1 9 .9 3 .3 1.9.2-1 11.5 6.9.7 1-11.5 5.5.6-1 11.4 6.9.6 1-11.5c11.7.4 20-1.8 22-12.7 1.7-8.8-2.1-13.1-8.6-15.3 4.2-1.7 7-5 7-11.2Zm-11.9 23.9c-.7 7.9-13 6.6-18.7 6l-1.3-.2L365 236l1.7.1c5.8.4 17.7 1.3 17 9.4ZM366.8 229c4.7.5 15 1.7 15.7-5.5.6-7.4-9.3-8-14.2-8.4H367l-1.2 13.8 1.1.1Z"
        fill="#fff" fill-opacity=".4" style="mix-blend-mode:soft-light" />
      <path fill-rule="evenodd" clip-rule="evenodd"
        d="m333.1 272.8-2.6-1.6c-.3-.2-.6-.6-.6-1l-3-19.6c-.1-.4 0-.8.3-1.1l2-2.4c-.8-5-1.2-7.6-2.5-9.4a9.3 9.3 0 0 0-4.6-3.4c-2.2-.7-4.7-.3-9.8.5l-13 2c-9 1.4-13.5 2-16.6 4.3-2.8 2-4.9 4.9-6 8.1-1.1 3.7-.4 8.2 1 17.1l1.8 11.7a20 20 0 0 0 1 4.8c.5 1 1 2 1.8 2.7.9.9 2 1.5 4.1 2.9l1.9 1c1.7 1.1 2.5 1.6 3.4 2l2.6.5c1 0 2-.1 4-.5l7.5-1.1 5.2-.8 5.2-.8 4.3-.7c5.1-.8 7.7-1.2 9.5-2.5a9.3 9.3 0 0 0 3.4-4.6c.6-1.9.4-4.1-.3-8.1Z"
        fill="#0C0B0F" />
      <rect x="333.3" y="235.4" width="3.5" height="3.5" rx="1.4" transform="rotate(-8.8 333.3 235.4)" fill="#0C0B0F" />
      <rect x="326.5" y="259.5" width="3.5" height="3.5" rx="1.4" transform="rotate(-8.8 326.5 259.5)" fill="#fff" />
      <path
        d="M332.7 262.5c0-.8.4-1.5 1.2-1.6l1.4-.2c.8-.2 1.5.4 1.6 1.1l1.5 9.8c.2 1.2-1.1 2-2.1 1.3l-1.7-1.2c-.3-.2-.5-.5-.6-.9l-1.3-8.3Z"
        fill="#fff" />
      <path d="m274.6 261.1 2 13" stroke="#201E27" stroke-width="1.4" stroke-linecap="round" />
      <path
        d="m286.7 257.1-1.7.3-.1.8-1.4.2 1-5 1.5-.3 2.5 4.5-1.4.3-.4-.8Zm-.5-1-.7-1.4-.3 1.6 1-.2Zm7.6-4.2.8 4.8-1.4.2-.4-2.6-.5 2.8-1.1.1-1.3-2.5.4 2.7-1.4.2-.7-4.8 1.6-.3 1.7 3 .7-3.4 1.6-.2Zm3.8 4.4-1.3-.1a2.5 2.5 0 0 1-1.5-2l.1-1.3c.2-.4.4-.8.8-1 .3-.3.7-.5 1.2-.6.4 0 .9 0 1.3.2.4.1.7.4 1 .7.3.3.4.8.5 1.2l-.1 1.4c-.2.4-.4.7-.8 1l-1.2.5Zm-.2-1.3c.4 0 .6-.2.8-.4.2-.3.2-.6.2-1-.1-.3-.2-.6-.5-.8a1 1 0 0 0-.8-.2 1 1 0 0 0-.8.4c-.2.3-.2.6-.1 1 0 .4.2.6.4.8.2.2.5.3.8.2Zm3.9-4.3.4 2.8c0 .3.1.5.3.6.1.1.3.2.5.1.3 0 .5-.1.6-.3v-.6l-.4-2.8 1.4-.2.4 2.8-.1 1.2c-.1.3-.4.6-.7.8l-1 .4h-1c-.4-.2-.7-.4-.9-.7-.2-.3-.4-.6-.4-1l-.5-2.9 1.4-.2Zm8.7 3.6-1.3.2-2.2-2.4.4 2.7-1.3.2-.8-4.8 1.3-.2 2.2 2.4-.4-2.7 1.4-.2.7 4.8Zm3.6-5.5.2 1-1.3.3.6 3.7-1.3.2-.6-3.7-1.3.2-.1-1 3.8-.7Z"
        fill="#fff" />
      <path
        d="m292.9 270 1.7-4.3-4.1 2.3-3.2-2 7.6 7.2-2-3.3ZM286 269l.8-2.8 7.5 7.3-8.3-4.5ZM286.8 275l4-2.7-2-1-2 3.7Z"
        fill="#CCF994" />
      <path
        d="m306 263.1-5.5.9.6 3.8c.2-.4.5-.7 1-1 .4-.3 1-.5 1.5-.6.8-.1 1.5 0 2 .2.6.3 1 .6 1.4 1.1.3.5.5 1 .6 1.7.1.7 0 1.3-.1 2a3 3 0 0 1-1 1.5c-.5.4-1.2.7-2 .8-1 .2-1.9 0-2.6-.4a3.5 3.5 0 0 1-1.5-2l1-.2c.3.7.6 1.1 1.2 1.4.5.3 1.1.4 1.8.3.9-.1 1.5-.5 1.8-1a3 3 0 0 0 .4-2.2c-.1-.9-.5-1.5-1-1.9-.5-.4-1.2-.5-2-.4-.6.1-1 .3-1.5.7-.4.3-.7.7-.8 1.2l-1 .2-1-6 6.6-1 .1 1Z"
        fill="#fff" />
      <path
        d="M363.3 268a2.2 2.2 0 0 0 .6 4.4h.1a2.2 2.2 0 0 0-.7-4.3ZM366.5 273.3a4.6 4.6 0 0 0-4.7.7c-.5.5-.7 1-.6 1.6 0 .5.5 1 1.1 1.3.7.3 1.6.4 2.4.3.8-.1 1.6-.5 2.2-1 .5-.5.8-1 .7-1.6-.1-.6-.5-1-1.1-1.3ZM376 268c-.1-.3-.3-.5-.5-.6-.3-.2-.6-.2-1-.1-.5 0-1 .3-1.1.8-.3.5-.3 1.3-.1 2.3 0-.4.3-.7.7-.9.3-.2.7-.4 1.1-.4h1.3c.4.2.8.5 1 .8.3.4.5.9.6 1.4l-.1 1.4c-.2.4-.4.8-.8 1.1-.3.3-.8.5-1.3.6-.8 0-1.4 0-1.9-.3-.5-.2-.8-.7-1-1.2-.4-.6-.6-1.3-.7-2.3-.4-2.6.3-4 2.2-4.4.7 0 1.3 0 1.8.3.5.4.8.8 1 1.4l-1.2.2Zm-1 2.1c-.4.1-.8.3-1 .6-.3.3-.4.7-.4 1.2.1.5.3 1 .7 1.2.3.2.7.3 1.2.2.5 0 .8-.2 1-.6.3-.3.4-.7.3-1.2-.1-.5-.3-.8-.6-1-.3-.3-.7-.4-1.2-.4Zm4.3 2-.2-1 2.9-5.8 1.5-.2.8 5.1 1-.1.2 1-1 .2.2 1.7-1.2.2-.3-1.7-4 .6Zm3.2-5.5-2 4.2 2.6-.4-.6-3.8Zm3.3 0c0-.6.1-1.2.5-1.6a3 3 0 0 1 1.8-.9h1.4l1 .7.4 1a1.9 1.9 0 0 1-1 2c.5.1.8.3 1.1.6.3.3.5.7.6 1.3l-.1 1.2-.8.9-1.3.5a3 3 0 0 1-2-.3c-.6-.3-1-.9-1.1-1.6l1.2-.2c0 .4.3.7.6.9.3.2.7.2 1.1.2.5-.1.8-.3 1-.6.2-.3.3-.6.2-1 0-.5-.3-.8-.7-1-.3-.1-.8-.2-1.5 0h-.3l-.1-1 .3-.1c.6-.1 1-.3 1.3-.5.2-.2.4-.6.3-1a1 1 0 0 0-.5-.8c-.2-.1-.6-.2-1-.1-.4 0-.7.2-.9.4l-.3.9-1.2.2Z"
        fill="#0C0B0F" />
      <path
        d="M283.6 304.9c-.4-3 1.6-5.9 4.6-6.3l88.5-13.7a18 18 0 0 1 20.5 15l.8 5.1a18 18 0 0 1-15 20.5l-76.2 11.8a18 18 0 0 1-20.5-15l-2.7-17.4Z"
        fill="#fff" fill-opacity=".2" />
      <rect x="292.7" y="304.9" width="4.2" height="4.2" rx="1.4" transform="rotate(-8.8 292.7 304.9)" fill="#0C0B0F" />
      <path opacity=".4"
        d="M304.7 304.4v.8l-.6.7c-.2.2-.6.3-1 .4h-.6l.2 1.7-1.3.2-.7-4.8 2-.3h1l.7.5c.2.2.3.5.3.8Zm-1.8.8c.3 0 .5-.2.5-.6-.1-.3-.3-.5-.7-.4h-.5l.1 1.1h.6Zm5.2 2-1.3-.1a2.4 2.4 0 0 1-1.5-2c-.1-.5 0-.9.1-1.3.2-.4.4-.8.8-1 .3-.3.7-.5 1.2-.5h1.3l1 .8c.3.4.4.8.5 1.3l-.1 1.3c-.2.4-.4.7-.8 1-.3.3-.7.4-1.2.5Zm-.2-1.2c.4 0 .6-.2.8-.5.2-.3.2-.6.2-1l-.5-.8a1 1 0 0 0-.8-.2 1 1 0 0 0-.8.5c-.2.2-.2.5-.2 1 .1.3.2.6.5.8l.8.2Zm5.7.4c-.5 0-1 0-1.3-.2a2.5 2.5 0 0 1-1.6-2l.1-1.2c.2-.5.5-.8.8-1l1.2-.6c.5 0 .9 0 1.3.2.4.1.7.3 1 .7.3.3.5.7.5 1.2v1.3c-.2.4-.5.8-.8 1l-1.2.6Zm-.2-1.3c.3 0 .6-.2.7-.4.2-.3.2-.6.2-1s-.2-.6-.4-.8a1 1 0 0 0-.9-.2 1 1 0 0 0-.8.4c-.1.3-.2.6-.1 1 0 .3.2.6.4.8.2.2.5.3.9.2Zm4.5-.5 1.5-.2.1 1-2.8.4-.8-4.8 1.4-.2.6 3.8Zm5.4.3c-.6 0-1 0-1.4-.2-.4-.2-.7-.6-.8-1l1.4-.3c0 .2.1.3.2.3l.4.1.3-.1v-.3c0-.2 0-.3-.2-.3l-.7-.2c-.3 0-.6 0-.8-.2-.2 0-.4-.1-.5-.3l-.4-.7a1.3 1.3 0 0 1 .7-1.4l.9-.4c.6 0 1 0 1.4.2.4.2.6.6.7 1l-1.4.3c0-.2-.1-.3-.2-.3l-.4-.1-.2.1v.5l.4.1.5.2c.3 0 .6 0 .8.2.2 0 .4.1.5.3l.4.7a1.4 1.4 0 0 1-.7 1.4c-.2.2-.5.3-.9.4Zm3-5.5.8 4.8-1.3.2-.8-4.8 1.4-.2Zm3 3.4 2-.3.1 1-3.5.6-.1-1 1.5-3-2 .3-.1-1.1 3.5-.6.1 1-1.6 3Zm3.7-3.3v.8l1.6-.3.2 1-1.6.3.2.8 1.7-.2.2 1-3 .5-.8-4.8 3-.5.2 1.1-1.7.3Z"
        fill="#0C0B0F" />
      <path
        d="m303.7 321.8 1.8-4.6-4.4 2.5-3.5-2.1 8.3 7.8-2.2-3.6ZM296.2 320.9l.9-3.1 8.2 8-9.1-5ZM297 327.3l4.4-3-2.1-1-2.3 4Z"
        fill="#CCF994" />
      <path
        d="M311.4 322.8a54.7 54.7 0 0 0 2.9-4 3 3 0 0 0 .2-1.6c0-.5-.3-1-.6-1.2-.3-.3-.7-.4-1.3-.3-.5 0-.9.3-1.1.7-.3.4-.4.9-.3 1.5l-1.5.2c-.1-1 0-1.9.6-2.5.5-.7 1.2-1 2.1-1.2 1-.2 1.8 0 2.5.4a3 3 0 0 1 1.1 2 4 4 0 0 1-.2 2c-.2.7-.5 1.3-.9 1.9l-1.5 1.9-.5.6 4.3-.6.2 1.3-6.6 1-.2-1.1.8-1Zm6.6-4.1c-.2-1.6-.2-2.9.2-3.8.4-1 1.3-1.6 2.6-1.8 1.3-.2 2.3.1 3 1 .6.7 1 2 1.3 3.5.2 1.6.2 2.9-.2 3.8-.4 1-1.3 1.6-2.6 1.8-1.3.2-2.3 0-3-.9-.6-.8-1-2-1.3-3.6Zm5.6-.9a10 10 0 0 0-.5-1.8c-.1-.5-.4-.9-.7-1.2-.4-.3-.8-.4-1.4-.3-.6.1-1 .4-1.2.7-.3.4-.4.8-.4 1.4l.1 1.8.5 2c.1.5.4.8.7 1.1.4.3.8.4 1.4.3.6-.1 1-.3 1.2-.7.3-.4.4-.8.4-1.3l-.1-2Zm5.6 2.5-1.1 4-1 .1.4-3.9 1.7-.2Zm.6-3.4c-.2-1.6-.2-2.9.2-3.9s1.3-1.5 2.6-1.7c1.3-.2 2.3 0 3 .9.6.8 1 2 1.3 3.6.2 1.5.2 2.8-.2 3.8s-1.3 1.6-2.6 1.8c-1.3.2-2.2-.1-3-1-.6-.7-1-2-1.3-3.5Zm5.6-1a10 10 0 0 0-.5-1.8c-.1-.5-.4-.8-.7-1.1-.4-.3-.8-.4-1.4-.3-.6 0-1 .3-1.2.7-.3.4-.4.8-.4 1.3l.1 2 .5 1.8c.1.5.4 1 .7 1.2.4.3.8.4 1.4.3.6-.1 1-.4 1.2-.7.3-.4.4-.8.4-1.4l-.1-2Zm3.1-.4c-.2-1.6-.1-2.8.3-3.8s1.2-1.6 2.5-1.8c1.3-.2 2.3.1 3 1 .6.7 1.1 2 1.3 3.5.3 1.6.2 2.9-.2 3.9s-1.2 1.5-2.5 1.7c-1.3.2-2.3 0-3-.9-.6-.8-1.1-2-1.4-3.6Zm5.6-.9a10 10 0 0 0-.4-1.8c-.2-.5-.4-.9-.8-1.2-.3-.2-.8-.3-1.4-.3-.5.1-1 .4-1.2.7-.2.4-.4.8-.4 1.4 0 .5 0 1.1.2 1.9 0 .7.2 1.4.4 1.9s.4.9.8 1.1c.3.3.8.4 1.4.3.5 0 1-.3 1.2-.7.2-.3.4-.8.4-1.3 0-.6 0-1.2-.2-2Zm3.2-.5c-.3-1.5-.2-2.8.2-3.8s1.3-1.5 2.6-1.7c1.3-.2 2.2 0 3 .9.6.8 1 2 1.3 3.5.2 1.6.2 3-.2 4-.4.9-1.3 1.5-2.6 1.7-1.3.2-2.3-.1-3-1-.6-.8-1-2-1.3-3.6Zm5.6-.8a10 10 0 0 0-.5-1.9c-.2-.5-.4-.8-.8-1.1-.3-.3-.7-.4-1.3-.3-.6 0-1 .3-1.2.7-.3.3-.4.8-.4 1.3l.1 2 .5 1.8c.1.5.4.9.7 1.2.4.2.8.3 1.4.3.6-.1 1-.4 1.2-.7.3-.4.4-.8.4-1.4l-.1-2Z"
        fill="#0C0B0F" />
    </g>
    <g clip-path="url(#h)">
      <rect x="396.6" y="210.5" width="135" height="122.6" rx="23.5" transform="rotate(-8.8 396.6 210.5)"
        fill="#FFAE63" />
      <path fill-rule="evenodd" clip-rule="evenodd"
        d="M531.1 200.5c0-8.3-6.9-11.7-15.7-13.3l1-11.4-6.9-.7-1 11.1-5.5-.4 1-11.2-7-.6-1 11.4-4.3-.4-9.6-.9-.6 7.5 5 .4c2.8.3 3.5 2 3.7 3.4l-1.2 13a5.7 5.7 0 0 1 .5.1h-.5l-1.6 18.2c-.2 1-.8 2.3-2.8 2.1l-5-.5-2.1 8.2 9 .8a300.7 300.7 0 0 1 4.9.5l-1 11.6 6.9.6 1-11.4 5.5.6-1 11.4 6.9.6 1-11.5c11.7.4 20-1.8 22-12.7 1.7-8.8-2.1-13.1-8.6-15.3 4.2-1.7 7-5 7-11.2Zm-11.9 23.8c-.7 8-13 6.7-18.7 6h-1.3l1.4-15.4 1.6.1c5.9.4 17.8 1.2 17 9.3ZM502.3 208c4.7.5 15 1.6 15.7-5.6.6-7.3-9.3-8-14.2-8.3l-1.4-.1-1.2 13.9 1.1.1Z"
        fill="#fff" fill-opacity=".4" style="mix-blend-mode:soft-light" />
      <path fill-rule="evenodd" clip-rule="evenodd"
        d="m468.6 251.8-2.6-1.6c-.3-.3-.6-.6-.6-1l-3-19.6c-.1-.4 0-.8.2-1.2l2-2.3c-.7-5.1-1.1-7.7-2.4-9.5a9.3 9.3 0 0 0-4.6-3.3c-2.2-.7-4.7-.3-9.8.5l-13 2c-9 1.4-13.5 2-16.6 4.3-2.8 2-4.9 4.8-6 8-1.1 3.8-.4 8.3 1 17.2l1.8 11.6a20 20 0 0 0 1 5c.5 1 1 1.8 1.8 2.6.9.9 2 1.5 4.1 2.8l1.9 1.2c1.7 1 2.5 1.5 3.4 1.8.9.3 1.7.5 2.6.5 1 0 2 0 4-.4l7.5-1.1 5.2-.9 5.2-.8 4.3-.6c5.1-.8 7.7-1.2 9.5-2.5a9.3 9.3 0 0 0 3.4-4.6c.6-2 .4-4.1-.3-8.1Z"
        fill="#0C0B0F" />
      <path
        d="m422.2 236.1-1.7.3-.1.8-1.4.2 1-5 1.5-.3 2.5 4.5-1.4.2-.4-.7Zm-.5-1-.7-1.4-.3 1.6 1-.2Zm7.6-4.2.8 4.8-1.4.2-.4-2.7-.5 2.8-1.1.2-1.3-2.5.4 2.7-1.4.2-.7-4.8 1.6-.3 1.7 3 .7-3.4 1.6-.2Zm3.8 4.4c-.4 0-.8 0-1.3-.2a2.5 2.5 0 0 1-1.5-2l.1-1.2c.2-.5.4-.8.8-1 .3-.3.7-.5 1.2-.6.4 0 .9 0 1.3.2.4.1.7.3 1 .7.3.3.4.7.5 1.2l-.1 1.3c-.2.4-.4.8-.8 1-.3.3-.7.5-1.2.6Zm-.2-1.3c.4 0 .6-.2.8-.4.2-.3.2-.6.2-1-.1-.4-.2-.6-.5-.8a1 1 0 0 0-.8-.2 1 1 0 0 0-.8.4c-.2.3-.2.6-.2 1 .1.3.2.6.5.8.2.2.5.3.8.2Zm3.9-4.3.4 2.8c0 .3.1.5.3.6.1.1.3.2.5.1.3 0 .5-.1.6-.3v-.6l-.4-2.8 1.4-.2.4 2.8-.1 1.2c-.1.3-.4.6-.7.8l-1 .4h-1l-1-.7c-.1-.3-.3-.6-.3-1l-.5-2.9 1.4-.2Zm8.7 3.6-1.3.2-2.2-2.4.4 2.7-1.4.2-.7-4.8 1.3-.2 2.2 2.4-.4-2.7 1.4-.2.7 4.8Zm3.6-5.5.2 1-1.3.3.6 3.7-1.3.2-.6-3.7-1.3.2-.1-1 3.8-.7Z"
        fill="#fff" />
      <path
        d="m428.4 248.9 1.7-4.2-4.1 2.3-3.2-2 7.6 7.2-2-3.3ZM421.5 248l.8-2.8 7.5 7.3-8.3-4.5ZM422.3 254l4-2.7-2-1-2 3.7Z"
        fill="#CCF994" />
      <path
        d="m433.8 243.3-.2-.9 2.6-.4 1.7 10.8-1.1.1-1.5-9.8-1.5.2Zm5.6 3.6c-.3-1.7-.3-3 .1-4.1.4-1 1.3-1.7 2.7-1.9 1.3-.2 2.4.1 3 1 .7.9 1.2 2.2 1.5 3.9.2 1.7.2 3.1-.2 4.2-.4 1-1.3 1.7-2.6 1.9-1.4.2-2.5-.1-3.1-1a8.8 8.8 0 0 1-1.4-4Zm6.2-1-.5-2.3a3 3 0 0 0-1-1.4c-.5-.3-1-.4-1.8-.3-.7 0-1.2.4-1.6.8a3 3 0 0 0-.5 1.7c0 .6 0 1.4.2 2.4.1 1 .3 1.7.6 2.4a3 3 0 0 0 1 1.4c.4.3 1 .4 1.7.3.7-.1 1.3-.4 1.6-.8.3-.5.5-1 .5-1.7s0-1.5-.2-2.4Z"
        fill="#fff" />
      <rect x="468.8" y="214.4" width="3.5" height="3.5" rx="1.4" transform="rotate(-8.8 468.8 214.4)" fill="#0C0B0F" />
      <rect x="469.5" y="219.2" width="3.5" height="3.5" rx="1.4" transform="rotate(-8.8 469.5 219.2)" fill="#0C0B0F" />
      <rect x="462" y="238.5" width="3.5" height="3.5" rx="1.4" transform="rotate(-8.8 462 238.5)" fill="#fff" />
      <path
        d="M468.2 241.4c-.1-.7.4-1.4 1.2-1.5l1.4-.3c.8 0 1.5.4 1.6 1.2l1.5 9.8c.2 1.2-1.1 2-2.1 1.3l-1.7-1.2c-.3-.2-.5-.5-.6-1l-1.3-8.3Z"
        fill="#fff" />
      <path d="m410 240.1 2 13" stroke="#201E27" stroke-width="1.4" stroke-linecap="round" />
      <path
        d="M498.8 247a2.2 2.2 0 0 0 .6 4.4h.1a2.2 2.2 0 0 0-.7-4.3ZM502 252.2a4.6 4.6 0 0 0-4.7.8c-.5.4-.7 1-.6 1.6 0 .5.5 1 1 1.3.8.3 1.7.4 2.5.3.8-.2 1.6-.5 2.2-1 .5-.5.8-1 .7-1.6-.1-.6-.5-1-1.1-1.4ZM511.5 247c-.1-.3-.3-.5-.5-.6-.3-.2-.6-.2-1-.2-.5.1-1 .4-1.1 1-.3.4-.3 1.1-.1 2.2 0-.4.3-.7.7-1a2.7 2.7 0 0 1 2.4-.2c.4.1.8.4 1 .7.3.4.5.8.6 1.4l-.1 1.4c-.2.4-.4.8-.8 1-.3.4-.8.6-1.3.6-.8.2-1.4 0-1.9-.2s-.8-.7-1.1-1.2c-.3-.6-.5-1.4-.6-2.3-.4-2.6.3-4.1 2.2-4.4.7-.1 1.3 0 1.8.3.5.4.8.8 1 1.4l-1.2.1Zm-1 2.1c-.5.1-.8.3-1 .6-.3.3-.4.7-.4 1.2.1.5.3 1 .7 1.2.3.2.7.3 1.2.2.5 0 .8-.3 1-.6.3-.3.3-.7.3-1.2-.1-.5-.3-.8-.6-1-.3-.4-.7-.4-1.2-.4Zm4.3 2-.2-1 2.9-5.8 1.5-.2.8 5.1 1-.1.2 1-1 .2.2 1.7-1.2.1-.3-1.6-4 .6Zm3.2-5.6-2 4.3 2.6-.4-.6-3.9Zm3.3.1c0-.6.1-1.2.5-1.7a3 3 0 0 1 1.8-.8h1.3c.4.2.8.4 1 .7l.5 1a1.9 1.9 0 0 1-1 2c.5 0 .8.3 1.1.6.3.3.5.7.6 1.3l-.1 1.1a2 2 0 0 1-.8 1l-1.3.5a3 3 0 0 1-2-.3c-.6-.4-1-.9-1.1-1.6l1.2-.2c0 .3.3.6.6.8.3.2.7.3 1.1.2.5 0 .8-.2 1-.5.2-.3.3-.6.2-1 0-.5-.3-.8-.7-1-.3-.2-.8-.2-1.5 0h-.3l-.1-1 .3-.1 1.3-.5c.2-.3.3-.6.3-1a1 1 0 0 0-.5-.8c-.2-.1-.6-.2-1-.1-.4 0-.7.2-.9.4-.2.3-.3.5-.3.9l-1.2.1Z"
        fill="#0C0B0F" />
      <path
        d="M419.1 283.9c-.4-3 1.6-5.9 4.6-6.3l88.5-13.7a18 18 0 0 1 20.5 15l.8 5a18 18 0 0 1-15 20.6l-76.2 11.8a18 18 0 0 1-20.5-15l-2.7-17.4Z"
        fill="#fff" fill-opacity=".2" />
      <rect x="428.2" y="283.9" width="4.2" height="4.2" rx="1.4" transform="rotate(-8.8 428.2 283.9)" fill="#0C0B0F" />
      <path opacity=".4"
        d="M440.2 283.4v.8l-.6.7c-.2.2-.6.3-1 .4h-.6l.2 1.7-1.3.2-.7-4.8 2-.3h1l.7.5c.2.2.3.5.3.8Zm-1.8.8c.3 0 .5-.3.4-.6 0-.4-.2-.5-.6-.4h-.5l.1 1h.6Zm5.2 2-1.3-.1a2.4 2.4 0 0 1-1.5-2c-.1-.5 0-1 .1-1.3.2-.4.4-.8.8-1 .3-.3.7-.5 1.2-.5h1.3l1 .8c.3.4.4.8.5 1.2l-.1 1.4c-.2.4-.4.7-.8 1-.3.3-.7.4-1.2.5Zm-.2-1.3c.4 0 .6-.2.8-.4.2-.3.2-.6.1-1 0-.3-.2-.6-.4-.8a1 1 0 0 0-.8-.2 1 1 0 0 0-.8.4c-.2.3-.2.6-.2 1 .1.4.2.7.5.8.2.2.5.3.8.2Zm5.7.4h-1.3a2.5 2.5 0 0 1-1.6-2l.1-1.4.8-1 1.2-.5 1.3.1c.4.2.7.4 1 .8.3.3.5.7.5 1.2v1.3c-.2.4-.5.8-.8 1-.4.3-.8.5-1.2.5Zm-.2-1.2c.3 0 .6-.2.7-.5.2-.2.2-.5.2-.9s-.2-.7-.5-.8a1 1 0 0 0-.8-.3 1 1 0 0 0-.8.5c-.1.3-.2.6-.1 1 0 .3.2.6.4.8.2.2.5.3.9.2Zm4.5-.5 1.5-.2.1 1-2.8.4-.8-4.8 1.4-.2.6 3.8Zm5.4.2c-.6.1-1 0-1.4-.1-.4-.3-.7-.6-.8-1.1l1.4-.2.2.3c.1 0 .3.1.4 0h.3v-.3c0-.2 0-.3-.2-.3l-.7-.2-.8-.2-.6-.3-.3-.7a1.4 1.4 0 0 1 .7-1.5l.9-.3c.6 0 1 0 1.4.2.4.2.6.6.7 1l-1.4.3-.2-.4h-.4l-.2.1v.5l.4.1.5.1.8.2.5.4c.2.1.3.4.4.7a1.4 1.4 0 0 1-.7 1.4c-.2.2-.5.3-.9.3Zm3-5.4.8 4.8-1.3.2-.8-4.8 1.4-.2Zm3 3.4 2-.4.1 1.1-3.5.6-.1-1 1.5-3-2 .2-.1-1 3.5-.6.1 1-1.6 3Zm3.7-3.3v.7l1.6-.2.2 1-1.6.3.2.8 1.7-.2.2 1-3.1.5-.7-4.8 3-.5.2 1-1.7.4Z"
        fill="#0C0B0F" />
      <path
        d="m439.2 300.8 1.8-4.6-4.4 2.5-3.5-2.1 8.3 7.8-2.2-3.6ZM431.7 299.9l.9-3.1 8.2 8-9.1-5ZM432.5 306.3l4.4-3-2.1-1-2.3 4Z"
        fill="#CCF994" />
      <path
        d="M447 301.7a56.2 56.2 0 0 0 2.7-3.9 3 3 0 0 0 .3-1.6c0-.6-.3-1-.6-1.2-.3-.3-.7-.4-1.3-.3-.5 0-.9.3-1.1.7-.3.4-.4.9-.3 1.4l-1.5.3c-.1-1 0-2 .6-2.5.5-.7 1.2-1 2.1-1.2 1-.2 1.8 0 2.5.4a3 3 0 0 1 1.1 2 4 4 0 0 1-.2 2c-.2.7-.5 1.3-1 1.9a31 31 0 0 1-1.4 1.9l-.5.6 4.3-.6.2 1.3-6.6 1-.2-1.2.8-1Zm6.5-4c-.2-1.6-.2-2.9.2-3.8.4-1 1.3-1.6 2.6-1.8 1.3-.2 2.2.1 3 1 .6.7 1 1.9 1.3 3.5.2 1.6.2 2.9-.2 3.8-.4 1-1.3 1.6-2.6 1.8-1.3.2-2.3-.1-3-1-.6-.7-1-2-1.3-3.5Zm5.6-.9a10 10 0 0 0-.5-1.8c-.1-.5-.4-1-.7-1.2-.4-.3-.8-.4-1.4-.3-.6.1-1 .3-1.2.7-.3.4-.4.8-.4 1.3l.1 2 .5 1.8c.1.5.4 1 .7 1.2.4.3.8.4 1.4.3.6-.1 1-.3 1.2-.7.3-.4.4-.8.4-1.3l-.1-2Zm5.5 2.5-1 4-1 .1.4-3.9 1.6-.2Zm.7-3.5c-.2-1.5-.2-2.8.2-3.8s1.3-1.5 2.6-1.7c1.3-.2 2.3 0 3 .9.6.8 1 2 1.3 3.5.2 1.6.2 3-.2 4-.4.9-1.3 1.5-2.6 1.7-1.3.2-2.3-.1-3-1-.6-.8-1-2-1.3-3.6Zm5.6-.8a10 10 0 0 0-.5-1.9c-.1-.5-.4-.8-.7-1.1-.4-.3-.8-.4-1.4-.3-.6 0-1 .3-1.2.7-.3.3-.4.8-.4 1.3l.1 2 .5 1.8c.1.5.4.9.7 1.2.4.2.8.3 1.4.2.6 0 1-.3 1.2-.6.3-.4.4-.8.4-1.4l-.1-2Zm3.1-.5c-.2-1.6-.1-2.9.3-3.8.4-1 1.2-1.6 2.5-1.8 1.3-.2 2.3.1 3 1 .6.7 1 2 1.3 3.5.3 1.6.2 2.9-.2 3.8-.4 1-1.2 1.6-2.5 1.8-1.3.2-2.3 0-3-.9-.7-.8-1.1-2-1.4-3.6Zm5.6-.9a10 10 0 0 0-.4-1.8c-.2-.5-.5-.9-.8-1.2-.3-.3-.8-.4-1.4-.3-.5.1-1 .4-1.2.7-.2.4-.4.8-.4 1.4 0 .5 0 1.1.2 1.8 0 .8.2 1.4.4 2 .2.5.4.8.8 1.1.3.3.8.4 1.4.3.5-.1 1-.3 1.2-.7.2-.4.4-.8.4-1.3 0-.6 0-1.2-.2-2Zm3.2-.5c-.3-1.5-.2-2.8.2-3.8s1.3-1.5 2.6-1.7c1.3-.2 2.2 0 2.9.9.7.8 1.1 2 1.4 3.5.2 1.6.2 3-.2 3.9-.4 1-1.3 1.6-2.6 1.8-1.3.2-2.3-.1-3-1-.6-.8-1-2-1.3-3.6Zm5.6-.8a10 10 0 0 0-.5-1.9c-.2-.5-.4-.9-.8-1.1-.3-.3-.8-.4-1.3-.3-.6 0-1 .3-1.2.7-.3.3-.4.8-.4 1.3l.1 1.9.4 1.9c.2.5.5.9.8 1.2.4.2.8.3 1.4.2.6 0 1-.3 1.2-.6.3-.4.4-.9.4-1.4l-.1-2Z"
        fill="#0C0B0F" />
    </g>
    <g clip-path="url(#i)">
      <rect x="532.1" y="189.5" width="135" height="122.6" rx="23.5" transform="rotate(-8.8 532 189.5)"
        fill="#FF9A60" />
      <path fill-rule="evenodd" clip-rule="evenodd"
        d="M666.6 179.5c0-8.3-6.9-11.7-15.7-13.3l1-11.5-7-.6-.9 11.1-5.5-.4 1-11.2-7-.6-1 11.4-4.4-.4-9.5-.9-.6 7.4 5 .5c2.8.3 3.5 2 3.7 3.4l-1.2 13c.2 0 .5 0 .7.2h-.2l-.5-.1-1.6 18.2c-.2.9-.9 2.3-2.8 2 0 .2-5-.4-5-.4l-2.1 8.2 9 .8 3 .3 1.9.2-1 11.6 6.9.6 1-11.4 5.5.6-1 11.3 6.9.7 1-11.6c11.7.4 20-1.7 22-12.6 1.7-8.8-2.1-13.1-8.6-15.3 4.2-1.7 7-5.1 7-11.2Zm-11.9 23.8c-.7 8-13 6.6-18.7 6l-1.3-.1 1.4-15.3 1.6.1c5.9.4 17.8 1.2 17 9.3ZM637.8 187c4.7.5 15 1.6 15.6-5.6.7-7.3-9.2-8-14-8.3l-1.5-.1-1.2 13.9h1.1Z"
        fill="#fff" fill-opacity=".4" style="mix-blend-mode:soft-light" />
      <path fill-rule="evenodd" clip-rule="evenodd"
        d="m604.1 230.8-2.6-1.7c-.3-.2-.6-.5-.6-1l-3-19.6c-.1-.4 0-.8.2-1l2-2.4c-.7-5.1-1.1-7.7-2.4-9.5a9.3 9.3 0 0 0-4.6-3.4c-2.2-.6-4.7-.3-9.9.5l-13 2c-8.9 1.4-13.4 2.1-16.5 4.4-2.8 2-4.9 4.8-6 8-1.1 3.8-.4 8.2 1 17.2l1.7 11.6c.4 2.5.6 3.8 1.1 5 .5.9 1 1.8 1.8 2.6.9.9 2 1.5 4.1 2.8l1.9 1.1c1.7 1 2.5 1.6 3.4 2 .9.2 1.7.4 2.6.4 1 0 2 0 3.9-.4l7.6-1.2 5.2-.8 5.2-.8 4.3-.6c5.1-.8 7.7-1.2 9.5-2.5a9.3 9.3 0 0 0 3.4-4.7c.6-1.8.4-4-.3-8Z"
        fill="#0C0B0F" />
      <path
        d="m557.7 215-1.7.4-.1.8-1.4.2 1-5 1.5-.3 2.5 4.5-1.4.2-.4-.7Zm-.5-.9-.7-1.5-.3 1.7 1-.2Zm7.6-4.2.8 4.8-1.4.2-.4-2.7-.5 2.8-1.1.2-1.3-2.5.4 2.6-1.4.2-.7-4.8 1.6-.2 1.7 3 .7-3.4 1.6-.2Zm3.8 4.3h-1.3l-1-.8c-.3-.4-.4-.8-.5-1.2-.1-.5 0-1 .1-1.4.2-.4.4-.7.8-1l1.2-.5 1.3.1c.4.2.7.4 1 .8.3.3.4.7.5 1.2l-.1 1.3a2.4 2.4 0 0 1-2 1.6Zm-.2-1.2c.4 0 .6-.2.8-.5.2-.2.2-.5.2-.9-.1-.4-.3-.7-.5-.8a1 1 0 0 0-.8-.3 1 1 0 0 0-.8.5c-.2.3-.2.6-.2 1 .1.3.2.6.5.8.2.2.5.3.8.2Zm3.9-4.3.4 2.8c0 .3.1.5.3.6l.5.1c.3 0 .5-.1.6-.3v-.6l-.4-2.8 1.4-.2.4 2.8-.1 1.1c-.1.4-.4.7-.7.9l-1 .4-1-.1c-.4-.1-.7-.3-1-.6-.1-.3-.3-.6-.3-1l-.5-2.9 1.4-.2Zm8.7 3.6-1.3.2-2.2-2.4.4 2.7-1.4.2-.7-4.8 1.3-.2 2.2 2.4-.4-2.7 1.4-.2.7 4.8Zm3.6-5.5.2 1-1.3.3.6 3.7-1.3.2-.6-3.7-1.3.2-.2-1.1 4-.6Z"
        fill="#fff" />
      <path
        d="m563.9 227.9 1.7-4.3-4.1 2.4-3.2-2 7.6 7.2-2-3.3ZM557 227l.8-2.8 7.5 7.3-8.3-4.5ZM557.8 233l4-2.8-2-.9-2 3.6Z"
        fill="#CCF994" />
      <path
        d="M571.7 231.2c1.6-1.7 2.9-3.2 3.7-4.4.8-1.3 1.2-2.4 1-3.5-.1-.7-.4-1.2-.8-1.5-.4-.4-1-.5-1.8-.4-.7.1-1.3.4-1.6 1-.4.5-.5 1.2-.4 2l-1 .1c-.1-1 0-2 .6-2.7.5-.7 1.3-1.1 2.3-1.3 1-.2 1.8 0 2.5.5.7.4 1 1.1 1.2 2.1.2 1.2 0 2.5-1 3.8-.7 1.3-1.8 2.6-3.1 3.9l5.5-.9.2 1-7.2 1-.1-.7Zm14.2-11.5-5.5.9.6 3.8c.2-.4.5-.7 1-1 .4-.3.9-.5 1.5-.6.8-.1 1.5 0 2 .2.6.2 1 .6 1.4 1.1.3.5.5 1 .6 1.7l-.1 2a3 3 0 0 1-1 1.5c-.5.4-1.2.7-2 .8-1 .1-1.9 0-2.6-.4a3.5 3.5 0 0 1-1.5-2l1-.2c.2.7.6 1.1 1.2 1.4.5.3 1 .4 1.8.3.8-.1 1.5-.5 1.8-1a3 3 0 0 0 .4-2.2c-.1-.9-.5-1.5-1-1.9-.5-.4-1.2-.5-2-.4-.6.1-1.1.3-1.5.7-.4.3-.7.7-.8 1.2l-1 .2-1-6 6.5-1 .2 1Z"
        fill="#fff" />
      <rect x="604.3" y="193.4" width="3.5" height="3.5" rx="1.4" transform="rotate(-8.8 604.3 193.4)" fill="#0C0B0F" />
      <rect x="605" y="198.2" width="3.5" height="3.5" rx="1.4" transform="rotate(-8.8 605 198.2)" fill="#0C0B0F" />
      <rect x="611.9" y="202" width="3.5" height="3.5" rx="1.4" transform="rotate(-8.8 612 202)" fill="#0C0B0F" />
      <rect x="597.5" y="217.5" width="3.5" height="3.5" rx="1.4" transform="rotate(-8.8 597.5 217.5)" fill="#fff" />
      <path
        d="M603.7 220.4c-.1-.7.4-1.4 1.2-1.5l1.4-.3c.8 0 1.5.4 1.6 1.2l1.5 9.8c.2 1.2-1.1 2-2.1 1.3l-1.7-1.2c-.3-.2-.5-.6-.6-1l-1.3-8.3Z"
        fill="#fff" />
      <path d="m545.6 219.1 2 13" stroke="#201E27" stroke-width="1.4" stroke-linecap="round" />
      <path
        d="M634.3 226a2.2 2.2 0 1 0 .7 4.4 2.2 2.2 0 0 0-.7-4.3ZM637.5 231.2a4.6 4.6 0 0 0-4.7.7c-.5.5-.7 1.1-.6 1.7 0 .5.5 1 1 1.3.8.3 1.7.4 2.5.3.8-.2 1.6-.5 2.2-1 .5-.5.8-1 .7-1.6-.1-.6-.5-1-1.1-1.4ZM647 226l-.5-.7h-1c-.5 0-1 .3-1.1.8-.3.5-.3 1.2-.2 2.2.2-.3.4-.6.8-.8a2.5 2.5 0 0 1 2.5-.3l1 .7c.2.4.4.8.5 1.4l-.1 1.4c-.2.4-.4.8-.8 1-.3.4-.8.5-1.3.6-.8.1-1.4 0-1.9-.2-.5-.3-.8-.7-1.1-1.3-.3-.5-.5-1.3-.6-2.2-.4-2.6.3-4.1 2.2-4.4.7-.1 1.3 0 1.8.3s.8.8 1 1.4l-1.2.1Zm-1 2.1c-.5 0-.8.3-1 .6-.3.3-.4.7-.4 1.2.1.5.3.9.6 1.2.4.2.8.3 1.3.2.5 0 .8-.3 1-.6.3-.3.3-.7.3-1.2-.1-.5-.3-.9-.6-1.1-.3-.3-.7-.4-1.2-.3Zm4.3 2-.2-1 2.9-5.8 1.5-.2.8 5.1 1-.2.2 1.1-1 .2.2 1.6-1.2.2-.3-1.6-4 .6Zm3.2-5.6-2 4.3 2.6-.4-.6-3.9Zm3.3.1c0-.7.1-1.2.5-1.7a3 3 0 0 1 1.8-.8h1.3c.4.2.8.4 1 .7.2.2.4.6.4 1a1.9 1.9 0 0 1-.9 2c.5 0 .8.3 1.1.6.3.3.5.7.6 1.2l-.1 1.2c-.2.4-.4.7-.8 1l-1.3.5a3 3 0 0 1-2-.3c-.6-.4-1-1-1.1-1.7l1.2-.1c0 .3.3.6.6.8.3.2.7.3 1.1.2.5 0 .8-.2 1-.5.2-.3.3-.6.2-1 0-.5-.3-.8-.7-1-.3-.2-.8-.2-1.5-.1h-.3l-.1-1h.3c.5-.1 1-.3 1.2-.5.3-.3.4-.6.4-1a1 1 0 0 0-.5-.8c-.2-.2-.6-.2-1-.1-.4 0-.7.2-.9.4-.2.3-.3.5-.3.8l-1.2.2Z"
        fill="#0C0B0F" />
      <path
        d="M554.6 262.9c-.4-3 1.6-5.9 4.6-6.3l88.5-13.8a18 18 0 0 1 20.4 15l.8 5.2a18 18 0 0 1-15 20.5l-76 11.8a18 18 0 0 1-20.6-15l-2.7-17.4Z"
        fill="#fff" fill-opacity=".2" />
      <rect x="563.7" y="262.8" width="4.2" height="4.2" rx="1.4" transform="rotate(-8.8 563.7 262.8)" fill="#0C0B0F" />
      <path opacity=".4"
        d="M575.7 262.4v.8l-.6.7c-.2.2-.6.3-1 .3l-.6.1.2 1.7-1.3.2-.7-4.8 2-.3h1l.7.5c.1.2.3.5.3.8Zm-1.8.8c.3 0 .5-.3.4-.6 0-.4-.2-.5-.6-.5l-.5.1.1 1h.6Zm5.2 2-1.3-.1a2.4 2.4 0 0 1-1.5-2c-.1-.5 0-1 .1-1.3.2-.4.4-.8.8-1 .3-.3.7-.5 1.2-.6.4 0 .8 0 1.2.2.5.1.8.4 1 .7.4.3.5.8.6 1.2l-.1 1.4c-.2.4-.4.7-.8 1l-1.2.5Zm-.2-1.3c.4 0 .6-.2.8-.4.1-.3.2-.6.1-1 0-.3-.2-.6-.4-.8a1 1 0 0 0-.9-.2 1 1 0 0 0-.7.4c-.2.3-.2.6-.2 1s.2.6.5.8c.2.2.5.3.8.2Zm5.7.4h-1.3a2.5 2.5 0 0 1-1.6-2l.1-1.4.8-1c.3-.3.7-.4 1.2-.5l1.3.1c.4.2.7.4 1 .8.3.3.5.7.5 1.2v1.3c-.3.4-.5.8-.8 1-.4.3-.8.5-1.2.5Zm-.2-1.2c.3 0 .6-.2.7-.5.2-.2.2-.5.2-1 0-.3-.2-.6-.5-.8a1 1 0 0 0-.8-.2 1 1 0 0 0-.8.5c-.1.2-.2.6-.1 1 0 .3.2.6.4.8.2.2.5.2.9.2Zm4.5-.5 1.5-.3.1 1-2.8.5-.8-4.8 1.4-.2.6 3.8Zm5.4.2c-.6.1-1 0-1.4-.2-.4-.2-.7-.5-.8-1l1.4-.2.2.3h.7v-.3c0-.2 0-.3-.2-.3l-.7-.2-.8-.2-.6-.3-.3-.7a1.4 1.4 0 0 1 .7-1.5l.9-.3c.6 0 1 0 1.4.2.4.2.6.5.7 1l-1.5.2-.1-.3h-.4l-.2.1v.5l.4.1.5.1.8.2c.2 0 .4.2.5.4.2.1.3.4.4.6a1.4 1.4 0 0 1-.7 1.5c-.2.1-.5.3-.9.3Zm3-5.4.8 4.8-1.3.2-.8-4.8 1.4-.2Zm3 3.3 2-.3.1 1.1-3.5.6-.2-1 1.6-3-2 .2-.1-1 3.5-.6.1 1-1.6 3Zm3.7-3.3v.8l1.6-.2.2 1-1.6.2.2 1 1.7-.4.2 1.1-3.1.5-.8-4.8 3.1-.5.2 1-1.7.3Z"
        fill="#0C0B0F" />
      <path
        d="m574.7 279.8 1.8-4.6-4.4 2.5-3.5-2.1 8.2 7.8-2.1-3.6ZM567.2 278.8l.8-3 8.2 7.9-9-4.9ZM568 285.3l4.4-3-2.2-1-2.2 4Z"
        fill="#CCF994" />
      <path
        d="M582.4 280.7a54.7 54.7 0 0 0 2.8-3.9 3 3 0 0 0 .3-1.6c0-.6-.3-1-.6-1.2-.3-.3-.7-.4-1.3-.3-.5 0-1 .3-1.2.7-.2.4-.3.9-.2 1.4l-1.5.3c-.1-1 0-2 .6-2.6.5-.6 1.2-1 2.1-1.1 1-.2 1.8 0 2.4.4a3 3 0 0 1 1.2 2 4 4 0 0 1-.2 2c-.2.7-.5 1.3-1 1.8l-1.4 2-.5.6 4.3-.7.2 1.3-6.6 1-.2-1 .8-1Zm6.6-4c-.3-1.6-.2-2.9.2-3.8.4-1 1.3-1.6 2.6-1.8 1.3-.2 2.2 0 3 .9.6.8 1 2 1.3 3.6.2 1.5.2 2.8-.2 3.8s-1.3 1.6-2.6 1.8c-1.3.2-2.3-.1-3-1-.6-.7-1-2-1.3-3.5Zm5.6-.9a10 10 0 0 0-.5-1.9l-.7-1.1c-.4-.3-.8-.4-1.4-.3-.6.1-1 .3-1.2.7-.3.4-.4.8-.4 1.3l.1 2 .5 1.8c.1.5.4 1 .7 1.2.4.3.8.4 1.4.3.6-.1 1-.4 1.2-.7.3-.4.4-.8.4-1.4l-.1-1.9Zm5.5 2.4-1 4-1 .2.4-3.9 1.6-.3Zm.7-3.4c-.2-1.5-.2-2.8.2-3.8s1.3-1.5 2.6-1.7c1.3-.2 2.3 0 3 .9.6.8 1 2 1.3 3.5.2 1.6.2 3-.2 3.9-.4 1-1.3 1.6-2.6 1.8-1.3.2-2.3-.1-3-1-.6-.8-1-2-1.3-3.6Zm5.6-.8a10 10 0 0 0-.5-1.9c-.1-.5-.4-.9-.7-1.1-.4-.3-.8-.4-1.4-.3-.6 0-1 .3-1.2.7-.3.3-.4.8-.4 1.3l.1 1.9c.1.8.3 1.4.5 1.9.1.5.4.9.7 1.2.4.2.8.3 1.4.2.6 0 1-.3 1.2-.6.3-.4.4-.9.4-1.4l-.1-2Zm3.1-.5c-.2-1.6-.1-2.9.3-3.8.4-1 1.2-1.6 2.5-1.8 1.3-.2 2.3.1 3 1 .6.7 1 1.9 1.3 3.5.3 1.6.2 2.9-.2 3.8-.4 1-1.2 1.6-2.5 1.8-1.3.2-2.3-.1-3-1-.7-.7-1.1-2-1.4-3.5Zm5.6-.9a10 10 0 0 0-.4-1.8c-.2-.5-.5-1-.8-1.2-.3-.3-.8-.4-1.4-.3-.5.1-1 .3-1.2.7-.2.4-.4.8-.4 1.3 0 .6 0 1.2.2 2 0 .7.2 1.3.4 1.8s.4 1 .8 1.2c.3.3.8.4 1.4.3.5-.1 1-.3 1.2-.7.2-.4.4-.8.4-1.3 0-.6 0-1.2-.2-2Zm3.2-.5c-.3-1.6-.2-2.8.2-3.8s1.2-1.6 2.5-1.8c1.3-.2 2.3.1 3 1 .7.8 1.1 2 1.4 3.5.2 1.6.1 2.9-.3 3.9-.3 1-1.2 1.5-2.5 1.7-1.3.2-2.3 0-3-.9-.6-.8-1-2-1.3-3.6Zm5.5-.8a10 10 0 0 0-.4-1.9c-.2-.5-.4-.9-.8-1.1-.3-.3-.8-.4-1.3-.3-.6 0-1 .3-1.3.7-.2.3-.3.8-.3 1.3l.1 1.9.4 1.9c.2.5.5.9.8 1.1.4.3.8.4 1.4.3.6 0 1-.3 1.2-.7.3-.3.4-.8.4-1.3s0-1.2-.2-2Z"
        fill="#0C0B0F" />
    </g>
  </g>
  <rect x="243.9" y="162.9" width="422.3" height="198" rx="30" transform="rotate(-8.8 243.9 163)" stroke="#5FF4AD"
    stroke-width="2" />
  <defs>
    <clipPath id="a">
      <rect x="8.3" y="119.2" width="420.3" height="196.1" rx="29" transform="rotate(-8.8 8.3 119.2)" fill="#fff" />
    </clipPath>
    <clipPath id="b">
      <rect x="24.4" y="187" width="135" height="122.6" rx="23.5" transform="rotate(-8.8 24.4 187)" fill="#fff" />
    </clipPath>
    <clipPath id="d">
      <rect x="159.9" y="166" width="135" height="122.6" rx="23.5" transform="rotate(-8.8 160 166)" fill="#fff" />
    </clipPath>
    <clipPath id="e">
      <rect x="295.4" y="145" width="135" height="122.6" rx="23.5" transform="rotate(-8.8 295.4 145)" fill="#fff" />
    </clipPath>
    <clipPath id="f">
      <rect x="245" y="163.8" width="420.3" height="196.1" rx="29" transform="rotate(-8.8 245 163.8)" fill="#fff" />
    </clipPath>
    <clipPath id="g">
      <rect x="261.1" y="231.5" width="135" height="122.6" rx="23.5" transform="rotate(-8.8 261 231.5)" fill="#fff" />
    </clipPath>
    <clipPath id="h">
      <rect x="396.6" y="210.5" width="135" height="122.6" rx="23.5" transform="rotate(-8.8 396.6 210.5)" fill="#fff" />
    </clipPath>
    <clipPath id="i">
      <rect x="532.1" y="189.5" width="135" height="122.6" rx="23.5" transform="rotate(-8.8 532 189.5)" fill="#fff" />
    </clipPath>
    <filter id="c" x="130.8" y="161.6" width="35.5" height="34.6" filterUnits="userSpaceOnUse"
      color-interpolation-filters="sRGB">
      <feFlood flood-opacity="0" result="BackgroundImageFix" />
      <feBlend in="SourceGraphic" in2="BackgroundImageFix" result="shape" />
      <feGaussianBlur stdDeviation="4.5" result="effect1_foregroundBlur_5545_730903" />
    </filter>
  </defs>
</svg>