<svg width="608" height="462" fill="none" xmlns="http://www.w3.org/2000/svg">
  <rect x="54.9" y="1.4" width="371.4" height="337.9" rx="16.6" transform="rotate(9 55 1.4)" fill="#16141D" />
  <rect x="54.9" y="1.4" width="371.4" height="337.9" rx="16.6" transform="rotate(9 55 1.4)" stroke="#5FF4AD"
    stroke-width="2" />
  <path d="M77 44.1a11.3 11.3 0 1 0 3.5-22.4A11.3 11.3 0 0 0 77 44.1Z" fill="#8199EF" />
  <path d="m79.8 25.4-.2.4-1.5 9.6v.2l5.2-2-3.5-8.2Z" fill="#BFCDFA" />
  <path d="m79.8 25.4-5.9 6.8 4.3 3.4 1.6-10.2Z" fill="#fff" />
  <path d="m78 36.4-.6 3.5v.2l5.7-5.6-5 2Z" fill="#BFCDFA" />
  <path d="m77.5 40.1.6-3.7-4.3-3.4 3.7 7.1Z" fill="#fff" />
  <path d="m78.2 35.6 5-2L79 31l-.7 4.7Z" fill="#8199EF" />
  <path d="m74 32.2 4.2 3.4.7-4.7" fill="#C5CAF4" />
  <path
    d="m100 32.5-.4 3.1 3.6.6-.2 1.4-3.6-.6-.5 3.2 4 .7-.2 1.4-5.8-1L98.6 31l5.8.9-.2 1.4-4.1-.7Zm13.3.7-.2 1.4-2.8-.4-1.5 9-1.7-.2 1.5-9.1-2.9-.5.3-1.4 7.3 1.2Zm10.1 1.6-1.6 10.5-1.8-.3.8-4.6-5-.8-.7 4.6-1.7-.2 1.6-10.5 1.8.2-.8 4.5 5 .8.7-4.5 1.7.3Z"
    fill="#fff" />
  <path
    d="M148.3 35.8c0-.6.3-1.1.7-1.6a3.3 3.3 0 0 1 3-1.1c.6.1 1.2.4 1.6.8.5.4.8 1 1 1.6l-1.3-.2c0-.4-.3-.7-.5-.9a2 2 0 0 0-1-.4l-1.1.1a2 2 0 0 0-1 .7l-.4 1.2.1 1.2a2 2 0 0 0 1.7 1.4h1l.8-.7 1.2.2c-.3.5-.7 1-1.3 1.2-.6.2-1.2.3-1.8.2-.6-.1-1.1-.3-1.6-.7a3.1 3.1 0 0 1-1.1-3Zm12 0-.8 5-1-.2V40c-.1.2-.3.4-.6.4a2.3 2.3 0 0 1-1.9-.4c-.3-.1-.5-.4-.6-.8V38l.4-2.9 1 .2-.4 2.8c-.1.4 0 .8.1 1 .2.3.5.5.9.5s.7 0 1-.2c.2-.2.4-.5.4-1l.5-2.7 1 .2Zm2.2 1.1.7-.4c.3-.1.6-.2 1-.1l-.2 1h-.3c-.4 0-.7 0-1 .2-.2.1-.3.5-.4 1l-.4 2.6-1-.2.7-5 1 .2v.7Zm3.5.6.7-.5h.9l-.2 1h-.2c-.4-.1-.8 0-1 .1-.2.2-.4.5-.5 1l-.4 2.6-1-.2.8-4.9 1 .2-.1.7Zm6.7 2.7-.2.5-3.7-.6a1.4 1.4 0 0 0 1.2 1.5c.5.1 1 0 1.3-.5l1 .2a2.3 2.3 0 0 1-2.5 1.2c-.4 0-.8-.2-1.2-.5-.3-.3-.6-.6-.7-1-.2-.5-.2-1-.1-1.4 0-.5.2-1 .5-1.3.3-.4.6-.6 1-.8.4-.1.9-.2 1.3 0 .5 0 1 .2 1.2.4.4.3.6.6.8 1v1.3Zm-1-.5c0-.4 0-.7-.3-1-.2-.2-.5-.4-1-.4-.3 0-.6 0-.9.2-.3.1-.5.4-.6.8l2.8.4Zm4.8-1.4c.4.1.8.2 1 .4l.7.9v1.2l-.4 2.9-1-.2.4-2.7c0-.5 0-.8-.2-1.1-.2-.3-.4-.4-.8-.5-.4 0-.7 0-1 .2-.3.2-.4.5-.5 1l-.4 2.7-1-.1.7-5 1 .2v.6l.7-.4c.3 0 .6-.1.8 0ZM181 40l-.4 2.7v.4l.5.2.6.1-.1.9-.8-.2c-.5 0-.8-.2-1-.5-.3-.2-.3-.6-.2-1l.4-2.8h-.6l.1-1 .6.2.2-1.3 1 .2-.2 1.2 1.2.2v.9l-1.3-.2Zm8.9 1.1c0 .3-.2.6-.4.9l-.8.5c-.4.2-.8.2-1.3 0h-1.1l-.4 2.4-1-.1 1-6.2 2 .3c.5 0 1 .2 1.2.4.3.3.6.5.7.8v1Zm-2.4.7c.4 0 .7 0 1-.2.1-.1.3-.3.3-.7.1-.6-.2-1-1-1.2l-1-.2-.4 2 1.1.3Zm4.3-.2c.2-.3.5-.4.7-.5.3-.1.6-.2 1-.1l-.2 1h-.3c-.4 0-.7 0-1 .2-.2.1-.3.5-.4 1l-.4 2.6-1-.2.7-5 1 .2v.8Zm3.2-1a.6.6 0 0 1-.4-.2.6.6 0 0 1-.2-.5c0-.2.2-.3.3-.4.2-.1.3-.2.5-.1.2 0 .3 0 .4.2.1.2.2.3.1.5 0 .2 0 .3-.2.4l-.5.2Zm.4.8-.8 5-1-.2.8-5 1 .2Zm.6 2.6c0-.5.3-1 .5-1.3.3-.3.6-.6 1-.7.4-.2.9-.2 1.3-.1.6 0 1 .3 1.4.6.4.4.6.8.6 1.3l-1-.1-.4-.7-.7-.3c-.4 0-.8 0-1 .3-.4.3-.6.6-.6 1.2-.1.5 0 1 .1 1.3.2.3.5.5 1 .6.5 0 1-.1 1.3-.6l1 .2c-.2.4-.5.8-1 1-.4.3-.9.3-1.5.2-.5 0-.9-.2-1.2-.5-.3-.2-.6-.6-.7-1-.1-.4-.2-.9 0-1.4Zm10.3 1.5-.2.5-3.7-.6c0 .4 0 .8.3 1 .2.3.5.5.9.5.5.1 1 0 1.2-.5l1.1.2a2.3 2.3 0 0 1-2.5 1.2c-.4 0-.8-.2-1.2-.5-.3-.3-.6-.6-.7-1-.2-.5-.2-1-.1-1.4 0-.5.2-1 .5-1.3.3-.4.6-.6 1-.8.4-.1.9-.2 1.3 0 .5 0 .9.1 1.2.4.4.3.6.6.7 1 .2.4.2.8.2 1.3Zm-1-.5c0-.4 0-.7-.3-1-.2-.2-.6-.4-1-.4-.3-.1-.6 0-.9.2-.3.1-.5.4-.6.8l2.7.4Z"
    fill="#9990B0" />
  <path
    d="m152 55-.5 1.1c-.3.4-.7.6-1.1.8-.5.2-1 .3-1.6.2l-.2 1h-.6l.2-1.1c-.8-.2-1.4-.6-1.8-1-.4-.6-.6-1.2-.5-1.9l1 .2c0 .4 0 .8.3 1.1.2.4.6.7 1.1.8l.6-3.7-1.3-.7c-.4-.2-.6-.5-.8-.9-.2-.4-.3-.8-.2-1.4.1-.7.4-1.3 1-1.6a3 3 0 0 1 2.1-.5l.2-1.1h.6l-.2 1.2a3 3 0 0 1 1.7 1c.4.5.6 1 .5 1.7l-1-.1c0-.4 0-.7-.3-1-.2-.4-.6-.6-1-.8l-.6 3.6 1.4.7.8 1c.2.3.2.8.2 1.4Zm-4.4-5.4c-.1.5 0 1 .2 1.2l1.3.9.5-3.5c-.5 0-1 0-1.4.3-.3.2-.6.6-.6 1.1Zm1.3 6.7c.6.1 1 0 1.4-.3.4-.3.6-.6.7-1.1 0-.5 0-1-.3-1.3-.2-.3-.7-.6-1.2-.8l-.6 3.5Zm5.6-7.4.1-.8 2.3.3-1.5 9.7-1-.2 1.4-8.8-1.3-.2Zm4.3 8.1-2 3.3-.6-.1 1.6-3.4 1 .2Zm3.7-3c-.6-.2-1-.6-1.2-1-.2-.4-.3-1-.2-1.5.1-.4.3-.9.6-1.2.3-.3.7-.6 1.2-.7a4 4 0 0 1 1.8 0 4 4 0 0 1 1.6.5 2.4 2.4 0 0 1 .5 3.8c-.4.3-.8.5-1.4.6.6.3 1 .6 1.3 1.1.3.5.3 1 .2 1.7 0 .5-.3 1-.6 1.4-.4.4-.8.6-1.4.8-.5.1-1.1.2-1.8 0-.7 0-1.3-.3-1.8-.6-.4-.3-.8-.7-1-1.1-.2-.5-.3-1-.2-1.6a2.4 2.4 0 0 1 2.4-2.1Zm4-1.5c.1-.6 0-1-.4-1.5-.3-.3-.9-.6-1.5-.7-.7-.1-1.3 0-1.8.2-.4.3-.7.7-.8 1.3 0 .5 0 1 .4 1.4.4.4.9.7 1.6.8.6 0 1.2 0 1.7-.3.4-.2.7-.6.8-1.2Zm-2.6 2.2a3 3 0 0 0-2 .2c-.4.3-.8.7-.9 1.4 0 .7 0 1.2.5 1.6.4.5 1 .7 1.7.9.8 0 1.4 0 2-.3.4-.3.7-.8.8-1.4.1-.7 0-1.2-.4-1.6a3 3 0 0 0-1.7-.8Zm4.2 4.6c1.9-1 3.3-1.9 4.4-2.7 1-.8 1.6-1.7 1.8-2.7 0-.6 0-1.1-.3-1.5-.2-.4-.7-.7-1.4-.8a2 2 0 0 0-1.7.4c-.4.3-.7.9-.8 1.6l-1-.2c.3-1 .7-1.7 1.3-2.1a3 3 0 0 1 2.4-.5 3 3 0 0 1 2 1c.4.6.6 1.3.4 2.2-.1 1.1-.8 2.1-1.8 3-1 .8-2.3 1.7-3.8 2.4l5 .8-.2.8-6.4-1 .1-.7Zm8.9-5.2c.2-.8.6-1.4 1.2-1.8.7-.3 1.4-.5 2.3-.3.6 0 1.1.3 1.5.6.4.2.7.6.9 1 .1.4.2.8.1 1.3 0 .6-.3 1-.7 1.4-.4.3-1 .5-1.6.5.7.3 1.1.7 1.4 1.2.3.4.4 1 .3 1.7-.1.8-.5 1.4-1 1.8-.6.4-1.4.5-2.4.4-1-.2-1.7-.6-2.2-1.1a3 3 0 0 1-.7-2.3l1 .2c0 .6 0 1.1.4 1.6.4.4 1 .7 1.6.8.7 0 1.3 0 1.7-.3.4-.3.6-.8.7-1.3.3-1.4-.6-2.2-2.6-2.5h-.3l.1-.9.4.1c1.8.3 2.8-.2 3-1.4 0-.5 0-1-.3-1.3-.3-.4-.8-.6-1.4-.7-.6-.1-1.1 0-1.6.2a2 2 0 0 0-1 1.3l-.8-.2Zm7 8.6a.7.7 0 0 1-.4-.3.7.7 0 0 1 0-.5c0-.2 0-.4.2-.5l.5-.1c.2 0 .3.1.4.3.2.1.2.3.2.5s-.2.3-.3.4c-.2.2-.3.2-.5.2Zm2.1-.5c1.8-1 3.3-2 4.3-2.8 1.1-.8 1.7-1.7 1.9-2.6 0-.6 0-1.2-.3-1.6-.2-.4-.7-.7-1.4-.8a2 2 0 0 0-1.7.4c-.4.4-.7 1-.9 1.6l-.9-.1c.2-1 .7-1.7 1.3-2.2a3 3 0 0 1 2.3-.5 3 3 0 0 1 2 1c.5.7.6 1.4.5 2.3-.2 1-.8 2-1.9 3-1 .8-2.3 1.6-3.7 2.4l5 .8-.2.7-6.4-1 .1-.6Zm8.5-3c.3-1.5.7-2.7 1.3-3.4.6-.8 1.5-1.1 2.8-1 1.2.3 2 .8 2.3 1.8.4.9.4 2.1.2 3.7a7.7 7.7 0 0 1-1.3 3.5c-.6.8-1.6 1-2.8.9-1.2-.2-2-.8-2.3-1.7-.4-1-.4-2.2-.2-3.8Zm5.6 1c.2-1 .2-1.6.2-2.2 0-.6-.2-1.1-.5-1.5-.3-.4-.7-.7-1.4-.8-.6 0-1.1 0-1.5.3-.4.3-.7.8-1 1.3a11.4 11.4 0 0 0-.7 4.3c.1.6.3 1 .6 1.5.2.4.7.6 1.4.7.6.1 1.1 0 1.5-.3.4-.3.7-.7 1-1.2l.4-2.2Z"
    fill="#fff" />
  <path
    d="M230 48.7c0-.6.2-1.1.6-1.5a3.3 3.3 0 0 1 3-1.1c.7 0 1.2.3 1.7.7.5.4.8 1 .9 1.6l-1.2-.2c-.1-.4-.3-.7-.6-.9a2 2 0 0 0-1-.4l-1 .1a2 2 0 0 0-1 .7c-.2.3-.4.7-.4 1.2V50l.7 1c.3.2.6.4 1 .4h1l.9-.7 1.2.2c-.3.6-.8 1-1.4 1.2-.5.2-1.1.3-1.8.2-.6 0-1.1-.3-1.5-.7a3.1 3.1 0 0 1-1.2-3Zm10-.3c.4 0 .7.2 1 .4.3.2.5.5.6.8v1.2l-.4 3-1-.2.4-2.8c.1-.4 0-.8-.1-1-.2-.3-.5-.5-.9-.6-.4 0-.7 0-1 .2-.2.2-.4.6-.4 1l-.5 2.8-1-.2 1-6.6 1 .1-.3 2.3.7-.4h1Zm2.6 3c0-.5.2-1 .5-1.3a2.3 2.3 0 0 1 3.8.2v-.7l1.1.1-.8 5-1-.2.1-.7a2.2 2.2 0 0 1-1.9.5 2.2 2.2 0 0 1-1.7-1.5 3 3 0 0 1-.1-1.4Zm4 .6v-.9a1.5 1.5 0 0 0-2-.9l-.6.5-.4.8v1l.5.6a1.5 1.5 0 0 0 1.5.3c.3-.1.5-.3.6-.5.2-.2.3-.5.4-.9Zm5.3-1.7c.3 0 .7.2 1 .4l.6.8v1.2l-.4 2.9-1-.2.4-2.7c0-.5 0-.8-.2-1-.1-.4-.4-.5-.8-.6-.4 0-.7 0-1 .2-.2.2-.4.5-.5 1l-.4 2.7-1-.1.8-5 1 .2-.1.6.7-.4h.9Zm5.3.8a2.2 2.2 0 0 1 1.6 1v-.7l1.1.2-.8 5c0 .5-.2.9-.5 1.2a2 2 0 0 1-1 .7c-.3.1-.8.2-1.3.1-.6-.1-1.2-.4-1.6-.7-.4-.4-.5-.9-.5-1.4l1 .1c0 .3.2.5.4.7.2.2.5.4.9.4s.7 0 1-.2c.3-.2.5-.6.6-1l.1-.9a2.1 2.1 0 0 1-1.8.6c-.5 0-.8-.2-1.2-.5l-.7-1a3 3 0 0 1 0-1.4c0-.5.2-1 .5-1.3a2.3 2.3 0 0 1 2.2-.9Zm1.3 2.8-.1-1a1.5 1.5 0 0 0-2-.8c-.2 0-.4.2-.6.5-.1.2-.3.5-.3.8v1l.5.6a1.5 1.5 0 0 0 1.5.3l.6-.5.4-.9Zm6.9 1-.1.5-3.8-.6a1.4 1.4 0 0 0 1.2 1.5c.6.1 1 0 1.3-.5l1 .2a2.3 2.3 0 0 1-2.4 1.2l-1.3-.5-.7-1c-.1-.5-.2-1 0-1.5 0-.5.2-1 .4-1.3.3-.3.6-.6 1-.7.4-.2.9-.2 1.4-.1.4 0 .8.2 1.2.5.3.2.5.6.7 1 .1.4.2.8 0 1.3Zm-1-.5c0-.4 0-.7-.3-1-.2-.2-.5-.4-1-.5-.3 0-.6 0-.9.2-.3.2-.4.5-.6.9l2.8.4Z"
    fill="#9990B0" />
  <path
    d="m232.8 64.8-.1.8-5.2-.8V64l5.3.8Zm2.5-1.5c.2-.8.6-1.4 1.2-1.7.7-.4 1.4-.5 2.3-.4.6.1 1.1.3 1.5.6.4.3.7.6.9 1 .1.4.2.8 0 1.3 0 .6-.2 1-.6 1.4-.4.4-1 .5-1.6.5v.1c.6.2 1.1.6 1.4 1 .3.6.4 1.1.3 1.8-.1.8-.5 1.4-1 1.8-.7.4-1.4.5-2.4.4-1-.2-1.7-.5-2.2-1.1a3 3 0 0 1-.7-2.3l1 .2c-.1.6 0 1.1.4 1.6.4.4 1 .7 1.6.8.7 0 1.2 0 1.7-.3.4-.3.6-.7.7-1.3.2-1.3-.6-2.2-2.6-2.5h-.3l.1-.8h.3c1.9.3 2.9-.1 3-1.3.1-.6 0-1-.2-1.4-.3-.3-.8-.6-1.4-.7-.6 0-1.2 0-1.6.3a2 2 0 0 0-1 1.2l-.8-.2Zm7 8.6a.7.7 0 0 1-.4-.3.7.7 0 0 1-.1-.5c0-.2.1-.4.3-.5l.5-.1c.2 0 .3.1.4.3l.2.5c0 .2-.2.3-.3.5h-.5Zm3.1-8.6.1-.9 2.3.4-1.5 9.6-1-.1 1.4-8.8-1.3-.2Zm4 2.3c.3-.8.7-1.4 1.3-1.8.7-.4 1.4-.5 2.4-.3.6 0 1 .2 1.4.5l.9 1c.1.5.2.9.1 1.4 0 .5-.3 1-.7 1.3-.4.4-1 .6-1.5.6.6.3 1 .6 1.3 1.1.3.5.4 1.1.3 1.8 0 .8-.5 1.3-1 1.8-.6.4-1.4.5-2.4.3-1-.1-1.7-.5-2.2-1a3 3 0 0 1-.7-2.3l1 .1c0 .7 0 1.2.5 1.6.3.5.8.7 1.5.8.7.1 1.3 0 1.7-.3.4-.3.7-.7.7-1.2.3-1.4-.6-2.2-2.6-2.5h-.3l.2-.9h.3c1.8.4 2.8-.1 3-1.3 0-.5 0-1-.3-1.3-.3-.4-.8-.6-1.4-.7-.6-.1-1.1 0-1.6.2a2 2 0 0 0-1 1.2l-.8-.1Zm7.8.7c0-.5.3-1 .7-1.3.4-.3.9-.4 1.4-.3.6.1 1 .4 1.3.8.3.4.4.9.3 1.4 0 .6-.3 1-.7 1.4-.4.3-1 .4-1.5.3-.5-.1-1-.4-1.2-.8a2 2 0 0 1-.3-1.5Zm7.8-.6-7 8.6-1-.2 7-8.5 1 .1Zm-5.8-.4a1 1 0 0 0-.8.2c-.3.2-.4.5-.5 1 0 .4 0 .7.2 1 .1.3.4.4.7.5.4 0 .7 0 .9-.2l.5-1c0-.4 0-.7-.2-1a1 1 0 0 0-.8-.5Zm1.9 7.6c0-.5.3-1 .7-1.3.4-.3 1-.4 1.5-.3.5 0 1 .3 1.2.8.3.4.4.9.3 1.4 0 .6-.3 1-.7 1.4-.4.3-1 .4-1.5.3-.5-.1-1-.4-1.2-.8a2 2 0 0 1-.3-1.5Zm2-1a1 1 0 0 0-.8.2c-.3.2-.4.5-.5 1 0 .4 0 .7.2 1 .1.2.4.4.7.5.4 0 .7 0 .9-.3.2-.2.4-.5.5-.9 0-.4 0-.7-.2-1a1 1 0 0 0-.7-.5Z"
    fill="#FF68F0" />
  <rect x="356.7" y="62.6" width="48.6" height="28.2" rx="14.1" transform="rotate(9 356.7 62.6)" stroke="#484359"
    stroke-width=".6" />
  <path
    d="m370.6 75.7-.1.9-1.7-.3-.8 5.4-1-.2.8-5.3-1.7-.3.2-.8 4.3.6Zm1.5 1a.6.6 0 0 1-.5-.3.6.6 0 0 1-.1-.5c0-.2.1-.4.3-.5h.5c.1 0 .3 0 .4.2l.1.5c0 .2-.1.3-.3.4-.1.1-.3.2-.4.1Zm.4.7-.8 4.9-1-.2.7-4.9 1 .2Zm.6 2.6c0-.5.2-1 .5-1.3.2-.4.6-.6 1-.8.4-.1.8-.2 1.3 0 .6 0 1 .2 1.4.6.3.3.5.8.6 1.3l-1.1-.2-.3-.6c-.2-.2-.5-.3-.8-.3-.4 0-.7 0-1 .3-.3.2-.5.6-.6 1.1 0 .6 0 1 .2 1.3.2.4.5.6 1 .7.5 0 1-.1 1.2-.6l1.1.1c-.2.5-.5.9-1 1.1-.4.2-1 .3-1.5.2-.5 0-.9-.2-1.2-.5-.4-.3-.6-.6-.7-1-.2-.4-.2-1-.1-1.4Zm7.6 1.2 2 2.8-1.5-.2-1.5-2.4-.3 2.1-1-.1 1-6.7 1 .2-.6 3.8L382 79l1.4.2-2.7 2.1ZM392 81.3l-2.8-.4c-.2 0-.4.2-.3.5l1.2 1.8c0 .2.2.2.4 0L392 82c.2-.2.2-.5 0-.6Z"
    fill="#9990B0" />
  <g clip-path="url(#a)">
    <g clip-path="url(#b)">
      <path opacity=".5" stroke="#484359" stroke-width=".6" stroke-dasharray="4.17 4.17" d="M360.7 110.4 62.5 63.2" />
      <path
        d="M375.3 114.6c0 .2-.1.5-.3.7-.1.2-.3.3-.6.4-.3.1-.6.2-.9.1l-.1.7h-.3v-.7c-.4-.1-.8-.3-1-.7-.3-.3-.4-.6-.3-1h.6c0 .3 0 .5.2.8.1.2.3.3.6.4l.4-2.1-.8-.5c-.2 0-.4-.3-.5-.5-.1-.2-.1-.5 0-.8 0-.4.2-.7.5-1 .3-.2.7-.3 1.2-.2l.1-.7h.4l-.1.8c.4 0 .7.3 1 .5.2.3.3.7.3 1h-.6c0-.3 0-.5-.2-.7a1 1 0 0 0-.6-.4l-.3 2.1.8.4.4.6c.2.2.2.5.1.8Zm-2.5-3.1.1.7.7.5.4-2-.8.1c-.3.1-.4.4-.4.7Zm.8 3.9c.3 0 .6 0 .8-.2l.4-.7c0-.3 0-.5-.2-.7-.1-.2-.4-.3-.7-.5l-.3 2.1Zm3.2-4.3.1-.5 1.3.2-.9 5.6h-.5l.8-5.2-.8-.1Zm2 5.6-.3-.2v-.3a.4.4 0 0 1 .4-.3l.3.1v.3l-.1.3h-.3Zm2.7-2.6-.6-.6c-.2-.3-.2-.6-.2-.9 0-.3.2-.5.4-.7.2-.2.4-.4.7-.4h1c.4 0 .7.1 1 .3a1.4 1.4 0 0 1 .2 2.2c-.2.2-.4.3-.8.3.4.2.6.4.8.7.1.3.2.6.1 1 0 .3-.1.6-.3.8-.2.2-.5.4-.8.4h-1.1c-.4 0-.7-.1-1-.3-.3-.2-.5-.4-.6-.7-.2-.2-.2-.5-.1-.9 0-.3.2-.6.4-.9.3-.2.6-.3 1-.3Zm2.4-1c0-.3 0-.6-.2-.8-.2-.2-.5-.4-1-.4l-1 .1c-.2.2-.4.4-.4.8 0 .3 0 .6.2.8.2.2.5.4 1 .4l.9-.1c.3-.2.4-.4.5-.7Zm-1.6 1.3c-.4 0-.8 0-1 .2-.4.1-.5.4-.6.8 0 .4 0 .7.3 1 .2.2.5.4 1 .4l1-.1c.4-.2.5-.5.6-.9 0-.3 0-.7-.3-.9-.2-.2-.5-.4-1-.5Zm3.5 1.8c0 .4.1.6.3.9l.8.4c.5 0 .9-.1 1.2-.4.3-.4.5-1 .6-1.9-.1.3-.4.5-.7.6h-1c-.5 0-1-.2-1.2-.6-.3-.4-.4-.9-.3-1.5 0-.3.2-.6.4-.9l.7-.6a2 2 0 0 1 1 0c.8 0 1.3.4 1.5 1 .2.5.2 1.2.1 2-.2 1-.4 1.8-.8 2.2-.4.5-.9.6-1.6.5-.5 0-.9-.3-1.1-.6-.3-.3-.4-.7-.4-1.2l.5.1Zm1.4-.8h.7a1.2 1.2 0 0 0 .9-1c0-.5 0-.9-.2-1.2-.2-.3-.6-.5-1-.6-.4 0-.8 0-1 .3-.3.2-.5.5-.6.9 0 .4 0 .8.2 1 .2.4.6.6 1 .6Zm5.6 3.4-2-2.9-.4 2.6-.5-.1.9-5.5h.5l-.4 2.7 2.8-2.2h.7l-3 2.4 2.1 3.2-.7-.2Z"
        fill="#9990B0" />
      <path opacity=".5" stroke="#484359" stroke-width=".6" stroke-dasharray="4.17 4.17" d="M356.2 139 58 92" />
      <path
        d="M370.8 143.2c0 .3-.1.5-.3.7l-.6.5h-1v.7h-.4l.1-.7c-.4 0-.8-.3-1-.6-.3-.3-.4-.7-.3-1h.5c0 .3 0 .5.2.7l.7.5.3-2.2-.8-.4-.4-.5c-.1-.3-.2-.5-.1-.9 0-.4.2-.7.6-1l1.2-.2.1-.6h.4l-.2.7c.5.1.8.3 1 .6.2.3.4.6.3 1l-.5-.1-.2-.6a1 1 0 0 0-.6-.4l-.4 2 .8.5.5.5c.1.2.2.5.1.8Zm-2.6-3c0 .2 0 .4.2.6l.7.5.3-2-.8.1-.4.7Zm.8 3.8c.4 0 .6 0 .9-.2.2-.1.3-.3.3-.6.1-.3 0-.6-.1-.7l-.7-.5-.4 2Zm3.3-4.3v-.5l1.4.2-.9 5.6h-.5l.8-5.2-.8-.1Zm2 5.6c-.2 0-.3 0-.3-.2l-.1-.3a.4.4 0 0 1 .5-.3s.2 0 .2.2v.5l-.4.1Zm2.7-2.6c-.3-.1-.5-.3-.7-.6v-.9c0-.2 0-.5.2-.7l.8-.4h1c.4 0 .7.1 1 .3a1.4 1.4 0 0 1 .6 1.4 1.3 1.3 0 0 1-1.2 1.2c.3.1.6.3.8.6.1.3.2.6.1 1 0 .3-.2.6-.4.8-.2.2-.4.4-.8.5h-1c-.4 0-.8-.2-1-.3l-.7-.7v-1a1.4 1.4 0 0 1 1.3-1.2Zm2.4-.9c0-.3 0-.6-.3-.8-.2-.3-.5-.4-.9-.5-.4 0-.7 0-1 .2-.2.1-.4.3-.5.7 0 .3 0 .6.3.8.2.3.5.4.9.5.4 0 .7 0 1-.2.2-.1.4-.4.5-.7Zm-1.6 1.3-1 .1c-.4.2-.6.4-.6.8s0 .7.2 1l1 .5c.5 0 .9 0 1.1-.2.3-.2.5-.4.6-.8 0-.4 0-.7-.3-1-.2-.2-.6-.3-1-.4Zm3.5 1.7c0 .4.1.7.3.9l.8.4c.5 0 .9 0 1.2-.4.3-.3.5-1 .6-1.9-.2.3-.4.5-.7.6-.3.1-.6.2-1 .1-.5 0-1-.3-1.2-.7-.3-.4-.4-.8-.3-1.4 0-.4.2-.7.3-1l.8-.5a2 2 0 0 1 1 0c.8 0 1.2.3 1.5.9.2.5.2 1.2 0 2.1 0 1-.3 1.7-.7 2.2-.4.4-1 .6-1.6.5-.5-.1-1-.3-1.2-.6l-.3-1.2h.5Zm1.4-.7h.7a1.2 1.2 0 0 0 .8-1.1c.1-.5 0-.8-.2-1.2-.2-.3-.5-.5-1-.5-.3 0-.7 0-1 .2-.2.2-.4.5-.5 1 0 .4 0 .7.2 1 .2.3.5.5 1 .6Zm5.6 3.4-2-3-.4 2.6h-.5l.8-5.6.6.1-.4 2.6 2.7-2.2.7.1-3 2.3 2.2 3.2-.7-.1Z"
        fill="#9990B0" />
      <path opacity=".5" stroke="#484359" stroke-width=".6" stroke-dasharray="4.17 4.17" d="M351.7 167.7 53.4 120.5" />
      <path
        d="m366.3 171.9-.3.7-.6.4c-.3.1-.6.2-1 .1v.7l-.4-.1v-.6l-1-.7c-.2-.3-.3-.6-.3-1h.6c0 .3 0 .5.2.8.1.2.4.3.7.4l.3-2.2a6 6 0 0 1-.8-.4l-.5-.5c0-.2-.1-.5 0-.8 0-.4.2-.7.5-1 .4-.2.8-.3 1.3-.2v-.7h.4v.7c.3.2.7.3.9.6.2.3.3.6.3 1h-.6c0-.3 0-.5-.2-.7a1 1 0 0 0-.6-.4l-.3 2.1.8.4.5.5v.9Zm-2.6-3.2c0 .3 0 .6.2.8l.7.4.3-2c-.3 0-.6 0-.8.2-.2.1-.3.3-.4.6Zm.8 4c.3 0 .6 0 .8-.2.2-.2.4-.4.4-.7l-.1-.7-.8-.5-.3 2Zm3.3-4.4v-.5l1.4.3-1 5.6-.5-.1.8-5.1-.7-.2Zm2 5.6-.4-.1v-.3l.1-.3h.3l.3.1v.3l-.1.3h-.3Zm2.7-2.5c-.3-.2-.6-.4-.7-.7-.1-.2-.2-.5-.1-.8 0-.3.1-.5.3-.7l.7-.5h1c.4 0 .8.2 1 .4a1.4 1.4 0 0 1 .3 2.1c-.2.2-.5.4-.8.4.3.2.6.4.7.7.2.2.2.6.2 1 0 .3-.2.5-.4.8l-.8.4h-1c-.5 0-.8-.1-1-.3-.4-.2-.6-.4-.7-.7v-.9a1.4 1.4 0 0 1 1.3-1.2Zm2.3-1c0-.3 0-.6-.2-.8-.2-.2-.5-.4-1-.4h-1l-.4.8c0 .4 0 .6.2.9l1 .4 1-.1c.2-.2.4-.4.4-.8Zm-1.5 1.3c-.4 0-.8 0-1.1.2-.3.1-.5.4-.6.8 0 .3 0 .7.3 1 .2.2.6.3 1 .4l1.1-.1c.3-.2.5-.5.5-.9.1-.4 0-.7-.2-1l-1-.4Zm3.5 1.8c0 .3 0 .6.2.8.2.2.5.4.8.4.5.1 1 0 1.2-.4.3-.3.5-1 .7-1.8l-.7.6h-1c-.6 0-1-.3-1.3-.6-.2-.4-.3-.9-.2-1.5l.3-.9c.2-.3.4-.5.7-.6a2 2 0 0 1 1 0c.8 0 1.3.4 1.5 1 .2.4.3 1.2.1 2-.1 1-.4 1.8-.7 2.2-.4.4-1 .6-1.7.5-.5 0-.9-.3-1-.6-.3-.3-.4-.7-.4-1.2h.5Zm1.3-.8h.7a1.2 1.2 0 0 0 1-1c0-.5 0-.9-.3-1.2-.2-.3-.5-.5-1-.6-.4 0-.7 0-1 .2-.3.2-.4.6-.5 1 0 .4 0 .8.2 1 .2.4.5.5 1 .6Zm5.7 3.4-2-2.9-.4 2.5h-.6l.9-5.5h.5l-.4 2.6 2.8-2.2.7.2-3 2.3 2.2 3.1h-.7Z"
        fill="#9990B0" />
      <path opacity=".5" stroke="#484359" stroke-width=".6" stroke-dasharray="4.17 4.17" d="M347.2 196.4 48.9 149.2" />
      <path
        d="M361.7 200.5c0 .3-.1.5-.3.7-.1.2-.3.4-.6.5h-.9v.7h-.4v-.7c-.4-.1-.7-.3-1-.6-.2-.3-.3-.7-.3-1h.6c0 .2 0 .5.2.7.1.2.3.4.6.4l.4-2.1-.8-.4c-.2-.2-.4-.3-.5-.6-.1-.2-.1-.4 0-.8 0-.4.2-.7.5-1 .3-.2.8-.2 1.2-.2l.1-.6h.4l-.1.7c.4 0 .7.3 1 .6.2.3.3.6.3 1l-.6-.1c0-.2 0-.4-.2-.6a1 1 0 0 0-.6-.4l-.3 2 .8.5c.2 0 .3.3.4.5.2.2.2.5.1.8Zm-2.5-3.1.1.7.8.5.3-2-.8.1a1 1 0 0 0-.4.7Zm.8 4c.3 0 .6-.1.8-.3.2-.1.3-.4.4-.6 0-.3 0-.6-.2-.8l-.7-.5-.3 2.1Zm3.2-4.4.1-.5 1.3.2-.9 5.6h-.5l.8-5.2-.8-.1Zm2 5.6c-.1 0-.2 0-.3-.2v-.3l.1-.3h.3l.3.1v.3l-.1.3h-.3Zm2.7-2.6-.6-.6c-.2-.3-.2-.6-.1-.9 0-.3.1-.5.3-.7l.7-.4h1c.4 0 .7.1 1 .3.3.2.4.4.5.6.2.3.2.5.1.8a1.3 1.3 0 0 1-1.2 1.2c.4.1.6.3.8.6.2.3.2.6.2 1l-.4.8-.8.5h-1.1c-.4 0-.7-.2-1-.4-.3-.1-.5-.4-.6-.6-.1-.3-.2-.6-.1-1 0-.3.2-.6.4-.8.3-.2.6-.4 1-.4Zm2.4-1c0-.3 0-.5-.2-.8-.2-.2-.5-.3-1-.4l-1 .1c-.2.2-.4.4-.4.8 0 .3 0 .6.2.8.2.2.5.4 1 .4h1l.4-.8Zm-1.5 1.4h-1.1c-.3.2-.5.5-.6 1 0 .3 0 .6.3.9.2.2.5.4 1 .4.4.1.8 0 1-.1.4-.2.6-.5.6-.8 0-.4 0-.7-.3-1-.2-.2-.5-.4-1-.4Zm3.4 1.7c0 .4.1.7.3.9l.8.4c.5 0 .9 0 1.2-.4.3-.4.5-1 .6-1.9-.1.3-.3.5-.7.6-.3.1-.6.2-1 .1-.5 0-1-.3-1.2-.7-.3-.4-.4-.9-.3-1.4 0-.4.2-.7.4-1l.7-.5a2 2 0 0 1 1-.1c.8.1 1.3.4 1.5 1 .2.5.3 1.2.1 2.1-.1 1-.4 1.7-.8 2.1-.3.5-.9.7-1.6.5-.5 0-.9-.2-1.1-.6-.3-.3-.4-.7-.4-1.2l.5.1Zm1.4-.8h.7a1.2 1.2 0 0 0 .9-1c0-.5 0-.9-.2-1.2-.2-.3-.5-.5-1-.5-.4-.1-.7 0-1 .2-.3.2-.5.5-.5 1-.1.4 0 .7.1 1 .3.3.6.5 1 .5Zm5.6 3.5-2-3-.4 2.6-.5-.1.9-5.5.5.1-.4 2.6 2.8-2.2.7.1-3 2.3 2.1 3.2-.7-.1Z"
        fill="#9990B0" />
      <path opacity=".5" stroke="#484359" stroke-width=".6" stroke-dasharray="4.17 4.17" d="M342.6 225 44.3 177.8" />
      <path
        d="m357.2 229.2-.3.6c-.1.2-.3.4-.6.5l-1 .1v.6h-.4l.1-.7c-.4 0-.8-.3-1-.6-.3-.3-.4-.7-.3-1h.6l.1.7.7.5.3-2.2-.8-.4-.4-.5c-.1-.2-.2-.5-.1-.8 0-.4.2-.8.6-1 .3-.2.7-.3 1.2-.2l.1-.7h.4l-.1.7c.4.1.7.3 1 .6.2.3.3.6.3 1l-.6-.1-.2-.6a1 1 0 0 0-.6-.4l-.3 2 .7.5.5.5c.1.2.2.5.1.9Zm-2.6-3.2c0 .3 0 .6.2.7l.7.5.3-2c-.3 0-.5 0-.8.2-.2.1-.3.3-.4.6Zm.8 4c.4 0 .7 0 .9-.2l.4-.7c0-.3 0-.5-.2-.7l-.7-.5-.4 2Zm3.3-4.4v-.5l1.4.2-.9 5.7-.5-.1.8-5.2h-.8Zm2 5.6-.3-.1v-.6c.2 0 .3-.1.4 0h.2l.1.4s0 .2-.2.3h-.3Zm2.7-2.6c-.3-.1-.5-.3-.7-.6 0-.2-.1-.5 0-.8 0-.3 0-.6.3-.7.1-.3.4-.4.7-.5h1c.4 0 .7.2 1 .3a1.4 1.4 0 0 1 .2 2.2c-.2.2-.5.4-.8.4l.8.6c.1.3.2.7.1 1 0 .3-.2.6-.4.8-.2.3-.4.4-.8.5h-1c-.4 0-.8-.1-1-.3l-.7-.7v-1a1.4 1.4 0 0 1 1.3-1.2Zm2.4-.9c0-.3 0-.6-.3-.8-.2-.2-.5-.4-.9-.5-.4 0-.7 0-1 .2-.2.1-.4.4-.5.7 0 .3 0 .6.3.8.2.3.5.4.9.5.4 0 .7 0 1-.2.3-.1.4-.3.5-.7Zm-1.6 1.3-1 .1c-.4.2-.6.5-.6.8 0 .4 0 .7.2 1 .3.3.6.4 1 .5.5 0 .9 0 1.2-.2.3-.1.4-.4.5-.8 0-.4 0-.7-.3-1-.2-.2-.5-.3-1-.4Zm3.5 1.8c0 .3.1.6.3.8.2.2.4.4.8.4.5.1.9 0 1.2-.4.3-.3.5-1 .6-1.8l-.7.6h-1c-.5 0-1-.3-1.2-.7-.3-.3-.4-.8-.3-1.4 0-.4.2-.7.3-1l.8-.5a2 2 0 0 1 1 0c.8 0 1.3.4 1.5.9.2.5.2 1.2 0 2.1 0 1-.3 1.7-.7 2.2-.4.4-1 .6-1.6.5-.5-.1-1-.3-1.2-.6-.2-.4-.3-.7-.3-1.2h.5Zm1.4-.8h.7a1.2 1.2 0 0 0 .8-1.1c.1-.4 0-.8-.2-1.1-.1-.3-.5-.5-1-.6-.3 0-.7 0-1 .2-.2.2-.4.5-.5 1 0 .4 0 .8.2 1 .2.3.5.5 1 .6Zm5.6 3.4-2-2.9-.4 2.5h-.5l.8-5.5h.6l-.4 2.6 2.8-2.2.7.1-3 2.4 2.1 3.1h-.7Z"
        fill="#9990B0" />
      <path opacity=".5" stroke="#D2FFFE" stroke-width=".6" stroke-dasharray="4.17 4.17" d="M338.1 253.6 39.8 206.5" />
      <path
        d="M352.7 257.8c0 .3-.2.5-.3.7l-.6.4c-.3.2-.6.2-1 .1v.7h-.4l.1-.7c-.5-.1-.8-.3-1-.6-.3-.4-.4-.7-.4-1.1h.6c0 .3 0 .6.2.8.1.2.4.3.7.4l.3-2.1-.8-.5c-.2 0-.3-.3-.5-.5 0-.2-.1-.5 0-.8 0-.4.2-.7.5-1 .4-.2.8-.3 1.3-.2v-.7l.4.1v.7c.4 0 .7.3.9.6.2.2.3.6.3 1l-.6-.2c0-.2 0-.4-.2-.6a1 1 0 0 0-.5-.4l-.4 2.1.8.4c.2.2.4.3.5.6.1.2.1.5 0 .8Zm-2.6-3.1c0 .3 0 .5.2.7.1.2.4.3.7.5l.3-2-.8.1c-.2.1-.3.4-.4.7Zm.8 3.9c.4 0 .6 0 .8-.2.3-.2.4-.4.4-.7l-.1-.7-.8-.5-.3 2.1Zm3.3-4.3v-.5l1.4.2-1 5.6h-.5l.8-5.2-.7-.1Zm2 5.6-.4-.2v-.3a.4.4 0 0 1 .4-.3l.3.1v.6h-.4Zm2.7-2.6-.7-.6c-.1-.3-.2-.6-.1-.9 0-.3.2-.5.3-.7.2-.2.4-.4.7-.4h1c.5 0 .8.1 1 .3a1.4 1.4 0 0 1 .7 1.4c0 .3-.2.6-.4.8-.2.2-.5.3-.8.3.3.2.6.4.7.7.2.3.3.6.2 1a1.6 1.6 0 0 1-1.2 1.3h-1c-.5 0-.8-.2-1-.4-.4-.2-.6-.4-.7-.7v-.9a1.4 1.4 0 0 1 1.3-1.2Zm2.3-1c0-.3 0-.6-.2-.8-.2-.2-.5-.4-.9-.4l-1 .1c-.3.2-.4.4-.5.8 0 .3 0 .6.3.8.2.2.5.4.9.4l1-.1c.2-.2.4-.4.4-.7Zm-1.5 1.4h-1.1c-.3.2-.5.5-.5.9-.1.4 0 .7.2 1 .2.2.6.4 1 .4.5.1.8 0 1.1-.1.3-.2.5-.5.6-.8 0-.4 0-.7-.3-1-.2-.2-.6-.4-1-.4Zm3.5 1.7c0 .4 0 .6.3.9.1.2.4.3.8.4.4 0 .8 0 1.1-.4.3-.4.5-1 .7-1.9-.2.3-.4.5-.7.6h-1c-.6 0-1-.2-1.3-.6-.2-.4-.3-.9-.2-1.5l.3-.9.7-.5a2 2 0 0 1 1.1-.1c.7 0 1.2.4 1.4 1 .3.5.3 1.2.1 2-.1 1-.4 1.8-.7 2.2-.4.5-1 .6-1.6.5-.6 0-1-.3-1.2-.6-.2-.3-.3-.7-.3-1.2l.5.1Zm1.3-.8h.7a1.2 1.2 0 0 0 1-1c0-.5 0-.9-.3-1.2-.2-.3-.5-.5-1-.6-.4 0-.7 0-1 .3-.3.2-.4.5-.5.9 0 .4 0 .8.2 1 .2.4.5.6 1 .6Zm5.7 3.4-2-2.9-.4 2.6-.6-.1.9-5.5.6.1-.5 2.6 2.8-2.2h.7l-3 2.4 2.2 3.2-.7-.2Z"
        fill="#9990B0" />
      <path opacity=".5" stroke="#484359" stroke-width=".6" stroke-dasharray="4.17 4.17" d="M333.6 282.3 35.3 235" />
      <path
        d="M348.1 286.4c0 .3 0 .5-.2.7l-.7.5h-.9v.7h-.4v-.7c-.4 0-.7-.3-1-.6-.2-.3-.3-.7-.3-1h.6c0 .3 0 .5.2.7.1.2.3.4.6.5l.4-2.2-.8-.4-.5-.5v-.9c0-.4.2-.7.5-.9.3-.2.8-.3 1.3-.3v-.6h.4l-.1.7c.4.1.8.3 1 .6.2.3.3.6.3 1l-.6-.1c0-.2 0-.4-.2-.6a1 1 0 0 0-.6-.4l-.3 2 .8.5.5.5c0 .2.1.5 0 .8Zm-2.5-3 .1.6c.2.2.4.4.8.5l.3-2-.8.1c-.2.2-.4.4-.4.7Zm.8 3.8.8-.1c.2-.2.4-.4.4-.7 0-.3 0-.6-.2-.7-.1-.2-.4-.4-.7-.5l-.3 2Zm3.2-4.3.1-.5 1.3.2-.8 5.6h-.6l.8-5.2h-.8Zm2 5.6c-.1 0-.2 0-.3-.2v-.3l.1-.2.3-.1c.1 0 .2 0 .3.2v.3l-.1.2-.3.1Zm2.8-2.6c-.4-.1-.6-.3-.7-.6-.1-.2-.2-.5-.1-.8 0-.3.1-.6.3-.8l.7-.4h1c.4 0 .7.1 1 .3a1.4 1.4 0 0 1 .3 2.2c-.2.2-.5.3-.9.4.4.1.6.3.8.6.2.3.2.6.2 1 0 .3-.2.6-.4.8-.2.3-.5.4-.8.5h-1c-.5 0-.8-.2-1.1-.3-.3-.2-.5-.4-.6-.7-.1-.3-.2-.6-.1-1 0-.3.2-.6.4-.8l1-.4Zm2.3-.9c0-.3 0-.6-.2-.8-.2-.3-.5-.4-1-.5-.3 0-.7 0-1 .2-.2.1-.4.3-.4.7 0 .3 0 .6.2.8.2.3.5.4 1 .5.3 0 .7 0 1-.2.2-.1.4-.4.4-.7Zm-1.5 1.3-1.1.1c-.3.2-.5.4-.6.8 0 .4 0 .7.3 1 .2.2.5.4 1 .5.4 0 .8 0 1-.2.4-.2.6-.4.6-.8s0-.7-.2-1l-1-.4Zm3.5 1.8c0 .3 0 .6.2.8l.8.4c.5 0 1 0 1.2-.4.3-.3.5-1 .6-1.9-.1.3-.3.5-.6.6-.3.2-.7.2-1 .1-.6 0-1-.3-1.3-.7-.3-.4-.4-.8-.3-1.4 0-.4.2-.7.4-1l.7-.5a2 2 0 0 1 1 0c.8 0 1.3.4 1.5.9.2.5.3 1.2.1 2.1-.1 1-.4 1.7-.8 2.2-.3.4-.9.6-1.6.5-.5-.1-.9-.3-1.1-.6-.3-.4-.4-.8-.4-1.2h.6Zm1.3-.8h.7a1.2 1.2 0 0 0 .9-1.1c0-.5 0-.8-.2-1.1-.2-.4-.5-.6-1-.6-.4 0-.7 0-1 .2-.3.2-.5.5-.5 1-.1.4 0 .7.2 1 .2.3.5.5 1 .6Zm5.6 3.4-2-3-.3 2.6h-.6l.9-5.6.5.1-.4 2.6 2.8-2.2.7.1-3 2.4 2.2 3.1-.8-.1Z"
        fill="#9990B0" />
      <path opacity=".5" stroke="#484359" stroke-width=".6" stroke-dasharray="4.17 4.17" d="M329 311 30.7 263.6" />
      <path
        d="M343.6 315c0 .3-.1.6-.3.8-.1.2-.3.3-.6.4-.3.1-.6.2-1 .1v.7l-.4-.1.1-.6c-.4-.1-.8-.4-1-.7-.3-.3-.4-.6-.3-1h.6l.1.8.7.4.4-2.2-.8-.4-.5-.5c-.1-.2-.2-.5-.1-.8 0-.4.3-.7.6-1 .3-.2.7-.3 1.2-.2l.1-.7h.4l-.1.7 1 .6c.2.3.3.6.3 1h-.6c0-.3 0-.5-.2-.7a1 1 0 0 0-.6-.4l-.3 2.1.7.4c.3.1.4.3.5.5.1.3.2.5.1.9Zm-2.5-3 .1.7.7.4.4-2c-.4 0-.6 0-.9.2-.2.1-.3.3-.3.7Zm.8 3.9c.3 0 .6 0 .8-.2l.4-.7c0-.3 0-.5-.2-.7l-.7-.5-.3 2Zm3.2-4.4v-.4l1.4.2-.9 5.6-.5-.1.8-5.1-.8-.2Zm2 5.6-.3-.1v-.3a.4.4 0 0 1 .4-.4l.2.2.1.3-.1.3h-.3Zm2.7-2.5c-.3-.2-.5-.4-.6-.7-.2-.2-.2-.5-.2-.8a1.4 1.4 0 0 1 1-1.2h1.1c.4 0 .7.2 1 .4a1.4 1.4 0 0 1 .2 2.1c-.2.3-.4.4-.8.4.4.2.6.4.8.7.1.3.2.6.1 1 0 .3-.1.5-.4.8l-.7.4h-1.1c-.4 0-.8-.1-1-.3-.3-.2-.5-.4-.6-.7-.2-.3-.2-.6-.1-.9a1.4 1.4 0 0 1 1.3-1.2Zm2.4-1c0-.3 0-.6-.3-.8-.2-.2-.5-.4-.9-.4-.4-.1-.7 0-1 .1-.2.1-.4.4-.4.7 0 .4 0 .6.2.9.2.2.5.4.9.4l1-.1c.3-.2.4-.4.5-.7Zm-1.6 1.3c-.4 0-.8 0-1 .2-.4.1-.5.4-.6.8 0 .3 0 .7.2 1l1 .4 1.2-.1c.3-.2.4-.5.5-.9 0-.4 0-.7-.3-.9-.2-.2-.5-.4-1-.5Zm3.5 1.8c0 .3.1.6.3.8.2.3.4.4.8.4.5.1.9 0 1.2-.4.3-.3.5-1 .6-1.8-.1.3-.4.5-.7.6h-1c-.5 0-1-.3-1.2-.6-.3-.4-.4-.9-.3-1.5 0-.3.2-.6.4-.9.1-.3.4-.4.7-.6a2 2 0 0 1 1 0c.8 0 1.3.4 1.5 1 .2.5.2 1.2 0 2 0 1-.3 1.8-.7 2.2-.4.4-.9.6-1.6.5-.5 0-.9-.3-1.1-.6-.3-.3-.4-.7-.4-1.2h.5Zm1.4-.8h.7a1.2 1.2 0 0 0 .9-1c0-.5 0-.9-.2-1.2-.2-.3-.6-.5-1-.6-.4 0-.8 0-1 .2-.3.3-.5.6-.6 1 0 .4 0 .8.2 1 .2.4.6.5 1 .6Zm5.6 3.4-2-2.9-.4 2.6-.5-.1.8-5.5h.6l-.4 2.6 2.8-2.1h.7l-3 2.4 2.1 3.1h-.7Z"
        fill="#9990B0" />
      <path opacity=".5" stroke="#484359" stroke-width=".6" stroke-dasharray="4.17 4.17" d="M324.5 339.6 26.2 292.4" />
      <path
        d="M339 343.7c0 .3 0 .5-.2.7l-.6.5h-1v.7h-.4l.1-.7c-.4-.1-.8-.3-1-.6-.3-.3-.4-.7-.4-1h.6c0 .2 0 .5.2.7l.7.5.3-2.2-.8-.4-.4-.5c-.2-.3-.2-.5-.1-.9 0-.4.2-.7.6-1l1.2-.2.1-.6h.3v.7c.4.1.7.3 1 .6l.2 1-.5-.1-.3-.6a1 1 0 0 0-.5-.4l-.4 2 .8.5c.2 0 .4.3.5.5.1.2.1.5 0 .8Zm-2.5-3.1c0 .3 0 .5.2.7.1.2.4.3.7.5l.3-2-.8.1a1 1 0 0 0-.4.7Zm.8 4c.4 0 .6-.1.8-.3.3-.1.4-.4.4-.6l-.1-.8-.7-.5-.4 2.1Zm3.3-4.4v-.5l1.4.2-.9 5.6h-.6l.9-5.2-.8-.1Zm2 5.6c-.2 0-.3 0-.3-.2l-.1-.3.1-.2.4-.1.2.1v.6c-.2 0-.3.1-.4 0Zm2.7-2.6-.7-.6v-.9c0-.2 0-.5.2-.7l.8-.4h1c.4 0 .7.1 1 .3a1.4 1.4 0 0 1 .6 1.4 1.3 1.3 0 0 1-1.2 1.2c.3.1.6.3.7.6.2.3.3.6.2 1 0 .3-.2.6-.4.8-.2.2-.4.4-.8.5h-1c-.4 0-.8-.2-1-.4-.3-.1-.5-.4-.7-.6v-1a1.4 1.4 0 0 1 1.3-1.2Zm2.3-.9c.1-.4 0-.6-.2-.9-.2-.2-.5-.3-.9-.4l-1 .1c-.3.2-.4.4-.5.8 0 .3 0 .6.3.8.2.2.5.4.9.5.4 0 .7 0 1-.2.2-.1.4-.4.4-.7Zm-1.5 1.3-1 .1c-.4.2-.6.4-.6.8-.1.4 0 .7.2 1 .2.2.6.4 1 .4.5.1.8 0 1.1-.1.3-.2.5-.5.6-.8 0-.4 0-.7-.3-1-.2-.2-.6-.4-1-.4Zm3.5 1.7c0 .4 0 .7.3.9.1.2.4.3.8.4.5 0 .8 0 1.1-.4.3-.4.6-1 .7-1.9-.2.3-.4.5-.7.6-.3.1-.6.2-1 .1-.6 0-1-.3-1.2-.7-.3-.4-.4-.9-.3-1.4 0-.4.1-.7.3-1l.8-.5a2 2 0 0 1 1-.1c.8.1 1.2.4 1.4 1 .3.5.3 1.2.2 2.1-.2 1-.5 1.7-.8 2.1-.4.5-1 .7-1.6.5-.6 0-1-.2-1.2-.6-.2-.3-.3-.7-.3-1.1h.5Zm1.4-.7h.7a1.2 1.2 0 0 0 .8-1.1c.1-.5 0-.8-.2-1.2-.2-.3-.5-.5-1-.5-.3-.1-.7 0-1 .2-.3.2-.4.5-.5 1 0 .4 0 .7.2 1 .2.3.5.5 1 .6Zm5.6 3.4-2-3-.4 2.6h-.6l1-5.6.5.1-.4 2.6 2.7-2.2.7.1-3 2.3 2.2 3.2-.7-.1Z"
        fill="#9990B0" />
      <path opacity=".5" stroke="#484359" stroke-width=".6" stroke-dasharray="4.17 4.17" d="M320 368.2 21.7 321" />
    </g>
    <path
      d="M39.8 206.6a862.1 862.1 0 0 0 12.3-41.2c.1-.4.7-.5 1-.2l2 2.3c.1.3.6.2.8 0l3.4-4.3c.2-.4.9-.3 1 .2l2.4 11.6c.1.6 1 .6 1.1 0l4.8-18.1c.1-.5.8-.6 1-.1l1.2 2.4c.2.4.7.5 1 .1l2-2.5c.1-.3.6-.3.8 0l2.6 3 2.6 3.3c.3.4.9.3 1-.1l5.7-16.6c.2-.6 1-.5 1 0l2 11c0 .4.5.6.9.3l3.2-2.6c.3-.2.7-.1.8.2l4.6 10v.2l2.3 24.4c0 .6.8.7 1 .3l3.3-5.3c.2-.3.5-.4.8-.2l2.6 1.6h.5l1.2-.3c.2-.1.3-.2.3-.4l3.2-8.7c.1-.5.7-.6 1-.2h0c.2.3.6.3.9 0l.6-.7c.3-.3.7-.3 1 0l1 1.7c.2.4.8.3 1-.1l4.6-16.2c0-.5.6-.6 1-.3l2.5 3c.2.1.6.2.8 0l3-2c.4-.3.8-.2.9.2l4.4 11.2c.2.5.8.5 1 0l6-15.4c0-.3.4-.4.7-.3l2.5 1.1c.2.1.4.3.4.6l-1 18.1c-.1.7.8.9 1 .3l2.3-6.5v-.1l2.6-3.8v-.1l2-5.3.6-.3h2.2c.2 0 .4.3.5.5l1 3c0 .5.8.5 1 0L164 154l.2-.3 2.2-1.7h.7l1.5 1c.3.2.6.1.8-.2l5.6-12c.2-.4.9-.4 1 .1l.5 1.7c.1.3.4.4.7.3l.9-.2c.3-.1.7.1.7.5l.4 7.7c0 .3.4.6.8.5l2-.6c.4-.1.7.1.8.5l.2 7.6v.2l2.2 6.7v.1l1 12.7.4 5.5v.2l1.2 2.4v.3l-1.4 10.5c0 .6.8.9 1.1.3l1.4-2.5c.2-.4.7-.4 1-.2l.9 1.1c.2.3.6.2.9 0l4.6-6.6.1-.2 4.4-2.7h.6l2.1 1.6h.5l2.3-.7c.3 0 .6.1.7.5l3.6 19.8c0 .4.5.6.9.4l3.3-2.5c.4-.3.9 0 1 .4l2 14.4v.3l7.3 9c.2.2.6.2.8 0l5.4-5.7c.2-.3.7-.2.9.1l3.6 7.3c.2.2.5.4.7.3l4-1.6c.4 0 .8.2.8.6l.1 8.2"
      stroke="#5FF4AD" stroke-width="1.1" stroke-linecap="round" stroke-linejoin="round" />
    <path
      d="M40 205.7c3.6-10.2 10.6-35 12.1-40.3.1-.4.7-.5 1-.2l2 2.3c.1.3.6.2.8 0l3.4-4.3c.2-.4.9-.3 1 .2l2.4 11.6c.1.6 1 .6 1.1 0l4.8-18.1c.1-.5.8-.6 1-.1l1.2 2.4c.2.4.7.5 1 .1l2-2.5c.1-.3.6-.3.8 0l2.6 3 2.6 3.3c.3.4.9.3 1-.1l5.7-16.6c.2-.6 1-.5 1 0l2 11c0 .4.5.6.9.3l3.2-2.6c.3-.2.7-.1.8.2l4.6 10v.2l2.3 24.4c0 .6.8.7 1 .3l3.3-5.3c.2-.3.5-.4.8-.2l2.6 1.6h.5l1.2-.3c.2-.1.3-.2.3-.4l3.2-8.7c.1-.5.7-.6 1-.2.2.3.6.3.9 0l.6-.7c.3-.3.7-.3 1 0l1 1.7c.2.4.8.3 1-.1l4.6-16.2c0-.5.6-.6 1-.3l2.5 3c.2.1.6.2.8 0l3-2c.4-.3.8-.2.9.2l4.4 11.2c.2.5.8.5 1 0l6-15.4c0-.3.4-.4.7-.3l2.5 1.1c.2.1.4.3.4.6l-1 18.1c-.1.7.8.9 1 .3l2.3-6.5v-.1l2.6-3.8v-.1l2-5.3.6-.3h2.2c.2 0 .4.3.5.5l1 3c0 .5.8.5 1 0L164 154l.2-.3 2.2-1.7h.7l1.5 1c.3.2.6.1.8-.2l5.6-12c.2-.4.9-.4 1 .1l.5 1.7c.1.3.4.4.7.3l.9-.2c.3-.1.7.1.7.5l.4 7.7c0 .3.4.6.8.5l2-.6c.4-.1.7.1.8.5l.2 7.6v.2l2.2 6.7v.1l1 12.7.4 5.5v.2l1.2 2.4v.3l-1.4 10.5c0 .6.8.9 1.1.3l1.4-2.5c.2-.4.7-.4 1-.2l.9 1.1c.2.3.6.2.9 0l4.6-6.6.1-.2 4.4-2.7h.6l2.1 1.6h.5l2.3-.7c.3 0 .6.1.7.5l3.6 19.8c0 .4.5.6.9.4l3.3-2.5c.4-.3.9 0 1 .4l2 14.4v.3l7.3 9c.2.2.6.2.8 0l5.4-5.7c.2-.3.7-.2.9.1l3.6 7.3c.2.2.5.4.7.3l4-1.6c.4 0 .8.2.8.6l.2 7.2-201.2-31.9a.5.5 0 0 1-.4-.6Z"
      fill="url(#c)" />
    <path
      d="m334.8 285-4.3 2.2-2 1c-.3 0-.6-.1-.7-.4l-1.4-3.6a.6.6 0 0 0-.8-.3l-2.2 1.2c-.3.1-.6 0-.8-.3l-1.5-3.2a.6.6 0 0 0-1 0l-2.8 5c-.2.2-.5.3-.7.2l-.8-.3-.6.1-3.2 3.2c-.3.3-.9.1-1-.4l-.8-13-.2-.3-1.1-.9a.6.6 0 0 1-.3-.3l-1-5.2c0-.3-.1-.4-.3-.5l-3.9-1.1a.6.6 0 0 1-.3-.3l-2.3-3.2a.6.6 0 0 0-1 0l-6.8 14.5c-.3.5-1 .4-1 0l-1.1-3a.6.6 0 0 0-1-.2l-.8 1c-.3.3-.8.2-1-.2l-.2-.7a.6.6 0 0 0-1-.2l-4.9 4c-.2.2-.6.1-.8-.2l-1.6-2.8a.6.6 0 0 0-1 0l-2.3 3c-.3.3-1 .1-1-.4l-1-10.2c-.1-.4-.5-.6-.8-.5l-.8.2a.6.6 0 0 1-.7-.4l-.8-4.6c0-.4-.5-.6-.9-.4l-3.3 2c-.3.3-.8 0-.8-.4l-1.7-12.1c0-.2-.1-.3-.3-.4L260 250a.6.6 0 0 0-.5 0l-2.9 1.2c-.3.2-.5 0-.7-.2l-1.7-2.3a.6.6 0 0 0-.9 0l-2.4 4c-.2.2-.4.3-.7.2l-2-.8h-.6l-4.8 3c-.3.2-.8 0-.8-.5l-.5-16.2"
      stroke="#FF68F0" stroke-width="1.1" stroke-linecap="round" stroke-linejoin="round" />
    <path
      d="m242 255.7-.6-17.2 98.3 15.6-5 31-4.2 2.1-2.5 1.2-1.9-4.9-3.2 1.8-2.2-4.7-3.7 6.3-1.5-.5-4.3 4.3-1-14.5-1.5-1.1-1-5.8-4.5-1.3-3-4.2-7.8 16.6-1.8-5.3-2 2.5-1-2.3-6 5-2.4-4.2-3.7 4.7-1.4-12.3-2 .6-1-6-4.8 3-1.9-13.4-4.8-2.8-3.5 1.6-2.4-3.4-3.2 5-2.8-1-5.8 3.6Z"
      fill="url(#d)" />
    <ellipse cx="333.7" cy="285.6" rx="2.3" ry="2.2" transform="rotate(9 333.7 285.6)" fill="#FF68F0" />
    <rect x="341.1" y="278.2" width="27.2" height="14" rx="5.1" transform="rotate(9 341 278.2)" fill="#FF68F0" />
    <path
      d="M346 287.5c0 .3-.1.5-.3.7-.1.2-.3.4-.6.5h-1v.7h-.4l.1-.7c-.4-.1-.8-.3-1-.6-.3-.3-.4-.7-.3-1h.6c0 .3 0 .5.2.7 0 .2.3.4.6.5l.4-2.2-.8-.4-.5-.5-.1-.9c0-.4.3-.7.6-1l1.2-.2.1-.6h.4l-.1.7c.4.1.7.3 1 .6.2.3.3.6.3 1l-.6-.1c0-.2 0-.4-.2-.6a1 1 0 0 0-.6-.4l-.3 2 .8.5c.2 0 .3.3.4.5.1.2.2.5.1.8Zm-2.5-3.1.1.7.7.5.4-2-.8.1c-.3.2-.4.4-.4.7Zm.8 4c.3 0 .6-.1.8-.3.2-.1.3-.4.4-.6 0-.3 0-.6-.2-.7l-.7-.6-.3 2.1Zm3.2-4.4v-.5l1.4.2-.9 5.6h-.5l.8-5.2-.8-.1Zm2 5.6c-.2 0-.2 0-.3-.2v-.5l.4-.1.2.1.1.3-.1.3h-.3Zm2.7-2.6-.6-.6c-.2-.3-.2-.5-.2-.9l.4-.7.7-.4h1c.4 0 .7.1 1 .3a1.4 1.4 0 0 1 .2 2.2l-.8.4c.4.1.6.3.8.6.1.3.2.6.1 1 0 .3-.1.6-.3.8l-.8.5h-1.1c-.4 0-.7-.2-1-.4-.3-.1-.5-.4-.6-.6-.2-.3-.2-.6-.1-1 0-.3.2-.6.4-.8.3-.2.6-.4 1-.4Zm2.4-.9c0-.3 0-.6-.2-.9-.2-.2-.6-.3-1-.4l-1 .1c-.2.2-.4.4-.4.8 0 .3 0 .6.2.8.2.2.5.4 1 .5.3 0 .6 0 .9-.2.3-.1.4-.4.5-.7Zm-1.6 1.3-1 .1c-.4.2-.5.4-.6.8 0 .4 0 .7.2 1l1 .5c.5 0 .9 0 1.2-.2.3-.2.4-.5.5-.8 0-.4 0-.7-.3-1-.2-.2-.5-.4-1-.4Zm2.5 2.7c1.1-.6 2-1.1 2.6-1.6.6-.5 1-1 1-1.6l-.1-.9c-.2-.2-.4-.4-.8-.4-.4-.1-.8 0-1 .2-.3.2-.5.5-.5 1l-.6-.2c.1-.5.4-1 .8-1.2.3-.3.8-.4 1.3-.3.5 0 1 .3 1.2.6.3.3.4.8.3 1.3-.1.6-.5 1.2-1.1 1.7l-2.2 1.4 2.9.5-.1.5-3.7-.6v-.4Zm7.6 1.6-2-2.9-.4 2.5h-.5l.8-5.5h.6l-.4 2.6 2.8-2.2.7.1-3 2.4 2.1 3.1h-.7Z"
      fill="#fff" />
  </g>
  <path
    d="M22.8 315.8v-.5l1.4.2-.9 5.6h-.6l.9-5.2-.8-.1Zm1.7 5c1-.5 1.9-1 2.5-1.5.6-.5 1-1 1-1.6v-.9c-.2-.2-.5-.4-.9-.4-.4-.1-.7 0-1 .2-.2.2-.4.5-.5 1l-.5-.2c.1-.5.3-1 .7-1.2.4-.3.9-.4 1.4-.3.5 0 .9.3 1.1.6.3.3.4.8.3 1.3 0 .6-.4 1.2-1 1.7-.7.5-1.4 1-2.3 1.4l3 .5-.1.4-3.8-.5v-.4Zm4.7 1.3c-.1 0-.2 0-.3-.2v-.3l.1-.2.3-.1.3.1V322l-.4.1Zm.6-3.4c-.2 0-.3 0-.3-.2v-.5l.4-.1.2.1.1.3c0 .2 0 .2-.2.3 0 0-.1.1-.2 0Zm1.1.7c.1-1 .4-1.6.8-2 .3-.5.8-.7 1.6-.5.7 0 1.1.4 1.3 1 .2.5.3 1.2.1 2.1-.1 1-.4 1.6-.7 2-.4.5-1 .7-1.6.6-.8-.1-1.2-.5-1.4-1-.2-.6-.2-1.3 0-2.2Zm3.3.5v-1.2c0-.4 0-.7-.2-1-.2-.1-.4-.3-.8-.3-.4-.1-.7 0-1 .1l-.5.8-.3 1.2v1.3c0 .3 0 .6.2.8.2.3.5.4.8.5.4 0 .7 0 1-.2l.5-.7.3-1.3Zm1.5.3c.2-1 .4-1.6.8-2 .3-.5.9-.7 1.6-.6.7.1 1.2.5 1.4 1 .2.5.2 1.3 0 2.2-.1.9-.4 1.6-.7 2-.4.5-.9.6-1.6.5-.7 0-1.2-.4-1.4-1-.2-.5-.2-1.2 0-2.1Zm3.3.5v-1.3c0-.3 0-.6-.2-.8-.1-.3-.4-.4-.8-.5-.4 0-.7 0-.9.2l-.5.7-.3 1.2-.1 1.3c0 .4 0 .7.2.9.2.2.5.4.9.4l.9-.1.5-.8.3-1.2Zm6.8 2.6-2.5-.4-.7 1.3-.6-.1 2.9-5.1h.6l1.1 5.8H46l-.2-1.5Zm-.1-.4-.7-3.2-1.5 2.8 2.2.4Zm8-2.5-.9 5.4h-.5l.7-4.4-2.6 4H50l-1.3-4.7-.7 4.3h-.5l.8-5.5.6.1 1.4 5 2.8-4.3h.6ZM68.6 327v-.5l3.5-3.4.6.1-.6 3.8.9.1v.5l-1-.1-.1 1.3h-.6l.2-1.4-3-.5Zm3.5-3.3-2.8 2.8 2.3.4.5-3.2Zm1.5 5.4-.3-.1v-.4l.1-.2h.6v.4l-.1.2-.3.1Zm.5-3.4s-.2 0-.2-.2v-.5l.4-.1s.2 0 .2.2l.1.3s0 .2-.2.2l-.3.1Zm1.2.7c.1-.9.4-1.6.8-2 .3-.5.8-.6 1.6-.5.7 0 1.1.4 1.3 1 .2.5.3 1.2.1 2.1-.1 1-.4 1.6-.7 2-.4.5-1 .7-1.6.6-.8-.1-1.2-.5-1.4-1-.2-.5-.2-1.3-.1-2.2Zm3.3.5v-1.2c0-.4 0-.6-.2-.9-.2-.2-.4-.4-.8-.4l-1 .1-.5.8-.3 1.2v1.3c0 .3 0 .6.2.8.2.3.5.4.8.5.4 0 .7 0 1-.2l.5-.7.3-1.3Zm1.5.3c.2-1 .4-1.6.8-2 .3-.5.9-.7 1.6-.6.7.2 1.2.5 1.4 1 .2.6.2 1.3 0 2.2-.1.9-.4 1.6-.7 2-.4.5-.9.7-1.6.6-.7-.2-1.2-.5-1.4-1-.2-.6-.2-1.3 0-2.2Zm3.3.5v-1.3c0-.3 0-.6-.2-.8-.1-.3-.4-.4-.8-.5-.4 0-.7 0-.9.2-.2.2-.4.4-.5.8-.2.3-.3.7-.3 1.2l-.1 1.2c0 .4 0 .7.2 1l.9.4c.3 0 .6 0 .9-.2.2-.2.4-.4.5-.8l.3-1.2Zm6.8 2.7-2.5-.4-.7 1.2-.6-.1 2.9-5h.6l1.1 5.7h-.6l-.2-1.4Zm-.1-.5-.7-3.2-1.5 2.8 2.2.4Zm8-2.5-.9 5.4h-.5l.7-4.4-2.6 4h-.4l-1.3-4.6-.7 4.3-.5-.1.8-5.4h.6l1.4 5 2.8-4.3.6.1ZM114.5 332.6l-.6-.6c-.2-.3-.2-.6-.1-.9 0-.3.1-.5.3-.7.2-.2.4-.4.7-.4h1c.4 0 .7.1 1 .3a1.4 1.4 0 0 1 .6 1.4 1.3 1.3 0 0 1-1.2 1.1c.4.2.6.4.8.7.2.3.2.6.2 1l-.4.8c-.2.2-.5.4-.8.4h-1.1c-.4 0-.7-.1-1-.3-.3-.2-.5-.4-.6-.7-.1-.3-.2-.6-.1-.9a1.4 1.4 0 0 1 1.3-1.2Zm2.4-1c0-.3 0-.6-.2-.8-.2-.2-.5-.4-1-.4l-1 .1c-.2.1-.4.4-.4.7 0 .4 0 .6.2.9.2.2.5.4 1 .4l1-.1.4-.7Zm-1.6 1.3c-.4 0-.7 0-1 .2-.3.1-.5.4-.6.8 0 .4 0 .7.3 1 .2.2.5.3 1 .4l1-.1c.4-.2.6-.5.6-.9 0-.3 0-.7-.3-.9-.2-.2-.5-.4-1-.5Zm2.8 3.3-.3-.2v-.3l.1-.3h.3l.3.1v.3l-.1.3h-.3Zm.5-3.5-.2-.1-.1-.3.1-.3h.4l.2.1v.6h-.4Zm1.2.7c.1-.8.4-1.5.7-2 .4-.4 1-.6 1.6-.5.7.1 1.2.5 1.4 1 .2.5.2 1.3 0 2.2 0 .9-.3 1.6-.7 2-.3.5-.9.6-1.6.5-.7 0-1.2-.4-1.4-1-.1-.5-.2-1.2 0-2.2Zm3.2.6c.1-.5.2-1 .1-1.3 0-.3 0-.6-.2-.8-.2-.3-.5-.4-.8-.5-.4 0-.7 0-1 .2-.2.1-.4.4-.5.7l-.3 1.2v1.3c0 .4 0 .6.2.9.2.2.4.4.8.4l1-.1.4-.8c.2-.3.3-.7.3-1.2Zm1.6.2c.1-.9.4-1.6.8-2 .3-.5.8-.6 1.6-.5.7 0 1.1.4 1.3 1 .2.5.3 1.2.1 2.1-.1 1-.4 1.6-.7 2-.4.5-1 .7-1.6.6-.8-.1-1.2-.5-1.4-1-.2-.5-.2-1.3 0-2.2Zm3.3.5v-1.2c0-.4 0-.7-.2-.9-.2-.2-.4-.4-.8-.4l-1 .1-.5.8-.3 1.2v1.3c0 .3 0 .6.2.8.2.3.5.4.8.5.4 0 .7 0 1-.2l.5-.7.3-1.3Zm6.7 2.7-2.5-.4-.6 1.2h-.6l2.8-5.2.6.1 1.2 5.8-.6-.1-.3-1.4Zm0-.5-.7-3.1-1.5 2.8 2.1.3Zm8-2.5-.9 5.5-.5-.1.6-4.4-2.6 4h-.4l-1.2-4.6-.7 4.3-.5-.1.8-5.4h.6l1.3 5.1 2.9-4.3h.6ZM158 337.2v-.5l1.3.2-.9 5.6h-.5l.8-5.2-.8-.1Zm1.6 5c1.1-.5 2-1 2.6-1.5.6-.5 1-1 1-1.6l-.1-1-.8-.4c-.4 0-.8 0-1 .3-.3.2-.5.5-.6.9l-.5-.1c.1-.6.4-1 .8-1.3.3-.2.8-.3 1.3-.2.5 0 1 .2 1.2.6.3.3.3.7.3 1.3-.1.6-.5 1.2-1.1 1.7l-2.2 1.4 2.9.5-.1.4-3.7-.6v-.4Zm4.8 1.3c-.2 0-.3-.1-.3-.2v-.3a.4.4 0 0 1 .4-.3l.2.1.1.3c0 .1 0 .2-.2.3h-.2Zm.5-3.4-.3-.2v-.3a.4.4 0 0 1 .4-.3l.3.1v.3l-.1.3h-.3Zm1.1.7c.2-1 .4-1.6.8-2 .3-.5.9-.7 1.6-.6.7.1 1.2.5 1.4 1 .2.6.2 1.3 0 2.2 0 .9-.3 1.6-.7 2-.4.5-.9.7-1.6.5-.7 0-1.2-.4-1.4-1-.2-.5-.2-1.2 0-2.1Zm3.3.5.1-1.3c0-.3-.1-.6-.3-.8-.1-.3-.4-.4-.8-.5-.4 0-.7 0-.9.2l-.5.7-.3 1.3-.1 1.2c0 .4.1.7.3.9.1.2.4.4.8.4.4.1.7 0 .9-.1.2-.2.4-.4.5-.8l.3-1.2Zm1.6.2c.1-.9.4-1.5.7-2 .4-.4 1-.6 1.6-.5.7.1 1.2.4 1.4 1 .2.5.2 1.2 0 2.1 0 1-.3 1.6-.7 2-.3.5-.9.7-1.6.6-.7-.1-1.2-.4-1.4-1-.1-.5-.2-1.3 0-2.2Zm3.2.5c.1-.4.2-.9.1-1.2 0-.3 0-.6-.2-.9l-.8-.4c-.4 0-.7 0-1 .2-.2.1-.4.4-.5.7l-.3 1.2v1.3c0 .3 0 .6.2.9l.8.4c.4 0 .7 0 1-.2l.4-.7c.2-.3.3-.8.3-1.3Zm7.5.2c0 .4-.3.8-.6 1-.4.3-.8.3-1.5.2l-1-.1-.4 2.3h-.6l.9-5.6 1.6.3c.7 0 1 .3 1.3.6.3.4.4.8.3 1.3Zm-2 .8c.9.1 1.4-.2 1.5-1 0-.3 0-.6-.2-.8-.2-.2-.5-.4-1-.4l-1-.2-.4 2.2 1.1.2Zm8.5-1.3-.8 5.4-.6-.1.7-4.3-2.6 4-.4-.1-1.2-4.6-.7 4.3h-.6l.9-5.5.6.1 1.3 5 2.9-4.3h.5ZM202.7 348.1v-.4l3.5-3.4.7.1-.6 3.8.8.1v.5l-.9-.1-.2 1.3h-.5l.2-1.4-3-.5Zm3.6-3.1-2.9 2.8 2.4.3.5-3.1Zm1.5 5.3-.3-.1v-.6H208.2l.1.4-.1.3h-.3Zm.5-3.4-.3-.1v-.3l.1-.3h.6v.4l-.1.3h-.3Zm1.2.7c.1-.9.3-1.5.7-2 .4-.4.9-.6 1.6-.5.7.1 1.2.4 1.4 1 .2.5.2 1.2 0 2.1 0 1-.3 1.6-.7 2-.3.6-.9.7-1.6.6-.7-.1-1.2-.4-1.4-1-.2-.5-.2-1.3 0-2.2Zm3.2.6.1-1.3c0-.3 0-.6-.3-.9-.1-.2-.4-.3-.8-.4-.3 0-.6 0-.9.2-.2.1-.4.4-.5.7l-.3 1.2-.1 1.3.3.9c.1.2.4.3.8.4.4 0 .7 0 .9-.2.2-.1.4-.4.5-.7l.3-1.2Zm1.6.2c.1-.9.4-1.6.7-2 .4-.5 1-.7 1.6-.5.8 0 1.2.4 1.4 1 .2.5.2 1.2 0 2.1 0 1-.3 1.6-.7 2-.3.5-.8.7-1.6.6-.7-.1-1.1-.5-1.3-1-.2-.6-.3-1.3-.1-2.2Zm3.3.5v-1.2c0-.4 0-.7-.2-.9-.2-.2-.5-.4-.8-.4-.4-.1-.7 0-1 .1-.2.2-.4.4-.5.8l-.3 1.2v1.3c0 .3 0 .6.2.8.2.3.4.4.8.5.4 0 .7 0 1-.2l.5-.7.3-1.3Zm7.4.1c0 .5-.2.9-.6 1-.3.3-.8.4-1.4.3l-1.2-.2-.3 2.4-.6-.1.9-5.5 1.6.3c.7 0 1.1.3 1.4.6.2.3.3.8.2 1.2Zm-2 .8c.9.2 1.4-.1 1.5-.9 0-.3 0-.6-.2-.8-.2-.3-.5-.4-1-.5l-1-.1-.4 2.2 1.1.1Zm8.6-1.3-.9 5.4h-.5l.6-4.4-2.6 4h-.4l-1.2-4.6-.7 4.3-.5-.1.8-5.4h.6l1.3 5 2.9-4.3.6.1ZM247.7 353.6c-.3-.1-.5-.3-.7-.6 0-.2-.1-.5 0-.8 0-.3 0-.6.2-.8l.8-.4h1c.4 0 .7.2 1 .3a1.4 1.4 0 0 1 .2 2.2l-.8.4.8.6c.1.3.2.6.1 1 0 .3-.2.6-.4.8-.2.3-.4.4-.8.5h-1c-.4 0-.8-.1-1-.3l-.7-.7v-1a1.4 1.4 0 0 1 1.3-1.2Zm2.4-.9c0-.3 0-.6-.3-.8-.2-.3-.5-.4-.9-.5-.4 0-.7 0-1 .2-.2.1-.4.4-.5.7 0 .3 0 .6.3.8.2.3.5.4.9.5.4 0 .7 0 1-.2.2-.1.4-.4.5-.7Zm-1.6 1.3-1 .1c-.4.2-.6.4-.6.8s0 .7.2 1l1 .5c.5 0 .9 0 1.1-.2.3-.2.5-.4.6-.8 0-.4 0-.7-.3-1-.2-.2-.6-.3-1-.4Zm2.8 3.2-.3-.1c0-.1-.1-.2 0-.4v-.2c.2 0 .3-.1.4 0h.2l.1.4s0 .2-.2.2l-.2.1Zm.5-3.4c-.1 0-.2 0-.3-.2v-.3l.1-.2.3-.1c.1 0 .2 0 .3.2v.3l-.1.2-.3.1Zm1.1.7c.2-.9.4-1.6.8-2 .3-.5.9-.6 1.6-.5.7 0 1.2.4 1.4 1 .2.5.2 1.2 0 2.1 0 1-.3 1.6-.7 2-.4.5-.9.7-1.6.6-.7-.1-1.2-.5-1.4-1-.2-.5-.2-1.3 0-2.2Zm3.3.5.1-1.2c0-.4-.1-.7-.3-.9-.1-.2-.4-.4-.8-.4l-.9.1-.5.8-.3 1.2-.1 1.3c0 .3 0 .6.3.8.1.3.4.4.8.5.3 0 .7 0 .9-.2l.5-.7.3-1.3Zm1.6.3c.1-1 .4-1.6.7-2 .4-.5 1-.7 1.6-.6.7.2 1.2.5 1.4 1 .2.6.2 1.3 0 2.2 0 .9-.3 1.6-.7 2-.3.5-.9.7-1.6.6-.7-.2-1.2-.5-1.4-1-.1-.6-.2-1.3 0-2.2Zm3.2.5.1-1.3c0-.3 0-.6-.2-.8-.2-.3-.5-.4-.9-.5-.3 0-.6 0-.9.2l-.5.7-.3 1.3v1.2c0 .4 0 .7.2 1 .2.1.4.3.8.3.4.1.7 0 1-.1l.4-.8c.2-.3.3-.7.3-1.2Zm7.5.1c0 .5-.3.8-.6 1-.4.3-.8.4-1.5.3l-1-.2-.4 2.3h-.6l.9-5.5 1.6.2c.6.1 1 .4 1.3.7.3.3.4.7.3 1.2Zm-2 .8c.9.1 1.4-.1 1.5-.9 0-.3 0-.6-.2-.9-.2-.2-.5-.3-1-.4l-1-.2-.4 2.2 1.1.2Zm8.5-1.3-.8 5.4h-.6l.7-4.4-2.6 4h-.4l-1.2-4.7-.7 4.3h-.6l.9-5.4h.6l1.3 5 2.9-4.3.5.1ZM290.1 358v-.4l1.4.2-.9 5.6h-.5l.8-5.2-.8-.1Zm1.7 5.1c1-.5 2-1 2.5-1.5.7-.5 1-1 1-1.6v-.9c-.2-.2-.5-.4-.9-.5-.4 0-.7 0-1 .3-.2.2-.4.5-.5.9h-.5c.1-.7.4-1 .7-1.4.4-.2.9-.3 1.4-.2.5 0 .9.3 1.2.6.2.3.3.7.2 1.3 0 .6-.4 1.2-1 1.7l-2.2 1.4 2.9.5-.1.4-3.8-.6.1-.4Zm4.7 1.3s-.2 0-.2-.2l-.1-.3c0-.1 0-.2.2-.3h.3l.2.1v.6h-.4Zm.6-3.4-.3-.2v-.6h.4l.3.1v.3l-.1.3h-.3Zm1.1.7c.2-1 .4-1.6.8-2 .3-.5.9-.7 1.6-.6.7.2 1.2.5 1.4 1 .1.6.2 1.3 0 2.2-.1.9-.4 1.6-.7 2-.4.5-1 .7-1.6.6-.7-.2-1.2-.5-1.4-1-.2-.6-.2-1.3 0-2.2Zm3.3.5v-1.3c0-.3 0-.6-.2-.8-.2-.3-.4-.4-.8-.5-.4 0-.7 0-1 .2l-.4.7c-.2.4-.3.8-.3 1.3l-.1 1.2c0 .4 0 .7.2 1 .2.1.5.3.9.3.3.1.6 0 .9-.1.2-.2.4-.4.5-.8l.3-1.2Zm1.6.2c.1-.9.3-1.5.7-2 .4-.4.9-.6 1.6-.5.7.1 1.2.4 1.4 1 .2.5.2 1.2 0 2.1 0 1-.3 1.6-.7 2.1-.3.5-.9.6-1.6.5-.7-.1-1.2-.4-1.4-1-.2-.5-.2-1.2 0-2.2Zm3.2.6.1-1.3c0-.3 0-.6-.3-.9-.1-.2-.4-.3-.8-.4-.3 0-.7 0-.9.2-.2.1-.4.4-.5.7l-.3 1.2-.1 1.3.3.9c.1.2.4.4.8.4s.7 0 .9-.2c.2-.1.4-.4.5-.7l.3-1.2Zm6.8 2.6-2.5-.4-.7 1.3-.6-.1 2.9-5.1h.6l1.1 5.8-.6-.1-.2-1.4Zm-.1-.5-.6-3-1.6 2.7 2.2.3Zm8-2.4-.8 5.4-.6-.1.7-4.3-2.6 4h-.4L316 363l-.6 4.3h-.6l.9-5.5.5.1 1.4 5 2.8-4.3h.6Z"
    fill="#9990B0" />
  <rect x="208.3" y="204.3" width="350.5" height="259.6" rx="22" transform="rotate(-11.8 208.3 204.3)" fill="#201E27" />
  <rect x="208.3" y="204.3" width="350.5" height="259.6" rx="22" transform="rotate(-11.8 208.3 204.3)" stroke="#5FF4AD"
    stroke-width="2" />
  <g clip-path="url(#e)">
    <rect x="218.5" y="210.9" width="333.4" height="65.8" rx="15.3" transform="rotate(-11.8 218.5 211)"
      fill="#0C0B0F" />
    <path
      d="m258.8 226-3.2.6-.2 1.6-1.6.4 1.2-8.5 1.8-.4 4.5 7.3-1.7.3-.8-1.3Zm-.7-1.2-1.8-3-.5 3.5 2.3-.5Zm11.7-7.8 1.6 7.9-1.5.3-1.1-5.1-1 5.5-1.2.3-3.2-4.7 1 5.1-1.5.4-1.7-7.9 1.8-.4 3.7 5.3 1.3-6.3 1.8-.4Zm7.4 6.7a4.1 4.1 0 0 1-3.9-1.2c-.5-.5-.8-1.2-1-2a4 4 0 0 1 3.2-4.8c.8-.2 1.5-.1 2.2 0 .7.3 1.2.7 1.7 1.2a4 4 0 0 1 1 2c.2.7.1 1.5-.1 2.2-.2.6-.6 1.2-1.2 1.7-.5.5-1.1.8-1.9 1Zm-.3-1.4c.5 0 .9-.3 1.2-.6.3-.2.5-.6.7-1v-1.5a3 3 0 0 0-.6-1.3c-.3-.4-.7-.6-1-.7-.5-.2-.9-.2-1.4 0-.4 0-.8.2-1.2.5-.3.3-.5.6-.6 1a3 3 0 0 0 0 1.5c0 .5.3 1 .6 1.3.2.4.6.6 1 .8h1.3Zm6-8 1 4.8c0 .6.3 1 .6 1.2.4.2.8.2 1.3.1.5 0 .9-.3 1.1-.6.2-.4.3-.8.2-1.3l-1-4.9 1.5-.3 1 4.8c.2.7.2 1.3 0 1.8s-.5 1-1 1.3c-.4.3-1 .5-1.5.7h-1.7c-.5-.2-1-.4-1.3-.8-.4-.4-.7-1-.8-1.7l-1-4.8 1.6-.3Zm15.2 5-1.6.3-4.7-4.6 1.1 5.4-1.5.3-1.7-7.9 1.6-.3 4.7 4.6-1.2-5.4 1.6-.3 1.7 7.9Zm5.8-9.4.2 1.2-2 .5 1.3 6.6-1.5.3-1.4-6.6-2.1.4-.3-1.2 5.8-1.2Z"
      fill="#625C77" />
    <path
      d="m270.3 244.3 2.5-7.5-7 4.4-5.6-3.2L274 250l-3.7-5.6ZM258.2 243.4l1.1-5 13.8 12-15-7ZM260.1 253.6l6.8-5-3.6-1.5-3.2 6.5Z"
      fill="#CCF994" />
    <path
      d="m279.6 237.8-.3-1.6 3-.7 2.4 11-1.7.3-2-9.3-1.4.3Zm6.3 2.6a8 8 0 0 1 0-4.3c.4-1 1.3-1.8 2.7-2 1.4-.4 2.5 0 3.3.8a8 8 0 0 1 1.7 3.8c.4 1.8.4 3.2 0 4.3-.3 1.1-1.3 1.8-2.7 2.1-1.4.3-2.5 0-3.3-.8a8.3 8.3 0 0 1-1.7-4Zm6-1.3-.5-2c-.2-.6-.5-1-1-1.3-.3-.3-.9-.3-1.5-.2-.6.1-1 .4-1.3.8-.2.5-.4 1-.4 1.5l.3 2.1.6 2.1c.2.6.5 1 1 1.3.3.2.9.3 1.5.2.6-.2 1-.4 1.3-.8.3-.5.4-1 .4-1.6l-.3-2.1Z"
      fill="#fff" />
    <path
      d="M392 194v1.2c-.2.4-.4.7-.8 1-.4.4-.9.6-1.5.7l-1.3.3.6 3-1.6.3-1.6-7.8 2.9-.6c.6-.2 1.1-.2 1.6 0 .5 0 .8.3 1.1.6.3.4.5.7.6 1.2Zm-2.6 1.7c.4-.1.7-.3.9-.5.1-.3.2-.6.1-1-.2-.7-.7-1-1.5-.8l-1.3.2.5 2.3 1.3-.2Zm9.1 2.6a4.2 4.2 0 0 1-3.9-1.2c-.5-.6-.8-1.2-1-2a4 4 0 0 1 3.2-4.8c.8-.2 1.5-.2 2.1 0 .7.3 1.3.6 1.8 1.2a4 4 0 0 1 1 2c.1.7 0 1.4-.1 2.1-.3.7-.6 1.3-1.2 1.8-.5.4-1.2.7-1.9.9Zm-.3-1.4a2.3 2.3 0 0 0 1.8-1.7c.2-.4.2-1 0-1.4a3 3 0 0 0-.5-1.3c-.3-.4-.7-.6-1-.8H397c-.5 0-.9.3-1.2.5-.3.3-.5.7-.6 1.1a3 3 0 0 0 0 1.5c0 .5.3 1 .5 1.3l1 .7c.5.2 1 .2 1.4 0Zm9.7-.6a4.2 4.2 0 0 1-4-1.2c-.4-.5-.7-1.2-.9-2a4 4 0 0 1 3.2-4.8c.7-.2 1.5-.1 2.1 0 .7.3 1.3.7 1.8 1.2a4 4 0 0 1 1 2c.1.7 0 1.5-.1 2.1-.3.7-.7 1.3-1.2 1.8s-1.2.8-2 1Zm-.3-1.4c.5 0 .9-.3 1.2-.6.3-.3.5-.6.6-1v-1.5a3 3 0 0 0-.6-1.3c-.2-.4-.6-.6-1-.7-.4-.2-.8-.2-1.3-.1s-.9.3-1.2.6c-.3.3-.5.6-.6 1a3 3 0 0 0 0 1.5c0 .5.2 1 .5 1.3.3.4.7.6 1 .8h1.4Zm7.3-1.4 2.6-.6.3 1.3-4.2.8-1.6-7.8 1.5-.3 1.4 6.6Zm10.4-.8h-1.5c-.5-.1-1-.3-1.2-.6-.4-.3-.6-.7-.7-1.2l1.7-.3c0 .3.2.5.5.7.2.1.5.2.9 0 .4 0 .6-.1.8-.4.2-.2.2-.4.2-.7 0-.3-.2-.4-.4-.5-.1-.2-.3-.2-.6-.3h-.9l-1.3-.3c-.4 0-.7-.2-1-.5a2 2 0 0 1-.6-1l.1-1.4c.2-.4.4-.7.8-1l1.4-.5c.8-.2 1.5-.2 2 .1.7.3 1 .8 1.3 1.5l-1.8.4c0-.3-.2-.5-.4-.6-.3-.2-.6-.2-1-.1-.2 0-.5.2-.6.4-.2.2-.2.4-.2.7 0 .2.2.4.4.5l.5.2 1 .1 1.3.2 1 .5a2.3 2.3 0 0 1 .5 2.3c-.1.5-.4.8-.8 1.1-.3.3-.8.5-1.4.7Zm4.6-9.3 1.7 7.9-1.6.3-1.6-7.8 1.5-.4Zm5.1 5.8 3.5-.8.3 1.3-5.3 1.2-.3-1.2 2.4-6-3.5.7-.3-1.4 5.4-1.1.2 1.2-2.4 6Zm6-6.8.3 2 2.7-.5.2 1.2-2.6.6.4 2 3-.6.3 1.3-4.6 1-1.6-8 4.5-.9.3 1.3-3 .6Z"
      fill="#625C77" />
    <path
      d="m403.4 216.3 2.5-7.5-6.9 4.5-5.7-3.2 13.8 11.8-3.7-5.6ZM391.3 215.5l1.2-5 13.7 12-14.9-7ZM393.3 225.7l6.7-5-3.5-1.5-3.2 6.5Z"
      fill="#CCF994" />
    <path
      d="M415.4 216.6a59.6 59.6 0 0 0 2.9-4.5c.2-.6.3-1.2.2-1.8-.2-.6-.4-1-.8-1.3-.3-.3-.8-.4-1.4-.3-.6.2-1 .5-1.3.9-.2.4-.3 1-.2 1.6l-1.6.4c-.2-1.2 0-2.1.5-2.9.5-.7 1.3-1.2 2.3-1.4 1-.2 2-.1 2.7.4.8.4 1.2 1.2 1.4 2.2.2.7.2 1.4 0 2.2l-1 2-1.5 2.2-.6.8 4.8-1 .3 1.4-7.3 1.5-.3-1.2.9-1.2Zm7-4.9a8 8 0 0 1 0-4.2c.4-1.1 1.3-1.8 2.8-2.1 1.4-.3 2.5 0 3.3.8a8 8 0 0 1 1.7 3.9c.4 1.7.4 3.2 0 4.3-.4 1-1.3 1.8-2.7 2-1.4.4-2.6.1-3.3-.7a8.3 8.3 0 0 1-1.8-4Zm6.1-1.3a11 11 0 0 0-.6-2c-.2-.5-.5-1-.9-1.2-.4-.3-.9-.4-1.5-.2-.6 0-1 .4-1.3.8-.3.4-.4 1-.4 1.5l.3 2 .6 2.2c.2.5.5 1 1 1.2.3.3.8.4 1.5.2.6-.1 1-.4 1.3-.8.2-.4.4-1 .3-1.5 0-.6 0-1.3-.3-2.2Zm6.4 2.4-1 4.5-1 .3.1-4.4 1.9-.4Zm.5-3.8a8 8 0 0 1 0-4.2c.4-1.1 1.3-1.8 2.7-2.1 1.5-.3 2.6 0 3.4.8a8 8 0 0 1 1.7 3.9c.4 1.7.3 3.2 0 4.3-.4 1-1.3 1.8-2.7 2-1.5.4-2.6 0-3.4-.8a8.3 8.3 0 0 1-1.7-3.9Zm6.1-1.3-.6-2c-.2-.5-.5-1-.9-1.2-.4-.3-1-.4-1.5-.3-.7.2-1.1.4-1.3.9-.3.4-.4.9-.4 1.5l.3 2c.1.9.3 1.6.6 2.1.2.6.5 1 .9 1.3.4.3.9.3 1.5.2.7-.1 1.1-.4 1.3-.8.3-.4.4-1 .4-1.5l-.3-2.2Zm3.5-.7a8 8 0 0 1 0-4.2c.4-1.1 1.3-1.8 2.7-2.1 1.5-.3 2.6 0 3.4.8a8 8 0 0 1 1.7 3.9c.4 1.7.4 3.1 0 4.3-.4 1-1.3 1.8-2.7 2-1.5.4-2.6 0-3.4-.8a8.3 8.3 0 0 1-1.7-4Zm6.1-1.3-.6-2c-.2-.5-.5-1-.9-1.2-.4-.3-1-.4-1.5-.3-.7.2-1.1.4-1.3.9-.3.4-.4.9-.4 1.5l.3 2 .6 2.1c.2.6.5 1 .9 1.3.4.3 1 .3 1.5.2.7-.1 1.1-.4 1.4-.8.2-.4.3-1 .3-1.5l-.3-2.2Zm3.5-.7a8 8 0 0 1 0-4.3c.4-1 1.3-1.8 2.7-2 1.5-.4 2.6 0 3.4.8a8 8 0 0 1 1.7 3.8c.4 1.8.4 3.2 0 4.3-.4 1.1-1.3 1.8-2.7 2.1-1.5.3-2.6 0-3.4-.8a8.3 8.3 0 0 1-1.7-4Zm6.1-1.3c-.2-.8-.3-1.5-.6-2-.2-.6-.5-1-.9-1.3-.4-.2-.9-.3-1.5-.2-.7.1-1.1.4-1.3.8-.3.5-.4 1-.4 1.5l.3 2.1.6 2.1c.2.6.5 1 .9 1.3.4.2 1 .3 1.5.2.7-.2 1.1-.4 1.4-.8.2-.5.3-1 .3-1.6l-.3-2.1Z"
      fill="#fff" />
    <path fill-rule="evenodd" clip-rule="evenodd" d="M475.6 202.8a8.6 8.6 0 0 1 10.2-2.1 5.6 5.6 0 0 1-10.2 2.1Z"
      fill="#9990B0" />
    <circle cx="479.7" cy="197" r="3.5" transform="rotate(-11.8 479.7 197)" fill="#9990B0" stroke="#201E27"
      stroke-width="1.8" />
    <path
      d="M493.6 201.3c-.6 0-1.1.1-1.6 0s-.9-.3-1.3-.7a3 3 0 0 1-.7-1.4l1.3-.3c0 .5.3.8.7 1 .3.3.8.4 1.3.3.6-.1 1-.4 1.1-.7.3-.4.3-.7.2-1.2 0-.5-.3-.8-.8-1-.4-.2-.9-.2-1.4-.1l-.6.1-.3-1 .7-.2c.5 0 .8-.3 1-.6.3-.3.4-.6.3-1 0-.4-.2-.6-.5-.8-.3-.2-.6-.2-1-.1a1.4 1.4 0 0 0-1.2 1.6l-1.3.3.1-1.4c.2-.4.4-.8.8-1 .3-.3.8-.5 1.3-.6a3 3 0 0 1 1.5 0c.4 0 .8.3 1 .6.3.3.5.6.6 1l-.1 1.3c-.2.4-.5.7-1 .9.6 0 1 .1 1.4.5.4.3.7.7.8 1.3v1.3c-.2.5-.4.9-.8 1.2-.4.3-.9.5-1.5.7Zm5.1-1.3-1.4-7-1.3.6-.2-1 1.7-1.2.8-.2 1.8 8.6-1.4.2Zm6.6-1.2c-.8.2-1.5.1-2.2-.1-.6-.3-1.1-.7-1.6-1.3-.4-.6-.7-1.3-.9-2.2-.2-.9-.2-1.7 0-2.4.1-.7.5-1.3 1-1.8.4-.5 1-.8 1.8-1 .8-.2 1.5-.1 2.1.2.6.2 1.2.6 1.6 1.2.4.6.8 1.4 1 2.2v2.4c-.2.8-.5 1.4-1 1.9-.4.4-1 .8-1.8 1Zm-.3-1.1a2 2 0 0 0 1.2-.7c.3-.3.5-.7.6-1.3V194l-.7-1.7-1.1-.9a2 2 0 0 0-1.3-.1c-.5 0-.9.3-1.2.6-.3.3-.5.8-.6 1.3v1.8c.2.7.4 1.3.7 1.7.3.4.7.8 1.1 1 .4.1.8.2 1.3 0Z"
      fill="#9990B0" />
  </g>
  <path
    d="m243 292.2-1.6 6 .6 3-1.4.3-.6-3-4-4.8 1.6-.4 2.8 3.8 1.1-4.6 1.5-.3Zm5.8 7.7c-.6.2-1.2.1-1.8 0-.5-.2-1-.5-1.4-1-.4-.5-.7-1-.8-1.7-.2-.7-.2-1.4 0-2 .2-.5.5-1 1-1.4.5-.4 1-.7 1.7-.8h1.8c.6.2 1 .5 1.5 1 .4.5.7 1 .8 1.7v2l-1 1.4c-.6.4-1.1.7-1.8.8Zm-.2-1.2a2 2 0 0 0 1.5-1.4c.2-.4.2-.8 0-1.3 0-.5-.2-.9-.5-1.1a2 2 0 0 0-.9-.7 2 2 0 0 0-1 0 1.9 1.9 0 0 0-1.5 1.4v1.3c.1.7.4 1.2.9 1.5.4.3 1 .4 1.5.3Zm9.8-7.9 1.4 6.7-1.4.3-.2-.8-.7.9c-.3.2-.7.4-1.1.4h-1.5c-.4-.1-.8-.4-1.2-.8-.3-.3-.5-.8-.7-1.4l-.8-4 1.4-.3.8 3.8c.1.6.3 1 .7 1.2.4.3.8.4 1.3.3.6-.1 1-.4 1.2-.8.2-.4.3-.9.1-1.5l-.7-3.7 1.4-.3Zm9.2 5.2a4 4 0 0 1-1.6 0c-.5-.1-1-.3-1.3-.6-.3-.3-.5-.7-.6-1.2l1.4-.3.7.8c.3.2.7.2 1.1.1.5 0 .8-.3 1-.6.3-.3.4-.6.3-1a1 1 0 0 0-.4-.6l-.7-.3h-1.1l-1.5-.2c-.3-.1-.7-.3-1-.6a2 2 0 0 1-.6-1.1V289c.2-.4.5-.8 1-1 .3-.3.8-.5 1.4-.7.8-.1 1.5 0 2.1.2.6.3 1 .8 1.3 1.5l-1.6.4c0-.4-.3-.6-.6-.7-.3-.2-.7-.2-1.1-.2-.4.1-.7.3-1 .6-.1.2-.2.5-.1 1 0 .2.2.4.3.5l.7.3h1.1l1.5.3c.4 0 .7.2 1 .5.3.2.6.6.7 1.2l-.1 1.3-.8 1.1c-.4.3-1 .6-1.5.7Zm3.3-4.4v-1.8a3.2 3.2 0 0 1 2.5-2.3 3 3 0 0 1 2.5.6l-.2-1 1.4-.2 1.4 6.7-1.4.3-.2-1c-.1.4-.4.7-.8 1a3 3 0 0 1-1.3.6 3 3 0 0 1-1.7-.1c-.5-.2-1-.6-1.4-1a4 4 0 0 1-.8-1.8Zm5.5-1c0-.5-.2-1-.5-1.2a2 2 0 0 0-3-.2 2 2 0 0 0-.5.9v1.3c0 .4.2.8.5 1.1l1 .7a2 2 0 0 0 2-.5c.2-.2.4-.5.5-.9v-1.3Zm8.6-5.4-2 10.8-1.5.3.7-3.6-4-6 1.5-.4 3 4.8.9-5.6 1.4-.3Z"
    fill="#D2D2D4" />
  <path
    d="m288 291.7-.7-.1a.9.9 0 0 1-.3-.6v-.7l.7-.4.6.1c.2.2.4.4.4.6l-.1.7c-.1.2-.3.3-.6.4Zm-1-5.1c-.3 0-.5 0-.7-.2a.9.9 0 0 1-.4-.5.9.9 0 0 1 .7-1.1l.7.1c.2.2.3.3.3.6v.7l-.6.4Z"
    fill="#fff" />
  <rect x="240.3" y="314.7" width="333.2" height="44.1" rx="11.5" transform="rotate(-11.8 240.3 314.7)"
    fill="#0C0B0F" />
  <path
    d="M556.4 273.8a2.7 2.7 0 0 1-.9 2.6c-.4.4-.9.7-1.5.8l.3 1.2-.8.1-.2-1.1c-.9 0-1.6 0-2.3-.4-.6-.4-1-1-1.2-1.6l1.4-.3c.1.4.3.7.6 1l1.3.2-.8-3.5c-.6 0-1.2 0-1.6-.2-.4 0-.8-.2-1.1-.5-.4-.3-.6-.8-.8-1.4-.1-.7 0-1.4.4-2 .5-.6 1.1-1 2-1.3l-.3-1.2.8-.1.2 1.1c.9 0 1.6 0 2.1.4.6.3 1 .9 1.2 1.5l-1.3.3-.6-.8c-.3-.2-.7-.3-1.1-.3l.7 3.4 1.6.2c.4 0 .8.3 1.1.6.4.3.6.7.8 1.3Zm-6.3-3.4c.1.4.3.7.7 1l1.3.3-.7-3.3a2 2 0 0 0-1 .8c-.3.3-.4.7-.3 1.2Zm3.7 5.8c.5-.2.9-.4 1-.8.3-.4.4-.8.3-1.2-.1-.5-.3-.8-.7-1-.3-.2-.7-.3-1.3-.3l.7 3.3Z"
    fill="#9990B0" />
  <path
    d="m258 329.2-.3-1.1 2.6-.6 2.1 10.2-1.2.2-2-9-1.3.3Zm7.8 6-.8 4-.8.2.2-4 1.4-.3Zm2.4-4.2c-.6-.1-1-.4-1.4-.7-.4-.3-.6-.8-.7-1.3a2.6 2.6 0 0 1 1-2.7c.4-.3 1-.6 1.7-.7.7-.2 1.4-.2 2 0a2.6 2.6 0 0 1 1.8 3.5c-.2.5-.5.8-1 1.1a2.7 2.7 0 0 1 2.4 2.2 3 3 0 0 1 0 1.7 3 3 0 0 1-1.1 1.3c-.5.4-1.1.6-1.9.8h-2a3 3 0 0 1-1.4-.8 3 3 0 0 1-.8-1.5c-.1-.6 0-1.2.2-1.7s.6-1 1.2-1.2Zm3.3-3c0-.6-.4-1-.8-1.2-.4-.3-1-.3-1.7-.2-.6.2-1 .4-1.4.8-.3.4-.4.9-.3 1.5.1.5.4.9.9 1.1.4.3 1 .3 1.6.2.6-.2 1-.4 1.4-.8.3-.4.4-.9.3-1.4Zm-1.5 3.2c-.7.1-1.2.4-1.6.8-.4.4-.5 1-.4 1.6.2.6.5 1 1 1.3.5.3 1.1.3 1.8.2.7-.2 1.3-.5 1.6-1 .4-.4.5-.9.4-1.5-.2-.6-.5-1-1-1.3-.5-.2-1.1-.3-1.8-.1Zm5.5 1.4-.2-1 3.5-7.9 1.5-.3 1.4 6.7 1.5-.3.2 1.1-1.4.3.5 2.3-1.3.2-.5-2.2-5.2 1Zm4-7.6-2.7 6.2 3.7-.8-1-5.4Zm4 .3c-.1-.9 0-1.6.6-2.2.5-.6 1.2-1 2.2-1.2.6-.2 1.2-.2 1.7 0 .5.1 1 .3 1.2.7.4.3.6.7.7 1.2a2.4 2.4 0 0 1-1.3 2.7v.1c.6 0 1.2.2 1.6.6.5.4.8.9 1 1.6l-.1 1.5c-.2.5-.5 1-1 1.3a4 4 0 0 1-1.6.7c-1 .2-1.9.1-2.6-.3-.8-.4-1.3-1-1.6-2l1.3-.2c.2.5.5 1 1 1.2.4.3 1 .3 1.6.2.7-.1 1.2-.4 1.4-.8.3-.4.4-1 .3-1.5-.2-.7-.5-1.1-1-1.3a4 4 0 0 0-2.3 0h-.3l-.2-1 .3-.1a4 4 0 0 0 1.9-.8c.4-.4.5-.9.4-1.5-.1-.5-.4-.8-.8-1-.4-.3-.8-.4-1.4-.2-.6 0-1 .3-1.4.7-.2.4-.4.8-.3 1.4l-1.3.2Z"
    fill="#fff" />
  <rect x="254" y="380.3" width="333.4" height="52.7" rx="26.3" transform="rotate(-11.8 254 380.3)" fill="#5FF4AD" />
  <path
    d="M387.2 377.4v1.5c-.2.5-.5 1-1 1.3a4 4 0 0 1-1.7.8l-1.4.3.7 3.3-2.3.5-2-9.2 3.7-.8h2c.5.2 1 .4 1.3.8.4.4.6.9.7 1.5Zm-3.3 1.9c.4-.1.7-.3.9-.5.2-.3.2-.6.1-1 0-.3-.2-.6-.5-.7-.2-.2-.5-.2-1-.1l-1.2.2.5 2.3 1.2-.2Zm8 1.8 2.9-.6.3 1.7-5.1 1.1-2-9.2 2.3-.5 1.5 7.5Zm10-2-3.5.7-.2 1.8-2.3.5 1.4-10 2.6-.5 5.2 8.5-2.3.5-1-1.5Zm-1-1.6-1.8-3.1-.4 3.6 2.2-.5Zm4.2-2.2a5 5 0 0 1 0-2.5c.3-.8.7-1.5 1.3-2 .7-.6 1.4-1 2.3-1.1a4.2 4.2 0 0 1 5 2.3l-2.4.5a2 2 0 0 0-1-.7c-.4-.2-.8-.2-1.2 0-.7 0-1.2.4-1.5 1-.3.6-.4 1.2-.3 2 .2.9.6 1.5 1 1.8.6.4 1.2.6 2 .4.3 0 .7-.3 1-.5.3-.3.5-.6.6-1l2.5-.6c0 1-.4 2-1.1 2.7-.7.7-1.5 1.2-2.6 1.4a5 5 0 0 1-2.6 0c-.7-.3-1.4-.7-2-1.4a5 5 0 0 1-1-2.3Zm12.3-5.5.3 1.9 3-.6.4 1.7-3 .6.4 2 3.4-.7.4 1.8-5.6 1.2-2-9.2 5.7-1.2.3 1.8-3.3.7Z"
    fill="#0C0B0F" />
  <g opacity=".5" fill="#000">
    <path
      d="m445.4 367.4 2.2-6.5-6 3.9-5-2.8 12 10.3-3.2-4.9ZM434.9 366.7l1-4.4 11.9 10.4-13-6ZM436.5 375.5l6-4.3-3.2-1.3-2.8 5.6Z" />
  </g>
  <path
    d="m459.8 360.7-4 .9.3 1.8.7-.7c.2-.1.6-.3 1-.3.6-.2 1.2-.2 1.7 0 .5.3.9.6 1.2 1 .3.4.5 1 .6 1.5.2 1 0 1.9-.4 2.6-.4.7-1.2 1.2-2.2 1.4-.7.2-1.4.2-2 0-.5-.1-1-.4-1.3-.7a3 3 0 0 1-.8-1.4l2.2-.5c.1.3.3.5.5.6.3.2.6.2.9.1.4 0 .7-.3.8-.6.2-.3.2-.6.1-1 0-.5-.2-.8-.5-1-.3-.2-.6-.2-1-.1-.3 0-.5.1-.7.3a1 1 0 0 0-.2.7l-2.2.4-1.2-5.7 6.1-1.3.4 2Z"
    fill="#0C0B0F" />
  <defs>
    <clipPath id="a">
      <path fill="#fff" transform="rotate(9 -331 432.2)" d="M0 0h336v245.2H0z" />
    </clipPath>
    <clipPath id="b">
      <path fill="#fff" transform="rotate(9 -334.9 432)" d="M0 0h336v282.2H0z" />
    </clipPath>
    <clipPath id="e">
      <rect x="218.5" y="210.9" width="333.4" height="65.8" rx="15.3" transform="rotate(-11.8 218.5 211)" fill="#fff" />
    </clipPath>
    <linearGradient id="c" x1="203.4" y1="144" x2="189.5" y2="232.8" gradientUnits="userSpaceOnUse">
      <stop stop-color="#5FF4AD" stop-opacity=".4" />
      <stop offset="1" stop-color="#5FF4AD" stop-opacity="0" />
    </linearGradient>
    <linearGradient id="d" x1="274.5" y1="409.4" x2="300.5" y2="245" gradientUnits="userSpaceOnUse">
      <stop stop-color="#FF68F0" />
      <stop offset="1" stop-color="#FF68F0" stop-opacity="0" />
    </linearGradient>
  </defs>
</svg>