<svg width="36" height="36" viewBox="0 0 36 36" fill="none" xmlns="http://www.w3.org/2000/svg">
<path d="M0 13.5052V30.1774C0 32.2155 0 33.2345 0.396643 34.013C0.74554 34.6977 1.30226 35.2545 1.98701 35.6034C2.76546 36 3.78452 36 5.82263 36H22.538C24.3146 36 25.2029 36 26.0391 35.7996C26.7804 35.622 27.4892 35.329 28.1396 34.9314C28.8732 34.4829 29.5023 33.8557 30.7603 32.6012L30.7604 32.6012L32.5771 30.7898C33.8403 29.5303 34.4719 28.9005 34.9236 28.1651C35.324 27.5131 35.6192 26.802 35.7982 26.0581C36 25.2189 36 24.3271 36 22.5433V8.62311V5.82263C36 3.78452 36 2.76546 35.6034 1.98701C35.2545 1.30226 34.6977 0.74554 34.013 0.396643C33.2345 0 32.2155 0 30.1774 0H27.3516H13.5373C11.7779 0 10.8982 0 10.0693 0.196765C9.33432 0.371225 8.63098 0.659042 7.98454 1.04988C7.25546 1.49068 6.62815 2.10736 5.37352 3.34071L3.48152 5.20062C2.1971 6.46327 1.55488 7.09459 1.0954 7.83443C0.688045 8.49033 0.38765 9.20687 0.205481 9.95717C0 10.8035 0 11.7041 0 13.5052Z" fill="#627EEB"/>
<path d="M17.5702 8.10803L17.4277 8.57457V22.0955L17.5702 22.233L24.0744 18.5232L17.5702 8.10803Z" fill="#BFCDFA"/>
<path d="M17.5696 8.10803L11.0645 18.5232L17.5696 22.233V8.10803Z" fill="white"/>
<path d="M17.5683 23.4224L17.4883 23.5161V28.3337L17.5683 28.5582L24.0764 19.7135L17.5683 23.4224Z" fill="#BFCDFA"/>
<path d="M17.5696 28.5582V23.4213L11.0645 19.7135L17.5696 28.5582Z" fill="white"/>
<path d="M17.5684 22.2348L24.0726 18.525L17.5684 15.6721V22.2348Z" fill="#8199EF"/>
<path d="M11.0645 18.525L17.5686 22.2348V15.6721" fill="#C5CAF4"/>
</svg>
