<svg width="37" height="36" viewBox="0 0 37 36" fill="none" xmlns="http://www.w3.org/2000/svg">
<path d="M0 13.4484V30.2568C0 32.2671 0 33.2723 0.39123 34.0401C0.735366 34.7155 1.28449 35.2646 1.95989 35.6088C2.72773 36 3.73287 36 5.74317 36H22.6936C24.4425 36 25.3169 36 26.1402 35.8031C26.8701 35.6286 27.5682 35.3406 28.2089 34.9498C28.9315 34.509 29.5517 33.8925 30.7919 32.6595L32.7174 30.7452C33.9676 29.5022 34.5928 28.8808 35.0399 28.1545C35.4363 27.5106 35.7285 26.8081 35.9056 26.073C36.1055 25.2438 36.1055 24.3624 36.1055 22.5994V8.62311V5.74318C36.1055 3.73288 36.1055 2.72773 35.7142 1.95989C35.3701 1.28449 34.821 0.735366 34.1456 0.39123C33.3777 0 32.3726 0 30.3623 0H27.4318H13.4881C11.7563 0 10.8904 0 10.0742 0.193353C9.35058 0.36479 8.65796 0.64763 8.02115 1.03175C7.30294 1.46498 6.68455 2.0711 5.44777 3.28336L3.44601 5.24544C2.17476 6.49147 1.53914 7.11449 1.08433 7.84513C0.68113 8.49286 0.383762 9.20072 0.203421 9.94208C0 10.7783 0 11.6684 0 13.4484Z" fill="#2A5ADA"/>
<g clip-path="url(#clip0_9434_24694)">
<g clip-path="url(#clip1_9434_24694)">
<path d="M18.0001 8L16.1651 9.055L11.1651 11.945L9.33008 13V23L11.1651 24.055L16.2109 26.945L18.0459 28L19.8809 26.945L24.8351 24.055L26.6701 23V13L24.8351 11.945L19.8351 9.055L18.0001 8ZM13.0001 20.89V15.11L18.0001 12.22L23.0001 15.11V20.89L18.0001 23.78L13.0001 20.89Z" fill="white"/>
</g>
</g>
<defs>
<clipPath id="clip0_9434_24694">
<rect width="20" height="20" fill="white" transform="translate(8 8)"/>
</clipPath>
<clipPath id="clip1_9434_24694">
<rect width="20" height="20" fill="white" transform="translate(8 8)"/>
</clipPath>
</defs>
</svg>
