<svg width="24" height="24" viewBox="0 0 24 24" fill="none" xmlns="http://www.w3.org/2000/svg">
<circle cx="12" cy="12" r="12" fill="#C2A633"/>
<path fill-rule="evenodd" clip-rule="evenodd" d="M11.5897 5.25068L11.8629 5.25789L12.1163 5.27103L12.2535 5.28085L12.4709 5.30046L12.6231 5.31719L12.7806 5.33719L13.0256 5.37393L13.1943 5.40335L13.3666 5.43704L13.5422 5.47528C13.5718 5.48205 13.6014 5.48902 13.6311 5.4962L13.8108 5.54182L13.9927 5.59271L14.1763 5.64916C14.207 5.65905 14.2378 5.66918 14.2686 5.67956L14.454 5.74489C14.6088 5.80191 14.7642 5.86547 14.9192 5.93631L15.1048 6.02487C16.772 6.85424 18.3281 8.56838 18.3281 12.1084C18.3281 15.2512 17.0872 16.9131 15.6938 17.7885L15.5292 17.8879C15.3641 17.9838 15.1974 18.0692 15.0311 18.1451L14.8648 18.218L14.6991 18.2849L14.5344 18.3461L14.371 18.4017L14.2094 18.4521L14.0499 18.4975L13.8929 18.5382C13.867 18.5446 13.8412 18.5508 13.8155 18.5568L13.6631 18.5909L13.5142 18.6208L13.2983 18.6584L13.1599 18.6792L12.9616 18.7042L12.8362 18.7173L12.6593 18.7322L12.4462 18.7443L12.3053 18.7487L12.1336 18.75L11.9909 18.7471L11.8879 18.742L7.28914 18.7412V12.7318H5.67188V11.2598H7.28901V5.25L11.5897 5.25068ZM11.6834 7.74376H9.87332V11.2597H12.7211V12.7318H9.87332V16.2475L11.8375 16.2475L12.0366 16.2437L12.2612 16.2305L12.4174 16.2155L12.5873 16.1936L12.7071 16.1746L12.8315 16.1515L12.9599 16.124C12.9816 16.119 13.0035 16.1138 13.0254 16.1085L13.1587 16.0736L13.2945 16.0334C13.363 16.0119 13.4321 15.9882 13.5017 15.9622L13.6411 15.9069L13.7811 15.8448C14.784 15.3752 15.7748 14.3583 15.7719 12.157C15.769 9.92919 14.7836 8.82126 13.7676 8.27297L13.6257 8.20004C13.5548 8.16534 13.4839 8.13323 13.4135 8.10353L13.2731 8.04728L13.1344 7.99711C13.1114 7.98924 13.0886 7.9816 13.0658 7.9742L12.9306 7.93252C12.9083 7.92601 12.8861 7.91973 12.8641 7.91366L12.7336 7.8797L12.6071 7.85047L12.485 7.82563L12.3681 7.80484L12.2567 7.78776L12.1516 7.77406L12.0068 7.75909L11.9197 7.75234L11.8047 7.74622L11.6834 7.74376Z" fill="white"/>
</svg>
