<svg width="37" height="36" viewBox="0 0 37 36" fill="none" xmlns="http://www.w3.org/2000/svg">
<path d="M0 13.4484V30.2568C0 32.2671 0 33.2723 0.39123 34.0401C0.735366 34.7155 1.28449 35.2646 1.95989 35.6088C2.72773 36 3.73287 36 5.74317 36H22.6936C24.4425 36 25.3169 36 26.1402 35.8031C26.8701 35.6286 27.5682 35.3406 28.2089 34.9498C28.9315 34.509 29.5517 33.8925 30.7919 32.6595L32.7174 30.7452C33.9676 29.5022 34.5928 28.8808 35.0399 28.1545C35.4363 27.5106 35.7285 26.8081 35.9056 26.073C36.1055 25.2438 36.1055 24.3624 36.1055 22.5994V8.62311V5.74318C36.1055 3.73288 36.1055 2.72773 35.7142 1.95989C35.3701 1.28449 34.821 0.735366 34.1456 0.39123C33.3777 0 32.3726 0 30.3623 0H27.4318H13.4881C11.7563 0 10.8904 0 10.0742 0.193353C9.35058 0.36479 8.65796 0.64763 8.02115 1.03175C7.30294 1.46498 6.68455 2.0711 5.44777 3.28336L3.44601 5.24544C2.17476 6.49147 1.53914 7.11449 1.08433 7.84513C0.68113 8.49286 0.383762 9.20072 0.203421 9.94208C0 10.7783 0 11.6684 0 13.4484Z" fill="#66F9A1"/>
<g clip-path="url(#clip0_9434_24070)">
<path fill-rule="evenodd" clip-rule="evenodd" d="M9.67481 16.14H24.0598C24.2398 16.14 24.4048 16.215 24.5398 16.35L26.8198 18.69C27.2398 19.125 26.9398 19.86 26.3398 19.86H11.9548C11.7748 19.86 11.6098 19.785 11.4748 19.65L9.19481 17.31C8.77481 16.875 9.07481 16.14 9.67481 16.14ZM9.19481 13.035L11.4748 10.695C11.5948 10.56 11.7748 10.485 11.9548 10.485H26.3248C26.9248 10.485 27.2248 11.22 26.8048 11.655L24.5398 13.995C24.4198 14.13 24.2398 14.205 24.0598 14.205H9.67481C9.07481 14.205 8.77481 13.47 9.19481 13.035ZM26.8048 22.95L24.5248 25.29C24.3898 25.425 24.2248 25.5 24.0448 25.5H9.67481C9.07481 25.5 8.77481 24.765 9.19481 24.33L11.4748 21.99C11.5948 21.855 11.7748 21.78 11.9548 21.78H26.3248C26.9248 21.78 27.2248 22.515 26.8048 22.95Z" fill="white"/>
</g>
<defs>
<clipPath id="clip0_9434_24070">
<rect width="24" height="24" fill="white" transform="translate(6 6)"/>
</clipPath>
</defs>
</svg>
