<svg width="24" height="24" viewBox="0 0 24 24" fill="none" xmlns="http://www.w3.org/2000/svg">
<g clip-path="url(#clip0_256_16592)">
<rect width="24" height="24" rx="12" fill="black"/>
<path d="M9.02721 10.8615L12.1406 7.74806L15.2555 10.8628L17.067 9.05127L12.1406 4.125L7.21581 9.0498L9.02727 10.8613L9.02721 10.8615ZM4.125 12.1406L5.93659 10.3288L7.74805 12.1402L5.93646 13.9518L4.125 12.1406ZM9.02721 13.42L12.1406 16.5332L15.2554 13.4185L17.0679 15.2291L17.067 15.23L12.1406 20.1562L7.21581 15.2315L7.21325 15.2289L9.0274 13.4198L9.02721 13.42ZM16.5331 12.1414L18.3447 10.3298L20.1562 12.1413L18.3447 13.9529L16.5331 12.1414Z" fill="#F3BA2F"/>
<path d="M13.9777 12.14H13.9785L12.1404 10.3018L10.7818 11.66L10.6257 11.8161L10.3038 12.1381L10.3013 12.1406L10.3038 12.1432L12.1404 13.9801L13.9786 12.1419L13.9795 12.1409L13.9779 12.14" fill="#F3BA2F"/>
<g clip-path="url(#clip1_256_16592)">
<path d="M12 24C18.6274 24 24 18.6274 24 12C24 5.37258 18.6274 0 12 0C5.37258 0 0 5.37258 0 12C0 18.6274 5.37258 24 12 24Z" fill="#446DF5"/>
<path fill-rule="evenodd" clip-rule="evenodd" d="M12.9 9.675L15.6 8.1V11.25L12.9 9.675ZM15.6 16.425L12 18.525L8.4 16.425V12.75L12 14.85L15.6 12.75V16.425ZM8.4 8.1L11.1 9.675L8.4 11.25V8.1ZM12.45 10.425L15.15 12L12.45 13.575V10.425ZM11.55 13.575L8.85 12L11.55 10.425V13.575ZM15.15 7.35L12 9.15L8.85 7.35L12 5.475L15.15 7.35ZM7.5 7.05V16.875L12 19.425L16.5 16.875V7.05L12 4.5L7.5 7.05Z" fill="white"/>
</g>
<g clip-path="url(#clip2_256_16592)">
<path d="M12 24C18.6274 24 24 18.6274 24 12C24 5.37258 18.6274 0 12 0C5.37258 0 0 5.37258 0 12C0 18.6274 5.37258 24 12 24Z" fill="#1969FF"/>
</g>
<path d="M11.2839 4.64411C11.6495 4.45196 12.2059 4.45196 12.5715 4.64411L16.3027 6.60486C16.5229 6.72058 16.6438 6.89303 16.6655 7.07105H16.6691V16.9268C16.6642 17.1209 16.5421 17.3138 16.3027 17.4397L12.5715 19.4004C12.2059 19.5926 11.6495 19.5926 11.2839 19.4004L7.55271 17.4397C7.31425 17.3144 7.19982 17.1201 7.19416 16.9268C7.19359 16.9077 7.19352 16.8919 7.19406 16.8787L7.19404 7.13435C7.19366 7.12368 7.19363 7.11302 7.19393 7.10241L7.19416 7.07105L7.19583 7.07103C7.2124 6.89106 7.32785 6.72303 7.55271 6.60486L11.2839 4.64411ZM16.0817 12.5695L12.5715 14.4141C12.2059 14.6063 11.6495 14.6063 11.2839 14.4141L7.78136 12.5736V16.9072L11.2839 18.7381C11.4816 18.8433 11.6869 18.9458 11.8876 18.9588L11.9277 18.9601C12.1369 18.9608 12.3399 18.8552 12.5458 18.7551L16.0817 16.8915V12.5695ZM6.58729 16.7125C6.58729 17.09 6.6314 17.3383 6.71898 17.5131C6.79157 17.6581 6.90048 17.7688 7.09935 17.9036L7.11071 17.9112C7.15435 17.9405 7.20243 17.9712 7.26095 18.0071L7.32997 18.0492L7.5419 18.1765L7.23794 18.6765L7.00073 18.5339L6.96086 18.5096C6.89228 18.4674 6.83543 18.4313 6.78241 18.3957C6.21562 18.0155 6.00423 17.6011 6.00006 16.7387L6 16.7125H6.58729ZM11.634 9.92787C11.6068 9.93715 11.5813 9.94788 11.5581 9.96008L7.82699 11.9208C7.82308 11.9229 7.81934 11.9249 7.81579 11.9269L7.81263 11.9288L7.81848 11.9321L7.82699 11.9367L11.5581 13.8974C11.5813 13.9096 11.6068 13.9204 11.634 13.9296V9.92787ZM12.2214 9.92787V13.9296C12.2486 13.9204 12.2741 13.9096 12.2973 13.8974L16.0284 11.9367C16.0323 11.9346 16.0361 11.9326 16.0396 11.9306L16.0428 11.9288L16.0369 11.9254L16.0284 11.9208L12.2973 9.96008C12.2741 9.94788 12.2486 9.93715 12.2214 9.92787ZM16.0817 7.77018L12.7346 9.52909L16.0817 11.288V7.77018ZM7.78136 7.77429V11.2839L11.1207 9.52909L7.78136 7.77429ZM12.2973 5.1608C12.1032 5.05884 11.7522 5.05884 11.5581 5.1608L7.82699 7.12155C7.82308 7.12361 7.81934 7.12564 7.81579 7.12765L7.81263 7.12947L7.81848 7.13281L7.82699 7.13741L11.5581 9.09815C11.7522 9.20011 12.1032 9.20011 12.2973 9.09815L16.0284 7.13741C16.0323 7.13535 16.0361 7.13332 16.0396 7.1313L16.0428 7.12947L16.0369 7.12614L16.0284 7.12155L12.2973 5.1608ZM16.6331 5.37582L16.8703 5.51835L16.9102 5.54271C16.9788 5.58483 17.0356 5.62102 17.0886 5.65658C17.6554 6.03677 17.8668 6.45128 17.8709 7.31357L17.8711 7.33984H17.2838C17.2838 6.96222 17.2397 6.71403 17.1521 6.53918C17.0795 6.39426 16.9706 6.2835 16.7717 6.14874L16.7603 6.14108C16.7167 6.11181 16.6686 6.08114 16.6101 6.04509L16.5411 6.00304L16.3292 5.8758L16.6331 5.37582Z" fill="white"/>
</g>
<defs>
<clipPath id="clip0_256_16592">
<rect width="24" height="24" rx="12" fill="white"/>
</clipPath>
<clipPath id="clip1_256_16592">
<rect width="24" height="24" fill="white"/>
</clipPath>
<clipPath id="clip2_256_16592">
<rect width="24" height="24" fill="white"/>
</clipPath>
</defs>
</svg>
