<svg width="24" height="24" viewBox="0 0 24 24" fill="none" xmlns="http://www.w3.org/2000/svg">
<circle cx="12" cy="12" r="12" fill="#A5A8A9"/>
<path d="M11.9528 12.6599L11.0039 15.8619H16.0795C16.1613 15.8621 16.2383 15.9008 16.2873 15.9663C16.3363 16.0318 16.3517 16.1166 16.3288 16.1951L15.8875 17.7156C15.8442 17.8648 15.7074 17.9674 15.552 17.9672H7.79967L9.11049 13.5404L7.66064 13.9817L7.98063 12.9468L9.43268 12.5054L11.2731 6.28674C11.3147 6.13698 11.4509 6.03324 11.6063 6.03296H13.5704C13.6521 6.03267 13.7292 6.07074 13.7786 6.13579C13.8281 6.20085 13.8441 6.28533 13.8219 6.36398L12.2772 11.6227L13.727 11.1813L13.4159 12.234L11.9528 12.6599Z" fill="white"/>
</svg>
