<svg width="37" height="36" viewBox="0 0 37 36" fill="none" xmlns="http://www.w3.org/2000/svg">
<path d="M0 13.4484V30.2568C0 32.2671 0 33.2723 0.39123 34.0401C0.735366 34.7155 1.28449 35.2646 1.95989 35.6088C2.72773 36 3.73287 36 5.74317 36H22.6936C24.4425 36 25.3169 36 26.1402 35.8031C26.8701 35.6286 27.5682 35.3406 28.2089 34.9498C28.9315 34.509 29.5517 33.8925 30.7919 32.6595L32.7174 30.7452C33.9676 29.5022 34.5928 28.8808 35.0399 28.1545C35.4363 27.5106 35.7285 26.8081 35.9056 26.073C36.1055 25.2438 36.1055 24.3624 36.1055 22.5994V8.62311V5.74318C36.1055 3.73288 36.1055 2.72773 35.7142 1.95989C35.3701 1.28449 34.821 0.735366 34.1456 0.39123C33.3777 0 32.3726 0 30.3623 0H27.4318H13.4881C11.7563 0 10.8904 0 10.0742 0.193353C9.35058 0.36479 8.65796 0.64763 8.02115 1.03175C7.30294 1.46498 6.68455 2.0711 5.44777 3.28336L3.44601 5.24544C2.17476 6.49147 1.53914 7.11449 1.08433 7.84513C0.68113 8.49286 0.383762 9.20072 0.203421 9.94208C0 10.7783 0 11.6684 0 13.4484Z" fill="#FF007A"/>
<path fill-rule="evenodd" clip-rule="evenodd" d="M13.5997 13.312L13.6027 13.314C13.7961 13.476 13.9387 13.5993 14.0307 13.684L14.0867 13.739L14.1257 13.782C14.3177 14.035 14.2457 14.262 13.9157 14.439C13.6811 14.5506 13.4278 14.6178 13.1687 14.637C12.9557 14.637 12.8827 14.559 12.8827 14.559L12.8387 14.522C12.7337 14.437 12.6127 14.338 12.0547 13.399C11.6607 12.819 11.2651 12.239 10.8677 11.659C10.7207 11.4403 10.5707 11.2236 10.4177 11.009C10.3707 10.967 10.3707 10.969 11.9647 13.674C12.1697 14.124 12.0807 14.346 12.0357 14.459C12.0252 14.48 12.0184 14.5027 12.0157 14.526C12.0157 14.689 11.9697 14.775 11.7567 15C11.4027 15.375 11.2447 15.796 11.1297 16.669C11.0027 17.646 10.6427 18.336 9.64373 19.517C9.05973 20.209 8.96373 20.337 8.81573 20.615C8.63073 20.965 8.57973 21.162 8.55873 21.605C8.53673 22.075 8.57873 22.377 8.73073 22.825C8.86173 23.217 9.00073 23.477 9.35273 23.995C9.65673 24.442 9.83273 24.775 9.83273 24.905C9.83273 25.007 9.85273 25.008 10.3247 24.907C11.4527 24.665 12.3677 24.24 12.8837 23.719C13.2027 23.396 13.2777 23.219 13.2797 22.776C13.2807 22.486 13.2697 22.426 13.1877 22.26C13.0547 21.99 12.8097 21.764 12.2727 21.416C11.5677 20.958 11.2657 20.591 11.1827 20.084C11.1147 19.669 11.1947 19.376 11.5827 18.601C11.9877 17.798 12.0877 17.455 12.1557 16.647C12.1997 16.124 12.2597 15.918 12.4177 15.753C12.5827 15.58 12.7307 15.522 13.1397 15.469C13.8057 15.383 14.2297 15.219 14.5787 14.914C14.8807 14.649 15.0077 14.395 15.0267 14.011L15.0407 13.721L14.8727 13.534C14.2597 12.857 8.34973 8 8.31273 8C8.30473 8 8.50573 8.24 8.75973 8.532C11.0247 11.142 12.7647 12.607 13.5997 13.312ZM10.1747 22.136C10.2407 22.0239 10.2604 21.8904 10.2296 21.764C10.1988 21.6376 10.1199 21.5282 10.0097 21.459C9.78973 21.321 9.44973 21.386 9.44973 21.565C9.4504 21.583 9.45473 21.6007 9.46273 21.618L9.47073 21.632C9.48006 21.644 9.49073 21.6543 9.50273 21.663L9.52973 21.683L9.55473 21.695C9.67573 21.755 9.68473 21.821 9.58973 21.957C9.49273 22.095 9.49973 22.217 9.61073 22.299C9.79073 22.432 10.0427 22.359 10.1747 22.136Z" fill="white"/>
<path d="M14.1189 9.42001C14.0849 9.41001 14.1129 9.40401 14.1829 9.39401C14.4299 9.35701 15.0109 9.40601 15.4109 9.49701C16.3469 9.70801 17.1979 10.248 18.1059 11.208L18.3459 11.463L18.6919 11.411C20.1459 11.189 21.6259 11.365 22.8639 11.907C23.2039 12.057 23.7409 12.354 23.8079 12.43C23.8289 12.454 23.8679 12.611 23.8949 12.778C23.9859 13.356 23.9409 13.799 23.7549 14.13C23.7305 14.1714 23.7091 14.2145 23.6909 14.259L23.6789 14.295C23.6589 14.368 23.6729 14.426 23.7159 14.522C23.7699 14.645 23.9219 14.736 24.0719 14.735C24.3789 14.735 24.7099 14.264 24.8639 13.607L24.9249 13.347L25.0449 13.477C25.7069 14.188 26.2269 15.159 26.3159 15.849L26.3389 16.029L26.2289 15.865C26.0662 15.6131 25.8514 15.399 25.5989 15.237C25.1539 14.959 24.6839 14.864 23.4409 14.801C22.3179 14.745 21.6819 14.654 21.0519 14.459C19.9789 14.127 19.4389 13.686 18.1649 12.099C17.5989 11.394 17.2489 11.005 16.9009 10.691C16.1109 9.97701 15.3339 9.60401 14.3389 9.45701C14.2652 9.44741 14.1918 9.43507 14.1189 9.42001Z" fill="white"/>
<path d="M24.0601 11.0301C24.0901 10.5581 24.1561 10.2471 24.2921 9.96206C24.3461 9.84906 24.3961 9.75806 24.4041 9.75806C24.3953 9.82182 24.3778 9.88407 24.3521 9.94306C24.2541 10.2181 24.2371 10.5961 24.3051 11.0351C24.3921 11.5931 24.4411 11.6731 25.0611 12.2751C25.3521 12.5571 25.6911 12.9131 25.8141 13.0661L26.0371 13.3441L25.8141 13.1461C25.5411 12.9021 24.9141 12.4291 24.7741 12.3611C24.7485 12.3464 24.7208 12.3356 24.6921 12.3291H24.6701C24.6511 12.3341 24.6351 12.3471 24.6101 12.3711C24.5581 12.4211 24.5461 12.4961 24.5391 12.8501C24.5281 13.4031 24.4491 13.7571 24.2561 14.1121C24.1531 14.3041 24.1361 14.2621 24.2301 14.0461C24.3001 13.8841 24.3081 13.8141 24.3071 13.2791C24.3061 12.2041 24.1711 11.9451 23.3831 11.5031C23.1454 11.3707 22.901 11.2505 22.6511 11.1431C22.5286 11.0959 22.4093 11.0408 22.2941 10.9781C22.3161 10.9561 23.0851 11.1691 23.3951 11.2831C23.8551 11.4511 23.9311 11.4731 23.9871 11.4521C24.0241 11.4391 24.0431 11.3351 24.0611 11.0311M14.0481 10.2061C13.9741 11.0361 14.3171 12.1461 14.8711 12.8701C15.3011 13.4321 15.9661 13.8671 16.4581 13.9101C16.7801 13.9371 16.8771 13.8411 16.7311 13.6401C16.5291 13.3601 16.2801 12.9281 16.2141 12.7441C16.1386 12.4954 16.0729 12.2439 16.0171 11.9901C15.7851 10.9671 15.5591 10.5701 15.0341 10.2671C14.8421 10.1571 14.4341 10.0121 14.1971 9.97106L14.0711 9.94906L14.0481 10.2061ZM23.3901 18.2591C20.8001 17.2691 19.8881 16.4101 19.8881 14.9611C19.8881 14.7481 19.8961 14.5741 19.9051 14.5741C19.9141 14.5741 20.0151 14.6441 20.1281 14.7301C20.6531 15.1301 21.2411 15.3001 22.8691 15.5251C23.8271 15.6581 24.3661 15.7651 24.8631 15.9221C26.4441 16.4191 27.4231 17.4291 27.6551 18.8041C27.7231 19.2041 27.6831 19.9531 27.5741 20.3481C27.4861 20.6601 27.2221 21.2221 27.1521 21.2441C27.1414 21.2454 27.1327 21.2327 27.1261 21.2061C27.1158 21.1655 27.1097 21.1239 27.1081 21.0821C27.0821 20.5661 26.8071 20.0641 26.3451 19.6871C25.8201 19.2591 25.1151 18.9171 23.3901 18.2591ZM21.4471 18.1491C21.4831 18.2521 21.5391 18.4871 21.5721 18.6691C21.7791 19.8411 21.1321 20.7881 19.8701 21.1551C19.7772 21.1791 19.6835 21.1998 19.5891 21.2171C19.4711 21.2404 19.3531 21.2621 19.2351 21.2821L19.0021 21.3221L18.7021 21.3721C17.6721 21.5341 17.2121 21.6501 16.7501 21.8621C16.4221 22.0111 16.0251 22.2351 16.0501 22.2571C16.0541 22.2604 16.0687 22.2594 16.0941 22.2541C16.1251 22.2471 16.1691 22.2341 16.2151 22.2201C16.7981 22.0251 17.4471 21.9251 18.4321 21.8761C18.5755 21.8696 18.7188 21.8616 18.8621 21.8521L19.0491 21.8391L19.2371 21.8251L19.3221 21.8181L19.4201 21.8081C20.2971 21.7031 20.9061 21.4501 21.3791 20.9931C21.6421 20.7391 21.7991 20.5031 21.9261 20.1681C22.0061 19.9561 22.0161 19.8781 22.0171 19.5021C22.0171 19.1201 22.0071 19.0501 21.9211 18.8151C21.8071 18.5061 21.6741 18.2751 21.5041 18.0931L21.3811 17.9631L21.4471 18.1491Z" fill="white"/>
<path d="M22.7581 20.67C22.4141 19.967 22.3351 19.29 22.5231 18.657C22.5431 18.59 22.5761 18.535 22.5961 18.535C22.6239 18.5422 22.6505 18.5533 22.6751 18.568C22.7064 18.5847 22.7398 18.6047 22.7751 18.628C22.9351 18.728 23.2531 18.899 24.1001 19.338C25.1571 19.885 25.7601 20.308 26.1701 20.792C26.5281 21.216 26.7501 21.699 26.8581 22.287C26.9181 22.62 26.8831 23.423 26.7931 23.759C26.5081 24.817 25.8481 25.649 24.9051 26.134C24.8165 26.1827 24.7248 26.226 24.6301 26.264C24.6268 26.264 24.6278 26.255 24.6331 26.237L24.6451 26.205C24.6641 26.155 24.6991 26.079 24.7411 25.995C25.0591 25.365 25.0951 24.754 24.8551 24.072C24.7081 23.656 24.4091 23.147 23.8051 22.287C23.1031 21.287 22.9301 21.022 22.7581 20.669M16.2771 22.971C15.1871 23.139 13.9921 23.686 13.0311 24.456L12.7451 24.686L12.9951 24.723C14.3081 24.916 14.6621 25.089 15.5721 25.979C16.0961 26.491 16.2721 26.605 16.7071 26.71C17.3451 26.865 17.9741 26.58 18.1901 26.04C18.2861 25.799 18.2731 25.4 18.1631 25.199C17.9001 24.721 17.1331 24.566 16.7631 24.916C16.4541 25.208 16.5441 25.648 16.9281 25.723C17.0151 25.74 17.0131 25.736 16.9051 25.69C16.7371 25.618 16.6651 25.518 16.6631 25.359C16.6611 24.986 17.1111 24.776 17.5301 24.956C17.8361 25.086 17.9581 25.258 17.9581 25.559C17.9581 26.021 17.5431 26.371 17.0601 26.313C16.7795 26.2713 16.5192 26.1422 16.3161 25.944C15.8901 25.488 16.0561 24.766 16.6511 24.489C17.1041 24.279 17.7061 24.331 18.1731 24.621C18.7081 24.954 18.9371 25.258 19.3981 26.258C19.5491 26.583 19.7421 26.95 19.8291 27.073C20.2671 27.693 20.7901 27.999 21.4221 27.999C21.7701 27.999 22.0321 27.939 22.3621 27.782C22.6061 27.666 22.9531 27.446 22.9281 27.422C22.8507 27.4355 22.7752 27.4579 22.7031 27.489C22.0131 27.744 21.3131 27.726 20.9051 27.443C20.6491 27.265 20.4431 26.911 20.3361 26.468C20.2865 26.2175 20.2415 25.9662 20.2011 25.714C20.0601 24.858 19.9241 24.474 19.6071 24.033C19.2831 23.581 18.6601 23.201 17.9631 23.033C17.5281 22.927 16.7461 22.898 16.2771 22.971Z" fill="white"/>
<path fill-rule="evenodd" clip-rule="evenodd" d="M14.751 16.356C14.845 16.026 15.149 15.712 15.461 15.621C15.66 15.563 16.071 15.6 16.264 15.693C16.639 15.874 16.911 16.285 16.852 16.583C16.78 16.945 16.16 17.234 15.448 17.238C15.085 17.242 14.95 17.195 14.812 17.019C14.726 16.909 14.693 16.556 14.751 16.356ZM16.17 15.822C16.356 15.93 16.404 16.091 16.295 16.238C16.219 16.34 15.985 16.438 15.813 16.438C15.557 16.438 15.276 16.264 15.276 16.106C15.276 15.787 15.814 15.616 16.17 15.822Z" fill="white"/>
</svg>
