<svg width="24" height="24" viewBox="0 0 24 24" fill="none" xmlns="http://www.w3.org/2000/svg">
<circle cx="12" cy="12" r="12" fill="#22A079"/>
<path fill-rule="evenodd" clip-rule="evenodd" d="M13.3196 9.18281V10.7782L13.3214 10.7799C16.2776 10.9163 18.5 11.5051 18.5 12.2078C18.5 12.9123 16.2776 13.4994 13.3214 13.6358V18.75H10.6873V13.6358C7.72754 13.4976 5.5 12.9106 5.5 12.2061C5.5 11.5017 7.72582 10.9146 10.6873 10.7782V9.18281H7.0436V6.75H16.9633V9.18281H13.3196ZM13.3196 13.1973V13.199V13.2007C15.9296 13.0833 17.878 12.6275 17.878 12.0819C17.878 11.5363 15.9313 11.0805 13.3196 10.963V12.7449C13.2438 12.7518 12.8372 12.7863 12.0241 12.7863C11.347 12.7863 10.856 12.757 10.6855 12.7449V10.9613C8.07032 11.077 6.1167 11.5346 6.1167 12.0802C6.1167 12.6275 8.06859 13.0833 10.6855 13.199V13.1973C10.8543 13.2059 11.3315 13.2249 12.012 13.2249C12.8631 13.2249 13.2455 13.2025 13.3196 13.1973Z" fill="white"/>
</svg>
