<svg width="24" height="24" xmlns="http://www.w3.org/2000/svg"
  xml:space="preserve" x="0" y="0" version="1.1" viewBox="0 0 642 649">
  <style>
    .st0 {
      fill: #f00500
    }

    .st1 {
      fill: #fff
    }

    .st2 {
      fill: none
    }

    .st4 {
      fill: #ff9300
    }

    .st5 {
      fill: #ff8300
    }
  </style>

  <g id="Group_938" transform="translate(-953 -232)">
    <g id="Group_931">
      <path id="Path_8573"
        d="M1423 289c-16 17-32 35-45 54l-5-1a312 312 0 0 0-198 0l-3 1c-14-19-30-37-47-54a327 327 0 0 1 294-2l4 2z"
        class="st0" />
      <path id="Path_8574"
        d="M1578 668a312 312 0 0 1-100 142 323 323 0 0 1-408 0 309 309 0 0 1-61-419 1036 1036 0 0 0 25 92c-23 47-36 93-39 141v2c-1 15 0 21 2 31 8 28 31 59 67 90 59 51 140 87 201 91a348 348 0 0 0 261-134l1-1 1-1v-1h1v-1l1-1 1-2 9-15c5-13 9-25 11-36l1-18-1-2v-8l-1-14a293 293 0 0 0-40-126v-1c3-9 15-48 25-93l1 1 1 2 13 18a312 312 0 0 1 28 263z"
        class="st0" />
      <path id="Path_8575"
        d="m1448 549-9 10c-14 10-39 19-64 24-14 2-29 3-33 1-3-2-3-3-2-6 2-8 9-16 19-24l38-23c17-9 30-14 39-16h8c2 1 4 6 4 13v21z" />
      <path id="Path_8576"
        d="M1213 582c-1 1-4 3-7 3h-20c-21-3-44-10-60-18-9-4-16-9-21-14l-3-3v-24l4-9 4-1 14 3a275 275 0 0 1 84 50c3 5 6 11 5 13z" />
      <path id="Path_8577"
        d="M1354 721a243 243 0 0 1-5 22h-7l-4 10-5 12-1 1-2-3-2-4v-27a330 330 0 0 1-92 0v15l1 14-2 2-2 3-3-6-6-15-1-3h-3l-3 1-1-4-1-7v-3l-3-2-3-3-1-2v-1h25l1 1v2h21l13 1 3-5 3-5h4v-21l-5-2c-18-8-28-17-32-28l-1-13v-13c2-5 6-9 11-10l29-1h28l3 2c4 2 6 3 8 6s3 6 3 12l-2 19-5 11c-5 7-15 13-23 16l-2 1v21h4l3 5 3 4h14l14 1 2-2 2-2h22z" />
      <path id="Path_8578"
        d="m1301 750-3 1-3-2-3-2-3 3c-6 6-6 7-8 7-3 0-3-1-7-6l-3-4-3-1h-2l-2 3-1 2h-2l-6-2-3-2v-6l27 1h27v2c0 4 0 3-5 6z" />
    </g>
    
    <path id="Path_8579"
      d="M1551 628v-2c-24-3-92-5-156 48 0 0-20-94-116-94s-132 94-132 94c-54-58-126-54-152-50v2c-1 14 0 21 2 30 8 29 31 60 67 91 59 51 140 87 201 91a348 348 0 0 0 261-134l1-1 1-1v-1h1v-1l1-1 1-2 9-15c5-13 9-25 11-36v-18zm-250 122-3 1-3-2-3-2-3 3c-6 6-6 7-8 7-3 0-3-1-7-6l-3-4-3-1h-2l-2 3-1 2h-2l-6-2-3-2v-6l27 1h27v2c0 4 0 3-5 6zm50-18-2 10h-7l-4 11-5 12-1 1-2-3-2-4v-27a330 330 0 0 1-92 0v15l1 14-2 2-2 3-3-6-6-15-1-3h-3l-3 1-1-4-1-7v-3l-3-2-3-3-1-2v-1h25l1 1v2h21l13 1 3-5 3-5h4v-21l-5-2c-18-8-28-17-32-28l-1-13v-13c2-5 6-9 11-10l29-1h28l3 2c4 2 6 3 8 6s3 6 3 12l-2 19-5 11c-5 7-15 13-23 16l-2 1v21h4l3 5 3 4h14l14 1 2-2 2-2h11l12 1c-1-1-2 4-4 10z"
      class="st1" />
    <path id="Path_8580" d="m995 624-10 2" class="st2" />
    <path id="Path_8581" d="m1560 627-9-1" class="st2" />
    <path id="Path_8582" fill="#ffa409"
      d="m1551 618-1-14a293 293 0 0 0-40-126l-1-1c3-9 16-48 26-93 14-60 22-131-4-152 0 0-46-3-108 57-16 17-32 35-45 54l-5-1a312 312 0 0 0-198 0l-3 1c-14-19-30-37-47-54-64-60-112-57-112-57-28 22-18 96-4 158a1036 1036 0 0 0 25 93c-23 47-36 93-39 141 26-4 98-8 152 50 0 0 35-94 131-94s117 94 117 94c64-52 132-51 156-48v-8zm-497-175s-37-93-28-147c2-9 5-17 9-23 0 0 43 5 111 81 0 0-13 6-30 19-19 15-43 38-62 70zm159 139c-1 1-4 3-7 3h-20c-21-3-44-10-60-18-9-4-16-9-21-14l-3-3v-24l4-9 4-1 14 3a275 275 0 0 1 84 50c3 5 6 11 5 13zm235-33-9 10c-14 10-39 19-64 24-14 2-29 3-33 1-3-2-3-3-2-6 2-8 9-16 19-24l38-23c17-9 30-14 39-16h8c2 1 4 6 4 13v21zm-16-176h-1c-16-13-29-20-29-20 66-76 107-80 107-80 4 6 7 14 9 23 9 53-27 147-27 147-15-27-35-51-59-70z" />
    <path id="Path_8583" d="m1378 343-1 1" class="st2" />
    <path id="Path_8584" d="m1509 477-1 2" class="st2" />
    <g id="Group_934">
      <g id="Group_933">
        <g id="Group_932">
          <path id="Path_8585"
            d="M1518 296c-8-1-45-1-86 77h-1c-16-13-29-20-29-20 66-76 107-80 107-80 5 6 8 14 9 23z"
            class="st4" />
        </g>
        <path id="Path_8586"
          d="M1491 443c-15-27-35-51-59-70 41-78 78-78 86-77 9 54-27 147-27 147z"
          class="st5" />
        <path id="Path_8587" d="M1520 296h-2 2z" class="st5" />
      </g>
    </g>
    <path id="Path_8588" d="m1175 347-3-4" class="st2" />
    <path id="Path_8589" d="m1035 481 2 5" class="st2" />
    <g id="Group_937">
      <g id="Group_936">
        <g id="Group_935">
          <path id="Path_8590"
            d="M1146 353s-13 7-30 20c-44-78-82-78-90-77 2-9 5-17 9-23 0 0 43 4 111 80z"
            class="st4" />
        </g>
        <path id="Path_8591"
          d="M1116 373c-19 15-43 38-62 70 0 0-37-93-28-147 8-1 46-1 90 77z"
          class="st5" />
        <path id="Path_8592" d="M1026 296h-2 2z" class="st5" />
      </g>
    </g>
    <path id="Path_8593"
      d="M1390 495s-32 2-28-23 29-28 36-27 35 11 30 32-12 17-16 18h-22z"
      class="st1" />
    <path id="Path_8594"
      d="M1154 495s-32 2-28-23 29-28 36-27 35 11 30 32-12 17-16 18h-22z"
      class="st1" />
  </g>
</svg>