<svg width="24" height="24" viewBox="0 0 24 24" fill="none" xmlns="http://www.w3.org/2000/svg">
<circle cx="12" cy="12" r="12" fill="#0033AD"/>
<path d="M8.08253 11.9389C8.04554 12.5927 8.53756 13.1533 9.18189 13.1915H9.24566C9.88128 13.1907 10.3994 12.674 10.4111 12.0293C10.4228 11.3845 9.92376 10.8488 9.2886 10.8244C8.65343 10.7999 8.11582 11.2957 8.07935 11.9395L8.08253 11.9389Z" fill="white"/>
<path d="M3.73119 11.6385C3.52345 11.6268 3.34559 11.788 3.33386 11.9988C3.32213 12.2095 3.48096 12.3901 3.68869 12.4021C3.89641 12.4141 4.07443 12.253 4.08638 12.0423C4.09229 11.9409 4.05814 11.8413 3.99148 11.7655C3.92482 11.6897 3.83115 11.6441 3.73119 11.6385Z" fill="white"/>
<path d="M8.00853 5.06731C8.19352 4.97093 8.26684 4.74092 8.17253 4.55289C8.07821 4.36485 7.85178 4.28961 7.6661 4.38461C7.48043 4.47961 7.40544 4.70907 7.49839 4.89781C7.5436 4.9892 7.62289 5.05851 7.71867 5.09033C7.81446 5.12216 7.9188 5.11387 8.00853 5.06731Z" fill="white"/>
<path d="M9.19263 7.16217C9.47998 7.0151 9.59545 6.65957 9.45057 6.36799C9.30569 6.07642 8.9553 5.95917 8.66789 6.10609C8.38047 6.25302 8.26482 6.60849 8.40956 6.90014C8.47911 7.04028 8.60071 7.14664 8.74758 7.19578C8.89445 7.24493 9.05455 7.23283 9.19263 7.16217Z" fill="white"/>
<path d="M5.20809 8.60299C5.37042 8.71129 5.58106 8.70968 5.74176 8.59892C5.90245 8.48815 5.98153 8.29006 5.9421 8.09705C5.90267 7.90405 5.75249 7.75417 5.56164 7.71734C5.37079 7.68051 5.17687 7.76399 5.07036 7.92883C4.92511 8.15363 4.98674 8.4553 5.20809 8.60299Z" fill="white"/>
<path d="M5.91769 11.4231C5.59639 11.4047 5.3212 11.654 5.30296 11.98C5.28471 12.3059 5.53032 12.5852 5.85161 12.6039C6.1729 12.6225 6.44826 12.3734 6.46673 12.0474C6.48486 11.7212 6.23915 11.4418 5.91769 11.4231Z" fill="white"/>
<path d="M5.27174 15.3988C5.03511 15.5201 4.9402 15.8131 5.05972 16.0532C5.17924 16.2934 5.46796 16.3897 5.70466 16.2685C5.94136 16.1474 6.03645 15.8544 5.91707 15.6143C5.8597 15.4988 5.75946 15.4113 5.63842 15.3708C5.51738 15.3304 5.38547 15.3405 5.27174 15.3988Z" fill="white"/>
<path d="M7.53734 10.2011C7.85427 10.4118 8.27956 10.322 8.48729 10.0005C8.69502 9.67895 8.60653 9.24744 8.28964 9.03665C7.97276 8.82587 7.54745 8.9156 7.33966 9.23709C7.23969 9.39146 7.20434 9.57985 7.24143 9.76069C7.27851 9.94154 7.38498 10.1 7.53734 10.2011Z" fill="white"/>
<path d="M14.7254 7.11572C14.9952 7.2943 15.3567 7.21719 15.5328 6.94347C15.7089 6.66975 15.633 6.30302 15.3633 6.12426C15.0935 5.94551 14.732 6.02238 14.5558 6.29599C14.4709 6.42744 14.4411 6.58777 14.4729 6.74158C14.5047 6.89538 14.5956 7.03 14.7254 7.11572Z" fill="white"/>
<path d="M15.9216 5.02709C16.0493 5.11204 16.2149 5.11053 16.3411 5.02326C16.4673 4.936 16.5293 4.78017 16.4981 4.62848C16.4668 4.47679 16.3486 4.35913 16.1985 4.33039C16.0485 4.30165 15.8961 4.3675 15.8125 4.49721C15.6986 4.67411 15.7474 4.91123 15.9216 5.02709Z" fill="white"/>
<path d="M14.8173 10.8118C14.1737 10.7743 13.6219 11.2732 13.585 11.9262C13.548 12.5792 14.0398 13.139 14.6834 13.1765C14.7057 13.1765 14.7286 13.1765 14.751 13.1765C15.2109 13.1763 15.6278 12.902 15.8156 12.476C16.0034 12.0501 15.9271 11.5519 15.6207 11.2039C15.4156 10.9691 15.1261 10.8279 14.8173 10.8118Z" fill="white"/>
<path d="M9.57603 10.119C9.77363 10.5195 10.1778 10.7719 10.6193 10.7705C11.025 10.7706 11.4017 10.5569 11.6142 10.2063C11.8267 9.85556 11.8445 9.41808 11.6612 9.0508C11.4623 8.65213 11.0584 8.40169 10.618 8.40382C10.2135 8.40452 9.83825 8.61754 9.62603 8.96686C9.41381 9.31619 9.3949 9.75207 9.57603 10.119Z" fill="white"/>
<path d="M18.7266 8.60166C18.9633 8.48048 19.0584 8.18764 18.9391 7.94745C18.8198 7.70727 18.5312 7.61064 18.2944 7.73158C18.0576 7.85252 17.9622 8.14527 18.0813 8.38557C18.2008 8.62591 18.4896 8.72262 18.7266 8.60166Z" fill="white"/>
<path d="M15.7673 8.97892C15.4289 9.15187 15.2927 9.57043 15.4631 9.91381C15.6336 10.2572 16.0461 10.3954 16.3846 10.2224C16.723 10.0495 16.8592 9.63092 16.6887 9.28753C16.607 9.12251 16.464 8.99724 16.2911 8.93935C16.1182 8.88146 15.9298 8.8957 15.7673 8.97892Z" fill="white"/>
<path d="M11.9553 4.84859C12.1493 4.85979 12.3307 4.75135 12.4151 4.57384C12.4995 4.39632 12.4702 4.18471 12.3408 4.03771C12.2114 3.89071 12.0075 3.83727 11.8241 3.90233C11.6408 3.96738 11.5141 4.13811 11.5032 4.33488C11.4884 4.60337 11.6907 4.8333 11.9553 4.84859Z" fill="white"/>
<path d="M11.9502 7.91467C12.3284 7.93619 12.6523 7.64263 12.6737 7.25889C12.695 6.87515 12.4059 6.54645 12.0276 6.52458C11.6494 6.50272 11.3253 6.79598 11.3036 7.1797C11.2822 7.56378 11.5717 7.89278 11.9502 7.91467Z" fill="white"/>
<path d="M8.23235 15.0212C8.48017 14.8944 8.62832 14.6286 8.6077 14.3478C8.58707 14.067 8.40174 13.8265 8.13813 13.7383C7.87452 13.6502 7.58456 13.7319 7.40348 13.9453C7.22239 14.1587 7.18585 14.4618 7.3109 14.7132C7.48159 15.0563 7.89407 15.1942 8.23235 15.0212Z" fill="white"/>
<path d="M12.3933 8.93032C12.1005 9.38362 12.1485 9.98074 12.5097 10.38C12.871 10.7792 13.4533 10.8786 13.9234 10.6213C14.3935 10.3639 14.6314 9.81563 14.501 9.29009C14.3705 8.76454 13.905 8.39596 13.3709 8.39526C12.9769 8.39499 12.6094 8.59615 12.3933 8.93032Z" fill="white"/>
<path d="M14.4224 13.8817C14.1637 13.3612 13.5699 13.1092 13.0229 13.2878C12.4759 13.4664 12.1385 14.0225 12.2276 14.5984C12.3167 15.1744 12.8058 15.5988 13.3804 15.5988C13.5631 15.5976 13.743 15.5533 13.9059 15.4694C14.4796 15.1748 14.7105 14.465 14.4224 13.8817Z" fill="white"/>
<path d="M16.4617 13.7988C16.1449 13.5878 15.7195 13.6774 15.5116 13.9988C15.3036 14.3202 15.3918 14.7518 15.7086 14.9628C16.0254 15.1738 16.4508 15.0842 16.6587 14.7628C16.8659 14.4413 16.7778 14.0103 16.4617 13.7988Z" fill="white"/>
<path d="M18.696 12.0204C18.7141 11.6944 18.4684 11.4152 18.1471 11.3967C17.8258 11.3782 17.5506 11.6274 17.5322 11.9534C17.5139 12.2794 17.7594 12.5587 18.0807 12.5775C18.4021 12.5959 18.6775 12.3466 18.696 12.0204Z" fill="white"/>
<path d="M20.3108 11.5993C20.1584 11.5904 20.0157 11.6755 19.9492 11.815C19.8828 11.9545 19.9057 12.1208 20.0073 12.2365C20.1089 12.3521 20.2691 12.3943 20.4133 12.3433C20.5575 12.2924 20.6573 12.1583 20.666 12.0036C20.6776 11.7926 20.5188 11.6118 20.3108 11.5993Z" fill="white"/>
<path d="M18.7904 15.3971C18.5686 15.2497 18.2711 15.3126 18.1257 15.5376C17.9804 15.7626 18.0423 16.0645 18.264 16.212C18.4858 16.3595 18.7834 16.2968 18.9288 16.0719C18.9987 15.9638 19.0234 15.8319 18.9974 15.7054C18.9715 15.5788 18.897 15.4679 18.7904 15.3971Z" fill="white"/>
<path d="M8.07757 18.973C7.90328 18.8569 7.66928 18.9062 7.55488 19.083C7.44048 19.2598 7.489 19.4973 7.66325 19.6134C7.8375 19.7295 8.07152 19.6803 8.18598 19.5035C8.24097 19.4186 8.26044 19.315 8.24011 19.2155C8.21978 19.116 8.16131 19.0287 8.07757 18.973Z" fill="white"/>
<path d="M15.9898 18.9328C15.8535 19.0025 15.7719 19.1488 15.7833 19.3033C15.7946 19.4578 15.8966 19.5901 16.0416 19.6386C16.1866 19.6871 16.3461 19.6422 16.4458 19.5248C16.5454 19.4074 16.5656 19.2406 16.4968 19.1023C16.4518 19.0115 16.3731 18.9426 16.278 18.9108C16.1829 18.879 16.0792 18.8869 15.9898 18.9328Z" fill="white"/>
<path d="M11.605 15.0678C11.8978 14.6145 11.8498 14.0173 11.4885 13.618C11.1271 13.2188 10.5447 13.1195 10.0746 13.377C9.60455 13.6345 9.3668 14.183 9.49748 14.7085C9.62816 15.2341 10.0939 15.6025 10.6281 15.6029C11.0221 15.6042 11.39 15.4028 11.605 15.0678Z" fill="white"/>
<path d="M9.27332 16.8851C9.00401 16.7064 8.64288 16.7829 8.46661 17.0561C8.29034 17.3293 8.36565 17.6957 8.63484 17.8746C8.90403 18.0536 9.26522 17.9773 9.44166 17.7042C9.6179 17.4308 9.54256 17.0643 9.27332 16.8851Z" fill="white"/>
<path d="M11.9943 19.1514C11.7295 19.1362 11.5027 19.3415 11.4876 19.6101C11.4725 19.8786 11.6748 20.1088 11.9395 20.1242C12.2043 20.1396 12.4312 19.9344 12.4464 19.6658C12.4537 19.5367 12.4102 19.41 12.3254 19.3136C12.2406 19.2171 12.1215 19.1588 11.9943 19.1514Z" fill="white"/>
<path d="M11.9993 16.086C11.722 16.0689 11.4619 16.2231 11.3405 16.4766C11.2191 16.73 11.2603 17.0328 11.4448 17.2434C11.6294 17.454 11.9209 17.531 12.1832 17.4383C12.4455 17.3457 12.6269 17.1017 12.6427 16.8203C12.6644 16.4374 12.3766 16.1089 11.9993 16.086Z" fill="white"/>
<path d="M14.8056 16.8377C14.595 16.9461 14.4696 17.1726 14.4878 17.4114C14.5061 17.6503 14.6645 17.8544 14.889 17.9286C15.1135 18.0027 15.36 17.9322 15.5133 17.75C15.6666 17.5679 15.6966 17.3099 15.5893 17.0965C15.5193 16.9566 15.3973 16.8507 15.2503 16.8022C15.1033 16.7536 14.9433 16.7664 14.8056 16.8377Z" fill="white"/>
</svg>
