<svg width="24" height="24" viewBox="0 0 32 32" fill="none"
  xmlns="http://www.w3.org/2000/svg">
  <g clip-path="url(#clip0_1_985)">
    <path
      d="M16 32C24.8366 32 32 24.8366 32 16C32 7.16344 24.8366 0 16 0C7.16344 0 0 7.16344 0 16C0 24.8366 7.16344 32 16 32Z"
      fill="#42C1CA" />
    <path
      d="M15.932 12.908C16.304 11.345 16.752 9.94001 17.228 9.02301C17.403 8.58501 18.113 7.53601 18.892 6.84301C20.189 5.68801 21.644 5.39501 23.159 6.34601C23.932 6.83101 24.242 7.33001 24.106 7.80001C24.006 8.15001 23.623 8.43001 23.418 8.40101C23.118 8.43101 22.816 8.37101 22.528 8.15901C22.2855 7.97226 22.0985 7.72301 21.987 7.43801C21.775 6.93801 21.497 6.76801 21.156 6.80801C20.909 6.83601 20.622 6.99401 20.531 7.10001L20.296 7.36001C20.1133 7.55453 19.9512 7.76732 19.812 7.99501C19.336 8.78801 18.897 10.241 18.288 13.252L22.324 13.843L22.102 15.46L18.006 14.86L17.831 15.924L17.786 16.19C17.762 16.328 17.736 16.478 17.706 16.638L21.842 17.244L21.605 18.859L17.372 18.239C16.883 20.317 16.239 22.544 15.784 23.423C15.608 23.862 14.899 24.909 14.12 25.603C12.823 26.757 11.368 27.051 9.85301 26.1C9.08001 25.615 8.77001 25.115 8.90601 24.645C9.00601 24.295 9.38901 24.016 9.59401 24.045C9.89401 24.015 10.196 24.075 10.484 24.286C10.706 24.45 10.89 24.688 11.025 25.008C11.237 25.507 11.515 25.678 11.856 25.638C12.103 25.609 12.39 25.451 12.481 25.345C13.388 24.335 14.107 22.389 15.016 17.895L10.98 17.303L11.202 15.686L15.298 16.286L15.474 15.223C15.5129 14.9842 15.5546 14.7458 15.599 14.508L11.479 13.905L11.715 12.29L15.932 12.908Z"
      fill="white" />
  </g>
</svg>