<svg width="76" height="62" viewBox="0 0 76 62" fill="none" xmlns="http://www.w3.org/2000/svg">
<path fill-rule="evenodd" clip-rule="evenodd" d="M63.762 5.81614C64.9038 8.05706 64.9038 10.9906 64.9038 16.8577V16.858L62.2401 19.1248C61.8915 19.4215 61.6906 19.8563 61.6906 20.3141V42.8151C61.6906 43.2729 61.8915 43.7077 62.2401 44.0044L64.902 46.2696C64.8883 50.876 64.7708 53.3964 63.762 55.3762C62.7576 57.3474 61.155 58.95 59.1839 59.9544C56.9429 61.0962 54.0094 61.0962 48.1423 61.0962H43.231H37.2537H31.2763H22.6273C20.3637 61.0962 19.232 61.0962 18.1531 60.8664C17.196 60.6626 16.2722 60.3257 15.4086 59.8656C14.4351 59.3468 13.5691 58.6182 11.8369 57.161L9.97105 55.5913L9.97102 55.5913C7.77573 53.7444 6.67808 52.821 5.88919 51.6922C5.19018 50.692 4.67129 49.5774 4.35592 48.3986C4 47.0683 4 45.6339 4 42.765V29.355C4 19.1135 4 13.9927 5.99314 10.0809C7.74635 6.64006 10.5439 3.84254 13.9847 2.08933C17.8965 0.0961914 23.0173 0.0961914 33.2588 0.0961914H48.1423C54.0094 0.0961914 56.9429 0.0961914 59.1839 1.238C61.155 2.24236 62.7576 3.84497 63.762 5.81614Z" fill="#627EEB"/>
<rect x="71.5547" y="4.48779" width="3.90409" height="3.91026" rx="1.56164" fill="#627EEB"/>
<rect x="59.8047" y="30.3076" width="3.90409" height="3.91026" rx="1.56164" fill="white"/>
<path d="M1.45312 23.0674V37.9141" stroke="white" stroke-width="1.56164" stroke-linecap="round"/>
<path d="M34.757 46.2327C43.3816 46.2327 50.3733 39.241 50.3733 30.6164C50.3733 21.9917 43.3816 15 34.757 15C26.1323 15 19.1406 21.9917 19.1406 30.6164C19.1406 39.241 26.1323 46.2327 34.757 46.2327Z" fill="#627EEB"/>
<path d="M34.5722 20.2041L34.4297 20.6706V34.1915L34.5722 34.3291L41.0764 30.6193L34.5722 20.2041Z" fill="#BFCDFA"/>
<path d="M34.5677 20.2041L28.0625 30.6193L34.5677 34.3291V20.2041Z" fill="white"/>
<path d="M34.5722 35.5185L34.4922 35.6122V40.4298L34.5722 40.6543L41.0803 31.8096L34.5722 35.5185Z" fill="#BFCDFA"/>
<path d="M34.5677 40.6543V35.5174L28.0625 31.8096L34.5677 40.6543Z" fill="white"/>
<path d="M34.5703 34.3313L41.0745 30.6215L34.5703 27.7686V34.3313Z" fill="#8199EF"/>
<path d="M28.0625 30.6215L34.5666 34.3313V27.7686" fill="#C5CAF4"/>
</svg>
