<svg width="25" height="24" viewBox="0 0 25 24" fill="none" xmlns="http://www.w3.org/2000/svg">
<rect x="0.332031" width="24" height="24" rx="12" fill="black"/>
<path d="M9.35924 10.8615L12.4726 7.74806L15.5875 10.8628L17.399 9.05127L12.4726 4.125L7.54784 9.0498L9.3593 10.8613L9.35924 10.8615ZM4.45703 12.1406L6.26862 10.3288L8.08008 12.1402L6.26849 13.9518L4.45703 12.1406ZM9.35924 13.42L12.4726 16.5332L15.5874 13.4185L17.3999 15.2291L17.399 15.23L12.4726 20.1562L7.54784 15.2315L7.54528 15.2289L9.35943 13.4198L9.35924 13.42ZM16.8652 12.1414L18.6768 10.3298L20.4882 12.1413L18.6767 13.9529L16.8652 12.1414Z" fill="#F3BA2F"/>
<path d="M14.3093 12.139H14.3101L12.472 10.3008L11.1134 11.659L10.9573 11.8152L10.6354 12.1371L10.6328 12.1396L10.6354 12.1423L12.472 13.9791L14.3102 12.1409L14.3111 12.1399L14.3094 12.139" fill="#F3BA2F"/>
</svg>
