<svg width="24" height="24" viewBox="0 0 24 24" fill="none" xmlns="http://www.w3.org/2000/svg">
<circle cx="12" cy="12" r="12" fill="black"/>
<path d="M11.9515 19.9875V19.8806C11.9515 18.2419 11.9515 16.6031 11.9354 14.9644C11.9354 14.8219 11.9034 14.8575 12.0316 14.7684C12.3683 14.5547 12.6248 14.3766 12.9775 14.145L15.7028 12.3816C15.7348 12.3637 15.7509 12.3459 15.799 12.3281V17.3334C15.815 17.4403 15.7509 17.5472 15.6707 17.6006C14.4363 18.3844 13.2981 19.1325 12.0477 19.934C12.0156 19.9519 11.9835 19.9697 11.9515 19.9875Z" fill="#00E3CC"/>
<path d="M16.1198 17.2973V17.1726L16.1038 12.6839C16.1038 12.5236 16.1038 12.3633 16.1038 12.2208C16.1038 12.1673 16.1198 12.1139 16.1679 12.0783C16.6488 11.7755 17.1298 11.4548 17.6107 11.152L19.5344 9.90515C19.6627 9.8339 19.7749 9.76265 19.9032 9.6914C19.9352 9.67358 19.9673 9.67358 19.9993 9.67358C19.9993 9.72702 19.9993 9.74483 19.9993 9.78046V14.6967C19.9993 14.8392 20.0154 14.8036 19.9032 14.8926L16.3763 17.1726C16.3122 17.2082 16.248 17.2439 16.1999 17.2973C16.1839 17.2617 16.1679 17.2795 16.1198 17.2973Z" fill="#00E3CC"/>
<path d="M7.84749 12.0252V16.9236C7.86352 17.0305 7.79939 17.1195 7.71924 17.1551C7.57496 17.2264 7.41465 17.2264 7.25433 17.173C7.15815 17.1373 7.06196 17.0839 6.96577 17.0305L6.2604 16.5673C6.21231 16.5317 6.16421 16.4961 6.11612 16.4605L5.18631 15.8726C5.04203 15.7836 4.89775 15.6945 4.75347 15.5876C4.57712 15.463 4.43284 15.3205 4.30459 15.1245C4.20841 14.982 4.12825 14.8395 4.06412 14.6792C4.03206 14.608 4 14.4833 4 14.3408V10.137C4 10.048 4.03206 10.0302 4.09619 10.0658C4.20841 10.137 4.32062 10.1905 4.41681 10.2617L5.85962 11.188L6.91768 11.8648C6.93371 11.8648 6.94974 11.8827 6.94974 11.9005C7.14212 12.0252 7.38258 12.0964 7.60702 12.0608C7.70321 12.0608 7.76733 12.043 7.84749 12.0252Z" fill="#FBE204"/>
<path d="M11.6149 19.9854C11.5187 19.932 11.4065 19.8786 11.3424 19.8429C10.9256 19.5758 10.605 19.362 10.1881 19.0948L9.14612 18.4179C8.96977 18.3111 8.79343 18.1686 8.63312 18.0261C8.44075 17.8479 8.3125 17.5986 8.23234 17.3314C8.23234 17.2958 8.21631 17.2601 8.21631 17.2245V12.6111L8.36059 12.7358C8.53693 12.8783 8.71328 13.003 8.88962 13.1098C9.78737 13.6976 10.637 14.2142 11.5348 14.7842C11.5829 14.802 11.5989 14.8555 11.5989 14.9089V15.0158V19.8429L11.6149 19.9854Z" fill="#FBE204"/>
<path d="M7.79956 6.52046L7.9759 6.41359L8.90571 5.80796C8.93778 5.79015 8.98587 5.79015 9.03396 5.82578L10.6371 6.84109C10.7653 6.93015 10.9096 7.01921 11.0379 7.09046C11.0699 7.10827 11.118 7.12608 11.1501 7.12608C11.1821 7.12608 11.2142 7.10827 11.2302 7.05484C11.2463 7.01921 11.2302 6.98359 11.2142 6.96577C11.1821 6.94796 11.1501 6.91234 11.1341 6.89452L9.48284 5.82578L9.24237 5.68328C9.22634 5.66546 9.21031 5.64765 9.17824 5.62984C9.19427 5.61203 9.22634 5.59421 9.24237 5.5764L10.3966 4.82828C10.4447 4.79265 10.5088 4.79265 10.5569 4.82828C11.1821 5.23796 11.8074 5.62984 12.4486 6.03953C12.4807 6.05734 12.5288 6.09296 12.5608 6.11077C12.6089 6.12859 12.673 6.11077 12.6891 6.05734C12.7211 6.0039 12.6891 5.93265 12.641 5.91484L12.144 5.59421L10.7653 4.7214C10.7493 4.70359 10.7172 4.70359 10.7172 4.65015L10.8776 4.54328C11.1501 4.36516 11.4066 4.20484 11.6791 4.02672C11.7272 3.99109 11.7913 3.99109 11.8394 4.02672C12.128 4.22266 12.4165 4.40078 12.7051 4.5789L13.138 4.84609L13.7952 5.27359L14.2762 5.5764L15.0777 6.09296C15.1579 6.1464 15.238 6.19984 15.3182 6.25327C15.3503 6.2889 15.3823 6.32452 15.4144 6.36015C15.5106 6.48484 15.4945 6.66296 15.3823 6.75202C15.3663 6.76984 15.3503 6.76984 15.3342 6.78765C14.7731 7.1439 14.212 7.51796 13.6349 7.87421C13.2662 8.12358 12.8815 8.35514 12.5127 8.60452C12.3043 8.74702 12.0478 8.81827 11.7913 8.80045C11.615 8.80045 11.4547 8.78264 11.2783 8.72921C11.2302 8.71139 11.1821 8.69358 11.1501 8.67577L8.68128 7.09046C8.42478 6.93015 8.15225 6.75202 7.89575 6.5739C7.84765 6.55609 7.81559 6.53827 7.79956 6.52046Z" fill="#FF2199"/>
<path d="M6.24414 10.9915C6.26017 10.9737 6.29224 10.9558 6.30827 10.938L7.87932 9.94054L7.95948 9.8871C8.0236 9.85147 8.0236 9.81585 7.99154 9.7446C7.97551 9.69116 7.92742 9.65554 7.87932 9.69116C7.86329 9.70898 7.83123 9.70898 7.8152 9.72679L6.40445 10.6174L6.0197 10.8668L5.65099 10.6352L5.36243 10.4393L4.48071 9.86929L4.3204 9.76241C4.17612 9.67335 4.07993 9.51304 4.04787 9.35273C3.99977 9.19241 4.04787 9.01429 4.16009 8.90742C4.22421 8.85398 4.2723 8.80054 4.33643 8.76492C4.51277 8.64023 4.68912 8.53335 4.86546 8.42648C5.13799 8.24836 5.39449 8.07023 5.66702 7.90992C5.82733 7.80304 6.00367 7.69617 6.16399 7.58929L6.74111 7.21523C6.8373 7.1618 6.93348 7.10836 7.01364 7.03711C7.14189 6.94805 7.3022 6.91242 7.44648 6.93023C7.62282 6.94805 7.79917 7.00148 7.94345 7.10836C8.08773 7.21523 8.24804 7.3043 8.39232 7.39336L8.47248 7.4468L8.40835 7.50023L6.75714 8.56898L6.72508 8.6046C6.64492 8.65804 6.62889 8.72929 6.66095 8.78273C6.69302 8.83617 6.75714 8.85398 6.8373 8.80054L7.14189 8.6046L8.66485 7.64273C8.71295 7.60711 8.77707 7.60711 8.80913 7.64273C9.43435 8.05242 10.0756 8.44429 10.7008 8.85398C10.7649 8.8896 10.8291 8.94304 10.9092 8.97867C11.0695 9.08554 11.1337 9.3171 11.0375 9.51304C11.0214 9.53085 11.0214 9.54866 11.0054 9.56648C10.9733 9.6021 10.9413 9.63773 10.9092 9.65554C10.1718 10.1365 9.43435 10.5996 8.69691 11.0805C8.47248 11.223 8.26407 11.3655 8.03964 11.508C7.92742 11.5793 7.79917 11.6327 7.65489 11.6505C7.38236 11.704 7.10983 11.6327 6.88539 11.4546C6.69302 11.2943 6.46858 11.134 6.24414 10.9915Z" fill="#FF2199"/>
<path d="M17.995 10.4573C17.9469 10.4929 17.9308 10.5107 17.8988 10.5285L16.8247 11.2054C16.5521 11.3835 16.2956 11.5439 16.0231 11.722C15.975 11.7576 15.9269 11.7576 15.8788 11.722C15.5903 11.526 15.3017 11.3479 15.0132 11.1698L14.5803 10.867L13.7627 10.3326C13.6184 10.2435 13.4581 10.1545 13.3138 10.0476C13.1696 9.94073 12.9772 9.85167 12.8169 9.72698C12.6405 9.62011 12.5604 9.38855 12.6085 9.1748C12.6245 9.06792 12.6886 8.97886 12.7688 8.90761C13.378 8.51574 13.9872 8.12386 14.5803 7.7498L15.6544 7.05512C15.7666 6.98387 15.8949 6.94824 16.0231 6.94824H16.1514C16.1834 6.94824 16.2155 6.96605 16.2476 6.96605H16.2796C16.3918 6.98387 16.5041 7.01949 16.5842 7.09074L17.498 7.67855L17.8186 7.8923C17.9629 7.99918 17.995 8.23074 17.8988 8.39105C17.8827 8.42668 17.8507 8.4623 17.8186 8.48011C17.3697 8.76511 16.9369 9.05011 16.5041 9.33511C16.472 9.35292 16.456 9.37073 16.4239 9.38855C16.3918 9.42417 16.3758 9.4598 16.4079 9.51323C16.4239 9.54886 16.456 9.58448 16.5041 9.58448C16.5361 9.58448 16.5682 9.56667 16.6002 9.54886L17.3377 9.06792C17.5942 8.8898 17.8507 8.72949 18.1232 8.56918C18.2194 8.51574 18.3316 8.48011 18.4278 8.48011C18.4759 8.48011 18.54 8.48011 18.5881 8.48011C18.6683 8.48011 18.7324 8.49793 18.7965 8.53355L19.534 8.99667L19.8225 9.1748C19.8866 9.21042 19.8866 9.22824 19.8225 9.28167L19.037 9.78042C18.7805 9.94073 18.524 10.1189 18.2675 10.2792C18.2194 10.3148 18.1553 10.3148 18.1232 10.2792C17.995 10.1901 17.8667 10.1189 17.7545 10.0298L17.7064 9.99417C17.6583 9.97636 17.6102 9.99417 17.5781 10.0298C17.5461 10.0832 17.5621 10.1367 17.6102 10.1723L17.6904 10.2257L17.995 10.4573ZM15.943 8.92542C15.9269 8.90761 15.9269 8.8898 15.9109 8.85417C15.8949 8.83636 15.8788 8.81855 15.8628 8.81855L15.0292 8.28418C15.0132 8.26636 14.9971 8.26636 14.9811 8.24855C14.933 8.23074 14.8849 8.28418 14.8689 8.33761C14.8689 8.37324 14.8689 8.40886 14.9009 8.42668C14.917 8.44449 14.933 8.44449 14.949 8.4623L15.5582 8.85417C15.6384 8.90761 15.7346 8.96105 15.8147 9.0323C15.8628 9.05011 15.9269 9.0323 15.943 8.97886C15.943 8.97886 15.943 8.96105 15.943 8.92542Z" fill="#FF2199"/>
<path d="M14.4361 12.7555L14.3079 12.8445L13.1857 13.557C13.1536 13.5926 13.1055 13.5926 13.0574 13.557C12.817 13.3967 12.5605 13.2364 12.32 13.0761L11.1978 12.3636C11.1818 12.3458 11.1497 12.3458 11.1337 12.328C11.0856 12.2923 11.0215 12.3101 11.0054 12.3636C10.9734 12.417 10.9894 12.4883 11.0375 12.5061C11.2299 12.6308 11.4062 12.7376 11.5986 12.8623L12.817 13.6639C12.849 13.6817 12.8651 13.6995 12.8971 13.7173C12.8811 13.7351 12.849 13.753 12.817 13.7708L12.0956 14.2339C11.9994 14.3051 11.8872 14.3586 11.791 14.4298C11.7589 14.4476 11.7108 14.4476 11.6788 14.4298C10.8131 13.8776 9.94739 13.3255 9.0817 12.7733L8.5687 12.4348C8.47252 12.3814 8.39236 12.3101 8.32823 12.2211C8.28014 12.1676 8.24808 12.0786 8.24808 12.0073C8.23205 11.9005 8.29617 11.8114 8.37633 11.7758C8.60076 11.6333 8.8252 11.4908 9.04964 11.3305L11.2139 9.95891C11.3261 9.88766 11.4543 9.85203 11.5826 9.83422C11.6307 9.81641 11.6788 9.81641 11.7268 9.81641C11.9032 9.81641 12.0795 9.85203 12.2398 9.88766C12.4483 9.95891 12.6246 10.048 12.817 10.1727C13.0414 10.3152 13.2658 10.4577 13.4742 10.6002L14.9331 11.5442L15.5423 11.9361C15.5583 11.9539 15.5904 11.9717 15.6224 11.9895L15.5583 12.043C15.2858 12.2211 14.9972 12.3992 14.7247 12.5773C14.6766 12.613 14.6125 12.613 14.5644 12.5773C13.9392 12.1676 13.2979 11.758 12.6567 11.3483L12.6086 11.3127C12.5605 11.2948 12.5124 11.3127 12.4803 11.3483C12.4483 11.4017 12.4803 11.473 12.5124 11.4908C12.5765 11.5442 12.6406 11.5798 12.7208 11.6333L14.356 12.6842L14.4361 12.7555Z" fill="#FF2199"/>
<path d="M11.4863 9.0852C11.6306 9.0852 11.7749 9.0852 11.9031 9.10301C12.0314 9.12082 12.1757 9.06738 12.3039 9.06738C12.2879 9.22769 12.2879 9.38801 12.336 9.53051H12.2238C12.0955 9.51269 11.9673 9.51269 11.823 9.51269C11.7428 9.51269 11.6787 9.51269 11.5985 9.53051H11.4863C11.4863 9.45926 11.4863 9.38801 11.4863 9.31676C11.5024 9.22769 11.4863 9.15645 11.4863 9.0852Z" fill="#FF2199"/>
</svg>
