<svg width="24" height="24" viewBox="0 0 32 32" fill="none"
  xmlns="http://www.w3.org/2000/svg">
  <g clip-path="url(#clip0_1_2649)">
    <path
      d="M16 32C24.8366 32 32 24.8366 32 16C32 7.16344 24.8366 0 16 0C7.16344 0 0 7.16344 0 16C0 24.8366 7.16344 32 16 32Z"
      fill="#FF6600" />
    <path
      d="M28 16.0001C28 22.6281 22.628 28.0001 16 28.0001C9.372 28.0001 4 22.6281 4 16.0001C4 13.3191 4.881 10.8441 6.362 8.84707L8.322 10.8071C7.28134 12.3388 6.72591 14.1483 6.728 16.0001C6.728 21.1101 10.881 25.2621 15.991 25.2621C21.1 25.2621 25.253 21.1091 25.253 16.0001C25.2522 14.1484 24.697 12.3394 23.659 10.8061L25.619 8.84607C27.1697 10.9083 28.0057 13.4199 28 16.0001Z"
      fill="white" />
    <path
      d="M22.637 16C22.6351 17.7597 21.9353 19.4468 20.691 20.691C19.4467 21.9353 17.7597 22.6352 16 22.637C14.2402 22.6354 12.5528 21.9357 11.3083 20.6914C10.0638 19.4471 9.36385 17.7599 9.362 16C9.362 14.847 9.662 13.713 10.234 12.71L16 18.474L21.766 12.708C22.3377 13.7109 22.6383 14.8456 22.638 16"
      fill="white" />
    <path
      d="M23.847 6.92504L16 14.762L10.019 8.79104L8.153 6.92504C10.3282 5.03203 13.1164 3.9927 16 4.00004C19 4.00004 21.738 5.09704 23.847 6.92504Z"
      fill="white" />
  </g>
</svg>