<svg width="37" height="36" viewBox="0 0 37 36" fill="none" xmlns="http://www.w3.org/2000/svg">
<path d="M0 13.4484V30.2568C0 32.2671 0 33.2723 0.39123 34.0401C0.735366 34.7155 1.28449 35.2646 1.95989 35.6088C2.72773 36 3.73287 36 5.74317 36H22.6936C24.4425 36 25.3169 36 26.1402 35.8031C26.8701 35.6286 27.5682 35.3406 28.2089 34.9498C28.9315 34.509 29.5517 33.8925 30.7919 32.6595L32.7174 30.7452C33.9676 29.5022 34.5928 28.8808 35.0399 28.1545C35.4363 27.5106 35.7285 26.8081 35.9056 26.073C36.1055 25.2438 36.1055 24.3624 36.1055 22.5994V8.62311V5.74318C36.1055 3.73288 36.1055 2.72773 35.7142 1.95989C35.3701 1.28449 34.821 0.735366 34.1456 0.39123C33.3777 0 32.3726 0 30.3623 0H27.4318H13.4881C11.7563 0 10.8904 0 10.0742 0.193353C9.35058 0.36479 8.65796 0.64763 8.02115 1.03175C7.30294 1.46498 6.68455 2.0711 5.44777 3.28336L3.44601 5.24544C2.17476 6.49147 1.53914 7.11449 1.08433 7.84513C0.68113 8.49286 0.383762 9.20072 0.203421 9.94208C0 10.7783 0 11.6684 0 13.4484Z" fill="white"/>
<g clip-path="url(#clip0_9434_24497)">
<path d="M23.5253 9.77015L19.6955 15.4535C19.4333 15.8458 19.9439 16.3042 20.3106 15.9833L23.65 12.7099C23.7481 12.6247 23.892 12.6833 23.892 12.8272V23.0747C23.892 23.2122 23.7087 23.2708 23.6308 23.1727L12.6555 9.52723C12.4765 9.30691 12.2499 9.13001 11.9927 9.00983C11.7355 8.88965 11.4544 8.8293 11.1705 8.83332C9.99167 8.83332 8.83301 9.42915 8.83301 10.7913V25.2022C8.83573 25.6267 8.97633 26.0388 9.23362 26.3764C9.4909 26.7141 9.85094 26.9589 10.2595 27.0742C10.668 27.1894 11.103 27.1687 11.4988 27.0153C11.8945 26.8618 12.2297 26.5839 12.4538 26.2234L16.2773 20.5401C16.5394 20.1477 16.0353 19.6894 15.6686 20.0102L12.3493 23.3497C12.2513 23.4349 12.1064 23.3753 12.1064 23.2314V13.0106C12.1064 12.8667 12.2898 12.8144 12.3686 12.9125L23.3228 26.4727C23.6894 26.9247 24.2394 27.1667 24.8087 27.1667C25.9939 27.1667 27.1663 26.5772 27.1663 25.2087V10.7987C27.166 10.3705 27.0258 9.95416 26.767 9.61305C26.5082 9.27193 26.1451 9.02469 25.7328 8.90898C25.3206 8.79326 24.8819 8.81539 24.4834 8.972C24.0849 9.12862 23.7485 9.41114 23.5253 9.77657V9.77015Z" fill="black"/>
</g>
<defs>
<clipPath id="clip0_9434_24497">
<rect width="22" height="22" fill="white" transform="translate(7 7)"/>
</clipPath>
</defs>
</svg>
