<svg width="24" height="24" viewBox="0 0 464 463" fill="none"
  xmlns="http://www.w3.org/2000/svg">
  <path
    d="M232 463C262.401 463 292.504 457.012 320.591 445.378C348.678 433.744 374.198 416.692 395.695 395.195C417.192 373.698 434.244 348.178 445.878 320.091C457.512 292.004 463.5 261.901 463.5 231.5C463.5 201.099 457.512 170.996 445.878 142.909C434.244 114.822 417.192 89.3015 395.695 67.8048C374.198 46.308 348.678 29.2559 320.591 17.6219C292.504 5.98792 262.401 -6.40653e-07 232 0C170.602 1.29386e-06 111.719 24.3901 68.3048 67.8048C24.8901 111.219 0.5 170.102 0.5 231.5C0.5 292.898 24.8901 351.781 68.3048 395.195C111.719 438.61 170.602 463 232 463Z"
    fill="white" />
  <path
    d="M307 121L254 198C251 203 258 210 263 205L314 160C315 159 317 160 317 162V302C317 304 315 305 314 303L158 117C153 111 146 108 138 108H132C118 108 106 120 106 134V331C106.031 336.868 107.972 342.565 111.53 347.231C115.088 351.897 120.069 355.276 125.72 356.858C131.37 358.441 137.382 358.139 142.845 355.999C148.309 353.86 152.927 349.998 156 345L208 268C211 262 204 256 199 260L148 305C147 306 145 305 145 303V164C145 162 147 161 148 162L304 348C309 354 316 358 324 358H330C344 358 356 346 356 331V134C356 120 345 108 330 108C320 108 312 113 307 121Z"
    fill="black" />
</svg>