<svg width="37" height="36" viewBox="0 0 37 36" fill="none" xmlns="http://www.w3.org/2000/svg">
<path d="M0 13.4484V30.2568C0 32.2671 0 33.2723 0.39123 34.0401C0.735366 34.7155 1.28449 35.2646 1.95989 35.6088C2.72773 36 3.73287 36 5.74317 36H22.6936C24.4425 36 25.3169 36 26.1402 35.8031C26.8701 35.6286 27.5682 35.3406 28.2089 34.9498C28.9315 34.509 29.5517 33.8925 30.7919 32.6595L32.7174 30.7452C33.9676 29.5022 34.5928 28.8808 35.0399 28.1545C35.4363 27.5106 35.7285 26.8081 35.9056 26.073C36.1055 25.2438 36.1055 24.3624 36.1055 22.5994V8.62311V5.74318C36.1055 3.73288 36.1055 2.72773 35.7142 1.95989C35.3701 1.28449 34.821 0.735366 34.1456 0.39123C33.3777 0 32.3726 0 30.3623 0H27.4318H13.4881C11.7563 0 10.8904 0 10.0742 0.193353C9.35058 0.36479 8.65796 0.64763 8.02115 1.03175C7.30294 1.46498 6.68455 2.0711 5.44777 3.28336L3.44601 5.24544C2.17476 6.49147 1.53914 7.11449 1.08433 7.84513C0.68113 8.49286 0.383762 9.20072 0.203421 9.94208C0 10.7783 0 11.6684 0 13.4484Z" fill="black"/>
<g clip-path="url(#clip0_9434_23856)">
<path fill-rule="evenodd" clip-rule="evenodd" d="M14.505 16.56L18 13.065L21.495 16.56L23.535 14.52L18 8.98499L12.465 14.52L14.505 16.56ZM9 18L11.04 15.96L13.08 18L11.04 20.04L9 18ZM18 22.935L14.505 19.44L12.465 21.465L18 27L23.535 21.465L21.495 19.425L18 22.92V22.935ZM22.935 18L24.975 15.96L27.015 18L24.975 20.04L22.935 18ZM18 15.93L20.07 18L18 20.07L15.93 18.015L16.29 17.64L16.47 17.46L18 15.93Z" fill="#F3BA2F"/>
</g>
<defs>
<clipPath id="clip0_9434_23856">
<rect width="24" height="24" fill="white" transform="translate(6 6)"/>
</clipPath>
</defs>
</svg>
