<svg width="24" height="24" viewBox="0 0 24 24" fill="none" xmlns="http://www.w3.org/2000/svg">
<g clip-path="url(#clip0_256_16587)">
<path d="M19.4011 4.11694H4.58276V17.585H19.4011V4.11694Z" fill="white"/>
<path fill-rule="evenodd" clip-rule="evenodd" d="M23.9918 11.9997C23.9918 18.6183 18.6229 23.9837 11.9998 23.9837C5.37682 23.9837 0.0078125 18.6183 0.0078125 11.9997C0.0078125 5.38106 5.37682 0.015625 11.9998 0.015625C18.6229 0.015625 23.9918 5.38106 23.9918 11.9997ZM8.60163 16.7687H6.27432C5.78528 16.7687 5.54372 16.7687 5.39643 16.6746C5.23734 16.5715 5.14012 16.4007 5.12834 16.2123C5.11949 16.0387 5.24029 15.8266 5.48186 15.4027L11.2283 5.28054C11.4728 4.85071 11.5965 4.6358 11.7527 4.55632C11.9206 4.47094 12.1209 4.47094 12.2888 4.55632C12.445 4.6358 12.5687 4.85071 12.8132 5.28054L13.9946 7.34135L14.0006 7.35187C14.2647 7.81299 14.3986 8.04683 14.4571 8.29226C14.5219 8.56017 14.5219 8.84279 14.4571 9.1107C14.3982 9.35799 14.2656 9.59352 13.9975 10.0616L10.979 15.3938L10.9712 15.4075C10.7054 15.8724 10.5707 16.1081 10.384 16.2858C10.1807 16.4802 9.93616 16.6214 9.66808 16.701C9.42356 16.7687 9.14959 16.7687 8.60163 16.7687ZM14.4789 16.7687H17.8136C18.3056 16.7687 18.5531 16.7687 18.7005 16.6717C18.8596 16.5686 18.9597 16.3948 18.9686 16.2065C18.9771 16.0385 18.8589 15.8347 18.6274 15.4354C18.6194 15.4218 18.6114 15.408 18.6033 15.3939L16.9328 12.5382L16.9138 12.5061C16.6791 12.1094 16.5606 11.9091 16.4085 11.8317C16.2406 11.7463 16.0431 11.7463 15.8753 11.8317C15.7221 11.9111 15.5983 12.1202 15.3538 12.5412L13.6893 15.3969L13.6836 15.4067C13.44 15.827 13.3182 16.0371 13.327 16.2094C13.3388 16.3979 13.436 16.5715 13.5951 16.6746C13.7394 16.7687 13.9869 16.7687 14.4789 16.7687Z" fill="#E84142"/>
</g>
<defs>
<clipPath id="clip0_256_16587">
<rect width="24" height="24" fill="white"/>
</clipPath>
</defs>
</svg>
