<svg width="24" height="24" viewBox="0 0 32 32" fill="none"
  xmlns="http://www.w3.org/2000/svg">
  <g clip-path="url(#clip0_1_2654)">
    <path
      d="M16 32C24.8366 32 32 24.8366 32 16C32 7.16344 24.8366 0 16 0C7.16344 0 0 7.16344 0 16C0 24.8366 7.16344 32 16 32Z"
      fill="#FF6600" />
    <path
      d="M15.97 5.23499C21.955 5.23499 26.795 10.075 26.795 16.059C26.791 17.2252 26.6026 18.3835 26.237 19.491H23.011V10.397L15.971 17.437L8.931 10.397V19.491H5.704C5.33872 18.3835 5.15073 17.2252 5.147 16.059C5.147 10.075 9.986 5.23499 15.97 5.23499ZM14.358 19.02L16 20.635L17.613 19.021L20.664 15.941V21.661H25.211C24.2465 23.2472 22.8897 24.5582 21.2713 25.4676C19.6528 26.377 17.8274 26.8541 15.971 26.853C12.069 26.853 8.637 24.771 6.731 21.661H11.277V15.941L14.357 19.021L14.358 19.02Z"
      fill="white" />
  </g>
</svg>