<svg width="37" height="36" viewBox="0 0 37 36" fill="none" xmlns="http://www.w3.org/2000/svg">
<path d="M0 13.4484V30.2568C0 32.2671 0 33.2723 0.39123 34.0401C0.735366 34.7155 1.28449 35.2646 1.95989 35.6088C2.72773 36 3.73287 36 5.74317 36H22.6936C24.4425 36 25.3169 36 26.1402 35.8031C26.8701 35.6286 27.5682 35.3406 28.2089 34.9498C28.9315 34.509 29.5517 33.8925 30.7919 32.6595L32.7174 30.7452C33.9676 29.5022 34.5928 28.8808 35.0399 28.1545C35.4363 27.5106 35.7285 26.8081 35.9056 26.073C36.1055 25.2438 36.1055 24.3624 36.1055 22.5994V8.62311V5.74318C36.1055 3.73288 36.1055 2.72773 35.7142 1.95989C35.3701 1.28449 34.821 0.735366 34.1456 0.39123C33.3777 0 32.3726 0 30.3623 0H27.4318H13.4881C11.7563 0 10.8904 0 10.0742 0.193353C9.35058 0.36479 8.65796 0.64763 8.02115 1.03175C7.30294 1.46498 6.68455 2.0711 5.44777 3.28336L3.44601 5.24544C2.17476 6.49147 1.53914 7.11449 1.08433 7.84513C0.68113 8.49286 0.383762 9.20072 0.203421 9.94208C0 10.7783 0 11.6684 0 13.4484Z" fill="#F7931A"/>
<g clip-path="url(#clip0_9434_22719)">
<path d="M25.5152 16.04C25.8252 13.935 24.2312 12.812 22.0352 12.05L22.7472 9.213L21.0132 8.782L20.3222 11.549L18.9382 11.218L19.6392 8.431L17.9062 8L17.1952 10.847L16.0922 10.587V10.577L13.6962 9.975L13.2352 11.829C13.2352 11.829 14.5182 12.131 14.4982 12.14C15.2002 12.321 15.3202 12.782 15.3002 13.143L14.4982 16.391L14.6782 16.451L14.4882 16.411L13.3552 20.952C13.2752 21.163 13.0542 21.484 12.5632 21.353C12.5832 21.383 11.3102 21.053 11.3102 21.053L10.4482 23.028L12.7042 23.588L13.9372 23.91L13.2152 26.787L14.9492 27.217L15.6512 24.371L17.0442 24.731L16.3332 27.568L18.0672 28L18.7782 25.123C21.7362 25.683 23.9622 25.463 24.8942 22.786C25.6462 20.632 24.8542 19.398 23.3002 18.576C24.4332 18.326 25.2852 17.574 25.5052 16.04H25.5152ZM21.5552 21.594C21.0232 23.75 17.3952 22.576 16.2222 22.296L17.1742 18.476C18.3462 18.777 22.1162 19.348 21.5542 21.584L21.5552 21.594ZM22.0862 16.01C21.6052 17.965 18.5772 16.972 17.6052 16.732L18.4662 13.273C19.4492 13.514 22.5962 13.975 22.0862 16.01Z" fill="white"/>
</g>
<defs>
<clipPath id="clip0_9434_22719">
<rect width="24" height="24" fill="white" transform="translate(6 6)"/>
</clipPath>
</defs>
</svg>
