<svg width="24" height="24" viewBox="0 0 24 24" fill="none" xmlns="http://www.w3.org/2000/svg">
<circle cx="12" cy="12" r="12" fill="#0C192B"/>
<path d="M16.0936 4.80005C15.2712 4.79941 14.482 5.12514 13.8995 5.70575C13.3169 6.28635 12.9886 7.07438 12.9864 7.89685V11.3305C12.6664 11.3521 12.3392 11.3657 12 11.3657C11.6608 11.3657 11.3352 11.3793 11.0136 11.3984V7.89685C11.0006 7.08151 10.6675 6.30399 10.0863 5.73203C9.50506 5.16006 8.72229 4.83951 7.90685 4.83951C7.0914 4.83951 6.30864 5.16006 5.72742 5.73203C5.14621 6.30399 4.81313 7.08151 4.80005 7.89685V16.1032C4.81313 16.9186 5.14621 17.6961 5.72742 18.2681C6.30864 18.84 7.0914 19.1606 7.90685 19.1606C8.72229 19.1606 9.50506 18.84 10.0863 18.2681C10.6675 17.6961 11.0006 16.9186 11.0136 16.1032V12.6697C11.3336 12.648 11.6608 12.6344 12 12.6344C12.3392 12.6344 12.6648 12.6209 12.9864 12.6017V16.1032C12.9995 16.9186 13.3326 17.6961 13.9138 18.2681C14.495 18.84 15.2778 19.1606 16.0932 19.1606C16.9087 19.1606 17.6915 18.84 18.2727 18.2681C18.8539 17.6961 19.187 16.9186 19.2 16.1032V7.89685C19.1979 7.07452 18.8697 6.28661 18.2873 5.70603C17.7049 5.12545 16.916 4.79962 16.0936 4.80005ZM7.90645 6.06885C8.39185 6.06864 8.8575 6.26098 9.20126 6.60368C9.54501 6.94639 9.73878 7.41145 9.74005 7.89685V11.5329C8.83107 11.6646 7.94343 11.9155 7.10005 12.2793C6.73464 12.4396 6.39065 12.6449 6.07605 12.8905V7.89685C6.07732 7.41201 6.27065 6.94742 6.61371 6.60481C6.95677 6.2622 7.42161 6.06948 7.90645 6.06885ZM9.74005 16.1032C9.74005 16.5896 9.54687 17.0559 9.203 17.3998C8.85913 17.7437 8.39275 17.9369 7.90645 17.9369C7.42015 17.9369 6.95376 17.7437 6.6099 17.3998C6.26603 17.0559 6.07285 16.5896 6.07285 16.1032V15.2801C6.07285 14.5529 6.64885 13.8641 7.61445 13.4353C8.29483 13.1417 9.00872 12.933 9.74005 12.8137V16.1032ZM16.0936 17.9313C15.6083 17.9315 15.1426 17.7391 14.7988 17.3964C14.4551 17.0537 14.2613 16.5886 14.26 16.1032V12.4673C15.169 12.3355 16.0567 12.0846 16.9 11.7208C17.2655 11.5605 17.6094 11.3552 17.924 11.1096V16.1032C17.9228 16.5881 17.7295 17.0527 17.3864 17.3953C17.0433 17.7379 16.5785 17.9306 16.0936 17.9313ZM16.3856 10.5601C15.7053 10.8536 14.9914 11.0624 14.26 11.1817V7.89685C14.26 7.41055 14.4532 6.94417 14.7971 6.6003C15.141 6.25643 15.6073 6.06325 16.0936 6.06325C16.5799 6.06325 17.0463 6.25643 17.3902 6.6003C17.7341 6.94417 17.9272 7.41055 17.9272 7.89685V8.72005C17.9272 9.44405 17.3512 10.1329 16.3856 10.5601Z" fill="url(#paint0_linear_256_16616)"/>
<defs>
<linearGradient id="paint0_linear_256_16616" x1="5.71205" y1="18.0907" x2="18.2059" y2="5.56274" gradientUnits="userSpaceOnUse">
<stop stop-color="#00AEE9"/>
<stop offset="1" stop-color="#69FABD"/>
</linearGradient>
</defs>
</svg>
