<svg width="24" height="24" viewBox="0 0 32 32" fill="none"
  xmlns="http://www.w3.org/2000/svg">
  <g clip-path="url(#clip0_1_215)">
    <path
      d="M16 32C24.8366 32 32 24.8366 32 16C32 7.16344 24.8366 0 16 0C7.16344 0 0 7.16344 0 16C0 24.8366 7.16344 32 16 32Z"
      fill="#2E3148" />
    <path
      d="M16.02 5.53C14.725 5.53 13.675 10.227 13.675 16.02C13.675 21.813 14.725 26.51 16.02 26.51C17.314 26.51 18.364 21.813 18.364 16.02C18.364 10.227 17.314 5.53 16.02 5.53ZM16.182 25.917C16.034 26.115 15.885 25.967 15.885 25.967C15.289 25.275 14.991 23.992 14.991 23.992C13.948 20.635 14.196 13.428 14.196 13.428C14.686 7.707 15.578 6.355 15.881 6.055C15.912 6.02423 15.9529 6.00544 15.9965 6.00197C16.0401 5.99849 16.0835 6.01054 16.119 6.036C16.559 6.349 16.929 7.653 16.929 7.653C18.019 11.701 17.92 15.501 17.92 15.501C18.019 18.809 17.374 22.511 17.374 22.511C16.877 25.325 16.182 25.917 16.182 25.917Z"
      fill="white" />
    <path
      d="M25.118 10.8C24.473 9.676 19.878 11.103 14.851 13.986C9.824 16.869 6.278 20.116 6.921 21.24C7.566 22.364 12.162 20.937 17.189 18.054C22.216 15.171 25.762 11.923 25.118 10.8ZM7.515 21.085C7.269 21.055 7.325 20.851 7.325 20.851C7.627 19.991 8.591 19.093 8.591 19.093C10.984 16.518 17.36 13.147 17.36 13.147C22.566 10.725 24.183 10.827 24.593 10.939C24.6353 10.9506 24.6722 10.9769 24.6969 11.0132C24.7216 11.0495 24.7327 11.0933 24.728 11.137C24.678 11.674 23.728 12.644 23.728 12.644C20.762 15.605 17.416 17.412 17.416 17.412C14.596 19.144 11.063 20.425 11.063 20.425C8.375 21.393 7.515 21.085 7.515 21.085Z"
      fill="white" />
    <path
      d="M25.095 21.277C25.745 20.157 22.208 16.894 17.197 13.989C12.187 11.085 7.59299 9.641 6.94399 10.763C6.29399 11.886 9.83199 15.146 14.844 18.051C19.857 20.955 24.446 22.399 25.095 21.277ZM7.37499 11.196C7.27799 10.968 7.48099 10.913 7.48099 10.913C8.37799 10.743 9.63799 11.13 9.63799 11.13C13.065 11.91 19.176 15.738 19.176 15.738C23.881 19.03 24.603 20.481 24.711 20.892C24.7219 20.9342 24.7176 20.979 24.6987 21.0183C24.6799 21.0576 24.6477 21.0891 24.608 21.107C24.118 21.332 22.803 20.997 22.803 20.997C18.753 19.911 15.514 17.922 15.514 17.922C12.604 16.352 9.72599 13.937 9.72599 13.937C7.53899 12.095 7.37599 11.197 7.37599 11.197L7.37399 11.196H7.37499Z"
      fill="white" />
    <path
      d="M15.995 17.229C16.6765 17.229 17.229 16.6765 17.229 15.995C17.229 15.3135 16.6765 14.761 15.995 14.761C15.3135 14.761 14.761 15.3135 14.761 15.995C14.761 16.6765 15.3135 17.229 15.995 17.229Z"
      fill="white" />
    <path
      d="M21.055 12.256C21.6073 12.256 22.055 11.8083 22.055 11.256C22.055 10.7037 21.6073 10.256 21.055 10.256C20.5027 10.256 20.055 10.7037 20.055 11.256C20.055 11.8083 20.5027 12.256 21.055 12.256Z"
      fill="white" />
    <path
      d="M9.30597 14.774C9.85825 14.774 10.306 14.3263 10.306 13.774C10.306 13.2217 9.85825 12.774 9.30597 12.774C8.75368 12.774 8.30597 13.2217 8.30597 13.774C8.30597 14.3263 8.75368 14.774 9.30597 14.774Z"
      fill="white" />
    <path
      d="M14.539 23.856C15.0913 23.856 15.539 23.4083 15.539 22.856C15.539 22.3037 15.0913 21.856 14.539 21.856C13.9867 21.856 13.539 22.3037 13.539 22.856C13.539 23.4083 13.9867 23.856 14.539 23.856Z"
      fill="white" />
  </g>
</svg>