<svg width="24" height="24" viewBox="0 0 32 32" fill="none"
  xmlns="http://www.w3.org/2000/svg">
  <g clip-path="url(#clip0_1_2630)">
    <path
      d="M16 32C24.8366 32 32 24.8366 32 16C32 7.16344 24.8366 0 16 0C7.16344 0 0 7.16344 0 16C0 24.8366 7.16344 32 16 32Z"
      fill="black" />
    <path
      d="M23.13 9.292L20.73 10.516L9.13202 16.423C8.96678 15.1536 9.15746 13.8632 9.68279 12.6959C10.2081 11.5285 11.0474 10.5301 12.1071 9.81188C13.1668 9.0937 14.4052 8.68406 15.6841 8.62863C16.963 8.57321 18.2322 8.87419 19.35 9.498L20.724 8.798L20.929 8.693C19.6255 7.74709 18.0786 7.19393 16.4709 7.09883C14.8631 7.00374 13.2618 7.37068 11.8559 8.15633C10.45 8.94198 9.29822 10.1135 8.53666 11.5326C7.7751 12.9517 7.43552 14.5591 7.55802 16.165C7.58095 16.4671 7.51399 16.7691 7.36558 17.0332C7.21718 17.2973 6.99395 17.5115 6.72402 17.649L5.99902 18.019V19.743L8.13302 18.655L8.82402 18.302L9.50502 17.955L21.731 11.725L23.105 11.026L25.945 9.579V7.856L23.13 9.292ZM25.946 11.304L10.201 19.32L8.82702 20.02L6.00002 21.463V23.186L8.80802 21.756L11.209 20.532L22.819 14.616C22.9868 15.8874 22.7974 17.1803 22.2721 18.3502C21.7468 19.52 20.9062 20.5205 19.8446 21.2398C18.7829 21.9591 17.542 22.3687 16.2608 22.4227C14.9795 22.4768 13.7085 22.1732 12.59 21.546L12.505 21.591L11.015 22.351C12.3187 23.2974 13.8661 23.8509 15.4743 23.9461C17.0825 24.0413 18.6843 23.6741 20.0905 22.888C21.4967 22.102 22.6485 20.9298 23.4099 19.5101C24.1713 18.0903 24.5103 16.4823 24.387 14.876C24.3643 14.5742 24.4313 14.2725 24.5795 14.0087C24.7277 13.7448 24.9505 13.5307 25.22 13.393L25.946 13.023V11.305V11.304Z"
      fill="white" />
  </g>
</svg>