<svg width="25" height="24" viewBox="0 0 25 24" fill="none"
  xmlns="http://www.w3.org/2000/svg">
  <circle cx="12.668" cy="12" r="12" fill="#F7931A" />
  <path fill-rule="evenodd" clip-rule="evenodd"
    d="M18.1366 10.4323C18.3863 8.75108 17.1155 7.8473 15.3779 7.24438L15.9415 4.96696L14.5653 4.62147L14.0165 6.83888C13.6547 6.74807 13.2831 6.66239 12.9139 6.5775L13.4666 4.34548L12.0911 4L11.5271 6.27663C11.2276 6.20793 10.9336 6.14002 10.6483 6.06855L10.6498 6.06145L8.75188 5.58409L8.38578 7.06473C8.38578 7.06473 9.40688 7.30045 9.38532 7.31506C9.94271 7.45522 10.0434 7.82677 10.0266 8.12131L9.38454 10.7158C9.42295 10.7257 9.47273 10.7399 9.52761 10.762L9.48097 10.7503L9.48087 10.7502C9.44898 10.7422 9.41593 10.7338 9.38218 10.7257L8.4822 14.3601C8.414 14.5307 8.24114 14.7866 7.85151 14.6894C7.86523 14.7096 6.85119 14.4379 6.85119 14.4379L6.16797 16.0248L7.95891 16.4745C8.15893 16.525 8.35655 16.5769 8.55211 16.6283C8.6823 16.6625 8.81157 16.6964 8.94003 16.7296L8.37049 19.033L9.74515 19.3785L10.3092 17.0995C10.6847 17.2022 11.0493 17.2969 11.406 17.3862L10.8439 19.6545L12.2201 20L12.7896 17.7009C15.1364 18.1482 16.9011 17.9678 17.6439 15.8297C18.2424 14.1082 17.6141 13.1152 16.3794 12.4677C17.2786 12.2588 17.9559 11.663 18.1366 10.4323ZM14.9922 14.8738C14.602 16.4532 12.1477 15.8003 11.0248 15.5015L11.0246 15.5015C10.9237 15.4746 10.8334 15.4506 10.7565 15.4313L11.5122 12.3796C11.606 12.4032 11.7205 12.4291 11.8503 12.4584L11.8503 12.4584C13.0118 12.721 15.392 13.259 14.9922 14.8738ZM12.0837 11.0422C13.0199 11.2939 15.0621 11.8429 15.4179 10.4074C15.7811 8.93914 13.7962 8.49654 12.8269 8.28038C12.7178 8.25606 12.6216 8.23461 12.5431 8.21489L11.8579 10.9827C11.9226 10.999 11.9986 11.0194 12.0837 11.0422Z"
    fill="white" />
</svg>