<svg width="22" height="22" viewBox="0 0 22 22" fill="none" xmlns="http://www.w3.org/2000/svg">
<g clip-path="url(#clip0_9015_547351)">
<path d="M0 11C0 4.92487 4.92487 0 11 0C17.0751 0 22 4.92487 22 11C22 17.0751 17.0751 22 11 22C4.92487 22 0 17.0751 0 11Z" fill="white"/>
<path d="M11.0172 4.40039L10.9287 4.70111V13.4273L11.0172 13.5156L15.0678 11.1213L11.0172 4.40039Z" fill="#343434"/>
<path d="M11.0174 4.40039L6.9668 11.1213L11.0174 13.5156V9.28021V4.40039Z" fill="#8C8C8C"/>
<path d="M11.0176 14.2827L10.9678 14.3435V17.452L11.0176 17.5976L15.0706 11.8896L11.0176 14.2827Z" fill="#3C3C3B"/>
<path d="M11.0174 17.5976V14.2827L6.9668 11.8896L11.0174 17.5976Z" fill="#8C8C8C"/>
<path d="M11.0171 13.5156L15.0676 11.1214L11.0171 9.28027V13.5156Z" fill="#141414"/>
<path d="M6.9668 11.1214L11.0173 13.5156V9.28027L6.9668 11.1214Z" fill="#393939"/>
</g>
<defs>
<clipPath id="clip0_9015_547351">
<rect width="22" height="22" fill="white"/>
</clipPath>
</defs>
</svg>
