<svg width="37" height="37" viewBox="0 0 37 37" fill="none" xmlns="http://www.w3.org/2000/svg">
<path d="M0 13.9152V30.7236C0 32.7339 0 33.7391 0.39123 34.5069C0.735366 35.1823 1.28449 35.7314 1.95989 36.0756C2.72773 36.4668 3.73287 36.4668 5.74317 36.4668H22.6936C24.4425 36.4668 25.3169 36.4668 26.1402 36.2699C26.8701 36.0953 27.5682 35.8074 28.2089 35.4166C28.9315 34.9758 29.5517 34.3593 30.7919 33.1263L32.7174 31.212C33.9676 29.969 34.5928 29.3476 35.0399 28.6213C35.4363 27.9774 35.7285 27.2749 35.9056 26.5398C36.1055 25.7106 36.1055 24.8292 36.1055 23.0662V9.08991V6.20997C36.1055 4.19967 36.1055 3.19452 35.7142 2.42669C35.3701 1.75128 34.821 1.20216 34.1456 0.858027C33.3777 0.466797 32.3726 0.466797 30.3623 0.466797H27.4318H13.4881C11.7563 0.466797 10.8904 0.466797 10.0742 0.66015C9.35058 0.831587 8.65796 1.11443 8.02115 1.49855C7.30294 1.93177 6.68455 2.5379 5.44777 3.75016L3.44601 5.71223C2.17476 6.95827 1.53914 7.58129 1.08433 8.31192C0.68113 8.95965 0.383762 9.66752 0.203421 10.4089C0 11.2451 0 12.1351 0 13.9152Z" fill="#201E27"/>
<ellipse cx="21.67" cy="18.4672" rx="5.90436" ry="5.88711" fill="#FF68F0"/>
<path d="M14.3301 25.2893C18.1048 25.2893 21.1695 22.2375 21.1695 18.4672C21.1695 14.6969 18.1048 11.6451 14.3301 11.6451C10.5554 11.6451 7.49077 14.6969 7.49077 18.4672C7.49077 22.2375 10.5554 25.2893 14.3301 25.2893Z" fill="#5FF4AD" stroke="#201E27" stroke-width="1.87003"/>
</svg>
