<svg width="22" height="23" viewBox="0 0 22 23" fill="none" xmlns="http://www.w3.org/2000/svg">
<path d="M11 22.5C17.0751 22.5 22 17.5751 22 11.5C22 5.42487 17.0751 0.5 11 0.5C4.92487 0.5 0 5.42487 0 11.5C0 17.5751 4.92487 22.5 11 22.5Z" fill="currentColor"/>
<path fill-rule="evenodd" clip-rule="evenodd" d="M12.3212 12.4507V12.4494C12.2456 12.4549 11.8557 12.4782 10.9861 12.4782C10.2917 12.4782 9.80287 12.4576 9.63099 12.4494V12.4514C6.95799 12.3339 4.96287 11.8684 4.96287 11.3116C4.96287 10.7554 6.95799 10.2899 9.63099 10.1703V11.988C9.80562 12.0004 10.3061 12.03 10.9977 12.03C11.8276 12.03 12.2435 11.9956 12.3212 11.9887V10.1717C14.9887 10.2906 16.979 10.7561 16.979 11.3116C16.979 11.8684 14.9887 12.3325 12.3212 12.4507ZM12.3212 9.98261V8.35599H16.0433V5.87549H5.90887V8.35599H9.63099V9.98193C6.60599 10.1208 4.33105 10.7203 4.33105 11.4381C4.33105 12.1558 6.60599 12.7546 9.63099 12.8942V18.1068H12.3212V12.8928C15.3414 12.7539 17.6108 12.1551 17.6108 11.4381C17.6108 10.721 15.3414 10.1222 12.3212 9.98261Z" fill="#0C0B0F"/>
</svg>
